<!-- Generator: Adobe Illustrator 19.0.0, SVG Export Plug-In  -->
<svg version="1.1"
	 xmlns="http://www.w3.org/2000/svg" xmlns:xlink="http://www.w3.org/1999/xlink" xmlns:a="http://ns.adobe.com/AdobeSVGViewerExtensions/3.0/"
	 x="0px" y="0px" width="25.8px" height="7.6px" viewBox="0 0 25.8 7.6"
	 style="overflow:scroll;enable-background:new 0 0 25.8 7.6;" xml:space="preserve">
<style type="text/css">
	.st0{fill:#414042;}
</style>
<defs>
</defs>
<g>
	<g>
		<path class="st0" d="M0,6.5l3.1-3c0.2-0.2,0.4-0.3,0.5-0.4s0.2-0.3,0.3-0.4s0.1-0.2,0.2-0.4c0-0.1,0.1-0.3,0.1-0.5
			c0-0.2,0-0.3-0.1-0.4S3.9,1.2,3.7,1.2S3.5,1.1,3.3,1C3.1,1,2.9,1,2.7,1C2.6,1,2.5,1,2.4,1C2.2,1,2.1,1,2,1.1S1.7,1.1,1.5,1.2
			S1.3,1.3,1.2,1.3c0,0.1,0,0.2,0,0.4c0,0.1,0,0.2,0,0.4C1.1,2.1,1,2.1,0.9,2.2c-0.1,0-0.3,0.1-0.4,0.1C0.4,2,0.4,1.8,0.3,1.5
			S0.2,1,0.1,0.7c0.5-0.2,0.9-0.4,1.4-0.5C1.9,0.1,2.3,0,2.7,0c0.3,0,0.5,0,0.9,0c0.3,0,0.6,0.1,0.9,0.2c0.3,0.1,0.5,0.3,0.7,0.5
			s0.3,0.6,0.3,1V2c0,0.2-0.1,0.5-0.2,0.7C5.1,2.9,5,3.1,4.8,3.3C4.6,3.5,4.4,3.7,4.2,3.9C3.9,4.1,3.7,4.3,3.4,4.5l-2.1,2h3.5
			c0-0.1,0.1-0.2,0.1-0.4c0-0.1,0-0.3,0-0.5h0.8v1.8H0V6.5z"/>
		<path class="st0" d="M9.5,0c0.4,0,0.7,0,1.1,0.1c0.3,0.1,0.7,0.2,0.9,0.4c0.3,0.2,0.5,0.5,0.7,0.9c0.2,0.4,0.2,0.9,0.2,1.6v1.3
			c0,0.7-0.1,1.2-0.2,1.6s-0.4,0.7-0.6,1c-0.3,0.2-0.6,0.4-0.9,0.5c-0.4,0.1-0.7,0.1-1.1,0.1c-0.4,0-0.8,0-1.2-0.1
			C8,7.3,7.7,7.2,7.4,7C7.2,6.7,7,6.4,6.8,6C6.7,5.6,6.6,5,6.6,4.4V3.1c0-0.7,0.1-1.2,0.2-1.6C7,1.1,7.2,0.7,7.5,0.5
			c0.3-0.2,0.6-0.4,0.9-0.4C8.8,0,9.1,0,9.5,0z M9.5,0.9C9.2,0.9,9,0.9,8.8,1C8.6,1.1,8.4,1.2,8.3,1.4C8.1,1.6,8,1.8,7.9,2.1
			C7.9,2.4,7.8,2.8,7.8,3.3v1c0,0.5,0,0.9,0.1,1.2C8,5.8,8.1,6,8.3,6.2s0.3,0.3,0.5,0.4C9,6.6,9.3,6.6,9.5,6.6c0.2,0,0.5,0,0.7-0.1
			c0.2-0.1,0.4-0.2,0.5-0.4C10.8,6,11,5.8,11,5.5s0.1-0.7,0.1-1.2v-1c0-0.5,0-0.9-0.1-1.2c-0.1-0.3-0.2-0.6-0.3-0.7
			c-0.1-0.2-0.3-0.3-0.5-0.4C10,0.9,9.8,0.9,9.5,0.9z"/>
		<path class="st0" d="M16.3,0c0.4,0,0.7,0,1.1,0.1c0.3,0.1,0.7,0.2,0.9,0.4c0.3,0.2,0.5,0.5,0.7,0.9c0.2,0.4,0.2,0.9,0.2,1.6v1.3
			C19.2,5,19.1,5.6,19,6s-0.4,0.7-0.6,1c-0.3,0.2-0.6,0.4-0.9,0.5c-0.4,0.1-0.7,0.1-1.1,0.1c-0.4,0-0.8,0-1.2-0.1
			c-0.4-0.1-0.7-0.2-0.9-0.5c-0.3-0.2-0.5-0.6-0.6-1c-0.1-0.4-0.2-0.9-0.2-1.6V3.1c0-0.7,0.1-1.2,0.2-1.6c0.2-0.4,0.4-0.7,0.7-0.9
			c0.3-0.2,0.6-0.4,0.9-0.4C15.6,0,15.9,0,16.3,0z M16.3,0.9c-0.3,0-0.5,0-0.7,0.1c-0.2,0.1-0.4,0.2-0.5,0.4
			c-0.1,0.2-0.3,0.4-0.3,0.7c-0.1,0.3-0.1,0.7-0.1,1.2v1c0,0.5,0,0.9,0.1,1.2c0.1,0.3,0.2,0.5,0.3,0.7s0.3,0.3,0.5,0.4
			c0.2,0.1,0.4,0.1,0.7,0.1c0.2,0,0.5,0,0.7-0.1c0.2-0.1,0.4-0.2,0.5-0.4c0.1-0.2,0.3-0.4,0.4-0.7s0.1-0.7,0.1-1.2v-1
			c0-0.5,0-0.9-0.1-1.2c-0.1-0.3-0.2-0.6-0.3-0.7C17.3,1.2,17.2,1.1,17,1C16.8,0.9,16.5,0.9,16.3,0.9z"/>
		<path class="st0" d="M24.1,6.5c0.2-0.1,0.3-0.2,0.3-0.4s0.1-0.4,0.1-0.6c0-0.2,0-0.4,0-0.6s0-0.3,0-0.4c0,0-0.1,0.1-0.2,0.1
			c-0.1,0-0.2,0.1-0.3,0.1c-0.1,0-0.3,0.1-0.5,0.1c-0.2,0-0.4,0.1-0.6,0.1h-0.3c-0.4,0-0.7,0-1-0.1c-0.3-0.1-0.6-0.2-0.8-0.4
			c-0.2-0.2-0.4-0.4-0.6-0.7s-0.2-0.7-0.2-1.2c0-0.4,0.1-0.8,0.2-1.1c0.1-0.3,0.3-0.5,0.6-0.7c0.3-0.2,0.5-0.3,0.9-0.4
			C22.1,0.1,22.5,0,22.9,0c0.5,0,0.9,0,1.2,0.1c0.4,0.1,0.7,0.2,0.9,0.4c0.2,0.2,0.4,0.5,0.6,0.9s0.2,0.9,0.2,1.5v1.9
			c0,0.5-0.1,0.9-0.2,1.3S25.2,6.8,24.9,7c-0.3,0.2-0.6,0.4-0.9,0.4c-0.4,0.1-0.7,0.1-1.1,0.1c-0.4,0-0.8,0-1.2-0.1
			s-0.8-0.2-1.2-0.4l0.3-0.8c0.4,0.2,0.7,0.3,1.1,0.3c0.4,0.1,0.7,0.1,1.1,0.1c0.2,0,0.4,0,0.7,0C23.8,6.6,24,6.6,24.1,6.5z
			 M24.6,2.8c0-0.4,0-0.7-0.1-0.9c-0.1-0.2-0.2-0.4-0.4-0.6C23.9,1.1,23.8,1,23.6,1c-0.2,0-0.4-0.1-0.6-0.1c-0.2,0-0.4,0-0.6,0.1
			c-0.2,0-0.4,0.1-0.5,0.2c-0.2,0.1-0.3,0.3-0.4,0.5c-0.1,0.2-0.1,0.4-0.1,0.8c0,0.3,0,0.6,0.1,0.8c0.1,0.2,0.2,0.4,0.3,0.5
			s0.3,0.2,0.5,0.2S22.6,4,22.8,4h0.2c0.3,0,0.6,0,0.9-0.1s0.4-0.1,0.6-0.2l0.2-0.1V2.8z"/>
	</g>
</g>
</svg>
