<?xml version="1.0" encoding="utf-8"?>
<!-- Generator: Adobe Illustrator 19.0.0, SVG Export Plug-In . SVG Version: 6.00 Build 0)  -->
<svg version="1.1" id="Layer_1" xmlns="http://www.w3.org/2000/svg" xmlns:xlink="http://www.w3.org/1999/xlink" x="0px" y="0px"
	 viewBox="-244 406.5 105.9 29.4" style="enable-background:new -244 406.5 105.9 29.4;" xml:space="preserve">
<style type="text/css">
	.st0{enable-background:new    ;}
	.st1{fill:#414042;}
</style>
<g>
	<g class="st0">
		<path class="st1" d="M-180.3,415.7h-4.5v-1.2l3.9-6.1h2.1v6.1h0.8v1.2h-0.8v1.7h-1.6V415.7z M-180.3,414.5V410l-2.9,4.5H-180.3z"
			/>
		<path class="st1" d="M-173.4,408.4c2.1,0,3.6,1.7,3.6,4.6c0,2.9-1.5,4.6-3.6,4.6c-2.1,0-3.6-1.7-3.6-4.6
			C-177,410-175.5,408.4-173.4,408.4z M-173.4,416.4c1.1,0,1.9-1.2,1.9-3.4s-0.7-3.4-1.9-3.4s-1.9,1.2-1.9,3.4
			S-174.5,416.4-173.4,416.4z"/>
		<path class="st1" d="M-161.9,408.4c2.1,0,3.6,1.7,3.6,4.6c0,2.9-1.5,4.6-3.6,4.6c-2.1,0-3.6-1.7-3.6-4.6
			C-165.5,410-164,408.4-161.9,408.4z M-161.9,416.4c1.1,0,1.9-1.2,1.9-3.4s-0.7-3.4-1.9-3.4s-1.9,1.2-1.9,3.4
			S-163,416.4-161.9,416.4z"/>
		<path class="st1" d="M-153.6,408.4c2.1,0,3.6,1.7,3.6,4.6c0,2.9-1.5,4.6-3.6,4.6c-2.1,0-3.6-1.7-3.6-4.6
			C-157.3,410-155.8,408.4-153.6,408.4z M-153.6,416.4c1.1,0,1.9-1.2,1.9-3.4s-0.7-3.4-1.9-3.4s-1.9,1.2-1.9,3.4
			S-154.8,416.4-153.6,416.4z"/>
		<path class="st1" d="M-145.4,408.4c2.1,0,3.6,1.7,3.6,4.6c0,2.9-1.5,4.6-3.6,4.6c-2.1,0-3.6-1.7-3.6-4.6
			C-149,410-147.5,408.4-145.4,408.4z M-145.4,416.4c1.1,0,1.9-1.2,1.9-3.4s-0.7-3.4-1.9-3.4s-1.9,1.2-1.9,3.4
			S-146.5,416.4-145.4,416.4z"/>
	</g>
	<g class="st0">
		<path class="st1" d="M-243,432.9h-0.8v-6.4h0.7l0,1.4c0.4-1,1.1-1.5,1.9-1.5c0.9,0,1.7,0.6,1.9,1.5c0.4-1,1.2-1.5,2.1-1.5
			c1.2,0,2.1,0.9,2.1,2.3v4.2h-0.8v-4.2c0-1.1-0.6-1.8-1.5-1.8c-1,0-1.8,1-1.8,2.7v3.2h-0.8v-4.2c0-1.1-0.6-1.8-1.5-1.8
			c-1,0-1.8,1-1.8,2.7V432.9z"/>
		<path class="st1" d="M-230.5,434.1c-0.4,1.1-1.4,1.7-2.7,1.7v-0.5c0.8,0,1.6-0.4,1.9-1.1l0.5-1.1h-0.1l-2.6-6.4h0.8l2.3,5.7
			l2.3-5.7h0.8L-230.5,434.1z"/>
		<path class="st1" d="M-225.8,431c0,0.9,0.8,1.5,1.8,1.5c1,0,1.7-0.5,1.7-1.2c0-1.9-4.1-0.6-4.1-3c0-1.1,1-1.8,2.3-1.8
			c1.3,0,2.3,0.7,2.3,1.9h-0.7c0-0.8-0.7-1.4-1.6-1.4s-1.5,0.5-1.5,1.2c0,1.8,4.1,0.5,4.1,3c0,1.1-1,1.8-2.5,1.8
			c-1.4,0-2.5-0.8-2.5-2H-225.8z"/>
		<path class="st1" d="M-219.5,431.3V427h-1.1v-0.5h1.1v-1.4h0.8v1.4h1.8v0.5h-1.8v4.4c0,0.7,0.5,1,1.3,1c0.2,0,0.3,0,0.5-0.1v0.5
			c-0.2,0-0.4,0.1-0.6,0.1C-218.8,433-219.5,432.4-219.5,431.3z"/>
		<path class="st1" d="M-209.9,429.9h-5c0,1.6,0.9,2.5,2.3,2.5c1.1,0,1.9-0.6,1.9-1.5h0.7c0,1.2-1.1,2-2.6,2c-1.8,0-3.1-1.2-3.1-3.3
			c0-2.1,1.2-3.3,3.1-3.3C-211,426.5-209.8,427.6-209.9,429.9z M-214.9,429.4h4.2c0-1.5-0.8-2.4-1.9-2.4
			C-213.9,427-214.9,427.9-214.9,429.4z"/>
		<path class="st1" d="M-207.2,432.9h-0.8v-6.4h0.7l0.1,1.5c0.4-1,1.3-1.5,2.3-1.5v0.6c-1.4,0-2.3,1.1-2.3,2.8V432.9z"/>
		<path class="st1" d="M-200.8,434.1c-0.4,1.1-1.4,1.7-2.7,1.7v-0.5c0.8,0,1.6-0.4,1.9-1.1l0.5-1.1h-0.1l-2.6-6.4h0.8l2.3,5.7
			l2.3-5.7h0.8L-200.8,434.1z"/>
		<path class="st1" d="M-192.9,431c0,0.9,0.8,1.5,1.8,1.5c1,0,1.7-0.5,1.7-1.2c0-1.9-4.1-0.6-4.1-3c0-1.1,1-1.8,2.3-1.8
			c1.3,0,2.3,0.7,2.3,1.9h-0.7c0-0.8-0.7-1.4-1.6-1.4s-1.5,0.5-1.5,1.2c0,1.8,4.1,0.5,4.1,3c0,1.1-1,1.8-2.5,1.8
			c-1.4,0-2.5-0.8-2.5-2H-192.9z"/>
		<path class="st1" d="M-186.1,432.9h-0.8v-9.3h0.8v4.3c0.4-0.9,1.3-1.4,2.3-1.4c1.4,0,2.4,0.9,2.4,2.3v4.2h-0.8v-4.2
			c0-1.1-0.7-1.8-1.8-1.8c-1.3,0-2.1,1-2.1,2.7V432.9z"/>
		<path class="st1" d="M-176.6,426.5c1.8,0,3.1,1.2,3.1,3.3c0,2.1-1.3,3.3-3.1,3.3c-1.8,0-3.1-1.2-3.1-3.3
			C-179.7,427.7-178.4,426.5-176.6,426.5z M-176.6,432.4c1.4,0,2.3-1,2.3-2.7s-0.9-2.7-2.3-2.7c-1.4,0-2.3,1-2.3,2.7
			S-178,432.4-176.6,432.4z"/>
		<path class="st1" d="M-171.7,426.5h0.7l0,1.4c0.4-0.9,1.2-1.5,2.3-1.5c1.7,0,2.9,1.2,2.9,3.3c0,2.1-1.2,3.3-2.9,3.3
			c-1,0-1.8-0.5-2.3-1.4v4.1h-0.8V426.5z M-168.8,432.4c1.4,0,2.3-1,2.3-2.7s-0.9-2.7-2.3-2.7c-1.3,0-2.1,1-2.1,2.7
			S-170.1,432.4-168.8,432.4z"/>
		<path class="st1" d="M-164,426.5h0.7l0,1.4c0.4-0.9,1.2-1.5,2.3-1.5c1.7,0,2.9,1.2,2.9,3.3c0,2.1-1.2,3.3-2.9,3.3
			c-1,0-1.8-0.5-2.3-1.4v4.1h-0.8V426.5z M-161.1,432.4c1.4,0,2.3-1,2.3-2.7s-0.9-2.7-2.3-2.7c-1.3,0-2.1,1-2.1,2.7
			S-162.3,432.4-161.1,432.4z"/>
		<path class="st1" d="M-150.8,429.9h-5c0,1.6,0.9,2.5,2.3,2.5c1.1,0,1.9-0.6,1.9-1.5h0.7c0,1.2-1.1,2-2.6,2c-1.8,0-3.1-1.2-3.1-3.3
			c0-2.1,1.2-3.3,3.1-3.3C-151.9,426.5-150.7,427.6-150.8,429.9z M-155.7,429.4h4.2c0-1.5-0.8-2.4-1.9-2.4
			C-154.7,427-155.7,427.9-155.7,429.4z"/>
		<path class="st1" d="M-148.1,432.9h-0.8v-6.4h0.7l0.1,1.5c0.4-1,1.3-1.5,2.3-1.5v0.6c-1.4,0-2.3,1.1-2.3,2.8V432.9z"/>
		<path class="st1" d="M-143.8,431c0,0.9,0.8,1.5,1.8,1.5c1,0,1.7-0.5,1.7-1.2c0-1.9-4.1-0.6-4.1-3c0-1.1,1-1.8,2.3-1.8
			c1.3,0,2.3,0.7,2.3,1.9h-0.7c0-0.8-0.7-1.4-1.6-1.4c-0.9,0-1.5,0.5-1.5,1.2c0,1.8,4.1,0.5,4.1,3c0,1.1-1,1.8-2.5,1.8
			c-1.4,0-2.5-0.8-2.5-2H-143.8z"/>
	</g>
</g>
</svg>
