<!-- Generator: Adobe Illustrator 19.0.0, SVG Export Plug-In  -->
<svg version="1.1"
	 xmlns="http://www.w3.org/2000/svg" xmlns:xlink="http://www.w3.org/1999/xlink" xmlns:a="http://ns.adobe.com/AdobeSVGViewerExtensions/3.0/"
	 x="0px" y="0px" width="27.1px" height="30.9px" viewBox="0 0 27.1 30.9"
	 style="overflow:scroll;enable-background:new 0 0 27.1 30.9;" xml:space="preserve">
<style type="text/css">
	.st0{fill:#414042;}
</style>
<defs>
</defs>
<g>
	<g>
		<path class="st0" d="M4.7,28.5C4.7,28.5,4.7,28.5,4.7,28.5c-1,0-2-0.5-2-1.5V2c0-1.1,0.9-2,2-2s2,0.9,2,2v1.5
			c0,0.4-0.3,0.7-0.7,0.7c-0.4,0-0.7-0.3-0.7-0.7V2c0-0.3-0.3-0.6-0.6-0.6C4.4,1.4,4.1,1.7,4.1,2v24.9C4.3,26.9,4.5,27,4.7,27
			c0.1,0,0.4,0,0.6,0V6.8c0-0.4,0.3-0.7,0.7-0.7c0.4,0,0.7,0.3,0.7,0.7V27C6.7,28.5,5.3,28.5,4.7,28.5z"/>
	</g>
	<g>
		<path class="st0" d="M4.7,30.9C2,30.9,0,29.8,0,28.3c0-1.2,1.2-2.1,3.2-2.5C3.5,25.8,3.9,26,4,26.4c0.1,0.4-0.2,0.8-0.6,0.8
			c-1.4,0.3-2,0.8-2,1.1c0,0.4,1.2,1.2,3.3,1.2c2,0,3.3-0.8,3.3-1.2c0-0.3-0.7-0.9-2.1-1.1c-0.4-0.1-0.7-0.4-0.6-0.8
			c0.1-0.4,0.4-0.7,0.8-0.6c2,0.3,3.3,1.3,3.3,2.5C9.4,29.8,7.4,30.9,4.7,30.9z"/>
	</g>
	<g>
		<path class="st0" d="M6,21.2c-0.3,0-0.6-0.2-0.7-0.5c-0.1-0.4,0.1-0.8,0.4-0.9l6.4-2.3v-6.7c0-0.2,0.1-0.5,0.3-0.6
			c0.2-0.1,0.4-0.2,0.7-0.1l2.6,0.9V7.7L5.8,4.2C5.4,4,5.2,3.6,5.3,3.2c0.1-0.4,0.5-0.6,0.9-0.4l10.4,3.7c0.3,0.1,0.5,0.4,0.5,0.7v5
			c0,0.2-0.1,0.5-0.3,0.6c-0.2,0.1-0.4,0.2-0.7,0.1l-2.6-0.9v6.2c0,0.3-0.2,0.6-0.5,0.7l-6.8,2.4C6.2,21.2,6.1,21.2,6,21.2z"/>
	</g>
	<g>
		<path class="st0" d="M12.9,21.2c-0.1,0-0.3,0-0.4-0.1c-0.2-0.1-0.3-0.4-0.3-0.6v-9.6c0-0.2,0.1-0.5,0.3-0.6
			c0.2-0.1,0.4-0.2,0.7-0.1L26.7,15c0.3,0.1,0.5,0.4,0.5,0.7c0,0.3-0.2,0.6-0.5,0.7l-13.5,4.8C13,21.2,12.9,21.2,12.9,21.2z
			 M13.6,11.9v7.6l10.7-3.8L13.6,11.9z"/>
	</g>
	<g>
		<path class="st0" d="M12.9,11.6c-0.2,0-0.4-0.1-0.5-0.2c-0.3-0.3-0.3-0.7,0-1l3.6-3.7c0.3-0.3,0.7-0.3,1,0c0.3,0.3,0.3,0.7,0,1
			l-3.6,3.7C13.2,11.5,13,11.6,12.9,11.6z"/>
	</g>
</g>
</svg>
