<!-- Generator: Adobe Illustrator 19.0.0, SVG Export Plug-In  -->
<svg version="1.1"
	 xmlns="http://www.w3.org/2000/svg" xmlns:xlink="http://www.w3.org/1999/xlink" xmlns:a="http://ns.adobe.com/AdobeSVGViewerExtensions/3.0/"
	 x="0px" y="0px" width="103.1px" height="27.3px" viewBox="0 0 103.1 27.3"
	 style="overflow:scroll;enable-background:new 0 0 103.1 27.3;" xml:space="preserve">
<style type="text/css">
	.st0{fill:#414042;}
</style>
<defs>
</defs>
<g>
	<g>
		<path class="st0" d="M0.1,0h6.1v1.2H1.9v2.6h3.8V5H1.9v2.9h4.4V9H0.1V0z"/>
		<path class="st0" d="M11.2,8.1c-0.4,0.6-1.1,1-1.9,1C8,9.1,7.1,8.5,7.1,7.4c0-1.4,1.4-2.2,3.7-2.2h0.4V4.8c0-0.8-0.5-1.2-1.2-1.2
			C9.3,3.6,8.9,4,8.9,4.7H7.2c0-1.4,1.1-2.2,2.8-2.2c1.7,0,2.9,0.8,2.9,2.3V9h-1.6L11.2,8.1z M10.8,6C9.5,6,8.8,6.5,8.8,7.2
			C8.8,7.7,9.2,8,9.7,8c0.9,0,1.4-0.7,1.4-1.8V6H10.8z"/>
		<path class="st0" d="M15.8,6.9c0,0.7,0.5,1.1,1.1,1.1C17.6,8,18,7.7,18,7.2c0-1.4-3.8-0.3-3.8-2.8c0-1.2,1.1-1.9,2.7-1.9
			c1.5,0,2.6,0.8,2.6,2H18c0-0.6-0.4-1-1-1c-0.6,0-1,0.3-1,0.8c0,1.3,3.8,0.3,3.8,2.8c0,1.2-1.2,1.9-2.9,1.9c-1.6,0-2.8-0.8-2.8-2.2
			H15.8z"/>
		<path class="st0" d="M21.3,7.1V3.6h-0.9V2.6h0.9V1.2H23v1.4h1.4v1.1H23v3.6C23,7.7,23.4,8,24,8c0.2,0,0.4,0,0.5-0.1V9
			c-0.2,0-0.5,0.1-0.7,0.1C22,9.1,21.3,8.5,21.3,7.1z"/>
		<path class="st0" d="M31.4,6.2H27C27,7.4,27.7,8,28.5,8c0.7,0,1.2-0.4,1.2-1.1h1.7c0,1.3-1.2,2.2-2.9,2.2c-1.9,0-3.3-1.2-3.3-3.3
			c0-2.1,1.3-3.3,3.3-3.3C30.3,2.5,31.6,3.7,31.4,6.2z M27,5.3h2.7c0-1.1-0.5-1.7-1.2-1.7C27.7,3.6,27,4.2,27,5.3z"/>
		<path class="st0" d="M34.4,9h-1.7V2.6h1.5l0.2,1.1c0.4-0.8,1.2-1.1,2-1.1v1.2c-1.1,0-2,1-2,2.5V9z"/>
		<path class="st0" d="M39.4,9h-1.7V2.6h1.6l0.1,0.9c0.4-0.6,1.1-1,1.8-1c1.4,0,2.4,0.9,2.4,2.3V9h-1.7V4.8c0-0.8-0.4-1.2-1.1-1.2
			c-0.9,0-1.4,0.8-1.4,2.2V9z"/>
		<path class="st0" d="M48.4,0h6.1v1.2h-4.3v2.6H54V5h-3.8v2.9h4.4V9h-6.2V0z"/>
		<path class="st0" d="M60,2.6h1.7V9h-1.6L60,8.1c-0.4,0.6-1.1,1-1.9,1c-1.4,0-2.3-0.8-2.3-2.2V2.6h1.7v4.3c0,0.7,0.4,1.1,1.1,1.1
			C59.4,8,60,7.2,60,5.8V2.6z"/>
		<path class="st0" d="M64.9,9h-1.7V2.6h1.5l0.2,1.1c0.4-0.8,1.2-1.1,2-1.1v1.2c-1.1,0-2,1-2,2.5V9z"/>
		<path class="st0" d="M70.9,2.5c1.9,0,3.3,1.2,3.3,3.3c0,2.1-1.3,3.3-3.3,3.3c-1.9,0-3.3-1.2-3.3-3.3C67.6,3.7,69,2.5,70.9,2.5z
			 M70.9,8c0.9,0,1.5-0.8,1.5-2.2s-0.6-2.2-1.5-2.2c-0.9,0-1.5,0.8-1.5,2.2S70,8,70.9,8z"/>
		<path class="st0" d="M75.3,2.6h1.6l0.1,0.9c0.4-0.6,1-1,1.8-1c1.7,0,2.8,1.2,2.8,3.3c0,2.1-1.1,3.3-2.8,3.3
			c-0.8,0-1.4-0.3-1.8-0.8v3.5h-1.7V2.6z M78.5,8c0.9,0,1.5-0.8,1.5-2.2s-0.6-2.2-1.5-2.2c-0.8,0-1.4,0.8-1.4,2.2S77.6,8,78.5,8z"/>
		<path class="st0" d="M88.8,6.2h-4.4C84.4,7.4,85,8,85.9,8c0.7,0,1.2-0.4,1.2-1.1h1.7c0,1.3-1.2,2.2-2.9,2.2
			c-1.9,0-3.3-1.2-3.3-3.3c0-2.1,1.3-3.3,3.3-3.3C87.7,2.5,89,3.7,88.8,6.2z M84.4,5.3h2.7c0-1.1-0.5-1.7-1.2-1.7
			C85,3.6,84.4,4.2,84.4,5.3z"/>
		<path class="st0" d="M93.9,8.1c-0.4,0.6-1.1,1-1.9,1c-1.3,0-2.2-0.6-2.2-1.7c0-1.4,1.4-2.2,3.7-2.2h0.4V4.8c0-0.8-0.5-1.2-1.2-1.2
			c-0.7,0-1.1,0.4-1.1,1.1H90c0-1.4,1.1-2.2,2.8-2.2c1.7,0,2.9,0.8,2.9,2.3V9H94L93.9,8.1z M93.5,6c-1.3,0-1.9,0.4-1.9,1.2
			c0,0.5,0.3,0.8,0.9,0.8c0.9,0,1.4-0.7,1.4-1.8V6H93.5z"/>
		<path class="st0" d="M98.8,9h-1.7V2.6h1.6l0.1,0.9c0.4-0.6,1.1-1,1.8-1c1.4,0,2.4,0.9,2.4,2.3V9h-1.7V4.8c0-0.8-0.4-1.2-1.1-1.2
			c-0.9,0-1.4,0.8-1.4,2.2V9z"/>
		<path class="st0" d="M5.8,21.5h-5c0,1.6,0.9,2.5,2.3,2.5C4.2,24,5,23.4,5,22.5h0.7c0,1.2-1.1,2-2.6,2c-1.8,0-3.1-1.2-3.1-3.3
			C0,19.2,1.2,18,3.1,18C4.7,18,5.8,19.1,5.8,21.5z M0.8,21H5c0-1.5-0.8-2.4-1.9-2.4C1.8,18.6,0.8,19.4,0.8,21z"/>
		<path class="st0" d="M9.3,21.2L6.8,18h0.9l2.1,2.7l2.1-2.7h0.9l-2.5,3.2l2.6,3.3h-0.9l-2.1-2.8l-2.1,2.8H6.7L9.3,21.2z"/>
		<path class="st0" d="M14.3,18H15l0,1.4c0.4-0.9,1.2-1.5,2.3-1.5c1.7,0,2.9,1.2,2.9,3.3c0,2.1-1.2,3.3-2.9,3.3
			c-1,0-1.8-0.5-2.3-1.4v4.1h-0.8V18z M17.2,24c1.4,0,2.3-1,2.3-2.7s-0.9-2.7-2.3-2.7c-1.3,0-2.1,1-2.1,2.7S15.9,24,17.2,24z"/>
		<path class="st0" d="M26,23.1c-0.4,0.9-1.3,1.5-2.4,1.5c-1.1,0-2-0.6-2-1.7c0-1.4,1.4-2.2,3.8-2.2H26v-0.6c0-1-0.7-1.6-1.7-1.6
			c-1,0-1.8,0.6-1.8,1.5h-0.8c0-1.2,1.1-2,2.5-2c1.5,0,2.5,0.8,2.5,2.1v4.3h-0.7L26,23.1z M25.5,21.2c-2,0-3,0.6-3,1.6
			c0,0.7,0.5,1.2,1.3,1.2c1.3,0,2.2-1,2.2-2.6v-0.2H25.5z"/>
		<path class="st0" d="M29.7,24.5h-0.8V18h0.7l0,1.4c0.4-0.9,1.3-1.5,2.3-1.5c1.4,0,2.4,0.9,2.4,2.3v4.2h-0.8v-4.2
			c0-1.1-0.7-1.8-1.8-1.8c-1.3,0-2.1,1-2.1,2.7V24.5z"/>
		<path class="st0" d="M36.9,22.5c0,0.9,0.8,1.5,1.8,1.5c1,0,1.7-0.5,1.7-1.2c0-1.9-4.1-0.6-4.1-3c0-1.1,1-1.8,2.3-1.8
			c1.3,0,2.3,0.7,2.3,1.9h-0.7c0-0.8-0.7-1.4-1.6-1.4S37,19,37,19.8c0,1.8,4.1,0.5,4.1,3c0,1.1-1,1.8-2.5,1.8c-1.4,0-2.5-0.8-2.5-2
			H36.9z"/>
		<path class="st0" d="M42.9,15.5h0.8v1.3h-0.8V15.5z M42.9,18h0.8v6.4h-0.8V18z"/>
		<path class="st0" d="M48.6,18c1.8,0,3.1,1.2,3.1,3.3c0,2.1-1.3,3.3-3.1,3.3c-1.8,0-3.1-1.2-3.1-3.3C45.5,19.2,46.8,18,48.6,18z
			 M48.6,24c1.4,0,2.3-1,2.3-2.7s-0.9-2.7-2.3-2.7c-1.4,0-2.3,1-2.3,2.7S47.2,24,48.6,24z"/>
		<path class="st0" d="M54.2,24.5h-0.8V18h0.7l0,1.4c0.4-0.9,1.3-1.5,2.3-1.5c1.4,0,2.4,0.9,2.4,2.3v4.2h-0.8v-4.2
			c0-1.1-0.7-1.8-1.8-1.8c-1.3,0-2.1,1-2.1,2.7V24.5z"/>
	</g>
</g>
</svg>
