<!-- Generator: Adobe Illustrator 19.0.0, SVG Export Plug-In  -->
<svg version="1.1"
	 xmlns="http://www.w3.org/2000/svg" xmlns:xlink="http://www.w3.org/1999/xlink" xmlns:a="http://ns.adobe.com/AdobeSVGViewerExtensions/3.0/"
	 x="0px" y="0px" width="391.5px" height="124.9px" viewBox="0 0 391.5 124.9"
	 style="overflow:scroll;enable-background:new 0 0 391.5 124.9;" xml:space="preserve">
<style type="text/css">
	.st0{fill:#414042;}
</style>
<defs>
</defs>
<g>
	<g>
		<path class="st0" d="M197.8,58.2c-0.2,0-0.4-0.1-0.5-0.2l-13.5-13.1L170.2,58c-0.3,0.3-0.8,0.3-1.1,0c-0.3-0.3-0.3-0.8,0-1.1
			l14.1-13.7c0.3-0.3,0.8-0.3,1.1,0l14.1,13.7c0.3,0.3,0.3,0.8,0,1.1C198.2,58.1,198,58.2,197.8,58.2z"/>
	</g>
	<g>
		<path class="st0" d="M193.8,72.7h-6.3c-0.4,0-0.8-0.4-0.8-0.8v-9.8h-6v9.8c0,0.4-0.4,0.8-0.8,0.8h-6.3c-0.4,0-0.8-0.4-0.8-0.8
			V57.1c0-0.4,0.4-0.8,0.8-0.8c0.4,0,0.8,0.4,0.8,0.8v14h4.8v-9.8c0-0.4,0.4-0.8,0.8-0.8h7.6c0.4,0,0.8,0.4,0.8,0.8v9.8h4.8V57.5
			c0-0.4,0.4-0.8,0.8-0.8c0.4,0,0.8,0.4,0.8,0.8v14.4C194.6,72.3,194.3,72.7,193.8,72.7z"/>
	</g>
</g>
<g>
	<g>
		<path class="st0" d="M129.8,73.8c-0.1,0-0.2,0-0.3-0.1l-8.6-4.1c-0.3-0.1-0.5-0.5-0.4-0.8c0-0.1,0.5-3.1,1.9-6
			c0.6-1.2,1.3-2.2,2-3.1c0.3-0.3,0.8-0.3,1.1-0.1c0.3,0.3,0.3,0.8,0.1,1.1c-0.6,0.7-1.2,1.6-1.8,2.7c-1,2-1.5,4.1-1.7,5l7.8,3.7
			l8.1-3.7c-0.4-1.6-1.6-6.2-4.4-8.5c-0.3-0.3-0.4-0.8-0.1-1.1c0.3-0.3,0.8-0.4,1.1-0.1c3.8,3.2,5,9.7,5,10c0.1,0.3-0.1,0.7-0.4,0.8
			l-8.9,4.1C130,73.8,129.9,73.8,129.8,73.8z"/>
	</g>
	<g>
		<path class="st0" d="M129.8,59.8c-2.8,0-4.9-3-5.8-5.9c-0.1-0.4,0.1-0.8,0.5-1c0.4-0.1,0.8,0.1,1,0.5c0.7,2.3,2.4,4.8,4.3,4.8
			c2.4,0,4.5-3.9,4.6-6.5c0-0.4,0.4-0.8,0.8-0.7c0.4,0,0.8,0.4,0.7,0.8C135.8,55.1,133.2,59.8,129.8,59.8z"/>
	</g>
	<g>
		<path class="st0" d="M123.7,54.6c-0.3,0-0.6-0.2-0.7-0.5c-0.2-0.6-0.4-1.7-0.4-2.8c0-4.1,3.3-7.4,7.4-7.4c3.9,0,7.1,3,7.4,6.9
			c0,0.1,0,0.3-0.1,0.4c-0.8,1.6-4,2-4.7,2.1c-0.3,0-0.5-0.1-0.7-0.3c-0.2-0.2-0.2-0.5-0.2-0.7c0,0,0.1-0.2,0.1-0.6
			C129.7,53.3,125.9,54.5,123.7,54.6C123.7,54.6,123.7,54.6,123.7,54.6z M130,45.4c-3.3,0-5.9,2.6-5.9,5.9c0,0.6,0.1,1.2,0.2,1.7
			c2.2-0.3,5.5-1.5,7.1-3c0.5-0.4,0.6-0.7,0.7-0.9c0.1-0.3,0.5-0.5,0.9-0.5c0.4,0.1,0.6,0.4,0.6,0.8c0,0.5,0,0.9,0,1.3
			c0,0.3,0,0.5-0.1,0.7c1-0.2,2-0.6,2.3-0.9C135.5,47.7,132.9,45.4,130,45.4z"/>
	</g>
</g>
<g>
	<g>
		<path class="st0" d="M174.9,117.7C174.9,117.7,174.9,117.7,174.9,117.7c-1,0-2-0.5-2-1.5v-25c0-1.1,0.9-2,2-2s2,0.9,2,2v1.5
			c0,0.4-0.3,0.7-0.7,0.7s-0.7-0.3-0.7-0.7v-1.5c0-0.3-0.3-0.6-0.6-0.6c-0.3,0-0.6,0.3-0.6,0.6v24.9c0.1,0.1,0.4,0.1,0.6,0.1
			c0.1,0,0.4,0,0.6,0V96.1c0-0.4,0.3-0.7,0.7-0.7s0.7,0.3,0.7,0.7v20.1C176.9,117.7,175.4,117.7,174.9,117.7z"/>
	</g>
	<g>
		<path class="st0" d="M174.9,120.2c-2.7,0-4.7-1.1-4.7-2.6c0-1.2,1.2-2.1,3.2-2.5c0.4-0.1,0.8,0.2,0.8,0.6c0.1,0.4-0.2,0.8-0.6,0.8
			c-1.4,0.3-2,0.8-2,1.1c0,0.4,1.2,1.2,3.3,1.2c2,0,3.3-0.8,3.3-1.2c0-0.3-0.7-0.9-2.1-1.1c-0.4-0.1-0.7-0.4-0.6-0.8
			c0.1-0.4,0.4-0.7,0.8-0.6c2,0.3,3.3,1.3,3.3,2.5C179.6,119,177.6,120.2,174.9,120.2z"/>
	</g>
	<g>
		<path class="st0" d="M176.2,110.5c-0.3,0-0.6-0.2-0.7-0.5c-0.1-0.4,0.1-0.8,0.4-0.9l6.4-2.3v-6.7c0-0.2,0.1-0.5,0.3-0.6
			c0.2-0.1,0.4-0.2,0.7-0.1l2.6,0.9v-3.4l-9.9-3.5c-0.4-0.1-0.6-0.5-0.4-0.9c0.1-0.4,0.5-0.6,0.9-0.4l10.4,3.7
			c0.3,0.1,0.5,0.4,0.5,0.7v5c0,0.2-0.1,0.5-0.3,0.6c-0.2,0.1-0.4,0.2-0.7,0.1l-2.6-0.9v6.2c0,0.3-0.2,0.6-0.5,0.7l-6.8,2.4
			C176.3,110.5,176.3,110.5,176.2,110.5z"/>
	</g>
	<g>
		<path class="st0" d="M183,110.5c-0.1,0-0.3,0-0.4-0.1c-0.2-0.1-0.3-0.4-0.3-0.6v-9.6c0-0.2,0.1-0.5,0.3-0.6
			c0.2-0.1,0.4-0.2,0.7-0.1l13.5,4.8c0.3,0.1,0.5,0.4,0.5,0.7c0,0.3-0.2,0.6-0.5,0.7l-13.5,4.8C183.2,110.5,183.1,110.5,183,110.5z
			 M183.7,101.1v7.6l10.7-3.8L183.7,101.1z"/>
	</g>
	<g>
		<path class="st0" d="M183,100.8c-0.2,0-0.4-0.1-0.5-0.2c-0.3-0.3-0.3-0.7,0-1l3.6-3.7c0.3-0.3,0.7-0.3,1,0c0.3,0.3,0.3,0.7,0,1
			l-3.6,3.7C183.4,100.8,183.2,100.8,183,100.8z"/>
	</g>
</g>
<g>
	<path class="st0" d="M182.9,6.2c0,1.7,0.9,2.7,2.3,2.7c1,0,1.8-0.6,1.8-1.6h0.8c0,1.3-1.1,2.1-2.5,2.1c-1.8,0-3.1-1.2-3.1-3.3
		c0-2.1,1.3-3.3,3.1-3.3c1.4,0,2.5,0.8,2.5,2.1H187c0-0.9-0.7-1.6-1.8-1.6C183.8,3.4,182.9,4.4,182.9,6.2z"/>
	<path class="st0" d="M192.4,2.9c1.8,0,3.1,1.2,3.1,3.3c0,2.1-1.3,3.3-3.1,3.3c-1.8,0-3.1-1.2-3.1-3.3
		C189.3,4.1,190.6,2.9,192.4,2.9z M192.4,8.9c1.4,0,2.3-1,2.3-2.7s-0.9-2.7-2.3-2.7c-1.4,0-2.3,1-2.3,2.7S191.1,8.9,192.4,8.9z"/>
	<path class="st0" d="M201.9,2.9h0.8v6.4H202l0-1.4c-0.4,0.9-1.3,1.5-2.3,1.5c-1.4,0-2.4-0.9-2.4-2.3V2.9h0.8v4.2
		c0,1.1,0.7,1.8,1.8,1.8c1.3,0,2.1-1,2.1-2.7V2.9z"/>
	<path class="st0" d="M205.6,9.4h-0.8V2.9h0.7l0,1.4c0.4-0.9,1.3-1.5,2.3-1.5c1.4,0,2.4,0.9,2.4,2.3v4.2h-0.8V5.2
		c0-1.1-0.7-1.8-1.8-1.8c-1.3,0-2.1,1-2.1,2.7V9.4z"/>
	<path class="st0" d="M212.8,7.8V3.5h-1.1V2.9h1.1V1.6h0.8v1.4h1.8v0.5h-1.8v4.4c0,0.7,0.5,1,1.3,1c0.2,0,0.3,0,0.5-0.1v0.5
		c-0.2,0-0.4,0.1-0.6,0.1C213.5,9.4,212.8,8.9,212.8,7.8z"/>
	<path class="st0" d="M217.8,9.4H217V2.9h0.7l0.1,1.5c0.4-1,1.3-1.5,2.3-1.5v0.6c-1.4,0-2.3,1.1-2.3,2.8V9.4z"/>
	<path class="st0" d="M224.2,10.5c-0.4,1.1-1.4,1.7-2.7,1.7v-0.5c0.8,0,1.6-0.4,1.9-1.1l0.5-1.1h-0.1l-2.6-6.4h0.8l2.3,5.7l2.3-5.7
		h0.8L224.2,10.5z"/>
	<path class="st0" d="M234.5,2.9c1.8,0,3.1,1.2,3.1,3.3c0,2.1-1.3,3.3-3.1,3.3c-1.8,0-3.1-1.2-3.1-3.3
		C231.4,4.1,232.7,2.9,234.5,2.9z M234.5,8.9c1.4,0,2.3-1,2.3-2.7s-0.9-2.7-2.3-2.7c-1.4,0-2.3,1-2.3,2.7S233.1,8.9,234.5,8.9z"/>
	<path class="st0" d="M246.6,3.5h-2.7v5.9h-0.8V3.5h-2.8v5.9h-0.8V3.5h-1V2.9h1V1.6c0-1.1,0.7-1.6,2-1.6c0.2,0,0.4,0,0.6,0.1v0.5
		c-0.2,0-0.3-0.1-0.5-0.1c-0.7,0-1.2,0.4-1.2,1v1.4h2.8V1.6c0-1.1,0.7-1.6,2-1.6c0.2,0,0.4,0,0.6,0.1v0.5c-0.2,0-0.3-0.1-0.5-0.1
		c-0.7,0-1.2,0.4-1.2,1v1.4h3.5v6.4h-0.8V3.5z M246.6,0.4h0.8v1.3h-0.8V0.4z"/>
	<path class="st0" d="M249.9,6.2c0,1.7,0.9,2.7,2.3,2.7c1,0,1.8-0.6,1.8-1.6h0.8c0,1.3-1.1,2.1-2.5,2.1c-1.8,0-3.1-1.2-3.1-3.3
		c0-2.1,1.3-3.3,3.1-3.3c1.4,0,2.5,0.8,2.5,2.1H254c0-0.9-0.7-1.6-1.8-1.6C250.9,3.4,249.9,4.4,249.9,6.2z"/>
	<path class="st0" d="M262.1,6.4h-5c0,1.6,0.9,2.5,2.3,2.5c1.1,0,1.9-0.6,1.9-1.5h0.7c0,1.2-1.1,2-2.6,2c-1.8,0-3.1-1.2-3.1-3.3
		c0-2.1,1.2-3.3,3.1-3.3C261,2.9,262.2,4,262.1,6.4z M257.2,5.8h4.2c0-1.5-0.8-2.4-1.9-2.4C258.1,3.4,257.2,4.3,257.2,5.8z"/>
	<path class="st0" d="M264.5,7.4c0,0.9,0.8,1.5,1.8,1.5c1,0,1.7-0.5,1.7-1.2c0-1.9-4.1-0.6-4.1-3c0-1.1,1-1.8,2.3-1.8
		c1.3,0,2.3,0.7,2.3,1.9h-0.7c0-0.8-0.7-1.4-1.6-1.4s-1.5,0.5-1.5,1.2c0,1.8,4.1,0.5,4.1,3c0,1.1-1,1.8-2.5,1.8
		c-1.4,0-2.5-0.8-2.5-2H264.5z"/>
	<path class="st0" d="M182.4,15.8h0.8v1.3h-0.8V15.8z M182.4,18.4h0.8v6.4h-0.8V18.4z"/>
	<path class="st0" d="M186.1,24.9h-0.8v-6.4h0.7l0,1.4c0.4-0.9,1.3-1.5,2.3-1.5c1.4,0,2.4,0.9,2.4,2.3v4.2H190v-4.2
		c0-1.1-0.7-1.8-1.8-1.8c-1.3,0-2.1,1-2.1,2.7V24.9z"/>
	<path class="st0" d="M198.2,15.8h2.1l3.1,9h-1.8l-0.7-2.1h-3.3l-0.7,2.1H195L198.2,15.8z M197.8,21.6h2.7l-1.4-4.3L197.8,21.6z"/>
	<path class="st0" d="M204.1,18.4h5.4v1.1l-3.6,4.3h3.7v1.1H204v-1.1l3.5-4.3h-3.5V18.4z"/>
	<path class="st0" d="M216.4,22.1H212c0,1.1,0.6,1.8,1.5,1.8c0.7,0,1.2-0.4,1.2-1.1h1.7c0,1.3-1.2,2.2-2.9,2.2
		c-1.9,0-3.3-1.2-3.3-3.3c0-2.1,1.3-3.3,3.3-3.3C215.3,18.3,216.6,19.5,216.4,22.1z M212,21.1h2.7c0-1.1-0.5-1.7-1.2-1.7
		C212.7,19.4,212,20,212,21.1z"/>
	<path class="st0" d="M219.4,24.9h-1.7v-6.4h1.5l0.2,1.1c0.4-0.8,1.2-1.1,2-1.1v1.2c-1.1,0-2,1-2,2.5V24.9z"/>
	<path class="st0" d="M222.6,15.5h1.7v3.7c0.4-0.5,1-0.8,1.8-0.8c1.7,0,2.8,1.2,2.8,3.3c0,2.1-1.1,3.3-2.8,3.3
		c-0.8,0-1.4-0.3-1.8-0.9l-0.1,0.8h-1.6V15.5z M225.7,23.9c0.9,0,1.5-0.8,1.5-2.2s-0.6-2.2-1.5-2.2c-0.8,0-1.4,0.8-1.4,2.2
		S224.9,23.9,225.7,23.9z"/>
	<path class="st0" d="M234,23.9c-0.4,0.6-1.1,1-1.9,1c-1.3,0-2.2-0.6-2.2-1.7c0-1.4,1.4-2.2,3.7-2.2h0.4v-0.4c0-0.8-0.5-1.2-1.2-1.2
		c-0.7,0-1.1,0.4-1.1,1.1h-1.7c0-1.4,1.1-2.2,2.8-2.2c1.7,0,2.9,0.8,2.9,2.3v4.3h-1.6L234,23.9z M233.6,21.9c-1.3,0-1.9,0.4-1.9,1.2
		c0,0.5,0.3,0.8,0.9,0.8c0.9,0,1.4-0.7,1.4-1.8v-0.2H233.6z"/>
	<path class="st0" d="M237.2,15.8h1.7v1.6h-1.7V15.8z M237.2,18.4h1.7v6.4h-1.7V18.4z"/>
	<path class="st0" d="M242.1,25.5c0,1.5-0.9,2.2-2.6,2.2v-1.1c0.6,0,0.9-0.3,0.9-0.9v-7.3h1.7V25.5z M240.4,15.8h1.7v1.6h-1.7V15.8z
		"/>
	<path class="st0" d="M247.4,23.9c-0.4,0.6-1.1,1-1.9,1c-1.3,0-2.2-0.6-2.2-1.7c0-1.4,1.4-2.2,3.7-2.2h0.4v-0.4
		c0-0.8-0.5-1.2-1.2-1.2c-0.7,0-1.1,0.4-1.1,1.1h-1.7c0-1.4,1.1-2.2,2.8-2.2c1.7,0,2.9,0.8,2.9,2.3v4.3h-1.6L247.4,23.9z M247,21.9
		c-1.3,0-1.9,0.4-1.9,1.2c0,0.5,0.3,0.8,0.9,0.8c0.9,0,1.4-0.7,1.4-1.8v-0.2H247z"/>
	<path class="st0" d="M252.3,24.9h-1.7v-6.4h1.6l0.1,0.9c0.4-0.6,1.1-1,1.8-1c1.4,0,2.4,0.9,2.4,2.3v4.2h-1.7v-4.2
		c0-0.8-0.4-1.2-1.1-1.2c-0.9,0-1.4,0.8-1.4,2.2V24.9z"/>
	<path class="st0" d="M257.9,23.2h1.7v1.7c0,1.2-0.7,2.1-1.7,2.1V26c0.4,0,0.6-0.5,0.6-1.1h-0.6V23.2z"/>
	<path class="st0" d="M264.3,15.8h3.7c1.8,0,2.9,0.9,2.9,2.3c0,0.9-0.5,1.6-1.3,2c1,0.3,1.7,1.1,1.7,2.3c0,1.5-1.2,2.5-3,2.5h-4
		V15.8z M266.1,17v2.6h1.5c0.9,0,1.5-0.5,1.5-1.3s-0.6-1.3-1.5-1.3H266.1z M268,23.7c1,0,1.6-0.5,1.6-1.5c0-0.9-0.6-1.4-1.6-1.4
		h-1.8v2.9H268z"/>
	<path class="st0" d="M276.7,18.4h1.7v6.4h-1.6l-0.1-0.9c-0.4,0.6-1.1,1-1.9,1c-1.4,0-2.3-0.8-2.3-2.2v-4.3h1.7v4.3
		c0,0.7,0.4,1.1,1.1,1.1c0.9,0,1.4-0.8,1.4-2.2V18.4z"/>
	<path class="st0" d="M279.9,15.5h1.7v7.8c0,0.4,0.2,0.6,0.5,0.6v1.1c-1.6,0-2.2-0.4-2.2-1.5V15.5z"/>
	<path class="st0" d="M287.7,25v-0.9c-0.4,0.5-1,0.8-1.8,0.8c-1.7,0-2.8-1.2-2.8-3.3c0-2.1,1.1-3.3,2.8-3.3c0.8,0,1.4,0.3,1.8,0.9
		l0.1-0.8h1.6V25c0,1.7-1.3,2.7-3.1,2.7c-1.7,0-3-0.8-3-2.2h1.6c0,0.7,0.5,1.2,1.3,1.2C287.2,26.6,287.7,26,287.7,25z M286.3,19.4
		c-0.9,0-1.5,0.8-1.5,2.2s0.6,2.2,1.5,2.2c0.9,0,1.4-0.8,1.4-2.2S287.1,19.4,286.3,19.4z"/>
	<path class="st0" d="M294.7,23.9c-0.4,0.6-1.1,1-1.9,1c-1.3,0-2.2-0.6-2.2-1.7c0-1.4,1.4-2.2,3.7-2.2h0.4v-0.4
		c0-0.8-0.5-1.2-1.2-1.2c-0.7,0-1.1,0.4-1.1,1.1h-1.7c0-1.4,1.1-2.2,2.8-2.2c1.7,0,2.9,0.8,2.9,2.3v4.3h-1.6L294.7,23.9z
		 M294.3,21.9c-1.3,0-1.9,0.4-1.9,1.2c0,0.5,0.3,0.8,0.9,0.8c0.9,0,1.4-0.7,1.4-1.8v-0.2H294.3z"/>
	<path class="st0" d="M299.6,24.9h-1.7v-6.4h1.5l0.2,1.1c0.4-0.8,1.2-1.1,2-1.1v1.2c-1.1,0-2,1-2,2.5V24.9z"/>
	<path class="st0" d="M302.8,15.8h1.7v1.6h-1.7V15.8z M302.8,18.4h1.7v6.4h-1.7V18.4z"/>
	<path class="st0" d="M309.8,23.9c-0.4,0.6-1.1,1-1.9,1c-1.3,0-2.2-0.6-2.2-1.7c0-1.4,1.4-2.2,3.7-2.2h0.4v-0.4
		c0-0.8-0.5-1.2-1.2-1.2c-0.7,0-1.1,0.4-1.1,1.1h-1.7c0-1.4,1.1-2.2,2.8-2.2c1.7,0,2.9,0.8,2.9,2.3v4.3H310L309.8,23.9z M309.4,21.9
		c-1.3,0-1.9,0.4-1.9,1.2c0,0.5,0.3,0.8,0.9,0.8c0.9,0,1.4-0.7,1.4-1.8v-0.2H309.4z"/>
</g>
<g>
	<path class="st0" d="M214.6,49.8c1.8,0,3.1,1.2,3.1,3.3c0,2.1-1.3,3.3-3.1,3.3c-1.8,0-3.1-1.2-3.1-3.3
		C211.5,51,212.8,49.8,214.6,49.8z M214.6,55.8c1.4,0,2.3-1,2.3-2.7s-0.9-2.7-2.3-2.7c-1.4,0-2.3,1-2.3,2.7S213.2,55.8,214.6,55.8z"
		/>
	<path class="st0" d="M219.4,49.9h0.7l0,1.4c0.4-0.9,1.2-1.5,2.3-1.5c1.7,0,2.9,1.2,2.9,3.3c0,2.1-1.2,3.3-2.9,3.3
		c-1,0-1.8-0.5-2.3-1.4v4.1h-0.8V49.9z M222.3,55.8c1.4,0,2.3-1,2.3-2.7s-0.9-2.7-2.3-2.7c-1.3,0-2.1,1-2.1,2.7
		S221.1,55.8,222.3,55.8z"/>
	<path class="st0" d="M232.7,53.3h-5c0,1.6,0.9,2.5,2.3,2.5c1.1,0,1.9-0.6,1.9-1.5h0.7c0,1.2-1.1,2-2.6,2c-1.8,0-3.1-1.2-3.1-3.3
		c0-2.1,1.2-3.3,3.1-3.3C231.6,49.8,232.7,51,232.7,53.3z M227.7,52.8h4.2c0-1.5-0.8-2.4-1.9-2.4C228.7,50.4,227.7,51.3,227.7,52.8z
		"/>
	<path class="st0" d="M235.3,56.3h-0.8v-6.4h0.7l0.1,1.5c0.4-1,1.3-1.5,2.3-1.5v0.6c-1.4,0-2.3,1.1-2.3,2.8V56.3z"/>
	<path class="st0" d="M243.2,54.9c-0.4,0.9-1.3,1.5-2.4,1.5c-1.1,0-2-0.6-2-1.7c0-1.4,1.4-2.2,3.8-2.2h0.5V52c0-1-0.7-1.6-1.7-1.6
		c-1,0-1.8,0.6-1.8,1.5h-0.8c0-1.2,1.1-2,2.5-2c1.5,0,2.5,0.8,2.5,2.1v4.3h-0.7L243.2,54.9z M242.7,53c-2,0-3,0.6-3,1.6
		c0,0.7,0.5,1.2,1.3,1.2c1.3,0,2.2-1,2.2-2.6V53H242.7z"/>
	<path class="st0" d="M246.5,54.7v-4.3h-1.1v-0.5h1.1v-1.4h0.8v1.4h1.8v0.5h-1.8v4.4c0,0.7,0.5,1,1.3,1c0.2,0,0.3,0,0.5-0.1v0.5
		c-0.2,0-0.4,0.1-0.6,0.1C247.2,56.4,246.5,55.8,246.5,54.7z"/>
	<path class="st0" d="M250.8,47.3h0.8v1.3h-0.8V47.3z M250.8,49.9h0.8v6.4h-0.8V49.9z"/>
	<path class="st0" d="M256.4,49.8c1.8,0,3.1,1.2,3.1,3.3c0,2.1-1.3,3.3-3.1,3.3c-1.8,0-3.1-1.2-3.1-3.3
		C253.3,51,254.6,49.8,256.4,49.8z M256.4,55.8c1.4,0,2.3-1,2.3-2.7s-0.9-2.7-2.3-2.7c-1.4,0-2.3,1-2.3,2.7S255.1,55.8,256.4,55.8z"
		/>
	<path class="st0" d="M262.1,56.3h-0.8v-6.4h0.7l0,1.4c0.4-0.9,1.3-1.5,2.3-1.5c1.4,0,2.4,0.9,2.4,2.3v4.2H266v-4.2
		c0-1.1-0.7-1.8-1.8-1.8c-1.3,0-2.1,1-2.1,2.7V56.3z"/>
	<path class="st0" d="M272.8,54.9c-0.4,0.9-1.3,1.5-2.4,1.5c-1.1,0-2-0.6-2-1.7c0-1.4,1.4-2.2,3.8-2.2h0.5V52c0-1-0.7-1.6-1.7-1.6
		c-1,0-1.8,0.6-1.8,1.5h-0.8c0-1.2,1.1-2,2.5-2c1.5,0,2.5,0.8,2.5,2.1v4.3h-0.7L272.8,54.9z M272.3,53c-2,0-3,0.6-3,1.6
		c0,0.7,0.5,1.2,1.3,1.2c1.3,0,2.2-1,2.2-2.6V53H272.3z"/>
	<path class="st0" d="M275.7,47h0.8v8.1c0,0.5,0.3,0.8,0.7,0.8v0.5c-1,0-1.5-0.4-1.5-1.3V47z"/>
	<path class="st0" d="M282.6,56.3h-0.8V47h0.8v4.3c0.4-0.9,1.3-1.4,2.3-1.4c1.4,0,2.4,0.9,2.4,2.3v4.2h-0.8v-4.2
		c0-1.1-0.7-1.8-1.8-1.8c-1.3,0-2.1,1-2.1,2.7V56.3z"/>
	<path class="st0" d="M294,49.9h0.8v6.4H294l0-1.4c-0.4,0.9-1.3,1.5-2.3,1.5c-1.4,0-2.4-0.9-2.4-2.3v-4.2h0.8v4.2
		c0,1.1,0.7,1.8,1.8,1.8c1.3,0,2.1-1,2.1-2.7V49.9z"/>
	<path class="st0" d="M296.8,47h0.8v4.3c0.4-0.9,1.2-1.4,2.3-1.4c1.7,0,2.9,1.2,2.9,3.3c0,2.1-1.2,3.3-2.9,3.3c-1,0-1.8-0.5-2.3-1.4
		l0,1.4h-0.7V47z M299.7,55.8c1.4,0,2.3-1,2.3-2.7s-0.9-2.7-2.3-2.7c-1.3,0-2.1,1-2.1,2.7S298.5,55.8,299.7,55.8z"/>
	<path class="st0" d="M310.4,47v0.5c-0.2,0-0.3-0.1-0.5-0.1c-0.7,0-1.2,0.4-1.2,1v1.4h1.8v0.5h-1.8v5.9h-0.8v-5.9h-1v-0.5h1v-1.3
		c0-1.1,0.7-1.6,2-1.6C310.1,46.9,310.2,47,310.4,47z"/>
	<path class="st0" d="M314.5,49.8c1.8,0,3.1,1.2,3.1,3.3c0,2.1-1.3,3.3-3.1,3.3c-1.8,0-3.1-1.2-3.1-3.3
		C311.4,51,312.7,49.8,314.5,49.8z M314.5,55.8c1.4,0,2.3-1,2.3-2.7s-0.9-2.7-2.3-2.7c-1.4,0-2.3,1-2.3,2.7S313.1,55.8,314.5,55.8z"
		/>
	<path class="st0" d="M320.1,56.3h-0.8v-6.4h0.7l0.1,1.5c0.4-1,1.3-1.5,2.3-1.5v0.6c-1.4,0-2.3,1.1-2.3,2.8V56.3z"/>
	<path class="st0" d="M327.5,53.6c0,1.3,1.1,2.2,2.5,2.2c1.4,0,2.4-0.7,2.4-1.8c0-2.8-5.5-1-5.5-4.2c0-1.5,1.2-2.5,3-2.5s3,1,3,2.6
		h-0.8c0-1.2-1-2-2.2-2c-1.3,0-2.2,0.7-2.2,1.9c0,2.7,5.5,0.8,5.5,4.2c0,1.6-1.3,2.5-3.2,2.5c-1.9,0-3.3-1.1-3.3-2.8H327.5z"/>
	<path class="st0" d="M335.6,53.1c0,1.7,0.9,2.7,2.3,2.7c1,0,1.8-0.6,1.8-1.6h0.8c0,1.3-1.1,2.1-2.5,2.1c-1.8,0-3.1-1.2-3.1-3.3
		c0-2.1,1.3-3.3,3.1-3.3c1.4,0,2.5,0.8,2.5,2.1h-0.8c0-0.9-0.7-1.6-1.8-1.6C336.5,50.4,335.6,51.4,335.6,53.1z"/>
	<path class="st0" d="M343,56.3h-0.8V47h0.8v4.3c0.4-0.9,1.3-1.4,2.3-1.4c1.4,0,2.4,0.9,2.4,2.3v4.2h-0.8v-4.2
		c0-1.1-0.7-1.8-1.8-1.8c-1.3,0-2.1,1-2.1,2.7V56.3z"/>
	<path class="st0" d="M355.2,53.3h-5c0,1.6,0.9,2.5,2.3,2.5c1.1,0,1.9-0.6,1.9-1.5h0.7c0,1.2-1.1,2-2.6,2c-1.8,0-3.1-1.2-3.1-3.3
		c0-2.1,1.2-3.3,3.1-3.3C354.1,49.8,355.3,51,355.2,53.3z M350.3,52.8h4.2c0-1.5-0.8-2.4-1.9-2.4C351.2,50.4,350.3,51.3,350.3,52.8z
		"/>
	<path class="st0" d="M362.8,56.3h-0.7l-0.1-1.4c-0.4,0.9-1.2,1.5-2.3,1.5c-1.7,0-2.9-1.2-2.9-3.3c0-2.1,1.2-3.3,2.9-3.3
		c1,0,1.8,0.5,2.3,1.4V47h0.8V56.3z M359.9,50.4c-1.4,0-2.3,1-2.3,2.7s0.9,2.7,2.3,2.7c1.3,0,2.1-1,2.1-2.7S361.1,50.4,359.9,50.4z"
		/>
	<path class="st0" d="M369.5,49.9h0.8v6.4h-0.7l0-1.4c-0.4,0.9-1.3,1.5-2.3,1.5c-1.4,0-2.4-0.9-2.4-2.3v-4.2h0.8v4.2
		c0,1.1,0.7,1.8,1.8,1.8c1.3,0,2.1-1,2.1-2.7V49.9z"/>
	<path class="st0" d="M372.4,47h0.8v8.1c0,0.5,0.3,0.8,0.7,0.8v0.5c-1,0-1.5-0.4-1.5-1.3V47z"/>
	<path class="st0" d="M375.5,47.3h0.8v1.3h-0.8V47.3z M375.5,49.9h0.8v6.4h-0.8V49.9z"/>
	<path class="st0" d="M379.1,56.3h-0.8v-6.4h0.7l0,1.4c0.4-0.9,1.3-1.5,2.3-1.5c1.4,0,2.4,0.9,2.4,2.3v4.2H383v-4.2
		c0-1.1-0.7-1.8-1.8-1.8c-1.3,0-2.1,1-2.1,2.7V56.3z"/>
	<path class="st0" d="M390.8,56.4V55c-0.4,0.9-1.2,1.4-2.3,1.4c-1.7,0-2.9-1.2-2.9-3.3c0-2.1,1.2-3.3,2.9-3.3c1,0,1.8,0.5,2.3,1.4
		l0.1-1.4h0.7v6.5c0,1.7-1.2,2.8-2.9,2.8c-1.6,0-2.8-0.8-2.8-2.1h0.7c0,0.9,0.9,1.6,2.1,1.6C389.9,58.6,390.8,57.8,390.8,56.4z
		 M388.6,50.4c-1.4,0-2.3,1-2.3,2.7s0.9,2.7,2.3,2.7c1.3,0,2.1-1,2.1-2.7S389.9,50.4,388.6,50.4z"/>
	<path class="st0" d="M211.8,62.8h0.8v1.3h-0.8V62.8z M211.8,65.4h0.8v6.4h-0.8V65.4z"/>
	<path class="st0" d="M215.4,71.8h-0.8v-6.4h0.7l0,1.4c0.4-0.9,1.3-1.5,2.3-1.5c1.4,0,2.4,0.9,2.4,2.3v4.2h-0.8v-4.2
		c0-1.1-0.7-1.8-1.8-1.8c-1.3,0-2.1,1-2.1,2.7V71.8z"/>
	<path class="st0" d="M225,62.8h3.7c1.8,0,2.9,0.9,2.9,2.3c0,0.9-0.5,1.6-1.3,2c1,0.3,1.7,1.1,1.7,2.3c0,1.5-1.2,2.5-3,2.5h-4V62.8z
		 M226.8,64v2.6h1.5c0.9,0,1.5-0.5,1.5-1.3s-0.6-1.3-1.5-1.3H226.8z M228.6,70.6c1,0,1.6-0.5,1.6-1.5c0-0.9-0.6-1.4-1.6-1.4h-1.8
		v2.9H228.6z"/>
	<path class="st0" d="M234.9,71.8h-1.7v-6.4h1.5l0.2,1.1c0.4-0.8,1.2-1.1,2-1.1v1.2c-1.1,0-2,1-2,2.5V71.8z"/>
	<path class="st0" d="M241.7,70.9c-0.4,0.6-1.1,1-1.9,1c-1.3,0-2.2-0.6-2.2-1.7c0-1.4,1.4-2.2,3.7-2.2h0.4v-0.4
		c0-0.8-0.5-1.2-1.2-1.2c-0.7,0-1.1,0.4-1.1,1.1h-1.7c0-1.4,1.1-2.2,2.8-2.2c1.7,0,2.9,0.8,2.9,2.3v4.3h-1.6L241.7,70.9z
		 M241.3,68.8c-1.3,0-1.9,0.4-1.9,1.2c0,0.5,0.3,0.8,0.9,0.8c0.9,0,1.4-0.7,1.4-1.8v-0.2H241.3z"/>
	<path class="st0" d="M245.4,69.9v-3.5h-0.9v-1.1h0.9V64h1.7v1.4h1.4v1.1h-1.4V70c0,0.5,0.4,0.8,0.9,0.8c0.2,0,0.4,0,0.5-0.1v1.1
		c-0.2,0-0.5,0.1-0.7,0.1C246.1,71.9,245.4,71.2,245.4,69.9z"/>
	<path class="st0" d="M249.7,62.8h1.7v1.6h-1.7V62.8z M249.7,65.4h1.7v6.4h-1.7V65.4z"/>
	<path class="st0" d="M254.3,69.7c0,0.7,0.5,1.1,1.1,1.1c0.7,0,1.1-0.3,1.1-0.8c0-1.4-3.8-0.3-3.8-2.8c0-1.2,1.1-1.9,2.7-1.9
		c1.5,0,2.6,0.8,2.6,2h-1.6c0-0.6-0.4-1-1-1c-0.6,0-1,0.3-1,0.8c0,1.3,3.8,0.3,3.8,2.8c0,1.2-1.2,1.9-2.9,1.9
		c-1.6,0-2.8-0.8-2.8-2.2H254.3z"/>
	<path class="st0" d="M259.5,62.5h1.7v7.8c0,0.4,0.2,0.6,0.5,0.6v1.1c-1.6,0-2.2-0.4-2.2-1.5V62.5z"/>
	<path class="st0" d="M266.8,70.9c-0.4,0.6-1.1,1-1.9,1c-1.3,0-2.2-0.6-2.2-1.7c0-1.4,1.4-2.2,3.7-2.2h0.4v-0.4
		c0-0.8-0.5-1.2-1.2-1.2c-0.7,0-1.1,0.4-1.1,1.1h-1.7c0-1.4,1.1-2.2,2.8-2.2c1.7,0,2.9,0.8,2.9,2.3v4.3h-1.6L266.8,70.9z
		 M266.4,68.8c-1.3,0-1.9,0.4-1.9,1.2c0,0.5,0.3,0.8,0.9,0.8c0.9,0,1.4-0.7,1.4-1.8v-0.2H266.4z"/>
	<path class="st0" d="M273.6,71.8h-1.9l-2.4-6.4h1.7l1.7,5l1.7-5h1.7L273.6,71.8z"/>
	<path class="st0" d="M280.5,70.9c-0.4,0.6-1.1,1-1.9,1c-1.3,0-2.2-0.6-2.2-1.7c0-1.4,1.4-2.2,3.7-2.2h0.4v-0.4
		c0-0.8-0.5-1.2-1.2-1.2c-0.7,0-1.1,0.4-1.1,1.1h-1.7c0-1.4,1.1-2.2,2.8-2.2c1.7,0,2.9,0.8,2.9,2.3v4.3h-1.6L280.5,70.9z
		 M280.1,68.8c-1.3,0-1.9,0.4-1.9,1.2c0,0.5,0.3,0.8,0.9,0.8c0.9,0,1.4-0.7,1.4-1.8v-0.2H280.1z"/>
</g>
<g>
	<path class="st0" d="M58.1,49.9c0-0.8-0.6-1.5-1.5-1.5c-0.9,0-1.5,0.6-1.5,1.7h-1.7c0-1.7,1.3-2.8,3.3-2.8c1.9,0,3.2,1,3.2,2.6
		c0,2.6-4.5,4.3-4.5,5.3h4.5v1.1h-6.4v-1.1C53.5,53.7,58.1,51.8,58.1,49.9z"/>
	<path class="st0" d="M64.6,47.3c2.1,0,3.6,1.7,3.6,4.6c0,2.9-1.5,4.6-3.6,4.6s-3.6-1.7-3.6-4.6C60.9,49,62.4,47.3,64.6,47.3z
		 M64.6,55.3c1.1,0,1.9-1.2,1.9-3.4s-0.7-3.4-1.9-3.4s-1.9,1.2-1.9,3.4S63.4,55.3,64.6,55.3z"/>
	<path class="st0" d="M72.8,47.3c2.1,0,3.6,1.7,3.6,4.6c0,2.9-1.5,4.6-3.6,4.6s-3.6-1.7-3.6-4.6C69.2,49,70.7,47.3,72.8,47.3z
		 M72.8,55.3c1.1,0,1.9-1.2,1.9-3.4s-0.7-3.4-1.9-3.4s-1.9,1.2-1.9,3.4S71.7,55.3,72.8,55.3z"/>
	<path class="st0" d="M84.3,47.3c2.1,0,3.6,1.7,3.6,4.6c0,2.9-1.5,4.6-3.6,4.6s-3.6-1.7-3.6-4.6C80.6,49,82.1,47.3,84.3,47.3z
		 M84.3,55.3c1.1,0,1.9-1.2,1.9-3.4s-0.7-3.4-1.9-3.4s-1.9,1.2-1.9,3.4S83.1,55.3,84.3,55.3z"/>
	<path class="st0" d="M92.5,47.3c2.1,0,3.6,1.7,3.6,4.6c0,2.9-1.5,4.6-3.6,4.6s-3.6-1.7-3.6-4.6C88.9,49,90.4,47.3,92.5,47.3z
		 M92.5,55.3c1.1,0,1.9-1.2,1.9-3.4s-0.7-3.4-1.9-3.4s-1.9,1.2-1.9,3.4S91.4,55.3,92.5,55.3z"/>
	<path class="st0" d="M100.8,47.3c2.1,0,3.6,1.7,3.6,4.6c0,2.9-1.5,4.6-3.6,4.6s-3.6-1.7-3.6-4.6C97.1,49,98.6,47.3,100.8,47.3z
		 M100.8,55.3c1.1,0,1.9-1.2,1.9-3.4s-0.7-3.4-1.9-3.4s-1.9,1.2-1.9,3.4S99.6,55.3,100.8,55.3z"/>
	<path class="st0" d="M0.8,71.8H0v-6.4h0.7l0,1.4c0.4-1,1.1-1.5,1.9-1.5c0.9,0,1.7,0.6,1.9,1.5c0.4-1,1.2-1.5,2.1-1.5
		c1.2,0,2.1,0.9,2.1,2.3v4.2H8v-4.2c0-1.1-0.6-1.8-1.5-1.8c-1,0-1.8,1-1.8,2.7v3.2H4v-4.2c0-1.1-0.6-1.8-1.5-1.8c-1,0-1.8,1-1.8,2.7
		V71.8z"/>
	<path class="st0" d="M13.2,73c-0.4,1.1-1.4,1.7-2.7,1.7v-0.5c0.8,0,1.6-0.4,1.9-1.1l0.5-1.1h-0.1l-2.6-6.4H11l2.3,5.7l2.3-5.7h0.8
		L13.2,73z"/>
	<path class="st0" d="M17.9,69.8c0,0.9,0.8,1.5,1.8,1.5c1,0,1.7-0.5,1.7-1.2c0-1.9-4.1-0.6-4.1-3c0-1.1,1-1.8,2.3-1.8
		c1.3,0,2.3,0.7,2.3,1.9h-0.7c0-0.8-0.7-1.4-1.6-1.4s-1.5,0.5-1.5,1.2c0,1.8,4.1,0.5,4.1,3c0,1.1-1,1.8-2.5,1.8
		c-1.4,0-2.5-0.8-2.5-2H17.9z"/>
	<path class="st0" d="M24.3,70.2v-4.3h-1.1v-0.5h1.1V64H25v1.4h1.8v0.5H25v4.4c0,0.7,0.5,1,1.3,1c0.2,0,0.3,0,0.5-0.1v0.5
		c-0.2,0-0.4,0.1-0.6,0.1C25,71.9,24.3,71.3,24.3,70.2z"/>
	<path class="st0" d="M33.8,68.8h-5c0,1.6,0.9,2.5,2.3,2.5c1.1,0,1.9-0.6,1.9-1.5h0.7c0,1.2-1.1,2-2.6,2c-1.8,0-3.1-1.2-3.1-3.3
		c0-2.1,1.2-3.3,3.1-3.3C32.7,65.3,33.9,66.5,33.8,68.8z M28.9,68.3h4.2c0-1.5-0.8-2.4-1.9-2.4C29.9,65.9,28.9,66.8,28.9,68.3z"/>
	<path class="st0" d="M36.5,71.8h-0.8v-6.4h0.7l0.1,1.5c0.4-1,1.3-1.5,2.3-1.5v0.6c-1.4,0-2.3,1.1-2.3,2.8V71.8z"/>
	<path class="st0" d="M42.9,73c-0.4,1.1-1.4,1.7-2.7,1.7v-0.5c0.8,0,1.6-0.4,1.9-1.1l0.5-1.1h-0.1l-2.6-6.4h0.8l2.3,5.7l2.3-5.7H46
		L42.9,73z"/>
	<path class="st0" d="M50.8,69.8c0,0.9,0.8,1.5,1.8,1.5c1,0,1.7-0.5,1.7-1.2c0-1.9-4.1-0.6-4.1-3c0-1.1,1-1.8,2.3-1.8
		c1.3,0,2.3,0.7,2.3,1.9h-0.7c0-0.8-0.7-1.4-1.6-1.4S51,66.3,51,67.1c0,1.8,4.1,0.5,4.1,3c0,1.1-1,1.8-2.5,1.8c-1.4,0-2.5-0.8-2.5-2
		H50.8z"/>
	<path class="st0" d="M57.7,71.8h-0.8v-9.3h0.8v4.3c0.4-0.9,1.3-1.4,2.3-1.4c1.4,0,2.4,0.9,2.4,2.3v4.2h-0.8v-4.2
		c0-1.1-0.7-1.8-1.8-1.8c-1.3,0-2.1,1-2.1,2.7V71.8z"/>
	<path class="st0" d="M67.2,65.3c1.8,0,3.1,1.2,3.1,3.3c0,2.1-1.3,3.3-3.1,3.3c-1.8,0-3.1-1.2-3.1-3.3
		C64.1,66.5,65.3,65.3,67.2,65.3z M67.2,71.3c1.4,0,2.3-1,2.3-2.7s-0.9-2.7-2.3-2.7c-1.4,0-2.3,1-2.3,2.7S65.8,71.3,67.2,71.3z"/>
	<path class="st0" d="M72,65.4h0.7l0,1.4c0.4-0.9,1.2-1.5,2.3-1.5c1.7,0,2.9,1.2,2.9,3.3c0,2.1-1.2,3.3-2.9,3.3
		c-1,0-1.8-0.5-2.3-1.4v4.1H72V65.4z M74.9,71.3c1.4,0,2.3-1,2.3-2.7s-0.9-2.7-2.3-2.7c-1.3,0-2.1,1-2.1,2.7S73.7,71.3,74.9,71.3z"
		/>
	<path class="st0" d="M79.8,65.4h0.7l0,1.4c0.4-0.9,1.2-1.5,2.3-1.5c1.7,0,2.9,1.2,2.9,3.3c0,2.1-1.2,3.3-2.9,3.3
		c-1,0-1.8-0.5-2.3-1.4v4.1h-0.8V65.4z M82.7,71.3c1.4,0,2.3-1,2.3-2.7s-0.9-2.7-2.3-2.7c-1.3,0-2.1,1-2.1,2.7S81.4,71.3,82.7,71.3z
		"/>
	<path class="st0" d="M93,68.8h-5c0,1.6,0.9,2.5,2.3,2.5c1.1,0,1.9-0.6,1.9-1.5h0.7c0,1.2-1.1,2-2.6,2c-1.8,0-3.1-1.2-3.1-3.3
		c0-2.1,1.2-3.3,3.1-3.3C91.9,65.3,93,66.5,93,68.8z M88,68.3h4.2c0-1.5-0.8-2.4-1.9-2.4C89,65.9,88,66.8,88,68.3z"/>
	<path class="st0" d="M95.7,71.8h-0.8v-6.4h0.7l0.1,1.5c0.4-1,1.3-1.5,2.3-1.5v0.6c-1.4,0-2.3,1.1-2.3,2.8V71.8z"/>
	<path class="st0" d="M99.9,69.8c0,0.9,0.8,1.5,1.8,1.5c1,0,1.7-0.5,1.7-1.2c0-1.9-4.1-0.6-4.1-3c0-1.1,1-1.8,2.3-1.8
		c1.3,0,2.3,0.7,2.3,1.9h-0.7c0-0.8-0.7-1.4-1.6-1.4s-1.5,0.5-1.5,1.2c0,1.8,4.1,0.5,4.1,3c0,1.1-1,1.8-2.5,1.8
		c-1.4,0-2.5-0.8-2.5-2H99.9z"/>
</g>
<g>
	<path class="st0" d="M57.6,104.9h-4.5v-1.2l3.9-6.1h2.1v6.1H60v1.2h-0.8v1.7h-1.6V104.9z M57.6,103.7v-4.5l-2.9,4.5H57.6z"/>
	<path class="st0" d="M64.6,97.5c2.1,0,3.6,1.7,3.6,4.6c0,2.9-1.5,4.6-3.6,4.6s-3.6-1.7-3.6-4.6C60.9,99.2,62.4,97.5,64.6,97.5z
		 M64.6,105.5c1.1,0,1.9-1.2,1.9-3.4s-0.7-3.4-1.9-3.4s-1.9,1.2-1.9,3.4S63.4,105.5,64.6,105.5z"/>
	<path class="st0" d="M72.8,97.5c2.1,0,3.6,1.7,3.6,4.6c0,2.9-1.5,4.6-3.6,4.6s-3.6-1.7-3.6-4.6C69.2,99.2,70.7,97.5,72.8,97.5z
		 M72.8,105.5c1.1,0,1.9-1.2,1.9-3.4s-0.7-3.4-1.9-3.4s-1.9,1.2-1.9,3.4S71.7,105.5,72.8,105.5z"/>
	<path class="st0" d="M84.3,97.5c2.1,0,3.6,1.7,3.6,4.6c0,2.9-1.5,4.6-3.6,4.6s-3.6-1.7-3.6-4.6C80.6,99.2,82.1,97.5,84.3,97.5z
		 M84.3,105.5c1.1,0,1.9-1.2,1.9-3.4s-0.7-3.4-1.9-3.4s-1.9,1.2-1.9,3.4S83.1,105.5,84.3,105.5z"/>
	<path class="st0" d="M92.5,97.5c2.1,0,3.6,1.7,3.6,4.6c0,2.9-1.5,4.6-3.6,4.6s-3.6-1.7-3.6-4.6C88.9,99.2,90.4,97.5,92.5,97.5z
		 M92.5,105.5c1.1,0,1.9-1.2,1.9-3.4s-0.7-3.4-1.9-3.4s-1.9,1.2-1.9,3.4S91.4,105.5,92.5,105.5z"/>
	<path class="st0" d="M100.8,97.5c2.1,0,3.6,1.7,3.6,4.6c0,2.9-1.5,4.6-3.6,4.6s-3.6-1.7-3.6-4.6C97.1,99.2,98.6,97.5,100.8,97.5z
		 M100.8,105.5c1.1,0,1.9-1.2,1.9-3.4s-0.7-3.4-1.9-3.4s-1.9,1.2-1.9,3.4S99.6,105.5,100.8,105.5z"/>
	<path class="st0" d="M27,122.1h-0.9l-2.7-6.4h0.8l2.3,5.7l2.3-5.7h0.8L27,122.1z"/>
	<path class="st0" d="M31.1,113h0.8v1.3h-0.8V113z M31.1,115.6h0.8v6.4h-0.8V115.6z"/>
	<path class="st0" d="M34.4,120.1c0,0.9,0.8,1.5,1.8,1.5c1,0,1.7-0.5,1.7-1.2c0-1.9-4.1-0.6-4.1-3c0-1.1,1-1.8,2.3-1.8
		c1.3,0,2.3,0.7,2.3,1.9h-0.7c0-0.8-0.7-1.4-1.6-1.4s-1.5,0.5-1.5,1.2c0,1.8,4.1,0.5,4.1,3c0,1.1-1,1.8-2.5,1.8
		c-1.4,0-2.5-0.8-2.5-2H34.4z"/>
	<path class="st0" d="M40.4,113h0.8v1.3h-0.8V113z M40.4,115.6h0.8v6.4h-0.8V115.6z"/>
	<path class="st0" d="M43.7,120.5v-4.3h-1.1v-0.5h1.1v-1.4h0.8v1.4h1.8v0.5h-1.8v4.4c0,0.7,0.5,1,1.3,1c0.2,0,0.3,0,0.5-0.1v0.5
		c-0.2,0-0.4,0.1-0.6,0.1C44.4,122.1,43.7,121.6,43.7,120.5z"/>
	<path class="st0" d="M48.3,120.1c0,0.9,0.8,1.5,1.8,1.5c1,0,1.7-0.5,1.7-1.2c0-1.9-4.1-0.6-4.1-3c0-1.1,1-1.8,2.3-1.8
		c1.3,0,2.3,0.7,2.3,1.9h-0.7c0-0.8-0.7-1.4-1.6-1.4s-1.5,0.5-1.5,1.2c0,1.8,4.1,0.5,4.1,3c0,1.1-1,1.8-2.5,1.8
		c-1.4,0-2.5-0.8-2.5-2H48.3z"/>
	<path class="st0" d="M57.3,115.6H58l0,1.4c0.4-0.9,1.2-1.5,2.3-1.5c1.7,0,2.9,1.2,2.9,3.3c0,2.1-1.2,3.3-2.9,3.3
		c-1,0-1.8-0.5-2.3-1.4v4.1h-0.8V115.6z M60.2,121.6c1.4,0,2.3-1,2.3-2.7s-0.9-2.7-2.3-2.7c-1.3,0-2.1,1-2.1,2.7
		S58.9,121.6,60.2,121.6z"/>
	<path class="st0" d="M70.5,119h-5c0,1.6,0.9,2.5,2.3,2.5c1.1,0,1.9-0.6,1.9-1.5h0.7c0,1.2-1.1,2-2.6,2c-1.8,0-3.1-1.2-3.1-3.3
		c0-2.1,1.2-3.3,3.1-3.3C69.4,115.6,70.6,116.7,70.5,119z M65.5,118.5h4.2c0-1.5-0.8-2.4-1.9-2.4C66.5,116.1,65.5,117,65.5,118.5z"
		/>
	<path class="st0" d="M73.2,122.1h-0.8v-6.4h0.7l0.1,1.5c0.4-1,1.3-1.5,2.3-1.5v0.6c-1.4,0-2.3,1.1-2.3,2.8V122.1z"/>
	<path class="st0" d="M82.5,123.2c-0.4,1.1-1.4,1.7-2.7,1.7v-0.5c0.8,0,1.6-0.4,1.9-1.1l0.5-1.1h-0.1l-2.6-6.4h0.8l2.3,5.7l2.3-5.7
		h0.8L82.5,123.2z"/>
	<path class="st0" d="M92.3,119h-5c0,1.6,0.9,2.5,2.3,2.5c1.1,0,1.9-0.6,1.9-1.5h0.7c0,1.2-1.1,2-2.6,2c-1.8,0-3.1-1.2-3.1-3.3
		c0-2.1,1.2-3.3,3.1-3.3C91.2,115.6,92.4,116.7,92.3,119z M87.3,118.5h4.2c0-1.5-0.8-2.4-1.9-2.4C88.3,116.1,87.3,117,87.3,118.5z"
		/>
	<path class="st0" d="M98.2,120.6c-0.4,0.9-1.3,1.5-2.4,1.5c-1.1,0-2-0.6-2-1.7c0-1.4,1.4-2.2,3.8-2.2h0.5v-0.6c0-1-0.7-1.6-1.7-1.6
		c-1,0-1.8,0.6-1.8,1.5H94c0-1.2,1.1-2,2.5-2c1.5,0,2.5,0.8,2.5,2.1v4.3h-0.7L98.2,120.6z M97.7,118.8c-2,0-3,0.6-3,1.6
		c0,0.7,0.5,1.2,1.3,1.2c1.3,0,2.2-1,2.2-2.6v-0.2H97.7z"/>
	<path class="st0" d="M101.9,122.1h-0.8v-6.4h0.7l0.1,1.5c0.4-1,1.3-1.5,2.3-1.5v0.6c-1.4,0-2.3,1.1-2.3,2.8V122.1z"/>
</g>
<g>
	<path class="st0" d="M212.1,97.6h5.4v1.2h-3.9l-0.3,2.4c0.4-0.3,1-0.5,1.6-0.5c1.9,0,3.2,1.2,3.2,3c0,1.9-1.2,3-3.3,3
		c-2,0-3.4-1-3.4-2.7h1.7c0,1,0.6,1.5,1.7,1.5c1,0,1.6-0.7,1.6-1.8c0-1.2-0.7-1.9-1.8-1.9c-0.7,0-1.2,0.3-1.4,0.8h-1.6L212.1,97.6z"
		/>
	<path class="st0" d="M223.9,100.2c0-0.8-0.6-1.5-1.5-1.5c-0.9,0-1.5,0.6-1.5,1.7h-1.7c0-1.7,1.3-2.8,3.3-2.8c1.9,0,3.2,1,3.2,2.6
		c0,2.6-4.5,4.3-4.5,5.3h4.5v1.1h-6.4v-1.1C219.2,104,223.9,102.1,223.9,100.2z"/>
	<path class="st0" d="M231.6,103.4c0,1.4,0.6,2.2,1.5,2.2c0.7,0,1.1-0.5,1.1-1.3h1.7c0,1.5-1.2,2.4-2.8,2.4c-1.9,0-3.3-1.2-3.3-3.3
		c0-2.1,1.3-3.3,3.3-3.3c1.6,0,2.8,0.9,2.8,2.4h-1.7c0-0.8-0.5-1.3-1.1-1.3C232.2,101.2,231.6,101.9,231.6,103.4z"/>
	<path class="st0" d="M240.2,100.1c1.9,0,3.3,1.2,3.3,3.3c0,2.1-1.3,3.3-3.3,3.3c-1.9,0-3.3-1.2-3.3-3.3
		C236.9,101.3,238.3,100.1,240.2,100.1z M240.2,105.6c0.9,0,1.5-0.8,1.5-2.2s-0.6-2.2-1.5-2.2c-0.9,0-1.5,0.8-1.5,2.2
		S239.3,105.6,240.2,105.6z"/>
	<path class="st0" d="M248.9,100.2h1.7v6.4H249l-0.1-0.9c-0.4,0.6-1.1,1-1.9,1c-1.4,0-2.3-0.8-2.3-2.2v-4.3h1.7v4.3
		c0,0.7,0.4,1.1,1.1,1.1c0.9,0,1.4-0.8,1.4-2.2V100.2z"/>
	<path class="st0" d="M253.8,106.6h-1.7v-6.4h1.6l0.1,0.9c0.4-0.6,1.1-1,1.8-1c1.4,0,2.4,0.9,2.4,2.3v4.2h-1.7v-4.2
		c0-0.8-0.4-1.2-1.1-1.2c-0.9,0-1.4,0.8-1.4,2.2V106.6z"/>
	<path class="st0" d="M259.9,104.7v-3.5H259v-1.1h0.9v-1.4h1.7v1.4h1.4v1.1h-1.4v3.6c0,0.5,0.4,0.8,0.9,0.8c0.2,0,0.4,0,0.5-0.1v1.1
		c-0.2,0-0.5,0.1-0.7,0.1C260.6,106.7,259.9,106,259.9,104.7z"/>
	<path class="st0" d="M266,106.6h-1.7v-6.4h1.5l0.2,1.1c0.4-0.8,1.2-1.1,2-1.1v1.2c-1.1,0-2,1-2,2.5V106.6z"/>
	<path class="st0" d="M269.2,97.6h1.7v1.6h-1.7V97.6z M269.2,100.2h1.7v6.4h-1.7V100.2z"/>
	<path class="st0" d="M278.3,103.8h-4.4c0,1.1,0.6,1.8,1.5,1.8c0.7,0,1.2-0.4,1.2-1.1h1.7c0,1.3-1.2,2.2-2.9,2.2
		c-1.9,0-3.3-1.2-3.3-3.3c0-2.1,1.3-3.3,3.3-3.3C277.2,100.1,278.5,101.3,278.3,103.8z M273.9,102.8h2.7c0-1.1-0.5-1.7-1.2-1.7
		C274.5,101.2,273.9,101.8,273.9,102.8z"/>
	<path class="st0" d="M281,104.5c0,0.7,0.5,1.1,1.1,1.1c0.7,0,1.1-0.3,1.1-0.8c0-1.4-3.8-0.3-3.8-2.8c0-1.2,1.1-1.9,2.7-1.9
		c1.5,0,2.6,0.8,2.6,2h-1.6c0-0.6-0.4-1-1-1c-0.6,0-1,0.3-1,0.8c0,1.3,3.8,0.3,3.8,2.8c0,1.2-1.2,1.9-2.9,1.9
		c-1.6,0-2.8-0.8-2.8-2.2H281z"/>
	<path class="st0" d="M214.6,115.6c1.8,0,3.1,1.2,3.1,3.3c0,2.1-1.3,3.3-3.1,3.3c-1.8,0-3.1-1.2-3.1-3.3
		C211.5,116.8,212.8,115.6,214.6,115.6z M214.6,121.6c1.4,0,2.3-1,2.3-2.7s-0.9-2.7-2.3-2.7c-1.4,0-2.3,1-2.3,2.7
		S213.2,121.6,214.6,121.6z"/>
	<path class="st0" d="M222.2,112.7v0.5c-0.2,0-0.3-0.1-0.5-0.1c-0.7,0-1.2,0.4-1.2,1v1.4h1.8v0.5h-1.8v5.9h-0.8v-5.9h-1v-0.5h1v-1.3
		c0-1.1,0.7-1.6,2-1.6C221.8,112.7,222,112.7,222.2,112.7z"/>
	<path class="st0" d="M229.5,115.6c1.8,0,3.1,1.2,3.1,3.3c0,2.1-1.3,3.3-3.1,3.3c-1.8,0-3.1-1.2-3.1-3.3
		C226.4,116.8,227.7,115.6,229.5,115.6z M229.5,121.6c1.4,0,2.3-1,2.3-2.7s-0.9-2.7-2.3-2.7c-1.4,0-2.3,1-2.3,2.7
		S228.2,121.6,229.5,121.6z"/>
	<path class="st0" d="M234.4,115.6h0.7l0,1.4c0.4-0.9,1.2-1.5,2.3-1.5c1.7,0,2.9,1.2,2.9,3.3c0,2.1-1.2,3.3-2.9,3.3
		c-1,0-1.8-0.5-2.3-1.4v4.1h-0.8V115.6z M237.3,121.6c1.4,0,2.3-1,2.3-2.7s-0.9-2.7-2.3-2.7c-1.3,0-2.1,1-2.1,2.7
		S236,121.6,237.3,121.6z"/>
	<path class="st0" d="M247.6,119h-5c0,1.6,0.9,2.5,2.3,2.5c1.1,0,1.9-0.6,1.9-1.5h0.7c0,1.2-1.1,2-2.6,2c-1.8,0-3.1-1.2-3.1-3.3
		c0-2.1,1.2-3.3,3.1-3.3C246.5,115.6,247.7,116.7,247.6,119z M242.6,118.5h4.2c0-1.5-0.8-2.4-1.9-2.4
		C243.6,116.1,242.6,117,242.6,118.5z"/>
	<path class="st0" d="M250.3,122.1h-0.8v-6.4h0.7l0.1,1.5c0.4-1,1.3-1.5,2.3-1.5v0.6c-1.4,0-2.3,1.1-2.3,2.8V122.1z"/>
	<path class="st0" d="M258.1,120.6c-0.4,0.9-1.3,1.5-2.4,1.5c-1.1,0-2-0.6-2-1.7c0-1.4,1.4-2.2,3.8-2.2h0.5v-0.6
		c0-1-0.7-1.6-1.7-1.6c-1,0-1.8,0.6-1.8,1.5h-0.8c0-1.2,1.1-2,2.5-2c1.5,0,2.5,0.8,2.5,2.1v4.3h-0.7L258.1,120.6z M257.6,118.8
		c-2,0-3,0.6-3,1.6c0,0.7,0.5,1.2,1.3,1.2c1.3,0,2.2-1,2.2-2.6v-0.2H257.6z"/>
	<path class="st0" d="M261.5,120.5v-4.3h-1.1v-0.5h1.1v-1.4h0.8v1.4h1.8v0.5h-1.8v4.4c0,0.7,0.5,1,1.3,1c0.2,0,0.3,0,0.5-0.1v0.5
		c-0.2,0-0.4,0.1-0.6,0.1C262.2,122.1,261.5,121.6,261.5,120.5z"/>
	<path class="st0" d="M265.7,113h0.8v1.3h-0.8V113z M265.7,115.6h0.8v6.4h-0.8V115.6z"/>
	<path class="st0" d="M271.4,115.6c1.8,0,3.1,1.2,3.1,3.3c0,2.1-1.3,3.3-3.1,3.3c-1.8,0-3.1-1.2-3.1-3.3
		C268.3,116.8,269.6,115.6,271.4,115.6z M271.4,121.6c1.4,0,2.3-1,2.3-2.7s-0.9-2.7-2.3-2.7c-1.4,0-2.3,1-2.3,2.7
		S270,121.6,271.4,121.6z"/>
	<path class="st0" d="M277,122.1h-0.8v-6.4h0.7l0,1.4c0.4-0.9,1.3-1.5,2.3-1.5c1.4,0,2.4,0.9,2.4,2.3v4.2h-0.8v-4.2
		c0-1.1-0.7-1.8-1.8-1.8c-1.3,0-2.1,1-2.1,2.7V122.1z"/>
</g>
<g>
	<g>
		<path class="st0" d="M140.2,120.2h-20.4c-0.4,0-0.7-0.3-0.7-0.7V96.8c0-0.4,0.3-0.7,0.7-0.7h2.9c0.4,0,0.7,0.3,0.7,0.7
			c0,0.4-0.3,0.7-0.7,0.7h-2.1v21.1h18.9V97.5h-5.1c-0.4,0-0.7-0.3-0.7-0.7c0-0.4,0.3-0.7,0.7-0.7h5.8c0.4,0,0.7,0.3,0.7,0.7v22.6
			C140.9,119.8,140.6,120.2,140.2,120.2z"/>
	</g>
	<g>
		<path class="st0" d="M134,99.3h-4.4c-0.4,0-0.7-0.3-0.7-0.7c0-0.4,0.3-0.7,0.7-0.7h3.6v-3h-6.7v3.8c0,0.4-0.3,0.7-0.7,0.7
			c-0.4,0-0.7-0.3-0.7-0.7V94c0-0.4,0.3-0.7,0.7-0.7h8.2c0.4,0,0.7,0.3,0.7,0.7v4.5C134.8,99,134.4,99.3,134,99.3z"/>
	</g>
	<g>
		<g>
			<path class="st0" d="M133.8,114.1h-8.3c-0.4,0-0.7-0.3-0.7-0.7V105c0-0.4,0.3-0.7,0.7-0.7h4.8c0.4,0,0.7,0.3,0.7,0.7
				c0,0.4-0.3,0.7-0.7,0.7h-4.1v6.9h6.9v-2.1c0-0.4,0.3-0.7,0.7-0.7c0.4,0,0.7,0.3,0.7,0.7v2.9C134.6,113.8,134.2,114.1,133.8,114.1
				z"/>
		</g>
		<g>
			<path class="st0" d="M130.5,111.1c-0.2,0-0.4-0.1-0.5-0.2l-2.4-2.4c-0.3-0.3-0.3-0.8,0-1.1c0.3-0.3,0.8-0.3,1.1,0l1.8,1.7
				l4.7-6.8c0.2-0.3,0.7-0.4,1-0.2c0.3,0.2,0.4,0.7,0.2,1l-5.2,7.5C131,111,130.8,111.1,130.5,111.1
				C130.5,111.1,130.5,111.1,130.5,111.1z"/>
		</g>
	</g>
</g>
</svg>
