<!-- Generator: Adobe Illustrator 19.0.0, SVG Export Plug-In  -->
<svg version="1.1"
	 xmlns="http://www.w3.org/2000/svg" xmlns:xlink="http://www.w3.org/1999/xlink" xmlns:a="http://ns.adobe.com/AdobeSVGViewerExtensions/3.0/"
	 x="0px" y="0px" width="18px" height="29.2px" viewBox="0 0 18 29.2" style="overflow:scroll;enable-background:new 0 0 18 29.2;"
	 xml:space="preserve">
<style type="text/css">
	.st0{fill:#414042;}
</style>
<defs>
</defs>
<g>
	<g>
		<g>
			<g>
				<path class="st0" d="M9,13.8c-0.2,0-0.5,0-0.7-0.1c-2.2-0.3-3.9-2-4.4-4.1C3.8,9.3,4,8.9,4.4,8.8C4.8,8.8,5.2,9,5.2,9.4
					c0.3,1.6,1.6,2.8,3.2,3c1,0.1,2-0.1,2.8-0.7c0.8-0.6,1.3-1.5,1.5-2.5c0.3-2.1-1.2-4-3.2-4.3c-1.6-0.2-3.1,0.6-3.9,2
					C5.4,7.2,5,7.3,4.7,7.2C4.3,7,4.2,6.6,4.4,6.2c1-1.9,3.2-3,5.3-2.7c2.8,0.4,4.8,3,4.4,5.9c-0.2,1.4-0.9,2.6-2,3.4
					C11.2,13.5,10.1,13.8,9,13.8z"/>
			</g>
		</g>
		<g>
			<path class="st0" d="M9,26.1c-0.2,0-0.5-0.1-0.6-0.3c-0.3-0.5-8-12.6-8-17.2C0.3,3.9,4.2,0,9,0c4,0,7.5,2.8,8.4,6.7
				c0.1,0.6,0.2,1.3,0.2,2c0,0.4-0.1,0.9-0.2,1.4c-0.3,1.5-1.1,3.4-2.3,5.9c-2.3,4.8-5.5,9.8-5.6,9.8C9.4,26,9.2,26.1,9,26.1z
				 M9,1.4c-4,0-7.2,3.2-7.2,7.2c0,3.2,4.8,11.5,7.2,15.5c1-1.7,3.2-5.3,4.9-8.8C15,13,15.7,11.1,16,9.8c0.1-0.4,0.1-0.8,0.1-1.1
				c0-0.6-0.1-1.1-0.2-1.6C15.2,3.7,12.3,1.4,9,1.4z"/>
		</g>
	</g>
	<g>
		<path class="st0" d="M9,29.2c-5.1,0-9-1.8-9-4.2c0-1.2,0.9-2.2,2.6-3c0.4-0.2,0.8,0,0.9,0.3c0.2,0.4,0,0.8-0.3,0.9
			C2,23.8,1.4,24.4,1.4,25c0,1.3,3.3,2.8,7.6,2.8s7.6-1.5,7.6-2.8c0-0.7-0.8-1.4-2.3-2c-0.4-0.1-0.5-0.5-0.4-0.9s0.5-0.5,0.9-0.4
			c2,0.8,3.1,1.9,3.1,3.3C18,27.4,14.1,29.2,9,29.2z"/>
	</g>
</g>
</svg>
