<!-- Generator: Adobe Illustrator 19.0.0, SVG Export Plug-In  -->
<svg version="1.1"
	 xmlns="http://www.w3.org/2000/svg" xmlns:xlink="http://www.w3.org/1999/xlink" xmlns:a="http://ns.adobe.com/AdobeSVGViewerExtensions/3.0/"
	 x="0px" y="0px" width="429.5px" height="81.5px" viewBox="0 0 429.5 81.5"
	 style="overflow:scroll;enable-background:new 0 0 429.5 81.5;" xml:space="preserve">
<style type="text/css">
	.st0{fill:#414042;}
</style>
<defs>
</defs>
<g>
	<path class="st0" d="M251.7,77c-0.5,0-1-0.1-1.3-0.3l-8.3-4.8c-0.8-0.4-1.3-1.4-1.3-2.3v-9.6c0-0.9,0.6-1.9,1.3-2.3l8.3-4.8
		c0.8-0.4,1.9-0.4,2.7,0l8.3,4.8c0.8,0.4,1.3,1.4,1.3,2.3v6.8c0,0.4-0.3,0.8-0.8,0.8c-0.4,0-0.8-0.3-0.8-0.8v-6.8
		c0-0.3-0.3-0.8-0.6-1l-8.3-4.8c-0.3-0.2-0.8-0.2-1.1,0l-8.3,4.8c-0.3,0.2-0.6,0.6-0.6,1v9.6c0,0.3,0.3,0.8,0.6,1l8.3,4.8
		c0.3,0.2,0.8,0.2,1.1,0l7.8-4.5c0.4-0.2,0.8-0.1,1.1,0.3c0.2,0.4,0.1,0.8-0.3,1.1l-7.8,4.5C252.6,76.8,252.1,77,251.7,77z"/>
</g>
<g>
	<g>
		<g>
			<g>
				<path class="st0" d="M252.5,15c-0.2,0-0.5,0-0.7-0.1c-2.2-0.3-3.9-2-4.4-4.1c-0.1-0.4,0.2-0.7,0.5-0.8c0.4-0.1,0.7,0.2,0.8,0.6
					c0.3,1.6,1.6,2.8,3.2,3c1,0.1,2-0.1,2.8-0.7c0.8-0.6,1.3-1.5,1.5-2.5c0.3-2.1-1.2-4-3.2-4.3c-1.6-0.2-3.1,0.6-3.9,2
					c-0.2,0.3-0.6,0.5-0.9,0.3c-0.3-0.2-0.5-0.6-0.3-0.9c1-1.9,3.2-3,5.3-2.7c2.8,0.4,4.8,3,4.4,5.9c-0.2,1.4-0.9,2.6-2,3.4
					C254.7,14.6,253.6,15,252.5,15z"/>
			</g>
		</g>
		<g>
			<path class="st0" d="M252.5,27.3c-0.2,0-0.5-0.1-0.6-0.3c-0.3-0.5-8-12.6-8-17.2c0-4.8,3.9-8.6,8.6-8.6c4,0,7.5,2.8,8.4,6.7
				c0.1,0.6,0.2,1.3,0.2,2c0,0.4-0.1,0.9-0.2,1.4c-0.3,1.5-1.1,3.4-2.3,5.9c-2.3,4.8-5.5,9.8-5.6,9.8
				C252.9,27.1,252.7,27.3,252.5,27.3z M252.5,2.5c-4,0-7.2,3.2-7.2,7.2c0,3.2,4.8,11.5,7.2,15.5c1-1.7,3.2-5.3,4.9-8.8
				c1.1-2.4,1.9-4.2,2.2-5.6c0.1-0.4,0.1-0.8,0.1-1.1c0-0.6-0.1-1.1-0.2-1.6C258.8,4.8,255.9,2.5,252.5,2.5z"/>
		</g>
	</g>
	<g>
		<path class="st0" d="M252.5,30.4c-5.1,0-9-1.8-9-4.2c0-1.2,0.9-2.2,2.6-3c0.4-0.2,0.8,0,0.9,0.3c0.2,0.4,0,0.8-0.3,0.9
			c-1.1,0.5-1.8,1.2-1.8,1.8c0,1.3,3.3,2.8,7.6,2.8c4.4,0,7.6-1.5,7.6-2.8c0-0.7-0.8-1.4-2.3-2c-0.4-0.1-0.5-0.5-0.4-0.9
			c0.1-0.4,0.5-0.5,0.9-0.4c2,0.8,3.1,1.9,3.1,3.3C261.5,28.5,257.6,30.4,252.5,30.4z"/>
	</g>
</g>
<g>
	<g>
		<path class="st0" d="M308.8,29.2c6.5,0,11.8-5.3,11.8-11.8c0-6.5-5.3-11.8-11.8-11.8c-1.4,0-2.8,0.2-4.1,0.7
			c-0.4,0.1-0.6,0.6-0.4,1c0.1,0.4,0.6,0.6,1,0.4c1.1-0.4,2.4-0.6,3.6-0.6c5.7,0,10.3,4.6,10.3,10.3c0,5.7-4.6,10.3-10.3,10.3
			c-5.7,0-10.3-4.6-10.3-10.3c0-1.2,0.2-2.3,0.6-3.4c0.1-0.4-0.1-0.8-0.5-0.9c-0.4-0.1-0.8,0.1-0.9,0.5c-0.4,1.3-0.7,2.6-0.7,3.9
			C297.1,24,302.3,29.2,308.8,29.2z"/>
	</g>
	<g>
		<path class="st0" d="M308.8,25.9c4.6,0,8.4-3.8,8.4-8.4c0-4.6-3.8-8.4-8.4-8.4c-1.3,0-2.6,0.3-3.7,0.9c-0.4,0.2-0.5,0.6-0.3,1
			c0.2,0.4,0.6,0.5,1,0.3c1-0.5,2-0.7,3.1-0.7c3.8,0,6.9,3.1,6.9,6.9c0,3.8-3.1,6.9-6.9,6.9s-6.9-3.1-6.9-6.9c0-1.4,0.4-2.8,1.2-3.9
			c0.2-0.3,0.5-0.7,0.8-1c0.3-0.3,0.3-0.8,0-1c-0.3-0.3-0.8-0.3-1.1,0c-0.4,0.4-0.7,0.7-1,1.2c-1,1.4-1.5,3.1-1.5,4.8
			C300.4,22.1,304.2,25.9,308.8,25.9z"/>
	</g>
	<g>
		<path class="st0" d="M308.8,21.9c2.5,0,4.5-2,4.5-4.5c0-2.5-2-4.5-4.5-4.5c-0.4,0-0.7,0.3-0.7,0.7c0,0.4,0.3,0.7,0.7,0.7
			c1.7,0,3,1.3,3,3c0,1.7-1.3,3-3,3c-1.7,0-3-1.3-3-3c0-0.8,0.3-1.6,0.9-2.1c0.3-0.3,0.3-0.8,0-1.1c-0.3-0.3-0.8-0.3-1.1,0
			c-0.8,0.8-1.3,2-1.3,3.2C304.3,19.9,306.4,21.9,308.8,21.9z"/>
	</g>
	<g>
		<path class="st0" d="M308.8,18.2c0.2,0,0.4-0.1,0.5-0.2c0.3-0.3,0.3-0.8,0-1L297.6,5.2c-0.3-0.3-0.8-0.3-1,0c-0.3,0.3-0.3,0.8,0,1
			L308.3,18C308.5,18.1,308.6,18.2,308.8,18.2z"/>
	</g>
	<g>
		<path class="st0" d="M302.2,11.6c0.1,0,0.2,0,0.2,0c0.3-0.1,0.5-0.3,0.5-0.6l0.5-3.5c0-0.2,0-0.4-0.1-0.5l-5.1-6.5
			C298,0.1,297.8,0,297.5,0c0,0,0,0,0,0c-0.4,0-0.8,0.3-0.8,0.7l-0.4,4.8c0,0.2,0.1,0.4,0.2,0.6l5.1,5.3
			C301.8,11.5,302,11.6,302.2,11.6z M301.9,7.5l-0.2,1.7l-3.8-4l0.2-2.7L301.9,7.5z"/>
	</g>
	<g>
		<path class="st0" d="M299.3,12.5c0.1,0,0.1,0,0.2,0l2.9-0.9c0.2-0.1,0.4-0.3,0.5-0.5c0.1-0.3,0-0.5-0.2-0.7L297.6,5
			c-0.2-0.2-0.5-0.3-0.8-0.2L293,6.3c-0.2,0.1-0.4,0.3-0.5,0.6c0,0.3,0.1,0.5,0.3,0.7l6,4.7C298.9,12.4,299.1,12.5,299.3,12.5z
			 M300.8,10.5l-1.4,0.4l-4.7-3.6l2.2-0.9L300.8,10.5z"/>
	</g>
</g>
<g>
	<path class="st0" d="M333.2,5c1.5,0,2-0.3,2-1.1h1.5v9h-1.8v-7h-1.7V5z"/>
	<path class="st0" d="M344.9,3.8c2.1,0,3.6,1.7,3.6,4.6c0,2.9-1.5,4.6-3.6,4.6s-3.6-1.7-3.6-4.6C341.2,5.5,342.7,3.8,344.9,3.8z
		 M344.9,11.8c1.1,0,1.9-1.2,1.9-3.4S346,5,344.9,5S343,6.2,343,8.4S343.7,11.8,344.9,11.8z"/>
	<path class="st0" d="M353.1,3.8c2.1,0,3.6,1.7,3.6,4.6c0,2.9-1.5,4.6-3.6,4.6s-3.6-1.7-3.6-4.6C349.5,5.5,351,3.8,353.1,3.8z
		 M353.1,11.8c1.1,0,1.9-1.2,1.9-3.4S354.3,5,353.1,5s-1.9,1.2-1.9,3.4S352,11.8,353.1,11.8z"/>
	<path class="st0" d="M361.4,3.8c2.1,0,3.6,1.7,3.6,4.6c0,2.9-1.5,4.6-3.6,4.6s-3.6-1.7-3.6-4.6C357.7,5.5,359.2,3.8,361.4,3.8z
		 M361.4,11.8c1.1,0,1.9-1.2,1.9-3.4S362.5,5,361.4,5s-1.9,1.2-1.9,3.4S360.2,11.8,361.4,11.8z"/>
	<path class="st0" d="M372.8,3.8c2.1,0,3.6,1.7,3.6,4.6c0,2.9-1.5,4.6-3.6,4.6s-3.6-1.7-3.6-4.6C369.2,5.5,370.7,3.8,372.8,3.8z
		 M372.8,11.8c1.1,0,1.9-1.2,1.9-3.4S374,5,372.8,5S371,6.2,371,8.4S371.7,11.8,372.8,11.8z"/>
	<path class="st0" d="M381.1,3.8c2.1,0,3.6,1.7,3.6,4.6c0,2.9-1.5,4.6-3.6,4.6s-3.6-1.7-3.6-4.6C377.5,5.5,379,3.8,381.1,3.8z
		 M381.1,11.8c1.1,0,1.9-1.2,1.9-3.4S382.2,5,381.1,5s-1.9,1.2-1.9,3.4S380,11.8,381.1,11.8z"/>
	<path class="st0" d="M389.3,3.8c2.1,0,3.6,1.7,3.6,4.6c0,2.9-1.5,4.6-3.6,4.6s-3.6-1.7-3.6-4.6C385.7,5.5,387.2,3.8,389.3,3.8z
		 M389.3,11.8c1.1,0,1.9-1.2,1.9-3.4S390.5,5,389.3,5s-1.9,1.2-1.9,3.4S388.2,11.8,389.3,11.8z"/>
	<path class="st0" d="M394.6,11V7.5h-0.9V6.5h0.9V5.1h1.7v1.4h1.4v1.1h-1.4v3.6c0,0.5,0.4,0.8,0.9,0.8c0.2,0,0.4,0,0.5-0.1v1.1
		c-0.2,0-0.5,0.1-0.7,0.1C395.4,13,394.6,12.3,394.6,11z"/>
	<path class="st0" d="M400.7,12.9H399V3.6h1.7v3.7c0.4-0.6,1.1-0.9,1.8-0.9c1.4,0,2.4,0.9,2.4,2.3v4.2h-1.7V8.7
		c0-0.8-0.4-1.2-1.1-1.2c-0.9,0-1.4,0.8-1.4,2.2V12.9z"/>
	<path class="st0" d="M333.9,19.3h1.2l3.4,8.1l3.4-8.1h1.2v9h-0.8v-8l-3.4,8H338l-3.4-8v8h-0.8V19.3z"/>
	<path class="st0" d="M345.6,25.6c0,1.3,1.1,2.2,2.5,2.2c1.4,0,2.4-0.7,2.4-1.8c0-2.8-5.5-1-5.5-4.2c0-1.5,1.2-2.5,3-2.5s3,1,3,2.6
		h-0.8c0-1.2-1-2-2.2-2c-1.3,0-2.2,0.7-2.2,1.9c0,2.7,5.5,0.8,5.5,4.2c0,1.6-1.3,2.5-3.2,2.5c-1.9,0-3.3-1.1-3.3-2.8H345.6z"/>
	<path class="st0" d="M358.9,28.4H358l-2.7-6.4h0.8l2.3,5.7l2.3-5.7h0.8L358.9,28.4z"/>
	<path class="st0" d="M363,19.3h0.8v1.3H363V19.3z M363,21.9h0.8v6.4H363V21.9z"/>
	<path class="st0" d="M366.3,26.4c0,0.9,0.8,1.5,1.8,1.5c1,0,1.7-0.5,1.7-1.2c0-1.9-4.1-0.6-4.1-3c0-1.1,1-1.8,2.3-1.8
		c1.3,0,2.3,0.7,2.3,1.9h-0.7c0-0.8-0.7-1.4-1.6-1.4s-1.5,0.5-1.5,1.2c0,1.8,4.1,0.5,4.1,3c0,1.1-1,1.8-2.5,1.8
		c-1.4,0-2.5-0.8-2.5-2H366.3z"/>
	<path class="st0" d="M372.3,19.3h0.8v1.3h-0.8V19.3z M372.3,21.9h0.8v6.4h-0.8V21.9z"/>
	<path class="st0" d="M375.6,26.8v-4.3h-1.1v-0.5h1.1v-1.4h0.8v1.4h1.8v0.5h-1.8v4.4c0,0.7,0.5,1,1.3,1c0.2,0,0.3,0,0.5-0.1v0.5
		c-0.2,0-0.4,0.1-0.6,0.1C376.3,28.4,375.6,27.9,375.6,26.8z"/>
	<path class="st0" d="M383.6,28.4h-0.8v-6.4h0.7l0.1,1.5c0.4-1,1.3-1.5,2.3-1.5v0.6c-1.4,0-2.3,1.1-2.3,2.8V28.4z"/>
	<path class="st0" d="M392.9,25.3h-5c0,1.6,0.9,2.5,2.3,2.5c1.1,0,1.9-0.6,1.9-1.5h0.7c0,1.2-1.1,2-2.6,2c-1.8,0-3.1-1.2-3.1-3.3
		c0-2.1,1.2-3.3,3.1-3.3C391.8,21.9,393,23,392.9,25.3z M388,24.8h4.2c0-1.5-0.8-2.4-1.9-2.4C388.9,22.4,388,23.3,388,24.8z"/>
	<path class="st0" d="M398.9,26.9c-0.4,0.9-1.3,1.5-2.4,1.5c-1.1,0-2-0.6-2-1.7c0-1.4,1.4-2.2,3.8-2.2h0.5V24c0-1-0.7-1.6-1.7-1.6
		c-1,0-1.8,0.6-1.8,1.5h-0.8c0-1.2,1.1-2,2.5-2c1.5,0,2.5,0.8,2.5,2.1v4.3h-0.7L398.9,26.9z M398.4,25.1c-2,0-3,0.6-3,1.6
		c0,0.7,0.5,1.2,1.3,1.2c1.3,0,2.2-1,2.2-2.6v-0.2H398.4z"/>
	<path class="st0" d="M402.2,25.2c0,1.7,0.9,2.7,2.3,2.7c1,0,1.8-0.6,1.8-1.6h0.8c0,1.3-1.1,2.1-2.5,2.1c-1.8,0-3.1-1.2-3.1-3.3
		c0-2.1,1.3-3.3,3.1-3.3c1.4,0,2.5,0.8,2.5,2.1h-0.8c0-0.9-0.7-1.6-1.8-1.6C403.2,22.4,402.2,23.4,402.2,25.2z"/>
	<path class="st0" d="M409.7,28.4h-0.8V19h0.8v4.3c0.4-0.9,1.3-1.4,2.3-1.4c1.4,0,2.4,0.9,2.4,2.3v4.2h-0.8v-4.2
		c0-1.1-0.7-1.8-1.8-1.8c-1.3,0-2.1,1-2.1,2.7V28.4z"/>
	<path class="st0" d="M421.9,25.3h-5c0,1.6,0.9,2.5,2.3,2.5c1.1,0,1.9-0.6,1.9-1.5h0.7c0,1.2-1.1,2-2.6,2c-1.8,0-3.1-1.2-3.1-3.3
		c0-2.1,1.2-3.3,3.1-3.3C420.8,21.9,422,23,421.9,25.3z M416.9,24.8h4.2c0-1.5-0.8-2.4-1.9-2.4C417.9,22.4,416.9,23.3,416.9,24.8z"
		/>
	<path class="st0" d="M429.5,28.4h-0.7l-0.1-1.4c-0.4,0.9-1.2,1.5-2.3,1.5c-1.7,0-2.9-1.2-2.9-3.3c0-2.1,1.2-3.3,2.9-3.3
		c1,0,1.8,0.5,2.3,1.4V19h0.8V28.4z M426.6,22.4c-1.4,0-2.3,1-2.3,2.7s0.9,2.7,2.3,2.7c1.3,0,2.1-1,2.1-2.7S427.8,22.4,426.6,22.4z"
		/>
</g>
<g>
	<path class="st0" d="M140.4,9.7c0,1.7,0.9,2.7,2.3,2.7c1,0,1.8-0.6,1.8-1.6h0.8c0,1.3-1.1,2.1-2.5,2.1c-1.8,0-3.1-1.2-3.1-3.3
		c0-2.1,1.3-3.3,3.1-3.3c1.4,0,2.5,0.8,2.5,2.1h-0.8c0-0.9-0.7-1.6-1.8-1.6C141.3,7,140.4,8,140.4,9.7z"/>
	<path class="st0" d="M149.9,6.4c1.8,0,3.1,1.2,3.1,3.3c0,2.1-1.3,3.3-3.1,3.3c-1.8,0-3.1-1.2-3.1-3.3C146.8,7.6,148,6.4,149.9,6.4z
		 M149.9,12.4c1.4,0,2.3-1,2.3-2.7S151.2,7,149.9,7c-1.4,0-2.3,1-2.3,2.7S148.5,12.4,149.9,12.4z"/>
	<path class="st0" d="M159.4,6.5h0.8v6.4h-0.7l0-1.4c-0.4,0.9-1.3,1.5-2.3,1.5c-1.4,0-2.4-0.9-2.4-2.3V6.5h0.8v4.2
		c0,1.1,0.7,1.8,1.8,1.8c1.3,0,2.1-1,2.1-2.7V6.5z"/>
	<path class="st0" d="M163,12.9h-0.8V6.5h0.7l0,1.4c0.4-0.9,1.3-1.5,2.3-1.5c1.4,0,2.4,0.9,2.4,2.3v4.2h-0.8V8.8
		c0-1.1-0.7-1.8-1.8-1.8c-1.3,0-2.1,1-2.1,2.7V12.9z"/>
	<path class="st0" d="M170.2,11.3V7h-1.1V6.5h1.1V5.1h0.8v1.4h1.8V7H171v4.4c0,0.7,0.5,1,1.3,1c0.2,0,0.3,0,0.5-0.1v0.5
		c-0.2,0-0.4,0.1-0.6,0.1C170.9,13,170.2,12.4,170.2,11.3z"/>
	<path class="st0" d="M175.3,12.9h-0.8V6.5h0.7l0.1,1.5c0.4-1,1.3-1.5,2.3-1.5V7c-1.4,0-2.3,1.1-2.3,2.8V12.9z"/>
	<path class="st0" d="M181.7,14.1c-0.4,1.1-1.4,1.7-2.7,1.7v-0.5c0.8,0,1.6-0.4,1.9-1.1l0.5-1.1h-0.1l-2.6-6.4h0.8l2.3,5.7l2.3-5.7
		h0.8L181.7,14.1z"/>
	<path class="st0" d="M191.9,6.4c1.8,0,3.1,1.2,3.1,3.3c0,2.1-1.3,3.3-3.1,3.3c-1.8,0-3.1-1.2-3.1-3.3
		C188.9,7.6,190.1,6.4,191.9,6.4z M191.9,12.4c1.4,0,2.3-1,2.3-2.7S193.3,7,191.9,7c-1.4,0-2.3,1-2.3,2.7S190.6,12.4,191.9,12.4z"/>
	<path class="st0" d="M204,7h-2.7v5.9h-0.8V7h-2.8v5.9H197V7h-1V6.5h1V5.2c0-1.1,0.7-1.6,2-1.6c0.2,0,0.4,0,0.6,0.1v0.5
		c-0.2,0-0.3-0.1-0.5-0.1c-0.7,0-1.2,0.4-1.2,1v1.4h2.8V5.2c0-1.1,0.7-1.6,2-1.6c0.2,0,0.4,0,0.6,0.1v0.5c-0.2,0-0.3-0.1-0.5-0.1
		c-0.7,0-1.2,0.4-1.2,1v1.4h3.5v6.4H204V7z M204,3.9h0.8v1.3H204V3.9z"/>
	<path class="st0" d="M207.4,9.7c0,1.7,0.9,2.7,2.3,2.7c1,0,1.8-0.6,1.8-1.6h0.8c0,1.3-1.1,2.1-2.5,2.1c-1.8,0-3.1-1.2-3.1-3.3
		c0-2.1,1.3-3.3,3.1-3.3c1.4,0,2.5,0.8,2.5,2.1h-0.8c0-0.9-0.7-1.6-1.8-1.6C208.3,7,207.4,8,207.4,9.7z"/>
	<path class="st0" d="M219.6,9.9h-5c0,1.6,0.9,2.5,2.3,2.5c1.1,0,1.9-0.6,1.9-1.5h0.7c0,1.2-1.1,2-2.6,2c-1.8,0-3.1-1.2-3.1-3.3
		c0-2.1,1.2-3.3,3.1-3.3C218.5,6.4,219.6,7.6,219.6,9.9z M214.6,9.4h4.2c0-1.5-0.8-2.4-1.9-2.4C215.6,7,214.6,7.9,214.6,9.4z"/>
	<path class="st0" d="M221.9,10.9c0,0.9,0.8,1.5,1.8,1.5c1,0,1.7-0.5,1.7-1.2c0-1.9-4.1-0.6-4.1-3c0-1.1,1-1.8,2.3-1.8
		c1.3,0,2.3,0.7,2.3,1.9h-0.7c0-0.8-0.7-1.4-1.6-1.4s-1.5,0.5-1.5,1.2c0,1.8,4.1,0.5,4.1,3c0,1.1-1,1.8-2.5,1.8
		c-1.4,0-2.5-0.8-2.5-2H221.9z"/>
	<path class="st0" d="M82.1,23.5h3.5v4.9h-1.4l-0.1-0.9c-0.5,0.6-1.3,0.9-2.1,0.9c-2.5,0-4.3-1.7-4.3-4.6c0-2.9,1.8-4.6,4.3-4.6
		c2.2,0,3.7,1.1,3.7,3h-1.8c0-1.2-0.8-1.8-2-1.8c-1.5,0-2.4,1.2-2.4,3.4s1,3.4,2.5,3.4c1.3,0,2.1-0.7,2.1-2v-0.5h-1.9V23.5z"/>
	<path class="st0" d="M92.8,25.6h-4.4c0,1.1,0.6,1.8,1.5,1.8c0.7,0,1.2-0.4,1.2-1.1h1.7c0,1.3-1.2,2.2-2.9,2.2
		c-1.9,0-3.3-1.2-3.3-3.3c0-2.1,1.3-3.3,3.3-3.3C91.7,21.9,93,23.1,92.8,25.6z M88.5,24.6h2.7c0-1.1-0.5-1.7-1.2-1.7
		C89.1,23,88.5,23.6,88.5,24.6z"/>
	<path class="st0" d="M97.2,21.9c1.9,0,3.3,1.2,3.3,3.3c0,2.1-1.3,3.3-3.3,3.3c-1.9,0-3.3-1.2-3.3-3.3
		C93.9,23.1,95.2,21.9,97.2,21.9z M97.2,27.4c0.9,0,1.5-0.8,1.5-2.2S98.1,23,97.2,23c-0.9,0-1.5,0.8-1.5,2.2S96.2,27.4,97.2,27.4z"
		/>
	<path class="st0" d="M103.3,28.4h-1.7V22h1.5l0.2,1.1c0.4-0.8,1.2-1.1,2-1.1v1.2c-1.1,0-2,1-2,2.5V28.4z"/>
	<path class="st0" d="M110.7,28.5v-0.9c-0.4,0.5-1,0.8-1.8,0.8c-1.7,0-2.8-1.2-2.8-3.3c0-2.1,1.1-3.3,2.8-3.3c0.8,0,1.4,0.3,1.8,0.9
		l0.1-0.8h1.6v6.6c0,1.7-1.3,2.7-3.1,2.7c-1.7,0-3-0.8-3-2.2h1.6c0,0.7,0.5,1.2,1.3,1.2C110.1,30.2,110.7,29.6,110.7,28.5z
		 M109.3,23c-0.9,0-1.5,0.8-1.5,2.2s0.6,2.2,1.5,2.2c0.9,0,1.4-0.8,1.4-2.2S110.1,23,109.3,23z"/>
	<path class="st0" d="M113.8,19.4h1.7V21h-1.7V19.4z M113.8,22h1.7v6.4h-1.7V22z"/>
	<path class="st0" d="M120.8,27.5c-0.4,0.6-1.1,1-1.9,1c-1.3,0-2.2-0.6-2.2-1.7c0-1.4,1.4-2.2,3.7-2.2h0.4v-0.4
		c0-0.8-0.5-1.2-1.2-1.2c-0.7,0-1.1,0.4-1.1,1.1h-1.7c0-1.4,1.1-2.2,2.8-2.2c1.7,0,2.9,0.8,2.9,2.3v4.3H121L120.8,27.5z M120.4,25.4
		c-1.3,0-1.9,0.4-1.9,1.2c0,0.5,0.3,0.8,0.9,0.8c0.9,0,1.4-0.7,1.4-1.8v-0.2H120.4z"/>
	<path class="st0" d="M124,26.7h1.7v1.7c0,1.2-0.7,2.1-1.7,2.1v-0.9c0.4,0,0.6-0.5,0.6-1.1H124V26.7z"/>
	<path class="st0" d="M130.4,19.4h3.8c1.8,0,3,1,3,2.7c0,1.3-0.8,2.2-1.9,2.6l2.3,3.8h-1.9l-1.9-3.6h-1.5v3.6h-1.8V19.4z
		 M132.2,20.6v3h1.6c1,0,1.6-0.5,1.6-1.5c0-1-0.6-1.5-1.6-1.5H132.2z"/>
	<path class="st0" d="M141,21.9c1.9,0,3.3,1.2,3.3,3.3c0,2.1-1.3,3.3-3.3,3.3c-1.9,0-3.3-1.2-3.3-3.3
		C137.8,23.1,139.1,21.9,141,21.9z M141,27.4c0.9,0,1.5-0.8,1.5-2.2S142,23,141,23c-0.9,0-1.5,0.8-1.5,2.2S140.1,27.4,141,27.4z"/>
	<path class="st0" d="M147.2,28.4h-1.7V22h1.6l0.1,1c0.4-0.7,0.9-1,1.6-1c0.8,0,1.4,0.4,1.8,1.1c0.4-0.7,1.3-1.1,2-1.1
		c1.3,0,2.2,0.9,2.2,2.3v4.2h-1.7v-4.2c0-0.8-0.4-1.2-0.9-1.2c-0.7,0-1.1,0.8-1.1,2.2v3.2h-1.7v-4.2c0-0.8-0.4-1.2-0.9-1.2
		c-0.7,0-1.1,0.8-1.1,2.2V28.4z"/>
	<path class="st0" d="M160.1,27.5c-0.4,0.6-1.1,1-1.9,1c-1.3,0-2.2-0.6-2.2-1.7c0-1.4,1.4-2.2,3.7-2.2h0.4v-0.4
		c0-0.8-0.5-1.2-1.2-1.2c-0.7,0-1.1,0.4-1.1,1.1h-1.7c0-1.4,1.1-2.2,2.8-2.2c1.7,0,2.9,0.8,2.9,2.3v4.3h-1.6L160.1,27.5z
		 M159.7,25.4c-1.3,0-1.9,0.4-1.9,1.2c0,0.5,0.3,0.8,0.9,0.8c0.9,0,1.4-0.7,1.4-1.8v-0.2H159.7z"/>
	<path class="st0" d="M165,28.4h-1.7V22h1.6l0.1,0.9c0.4-0.6,1.1-1,1.8-1c1.4,0,2.4,0.9,2.4,2.3v4.2h-1.7v-4.2
		c0-0.8-0.4-1.2-1.1-1.2c-0.9,0-1.4,0.8-1.4,2.2V28.4z"/>
	<path class="st0" d="M170.7,19.4h1.7V21h-1.7V19.4z M170.7,22h1.7v6.4h-1.7V22z"/>
	<path class="st0" d="M177.7,27.5c-0.4,0.6-1.1,1-1.9,1c-1.3,0-2.2-0.6-2.2-1.7c0-1.4,1.4-2.2,3.7-2.2h0.4v-0.4
		c0-0.8-0.5-1.2-1.2-1.2c-0.7,0-1.1,0.4-1.1,1.1h-1.7c0-1.4,1.1-2.2,2.8-2.2c1.7,0,2.9,0.8,2.9,2.3v4.3h-1.6L177.7,27.5z
		 M177.3,25.4c-1.3,0-1.9,0.4-1.9,1.2c0,0.5,0.3,0.8,0.9,0.8c0.9,0,1.4-0.7,1.4-1.8v-0.2H177.3z"/>
	<path class="st0" d="M180.8,26.7h1.7v1.7c0,1.2-0.7,2.1-1.7,2.1v-0.9c0.4,0,0.6-0.5,0.6-1.1h-0.6V26.7z"/>
	<path class="st0" d="M186.8,19.4h7.4v1.2h-2.8v7.8h-1.8v-7.8h-2.8V19.4z"/>
	<path class="st0" d="M198.9,22h1.7v6.4h-1.6l-0.1-0.9c-0.4,0.6-1.1,1-1.9,1c-1.4,0-2.3-0.8-2.3-2.2V22h1.7v4.3
		c0,0.7,0.4,1.1,1.1,1.1c0.9,0,1.4-0.8,1.4-2.2V22z"/>
	<path class="st0" d="M203.8,28.4h-1.7V22h1.5l0.2,1.1c0.4-0.8,1.2-1.1,2-1.1v1.2c-1.1,0-2,1-2,2.5V28.4z"/>
	<path class="st0" d="M209.5,25.9l-0.7,0.9v1.7H207v-9.3h1.7v5.4l2-2.5h1.9l-2.3,2.7l2.5,3.7h-1.7L209.5,25.9z"/>
	<path class="st0" d="M219.5,25.6h-4.4c0,1.1,0.6,1.8,1.5,1.8c0.7,0,1.2-0.4,1.2-1.1h1.7c0,1.3-1.2,2.2-2.9,2.2
		c-1.9,0-3.3-1.2-3.3-3.3c0-2.1,1.3-3.3,3.3-3.3C218.4,21.9,219.7,23.1,219.5,25.6z M215.1,24.6h2.7c0-1.1-0.5-1.7-1.2-1.7
		C215.8,23,215.1,23.6,215.1,24.6z"/>
	<path class="st0" d="M224,29.2c-0.5,1.4-1.5,2-3.4,2v-1.1c0.9,0,1.6-0.3,1.8-0.9l0.3-0.8h-0.3L220,22h1.8l1.6,5l1.6-5h1.8L224,29.2
		z"/>
</g>
<g>
	<path class="st0" d="M14.7,63.2h-0.8v-6.4h0.7l0.1,1.5c0.4-1,1.3-1.5,2.3-1.5v0.6c-1.4,0-2.3,1.1-2.3,2.8V63.2z"/>
	<path class="st0" d="M24,60.1h-5c0,1.6,0.9,2.5,2.3,2.5c1.1,0,1.9-0.6,1.9-1.5h0.7c0,1.2-1.1,2-2.6,2c-1.8,0-3.1-1.2-3.1-3.3
		c0-2.1,1.2-3.3,3.1-3.3C22.9,56.7,24,57.8,24,60.1z M19,59.6h4.2c0-1.5-0.8-2.4-1.9-2.4C20,57.2,19,58.1,19,59.6z"/>
	<path class="st0" d="M25.9,53.8h0.8v4.3c0.4-0.9,1.2-1.4,2.3-1.4c1.7,0,2.9,1.2,2.9,3.3c0,2.1-1.2,3.3-2.9,3.3
		c-1,0-1.8-0.5-2.3-1.4l0,1.4h-0.7V53.8z M28.8,62.7c1.4,0,2.3-1,2.3-2.7s-0.9-2.7-2.3-2.7c-1.3,0-2.1,1-2.1,2.7
		S27.5,62.7,28.8,62.7z"/>
	<path class="st0" d="M34.4,63.2h-0.8v-6.4h0.7l0.1,1.5c0.4-1,1.3-1.5,2.3-1.5v0.6c-1.4,0-2.3,1.1-2.3,2.8V63.2z"/>
	<path class="st0" d="M42.2,61.7c-0.4,0.9-1.3,1.5-2.4,1.5c-1.1,0-2-0.6-2-1.7c0-1.4,1.4-2.2,3.8-2.2h0.5v-0.6c0-1-0.7-1.6-1.7-1.6
		c-1,0-1.8,0.6-1.8,1.5H38c0-1.2,1.1-2,2.5-2c1.5,0,2.5,0.8,2.5,2.1v4.3h-0.7L42.2,61.7z M41.7,59.9c-2,0-3,0.6-3,1.6
		c0,0.7,0.5,1.2,1.3,1.2c1.3,0,2.2-1,2.2-2.6v-0.2H41.7z"/>
	<path class="st0" d="M45.9,63.2h-0.8v-6.4h0.7l0,1.4c0.4-0.9,1.3-1.5,2.3-1.5c1.4,0,2.4,0.9,2.4,2.3v4.2h-0.8V59
		c0-1.1-0.7-1.8-1.8-1.8c-1.3,0-2.1,1-2.1,2.7V63.2z"/>
	<path class="st0" d="M58.3,63.2h-0.7l-0.1-1.4c-0.4,0.9-1.2,1.5-2.3,1.5c-1.7,0-2.9-1.2-2.9-3.3c0-2.1,1.2-3.3,2.9-3.3
		c1,0,1.8,0.5,2.3,1.4v-4.3h0.8V63.2z M55.4,57.2c-1.4,0-2.3,1-2.3,2.7s0.9,2.7,2.3,2.7c1.3,0,2.1-1,2.1-2.7S56.7,57.2,55.4,57.2z"
		/>
	<path class="st0" d="M60.3,54.1h0.8v1.3h-0.8V54.1z M60.3,56.7h0.8v6.4h-0.8V56.7z"/>
	<path class="st0" d="M64,63.2h-0.8v-6.4H64l0,1.4c0.4-0.9,1.3-1.5,2.3-1.5c1.4,0,2.4,0.9,2.4,2.3v4.2h-0.8V59
		c0-1.1-0.7-1.8-1.8-1.8c-1.3,0-2.1,1-2.1,2.7V63.2z"/>
	<path class="st0" d="M75.6,63.2v-1.4c-0.4,0.9-1.2,1.4-2.3,1.4c-1.7,0-2.9-1.2-2.9-3.3c0-2.1,1.2-3.3,2.9-3.3c1,0,1.8,0.5,2.3,1.4
		l0.1-1.4h0.7v6.5c0,1.7-1.2,2.8-2.9,2.8c-1.6,0-2.8-0.8-2.8-2.1h0.7c0,0.9,0.9,1.6,2.1,1.6C74.8,65.4,75.6,64.6,75.6,63.2z
		 M73.5,57.2c-1.4,0-2.3,1-2.3,2.7s0.9,2.7,2.3,2.7c1.3,0,2.1-1,2.1-2.7S74.8,57.2,73.5,57.2z"/>
	<path class="st0" d="M78.3,56.7h0.9v1.2h-0.9V56.7z M78.3,61.9h0.9v1.2h-0.9V61.9z"/>
	<path class="st0" d="M85.1,60.3c0,1.1,0.7,1.7,1.8,1.7s1.7-0.5,1.7-1.4c0-2.3-5-0.6-5-4c0-1.7,1.4-2.6,3.3-2.6c2,0,3.3,1.1,3.3,2.7
		h-1.7c0-0.9-0.6-1.5-1.5-1.5c-1,0-1.6,0.6-1.6,1.4c0,2.2,5.1,0.5,5.1,4c0,1.7-1.5,2.6-3.5,2.6c-2.2,0-3.5-1.1-3.5-2.9H85.1z"/>
	<path class="st0" d="M93.2,59.9c0,1.4,0.6,2.2,1.5,2.2c0.7,0,1.1-0.5,1.1-1.3h1.7c0,1.5-1.2,2.4-2.8,2.4c-1.9,0-3.3-1.2-3.3-3.3
		c0-2.1,1.3-3.3,3.3-3.3c1.6,0,2.8,0.9,2.8,2.4h-1.7c0-0.8-0.5-1.3-1.1-1.3C93.8,57.7,93.2,58.5,93.2,59.9z"/>
	<path class="st0" d="M100.5,63.2h-1.7v-9.3h1.7v3.7c0.4-0.6,1.1-0.9,1.8-0.9c1.4,0,2.4,0.9,2.4,2.3v4.2H103V59
		c0-0.8-0.4-1.2-1.1-1.2c-0.9,0-1.4,0.8-1.4,2.2V63.2z"/>
	<path class="st0" d="M112,60.4h-4.4c0,1.1,0.6,1.8,1.5,1.8c0.7,0,1.2-0.4,1.2-1.1h1.7c0,1.3-1.2,2.2-2.9,2.2
		c-1.9,0-3.3-1.2-3.3-3.3c0-2.1,1.3-3.3,3.3-3.3C110.9,56.7,112.2,57.9,112,60.4z M107.7,59.4h2.7c0-1.1-0.5-1.7-1.2-1.7
		C108.3,57.7,107.7,58.3,107.7,59.4z"/>
	<path class="st0" d="M119.4,63.2h-1.6l-0.1-0.9c-0.4,0.6-1,1-1.8,1c-1.7,0-2.8-1.2-2.8-3.3c0-2.1,1.1-3.3,2.8-3.3
		c0.8,0,1.4,0.3,1.8,0.8v-3.7h1.7V63.2z M116.3,57.7c-0.9,0-1.5,0.8-1.5,2.2s0.6,2.2,1.5,2.2c0.9,0,1.4-0.8,1.4-2.2
		S117.1,57.7,116.3,57.7z"/>
	<path class="st0" d="M125.1,56.7h1.7v6.4h-1.6l-0.1-0.9c-0.4,0.6-1.1,1-1.9,1c-1.4,0-2.3-0.8-2.3-2.2v-4.3h1.7V61
		c0,0.7,0.4,1.1,1.1,1.1c0.9,0,1.4-0.8,1.4-2.2V56.7z"/>
	<path class="st0" d="M128.2,53.8h1.7v7.8c0,0.4,0.2,0.6,0.5,0.6v1.1c-1.6,0-2.2-0.4-2.2-1.5V53.8z"/>
	<path class="st0" d="M131.7,54.1h1.7v1.6h-1.7V54.1z M131.7,56.7h1.7v6.4h-1.7V56.7z"/>
	<path class="st0" d="M136.6,63.2h-1.7v-6.4h1.6l0.1,0.9c0.4-0.6,1.1-1,1.8-1c1.4,0,2.4,0.9,2.4,2.3v4.2h-1.7V59
		c0-0.8-0.4-1.2-1.1-1.2c-0.9,0-1.4,0.8-1.4,2.2V63.2z"/>
	<path class="st0" d="M146.6,63.3v-0.9c-0.4,0.5-1,0.8-1.8,0.8c-1.7,0-2.8-1.2-2.8-3.3c0-2.1,1.1-3.3,2.8-3.3c0.8,0,1.4,0.3,1.8,0.9
		l0.1-0.8h1.6v6.6c0,1.7-1.3,2.7-3.1,2.7c-1.7,0-3-0.8-3-2.2h1.6c0,0.7,0.5,1.2,1.3,1.2C146.1,64.9,146.6,64.3,146.6,63.3z
		 M145.2,57.7c-0.9,0-1.5,0.8-1.5,2.2s0.6,2.2,1.5,2.2c0.9,0,1.4-0.8,1.4-2.2S146.1,57.7,145.2,57.7z"/>
	<path class="st0" d="M158.9,56.4l-1.8,6.8h-2.1l-2.6-9h1.9l1.8,7.3l1.9-7.3h1.8l1.9,7.3l1.8-7.3h1.9l-2.6,9h-2L158.9,56.4z"/>
	<path class="st0" d="M168.3,56.7c1.9,0,3.3,1.2,3.3,3.3c0,2.1-1.3,3.3-3.3,3.3c-1.9,0-3.3-1.2-3.3-3.3
		C165,57.9,166.3,56.7,168.3,56.7z M168.3,62.2c0.9,0,1.5-0.8,1.5-2.2s-0.6-2.2-1.5-2.2c-0.9,0-1.5,0.8-1.5,2.2
		S167.3,62.2,168.3,62.2z"/>
	<path class="st0" d="M174.5,63.2h-1.7v-6.4h1.5l0.2,1.1c0.4-0.8,1.2-1.1,2-1.1v1.2c-1.1,0-2,1-2,2.5V63.2z"/>
	<path class="st0" d="M177.7,53.8h1.7v7.8c0,0.4,0.2,0.6,0.5,0.6v1.1c-1.6,0-2.2-0.4-2.2-1.5V53.8z"/>
	<path class="st0" d="M187.2,63.2h-1.6l-0.1-0.9c-0.4,0.6-1,1-1.8,1c-1.7,0-2.8-1.2-2.8-3.3c0-2.1,1.1-3.3,2.8-3.3
		c0.8,0,1.4,0.3,1.8,0.8v-3.7h1.7V63.2z M184,57.7c-0.9,0-1.5,0.8-1.5,2.2s0.6,2.2,1.5,2.2c0.9,0,1.4-0.8,1.4-2.2
		S184.9,57.7,184,57.7z"/>
	<path class="st0" d="M193.2,58.8l-1.2,4.3h-1.9l-2-6.4h1.8l1.2,4.9l1.3-4.9h1.7l1.3,4.9l1.2-4.9h1.8l-2,6.4h-1.9L193.2,58.8z"/>
	<path class="st0" d="M199.2,54.1h1.7v1.6h-1.7V54.1z M199.2,56.7h1.7v6.4h-1.7V56.7z"/>
	<path class="st0" d="M208.5,63.2h-1.6l-0.1-0.9c-0.4,0.6-1,1-1.8,1c-1.7,0-2.8-1.2-2.8-3.3c0-2.1,1.1-3.3,2.8-3.3
		c0.8,0,1.4,0.3,1.8,0.8v-3.7h1.7V63.2z M205.4,57.7c-0.9,0-1.5,0.8-1.5,2.2s0.6,2.2,1.5,2.2c0.9,0,1.4-0.8,1.4-2.2
		S206.2,57.7,205.4,57.7z"/>
	<path class="st0" d="M215.8,60.4h-4.4c0,1.1,0.6,1.8,1.5,1.8c0.7,0,1.2-0.4,1.2-1.1h1.7c0,1.3-1.2,2.2-2.9,2.2
		c-1.9,0-3.3-1.2-3.3-3.3c0-2.1,1.3-3.3,3.3-3.3C214.7,56.7,216,57.9,215.8,60.4z M211.4,59.4h2.7c0-1.1-0.5-1.7-1.2-1.7
		C212.1,57.7,211.4,58.3,211.4,59.4z"/>
	<path class="st0" d="M216.7,54.1h3.8v0.7h-1.4v3.8H218v-3.8h-1.4V54.1z M221,54.1h1.7l1,3.3l1.1-3.3h1.7v4.5h-1v-3.4l-1.2,3.4h-1.1
		l-1.1-3.4v3.4h-1V54.1z"/>
	<path class="st0" d="M0,69.3h0.8v4.3C1.2,72.7,2,72.2,3,72.2c1.7,0,2.9,1.2,2.9,3.3c0,2.1-1.2,3.3-2.9,3.3c-1,0-1.8-0.5-2.3-1.4
		l0,1.4H0V69.3z M2.9,78.1c1.4,0,2.3-1,2.3-2.7s-0.9-2.7-2.3-2.7c-1.3,0-2.1,1-2.1,2.7S1.6,78.1,2.9,78.1z"/>
	<path class="st0" d="M13.2,75.6h-5c0,1.6,0.9,2.5,2.3,2.5c1.1,0,1.9-0.6,1.9-1.5h0.7c0,1.2-1.1,2-2.6,2c-1.8,0-3.1-1.2-3.1-3.3
		c0-2.1,1.2-3.3,3.1-3.3C12.1,72.2,13.3,73.3,13.2,75.6z M8.3,75.1h4.2c0-1.5-0.8-2.4-1.9-2.4C9.2,72.7,8.3,73.6,8.3,75.1z"/>
	<path class="st0" d="M15.6,75.4c0,1.7,0.9,2.7,2.3,2.7c1,0,1.8-0.6,1.8-1.6h0.8c0,1.3-1.1,2.1-2.5,2.1c-1.8,0-3.1-1.2-3.1-3.3
		c0-2.1,1.3-3.3,3.1-3.3c1.4,0,2.5,0.8,2.5,2.1h-0.8c0-0.9-0.7-1.6-1.8-1.6C16.5,72.7,15.6,73.7,15.6,75.4z"/>
	<path class="st0" d="M25.1,72.2c1.8,0,3.1,1.2,3.1,3.3c0,2.1-1.3,3.3-3.1,3.3c-1.8,0-3.1-1.2-3.1-3.3C22,73.4,23.3,72.2,25.1,72.2z
		 M25.1,78.1c1.4,0,2.3-1,2.3-2.7s-0.9-2.7-2.3-2.7c-1.4,0-2.3,1-2.3,2.7S23.7,78.1,25.1,78.1z"/>
	<path class="st0" d="M30.7,78.6H30v-6.4h0.7l0,1.4c0.4-1,1.1-1.5,1.9-1.5c0.9,0,1.7,0.6,1.9,1.5c0.4-1,1.2-1.5,2.1-1.5
		c1.2,0,2.1,0.9,2.1,2.3v4.2H38v-4.2c0-1.1-0.6-1.8-1.5-1.8c-1,0-1.8,1-1.8,2.7v3.2H34v-4.2c0-1.1-0.6-1.8-1.5-1.8
		c-1,0-1.8,1-1.8,2.7V78.6z"/>
	<path class="st0" d="M46.3,75.6h-5c0,1.6,0.9,2.5,2.3,2.5c1.1,0,1.9-0.6,1.9-1.5h0.7c0,1.2-1.1,2-2.6,2c-1.8,0-3.1-1.2-3.1-3.3
		c0-2.1,1.2-3.3,3.1-3.3C45.2,72.2,46.4,73.3,46.3,75.6z M41.4,75.1h4.2c0-1.5-0.8-2.4-1.9-2.4C42.3,72.7,41.4,73.6,41.4,75.1z"/>
	<path class="st0" d="M48.7,76.6c0,0.9,0.8,1.5,1.8,1.5c1,0,1.7-0.5,1.7-1.2c0-1.9-4.1-0.6-4.1-3c0-1.1,1-1.8,2.3-1.8
		c1.3,0,2.3,0.7,2.3,1.9H52c0-0.8-0.7-1.4-1.6-1.4s-1.5,0.5-1.5,1.2c0,1.8,4.1,0.5,4.1,3c0,1.1-1,1.8-2.5,1.8c-1.4,0-2.5-0.8-2.5-2
		H48.7z"/>
	<path class="st0" d="M58.1,77v-4.3H57v-0.5h1.1v-1.4h0.8v1.4h1.8v0.5h-1.8v4.4c0,0.7,0.5,1,1.3,1c0.2,0,0.3,0,0.5-0.1v0.5
		c-0.2,0-0.4,0.1-0.6,0.1C58.8,78.7,58.1,78.1,58.1,77z"/>
	<path class="st0" d="M63.1,78.6h-0.8v-9.3h0.8v4.3c0.4-0.9,1.3-1.4,2.3-1.4c1.4,0,2.4,0.9,2.4,2.3v4.2H67v-4.2
		c0-1.1-0.7-1.8-1.8-1.8c-1.3,0-2.1,1-2.1,2.7V78.6z"/>
	<path class="st0" d="M75.3,75.6h-5c0,1.6,0.9,2.5,2.3,2.5c1.1,0,1.9-0.6,1.9-1.5h0.7c0,1.2-1.1,2-2.6,2c-1.8,0-3.1-1.2-3.1-3.3
		c0-2.1,1.2-3.3,3.1-3.3C74.2,72.2,75.4,73.3,75.3,75.6z M70.3,75.1h4.2c0-1.5-0.8-2.4-1.9-2.4C71.3,72.7,70.3,73.6,70.3,75.1z"/>
	<path class="st0" d="M81,78.6h-0.8v-6.4h0.7l0,1.4c0.4-1,1.1-1.5,1.9-1.5c0.9,0,1.7,0.6,1.9,1.5c0.4-1,1.2-1.5,2.1-1.5
		c1.2,0,2.1,0.9,2.1,2.3v4.2h-0.8v-4.2c0-1.1-0.6-1.8-1.5-1.8c-1,0-1.8,1-1.8,2.7v3.2h-0.8v-4.2c0-1.1-0.6-1.8-1.5-1.8
		c-1,0-1.8,1-1.8,2.7V78.6z"/>
	<path class="st0" d="M95.1,77.2c-0.4,0.9-1.3,1.5-2.4,1.5c-1.1,0-2-0.6-2-1.7c0-1.4,1.4-2.2,3.8-2.2h0.5v-0.6c0-1-0.7-1.6-1.7-1.6
		c-1,0-1.8,0.6-1.8,1.5h-0.8c0-1.2,1.1-2,2.5-2c1.5,0,2.5,0.8,2.5,2.1v4.3h-0.7L95.1,77.2z M94.6,75.3c-2,0-3,0.6-3,1.6
		c0,0.7,0.5,1.2,1.3,1.2c1.3,0,2.2-1,2.2-2.6v-0.2H94.6z"/>
	<path class="st0" d="M98,69.6h0.8v1.3H98V69.6z M98,72.2h0.8v6.4H98V72.2z"/>
	<path class="st0" d="M101.6,78.6h-0.8v-6.4h0.7l0,1.4c0.4-0.9,1.3-1.5,2.3-1.5c1.4,0,2.4,0.9,2.4,2.3v4.2h-0.8v-4.2
		c0-1.1-0.7-1.8-1.8-1.8c-1.3,0-2.1,1-2.1,2.7V78.6z"/>
	<path class="st0" d="M111.3,72.2h0.7l0,1.4c0.4-0.9,1.2-1.5,2.3-1.5c1.7,0,2.9,1.2,2.9,3.3c0,2.1-1.2,3.3-2.9,3.3
		c-1,0-1.8-0.5-2.3-1.4v4.1h-0.8V72.2z M114.2,78.1c1.4,0,2.3-1,2.3-2.7s-0.9-2.7-2.3-2.7c-1.3,0-2.1,1-2.1,2.7S113,78.1,114.2,78.1
		z"/>
	<path class="st0" d="M119.9,78.6h-0.8v-6.4h0.7l0.1,1.5c0.4-1,1.3-1.5,2.3-1.5v0.6c-1.4,0-2.3,1.1-2.3,2.8V78.6z"/>
	<path class="st0" d="M126.5,72.2c1.8,0,3.1,1.2,3.1,3.3c0,2.1-1.3,3.3-3.1,3.3c-1.8,0-3.1-1.2-3.1-3.3
		C123.4,73.4,124.7,72.2,126.5,72.2z M126.5,78.1c1.4,0,2.3-1,2.3-2.7s-0.9-2.7-2.3-2.7c-1.4,0-2.3,1-2.3,2.7S125.1,78.1,126.5,78.1
		z"/>
	<path class="st0" d="M132.1,79.7c0,1.1-0.7,1.7-2,1.7v-0.5c0.7,0,1.2-0.4,1.2-1.1v-7.6h0.8V79.7z M131.3,69.6h0.8v1.3h-0.8V69.6z"
		/>
	<path class="st0" d="M139.7,75.6h-5c0,1.6,0.9,2.5,2.3,2.5c1.1,0,1.9-0.6,1.9-1.5h0.7c0,1.2-1.1,2-2.6,2c-1.8,0-3.1-1.2-3.1-3.3
		c0-2.1,1.2-3.3,3.1-3.3C138.6,72.2,139.7,73.3,139.7,75.6z M134.7,75.1h4.2c0-1.5-0.8-2.4-1.9-2.4
		C135.7,72.7,134.7,73.6,134.7,75.1z"/>
	<path class="st0" d="M142.1,75.4c0,1.7,0.9,2.7,2.3,2.7c1,0,1.8-0.6,1.8-1.6h0.8c0,1.3-1.1,2.1-2.5,2.1c-1.8,0-3.1-1.2-3.1-3.3
		c0-2.1,1.3-3.3,3.1-3.3c1.4,0,2.5,0.8,2.5,2.1h-0.8c0-0.9-0.7-1.6-1.8-1.6C143,72.7,142.1,73.7,142.1,75.4z"/>
	<path class="st0" d="M149.1,77v-4.3H148v-0.5h1.1v-1.4h0.8v1.4h1.8v0.5h-1.8v4.4c0,0.7,0.5,1,1.3,1c0.2,0,0.3,0,0.5-0.1v0.5
		c-0.2,0-0.4,0.1-0.6,0.1C149.8,78.7,149.1,78.1,149.1,77z"/>
	<path class="st0" d="M159.2,69.3v0.5c-0.2,0-0.3-0.1-0.5-0.1c-0.7,0-1.2,0.4-1.2,1v1.4h1.8v0.5h-1.8v5.9h-0.8v-5.9h-1v-0.5h1v-1.3
		c0-1.1,0.7-1.6,2-1.6C158.8,69.3,159,69.3,159.2,69.3z"/>
	<path class="st0" d="M163.3,72.2c1.8,0,3.1,1.2,3.1,3.3c0,2.1-1.3,3.3-3.1,3.3c-1.8,0-3.1-1.2-3.1-3.3
		C160.2,73.4,161.4,72.2,163.3,72.2z M163.3,78.1c1.4,0,2.3-1,2.3-2.7s-0.9-2.7-2.3-2.7c-1.4,0-2.3,1-2.3,2.7S161.9,78.1,163.3,78.1
		z"/>
	<path class="st0" d="M168.9,78.6h-0.8v-6.4h0.7l0.1,1.5c0.4-1,1.3-1.5,2.3-1.5v0.6c-1.4,0-2.3,1.1-2.3,2.8V78.6z"/>
	<path class="st0" d="M180.1,76.8h-4.7v-0.6l4.4-6.6h1v6.6h1v0.6h-1v1.9h-0.7V76.8z M180.1,76.2v-5.8l-3.9,5.8H180.1z"/>
	<path class="st0" d="M183.8,75.9c0,1.3,1.1,2.2,2.5,2.2c1.4,0,2.4-0.7,2.4-1.8c0-2.8-5.5-1-5.5-4.2c0-1.5,1.2-2.5,3-2.5
		c1.7,0,3,1,3,2.6h-0.8c0-1.2-1-2-2.2-2c-1.3,0-2.2,0.7-2.2,1.9c0,2.7,5.5,0.8,5.5,4.2c0,1.6-1.3,2.5-3.2,2.5
		c-1.9,0-3.3-1.1-3.3-2.8H183.8z"/>
	<path class="st0" d="M196.8,75.6h-5c0,1.6,0.9,2.5,2.3,2.5c1.1,0,1.9-0.6,1.9-1.5h0.7c0,1.2-1.1,2-2.6,2c-1.8,0-3.1-1.2-3.1-3.3
		c0-2.1,1.2-3.3,3.1-3.3C195.7,72.2,196.9,73.3,196.8,75.6z M191.9,75.1h4.2c0-1.5-0.8-2.4-1.9-2.4
		C192.9,72.7,191.9,73.6,191.9,75.1z"/>
	<path class="st0" d="M199.5,78.6h-0.8v-6.4h0.7l0.1,1.5c0.4-1,1.3-1.5,2.3-1.5v0.6c-1.4,0-2.3,1.1-2.3,2.8V78.6z"/>
	<path class="st0" d="M206.4,78.6h-0.9l-2.7-6.4h0.8l2.3,5.7l2.3-5.7h0.8L206.4,78.6z"/>
	<path class="st0" d="M210.5,69.6h0.8v1.3h-0.8V69.6z M210.5,72.2h0.8v6.4h-0.8V72.2z"/>
	<path class="st0" d="M213.9,75.4c0,1.7,0.9,2.7,2.3,2.7c1,0,1.8-0.6,1.8-1.6h0.8c0,1.3-1.1,2.1-2.5,2.1c-1.8,0-3.1-1.2-3.1-3.3
		c0-2.1,1.3-3.3,3.1-3.3c1.4,0,2.5,0.8,2.5,2.1h-0.8c0-0.9-0.7-1.6-1.8-1.6C214.8,72.7,213.9,73.7,213.9,75.4z"/>
	<path class="st0" d="M226,75.6h-5c0,1.6,0.9,2.5,2.3,2.5c1.1,0,1.9-0.6,1.9-1.5h0.7c0,1.2-1.1,2-2.6,2c-1.8,0-3.1-1.2-3.1-3.3
		c0-2.1,1.2-3.3,3.1-3.3C224.9,72.2,226.1,73.3,226,75.6z M221.1,75.1h4.2c0-1.5-0.8-2.4-1.9-2.4C222.1,72.7,221.1,73.6,221.1,75.1z
		"/>
</g>
</svg>
