<!-- Generator: Adobe Illustrator 19.0.0, SVG Export Plug-In  -->
<svg version="1.1"
	 xmlns="http://www.w3.org/2000/svg" xmlns:xlink="http://www.w3.org/1999/xlink" xmlns:a="http://ns.adobe.com/AdobeSVGViewerExtensions/3.0/"
	 x="0px" y="0px" width="65.8px" height="23.8px" viewBox="0 0 65.8 23.8"
	 style="overflow:scroll;enable-background:new 0 0 65.8 23.8;" xml:space="preserve">
<style type="text/css">
	.st0{fill:#414042;}
</style>
<defs>
</defs>
<g>
	<g>
		<path class="st0" d="M58.7,0.3c0,0,0,0.1-0.1,0.4l-0.6,1h0L58,0.3c0-0.1,0-0.2,0.1-0.2C58.2,0,58.2,0,58.3,0c0.1,0,0.2,0,0.2,0.1
			C58.6,0.1,58.7,0.2,58.7,0.3z"/>
		<path class="st0" d="M61,5.9h-0.4V1l-0.8,0.6l-0.2-0.3l1.2-0.8H61V5.9z"/>
		<path class="st0" d="M65.8,4.1c0,0.6-0.2,1-0.5,1.4C65,5.8,64.6,6,64,6c-0.4,0-0.7-0.1-0.9-0.3c-0.3-0.2-0.5-0.5-0.6-0.8l0.4-0.1
			c0.1,0.3,0.2,0.5,0.5,0.6c0.2,0.1,0.4,0.2,0.7,0.2c0.4,0,0.8-0.1,1-0.4c0.2-0.3,0.3-0.6,0.3-1.1c0-0.4-0.1-0.8-0.3-1.1
			c-0.2-0.3-0.6-0.4-1-0.4c-0.4,0-0.8,0.1-1.1,0.4h-0.4V0.4h2.8v0.4H63v1.8c0.3-0.3,0.6-0.4,1-0.4c0.6,0,1,0.2,1.3,0.5
			C65.6,3.1,65.8,3.6,65.8,4.1z"/>
	</g>
	<g>
		<g>
			<path class="st0" d="M4.9,21.1c-1.7,0-2.4-1.3-2.4-2.8c0-1.5,0.8-2.8,2.4-2.8c0.8,0,1.3,0.3,1.8,0.8l-0.4,0.4
				c-0.4-0.5-0.8-0.7-1.4-0.7C3.5,15.9,3,17,3,18.2c0,1.2,0.4,2.3,1.9,2.3c0.6,0,1-0.2,1.4-0.7l0.4,0.4C6.1,20.8,5.7,21.1,4.9,21.1z
				"/>
			<path class="st0" d="M9.2,21.1c-1.8,0-2.3-1.3-2.3-2.8c0-1.5,0.5-2.8,2.3-2.8c1.8,0,2.3,1.3,2.3,2.8C11.5,19.8,11,21.1,9.2,21.1z
				 M9.2,16c-1.5,0-1.7,1.1-1.7,2.3c0,1.2,0.3,2.3,1.7,2.3c1.4,0,1.7-1.1,1.7-2.3C10.9,17,10.6,16,9.2,16z"/>
			<path class="st0" d="M15.3,16.2C15.1,16,14.8,16,14.5,16c-0.8,0-1.5,0.6-1.5,1.3V21h-0.5v-5.5H13v0.6c0.4-0.5,1-0.7,1.5-0.7
				c0.4,0,0.7,0.1,1,0.2L15.3,16.2z"/>
			<path class="st0" d="M18,21c-0.6,0-1.2-0.2-1.5-0.6v2.9h-0.5v-7.8h0.5v0.6c0.4-0.5,1-0.7,1.5-0.7c1.7,0,2.2,1.3,2.2,2.8
				C20.2,19.7,19.8,21,18,21z M18,15.9c-0.8,0-1.5,0.5-1.5,1.4v1.7c0,0.9,0.7,1.4,1.5,1.4c1.4,0,1.6-1.1,1.6-2.3
				C19.7,17.1,19.4,15.9,18,15.9z"/>
			<path class="st0" d="M23.2,21.1c-1.8,0-2.3-1.3-2.3-2.8c0-1.5,0.5-2.8,2.3-2.8s2.3,1.3,2.3,2.8C25.4,19.8,24.9,21.1,23.2,21.1z
				 M23.2,16c-1.5,0-1.7,1.1-1.7,2.3c0,1.2,0.3,2.3,1.7,2.3c1.4,0,1.7-1.1,1.7-2.3C24.9,17,24.6,16,23.2,16z"/>
			<path class="st0" d="M29.1,16.2C28.8,16,28.5,16,28.3,16c-0.8,0-1.5,0.6-1.5,1.3V21h-0.5v-5.5h0.5v0.6c0.4-0.5,1-0.7,1.5-0.7
				c0.4,0,0.7,0.1,1,0.2L29.1,16.2z"/>
			<path class="st0" d="M33,21.1l-0.2-0.5c-0.5,0.4-0.9,0.6-1.6,0.6c-1.1,0-1.9-0.5-1.9-1.7c0-1.1,0.9-1.6,1.8-1.6h0.8
				c0.3,0,0.7,0,0.9-0.3V17c0-0.6-0.7-1-1.3-1c-0.6,0-1.3,0.3-1.5,0.9l-0.5-0.2c0.3-0.9,1.1-1.3,2-1.3c0.9,0,1.8,0.6,1.8,1.6v3.4
				l0.2,0.5L33,21.1z M32.7,18.2c-0.3,0.2-0.5,0.2-0.8,0.2H31c-0.7,0-1.3,0.3-1.3,1.1c0,0.8,0.7,1.1,1.4,1.1c0.7,0,1.1-0.2,1.6-0.7
				V18.2z"/>
			<path class="st0" d="M35.3,15.9v3.8c0,0.6,0.2,0.7,0.8,0.7V21h-0.2c-0.8,0-1.1-0.6-1.1-1.3v-3.8H34v-0.4h0.8v-1.7h0.5v1.7h0.9
				v0.4H35.3z"/>
			<path class="st0" d="M41.1,18.4h-3.9c0,1.3,0.5,2.1,1.9,2.1c0.6,0,1.1-0.2,1.4-0.6l0.4,0.3c-0.4,0.6-1,0.8-1.8,0.8
				c-1.8,0-2.4-1.2-2.4-2.8c0-1.5,0.6-2.8,2.3-2.8c1.5,0,2.1,1.1,2.1,2.5V18.4z M39,16c-1.2,0-1.7,0.8-1.7,1.9h3.3
				C40.5,16.8,40.1,16,39,16z"/>
		</g>
		<g>
			<path class="st0" d="M45.2,0.4h-1.6l-4.4,10.1h2.3c0,0,1.2-3,1.3-3.1c0.2,0,3.1,0,3.3,0c0.1,0.2,1.3,3.1,1.3,3.1h2.3L45.2,0.4
				L45.2,0.4z M44.4,3.1c0.2,0.5,0.9,2.3,1,2.6c-0.3,0-1.7,0-2,0C43.5,5.4,44.2,3.6,44.4,3.1z"/>
			<g>
				<g>
					<path class="st0" d="M38.6,0.4h-2.7c0,0-2.3,6.1-2.6,6.7c-0.2-0.6-2.5-6.7-2.5-6.7h-2.9v10.1h2c0,0,0-6.4,0-7.6
						c0.4,1.1,2.8,7.6,2.8,7.6h1.4c0,0,2.4-6.5,2.8-7.6c0,1.2,0,7.6,0,7.6h1.9V0.4H38.6z"/>
				</g>
			</g>
			<path class="st0" d="M16.2,5.5c0,3,2.4,5.4,5.3,5.4c2.9,0,5.3-2.4,5.3-5.4c0-3-2.4-5.4-5.3-5.4C18.6,0.1,16.2,2.5,16.2,5.5z
				 M18.2,5.5c0-1.9,1.5-3.4,3.3-3.4c1.8,0,3.3,1.5,3.3,3.4c0,1.9-1.5,3.4-3.3,3.4C19.7,8.9,18.2,7.4,18.2,5.5z"/>
			<g>
				<g>
					<path class="st0" d="M8.7,3.4c0,2.1,1.6,2.6,2.9,3c1,0.3,1.8,0.6,1.8,1.4c0,0.8-0.8,1.2-1.6,1.2c-0.8,0-1.4-0.4-1.8-1L9.9,7.9
						L8.4,9.4l0.1,0.1c1,1.1,2.3,1.4,3.3,1.4c2.3,0,3.7-1.3,3.7-3.3c0-2.1-1.6-2.6-2.9-3.1c-1.1-0.4-1.7-0.6-1.7-1.3
						c0-0.8,0.8-1.1,1.5-1.1c0.7,0,1.3,0.3,1.6,0.7L14,3l1.5-1.6l-0.1-0.1c-0.9-0.9-2.1-1.1-2.9-1.1C10.6,0.2,8.7,1.2,8.7,3.4z"/>
				</g>
			</g>
			<g>
				<g>
					<path class="st0" d="M8.7,3.4c0,2.1,1.6,2.6,2.9,3c1,0.3,1.8,0.6,1.8,1.4c0,0.8-0.8,1.2-1.6,1.2c-0.8,0-1.4-0.4-1.8-1L9.9,7.9
						L8.4,9.4l0.1,0.1c1,1.1,2.3,1.4,3.3,1.4c2.3,0,3.7-1.3,3.7-3.3c0-2.1-1.6-2.6-2.9-3.1c-1.1-0.4-1.7-0.6-1.7-1.3
						c0-0.8,0.8-1.1,1.5-1.1c0.7,0,1.3,0.3,1.6,0.7L14,3l1.5-1.6l-0.1-0.1c-0.9-0.9-2.1-1.1-2.9-1.1C10.6,0.2,8.7,1.2,8.7,3.4z"/>
				</g>
			</g>
			<g>
				<g>
					<path class="st0" d="M7.3,0.4H0v10.1h7.7V8.7c0,0-5.4,0-5.6,0c0-0.2,0-2.2,0-2.4c0.3,0,5,0,5,0V4.5c0,0-4.8,0-5,0
						c0-0.2,0-1.9,0-2.1c0.3,0,5.4,0,5.4,0V0.4H7.3z"/>
				</g>
			</g>
			<g>
				<g>
					<path class="st0" d="M7.3,0.4H0v10.1h7.7V8.7c0,0-5.4,0-5.6,0c0-0.2,0-2.2,0-2.4c0.3,0,5,0,5,0V4.5c0,0-4.8,0-5,0
						c0-0.2,0-1.9,0-2.1c0.3,0,5.4,0,5.4,0V0.4H7.3z"/>
				</g>
			</g>
			<path class="st0" d="M50.5,0.4h-0.1v10.1h2c0,0,0-3,0-3.2c0.2,0,1.1,0,1.2,0c0.1,0.1,2.1,3.3,2.1,3.3h2.5c0,0-2.3-3.2-2.5-3.5
				c1.4-0.5,2.1-2,2.1-3.2c0-2.1-2-3.4-3.8-3.4H50.5z M53.8,2.2c0.7,0,1.9,0.2,1.9,1.6c0,1.2-0.6,1.7-2,1.7c0,0-1,0-1.2,0
				c0-0.2,0-3.1,0-3.3C52.6,2.2,53.8,2.2,53.8,2.2z"/>
		</g>
		<g>
			<polygon class="st0" points="0,23.8 0,13 0.3,13 0.3,23.5 41.1,23.5 41.1,23.8 0,23.8 			"/>
		</g>
	</g>
</g>
</svg>
