<!-- Generator: Adobe Illustrator 19.0.0, SVG Export Plug-In  -->
<svg version="1.1"
	 xmlns="http://www.w3.org/2000/svg" xmlns:xlink="http://www.w3.org/1999/xlink" xmlns:a="http://ns.adobe.com/AdobeSVGViewerExtensions/3.0/"
	 x="0px" y="0px" width="267.3px" height="133.2px" viewBox="0 0 267.3 133.2"
	 style="overflow:scroll;enable-background:new 0 0 267.3 133.2;" xml:space="preserve">
<style type="text/css">
	.st0{fill:#414042;}
</style>
<defs>
</defs>
<g>
	<path class="st0" d="M14.1,131c-0.5,0-1-0.1-1.3-0.3l-8.3-4.8c-0.8-0.4-1.3-1.4-1.3-2.3v-9.6c0-0.9,0.6-1.9,1.3-2.3l8.3-4.8
		c0.8-0.4,1.9-0.4,2.7,0l8.3,4.8c0.8,0.4,1.3,1.4,1.3,2.3v6.8c0,0.4-0.3,0.8-0.8,0.8c-0.4,0-0.8-0.3-0.8-0.8v-6.8
		c0-0.3-0.3-0.8-0.6-1l-8.3-4.8c-0.3-0.2-0.8-0.2-1.1,0l-8.3,4.8c-0.3,0.2-0.6,0.6-0.6,1v9.6c0,0.3,0.3,0.8,0.6,1l8.3,4.8
		c0.3,0.2,0.8,0.2,1.1,0l7.8-4.5c0.4-0.2,0.8-0.1,1.1,0.3c0.2,0.4,0.1,0.8-0.3,1.1l-7.8,4.5C15,130.9,14.5,131,14.1,131z"/>
</g>
<g>
	<g>
		<g>
			<g>
				<path class="st0" d="M14,69c-0.2,0-0.5,0-0.7-0.1c-2.2-0.3-3.9-2-4.4-4.1c-0.1-0.4,0.2-0.7,0.5-0.8c0.4-0.1,0.7,0.2,0.8,0.6
					c0.3,1.6,1.6,2.8,3.2,3c1,0.1,2-0.1,2.8-0.7c0.8-0.6,1.3-1.5,1.5-2.5c0.3-2.1-1.2-4-3.2-4.3c-1.6-0.2-3.1,0.6-3.9,2
					c-0.2,0.3-0.6,0.5-0.9,0.3c-0.3-0.2-0.5-0.6-0.3-0.9c1-1.9,3.2-3,5.3-2.7c2.8,0.4,4.8,3,4.4,5.9c-0.2,1.4-0.9,2.6-2,3.4
					C16.2,68.7,15.1,69,14,69z"/>
			</g>
		</g>
		<g>
			<path class="st0" d="M14,81.3c-0.2,0-0.5-0.1-0.6-0.3c-0.3-0.5-8-12.6-8-17.2c0-4.8,3.9-8.6,8.6-8.6c4,0,7.5,2.8,8.4,6.7
				c0.1,0.6,0.2,1.3,0.2,2c0,0.4-0.1,0.9-0.2,1.4c-0.3,1.5-1.1,3.4-2.3,5.9c-2.3,4.8-5.5,9.8-5.6,9.8C14.5,81.2,14.2,81.3,14,81.3z
				 M14,56.6c-4,0-7.2,3.2-7.2,7.2c0,3.2,4.8,11.5,7.2,15.5c1-1.7,3.2-5.3,4.9-8.8c1.1-2.4,1.9-4.2,2.2-5.6c0.1-0.4,0.1-0.8,0.1-1.1
				c0-0.6-0.1-1.1-0.2-1.6C20.3,58.9,17.4,56.6,14,56.6z"/>
		</g>
	</g>
	<g>
		<path class="st0" d="M14.1,84.4c-5.1,0-9-1.8-9-4.2c0-1.2,0.9-2.2,2.6-3c0.4-0.2,0.8,0,0.9,0.3c0.2,0.4,0,0.8-0.3,0.9
			c-1.1,0.5-1.8,1.2-1.8,1.8c0,1.3,3.3,2.8,7.6,2.8c4.4,0,7.6-1.5,7.6-2.8c0-0.7-0.8-1.4-2.3-2c-0.4-0.1-0.5-0.5-0.4-0.9
			c0.1-0.4,0.5-0.5,0.9-0.4c2,0.8,3.1,1.9,3.1,3.3C23,82.6,19.2,84.4,14.1,84.4z"/>
	</g>
</g>
<g>
	<g>
		<path class="st0" d="M16.3,29.2c6.5,0,11.8-5.3,11.8-11.8c0-6.5-5.3-11.8-11.8-11.8c-1.4,0-2.8,0.2-4.1,0.7
			c-0.4,0.1-0.6,0.6-0.4,1c0.1,0.4,0.6,0.6,1,0.4c1.1-0.4,2.4-0.6,3.6-0.6c5.7,0,10.3,4.6,10.3,10.3c0,5.7-4.6,10.3-10.3,10.3
			C10.6,27.8,6,23.1,6,17.5c0-1.2,0.2-2.3,0.6-3.4c0.1-0.4-0.1-0.8-0.5-0.9c-0.4-0.1-0.8,0.1-0.9,0.5c-0.4,1.3-0.7,2.6-0.7,3.9
			C4.5,24,9.8,29.2,16.3,29.2z"/>
	</g>
	<g>
		<path class="st0" d="M16.3,25.9c4.6,0,8.4-3.8,8.4-8.4c0-4.6-3.8-8.4-8.4-8.4c-1.3,0-2.6,0.3-3.7,0.9c-0.4,0.2-0.5,0.6-0.3,1
			c0.2,0.4,0.6,0.5,1,0.3c1-0.5,2-0.7,3.1-0.7c3.8,0,6.9,3.1,6.9,6.9c0,3.8-3.1,6.9-6.9,6.9s-6.9-3.1-6.9-6.9c0-1.4,0.4-2.8,1.2-3.9
			c0.2-0.3,0.5-0.7,0.8-1c0.3-0.3,0.3-0.8,0-1c-0.3-0.3-0.8-0.3-1.1,0c-0.4,0.4-0.7,0.7-1,1.2c-1,1.4-1.5,3.1-1.5,4.8
			C7.9,22.1,11.7,25.9,16.3,25.9z"/>
	</g>
	<g>
		<path class="st0" d="M16.3,21.9c2.5,0,4.5-2,4.5-4.5c0-2.5-2-4.5-4.5-4.5c-0.4,0-0.7,0.3-0.7,0.7c0,0.4,0.3,0.7,0.7,0.7
			c1.7,0,3,1.3,3,3c0,1.7-1.3,3-3,3c-1.7,0-3-1.3-3-3c0-0.8,0.3-1.6,0.9-2.1c0.3-0.3,0.3-0.8,0-1.1c-0.3-0.3-0.8-0.3-1.1,0
			c-0.8,0.8-1.3,2-1.3,3.2C11.8,19.9,13.8,21.9,16.3,21.9z"/>
	</g>
	<g>
		<path class="st0" d="M16.3,18.2c0.2,0,0.4-0.1,0.5-0.2c0.3-0.3,0.3-0.8,0-1L5.1,5.2c-0.3-0.3-0.8-0.3-1,0c-0.3,0.3-0.3,0.8,0,1
			L15.8,18C15.9,18.1,16.1,18.2,16.3,18.2z"/>
	</g>
	<g>
		<path class="st0" d="M9.7,11.6c0.1,0,0.2,0,0.2,0c0.3-0.1,0.5-0.3,0.5-0.6l0.5-3.5c0-0.2,0-0.4-0.1-0.5L5.7,0.3C5.5,0.1,5.3,0,5,0
			c0,0,0,0,0,0C4.6,0,4.2,0.3,4.2,0.7L3.8,5.4C3.8,5.7,3.9,5.9,4,6l5.1,5.3C9.3,11.5,9.5,11.6,9.7,11.6z M9.4,7.5L9.1,9.2l-3.8-4
			l0.2-2.7L9.4,7.5z"/>
	</g>
	<g>
		<path class="st0" d="M6.7,12.5c0.1,0,0.1,0,0.2,0l2.9-0.9c0.2-0.1,0.4-0.3,0.5-0.5c0.1-0.3,0-0.5-0.2-0.7L5.1,5
			C4.9,4.8,4.6,4.7,4.3,4.8L0.5,6.3C0.2,6.4,0,6.7,0,6.9c0,0.3,0.1,0.5,0.3,0.7l6,4.7C6.4,12.4,6.6,12.5,6.7,12.5z M8.3,10.5
			l-1.4,0.4L2.2,7.2l2.2-0.9L8.3,10.5z"/>
	</g>
</g>
<g>
	<path class="st0" d="M40.7,5c1.5,0,2-0.3,2-1.1h1.5v9h-1.8v-7h-1.7V5z"/>
	<path class="st0" d="M52.4,3.8c2.1,0,3.6,1.7,3.6,4.6c0,2.9-1.5,4.6-3.6,4.6s-3.6-1.7-3.6-4.6C48.7,5.5,50.2,3.8,52.4,3.8z
		 M52.4,11.8c1.1,0,1.9-1.2,1.9-3.4S53.5,5,52.4,5s-1.9,1.2-1.9,3.4S51.2,11.8,52.4,11.8z"/>
	<path class="st0" d="M60.6,3.8c2.1,0,3.6,1.7,3.6,4.6c0,2.9-1.5,4.6-3.6,4.6S57,11.3,57,8.4C57,5.5,58.5,3.8,60.6,3.8z M60.6,11.8
		c1.1,0,1.9-1.2,1.9-3.4S61.7,5,60.6,5s-1.9,1.2-1.9,3.4S59.5,11.8,60.6,11.8z"/>
	<path class="st0" d="M68.9,3.8c2.1,0,3.6,1.7,3.6,4.6c0,2.9-1.5,4.6-3.6,4.6s-3.6-1.7-3.6-4.6C65.2,5.5,66.7,3.8,68.9,3.8z
		 M68.9,11.8c1.1,0,1.9-1.2,1.9-3.4S70,5,68.9,5S67,6.2,67,8.4S67.7,11.8,68.9,11.8z"/>
	<path class="st0" d="M80.3,3.8c2.1,0,3.6,1.7,3.6,4.6c0,2.9-1.5,4.6-3.6,4.6s-3.6-1.7-3.6-4.6C76.7,5.5,78.2,3.8,80.3,3.8z
		 M80.3,11.8c1.1,0,1.9-1.2,1.9-3.4S81.5,5,80.3,5s-1.9,1.2-1.9,3.4S79.2,11.8,80.3,11.8z"/>
	<path class="st0" d="M88.6,3.8c2.1,0,3.6,1.7,3.6,4.6c0,2.9-1.5,4.6-3.6,4.6s-3.6-1.7-3.6-4.6C84.9,5.5,86.4,3.8,88.6,3.8z
		 M88.6,11.8c1.1,0,1.9-1.2,1.9-3.4S89.7,5,88.6,5s-1.9,1.2-1.9,3.4S87.4,11.8,88.6,11.8z"/>
	<path class="st0" d="M96.8,3.8c2.1,0,3.6,1.7,3.6,4.6c0,2.9-1.5,4.6-3.6,4.6s-3.6-1.7-3.6-4.6C93.2,5.5,94.7,3.8,96.8,3.8z
		 M96.8,11.8c1.1,0,1.9-1.2,1.9-3.4S98,5,96.8,5S95,6.2,95,8.4S95.7,11.8,96.8,11.8z"/>
	<path class="st0" d="M102.1,11V7.5h-0.9V6.5h0.9V5.1h1.7v1.4h1.4v1.1h-1.4v3.6c0,0.5,0.4,0.8,0.9,0.8c0.2,0,0.4,0,0.5-0.1v1.1
		c-0.2,0-0.5,0.1-0.7,0.1C102.8,13,102.1,12.3,102.1,11z"/>
	<path class="st0" d="M108.2,12.9h-1.7V3.6h1.7v3.7c0.4-0.6,1.1-0.9,1.8-0.9c1.4,0,2.4,0.9,2.4,2.3v4.2h-1.7V8.7
		c0-0.8-0.4-1.2-1.1-1.2c-0.9,0-1.4,0.8-1.4,2.2V12.9z"/>
	<path class="st0" d="M41.4,19.3h1.2l3.4,8.1l3.4-8.1h1.2v9h-0.8v-8l-3.4,8h-0.8l-3.4-8v8h-0.8V19.3z"/>
	<path class="st0" d="M53,25.6c0,1.3,1.1,2.2,2.5,2.2c1.4,0,2.4-0.7,2.4-1.8c0-2.8-5.5-1-5.5-4.2c0-1.5,1.2-2.5,3-2.5s3,1,3,2.6
		h-0.8c0-1.2-1-2-2.2-2c-1.3,0-2.2,0.7-2.2,1.9c0,2.7,5.5,0.8,5.5,4.2c0,1.6-1.3,2.5-3.2,2.5c-1.9,0-3.3-1.1-3.3-2.8H53z"/>
	<path class="st0" d="M66.4,28.4h-0.9l-2.7-6.4h0.8l2.3,5.7l2.3-5.7h0.8L66.4,28.4z"/>
	<path class="st0" d="M70.5,19.3h0.8v1.3h-0.8V19.3z M70.5,21.9h0.8v6.4h-0.8V21.9z"/>
	<path class="st0" d="M73.8,26.4c0,0.9,0.8,1.5,1.8,1.5c1,0,1.7-0.5,1.7-1.2c0-1.9-4.1-0.6-4.1-3c0-1.1,1-1.8,2.3-1.8
		c1.3,0,2.3,0.7,2.3,1.9h-0.7c0-0.8-0.7-1.4-1.6-1.4s-1.5,0.5-1.5,1.2c0,1.8,4.1,0.5,4.1,3c0,1.1-1,1.8-2.5,1.8
		c-1.4,0-2.5-0.8-2.5-2H73.8z"/>
	<path class="st0" d="M79.8,19.3h0.8v1.3h-0.8V19.3z M79.8,21.9h0.8v6.4h-0.8V21.9z"/>
	<path class="st0" d="M83.1,26.8v-4.3H82v-0.5h1.1v-1.4h0.8v1.4h1.8v0.5h-1.8v4.4c0,0.7,0.5,1,1.3,1c0.2,0,0.3,0,0.5-0.1v0.5
		c-0.2,0-0.4,0.1-0.6,0.1C83.8,28.4,83.1,27.9,83.1,26.8z"/>
	<path class="st0" d="M91.1,28.4h-0.8v-6.4h0.7l0.1,1.5c0.4-1,1.3-1.5,2.3-1.5v0.6c-1.4,0-2.3,1.1-2.3,2.8V28.4z"/>
	<path class="st0" d="M100.4,25.3h-5c0,1.6,0.9,2.5,2.3,2.5c1.1,0,1.9-0.6,1.9-1.5h0.7c0,1.2-1.1,2-2.6,2c-1.8,0-3.1-1.2-3.1-3.3
		c0-2.1,1.2-3.3,3.1-3.3C99.3,21.9,100.5,23,100.4,25.3z M95.4,24.8h4.2c0-1.5-0.8-2.4-1.9-2.4C96.4,22.4,95.4,23.3,95.4,24.8z"/>
	<path class="st0" d="M106.3,26.9c-0.4,0.9-1.3,1.5-2.4,1.5c-1.1,0-2-0.6-2-1.7c0-1.4,1.4-2.2,3.8-2.2h0.5V24c0-1-0.7-1.6-1.7-1.6
		c-1,0-1.8,0.6-1.8,1.5h-0.8c0-1.2,1.1-2,2.5-2c1.5,0,2.5,0.8,2.5,2.1v4.3h-0.7L106.3,26.9z M105.9,25.1c-2,0-3,0.6-3,1.6
		c0,0.7,0.5,1.2,1.3,1.2c1.3,0,2.2-1,2.2-2.6v-0.2H105.9z"/>
	<path class="st0" d="M109.7,25.2c0,1.7,0.9,2.7,2.3,2.7c1,0,1.8-0.6,1.8-1.6h0.8c0,1.3-1.1,2.1-2.5,2.1c-1.8,0-3.1-1.2-3.1-3.3
		c0-2.1,1.3-3.3,3.1-3.3c1.4,0,2.5,0.8,2.5,2.1h-0.8c0-0.9-0.7-1.6-1.8-1.6C110.6,22.4,109.7,23.4,109.7,25.2z"/>
	<path class="st0" d="M117.2,28.4h-0.8V19h0.8v4.3c0.4-0.9,1.3-1.4,2.3-1.4c1.4,0,2.4,0.9,2.4,2.3v4.2h-0.8v-4.2
		c0-1.1-0.7-1.8-1.8-1.8c-1.3,0-2.1,1-2.1,2.7V28.4z"/>
	<path class="st0" d="M129.4,25.3h-5c0,1.6,0.9,2.5,2.3,2.5c1.1,0,1.9-0.6,1.9-1.5h0.7c0,1.2-1.1,2-2.6,2c-1.8,0-3.1-1.2-3.1-3.3
		c0-2.1,1.2-3.3,3.1-3.3C128.3,21.9,129.4,23,129.4,25.3z M124.4,24.8h4.2c0-1.5-0.8-2.4-1.9-2.4C125.4,22.4,124.4,23.3,124.4,24.8z
		"/>
	<path class="st0" d="M136.9,28.4h-0.7l-0.1-1.4c-0.4,0.9-1.2,1.5-2.3,1.5c-1.7,0-2.9-1.2-2.9-3.3c0-2.1,1.2-3.3,2.9-3.3
		c1,0,1.8,0.5,2.3,1.4V19h0.8V28.4z M134,22.4c-1.4,0-2.3,1-2.3,2.7s0.9,2.7,2.3,2.7c1.3,0,2.1-1,2.1-2.7S135.3,22.4,134,22.4z"/>
</g>
<g>
	<path class="st0" d="M41.8,61.9c0,1.7,0.9,2.7,2.3,2.7c1,0,1.8-0.6,1.8-1.6h0.8c0,1.3-1.1,2.1-2.5,2.1c-1.8,0-3.1-1.2-3.1-3.3
		c0-2.1,1.3-3.3,3.1-3.3c1.4,0,2.5,0.8,2.5,2.1h-0.8c0-0.9-0.7-1.6-1.8-1.6C42.7,59.2,41.8,60.2,41.8,61.9z"/>
	<path class="st0" d="M51.3,58.7c1.8,0,3.1,1.2,3.1,3.3c0,2.1-1.3,3.3-3.1,3.3c-1.8,0-3.1-1.2-3.1-3.3
		C48.2,59.9,49.5,58.7,51.3,58.7z M51.3,64.7c1.4,0,2.3-1,2.3-2.7s-0.9-2.7-2.3-2.7c-1.4,0-2.3,1-2.3,2.7S49.9,64.7,51.3,64.7z"/>
	<path class="st0" d="M60.8,58.7h0.8v6.4h-0.7l0-1.4c-0.4,0.9-1.3,1.5-2.3,1.5c-1.4,0-2.4-0.9-2.4-2.3v-4.2h0.8v4.2
		c0,1.1,0.7,1.8,1.8,1.8c1.3,0,2.1-1,2.1-2.7V58.7z"/>
	<path class="st0" d="M64.4,65.2h-0.8v-6.4h0.7l0,1.4c0.4-0.9,1.3-1.5,2.3-1.5c1.4,0,2.4,0.9,2.4,2.3v4.2h-0.8V61
		c0-1.1-0.7-1.8-1.8-1.8c-1.3,0-2.1,1-2.1,2.7V65.2z"/>
	<path class="st0" d="M71.6,63.6v-4.3h-1.1v-0.5h1.1v-1.4h0.8v1.4h1.8v0.5h-1.8v4.4c0,0.7,0.5,1,1.3,1c0.2,0,0.3,0,0.5-0.1v0.5
		c-0.2,0-0.4,0.1-0.6,0.1C72.3,65.2,71.6,64.7,71.6,63.6z"/>
	<path class="st0" d="M76.7,65.2h-0.8v-6.4h0.7l0.1,1.5c0.4-1,1.3-1.5,2.3-1.5v0.6c-1.4,0-2.3,1.1-2.3,2.8V65.2z"/>
	<path class="st0" d="M83.1,66.3c-0.4,1.1-1.4,1.7-2.7,1.7v-0.5c0.8,0,1.6-0.4,1.9-1.1l0.5-1.1h-0.1l-2.6-6.4h0.8l2.3,5.7l2.3-5.7
		h0.8L83.1,66.3z"/>
	<path class="st0" d="M93.4,58.7c1.8,0,3.1,1.2,3.1,3.3c0,2.1-1.3,3.3-3.1,3.3c-1.8,0-3.1-1.2-3.1-3.3
		C90.3,59.9,91.5,58.7,93.4,58.7z M93.4,64.7c1.4,0,2.3-1,2.3-2.7s-0.9-2.7-2.3-2.7c-1.4,0-2.3,1-2.3,2.7S92,64.7,93.4,64.7z"/>
	<path class="st0" d="M105.4,59.3h-2.7v5.9H102v-5.9h-2.8v5.9h-0.8v-5.9h-1v-0.5h1v-1.3c0-1.1,0.7-1.6,2-1.6c0.2,0,0.4,0,0.6,0.1
		v0.5c-0.2,0-0.3-0.1-0.5-0.1c-0.7,0-1.2,0.4-1.2,1v1.4h2.8v-1.3c0-1.1,0.7-1.6,2-1.6c0.2,0,0.4,0,0.6,0.1v0.5
		c-0.2,0-0.3-0.1-0.5-0.1c-0.7,0-1.2,0.4-1.2,1v1.4h3.5v6.4h-0.8V59.3z M105.4,56.1h0.8v1.3h-0.8V56.1z"/>
	<path class="st0" d="M108.8,61.9c0,1.7,0.9,2.7,2.3,2.7c1,0,1.8-0.6,1.8-1.6h0.8c0,1.3-1.1,2.1-2.5,2.1c-1.8,0-3.1-1.2-3.1-3.3
		c0-2.1,1.3-3.3,3.1-3.3c1.4,0,2.5,0.8,2.5,2.1h-0.8c0-0.9-0.7-1.6-1.8-1.6C109.7,59.2,108.8,60.2,108.8,61.9z"/>
	<path class="st0" d="M121,62.1h-5c0,1.6,0.9,2.5,2.3,2.5c1.1,0,1.9-0.6,1.9-1.5h0.7c0,1.2-1.1,2-2.6,2c-1.8,0-3.1-1.2-3.1-3.3
		c0-2.1,1.2-3.3,3.1-3.3C119.9,58.7,121.1,59.8,121,62.1z M116,61.6h4.2c0-1.5-0.8-2.4-1.9-2.4C117,59.2,116,60.1,116,61.6z"/>
	<path class="st0" d="M123.3,63.2c0,0.9,0.8,1.5,1.8,1.5c1,0,1.7-0.5,1.7-1.2c0-1.9-4.1-0.6-4.1-3c0-1.1,1-1.8,2.3-1.8
		c1.3,0,2.3,0.7,2.3,1.9h-0.7c0-0.8-0.7-1.4-1.6-1.4s-1.5,0.5-1.5,1.2c0,1.8,4.1,0.5,4.1,3c0,1.1-1,1.8-2.5,1.8
		c-1.4,0-2.5-0.8-2.5-2H123.3z"/>
	<path class="st0" d="M45.2,75.8h3.5v4.9h-1.4l-0.1-0.9c-0.5,0.6-1.3,0.9-2.1,0.9c-2.5,0-4.3-1.7-4.3-4.6c0-2.9,1.8-4.6,4.3-4.6
		c2.2,0,3.7,1.1,3.7,3h-1.8c0-1.2-0.8-1.8-2-1.8c-1.5,0-2.4,1.2-2.4,3.4s1,3.4,2.5,3.4c1.3,0,2.1-0.7,2.1-2v-0.5h-1.9V75.8z"/>
	<path class="st0" d="M55.9,77.8h-4.4c0,1.1,0.6,1.8,1.5,1.8c0.7,0,1.2-0.4,1.2-1.1h1.7c0,1.3-1.2,2.2-2.9,2.2
		c-1.9,0-3.3-1.2-3.3-3.3c0-2.1,1.3-3.3,3.3-3.3C54.8,74.1,56.1,75.3,55.9,77.8z M51.5,76.9h2.7c0-1.1-0.5-1.7-1.2-1.7
		C52.2,75.2,51.5,75.8,51.5,76.9z"/>
	<path class="st0" d="M60.2,74.1c1.9,0,3.3,1.2,3.3,3.3c0,2.1-1.3,3.3-3.3,3.3c-1.9,0-3.3-1.2-3.3-3.3C57,75.3,58.3,74.1,60.2,74.1z
		 M60.2,79.6c0.9,0,1.5-0.8,1.5-2.2s-0.6-2.2-1.5-2.2c-0.9,0-1.5,0.8-1.5,2.2S59.3,79.6,60.2,79.6z"/>
	<path class="st0" d="M66.4,80.6h-1.7v-6.4h1.5l0.2,1.1c0.4-0.8,1.2-1.1,2-1.1v1.2c-1.1,0-2,1-2,2.5V80.6z"/>
	<path class="st0" d="M73.7,80.8v-0.9c-0.4,0.5-1,0.8-1.8,0.8c-1.7,0-2.8-1.2-2.8-3.3c0-2.1,1.1-3.3,2.8-3.3c0.8,0,1.4,0.3,1.8,0.9
		l0.1-0.8h1.6v6.6c0,1.7-1.3,2.7-3.1,2.7c-1.7,0-3-0.8-3-2.2H71c0,0.7,0.5,1.2,1.3,1.2C73.2,82.4,73.7,81.8,73.7,80.8z M72.3,75.2
		c-0.9,0-1.5,0.8-1.5,2.2s0.6,2.2,1.5,2.2c0.9,0,1.4-0.8,1.4-2.2S73.2,75.2,72.3,75.2z"/>
	<path class="st0" d="M76.9,71.6h1.7v1.6h-1.7V71.6z M76.9,74.2h1.7v6.4h-1.7V74.2z"/>
	<path class="st0" d="M83.9,79.7c-0.4,0.6-1.1,1-1.9,1c-1.3,0-2.2-0.6-2.2-1.7c0-1.4,1.4-2.2,3.7-2.2h0.4v-0.4
		c0-0.8-0.5-1.2-1.2-1.2c-0.7,0-1.1,0.4-1.1,1.1H80c0-1.4,1.1-2.2,2.8-2.2c1.7,0,2.9,0.8,2.9,2.3v4.3H84L83.9,79.7z M83.5,77.7
		c-1.3,0-1.9,0.4-1.9,1.2c0,0.5,0.3,0.8,0.9,0.8c0.9,0,1.4-0.7,1.4-1.8v-0.2H83.5z"/>
	<path class="st0" d="M87,79h1.7v1.7c0,1.2-0.7,2.1-1.7,2.1v-0.9c0.4,0,0.6-0.5,0.6-1.1H87V79z"/>
	<path class="st0" d="M93.4,71.6h3.8c1.8,0,3,1,3,2.7c0,1.3-0.8,2.2-1.9,2.6l2.3,3.8h-1.9L96.7,77h-1.5v3.6h-1.8V71.6z M95.3,72.8v3
		h1.6c1,0,1.6-0.5,1.6-1.5c0-1-0.6-1.5-1.6-1.5H95.3z"/>
	<path class="st0" d="M104.1,74.1c1.9,0,3.3,1.2,3.3,3.3c0,2.1-1.3,3.3-3.3,3.3c-1.9,0-3.3-1.2-3.3-3.3
		C100.8,75.3,102.2,74.1,104.1,74.1z M104.1,79.6c0.9,0,1.5-0.8,1.5-2.2s-0.6-2.2-1.5-2.2c-0.9,0-1.5,0.8-1.5,2.2
		S103.2,79.6,104.1,79.6z"/>
	<path class="st0" d="M110.3,80.6h-1.7v-6.4h1.6l0.1,1c0.4-0.7,0.9-1,1.6-1c0.8,0,1.4,0.4,1.8,1.1c0.4-0.7,1.3-1.1,2-1.1
		c1.3,0,2.2,0.9,2.2,2.3v4.2h-1.7v-4.2c0-0.8-0.4-1.2-0.9-1.2c-0.7,0-1.1,0.8-1.1,2.2v3.2h-1.7v-4.2c0-0.8-0.4-1.2-0.9-1.2
		c-0.7,0-1.1,0.8-1.1,2.2V80.6z"/>
	<path class="st0" d="M123.1,79.7c-0.4,0.6-1.1,1-1.9,1c-1.3,0-2.2-0.6-2.2-1.7c0-1.4,1.4-2.2,3.7-2.2h0.4v-0.4
		c0-0.8-0.5-1.2-1.2-1.2c-0.7,0-1.1,0.4-1.1,1.1h-1.7c0-1.4,1.1-2.2,2.8-2.2c1.7,0,2.9,0.8,2.9,2.3v4.3h-1.6L123.1,79.7z
		 M122.7,77.7c-1.3,0-1.9,0.4-1.9,1.2c0,0.5,0.3,0.8,0.9,0.8c0.9,0,1.4-0.7,1.4-1.8v-0.2H122.7z"/>
	<path class="st0" d="M128.1,80.6h-1.7v-6.4h1.6l0.1,0.9c0.4-0.6,1.1-1,1.8-1c1.4,0,2.4,0.9,2.4,2.3v4.2h-1.7v-4.2
		c0-0.8-0.4-1.2-1.1-1.2c-0.9,0-1.4,0.8-1.4,2.2V80.6z"/>
	<path class="st0" d="M133.7,71.6h1.7v1.6h-1.7V71.6z M133.7,74.2h1.7v6.4h-1.7V74.2z"/>
	<path class="st0" d="M140.7,79.7c-0.4,0.6-1.1,1-1.9,1c-1.3,0-2.2-0.6-2.2-1.7c0-1.4,1.4-2.2,3.7-2.2h0.4v-0.4
		c0-0.8-0.5-1.2-1.2-1.2c-0.7,0-1.1,0.4-1.1,1.1h-1.7c0-1.4,1.1-2.2,2.8-2.2c1.7,0,2.9,0.8,2.9,2.3v4.3h-1.6L140.7,79.7z
		 M140.3,77.7c-1.3,0-1.9,0.4-1.9,1.2c0,0.5,0.3,0.8,0.9,0.8c0.9,0,1.4-0.7,1.4-1.8v-0.2H140.3z"/>
	<path class="st0" d="M143.9,79h1.7v1.7c0,1.2-0.7,2.1-1.7,2.1v-0.9c0.4,0,0.6-0.5,0.6-1.1h-0.6V79z"/>
	<path class="st0" d="M149.9,71.6h7.4v1.2h-2.8v7.8h-1.8v-7.8h-2.8V71.6z"/>
	<path class="st0" d="M162,74.2h1.7v6.4h-1.6l-0.1-0.9c-0.4,0.6-1.1,1-1.9,1c-1.4,0-2.3-0.8-2.3-2.2v-4.3h1.7v4.3
		c0,0.7,0.4,1.1,1.1,1.1c0.9,0,1.4-0.8,1.4-2.2V74.2z"/>
	<path class="st0" d="M166.9,80.6h-1.7v-6.4h1.5l0.2,1.1c0.4-0.8,1.2-1.1,2-1.1v1.2c-1.1,0-2,1-2,2.5V80.6z"/>
	<path class="st0" d="M172.6,78.1l-0.7,0.9v1.7h-1.7v-9.3h1.7v5.4l2-2.5h1.9l-2.3,2.7l2.5,3.7h-1.7L172.6,78.1z"/>
	<path class="st0" d="M182.6,77.8h-4.4c0,1.1,0.6,1.8,1.5,1.8c0.7,0,1.2-0.4,1.2-1.1h1.7c0,1.3-1.2,2.2-2.9,2.2
		c-1.9,0-3.3-1.2-3.3-3.3c0-2.1,1.3-3.3,3.3-3.3C181.5,74.1,182.8,75.3,182.6,77.8z M178.2,76.9h2.7c0-1.1-0.5-1.7-1.2-1.7
		C178.8,75.2,178.2,75.8,178.2,76.9z"/>
	<path class="st0" d="M187.1,81.5c-0.5,1.4-1.5,2-3.4,2v-1.1c0.9,0,1.6-0.3,1.8-0.9l0.3-0.8h-0.3l-2.4-6.4h1.8l1.6,5l1.6-5h1.8
		L187.1,81.5z"/>
</g>
<g>
	<path class="st0" d="M42.1,114.9h-0.8v-6.4H42l0.1,1.5c0.4-1,1.3-1.5,2.3-1.5v0.6c-1.4,0-2.3,1.1-2.3,2.8V114.9z"/>
	<path class="st0" d="M51.3,111.9h-5c0,1.6,0.9,2.5,2.3,2.5c1.1,0,1.9-0.6,1.9-1.5h0.7c0,1.2-1.1,2-2.6,2c-1.8,0-3.1-1.2-3.1-3.3
		c0-2.1,1.2-3.3,3.1-3.3C50.2,108.4,51.4,109.5,51.3,111.9z M46.4,111.3h4.2c0-1.5-0.8-2.4-1.9-2.4
		C47.4,108.9,46.4,109.8,46.4,111.3z"/>
	<path class="st0" d="M53.3,105.5H54v4.3c0.4-0.9,1.2-1.4,2.3-1.4c1.7,0,2.9,1.2,2.9,3.3c0,2.1-1.2,3.3-2.9,3.3
		c-1,0-1.8-0.5-2.3-1.4l0,1.4h-0.7V105.5z M56.2,114.4c1.4,0,2.3-1,2.3-2.7s-0.9-2.7-2.3-2.7c-1.3,0-2.1,1-2.1,2.7
		S54.9,114.4,56.2,114.4z"/>
	<path class="st0" d="M61.8,114.9H61v-6.4h0.7l0.1,1.5c0.4-1,1.3-1.5,2.3-1.5v0.6c-1.4,0-2.3,1.1-2.3,2.8V114.9z"/>
	<path class="st0" d="M69.6,113.4c-0.4,0.9-1.3,1.5-2.4,1.5c-1.1,0-2-0.6-2-1.7c0-1.4,1.4-2.2,3.8-2.2h0.5v-0.6c0-1-0.7-1.6-1.7-1.6
		c-1,0-1.8,0.6-1.8,1.5h-0.8c0-1.2,1.1-2,2.5-2c1.5,0,2.5,0.8,2.5,2.1v4.3h-0.7L69.6,113.4z M69.1,111.6c-2,0-3,0.6-3,1.6
		c0,0.7,0.5,1.2,1.3,1.2c1.3,0,2.2-1,2.2-2.6v-0.2H69.1z"/>
	<path class="st0" d="M73.3,114.9h-0.8v-6.4h0.7l0,1.4c0.4-0.9,1.3-1.5,2.3-1.5c1.4,0,2.4,0.9,2.4,2.3v4.2h-0.8v-4.2
		c0-1.1-0.7-1.8-1.8-1.8c-1.3,0-2.1,1-2.1,2.7V114.9z"/>
	<path class="st0" d="M85.7,114.9H85l-0.1-1.4c-0.4,0.9-1.2,1.5-2.3,1.5c-1.7,0-2.9-1.2-2.9-3.3c0-2.1,1.2-3.3,2.9-3.3
		c1,0,1.8,0.5,2.3,1.4v-4.3h0.8V114.9z M82.8,108.9c-1.4,0-2.3,1-2.3,2.7s0.9,2.7,2.3,2.7c1.3,0,2.1-1,2.1-2.7S84,108.9,82.8,108.9z
		"/>
	<path class="st0" d="M87.7,105.9h0.8v1.3h-0.8V105.9z M87.7,108.4h0.8v6.4h-0.8V108.4z"/>
	<path class="st0" d="M91.4,114.9h-0.8v-6.4h0.7l0,1.4c0.4-0.9,1.3-1.5,2.3-1.5c1.4,0,2.4,0.9,2.4,2.3v4.2h-0.8v-4.2
		c0-1.1-0.7-1.8-1.8-1.8c-1.3,0-2.1,1-2.1,2.7V114.9z"/>
	<path class="st0" d="M103,114.9v-1.4c-0.4,0.9-1.2,1.4-2.3,1.4c-1.7,0-2.9-1.2-2.9-3.3c0-2.1,1.2-3.3,2.9-3.3c1,0,1.8,0.5,2.3,1.4
		l0.1-1.4h0.7v6.5c0,1.7-1.2,2.8-2.9,2.8c-1.6,0-2.8-0.8-2.8-2.1h0.7c0,0.9,0.9,1.6,2.1,1.6C102.2,117.2,103,116.3,103,114.9z
		 M100.9,108.9c-1.4,0-2.3,1-2.3,2.7s0.9,2.7,2.3,2.7c1.3,0,2.1-1,2.1-2.7S102.1,108.9,100.9,108.9z"/>
	<path class="st0" d="M105.7,108.4h0.9v1.2h-0.9V108.4z M105.7,113.7h0.9v1.2h-0.9V113.7z"/>
	<path class="st0" d="M112.5,112c0,1.1,0.7,1.7,1.8,1.7s1.7-0.5,1.7-1.4c0-2.3-5-0.6-5-4c0-1.7,1.4-2.6,3.3-2.6c2,0,3.3,1.1,3.3,2.7
		h-1.7c0-0.9-0.6-1.5-1.5-1.5c-1,0-1.6,0.6-1.6,1.4c0,2.2,5.1,0.5,5.1,4c0,1.7-1.5,2.6-3.5,2.6c-2.2,0-3.5-1.1-3.5-2.9H112.5z"/>
	<path class="st0" d="M120.5,111.7c0,1.4,0.6,2.2,1.5,2.2c0.7,0,1.1-0.5,1.1-1.3h1.7c0,1.5-1.2,2.4-2.8,2.4c-1.9,0-3.3-1.2-3.3-3.3
		c0-2.1,1.3-3.3,3.3-3.3c1.6,0,2.8,0.9,2.8,2.4h-1.7c0-0.8-0.5-1.3-1.1-1.3C121.2,109.4,120.5,110.2,120.5,111.7z"/>
	<path class="st0" d="M127.9,114.9h-1.7v-9.3h1.7v3.7c0.4-0.6,1.1-0.9,1.8-0.9c1.4,0,2.4,0.9,2.4,2.3v4.2h-1.7v-4.2
		c0-0.8-0.4-1.2-1.1-1.2c-0.9,0-1.4,0.8-1.4,2.2V114.9z"/>
	<path class="st0" d="M139.4,112.1H135c0,1.1,0.6,1.8,1.5,1.8c0.7,0,1.2-0.4,1.2-1.1h1.7c0,1.3-1.2,2.2-2.9,2.2
		c-1.9,0-3.3-1.2-3.3-3.3c0-2.1,1.3-3.3,3.3-3.3C138.3,108.4,139.6,109.6,139.4,112.1z M135,111.1h2.7c0-1.1-0.5-1.7-1.2-1.7
		C135.7,109.4,135,110.1,135,111.1z"/>
	<path class="st0" d="M146.8,114.9h-1.6l-0.1-0.9c-0.4,0.6-1,1-1.8,1c-1.7,0-2.8-1.2-2.8-3.3c0-2.1,1.1-3.3,2.8-3.3
		c0.8,0,1.4,0.3,1.8,0.8v-3.7h1.7V114.9z M143.7,109.4c-0.9,0-1.5,0.8-1.5,2.2s0.6,2.2,1.5,2.2c0.9,0,1.4-0.8,1.4-2.2
		S144.5,109.4,143.7,109.4z"/>
	<path class="st0" d="M152.5,108.4h1.7v6.4h-1.6l-0.1-0.9c-0.4,0.6-1.1,1-1.9,1c-1.4,0-2.3-0.8-2.3-2.2v-4.3h1.7v4.3
		c0,0.7,0.4,1.1,1.1,1.1c0.9,0,1.4-0.8,1.4-2.2V108.4z"/>
	<path class="st0" d="M155.6,105.5h1.7v7.8c0,0.4,0.2,0.6,0.5,0.6v1.1c-1.6,0-2.2-0.4-2.2-1.5V105.5z"/>
	<path class="st0" d="M159.1,105.9h1.7v1.6h-1.7V105.9z M159.1,108.4h1.7v6.4h-1.7V108.4z"/>
	<path class="st0" d="M164,114.9h-1.7v-6.4h1.6l0.1,0.9c0.4-0.6,1.1-1,1.8-1c1.4,0,2.4,0.9,2.4,2.3v4.2h-1.7v-4.2
		c0-0.8-0.4-1.2-1.1-1.2c-0.9,0-1.4,0.8-1.4,2.2V114.9z"/>
	<path class="st0" d="M174,115v-0.9c-0.4,0.5-1,0.8-1.8,0.8c-1.7,0-2.8-1.2-2.8-3.3c0-2.1,1.1-3.3,2.8-3.3c0.8,0,1.4,0.3,1.8,0.9
		l0.1-0.8h1.6v6.6c0,1.7-1.3,2.7-3.1,2.7c-1.7,0-3-0.8-3-2.2h1.6c0,0.7,0.5,1.2,1.3,1.2C173.4,116.6,174,116.1,174,115z
		 M172.6,109.4c-0.9,0-1.5,0.8-1.5,2.2s0.6,2.2,1.5,2.2c0.9,0,1.4-0.8,1.4-2.2S173.4,109.4,172.6,109.4z"/>
	<path class="st0" d="M186.3,108.1l-1.8,6.8h-2.1l-2.6-9h1.9l1.8,7.3l1.9-7.3h1.8l1.9,7.3l1.8-7.3h1.9l-2.6,9h-2L186.3,108.1z"/>
	<path class="st0" d="M195.6,108.4c1.9,0,3.3,1.2,3.3,3.3c0,2.1-1.3,3.3-3.3,3.3c-1.9,0-3.3-1.2-3.3-3.3
		C192.4,109.6,193.7,108.4,195.6,108.4z M195.6,113.9c0.9,0,1.5-0.8,1.5-2.2s-0.6-2.2-1.5-2.2c-0.9,0-1.5,0.8-1.5,2.2
		S194.7,113.9,195.6,113.9z"/>
	<path class="st0" d="M201.8,114.9h-1.7v-6.4h1.5l0.2,1.1c0.4-0.8,1.2-1.1,2-1.1v1.2c-1.1,0-2,1-2,2.5V114.9z"/>
	<path class="st0" d="M205,105.5h1.7v7.8c0,0.4,0.2,0.6,0.5,0.6v1.1c-1.6,0-2.2-0.4-2.2-1.5V105.5z"/>
	<path class="st0" d="M214.6,114.9H213l-0.1-0.9c-0.4,0.6-1,1-1.8,1c-1.7,0-2.8-1.2-2.8-3.3c0-2.1,1.1-3.3,2.8-3.3
		c0.8,0,1.4,0.3,1.8,0.8v-3.7h1.7V114.9z M211.4,109.4c-0.9,0-1.5,0.8-1.5,2.2s0.6,2.2,1.5,2.2c0.9,0,1.4-0.8,1.4-2.2
		S212.3,109.4,211.4,109.4z"/>
	<path class="st0" d="M220.6,110.5l-1.2,4.3h-1.9l-2-6.4h1.8l1.2,4.9l1.3-4.9h1.7l1.3,4.9l1.2-4.9h1.8l-2,6.4h-1.9L220.6,110.5z"/>
	<path class="st0" d="M226.6,105.9h1.7v1.6h-1.7V105.9z M226.6,108.4h1.7v6.4h-1.7V108.4z"/>
	<path class="st0" d="M235.9,114.9h-1.6l-0.1-0.9c-0.4,0.6-1,1-1.8,1c-1.7,0-2.8-1.2-2.8-3.3c0-2.1,1.1-3.3,2.8-3.3
		c0.8,0,1.4,0.3,1.8,0.8v-3.7h1.7V114.9z M232.7,109.4c-0.9,0-1.5,0.8-1.5,2.2s0.6,2.2,1.5,2.2c0.9,0,1.4-0.8,1.4-2.2
		S233.6,109.4,232.7,109.4z"/>
	<path class="st0" d="M243.2,112.1h-4.4c0,1.1,0.6,1.8,1.5,1.8c0.7,0,1.2-0.4,1.2-1.1h1.7c0,1.3-1.2,2.2-2.9,2.2
		c-1.9,0-3.3-1.2-3.3-3.3c0-2.1,1.3-3.3,3.3-3.3C242.1,108.4,243.4,109.6,243.2,112.1z M238.8,111.1h2.7c0-1.1-0.5-1.7-1.2-1.7
		C239.4,109.4,238.8,110.1,238.8,111.1z"/>
	<path class="st0" d="M244,105.9h3.8v0.7h-1.4v3.8h-1.1v-3.8H244V105.9z M248.4,105.9h1.7l1,3.3l1.1-3.3h1.7v4.5h-1V107l-1.2,3.4
		h-1.1l-1.1-3.4v3.4h-1V105.9z"/>
	<path class="st0" d="M41.3,121h0.8v4.3c0.4-0.9,1.2-1.4,2.3-1.4c1.7,0,2.9,1.2,2.9,3.3c0,2.1-1.2,3.3-2.9,3.3c-1,0-1.8-0.5-2.3-1.4
		l0,1.4h-0.7V121z M44.2,129.8c1.4,0,2.3-1,2.3-2.7c0-1.7-0.9-2.7-2.3-2.7c-1.3,0-2.1,1-2.1,2.7C42.1,128.9,42.9,129.8,44.2,129.8z"
		/>
	<path class="st0" d="M54.5,127.3h-5c0,1.6,0.9,2.5,2.3,2.5c1.1,0,1.9-0.6,1.9-1.5h0.7c0,1.2-1.1,2-2.6,2c-1.8,0-3.1-1.2-3.1-3.3
		c0-2.1,1.2-3.3,3.1-3.3C53.4,123.9,54.6,125,54.5,127.3z M49.5,126.8h4.2c0-1.5-0.8-2.4-1.9-2.4C50.5,124.4,49.5,125.3,49.5,126.8z
		"/>
	<path class="st0" d="M56.9,127.1c0,1.7,0.9,2.7,2.3,2.7c1,0,1.8-0.6,1.8-1.6h0.8c0,1.3-1.1,2.1-2.5,2.1c-1.8,0-3.1-1.2-3.1-3.3
		c0-2.1,1.3-3.3,3.1-3.3c1.4,0,2.5,0.8,2.5,2.1h-0.8c0-0.9-0.7-1.6-1.8-1.6C57.8,124.4,56.9,125.4,56.9,127.1z"/>
	<path class="st0" d="M66.4,123.9c1.8,0,3.1,1.2,3.1,3.3c0,2.1-1.3,3.3-3.1,3.3c-1.8,0-3.1-1.2-3.1-3.3
		C63.3,125.1,64.6,123.9,66.4,123.9z M66.4,129.8c1.4,0,2.3-1,2.3-2.7c0-1.7-0.9-2.7-2.3-2.7c-1.4,0-2.3,1-2.3,2.7
		C64.1,128.9,65,129.8,66.4,129.8z"/>
	<path class="st0" d="M72,130.4h-0.8v-6.4H72l0,1.4c0.4-1,1.1-1.5,1.9-1.5c0.9,0,1.7,0.6,1.9,1.5c0.4-1,1.2-1.5,2.1-1.5
		c1.2,0,2.1,0.9,2.1,2.3v4.2h-0.8v-4.2c0-1.1-0.6-1.8-1.5-1.8c-1,0-1.8,1-1.8,2.7v3.2h-0.8v-4.2c0-1.1-0.6-1.8-1.5-1.8
		c-1,0-1.8,1-1.8,2.7V130.4z"/>
	<path class="st0" d="M87.6,127.3h-5c0,1.6,0.9,2.5,2.3,2.5c1.1,0,1.9-0.6,1.9-1.5h0.7c0,1.2-1.1,2-2.6,2c-1.8,0-3.1-1.2-3.1-3.3
		c0-2.1,1.2-3.3,3.1-3.3C86.5,123.9,87.7,125,87.6,127.3z M82.6,126.8h4.2c0-1.5-0.8-2.4-1.9-2.4C83.6,124.4,82.6,125.3,82.6,126.8z
		"/>
	<path class="st0" d="M89.9,128.4c0,0.9,0.8,1.5,1.8,1.5c1,0,1.7-0.5,1.7-1.2c0-1.9-4.1-0.6-4.1-3c0-1.1,1-1.8,2.3-1.8
		c1.3,0,2.3,0.7,2.3,1.9h-0.7c0-0.8-0.7-1.4-1.6-1.4s-1.5,0.5-1.5,1.2c0,1.8,4.1,0.5,4.1,3c0,1.1-1,1.8-2.5,1.8
		c-1.4,0-2.5-0.8-2.5-2H89.9z"/>
	<path class="st0" d="M99.4,128.8v-4.3h-1.1v-0.5h1.1v-1.4h0.8v1.4h1.8v0.5h-1.8v4.4c0,0.7,0.5,1,1.3,1c0.2,0,0.3,0,0.5-0.1v0.5
		c-0.2,0-0.4,0.1-0.6,0.1C100.1,130.4,99.4,129.8,99.4,128.8z"/>
	<path class="st0" d="M104.4,130.4h-0.8V121h0.8v4.3c0.4-0.9,1.3-1.4,2.3-1.4c1.4,0,2.4,0.9,2.4,2.3v4.2h-0.8v-4.2
		c0-1.1-0.7-1.8-1.8-1.8c-1.3,0-2.1,1-2.1,2.7V130.4z"/>
	<path class="st0" d="M116.6,127.3h-5c0,1.6,0.9,2.5,2.3,2.5c1.1,0,1.9-0.6,1.9-1.5h0.7c0,1.2-1.1,2-2.6,2c-1.8,0-3.1-1.2-3.1-3.3
		c0-2.1,1.2-3.3,3.1-3.3C115.5,123.9,116.7,125,116.6,127.3z M111.6,126.8h4.2c0-1.5-0.8-2.4-1.9-2.4
		C112.6,124.4,111.6,125.3,111.6,126.8z"/>
	<path class="st0" d="M122.2,130.4h-0.8v-6.4h0.7l0,1.4c0.4-1,1.1-1.5,1.9-1.5c0.9,0,1.7,0.6,1.9,1.5c0.4-1,1.2-1.5,2.1-1.5
		c1.2,0,2.1,0.9,2.1,2.3v4.2h-0.8v-4.2c0-1.1-0.6-1.8-1.5-1.8c-1,0-1.8,1-1.8,2.7v3.2h-0.8v-4.2c0-1.1-0.6-1.8-1.5-1.8
		c-1,0-1.8,1-1.8,2.7V130.4z"/>
	<path class="st0" d="M136.4,128.9c-0.4,0.9-1.3,1.5-2.4,1.5c-1.1,0-2-0.6-2-1.7c0-1.4,1.4-2.2,3.8-2.2h0.5V126c0-1-0.7-1.6-1.7-1.6
		c-1,0-1.8,0.6-1.8,1.5h-0.8c0-1.2,1.1-2,2.5-2c1.5,0,2.5,0.8,2.5,2.1v4.3h-0.7L136.4,128.9z M135.9,127.1c-2,0-3,0.6-3,1.6
		c0,0.7,0.5,1.2,1.3,1.2c1.3,0,2.2-1,2.2-2.6v-0.2H135.9z"/>
	<path class="st0" d="M139.3,121.3h0.8v1.3h-0.8V121.3z M139.3,123.9h0.8v6.4h-0.8V123.9z"/>
	<path class="st0" d="M142.9,130.4h-0.8v-6.4h0.7l0,1.4c0.4-0.9,1.3-1.5,2.3-1.5c1.4,0,2.4,0.9,2.4,2.3v4.2h-0.8v-4.2
		c0-1.1-0.7-1.8-1.8-1.8c-1.3,0-2.1,1-2.1,2.7V130.4z"/>
	<path class="st0" d="M152.6,123.9h0.7l0,1.4c0.4-0.9,1.2-1.5,2.3-1.5c1.7,0,2.9,1.2,2.9,3.3c0,2.1-1.2,3.3-2.9,3.3
		c-1,0-1.8-0.5-2.3-1.4v4.1h-0.8V123.9z M155.5,129.8c1.4,0,2.3-1,2.3-2.7c0-1.7-0.9-2.7-2.3-2.7c-1.3,0-2.1,1-2.1,2.7
		C153.4,128.9,154.3,129.8,155.5,129.8z"/>
	<path class="st0" d="M161.2,130.4h-0.8v-6.4h0.7l0.1,1.5c0.4-1,1.3-1.5,2.3-1.5v0.6c-1.4,0-2.3,1.1-2.3,2.8V130.4z"/>
	<path class="st0" d="M167.8,123.9c1.8,0,3.1,1.2,3.1,3.3c0,2.1-1.3,3.3-3.1,3.3c-1.8,0-3.1-1.2-3.1-3.3
		C164.7,125.1,165.9,123.9,167.8,123.9z M167.8,129.8c1.4,0,2.3-1,2.3-2.7c0-1.7-0.9-2.7-2.3-2.7c-1.4,0-2.3,1-2.3,2.7
		C165.5,128.9,166.4,129.8,167.8,129.8z"/>
	<path class="st0" d="M173.4,131.4c0,1.1-0.7,1.7-2,1.7v-0.5c0.7,0,1.2-0.4,1.2-1.1v-7.6h0.8V131.4z M172.6,121.3h0.8v1.3h-0.8
		V121.3z"/>
	<path class="st0" d="M181,127.3h-5c0,1.6,0.9,2.5,2.3,2.5c1.1,0,1.9-0.6,1.9-1.5h0.7c0,1.2-1.1,2-2.6,2c-1.8,0-3.1-1.2-3.1-3.3
		c0-2.1,1.2-3.3,3.1-3.3C179.9,123.9,181,125,181,127.3z M176,126.8h4.2c0-1.5-0.8-2.4-1.9-2.4C177,124.4,176,125.3,176,126.8z"/>
	<path class="st0" d="M183.4,127.1c0,1.7,0.9,2.7,2.3,2.7c1,0,1.8-0.6,1.8-1.6h0.8c0,1.3-1.1,2.1-2.5,2.1c-1.8,0-3.1-1.2-3.1-3.3
		c0-2.1,1.3-3.3,3.1-3.3c1.4,0,2.5,0.8,2.5,2.1h-0.8c0-0.9-0.7-1.6-1.8-1.6C184.3,124.4,183.4,125.4,183.4,127.1z"/>
	<path class="st0" d="M190.4,128.8v-4.3h-1.1v-0.5h1.1v-1.4h0.8v1.4h1.8v0.5h-1.8v4.4c0,0.7,0.5,1,1.3,1c0.2,0,0.3,0,0.5-0.1v0.5
		c-0.2,0-0.4,0.1-0.6,0.1C191.1,130.4,190.4,129.8,190.4,128.8z"/>
	<path class="st0" d="M200.5,121v0.5c-0.2,0-0.3-0.1-0.5-0.1c-0.7,0-1.2,0.4-1.2,1v1.4h1.8v0.5h-1.8v5.9h-0.8v-5.9h-1v-0.5h1v-1.3
		c0-1.1,0.7-1.6,2-1.6C200.1,121,200.3,121,200.5,121z"/>
	<path class="st0" d="M204.6,123.9c1.8,0,3.1,1.2,3.1,3.3c0,2.1-1.3,3.3-3.1,3.3c-1.8,0-3.1-1.2-3.1-3.3
		C201.5,125.1,202.7,123.9,204.6,123.9z M204.6,129.8c1.4,0,2.3-1,2.3-2.7c0-1.7-0.9-2.7-2.3-2.7c-1.4,0-2.3,1-2.3,2.7
		C202.3,128.9,203.2,129.8,204.6,129.8z"/>
	<path class="st0" d="M210.2,130.4h-0.8v-6.4h0.7l0.1,1.5c0.4-1,1.3-1.5,2.3-1.5v0.6c-1.4,0-2.3,1.1-2.3,2.8V130.4z"/>
	<path class="st0" d="M221.4,128.5h-4.7v-0.6l4.4-6.6h1v6.6h1v0.6h-1v1.9h-0.7V128.5z M221.4,127.9v-5.8l-3.9,5.8H221.4z"/>
	<path class="st0" d="M225.1,127.6c0,1.3,1.1,2.2,2.5,2.2c1.4,0,2.4-0.7,2.4-1.8c0-2.8-5.5-1-5.5-4.2c0-1.5,1.2-2.5,3-2.5
		c1.7,0,3,1,3,2.6h-0.8c0-1.2-1-2-2.2-2c-1.3,0-2.2,0.7-2.2,1.9c0,2.7,5.5,0.8,5.5,4.2c0,1.6-1.3,2.5-3.2,2.5
		c-1.9,0-3.3-1.1-3.3-2.8H225.1z"/>
	<path class="st0" d="M238.1,127.3h-5c0,1.6,0.9,2.5,2.3,2.5c1.1,0,1.9-0.6,1.9-1.5h0.7c0,1.2-1.1,2-2.6,2c-1.8,0-3.1-1.2-3.1-3.3
		c0-2.1,1.2-3.3,3.1-3.3C237,123.9,238.2,125,238.1,127.3z M233.2,126.8h4.2c0-1.5-0.8-2.4-1.9-2.4
		C234.2,124.4,233.2,125.3,233.2,126.8z"/>
	<path class="st0" d="M240.8,130.4H240v-6.4h0.7l0.1,1.5c0.4-1,1.3-1.5,2.3-1.5v0.6c-1.4,0-2.3,1.1-2.3,2.8V130.4z"/>
	<path class="st0" d="M247.7,130.4h-0.9l-2.7-6.4h0.8l2.3,5.7l2.3-5.7h0.8L247.7,130.4z"/>
	<path class="st0" d="M251.8,121.3h0.8v1.3h-0.8V121.3z M251.8,123.9h0.8v6.4h-0.8V123.9z"/>
	<path class="st0" d="M255.2,127.1c0,1.7,0.9,2.7,2.3,2.7c1,0,1.8-0.6,1.8-1.6h0.8c0,1.3-1.1,2.1-2.5,2.1c-1.8,0-3.1-1.2-3.1-3.3
		c0-2.1,1.3-3.3,3.1-3.3c1.4,0,2.5,0.8,2.5,2.1h-0.8c0-0.9-0.7-1.6-1.8-1.6C256.1,124.4,255.2,125.4,255.2,127.1z"/>
	<path class="st0" d="M267.3,127.3h-5c0,1.6,0.9,2.5,2.3,2.5c1.1,0,1.9-0.6,1.9-1.5h0.7c0,1.2-1.1,2-2.6,2c-1.8,0-3.1-1.2-3.1-3.3
		c0-2.1,1.2-3.3,3.1-3.3C266.2,123.9,267.4,125,267.3,127.3z M262.4,126.8h4.2c0-1.5-0.8-2.4-1.9-2.4
		C263.4,124.4,262.4,125.3,262.4,126.8z"/>
</g>
</svg>
