<!-- Generator: Adobe Illustrator 19.0.0, SVG Export Plug-In  -->
<svg version="1.1"
	 xmlns="http://www.w3.org/2000/svg" xmlns:xlink="http://www.w3.org/1999/xlink" xmlns:a="http://ns.adobe.com/AdobeSVGViewerExtensions/3.0/"
	 x="0px" y="0px" width="29.2px" height="31.2px" viewBox="0 0 29.2 31.2"
	 style="overflow:scroll;enable-background:new 0 0 29.2 31.2;" xml:space="preserve">
<style type="text/css">
	.st0{fill:#414042;}
</style>
<defs>
</defs>
<g>
	<g>
		<path class="st0" d="M14.8,31.2c-8,0-14.5-6.5-14.5-14.5c0-1.2,0.1-2.4,0.4-3.6c0.1-0.3,0.4-0.6,0.8-0.5c0.3,0.1,0.6,0.4,0.5,0.8
			c-0.3,1.1-0.4,2.1-0.4,3.2c0,7.3,5.9,13.2,13.2,13.2c7.3,0,13.2-5.9,13.2-13.2c0-7.3-5.9-13.2-13.2-13.2c-1.6,0-3.1,0.3-4.6,0.8
			C9.9,4.5,9.5,4.3,9.4,4c-0.1-0.3,0-0.7,0.4-0.8c1.6-0.6,3.3-0.9,5-0.9c8,0,14.5,6.5,14.5,14.5C29.2,24.7,22.8,31.2,14.8,31.2z"/>
	</g>
	<g>
		<path class="st0" d="M14.8,31.2c-4.6,0-8.2-6.3-8.2-14.3c0-8,3.6-14.3,8.2-14.3c3.3,0,6.2,3.4,7.5,8.6c0.1,0.3-0.1,0.7-0.5,0.8
			c-0.3,0.1-0.7-0.1-0.8-0.5c-1.1-4.6-3.6-7.6-6.3-7.6c-3.8,0-6.9,6-6.9,13c0,7.1,3.2,13,6.9,13c1.6,0,3.2-1.1,4.4-3
			c0.2-0.3,0.6-0.4,0.9-0.2c0.3,0.2,0.4,0.6,0.2,0.9C18.8,29.9,16.8,31.2,14.8,31.2z"/>
	</g>
	<g>
		<path class="st0" d="M14.8,31.2c-0.4,0-0.6-0.3-0.6-0.6V3.2c0-0.4,0.3-0.6,0.6-0.6c0.4,0,0.6,0.3,0.6,0.6v27.4
			C15.4,30.9,15.1,31.2,14.8,31.2z"/>
	</g>
	<g>
		<path class="st0" d="M26.9,12H6.5c-0.4,0-0.6-0.3-0.6-0.6c0-0.4,0.3-0.6,0.6-0.6h20.4c0.4,0,0.6,0.3,0.6,0.6
			C27.6,11.7,27.3,12,26.9,12z"/>
	</g>
	<g>
		<path class="st0" d="M26.9,23.7h-1.5c-0.4,0-0.6-0.3-0.6-0.6c0-0.4,0.3-0.6,0.6-0.6h1.5c0.4,0,0.6,0.3,0.6,0.6
			C27.6,23.5,27.3,23.7,26.9,23.7z"/>
	</g>
	<g>
		<path class="st0" d="M18.1,23.7h-15c-0.4,0-0.6-0.3-0.6-0.6c0-0.4,0.3-0.6,0.6-0.6h15c0.4,0,0.6,0.3,0.6,0.6
			C18.7,23.5,18.5,23.7,18.1,23.7z"/>
	</g>
	<g>
		<g>
			<path class="st0" d="M4,12.9c-0.2,0-0.5-0.1-0.6-0.4C3,11.9,0,5.9,0,4c0-2.2,1.8-4,4-4s4,1.8,4,4c0,1.9-3,7.9-3.4,8.6
				C4.4,12.8,4.2,12.9,4,12.9z M4,1.3C2.5,1.3,1.3,2.5,1.3,4c0,1,1.5,4.4,2.7,6.9C5.2,8.3,6.6,5,6.6,4C6.6,2.5,5.4,1.3,4,1.3z"/>
		</g>
		<g>
			<circle class="st0" cx="4" cy="4" r="1.2"/>
		</g>
	</g>
	<g>
		<g>
			<path class="st0" d="M21.8,25.6c-0.2,0-0.5-0.1-0.6-0.4c-0.3-0.7-3.4-6.7-3.4-8.6c0-2.2,1.8-4,4-4s4,1.8,4,4c0,1.9-3,7.9-3.4,8.6
				C22.2,25.5,22,25.6,21.8,25.6z M21.8,14c-1.5,0-2.7,1.2-2.7,2.7c0,1,1.5,4.4,2.7,6.9c1.2-2.5,2.7-5.8,2.7-6.9
				C24.5,15.2,23.3,14,21.8,14z"/>
		</g>
		<g>
			<circle class="st0" cx="21.8" cy="16.7" r="1.2"/>
		</g>
	</g>
</g>
</svg>
