<!-- Generator: Adobe Illustrator 19.0.0, SVG Export Plug-In  -->
<svg version="1.1"
	 xmlns="http://www.w3.org/2000/svg" xmlns:xlink="http://www.w3.org/1999/xlink" xmlns:a="http://ns.adobe.com/AdobeSVGViewerExtensions/3.0/"
	 x="0px" y="0px" width="137.3px" height="42.2px" viewBox="0 0 137.3 42.2"
	 style="overflow:scroll;enable-background:new 0 0 137.3 42.2;" xml:space="preserve">
<style type="text/css">
	.st0{fill:#414042;}
</style>
<defs>
</defs>
<g>
	<path class="st0" d="M4,0.1v1.1C3.9,1.1,3.7,1.1,3.5,1.1c-0.6,0-0.9,0.3-0.9,0.8V3H4V4H2.6v5.4H0.8V4H0V3h0.8V2c0-1.4,0.7-2,2.5-2
		C3.6,0,3.8,0,4,0.1z"/>
	<path class="st0" d="M9.3,3h1.7v6.4H9.5L9.3,8.5c-0.4,0.6-1.1,1-1.9,1c-1.4,0-2.3-0.8-2.3-2.2V3h1.7v4.3c0,0.7,0.4,1.1,1.1,1.1
		c0.9,0,1.4-0.8,1.4-2.2V3z"/>
	<path class="st0" d="M12.5,0.1h1.7v7.8c0,0.4,0.2,0.6,0.5,0.6v1.1c-1.6,0-2.2-0.4-2.2-1.5V0.1z"/>
	<path class="st0" d="M15.9,0.1h1.7v7.8c0,0.4,0.2,0.6,0.5,0.6v1.1c-1.6,0-2.2-0.4-2.2-1.5V0.1z"/>
	<path class="st0" d="M26.9,9.5V8.7c-0.4,0.5-1,0.8-1.8,0.8c-1.7,0-2.8-1.2-2.8-3.3c0-2.1,1.1-3.3,2.8-3.3c0.8,0,1.4,0.3,1.8,0.9
		L27.1,3h1.6v6.6c0,1.7-1.3,2.7-3.1,2.7c-1.7,0-3-0.8-3-2.2h1.6c0,0.7,0.5,1.2,1.3,1.2C26.4,11.2,26.9,10.6,26.9,9.5z M25.5,4
		c-0.9,0-1.5,0.8-1.5,2.2s0.6,2.2,1.5,2.2c0.9,0,1.4-0.8,1.4-2.2S26.4,4,25.5,4z"/>
	<path class="st0" d="M30.1,0.1h1.7v7.8c0,0.4,0.2,0.6,0.5,0.6v1.1c-1.6,0-2.2-0.4-2.2-1.5V0.1z"/>
	<path class="st0" d="M36.6,2.9c1.9,0,3.3,1.2,3.3,3.3c0,2.1-1.3,3.3-3.3,3.3c-1.9,0-3.3-1.2-3.3-3.3C33.3,4.1,34.6,2.9,36.6,2.9z
		 M36.6,8.4c0.9,0,1.5-0.8,1.5-2.2S37.5,4,36.6,4C35.6,4,35,4.7,35,6.2S35.6,8.4,36.6,8.4z"/>
	<path class="st0" d="M41,0.1h1.7v3.7c0.4-0.5,1-0.8,1.8-0.8c1.7,0,2.8,1.2,2.8,3.3c0,2.1-1.1,3.3-2.8,3.3c-0.8,0-1.4-0.3-1.8-0.9
		l-0.1,0.8H41V0.1z M44.1,8.4c0.9,0,1.5-0.8,1.5-2.2S45,4,44.1,4c-0.8,0-1.4,0.8-1.4,2.2S43.3,8.4,44.1,8.4z"/>
	<path class="st0" d="M52.4,8.5c-0.4,0.6-1.1,1-1.9,1c-1.3,0-2.2-0.6-2.2-1.7c0-1.4,1.4-2.2,3.7-2.2h0.4V5.2c0-0.8-0.5-1.2-1.2-1.2
		c-0.7,0-1.1,0.4-1.1,1.1h-1.7c0-1.4,1.1-2.2,2.8-2.2c1.7,0,2.9,0.8,2.9,2.3v4.3h-1.6L52.4,8.5z M52,6.4c-1.3,0-1.9,0.4-1.9,1.2
		c0,0.5,0.3,0.8,0.9,0.8c0.9,0,1.4-0.7,1.4-1.8V6.4H52z"/>
	<path class="st0" d="M55.6,0.1h1.7v7.8c0,0.4,0.2,0.6,0.5,0.6v1.1c-1.6,0-2.2-0.4-2.2-1.5V0.1z"/>
	<path class="st0" d="M63.7,6.2c0,1.4,0.6,2.2,1.5,2.2c0.7,0,1.1-0.5,1.1-1.3H68c0,1.5-1.2,2.4-2.8,2.4c-1.9,0-3.3-1.2-3.3-3.3
		c0-2.1,1.3-3.3,3.3-3.3c1.6,0,2.8,0.9,2.8,2.4h-1.7c0-0.8-0.5-1.3-1.1-1.3C64.3,4,63.7,4.7,63.7,6.2z"/>
	<path class="st0" d="M72.3,2.9c1.9,0,3.3,1.2,3.3,3.3c0,2.1-1.3,3.3-3.3,3.3c-1.9,0-3.3-1.2-3.3-3.3C69.1,4.1,70.4,2.9,72.3,2.9z
		 M72.3,8.4c0.9,0,1.5-0.8,1.5-2.2S73.3,4,72.3,4c-0.9,0-1.5,0.8-1.5,2.2S71.4,8.4,72.3,8.4z"/>
	<path class="st0" d="M80.4,9.4h-1.9L76,3h1.7l1.7,5l1.7-5h1.7L80.4,9.4z"/>
	<path class="st0" d="M89.4,6.6H85c0,1.1,0.6,1.8,1.5,1.8c0.7,0,1.2-0.4,1.2-1.1h1.7c0,1.3-1.2,2.2-2.9,2.2c-1.9,0-3.3-1.2-3.3-3.3
		c0-2.1,1.3-3.3,3.3-3.3C88.3,2.9,89.6,4.1,89.4,6.6z M85,5.6h2.7c0-1.1-0.5-1.7-1.2-1.7C85.7,4,85,4.6,85,5.6z"/>
	<path class="st0" d="M92.4,9.4h-1.7V3h1.5L92.4,4c0.4-0.8,1.2-1.1,2-1.1v1.2c-1.1,0-2,1-2,2.5V9.4z"/>
	<path class="st0" d="M99.2,8.5c-0.4,0.6-1.1,1-1.9,1c-1.3,0-2.2-0.6-2.2-1.7c0-1.4,1.4-2.2,3.7-2.2h0.4V5.2c0-0.8-0.5-1.2-1.2-1.2
		C97.4,4,97,4.4,97,5.1h-1.7c0-1.4,1.1-2.2,2.8-2.2c1.7,0,2.9,0.8,2.9,2.3v4.3h-1.6L99.2,8.5z M98.8,6.4c-1.3,0-1.9,0.4-1.9,1.2
		c0,0.5,0.3,0.8,0.9,0.8c0.9,0,1.4-0.7,1.4-1.8V6.4H98.8z"/>
	<path class="st0" d="M106.8,9.5V8.7c-0.4,0.5-1,0.8-1.8,0.8c-1.7,0-2.8-1.2-2.8-3.3c0-2.1,1.1-3.3,2.8-3.3c0.8,0,1.4,0.3,1.8,0.9
		l0.1-0.8h1.6v6.6c0,1.7-1.3,2.7-3.1,2.7c-1.7,0-3-0.8-3-2.2h1.6c0,0.7,0.5,1.2,1.3,1.2C106.2,11.2,106.8,10.6,106.8,9.5z M105.4,4
		c-0.9,0-1.5,0.8-1.5,2.2s0.6,2.2,1.5,2.2c0.9,0,1.4-0.8,1.4-2.2S106.2,4,105.4,4z"/>
	<path class="st0" d="M115.9,6.6h-4.4c0,1.1,0.6,1.8,1.5,1.8c0.7,0,1.2-0.4,1.2-1.1h1.7c0,1.3-1.2,2.2-2.9,2.2
		c-1.9,0-3.3-1.2-3.3-3.3c0-2.1,1.3-3.3,3.3-3.3C114.8,2.9,116.1,4.1,115.9,6.6z M111.5,5.6h2.7c0-1.1-0.5-1.7-1.2-1.7
		C112.1,4,111.5,4.6,111.5,5.6z"/>
	<path class="st0" d="M2.7,26.7c-1.3,0-2.2-2.1-2.2-5.8c0-3.6,0.9-5.8,2.2-5.8v0.5c-0.9,0-1.4,1.9-1.4,5.2c0,3.4,0.6,5.3,1.4,5.3
		V26.7z"/>
	<path class="st0" d="M4.2,15.9H5v1.3H4.2V15.9z M4.2,18.4H5v6.4H4.2V18.4z"/>
	<path class="st0" d="M7.9,24.9H7.1v-6.4h0.7l0,1.4c0.4-0.9,1.3-1.5,2.3-1.5c1.4,0,2.4,0.9,2.4,2.3v4.2h-0.8v-4.2
		c0-1.1-0.7-1.8-1.8-1.8c-1.3,0-2.1,1-2.1,2.7V24.9z"/>
	<path class="st0" d="M15.1,21.7c0,1.7,0.9,2.7,2.3,2.7c1,0,1.8-0.6,1.8-1.6h0.8c0,1.3-1.1,2.1-2.5,2.1c-1.8,0-3.1-1.2-3.1-3.3
		c0-2.1,1.3-3.3,3.1-3.3c1.4,0,2.5,0.8,2.5,2.1h-0.8c0-0.9-0.7-1.6-1.8-1.6C16.1,18.9,15.1,19.9,15.1,21.7z"/>
	<path class="st0" d="M21.9,15.5h0.8v8.1c0,0.5,0.3,0.8,0.7,0.8v0.5c-1,0-1.5-0.4-1.5-1.3V15.5z"/>
	<path class="st0" d="M29.7,18.4h0.8v6.4h-0.7l0-1.4c-0.4,0.9-1.3,1.5-2.3,1.5c-1.4,0-2.4-0.9-2.4-2.3v-4.2h0.8v4.2
		c0,1.1,0.7,1.8,1.8,1.8c1.3,0,2.1-1,2.1-2.7V18.4z"/>
	<path class="st0" d="M38.2,24.9h-0.7l-0.1-1.4c-0.4,0.9-1.2,1.5-2.3,1.5c-1.7,0-2.9-1.2-2.9-3.3c0-2.1,1.2-3.3,2.9-3.3
		c1,0,1.8,0.5,2.3,1.4v-4.3h0.8V24.9z M35.3,18.9c-1.4,0-2.3,1-2.3,2.7s0.9,2.7,2.3,2.7c1.3,0,2.1-1,2.1-2.7S36.5,18.9,35.3,18.9z"
		/>
	<path class="st0" d="M40.2,15.9H41v1.3h-0.8V15.9z M40.2,18.4H41v6.4h-0.8V18.4z"/>
	<path class="st0" d="M43.9,24.9h-0.8v-6.4h0.7l0,1.4c0.4-0.9,1.3-1.5,2.3-1.5c1.4,0,2.4,0.9,2.4,2.3v4.2h-0.8v-4.2
		c0-1.1-0.7-1.8-1.8-1.8c-1.3,0-2.1,1-2.1,2.7V24.9z"/>
	<path class="st0" d="M55.5,24.9v-1.4c-0.4,0.9-1.2,1.4-2.3,1.4c-1.7,0-2.9-1.2-2.9-3.3c0-2.1,1.2-3.3,2.9-3.3c1,0,1.8,0.5,2.3,1.4
		l0.1-1.4h0.7v6.5c0,1.7-1.2,2.8-2.9,2.8c-1.6,0-2.8-0.8-2.8-2.1h0.7c0,0.9,0.9,1.6,2.1,1.6C54.6,27.2,55.5,26.3,55.5,24.9z
		 M53.4,18.9c-1.4,0-2.3,1-2.3,2.7s0.9,2.7,2.3,2.7c1.3,0,2.1-1,2.1-2.7S54.6,18.9,53.4,18.9z"/>
	<path class="st0" d="M61.8,23.3V19h-1.1v-0.5h1.1v-1.4h0.8v1.4h1.8V19h-1.8v4.4c0,0.7,0.5,1,1.3,1c0.2,0,0.3,0,0.5-0.1v0.5
		c-0.2,0-0.4,0.1-0.6,0.1C62.5,24.9,61.8,24.4,61.8,23.3z"/>
	<path class="st0" d="M66.8,24.9H66v-9.3h0.8v4.3c0.4-0.9,1.3-1.4,2.3-1.4c1.4,0,2.4,0.9,2.4,2.3v4.2h-0.8v-4.2
		c0-1.1-0.7-1.8-1.8-1.8c-1.3,0-2.1,1-2.1,2.7V24.9z"/>
	<path class="st0" d="M79,21.9h-5c0,1.6,0.9,2.5,2.3,2.5c1.1,0,1.9-0.6,1.9-1.5h0.7c0,1.2-1.1,2-2.6,2c-1.8,0-3.1-1.2-3.1-3.3
		c0-2.1,1.2-3.3,3.1-3.3C77.9,18.4,79,19.5,79,21.9z M74,21.3h4.2c0-1.5-0.8-2.4-1.9-2.4C75,18.9,74,19.8,74,21.3z"/>
	<path class="st0" d="M86.7,15.9h0.9l3.5,9h-0.8l-1-2.6h-4.2l-1,2.6h-0.8L86.7,15.9z M85.2,21.7h3.8l-1.9-5.1L85.2,21.7z"/>
	<path class="st0" d="M93.3,24.9h-0.8v-6.4h0.7l0,1.4c0.4-1,1.1-1.5,1.9-1.5c0.9,0,1.7,0.6,1.9,1.5c0.4-1,1.2-1.5,2.1-1.5
		c1.2,0,2.1,0.9,2.1,2.3v4.2h-0.8v-4.2c0-1.1-0.6-1.8-1.5-1.8c-1,0-1.8,1-1.8,2.7v3.2h-0.8v-4.2c0-1.1-0.6-1.8-1.5-1.8
		c-1,0-1.8,1-1.8,2.7V24.9z"/>
	<path class="st0" d="M108.9,21.9h-5c0,1.6,0.9,2.5,2.3,2.5c1.1,0,1.9-0.6,1.9-1.5h0.7c0,1.2-1.1,2-2.6,2c-1.8,0-3.1-1.2-3.1-3.3
		c0-2.1,1.2-3.3,3.1-3.3C107.8,18.4,109,19.5,108.9,21.9z M103.9,21.3h4.2c0-1.5-0.8-2.4-1.9-2.4C104.9,18.9,103.9,19.8,103.9,21.3z
		"/>
	<path class="st0" d="M111.6,24.9h-0.8v-6.4h0.7l0.1,1.5c0.4-1,1.3-1.5,2.3-1.5V19c-1.4,0-2.3,1.1-2.3,2.8V24.9z"/>
	<path class="st0" d="M115.6,15.9h0.8v1.3h-0.8V15.9z M115.6,18.4h0.8v6.4h-0.8V18.4z"/>
	<path class="st0" d="M119,21.7c0,1.7,0.9,2.7,2.3,2.7c1,0,1.8-0.6,1.8-1.6h0.8c0,1.3-1.1,2.1-2.5,2.1c-1.8,0-3.1-1.2-3.1-3.3
		c0-2.1,1.3-3.3,3.1-3.3c1.4,0,2.5,0.8,2.5,2.1H123c0-0.9-0.7-1.6-1.8-1.6C119.9,18.9,119,19.9,119,21.7z"/>
	<path class="st0" d="M129.7,23.5c-0.4,0.9-1.3,1.5-2.4,1.5c-1.1,0-2-0.6-2-1.7c0-1.4,1.4-2.2,3.8-2.2h0.5v-0.6c0-1-0.7-1.6-1.7-1.6
		c-1,0-1.8,0.6-1.8,1.5h-0.8c0-1.2,1.1-2,2.5-2c1.5,0,2.5,0.8,2.5,2.1v4.3h-0.7L129.7,23.5z M129.2,21.6c-2,0-3,0.6-3,1.6
		c0,0.7,0.5,1.2,1.3,1.2c1.3,0,2.2-1,2.2-2.6v-0.2H129.2z"/>
	<path class="st0" d="M133,22.9c0,0.9,0.8,1.5,1.8,1.5c1,0,1.7-0.5,1.7-1.2c0-1.9-4.1-0.6-4.1-3c0-1.1,1-1.8,2.3-1.8
		c1.3,0,2.3,0.7,2.3,1.9h-0.7c0-0.8-0.7-1.4-1.6-1.4s-1.5,0.5-1.5,1.2c0,1.8,4.1,0.5,4.1,3c0,1.1-1,1.8-2.5,1.8
		c-1.4,0-2.5-0.8-2.5-2H133z"/>
	<path class="st0" d="M4.8,38.9c-0.4,0.9-1.3,1.5-2.4,1.5c-1.1,0-2-0.6-2-1.7c0-1.4,1.4-2.2,3.8-2.2h0.5V36c0-1-0.7-1.6-1.7-1.6
		c-1,0-1.8,0.6-1.8,1.5H0.6c0-1.2,1.1-2,2.5-2c1.5,0,2.5,0.8,2.5,2.1v4.3H4.8L4.8,38.9z M4.3,37.1c-2,0-3,0.6-3,1.6
		c0,0.7,0.5,1.2,1.3,1.2c1.3,0,2.2-1,2.2-2.6v-0.2H4.3z"/>
	<path class="st0" d="M8.4,40.4H7.7v-6.4h0.7l0,1.4c0.4-0.9,1.3-1.5,2.3-1.5c1.4,0,2.4,0.9,2.4,2.3v4.2h-0.8v-4.2
		c0-1.1-0.7-1.8-1.8-1.8c-1.3,0-2.1,1-2.1,2.7V40.4z"/>
	<path class="st0" d="M20.9,40.4h-0.7l-0.1-1.4c-0.4,0.9-1.2,1.5-2.3,1.5c-1.7,0-2.9-1.2-2.9-3.3c0-2.1,1.2-3.3,2.9-3.3
		c1,0,1.8,0.5,2.3,1.4V31h0.8V40.4z M18,34.4c-1.4,0-2.3,1-2.3,2.7s0.9,2.7,2.3,2.7c1.3,0,2.1-1,2.1-2.7S19.2,34.4,18,34.4z"/>
	<path class="st0" d="M26.3,38.8v-4.3h-1.1v-0.5h1.1v-1.4h0.8v1.4h1.8v0.5h-1.8v4.4c0,0.7,0.5,1,1.3,1c0.2,0,0.3,0,0.5-0.1v0.5
		c-0.2,0-0.4,0.1-0.6,0.1C27,40.4,26.3,39.8,26.3,38.8z"/>
	<path class="st0" d="M31.3,40.4h-0.8V31h0.8v4.3c0.4-0.9,1.3-1.4,2.3-1.4c1.4,0,2.4,0.9,2.4,2.3v4.2h-0.8v-4.2
		c0-1.1-0.7-1.8-1.8-1.8c-1.3,0-2.1,1-2.1,2.7V40.4z"/>
	<path class="st0" d="M43.5,37.3h-5c0,1.6,0.9,2.5,2.3,2.5c1.1,0,1.9-0.6,1.9-1.5h0.7c0,1.2-1.1,2-2.6,2c-1.8,0-3.1-1.2-3.1-3.3
		c0-2.1,1.2-3.3,3.1-3.3C42.4,33.9,43.6,35,43.5,37.3z M38.5,36.8h4.2c0-1.5-0.8-2.4-1.9-2.4C39.5,34.4,38.5,35.3,38.5,36.8z"/>
	<path class="st0" d="M51.2,31.3h0.9l3.5,9h-0.8l-1-2.6h-4.2l-1,2.6h-0.8L51.2,31.3z M49.8,37.1h3.8l-1.9-5.1L49.8,37.1z"/>
	<path class="st0" d="M57.2,38.4c0,0.9,0.8,1.5,1.8,1.5c1,0,1.7-0.5,1.7-1.2c0-1.9-4.1-0.6-4.1-3c0-1.1,1-1.8,2.3-1.8
		c1.3,0,2.3,0.7,2.3,1.9h-0.7c0-0.8-0.7-1.4-1.6-1.4s-1.5,0.5-1.5,1.2c0,1.8,4.1,0.5,4.1,3c0,1.1-1,1.8-2.5,1.8
		c-1.4,0-2.5-0.8-2.5-2H57.2z"/>
	<path class="st0" d="M63.2,31.3H64v1.3h-0.8V31.3z M63.2,33.9H64v6.4h-0.8V33.9z"/>
	<path class="st0" d="M70.1,38.9c-0.4,0.9-1.3,1.5-2.4,1.5c-1.1,0-2-0.6-2-1.7c0-1.4,1.4-2.2,3.8-2.2h0.5V36c0-1-0.7-1.6-1.7-1.6
		c-1,0-1.8,0.6-1.8,1.5h-0.8c0-1.2,1.1-2,2.5-2c1.5,0,2.5,0.8,2.5,2.1v4.3h-0.7L70.1,38.9z M69.7,37.1c-2,0-3,0.6-3,1.6
		c0,0.7,0.5,1.2,1.3,1.2c1.3,0,2.2-1,2.2-2.6v-0.2H69.7z"/>
	<path class="st0" d="M76.1,31.3h3.2c1.6,0,2.8,1,2.8,2.6c0,1.6-1.1,2.6-2.8,2.6h-2.4v3.9h-0.8V31.3z M76.9,31.9v4h2.3
		c1.3,0,2.1-0.7,2.1-2c0-1.3-0.9-2-2.1-2H76.9z"/>
	<path class="st0" d="M87.7,38.9c-0.4,0.9-1.3,1.5-2.4,1.5c-1.1,0-2-0.6-2-1.7c0-1.4,1.4-2.2,3.8-2.2h0.5V36c0-1-0.7-1.6-1.7-1.6
		c-1,0-1.8,0.6-1.8,1.5h-0.8c0-1.2,1.1-2,2.5-2c1.5,0,2.5,0.8,2.5,2.1v4.3h-0.7L87.7,38.9z M87.2,37.1c-2,0-3,0.6-3,1.6
		c0,0.7,0.5,1.2,1.3,1.2c1.3,0,2.2-1,2.2-2.6v-0.2H87.2z"/>
	<path class="st0" d="M91,37.1c0,1.7,0.9,2.7,2.3,2.7c1,0,1.8-0.6,1.8-1.6h0.8c0,1.3-1.1,2.1-2.5,2.1c-1.8,0-3.1-1.2-3.1-3.3
		c0-2.1,1.3-3.3,3.1-3.3c1.4,0,2.5,0.8,2.5,2.1h-0.8c0-0.9-0.7-1.6-1.8-1.6C92,34.4,91,35.4,91,37.1z"/>
	<path class="st0" d="M97.8,31.3h0.8v1.3h-0.8V31.3z M97.8,33.9h0.8v6.4h-0.8V33.9z"/>
	<path class="st0" d="M104.5,34.4h-2.7v5.9H101v-5.9h-1v-0.5h1v-1.3c0-1.1,0.7-1.6,2-1.6c0.2,0,0.4,0,0.6,0.1v0.5
		c-0.2,0-0.3-0.1-0.5-0.1c-0.7,0-1.2,0.4-1.2,1v1.4h3.5v6.4h-0.8V34.4z M104.5,31.3h0.8v1.3h-0.8V31.3z"/>
	<path class="st0" d="M107.8,37.1c0,1.7,0.9,2.7,2.3,2.7c1,0,1.8-0.6,1.8-1.6h0.8c0,1.3-1.1,2.1-2.5,2.1c-1.8,0-3.1-1.2-3.1-3.3
		c0-2.1,1.3-3.3,3.1-3.3c1.4,0,2.5,0.8,2.5,2.1h-0.8c0-0.9-0.7-1.6-1.8-1.6C108.8,34.4,107.8,35.4,107.8,37.1z"/>
	<path class="st0" d="M114.1,30.6c1.3,0,2.2,2.1,2.2,5.8c0,3.6-0.9,5.8-2.2,5.8v-0.5c0.9,0,1.4-1.9,1.4-5.3c0-3.3-0.6-5.2-1.4-5.2
		V30.6z"/>
</g>
</svg>
