<!-- Generator: Adobe Illustrator 19.0.0, SVG Export Plug-In  -->
<svg version="1.1"
	 xmlns="http://www.w3.org/2000/svg" xmlns:xlink="http://www.w3.org/1999/xlink" xmlns:a="http://ns.adobe.com/AdobeSVGViewerExtensions/3.0/"
	 x="0px" y="0px" width="121.9px" height="26.6px" viewBox="0 0 121.9 26.6"
	 style="overflow:scroll;enable-background:new 0 0 121.9 26.6;" xml:space="preserve">
<style type="text/css">
	.st0{fill:#414042;}
</style>
<defs>
</defs>
<g>
	<path class="st0" d="M4.5,7.6H0V6.4l3.9-6.1h2.1v6.1h0.8v1.2H6.1v1.7H4.5V7.6z M4.5,6.4V1.9L1.6,6.4H4.5z"/>
	<path class="st0" d="M9.4,6.5c0,1.1,0.7,1.7,1.8,1.7s1.7-0.5,1.7-1.4c0-2.3-5-0.6-5-4c0-1.7,1.4-2.6,3.3-2.6c2,0,3.3,1.1,3.3,2.7
		h-1.7c0-0.9-0.6-1.5-1.5-1.5c-1,0-1.6,0.6-1.6,1.4c0,2.2,5.1,0.5,5.1,4c0,1.7-1.5,2.6-3.5,2.6C9,9.4,7.7,8.3,7.7,6.5H9.4z"/>
	<path class="st0" d="M21.8,6.6h-4.4c0,1.1,0.6,1.8,1.5,1.8c0.7,0,1.2-0.4,1.2-1.1h1.7c0,1.3-1.2,2.2-2.9,2.2
		c-1.9,0-3.3-1.2-3.3-3.3c0-2.1,1.3-3.3,3.3-3.3C20.7,2.8,22,4,21.8,6.6z M17.4,5.6h2.7c0-1.1-0.5-1.7-1.2-1.7
		C18.1,3.9,17.4,4.5,17.4,5.6z"/>
	<path class="st0" d="M24.9,9.3h-1.7V2.9h1.5L24.9,4c0.4-0.8,1.2-1.1,2-1.1V4c-1.1,0-2,1-2,2.5V9.3z"/>
	<path class="st0" d="M31.9,9.3H30l-2.4-6.4h1.7l1.7,5l1.7-5h1.7L31.9,9.3z"/>
	<path class="st0" d="M35.3,0.3H37v1.6h-1.7V0.3z M35.3,2.9H37v6.4h-1.7V2.9z"/>
	<path class="st0" d="M39.9,6.1c0,1.4,0.6,2.2,1.5,2.2c0.7,0,1.1-0.5,1.1-1.3h1.7c0,1.5-1.2,2.4-2.8,2.4c-1.9,0-3.3-1.2-3.3-3.3
		c0-2.1,1.3-3.3,3.3-3.3c1.6,0,2.8,0.9,2.8,2.4h-1.7c0-0.8-0.5-1.3-1.1-1.3C40.5,3.9,39.9,4.7,39.9,6.1z"/>
	<path class="st0" d="M51.4,6.6H47c0,1.1,0.6,1.8,1.5,1.8c0.7,0,1.2-0.4,1.2-1.1h1.7c0,1.3-1.2,2.2-2.9,2.2c-1.9,0-3.3-1.2-3.3-3.3
		c0-2.1,1.3-3.3,3.3-3.3C50.3,2.8,51.6,4,51.4,6.6z M47,5.6h2.7c0-1.1-0.5-1.7-1.2-1.7C47.7,3.9,47,4.5,47,5.6z"/>
	<path class="st0" d="M61.5,6.3h-5c0,1.6,0.9,2.5,2.3,2.5c1.1,0,1.9-0.6,1.9-1.5h0.7c0,1.2-1.1,2-2.6,2c-1.8,0-3.1-1.2-3.1-3.3
		s1.2-3.3,3.1-3.3C60.4,2.9,61.5,4,61.5,6.3z M56.5,5.8h4.2c0-1.5-0.8-2.4-1.9-2.4C57.5,3.4,56.5,4.3,56.5,5.8z"/>
	<path class="st0" d="M63.8,7.3c0,0.9,0.8,1.5,1.8,1.5c1,0,1.7-0.5,1.7-1.2c0-1.9-4.1-0.6-4.1-3c0-1.1,1-1.8,2.3-1.8
		c1.3,0,2.3,0.7,2.3,1.9h-0.7c0-0.8-0.7-1.4-1.6-1.4S64,3.9,64,4.6c0,1.8,4.1,0.5,4.1,3c0,1.1-1,1.8-2.5,1.8c-1.4,0-2.5-0.8-2.5-2
		H63.8z"/>
	<path class="st0" d="M70.1,7.7V3.4H69V2.9h1.1V1.5h0.8v1.4h1.8v0.5h-1.8v4.4c0,0.7,0.5,1,1.3,1c0.2,0,0.3,0,0.5-0.1v0.5
		c-0.2,0-0.4,0.1-0.6,0.1C70.8,9.4,70.1,8.8,70.1,7.7z"/>
	<path class="st0" d="M78.3,7.9c-0.4,0.9-1.3,1.5-2.4,1.5c-1.1,0-2-0.6-2-1.7c0-1.4,1.4-2.2,3.8-2.2h0.5V5c0-1-0.7-1.6-1.7-1.6
		c-1,0-1.8,0.6-1.8,1.5H74c0-1.2,1.1-2,2.5-2C78,2.9,79,3.6,79,5v4.3h-0.7L78.3,7.9z M77.8,6c-2,0-3,0.6-3,1.6
		c0,0.7,0.5,1.2,1.3,1.2c1.3,0,2.2-1,2.2-2.6V6H77.8z"/>
	<path class="st0" d="M81.2,0h0.8v4.3c0.4-0.9,1.2-1.4,2.3-1.4c1.7,0,2.9,1.2,2.9,3.3s-1.2,3.3-2.9,3.3c-1,0-1.8-0.5-2.3-1.4l0,1.4
		h-0.7V0z M84.1,8.8c1.4,0,2.3-1,2.3-2.7c0-1.7-0.9-2.7-2.3-2.7c-1.3,0-2.1,1-2.1,2.7C81.9,7.9,82.8,8.8,84.1,8.8z"/>
	<path class="st0" d="M88.9,0h0.8v8.1c0,0.5,0.3,0.8,0.7,0.8v0.5c-1,0-1.5-0.4-1.5-1.3V0z"/>
	<path class="st0" d="M92,0.3h0.8v1.3H92V0.3z M92,2.9h0.8v6.4H92V2.9z"/>
	<path class="st0" d="M95.3,7.3c0,0.9,0.8,1.5,1.8,1.5c1,0,1.7-0.5,1.7-1.2c0-1.9-4.1-0.6-4.1-3c0-1.1,1-1.8,2.3-1.8
		c1.3,0,2.3,0.7,2.3,1.9h-0.7C98.6,4,98,3.4,97,3.4s-1.5,0.5-1.5,1.2c0,1.8,4.1,0.5,4.1,3c0,1.1-1,1.8-2.5,1.8c-1.4,0-2.5-0.8-2.5-2
		H95.3z"/>
	<path class="st0" d="M102.2,9.3h-0.8V0h0.8v4.3c0.4-0.9,1.3-1.4,2.3-1.4c1.4,0,2.4,0.9,2.4,2.3v4.2H106V5.2c0-1.1-0.7-1.8-1.8-1.8
		c-1.3,0-2.1,1-2.1,2.7V9.3z"/>
	<path class="st0" d="M114.3,6.3h-5c0,1.6,0.9,2.5,2.3,2.5c1.1,0,1.9-0.6,1.9-1.5h0.7c0,1.2-1.1,2-2.6,2c-1.8,0-3.1-1.2-3.1-3.3
		s1.2-3.3,3.1-3.3C113.2,2.9,114.4,4,114.3,6.3z M109.4,5.8h4.2c0-1.5-0.8-2.4-1.9-2.4C110.3,3.4,109.4,4.3,109.4,5.8z"/>
	<path class="st0" d="M121.9,9.3h-0.7l-0.1-1.4c-0.4,0.9-1.2,1.5-2.3,1.5c-1.7,0-2.9-1.2-2.9-3.3s1.2-3.3,2.9-3.3
		c1,0,1.8,0.5,2.3,1.4V0h0.8V9.3z M119,3.4c-1.4,0-2.3,1-2.3,2.7c0,1.7,0.9,2.7,2.3,2.7c1.3,0,2.1-1,2.1-2.7
		C121.1,4.4,120.2,3.4,119,3.4z"/>
	<path class="st0" d="M0.6,15.8h0.8v1.3H0.6V15.8z M0.6,18.4h0.8v6.4H0.6V18.4z"/>
	<path class="st0" d="M4.3,24.8H3.5v-6.4h0.7l0,1.4c0.4-0.9,1.3-1.5,2.3-1.5c1.4,0,2.4,0.9,2.4,2.3v4.2H8.2v-4.2
		c0-1.1-0.7-1.8-1.8-1.8c-1.3,0-2.1,1-2.1,2.7V24.8z"/>
	<path class="st0" d="M16.1,20.2l-1.2,1.3v3.3h-0.8v-9h0.8v4.7l4.3-4.7h0.9l-3.5,3.9l3.9,5.1h-0.9L16.1,20.2z"/>
	<path class="st0" d="M21.9,15.8h0.8v1.3h-0.8V15.8z M21.9,18.4h0.8v6.4h-0.8V18.4z"/>
	<path class="st0" d="M30.2,21.8h-5c0,1.6,0.9,2.5,2.3,2.5c1.1,0,1.9-0.6,1.9-1.5h0.7c0,1.2-1.1,2-2.6,2c-1.8,0-3.1-1.2-3.1-3.3
		s1.2-3.3,3.1-3.3C29.1,18.3,30.3,19.5,30.2,21.8z M25.3,21.3h4.2c0-1.5-0.8-2.4-1.9-2.4C26.2,18.9,25.3,19.8,25.3,21.3z"/>
	<path class="st0" d="M34.7,24.8h-0.9l-2.7-6.4H32l2.3,5.7l2.3-5.7h0.8L34.7,24.8z"/>
	<path class="st0" d="M37.9,23.6h1v1.2c0,1-0.4,1.8-1,1.8v-0.5c0.3,0,0.5-0.5,0.5-1.3h-0.4V23.6z"/>
	<path class="st0" d="M49.9,15.8h0.8v6c0,1.9-1.5,3.1-3.5,3.1c-2,0-3.5-1.2-3.5-3.1v-6h0.8v6c0,1.5,1.1,2.5,2.7,2.5
		c1.6,0,2.7-1,2.7-2.5V15.8z"/>
	<path class="st0" d="M54.5,21.8l-0.8,0.9v2.1h-0.8v-9.3h0.8v6.2l2.9-3.3h0.9L55,21.2l2.8,3.6h-0.8L54.5,21.8z"/>
	<path class="st0" d="M60.1,24.8h-0.8v-6.4H60l0.1,1.5c0.4-1,1.3-1.5,2.3-1.5v0.6c-1.4,0-2.3,1.1-2.3,2.8V24.8z"/>
	<path class="st0" d="M67.9,23.4c-0.4,0.9-1.3,1.5-2.4,1.5c-1.1,0-2-0.6-2-1.7c0-1.4,1.4-2.2,3.8-2.2h0.5v-0.6c0-1-0.7-1.6-1.7-1.6
		c-1,0-1.8,0.6-1.8,1.5h-0.8c0-1.2,1.1-2,2.5-2c1.5,0,2.5,0.8,2.5,2.1v4.3H68L67.9,23.4z M67.4,21.5c-2,0-3,0.6-3,1.6
		c0,0.7,0.5,1.2,1.3,1.2c1.3,0,2.2-1,2.2-2.6v-0.2H67.4z"/>
	<path class="st0" d="M70.8,15.8h0.8v1.3h-0.8V15.8z M70.8,18.4h0.8v6.4h-0.8V18.4z"/>
	<path class="st0" d="M74.5,24.8h-0.8v-6.4h0.7l0,1.4c0.4-0.9,1.3-1.5,2.3-1.5c1.4,0,2.4,0.9,2.4,2.3v4.2h-0.8v-4.2
		c0-1.1-0.7-1.8-1.8-1.8c-1.3,0-2.1,1-2.1,2.7V24.8z"/>
	<path class="st0" d="M86.7,21.8h-5c0,1.6,0.9,2.5,2.3,2.5c1.1,0,1.9-0.6,1.9-1.5h0.7c0,1.2-1.1,2-2.6,2c-1.8,0-3.1-1.2-3.1-3.3
		s1.2-3.3,3.1-3.3C85.6,18.3,86.7,19.5,86.7,21.8z M81.7,21.3h4.2c0-1.5-0.8-2.4-1.9-2.4C82.7,18.9,81.7,19.8,81.7,21.3z"/>
</g>
</svg>
