<!-- Generator: Adobe Illustrator 19.0.0, SVG Export Plug-In  -->
<svg version="1.1"
	 xmlns="http://www.w3.org/2000/svg" xmlns:xlink="http://www.w3.org/1999/xlink" xmlns:a="http://ns.adobe.com/AdobeSVGViewerExtensions/3.0/"
	 x="0px" y="0px" width="21.9px" height="36.3px" viewBox="0 0 21.9 36.3"
	 style="overflow:scroll;enable-background:new 0 0 21.9 36.3;" xml:space="preserve">
<style type="text/css">
	.st0{fill:#414042;}
</style>
<defs>
</defs>
<g>
	<g>
		<g>
			<path class="st0" d="M0.7,31.8c-0.4,0-0.7-0.3-0.7-0.7V0.7C0,0.3,0.3,0,0.7,0h20.5c0.4,0,0.7,0.3,0.7,0.7v30.7
				c0,0.4-0.3,0.7-0.7,0.7s-0.7-0.3-0.7-0.7v-30h-19v29.6C1.5,31.5,1.1,31.8,0.7,31.8z"/>
		</g>
		<g>
			<path class="st0" d="M11.3,36.3c-0.1,0-0.2,0-0.3-0.1L0.4,31.8c-0.4-0.2-0.5-0.6-0.4-1c0.2-0.4,0.6-0.5,0.9-0.4l9.6,4V5.7
				L0.4,1.4c-0.4-0.2-0.5-0.6-0.4-1C0.2,0.1,0.6-0.1,1,0.1l10.6,4.5C11.8,4.6,12,4.9,12,5.2v30.4c0,0.2-0.1,0.5-0.3,0.6
				C11.6,36.2,11.4,36.3,11.3,36.3z"/>
		</g>
	</g>
	<g>
		<path class="st0" d="M8.4,24.3c-1.1,0-2.1-0.9-2.1-2.1v-5.5c0-1.1,0.9-2.1,2.1-2.1c0.4,0,0.7,0.3,0.7,0.7c0,0.4-0.3,0.7-0.7,0.7
			c-0.3,0-0.6,0.3-0.6,0.6v5.5c0,0.3,0.3,0.6,0.6,0.6c0.4,0,0.7,0.3,0.7,0.7C9.1,24,8.8,24.3,8.4,24.3z"/>
	</g>
</g>
</svg>
