<!-- Generator: Adobe Illustrator 19.0.0, SVG Export Plug-In  -->
<svg version="1.1"
	 xmlns="http://www.w3.org/2000/svg" xmlns:xlink="http://www.w3.org/1999/xlink" xmlns:a="http://ns.adobe.com/AdobeSVGViewerExtensions/3.0/"
	 x="0px" y="0px" width="55.2px" height="13px" viewBox="0 0 55.2 13" style="overflow:scroll;enable-background:new 0 0 55.2 13;"
	 xml:space="preserve">
<style type="text/css">
	.st0{fill:#414042;}
</style>
<defs>
</defs>
<g>
	<g>
		<path class="st0" d="M53.9,2.7c-0.6,0-1.2-0.5-1.2-1.2c0-0.7,0.6-1.2,1.2-1.2c0.7,0,1.2,0.6,1.2,1.2C55.1,2.2,54.6,2.7,53.9,2.7z
			 M53.9,0.4c-0.6,0-1.1,0.5-1.1,1.1c0,0.6,0.5,1.1,1.1,1.1c0.6,0,1.1-0.5,1.1-1.1C55,0.9,54.6,0.4,53.9,0.4z M53.9,0.7
			c0.1,0,0.3,0,0.4,0c0.2,0.1,0.3,0.2,0.3,0.4c0,0.2-0.2,0.3-0.3,0.4c0.1,0.1,0.1,0.1,0.2,0.3c0,0.2,0.1,0.3,0.1,0.5h-0.4
			c0-0.1-0.1-0.2-0.1-0.3c0-0.3-0.1-0.3-0.3-0.3h-0.1v0.7h-0.4V0.7H53.9z M53.7,1.3h0.2c0.1,0,0.2,0,0.2,0c0,0,0.1-0.1,0.1-0.1
			c0-0.1,0-0.1-0.1-0.1c0,0-0.1,0-0.3,0h-0.1V1.3z"/>
		<g>
			<path class="st0" d="M19.6,8.4c0.3,0.5,0.6,1,1.7,1.3C21.8,9.9,22.4,10,23,10c0.3,0,1.8,0,1.8-0.9c0-0.1,0-0.5-0.7-0.8
				c-0.4-0.2-2.7-0.6-3.2-0.7c-1.1-0.3-3.3-1-3.3-3.6c0-0.5,0.1-1.1,0.3-1.6C18.8,0.7,20.9,0,23,0c1.4,0,2.7,0.3,3.7,0.8
				c0.9,0.4,1.4,0.9,1.8,1.4l-2.4,2c-0.2-0.2-0.4-0.5-0.9-0.8c-0.7-0.3-1.6-0.4-2.3-0.4c-0.7,0-1.4,0.2-1.4,0.8
				c0,0.6,0.6,0.7,1.7,0.9c2.7,0.5,5.4,1,5.4,4c0,1.3-0.5,2.2-1.1,2.7C26,13,23.5,13,22.9,13c-0.9,0-1.9-0.1-2.8-0.4
				c-1.9-0.6-2.8-1.6-3.4-2.3L19.6,8.4z"/>
			<g>
				<g>
					<path class="st0" d="M0,1c0-0.4,0.3-0.6,0.6-0.6h4.2c0.4,0,0.7,0.3,0.8,0.6l1.2,4.4c0.1,0.3,0.2,0.9,0.3,1.3c0,0,0.2,0.9,0.4,2
						c0.2-1.5,0.3-1.8,0.6-3L9.3,1c0.1-0.3,0.5-0.6,0.8-0.6h4.2C14.7,0.4,15,0.7,15,1v10.9c0,0.4-0.3,0.6-0.6,0.6h-3V6.2
						c0-0.4,0-0.9,0-1.3c0,0,0-0.5,0.1-1.5c-0.2,0.9-0.2,1.1-0.5,2L9.1,12c-0.1,0.3-0.5,0.6-0.8,0.6H6.7c-0.4,0-0.7-0.3-0.8-0.6
						L4.3,6.4C4.2,6,4.1,5.5,4,5.1c0,0-0.1-0.4-0.4-1.7c0.1,0.8,0.1,1,0.1,1.6v7.5h-3c-0.4,0-0.6-0.3-0.6-0.6V1z"/>
				</g>
				<g>
					<path class="st0" d="M30.9,1c0-0.4,0.3-0.6,0.6-0.6h5.7c0.4,0,0.9,0,1.3,0c0,0,1.8,0.1,2.8,1.1c0.9,1,1,2.1,1,2.9
						c0,1-0.2,2.1-1.2,3.1c-1,1.1-2.1,1.1-3.5,1.1h-2.3c-0.4,0-0.6,0.3-0.6,0.6v3.3h-3.2c-0.4,0-0.6-0.3-0.6-0.6V1z M35.4,2.9
						c-0.4,0-0.6,0.3-0.6,0.6l0,2.5l1.6,0c0.4,0,0.8,0,1.1,0c0,0,0,0,0.2-0.1c0.6-0.2,0.9-0.7,0.9-1.5c0-1.4-1-1.5-1-1.5
						c-0.4,0-0.9,0-1.3,0H35.4z"/>
				</g>
				<g>
					<path class="st0" d="M45.4,2.3c0.1-0.3,0-0.8-0.2-1.1l-0.4-0.4c-0.2-0.3-0.2-0.5,0.2-0.5h4.9c0.4,0,0.7,0.3,0.9,0.6l4.1,11
						c0.1,0.3-0.1,0.6-0.4,0.6h-2.9c-0.4,0-0.7-0.3-0.8-0.6l-0.1-0.5c-0.1-0.3-0.5-0.6-0.8-0.6h-3.6l-0.5,1.7l-3.5,0
						c-0.4,0-0.5-0.3-0.4-0.6L45.4,2.3z M48.5,4.5c-0.1-0.3-0.3-0.3-0.4,0l-0.9,3.1c-0.1,0.3,0.1,0.6,0.5,0.6h1.3
						c0.4,0,0.6-0.3,0.5-0.6L48.5,4.5z"/>
				</g>
			</g>
		</g>
	</g>
</g>
</svg>
