<!-- Generator: Adobe Illustrator 19.0.0, SVG Export Plug-In  -->
<svg version="1.1"
	 xmlns="http://www.w3.org/2000/svg" xmlns:xlink="http://www.w3.org/1999/xlink" xmlns:a="http://ns.adobe.com/AdobeSVGViewerExtensions/3.0/"
	 x="0px" y="0px" width="42.4px" height="6.3px" viewBox="0 0 42.4 6.3"
	 style="overflow:scroll;enable-background:new 0 0 42.4 6.3;" xml:space="preserve">
<style type="text/css">
	.st0{fill:#414042;}
</style>
<defs>
</defs>
<g>
	<path class="st0" d="M5.9,0v6.3H4.7l0.1-5.2L3.5,6.3H2.4L1,1.1l0.1,5.2H0V0h1.7l1.2,4.7L4.1,0H5.9z"/>
	<path class="st0" d="M9.6,1.1v1.5h3v1h-3v1.7h3.5v1.1H8.4V0h4.5v1.1H9.6z"/>
	<path class="st0" d="M21,0v6.3h-1.2l0.1-5.2l-1.4,5.2h-1.1l-1.4-5.2l0.1,5.2h-1.2V0h1.7l1.2,4.7L19.3,0H21z"/>
	<path class="st0" d="M23.6,0h2.2c0.8,0,1.1,0,1.4,0.1c0.6,0.2,1.1,0.8,1.1,1.4c0,0.3-0.1,0.6-0.3,0.9c-0.2,0.3-0.4,0.4-0.8,0.5
		c0.7,0.1,1.3,0.7,1.3,1.7c0,0.7-0.4,1.4-1.1,1.6C27,6.3,26.7,6.3,26,6.3h-2.5V0z M24.7,1v1.6h0.4c0.3,0,0.6,0,0.7,0
		c0.3,0,0.6,0,0.8-0.1c0.2-0.1,0.4-0.4,0.4-0.7c0-0.2-0.1-0.5-0.4-0.6C26.4,1,26.3,1,25.5,1H24.7z M24.7,3.4v1.9h1.2
		c0.7,0,0.9,0,1.2-0.2c0.2-0.1,0.3-0.4,0.3-0.7c0-0.1,0-0.3-0.1-0.5c-0.3-0.5-0.9-0.5-1.3-0.5L24.7,3.4z"/>
	<path class="st0" d="M32,1.1v1.5h3v1h-3v1.7h3.5v1.1h-4.7V0h4.5v1.1H32z"/>
	<path class="st0" d="M37.6,0h2c0.8,0,1.4,0,2,0.5c0.4,0.3,0.7,0.8,0.7,1.6c0,1.2-0.9,1.6-1.2,1.7l1.4,2.6H41L39.8,4h-1.1v2.3h-1.2
		V0z M38.7,1v2h0.4c0.4,0,0.6,0,0.8,0C40.2,3,41,2.9,41,2c0-0.1,0-0.6-0.5-0.8C40.3,1,40,1,39.3,1H38.7z"/>
</g>
</svg>
