<!-- Generator: Adobe Illustrator 19.0.0, SVG Export Plug-In  -->
<svg version="1.1"
	 xmlns="http://www.w3.org/2000/svg" xmlns:xlink="http://www.w3.org/1999/xlink" xmlns:a="http://ns.adobe.com/AdobeSVGViewerExtensions/3.0/"
	 x="0px" y="0px" width="29.8px" height="29.7px" viewBox="0 0 29.8 29.7"
	 style="overflow:scroll;enable-background:new 0 0 29.8 29.7;" xml:space="preserve">
<style type="text/css">
	.st0{fill:#414042;}
</style>
<defs>
</defs>
<g>
	<g>
		<path class="st0" d="M29,15.2c-0.2,0-0.4-0.1-0.6-0.2L14.9,1.9L1.3,15c-0.3,0.3-0.8,0.3-1.1,0c-0.3-0.3-0.3-0.8,0-1.1L14.3,0.2
			c0.3-0.3,0.8-0.3,1.1,0l14.1,13.7c0.3,0.3,0.3,0.8,0,1.1C29.4,15.2,29.2,15.2,29,15.2z"/>
	</g>
	<g>
		<path class="st0" d="M25,29.7h-6.3c-0.4,0-0.8-0.4-0.8-0.8v-9.8h-6v9.8c0,0.4-0.4,0.8-0.8,0.8H4.8c-0.4,0-0.8-0.4-0.8-0.8V14.1
			c0-0.4,0.4-0.8,0.8-0.8c0.4,0,0.8,0.4,0.8,0.8v14h4.8v-9.8c0-0.4,0.4-0.8,0.8-0.8h7.6c0.4,0,0.8,0.4,0.8,0.8v9.8h4.8V14.5
			c0-0.4,0.4-0.8,0.8-0.8c0.4,0,0.8,0.4,0.8,0.8v14.4C25.8,29.3,25.4,29.7,25,29.7z"/>
	</g>
</g>
</svg>
