<!-- Generator: Adobe Illustrator 19.0.0, SVG Export Plug-In  -->
<svg version="1.1"
	 xmlns="http://www.w3.org/2000/svg" xmlns:xlink="http://www.w3.org/1999/xlink" xmlns:a="http://ns.adobe.com/AdobeSVGViewerExtensions/3.0/"
	 x="0px" y="0px" width="146.5px" height="26.9px" viewBox="0 0 146.5 26.9"
	 style="overflow:scroll;enable-background:new 0 0 146.5 26.9;" xml:space="preserve">
<style type="text/css">
	.st0{fill:#414042;}
</style>
<defs>
</defs>
<g>
	<g>
		<path class="st0" d="M0.3,0.4h1.2l3.4,8.1l3.4-8.1h1.2v9H8.6v-8l-3.4,8H4.4L1,1.4v8H0.3V0.4z"/>
		<path class="st0" d="M14.4,2.9c1.8,0,3.1,1.2,3.1,3.3s-1.3,3.3-3.1,3.3c-1.8,0-3.1-1.2-3.1-3.3S12.5,2.9,14.4,2.9z M14.4,8.9
			c1.4,0,2.3-1,2.3-2.7c0-1.7-0.9-2.7-2.3-2.7c-1.4,0-2.3,1-2.3,2.7C12.1,7.9,13,8.9,14.4,8.9z"/>
		<path class="st0" d="M19.6,7.4c0,0.9,0.8,1.5,1.8,1.5c1,0,1.7-0.5,1.7-1.2c0-1.9-4.1-0.6-4.1-3c0-1.1,1-1.8,2.3-1.8
			c1.3,0,2.3,0.7,2.3,1.9H23c0-0.8-0.7-1.4-1.6-1.4s-1.5,0.5-1.5,1.2c0,1.8,4.1,0.5,4.1,3c0,1.1-1,1.8-2.5,1.8c-1.4,0-2.5-0.8-2.5-2
			H19.6z"/>
		<path class="st0" d="M26.2,6.2c0,1.7,0.9,2.7,2.3,2.7c1,0,1.8-0.6,1.8-1.6H31c0,1.3-1.1,2.1-2.5,2.1c-1.8,0-3.1-1.2-3.1-3.3
			s1.3-3.3,3.1-3.3C29.9,2.9,31,3.7,31,5h-0.8c0-0.9-0.7-1.6-1.8-1.6C27.1,3.4,26.2,4.4,26.2,6.2z"/>
		<path class="st0" d="M35.7,2.9c1.8,0,3.1,1.2,3.1,3.3s-1.3,3.3-3.1,3.3c-1.8,0-3.1-1.2-3.1-3.3S33.9,2.9,35.7,2.9z M35.7,8.9
			c1.4,0,2.3-1,2.3-2.7c0-1.7-0.9-2.7-2.3-2.7c-1.4,0-2.3,1-2.3,2.7C33.4,7.9,34.3,8.9,35.7,8.9z"/>
		<path class="st0" d="M44.4,3.9l-1.7,5.4h-0.9l-2.2-6.4h0.8l1.8,5.7L44,2.9h0.8l1.8,5.7l1.8-5.7h0.8L47,9.4h-0.9L44.4,3.9z"/>
		<path class="st0" d="M54.4,9.4h-0.8V0h0.8v4.3c0.4-0.9,1.3-1.4,2.3-1.4c1.4,0,2.4,0.9,2.4,2.3v4.2h-0.8V5.2c0-1.1-0.7-1.8-1.8-1.8
			c-1.3,0-2.1,1-2.1,2.7V9.4z"/>
		<path class="st0" d="M65.7,2.9h0.8v6.4h-0.7l0-1.4c-0.4,0.9-1.3,1.5-2.3,1.5c-1.4,0-2.4-0.9-2.4-2.3V2.9h0.8v4.2
			c0,1.1,0.7,1.8,1.8,1.8c1.3,0,2.1-1,2.1-2.7V2.9z"/>
		<path class="st0" d="M68.6,0h0.8v4.3c0.4-0.9,1.2-1.4,2.3-1.4c1.7,0,2.9,1.2,2.9,3.3s-1.2,3.3-2.9,3.3c-1,0-1.8-0.5-2.3-1.4l0,1.4
			h-0.7V0z M71.5,8.9c1.4,0,2.3-1,2.3-2.7c0-1.7-0.9-2.7-2.3-2.7c-1.3,0-2.1,1-2.1,2.7C69.4,7.9,70.2,8.9,71.5,8.9z"/>
		<path class="st0" d="M82.2,0.1v0.5c-0.2,0-0.3-0.1-0.5-0.1c-0.7,0-1.2,0.4-1.2,1v1.4h1.8v0.5h-1.8v5.9h-0.8V3.5h-1V2.9h1V1.6
			c0-1.1,0.7-1.6,2-1.6C81.8,0,82,0,82.2,0.1z"/>
		<path class="st0" d="M86.3,2.9c1.8,0,3.1,1.2,3.1,3.3s-1.3,3.3-3.1,3.3c-1.8,0-3.1-1.2-3.1-3.3S84.5,2.9,86.3,2.9z M86.3,8.9
			c1.4,0,2.3-1,2.3-2.7c0-1.7-0.9-2.7-2.3-2.7c-1.4,0-2.3,1-2.3,2.7C84,7.9,84.9,8.9,86.3,8.9z"/>
		<path class="st0" d="M91.9,9.4h-0.8V2.9h0.7l0.1,1.5c0.4-1,1.3-1.5,2.3-1.5v0.6c-1.4,0-2.3,1.1-2.3,2.8V9.4z"/>
		<path class="st0" d="M0,15.8h3.8c1.8,0,3,1,3,2.7c0,1.3-0.8,2.2-1.9,2.6l2.3,3.8H5.2l-1.9-3.6H1.8v3.6H0V15.8z M1.8,17v3h1.6
			c1,0,1.6-0.5,1.6-1.5c0-1-0.6-1.5-1.6-1.5H1.8z"/>
		<path class="st0" d="M12.3,18.4H14v6.4h-1.6l-0.1-0.9c-0.4,0.6-1.1,1-1.9,1C9,24.9,8,24.1,8,22.7v-4.3h1.7v4.3
			c0,0.7,0.4,1.1,1.1,1.1c0.9,0,1.4-0.8,1.4-2.2V18.4z"/>
		<path class="st0" d="M16.9,22.8c0,0.7,0.5,1.1,1.1,1.1c0.7,0,1.1-0.3,1.1-0.8c0-1.4-3.8-0.3-3.8-2.8c0-1.2,1.1-1.9,2.7-1.9
			c1.5,0,2.6,0.8,2.6,2h-1.6c0-0.6-0.4-1-1-1c-0.6,0-1,0.3-1,0.8c0,1.3,3.8,0.3,3.8,2.8c0,1.2-1.2,1.9-2.9,1.9
			c-1.6,0-2.8-0.8-2.8-2.2H16.9z"/>
		<path class="st0" d="M23.5,22.8c0,0.7,0.5,1.1,1.1,1.1c0.7,0,1.1-0.3,1.1-0.8c0-1.4-3.8-0.3-3.8-2.8c0-1.2,1.1-1.9,2.7-1.9
			c1.5,0,2.6,0.8,2.6,2h-1.6c0-0.6-0.4-1-1-1c-0.6,0-1,0.3-1,0.8c0,1.3,3.8,0.3,3.8,2.8c0,1.2-1.2,1.9-2.9,1.9
			c-1.6,0-2.8-0.8-2.8-2.2H23.5z"/>
		<path class="st0" d="M28.7,15.8h1.7v1.6h-1.7V15.8z M28.7,18.4h1.7v6.4h-1.7V18.4z"/>
		<path class="st0" d="M35.8,23.9c-0.4,0.6-1.1,1-1.9,1c-1.3,0-2.2-0.6-2.2-1.7c0-1.4,1.4-2.2,3.7-2.2h0.4v-0.4
			c0-0.8-0.5-1.2-1.2-1.2c-0.7,0-1.1,0.4-1.1,1.1h-1.7c0-1.4,1.1-2.2,2.8-2.2c1.7,0,2.9,0.8,2.9,2.3v4.3h-1.6L35.8,23.9z M35.3,21.9
			c-1.3,0-1.9,0.4-1.9,1.2c0,0.5,0.3,0.8,0.9,0.8c0.9,0,1.4-0.7,1.4-1.8v-0.2H35.3z"/>
		<path class="st0" d="M38.9,23.2h1.7v1.7c0,1.2-0.7,2.1-1.7,2.1V26c0.4,0,0.6-0.5,0.6-1.1h-0.6V23.2z"/>
		<path class="st0" d="M45.3,15.8H49c1.8,0,2.9,0.9,2.9,2.3c0,0.9-0.5,1.6-1.3,2c1,0.3,1.7,1.1,1.7,2.3c0,1.5-1.2,2.5-3,2.5h-4V15.8
			z M47.1,17v2.6h1.5c0.9,0,1.5-0.5,1.5-1.3c0-0.8-0.6-1.3-1.5-1.3H47.1z M48.9,23.7c1,0,1.6-0.5,1.6-1.5s-0.6-1.4-1.6-1.4h-1.8v2.9
			H48.9z"/>
		<path class="st0" d="M59.4,22.1H55c0,1.1,0.6,1.8,1.5,1.8c0.7,0,1.2-0.4,1.2-1.1h1.7c0,1.3-1.2,2.2-2.9,2.2
			c-1.9,0-3.3-1.2-3.3-3.3c0-2.1,1.3-3.3,3.3-3.3C58.3,18.3,59.6,19.5,59.4,22.1z M55,21.1h2.7c0-1.1-0.5-1.7-1.2-1.7
			C55.7,19.4,55,20,55,21.1z"/>
		<path class="st0" d="M60.7,15.5h1.7v7.8c0,0.4,0.2,0.6,0.5,0.6v1.1c-1.6,0-2.2-0.4-2.2-1.5V15.5z"/>
		<path class="st0" d="M68,23.9c-0.4,0.6-1.1,1-1.9,1c-1.3,0-2.2-0.6-2.2-1.7c0-1.4,1.4-2.2,3.7-2.2H68v-0.4c0-0.8-0.5-1.2-1.2-1.2
			c-0.7,0-1.1,0.4-1.1,1.1H64c0-1.4,1.1-2.2,2.8-2.2c1.7,0,2.9,0.8,2.9,2.3v4.3h-1.6L68,23.9z M67.6,21.9c-1.3,0-1.9,0.4-1.9,1.2
			c0,0.5,0.3,0.8,0.9,0.8c0.9,0,1.4-0.7,1.4-1.8v-0.2H67.6z"/>
		<path class="st0" d="M72.9,24.9h-1.7v-6.4h1.5l0.2,1.1c0.4-0.8,1.2-1.1,2-1.1v1.2c-1.1,0-2,1-2,2.5V24.9z"/>
		<path class="st0" d="M80.3,18.4h1.7v6.4h-1.6l-0.1-0.9c-0.4,0.6-1.1,1-1.9,1c-1.4,0-2.3-0.8-2.3-2.2v-4.3h1.7v4.3
			c0,0.7,0.4,1.1,1.1,1.1c0.9,0,1.4-0.8,1.4-2.2V18.4z"/>
		<path class="st0" d="M84.9,22.8c0,0.7,0.5,1.1,1.1,1.1c0.7,0,1.1-0.3,1.1-0.8c0-1.4-3.8-0.3-3.8-2.8c0-1.2,1.1-1.9,2.7-1.9
			c1.5,0,2.6,0.8,2.6,2h-1.6c0-0.6-0.4-1-1-1c-0.6,0-1,0.3-1,0.8c0,1.3,3.8,0.3,3.8,2.8c0,1.2-1.2,1.9-2.9,1.9
			c-1.6,0-2.8-0.8-2.8-2.2H84.9z"/>
		<path class="st0" d="M90.1,23.2h1.7v1.7c0,1.2-0.7,2.1-1.7,2.1V26c0.4,0,0.6-0.5,0.6-1.1h-0.6V23.2z"/>
		<path class="st0" d="M96.5,15.8h2.8l2.4,7l2.4-7h2.8v9h-1.7v-7.1l-2.5,7.1h-1.8l-2.5-7.1v7.1h-1.7V15.8z"/>
		<path class="st0" d="M111.4,18.3c1.9,0,3.3,1.2,3.3,3.3c0,2.1-1.3,3.3-3.3,3.3c-1.9,0-3.3-1.2-3.3-3.3
			C108.1,19.6,109.5,18.3,111.4,18.3z M111.4,23.9c0.9,0,1.5-0.8,1.5-2.2c0-1.4-0.6-2.2-1.5-2.2c-0.9,0-1.5,0.8-1.5,2.2
			C109.9,23.1,110.5,23.9,111.4,23.9z"/>
		<path class="st0" d="M115.8,15.5h1.7v7.8c0,0.4,0.2,0.6,0.5,0.6v1.1c-1.6,0-2.2-0.4-2.2-1.5V15.5z"/>
		<path class="st0" d="M125.4,24.9h-1.6l-0.1-0.9c-0.4,0.6-1,1-1.8,1c-1.7,0-2.8-1.2-2.8-3.3c0-2.1,1.1-3.3,2.8-3.3
			c0.8,0,1.4,0.3,1.8,0.8v-3.7h1.7V24.9z M122.2,19.4c-0.9,0-1.5,0.8-1.5,2.2c0,1.4,0.6,2.2,1.5,2.2c0.9,0,1.4-0.8,1.4-2.2
			C123.6,20.2,123.1,19.4,122.2,19.4z"/>
		<path class="st0" d="M129.8,18.3c1.9,0,3.3,1.2,3.3,3.3c0,2.1-1.3,3.3-3.3,3.3c-1.9,0-3.3-1.2-3.3-3.3
			C126.5,19.6,127.9,18.3,129.8,18.3z M129.8,23.9c0.9,0,1.5-0.8,1.5-2.2c0-1.4-0.6-2.2-1.5-2.2c-0.9,0-1.5,0.8-1.5,2.2
			C128.3,23.1,128.9,23.9,129.8,23.9z"/>
		<path class="st0" d="M137.9,24.9h-1.9l-2.4-6.4h1.7l1.7,5l1.7-5h1.7L137.9,24.9z"/>
		<path class="st0" d="M144.8,23.9c-0.4,0.6-1.1,1-1.9,1c-1.3,0-2.2-0.6-2.2-1.7c0-1.4,1.4-2.2,3.7-2.2h0.4v-0.4
			c0-0.8-0.5-1.2-1.2-1.2c-0.7,0-1.1,0.4-1.1,1.1h-1.7c0-1.4,1.1-2.2,2.8-2.2c1.7,0,2.9,0.8,2.9,2.3v4.3h-1.6L144.8,23.9z
			 M144.4,21.9c-1.3,0-1.9,0.4-1.9,1.2c0,0.5,0.3,0.8,0.9,0.8c0.9,0,1.4-0.7,1.4-1.8v-0.2H144.4z"/>
	</g>
</g>
</svg>
