<!-- Generator: Adobe Illustrator 19.0.0, SVG Export Plug-In  -->
<svg version="1.1"
	 xmlns="http://www.w3.org/2000/svg" xmlns:xlink="http://www.w3.org/1999/xlink" xmlns:a="http://ns.adobe.com/AdobeSVGViewerExtensions/3.0/"
	 x="0px" y="0px" width="97.8px" height="24.9px" viewBox="0 0 97.8 24.9"
	 style="overflow:scroll;enable-background:new 0 0 97.8 24.9;" xml:space="preserve">
<style type="text/css">
	.st0{fill:#414042;}
</style>
<defs>
</defs>
<g>
	<g>
		<path class="st0" d="M0.8,4.8c0,2.5,1.3,4,3.2,4c1.5,0,2.6-0.9,2.6-2.3h0.8C7.4,8.3,6,9.4,4,9.4c-2.4,0-4-1.7-4-4.6
			C0,2,1.7,0.3,4,0.3c1.9,0,3.4,1.1,3.4,2.9H6.6c0-1.4-1.1-2.3-2.6-2.3C2.1,0.9,0.8,2.3,0.8,4.8z"/>
		<path class="st0" d="M14.8,6.3h-5c0,1.6,0.9,2.5,2.3,2.5c1.1,0,1.9-0.6,1.9-1.5h0.7c0,1.2-1.1,2-2.6,2c-1.8,0-3.1-1.2-3.1-3.3
			s1.2-3.3,3.1-3.3C13.7,2.9,14.9,4,14.8,6.3z M9.9,5.8h4.2c0-1.5-0.8-2.4-1.9-2.4C10.8,3.4,9.9,4.3,9.9,5.8z"/>
		<path class="st0" d="M17.5,9.3h-0.8V2.9h0.7l0,1.4c0.4-0.9,1.3-1.5,2.3-1.5c1.4,0,2.4,0.9,2.4,2.3v4.2h-0.8V5.2
			c0-1.1-0.7-1.8-1.8-1.8c-1.3,0-2.1,1-2.1,2.7V9.3z"/>
		<path class="st0" d="M24.7,7.7V3.4h-1.1V2.9h1.1V1.5h0.8v1.4h1.8v0.5h-1.8v4.4c0,0.7,0.5,1,1.3,1c0.2,0,0.3,0,0.5-0.1v0.5
			c-0.2,0-0.4,0.1-0.6,0.1C25.4,9.4,24.7,8.8,24.7,7.7z"/>
		<path class="st0" d="M29.7,9.3H29V2.9h0.7l0.1,1.5c0.4-1,1.3-1.5,2.3-1.5v0.6c-1.4,0-2.3,1.1-2.3,2.8V9.3z"/>
		<path class="st0" d="M37.6,7.9c-0.4,0.9-1.3,1.5-2.4,1.5c-1.1,0-2-0.6-2-1.7c0-1.4,1.4-2.2,3.8-2.2h0.5V5c0-1-0.7-1.6-1.7-1.6
			c-1,0-1.8,0.6-1.8,1.5h-0.8c0-1.2,1.1-2,2.5-2c1.5,0,2.5,0.8,2.5,2.1v4.3h-0.7L37.6,7.9z M37.1,6c-2,0-3,0.6-3,1.6
			c0,0.7,0.5,1.2,1.3,1.2c1.3,0,2.2-1,2.2-2.6V6H37.1z"/>
		<path class="st0" d="M40.5,0h0.8v8.1c0,0.5,0.3,0.8,0.7,0.8v0.5c-1,0-1.5-0.4-1.5-1.3V0z"/>
		<path class="st0" d="M49.4,0.3h0.9l3.5,9H53l-1-2.6h-4.2l-1,2.6h-0.8L49.4,0.3z M48,6.1h3.8l-1.9-5.1L48,6.1z"/>
		<path class="st0" d="M55.4,7.3c0,0.9,0.8,1.5,1.8,1.5c1,0,1.7-0.5,1.7-1.2c0-1.9-4.1-0.6-4.1-3c0-1.1,1-1.8,2.3-1.8
			c1.3,0,2.3,0.7,2.3,1.9h-0.7c0-0.8-0.7-1.4-1.6-1.4s-1.5,0.5-1.5,1.2c0,1.8,4.1,0.5,4.1,3c0,1.1-1,1.8-2.5,1.8
			c-1.4,0-2.5-0.8-2.5-2H55.4z"/>
		<path class="st0" d="M61.4,0.3h0.8v1.3h-0.8V0.3z M61.4,2.9h0.8v6.4h-0.8V2.9z"/>
		<path class="st0" d="M68.3,7.9C67.9,8.9,67,9.4,66,9.4c-1.1,0-2-0.6-2-1.7c0-1.4,1.4-2.2,3.8-2.2h0.5V5c0-1-0.7-1.6-1.7-1.6
			c-1,0-1.8,0.6-1.8,1.5h-0.8c0-1.2,1.1-2,2.5-2c1.5,0,2.5,0.8,2.5,2.1v4.3h-0.7L68.3,7.9z M67.8,6c-2,0-3,0.6-3,1.6
			c0,0.7,0.5,1.2,1.3,1.2c1.3,0,2.2-1,2.2-2.6V6H67.8z"/>
		<path class="st0" d="M75,9.3h-0.8V0H75v4.3c0.4-0.9,1.3-1.4,2.3-1.4c1.4,0,2.4,0.9,2.4,2.3v4.2h-0.8V5.2c0-1.1-0.7-1.8-1.8-1.8
			c-1.3,0-2.1,1-2.1,2.7V9.3z"/>
		<path class="st0" d="M86.3,2.9h0.8v6.4h-0.7l0-1.4c-0.4,0.9-1.3,1.5-2.3,1.5c-1.4,0-2.4-0.9-2.4-2.3V2.9h0.8v4.2
			c0,1.1,0.7,1.8,1.8,1.8c1.3,0,2.1-1,2.1-2.7V2.9z"/>
		<path class="st0" d="M89.2,0H90v4.3c0.4-0.9,1.2-1.4,2.3-1.4c1.7,0,2.9,1.2,2.9,3.3s-1.2,3.3-2.9,3.3c-1,0-1.8-0.5-2.3-1.4l0,1.4
			h-0.7V0z M92.1,8.8c1.4,0,2.3-1,2.3-2.7c0-1.7-0.9-2.7-2.3-2.7c-1.3,0-2.1,1-2.1,2.7C90,7.9,90.8,8.8,92.1,8.8z"/>
		<path class="st0" d="M96.8,8.1h1v1.2c0,1-0.4,1.8-1,1.8v-0.5c0.3,0,0.5-0.5,0.5-1.3h-0.4V8.1z"/>
		<path class="st0" d="M2.8,20.8l-1,1.1v2.9H0.1v-9h1.8v3.9l3.2-3.9h2l-3.3,3.8l3.6,5.3H5.5L2.8,20.8z"/>
		<path class="st0" d="M11.8,23.9c-0.4,0.6-1.1,1-1.9,1c-1.3,0-2.2-0.6-2.2-1.7c0-1.4,1.4-2.2,3.7-2.2h0.4v-0.4
			c0-0.8-0.5-1.2-1.2-1.2c-0.7,0-1.1,0.4-1.1,1.1H7.9c0-1.4,1.1-2.2,2.8-2.2c1.7,0,2.9,0.8,2.9,2.3v4.3H12L11.8,23.9z M11.4,21.8
			c-1.3,0-1.9,0.4-1.9,1.2c0,0.5,0.3,0.8,0.9,0.8c0.9,0,1.4-0.7,1.4-1.8v-0.2H11.4z"/>
		<path class="st0" d="M14.7,18.4h5.4v1.1l-3.6,4.3h3.7v1.1h-5.5v-1.1l3.5-4.3h-3.5V18.4z"/>
		<path class="st0" d="M25,23.9c-0.4,0.6-1.1,1-1.9,1c-1.3,0-2.2-0.6-2.2-1.7c0-1.4,1.4-2.2,3.7-2.2H25v-0.4c0-0.8-0.5-1.2-1.2-1.2
			c-0.7,0-1.1,0.4-1.1,1.1h-1.7c0-1.4,1.1-2.2,2.8-2.2c1.7,0,2.9,0.8,2.9,2.3v4.3h-1.6L25,23.9z M24.6,21.8c-1.3,0-1.9,0.4-1.9,1.2
			c0,0.5,0.3,0.8,0.9,0.8c0.9,0,1.4-0.7,1.4-1.8v-0.2H24.6z"/>
		<path class="st0" d="M30.6,22.3l-0.7,0.9v1.7h-1.7v-9.3h1.7v5.4l2-2.5h1.9l-2.3,2.7l2.5,3.7h-1.7L30.6,22.3z"/>
		<path class="st0" d="M36.8,24.8h-1.7v-9.3h1.7v3.7c0.4-0.6,1.1-0.9,1.8-0.9c1.4,0,2.4,0.9,2.4,2.3v4.2h-1.7v-4.2
			c0-0.8-0.4-1.2-1.1-1.2c-0.9,0-1.4,0.8-1.4,2.2V24.8z"/>
		<path class="st0" d="M43.9,22.7c0,0.7,0.5,1.1,1.1,1.1c0.7,0,1.1-0.3,1.1-0.8c0-1.4-3.8-0.3-3.8-2.8c0-1.2,1.1-1.9,2.7-1.9
			c1.5,0,2.6,0.8,2.6,2h-1.6c0-0.6-0.4-1-1-1c-0.6,0-1,0.3-1,0.8c0,1.3,3.8,0.3,3.8,2.8c0,1.2-1.2,1.9-2.9,1.9
			c-1.6,0-2.8-0.8-2.8-2.2H43.9z"/>
		<path class="st0" d="M49.4,22.9v-3.5h-0.9v-1.1h0.9V17h1.7v1.4h1.4v1.1h-1.4V23c0,0.5,0.4,0.8,0.9,0.8c0.2,0,0.4,0,0.5-0.1v1.1
			c-0.2,0-0.5,0.1-0.7,0.1C50.1,24.9,49.4,24.3,49.4,22.9z"/>
		<path class="st0" d="M57.5,23.9c-0.4,0.6-1.1,1-1.9,1c-1.3,0-2.2-0.6-2.2-1.7c0-1.4,1.4-2.2,3.7-2.2h0.4v-0.4
			c0-0.8-0.5-1.2-1.2-1.2c-0.7,0-1.1,0.4-1.1,1.1h-1.7c0-1.4,1.1-2.2,2.8-2.2c1.7,0,2.9,0.8,2.9,2.3v4.3h-1.6L57.5,23.9z M57.1,21.8
			c-1.3,0-1.9,0.4-1.9,1.2c0,0.5,0.3,0.8,0.9,0.8c0.9,0,1.4-0.7,1.4-1.8v-0.2H57.1z"/>
		<path class="st0" d="M62.4,24.8h-1.7v-6.4h1.6l0.1,0.9c0.4-0.6,1.1-1,1.8-1c1.4,0,2.4,0.9,2.4,2.3v4.2h-1.7v-4.2
			c0-0.8-0.4-1.2-1.1-1.2c-0.9,0-1.4,0.8-1.4,2.2V24.8z"/>
	</g>
</g>
</svg>
