<!-- Generator: Adobe Illustrator 19.0.0, SVG Export Plug-In  -->
<svg version="1.1"
	 xmlns="http://www.w3.org/2000/svg" xmlns:xlink="http://www.w3.org/1999/xlink" xmlns:a="http://ns.adobe.com/AdobeSVGViewerExtensions/3.0/"
	 x="0px" y="0px" width="19.1px" height="29.9px" viewBox="0 0 19.1 29.9"
	 style="overflow:scroll;enable-background:new 0 0 19.1 29.9;" xml:space="preserve">
<style type="text/css">
	.st0{fill:#414042;}
</style>
<defs>
</defs>
<g>
	<g>
		<path class="st0" d="M9.4,29.9c-0.1,0-0.2,0-0.3-0.1l-8.6-4.1C0.1,25.6,0,25.3,0,24.9c0-0.1,0.5-3.1,1.9-6c0.6-1.2,1.3-2.2,2-3.1
			c0.3-0.3,0.8-0.3,1.1-0.1c0.3,0.3,0.3,0.8,0.1,1.1c-0.6,0.7-1.2,1.6-1.8,2.7c-1,2-1.5,4.1-1.7,5l7.8,3.7l8.1-3.7
			c-0.4-1.6-1.6-6.2-4.4-8.5c-0.3-0.3-0.4-0.8-0.1-1.1c0.3-0.3,0.8-0.4,1.1-0.1c3.8,3.2,5,9.7,5,10c0.1,0.3-0.1,0.7-0.4,0.8
			l-8.9,4.1C9.6,29.9,9.5,29.9,9.4,29.9z"/>
	</g>
	<g>
		<path class="st0" d="M9.4,16c-2.8,0-4.9-3-5.8-5.9c-0.1-0.4,0.1-0.8,0.5-1C4.6,9,5,9.3,5.1,9.7c0.7,2.3,2.4,4.8,4.3,4.8
			c2.4,0,4.5-3.9,4.6-6.5c0-0.4,0.4-0.8,0.8-0.7c0.4,0,0.8,0.4,0.7,0.8C15.4,11.2,12.9,16,9.4,16z"/>
	</g>
	<g>
		<path class="st0" d="M3.3,10.8c-0.3,0-0.6-0.2-0.7-0.5C2.3,9.6,2.1,8.6,2.1,7.4C2.1,3.3,5.5,0,9.6,0c3.9,0,7.1,3,7.4,6.9
			c0,0.1,0,0.3-0.1,0.4c-0.8,1.6-4,2-4.7,2.1c-0.3,0-0.5-0.1-0.7-0.3c-0.2-0.2-0.2-0.5-0.2-0.7c0,0,0.1-0.2,0.1-0.6
			C9.3,9.4,5.6,10.7,3.3,10.8C3.3,10.8,3.3,10.8,3.3,10.8z M9.6,1.5c-3.3,0-5.9,2.6-5.9,5.9c0,0.6,0.1,1.2,0.2,1.7
			C6,8.9,9.4,7.6,11,6.2c0.5-0.4,0.6-0.7,0.7-0.9c0.1-0.3,0.5-0.5,0.9-0.5c0.4,0.1,0.6,0.4,0.6,0.7c0,0.5,0,0.9,0,1.3
			c0,0.3,0,0.5-0.1,0.7c1-0.2,2-0.6,2.3-0.9C15.1,3.8,12.6,1.5,9.6,1.5z"/>
	</g>
</g>
</svg>
