<!-- Generator: Adobe Illustrator 19.0.0, SVG Export Plug-In  -->
<svg version="1.1"
	 xmlns="http://www.w3.org/2000/svg" xmlns:xlink="http://www.w3.org/1999/xlink" xmlns:a="http://ns.adobe.com/AdobeSVGViewerExtensions/3.0/"
	 x="0px" y="0px" width="104.8px" height="27.4px" viewBox="0 0 104.8 27.4"
	 style="overflow:scroll;enable-background:new 0 0 104.8 27.4;" xml:space="preserve">
<style type="text/css">
	.st0{fill:#414042;}
</style>
<defs>
</defs>
<g>
	<g>
		<path class="st0" d="M4.5,7.4H0V6.2l3.9-6.1h2.1v6.1h0.8v1.2H6.1v1.7H4.5V7.4z M4.5,6.2V1.7L1.6,6.2H4.5z"/>
		<path class="st0" d="M11.4,0C13.5,0,15,1.7,15,4.6s-1.5,4.6-3.6,4.6S7.8,7.5,7.8,4.6S9.3,0,11.4,0z M11.4,8c1.1,0,1.9-1.2,1.9-3.4
			s-0.7-3.4-1.9-3.4S9.5,2.3,9.5,4.6S10.3,8,11.4,8z"/>
		<path class="st0" d="M22.9,0c2.1,0,3.6,1.7,3.6,4.6S25,9.2,22.9,9.2s-3.6-1.7-3.6-4.6S20.7,0,22.9,0z M22.9,8
			c1.1,0,1.9-1.2,1.9-3.4S24,1.1,22.9,1.1S21,2.3,21,4.6S21.7,8,22.9,8z"/>
		<path class="st0" d="M31.1,0c2.1,0,3.6,1.7,3.6,4.6s-1.5,4.6-3.6,4.6s-3.6-1.7-3.6-4.6S29,0,31.1,0z M31.1,8C32.3,8,33,6.8,33,4.6
			s-0.7-3.4-1.9-3.4s-1.9,1.2-1.9,3.4S30,8,31.1,8z"/>
		<path class="st0" d="M39.4,0C41.5,0,43,1.7,43,4.6s-1.5,4.6-3.6,4.6s-3.6-1.7-3.6-4.6S37.2,0,39.4,0z M39.4,8
			c1.1,0,1.9-1.2,1.9-3.4s-0.7-3.4-1.9-3.4s-1.9,1.2-1.9,3.4S38.2,8,39.4,8z"/>
		<path class="st0" d="M1.4,24.6H0.6v-6.4h0.7l0,1.4c0.4-1,1.1-1.5,1.9-1.5c0.9,0,1.7,0.6,1.9,1.5c0.4-1,1.2-1.5,2.1-1.5
			c1.2,0,2.1,0.9,2.1,2.3v4.2H8.6v-4.2c0-1.1-0.6-1.8-1.5-1.8c-1,0-1.8,1-1.8,2.7v3.2H4.6v-4.2c0-1.1-0.6-1.8-1.5-1.8
			c-1,0-1.8,1-1.8,2.7V24.6z"/>
		<path class="st0" d="M13.8,25.7c-0.4,1.1-1.4,1.7-2.7,1.7v-0.5c0.8,0,1.6-0.4,1.9-1.1l0.5-1.1h-0.1l-2.6-6.4h0.8l2.3,5.7l2.3-5.7
			H17L13.8,25.7z"/>
		<path class="st0" d="M18.6,22.6c0,0.9,0.8,1.5,1.8,1.5c1,0,1.7-0.5,1.7-1.2c0-1.9-4.1-0.6-4.1-3c0-1.1,1-1.8,2.3-1.8
			c1.3,0,2.3,0.7,2.3,1.9h-0.7c0-0.8-0.7-1.4-1.6-1.4s-1.5,0.5-1.5,1.2c0,1.8,4.1,0.5,4.1,3c0,1.1-1,1.8-2.5,1.8
			c-1.4,0-2.5-0.8-2.5-2H18.6z"/>
		<path class="st0" d="M24.9,23v-4.3h-1.1v-0.5h1.1v-1.4h0.8v1.4h1.8v0.5h-1.8V23c0,0.7,0.5,1,1.3,1c0.2,0,0.3,0,0.5-0.1v0.5
			c-0.2,0-0.4,0.1-0.6,0.1C25.6,24.6,24.9,24,24.9,23z"/>
		<path class="st0" d="M34.5,21.5h-5c0,1.6,0.9,2.5,2.3,2.5c1.1,0,1.9-0.6,1.9-1.5h0.7c0,1.2-1.1,2-2.6,2c-1.8,0-3.1-1.2-3.1-3.3
			s1.2-3.3,3.1-3.3C33.4,18.1,34.5,19.2,34.5,21.5z M29.5,21h4.2c0-1.5-0.8-2.4-1.9-2.4C30.5,18.6,29.5,19.5,29.5,21z"/>
		<path class="st0" d="M37.1,24.6h-0.8v-6.4h0.7l0.1,1.5c0.4-1,1.3-1.5,2.3-1.5v0.6c-1.4,0-2.3,1.1-2.3,2.8V24.6z"/>
		<path class="st0" d="M43.5,25.7c-0.4,1.1-1.4,1.7-2.7,1.7v-0.5c0.8,0,1.6-0.4,1.9-1.1l0.5-1.1h-0.1l-2.6-6.4h0.8l2.3,5.7l2.3-5.7
			h0.8L43.5,25.7z"/>
		<path class="st0" d="M51.5,22.6c0,0.9,0.8,1.5,1.8,1.5c1,0,1.7-0.5,1.7-1.2c0-1.9-4.1-0.6-4.1-3c0-1.1,1-1.8,2.3-1.8
			c1.3,0,2.3,0.7,2.3,1.9h-0.7c0-0.8-0.7-1.4-1.6-1.4s-1.5,0.5-1.5,1.2c0,1.8,4.1,0.5,4.1,3c0,1.1-1,1.8-2.5,1.8
			c-1.4,0-2.5-0.8-2.5-2H51.5z"/>
		<path class="st0" d="M58.3,24.6h-0.8v-9.3h0.8v4.3c0.4-0.9,1.3-1.4,2.3-1.4c1.4,0,2.4,0.9,2.4,2.3v4.2h-0.8v-4.2
			c0-1.1-0.7-1.8-1.8-1.8c-1.3,0-2.1,1-2.1,2.7V24.6z"/>
		<path class="st0" d="M67.8,18.1c1.8,0,3.1,1.2,3.1,3.3s-1.3,3.3-3.1,3.3c-1.8,0-3.1-1.2-3.1-3.3S66,18.1,67.8,18.1z M67.8,24.1
			c1.4,0,2.3-1,2.3-2.7c0-1.7-0.9-2.7-2.3-2.7c-1.4,0-2.3,1-2.3,2.7C65.5,23.1,66.4,24.1,67.8,24.1z"/>
		<path class="st0" d="M72.6,18.1h0.7l0,1.4c0.4-0.9,1.2-1.5,2.3-1.5c1.7,0,2.9,1.2,2.9,3.3s-1.2,3.3-2.9,3.3c-1,0-1.8-0.5-2.3-1.4
			v4.1h-0.8V18.1z M75.5,24.1c1.4,0,2.3-1,2.3-2.7c0-1.7-0.9-2.7-2.3-2.7c-1.3,0-2.1,1-2.1,2.7C73.4,23.1,74.3,24.1,75.5,24.1z"/>
		<path class="st0" d="M80.4,18.1h0.7l0,1.4c0.4-0.9,1.2-1.5,2.3-1.5c1.7,0,2.9,1.2,2.9,3.3s-1.2,3.3-2.9,3.3c-1,0-1.8-0.5-2.3-1.4
			v4.1h-0.8V18.1z M83.3,24.1c1.4,0,2.3-1,2.3-2.7c0-1.7-0.9-2.7-2.3-2.7c-1.3,0-2.1,1-2.1,2.7C81.2,23.1,82,24.1,83.3,24.1z"/>
		<path class="st0" d="M93.6,21.5h-5c0,1.6,0.9,2.5,2.3,2.5c1.1,0,1.9-0.6,1.9-1.5h0.7c0,1.2-1.1,2-2.6,2c-1.8,0-3.1-1.2-3.1-3.3
			s1.2-3.3,3.1-3.3C92.5,18.1,93.7,19.2,93.6,21.5z M88.6,21h4.2c0-1.5-0.8-2.4-1.9-2.4C89.6,18.6,88.6,19.5,88.6,21z"/>
		<path class="st0" d="M96.3,24.6h-0.8v-6.4h0.7l0.1,1.5c0.4-1,1.3-1.5,2.3-1.5v0.6c-1.4,0-2.3,1.1-2.3,2.8V24.6z"/>
		<path class="st0" d="M100.5,22.6c0,0.9,0.8,1.5,1.8,1.5c1,0,1.7-0.5,1.7-1.2c0-1.9-4.1-0.6-4.1-3c0-1.1,1-1.8,2.3-1.8
			c1.3,0,2.3,0.7,2.3,1.9h-0.7c0-0.8-0.7-1.4-1.6-1.4s-1.5,0.5-1.5,1.2c0,1.8,4.1,0.5,4.1,3c0,1.1-1,1.8-2.5,1.8
			c-1.4,0-2.5-0.8-2.5-2H100.5z"/>
	</g>
</g>
</svg>
