<!-- Generator: Adobe Illustrator 19.0.0, SVG Export Plug-In  -->
<svg version="1.1"
	 xmlns="http://www.w3.org/2000/svg" xmlns:xlink="http://www.w3.org/1999/xlink" xmlns:a="http://ns.adobe.com/AdobeSVGViewerExtensions/3.0/"
	 x="0px" y="0px" width="29.2px" height="29.2px" viewBox="0 0 29.2 29.2"
	 style="overflow:scroll;enable-background:new 0 0 29.2 29.2;" xml:space="preserve">
<style type="text/css">
	.st0{fill:#414042;}
</style>
<defs>
</defs>
<g>
	<g>
		<path class="st0" d="M14.6,29.2c-0.2,0-0.4-0.1-0.5-0.3l-2.4-3.2l-3.7,1.6c-0.2,0.1-0.4,0.1-0.6,0C7.1,27.2,7,27,7,26.8l-0.5-4
			l-4-0.5c-0.2,0-0.4-0.2-0.5-0.3c-0.1-0.2-0.1-0.4,0-0.6l1.6-3.7l-3.2-2.4C0.1,15,0,14.8,0,14.6c0-0.2,0.1-0.4,0.3-0.5l3.2-2.4
			L1.9,7.9C1.8,7.7,1.8,7.5,2,7.3C2.1,7.1,2.3,7,2.5,7l2.7-0.3c0.4,0,0.7,0.2,0.8,0.6C6,7.6,5.7,8,5.3,8L3.5,8.2L5,11.6
			c0.1,0.3,0,0.6-0.2,0.8l-2.9,2.2l2.9,2.2C5,17,5.1,17.3,5,17.6L3.5,21l3.6,0.4c0.3,0,0.6,0.3,0.6,0.6l0.4,3.6l3.4-1.4
			c0.3-0.1,0.6,0,0.8,0.2l2.2,2.9l2.2-2.9c0.2-0.3,0.5-0.3,0.8-0.2l3.4,1.4l0.4-3.6c0-0.3,0.3-0.6,0.6-0.6l3.6-0.4l-1.4-3.4
			c-0.1-0.3,0-0.6,0.2-0.8l2.9-2.2l-2.9-2.2c-0.3-0.2-0.3-0.5-0.2-0.8l1.4-3.4l-3.6-0.4c-0.3,0-0.6-0.3-0.6-0.6L21,3.5L17.6,5
			c-0.3,0.1-0.6,0-0.8-0.2l-2.2-2.9l-2.2,2.9C12.2,5,11.9,5.1,11.6,5L8.2,3.5L8,5.3c0,0.4-0.4,0.6-0.8,0.6c-0.4,0-0.6-0.4-0.6-0.8
			L7,2.5C7,2.3,7.1,2.1,7.3,2c0.2-0.1,0.4-0.1,0.6,0l3.7,1.6l2.4-3.2C14.2,0.1,14.4,0,14.6,0l0,0c0.2,0,0.4,0.1,0.6,0.3l2.4,3.2
			l3.7-1.6c0.2-0.1,0.4-0.1,0.6,0c0.2,0.1,0.3,0.3,0.3,0.5l0.5,4l4,0.5c0.2,0,0.4,0.2,0.5,0.3c0.1,0.2,0.1,0.4,0,0.6l-1.6,3.7
			l3.2,2.4c0.2,0.1,0.3,0.3,0.3,0.5c0,0.2-0.1,0.4-0.3,0.6l-3.2,2.4l1.6,3.7c0.1,0.2,0.1,0.4,0,0.6c-0.1,0.2-0.3,0.3-0.5,0.3l-4,0.5
			l-0.5,4c0,0.2-0.2,0.4-0.3,0.5c-0.2,0.1-0.4,0.1-0.6,0l-3.7-1.6L15.2,29C15,29.1,14.8,29.2,14.6,29.2z"/>
	</g>
	<g>
		<g>
			<path class="st0" d="M14.6,23.8c-1.2,0-2.1-1-2.1-2.1c0-1.2,1-2.1,2.1-2.1c1.2,0,2.1,1,2.1,2.1C16.7,22.8,15.8,23.8,14.6,23.8z
				 M14.6,20.9c-0.4,0-0.8,0.3-0.8,0.8c0,0.4,0.3,0.8,0.8,0.8c0.4,0,0.8-0.3,0.8-0.8C15.4,21.2,15,20.9,14.6,20.9z"/>
		</g>
		<g>
			<path class="st0" d="M14.6,19.1c-0.3,0-0.6-0.2-0.7-0.6c-0.2-1.6-1.5-9.5-1.5-10.3c0-1.2,1-2.1,2.1-2.1c1.2,0,2.1,1,2.1,2.1
				c0,0.8-1.2,8.7-1.4,10.3C15.2,18.9,15,19.1,14.6,19.1z M14.6,7.5c-0.4,0-0.8,0.3-0.8,0.8c0,0.4,0.4,2.8,0.8,5.5
				c0.4-2.7,0.8-5.2,0.8-5.5C15.4,7.9,15,7.5,14.6,7.5z"/>
		</g>
	</g>
</g>
</svg>
