<!-- Generator: Adobe Illustrator 19.0.0, SVG Export Plug-In  -->
<svg version="1.1"
	 xmlns="http://www.w3.org/2000/svg" xmlns:xlink="http://www.w3.org/1999/xlink" xmlns:a="http://ns.adobe.com/AdobeSVGViewerExtensions/3.0/"
	 x="0px" y="0px" width="94.5px" height="24.9px" viewBox="0 0 94.5 24.9"
	 style="overflow:scroll;enable-background:new 0 0 94.5 24.9;" xml:space="preserve">
<style type="text/css">
	.st0{fill:#414042;}
</style>
<defs>
</defs>
<g>
	<g>
		<path class="st0" d="M0,1.5c1.5,0,2-0.3,2-1.1h1.5v9H1.7v-7H0V1.5z"/>
		<path class="st0" d="M8.5,0.3c2.1,0,3.6,1.7,3.6,4.6c0,2.9-1.5,4.6-3.6,4.6S4.9,7.7,4.9,4.8C4.9,1.9,6.4,0.3,8.5,0.3z M8.5,8.3
			c1.1,0,1.9-1.2,1.9-3.4S9.6,1.4,8.5,1.4S6.6,2.6,6.6,4.8S7.4,8.3,8.5,8.3z"/>
		<path class="st0" d="M20,0.3c2.1,0,3.6,1.7,3.6,4.6c0,2.9-1.5,4.6-3.6,4.6s-3.6-1.7-3.6-4.6C16.3,1.9,17.8,0.3,20,0.3z M20,8.3
			c1.1,0,1.9-1.2,1.9-3.4S21.1,1.4,20,1.4s-1.9,1.2-1.9,3.4S18.8,8.3,20,8.3z"/>
		<path class="st0" d="M28.2,0.3c2.1,0,3.6,1.7,3.6,4.6c0,2.9-1.5,4.6-3.6,4.6s-3.6-1.7-3.6-4.6C24.6,1.9,26.1,0.3,28.2,0.3z
			 M28.2,8.3c1.1,0,1.9-1.2,1.9-3.4s-0.7-3.4-1.9-3.4s-1.9,1.2-1.9,3.4S27.1,8.3,28.2,8.3z"/>
		<path class="st0" d="M36.5,0.3c2.1,0,3.6,1.7,3.6,4.6c0,2.9-1.5,4.6-3.6,4.6s-3.6-1.7-3.6-4.6C32.8,1.9,34.3,0.3,36.5,0.3z
			 M36.5,8.3c1.1,0,1.9-1.2,1.9-3.4s-0.7-3.4-1.9-3.4s-1.9,1.2-1.9,3.4S35.3,8.3,36.5,8.3z"/>
		<path class="st0" d="M43,0.3c1.1,0,1.9,0.7,1.9,1.9C44.9,3.3,44.1,4,43,4S41,3.3,41,2.1C41,1,41.8,0.3,43,0.3z M43,3.1
			c0.6,0,0.9-0.4,0.9-1c0-0.6-0.4-1-0.9-1c-0.6,0-0.9,0.4-0.9,1C42,2.7,42.4,3.1,43,3.1z M47.4,0.3h1.3l-5.3,9h-1.3L47.4,0.3z
			 M47.9,5.7c1.1,0,1.9,0.7,1.9,1.9c0,1.1-0.8,1.8-1.9,1.8S46,8.7,46,7.6C46,6.4,46.8,5.7,47.9,5.7z M47.9,8.5c0.6,0,0.9-0.4,0.9-1
			c0-0.6-0.4-1-0.9-1c-0.6,0-0.9,0.4-0.9,1C47,8.2,47.3,8.5,47.9,8.5z"/>
		<path class="st0" d="M59.2,9.4V8c-0.4,0.9-1.2,1.4-2.3,1.4c-1.7,0-2.9-1.2-2.9-3.3c0-2.1,1.2-3.3,2.9-3.3c1,0,1.8,0.5,2.3,1.4
			l0.1-1.4h0.7v6.5c0,1.7-1.2,2.8-2.9,2.8c-1.6,0-2.8-0.8-2.8-2.1H55c0,0.9,0.9,1.6,2.1,1.6C58.3,11.6,59.2,10.8,59.2,9.4z M57,3.4
			c-1.4,0-2.3,1-2.3,2.7s0.9,2.7,2.3,2.7c1.3,0,2.1-1,2.1-2.7S58.3,3.4,57,3.4z"/>
		<path class="st0" d="M62.8,9.3H62V2.9h0.7l0.1,1.5c0.4-1,1.3-1.5,2.3-1.5v0.6c-1.4,0-2.3,1.1-2.3,2.8V9.3z"/>
		<path class="st0" d="M69.4,2.9c1.8,0,3.1,1.2,3.1,3.3c0,2.1-1.3,3.3-3.1,3.3c-1.8,0-3.1-1.2-3.1-3.3C66.3,4.1,67.6,2.9,69.4,2.9z
			 M69.4,8.8c1.4,0,2.3-1,2.3-2.7s-0.9-2.7-2.3-2.7c-1.4,0-2.3,1-2.3,2.7S68,8.8,69.4,8.8z"/>
		<path class="st0" d="M78.1,3.9l-1.7,5.4h-0.9l-2.2-6.4h0.8L76,8.6l1.8-5.7h0.8l1.8,5.7l1.8-5.7h0.8l-2.2,6.4h-0.9L78.1,3.9z"/>
		<path class="st0" d="M84.8,7.7V3.4h-1.1V2.9h1.1V1.5h0.8v1.4h1.8v0.5h-1.8v4.4c0,0.7,0.5,1,1.3,1c0.2,0,0.3,0,0.5-0.1v0.5
			c-0.2,0-0.4,0.1-0.6,0.1C85.5,9.4,84.8,8.8,84.8,7.7z"/>
		<path class="st0" d="M89.8,9.3h-0.8V0h0.8v4.3c0.4-0.9,1.3-1.4,2.3-1.4c1.4,0,2.4,0.9,2.4,2.3v4.2h-0.8V5.2c0-1.1-0.7-1.8-1.8-1.8
			c-1.3,0-2.1,1-2.1,2.7V9.3z"/>
		<path class="st0" d="M1.1,22.8c0,0.9,0.8,1.5,1.8,1.5c1,0,1.7-0.5,1.7-1.2c0-1.9-4.1-0.6-4.1-3c0-1.1,1-1.8,2.3-1.8
			c1.3,0,2.3,0.7,2.3,1.9H4.4c0-0.8-0.7-1.4-1.6-1.4s-1.5,0.5-1.5,1.2c0,1.8,4.1,0.5,4.1,3c0,1.1-1,1.8-2.5,1.8
			c-1.4,0-2.5-0.8-2.5-2H1.1z"/>
		<path class="st0" d="M7.1,15.8h0.8v1.3H7.1V15.8z M7.1,18.4h0.8v6.4H7.1V18.4z"/>
		<path class="st0" d="M10.8,24.8H10v-6.4h0.7l0,1.4c0.4-0.9,1.3-1.5,2.3-1.5c1.4,0,2.4,0.9,2.4,2.3v4.2h-0.8v-4.2
			c0-1.1-0.7-1.8-1.8-1.8c-1.3,0-2.1,1-2.1,2.7V24.8z"/>
		<path class="st0" d="M18,21.6c0,1.7,0.9,2.7,2.3,2.7c1,0,1.8-0.6,1.8-1.6h0.8c0,1.3-1.1,2.1-2.5,2.1c-1.8,0-3.1-1.2-3.1-3.3
			c0-2.1,1.3-3.3,3.1-3.3c1.4,0,2.5,0.8,2.5,2.1H22c0-0.9-0.7-1.6-1.8-1.6C18.9,18.9,18,19.9,18,21.6z"/>
		<path class="st0" d="M30.2,21.8h-5c0,1.6,0.9,2.5,2.3,2.5c1.1,0,1.9-0.6,1.9-1.5h0.7c0,1.2-1.1,2-2.6,2c-1.8,0-3.1-1.2-3.1-3.3
			c0-2.1,1.2-3.3,3.1-3.3C29.1,18.3,30.2,19.5,30.2,21.8z M25.2,21.3h4.2c0-1.5-0.8-2.4-1.9-2.4C26.2,18.9,25.2,19.8,25.2,21.3z"/>
		<path class="st0" d="M39.9,18.3c0-1.2-0.9-2-2.1-2c-1.3,0-2.2,0.8-2.2,2.1h-0.8c0-1.6,1.3-2.6,3-2.6c1.7,0,2.9,1,2.9,2.6
			c0,2.9-5,4.2-5,5.9h5.1v0.6h-5.9v-0.6C34.9,22.3,39.9,20.8,39.9,18.3z"/>
		<path class="st0" d="M45.7,15.8c2,0,3.4,1.7,3.4,4.6s-1.4,4.6-3.4,4.6c-2,0-3.4-1.7-3.4-4.6S43.7,15.8,45.7,15.8z M45.7,24.3
			c1.6,0,2.6-1.5,2.6-4s-1.1-4-2.6-4c-1.5,0-2.6,1.5-2.6,4S44.2,24.3,45.7,24.3z"/>
		<path class="st0" d="M54.1,15.8c2,0,3.4,1.7,3.4,4.6s-1.4,4.6-3.4,4.6c-2,0-3.4-1.7-3.4-4.6S52.1,15.8,54.1,15.8z M54.1,24.3
			c1.6,0,2.6-1.5,2.6-4s-1.1-4-2.6-4c-1.5,0-2.6,1.5-2.6,4S52.6,24.3,54.1,24.3z"/>
		<path class="st0" d="M59,16.7c1.4,0,1.8-0.2,1.8-0.9h0.7v9h-0.8v-7.6H59V16.7z"/>
	</g>
</g>
</svg>
