<!-- Generator: Adobe Illustrator 19.0.0, SVG Export Plug-In  -->
<svg version="1.1"
	 xmlns="http://www.w3.org/2000/svg" xmlns:xlink="http://www.w3.org/1999/xlink" xmlns:a="http://ns.adobe.com/AdobeSVGViewerExtensions/3.0/"
	 x="0px" y="0px" width="221.4px" height="223.9px" viewBox="0 0 221.4 223.9"
	 style="overflow:scroll;enable-background:new 0 0 221.4 223.9;" xml:space="preserve">
<style type="text/css">
	.st0{fill:#414042;}
</style>
<defs>
</defs>
<g>
	<g>
		<path class="st0" d="M14.7,174.7c-0.1,0-0.2,0-0.3-0.1l-8.6-4.1c-0.3-0.1-0.5-0.5-0.4-0.8c0-0.1,0.5-3.1,1.9-6
			c0.6-1.2,1.3-2.2,2-3.1c0.3-0.3,0.8-0.3,1.1-0.1c0.3,0.3,0.3,0.8,0.1,1.1c-0.6,0.7-1.2,1.6-1.8,2.7c-1,2-1.5,4.1-1.7,5l7.8,3.7
			l8.1-3.7c-0.4-1.6-1.6-6.2-4.4-8.5c-0.3-0.3-0.4-0.8-0.1-1.1c0.3-0.3,0.8-0.4,1.1-0.1c3.8,3.2,5,9.7,5,10c0.1,0.3-0.1,0.7-0.4,0.8
			l-8.9,4.1C14.9,174.7,14.8,174.7,14.7,174.7z"/>
	</g>
	<g>
		<path class="st0" d="M14.7,160.7c-2.8,0-4.9-3-5.8-5.9c-0.1-0.4,0.1-0.8,0.5-1c0.4-0.1,0.8,0.1,1,0.5c0.7,2.3,2.4,4.8,4.3,4.8
			c2.4,0,4.5-3.9,4.6-6.5c0-0.4,0.4-0.8,0.8-0.7c0.4,0,0.8,0.4,0.7,0.8C20.7,156,18.2,160.7,14.7,160.7z"/>
	</g>
	<g>
		<path class="st0" d="M8.6,155.5c-0.3,0-0.6-0.2-0.7-0.5c-0.2-0.6-0.4-1.7-0.4-2.8c0-4.1,3.3-7.4,7.4-7.4c3.9,0,7.1,3,7.4,6.9
			c0,0.1,0,0.3-0.1,0.4c-0.8,1.6-4,2-4.7,2.1c-0.3,0-0.5-0.1-0.7-0.3c-0.2-0.2-0.2-0.5-0.2-0.7c0,0,0.1-0.2,0.1-0.6
			C14.6,154.2,10.9,155.4,8.6,155.5C8.6,155.5,8.6,155.5,8.6,155.5z M14.9,146.3c-3.3,0-5.9,2.6-5.9,5.9c0,0.6,0.1,1.2,0.2,1.7
			c2.2-0.3,5.5-1.5,7.1-3c0.5-0.4,0.6-0.7,0.7-0.9c0.1-0.3,0.5-0.5,0.9-0.5c0.4,0.1,0.6,0.4,0.6,0.8c0,0.5,0,0.9,0,1.3
			c0,0.3,0,0.5-0.1,0.7c1-0.2,2-0.6,2.3-0.9C20.4,148.6,17.9,146.3,14.9,146.3z"/>
	</g>
</g>
<g>
	<path class="st0" d="M45.9,148.9c0-0.8-0.6-1.5-1.5-1.5c-0.9,0-1.5,0.6-1.5,1.7h-1.7c0-1.7,1.3-2.8,3.3-2.8c1.9,0,3.2,1,3.2,2.6
		c0,2.6-4.5,4.3-4.5,5.3h4.5v1.1h-6.4v-1.1C41.3,152.7,45.9,150.8,45.9,148.9z"/>
	<path class="st0" d="M52.4,146.3c2.1,0,3.6,1.7,3.6,4.6c0,2.9-1.5,4.6-3.6,4.6s-3.6-1.7-3.6-4.6C48.7,148,50.2,146.3,52.4,146.3z
		 M52.4,154.3c1.1,0,1.9-1.2,1.9-3.4s-0.7-3.4-1.9-3.4s-1.9,1.2-1.9,3.4S51.3,154.3,52.4,154.3z"/>
	<path class="st0" d="M60.6,146.3c2.1,0,3.6,1.7,3.6,4.6c0,2.9-1.5,4.6-3.6,4.6s-3.6-1.7-3.6-4.6C57,148,58.5,146.3,60.6,146.3z
		 M60.6,154.3c1.1,0,1.9-1.2,1.9-3.4s-0.7-3.4-1.9-3.4s-1.9,1.2-1.9,3.4S59.5,154.3,60.6,154.3z"/>
	<path class="st0" d="M72.1,146.3c2.1,0,3.6,1.7,3.6,4.6c0,2.9-1.5,4.6-3.6,4.6s-3.6-1.7-3.6-4.6C68.5,148,70,146.3,72.1,146.3z
		 M72.1,154.3c1.1,0,1.9-1.2,1.9-3.4s-0.7-3.4-1.9-3.4s-1.9,1.2-1.9,3.4S71,154.3,72.1,154.3z"/>
	<path class="st0" d="M80.3,146.3c2.1,0,3.6,1.7,3.6,4.6c0,2.9-1.5,4.6-3.6,4.6s-3.6-1.7-3.6-4.6C76.7,148,78.2,146.3,80.3,146.3z
		 M80.3,154.3c1.1,0,1.9-1.2,1.9-3.4s-0.7-3.4-1.9-3.4s-1.9,1.2-1.9,3.4S79.2,154.3,80.3,154.3z"/>
	<path class="st0" d="M88.6,146.3c2.1,0,3.6,1.7,3.6,4.6c0,2.9-1.5,4.6-3.6,4.6s-3.6-1.7-3.6-4.6C85,148,86.5,146.3,88.6,146.3z
		 M88.6,154.3c1.1,0,1.9-1.2,1.9-3.4s-0.7-3.4-1.9-3.4s-1.9,1.2-1.9,3.4S87.5,154.3,88.6,154.3z"/>
	<path class="st0" d="M42.1,170.8h-0.8v-6.4H42l0,1.4c0.4-1,1.1-1.5,1.9-1.5c0.9,0,1.7,0.6,1.9,1.5c0.4-1,1.2-1.5,2.1-1.5
		c1.2,0,2.1,0.9,2.1,2.3v4.2h-0.8v-4.2c0-1.1-0.6-1.8-1.5-1.8c-1,0-1.8,1-1.8,2.7v3.2h-0.8v-4.2c0-1.1-0.6-1.8-1.5-1.8
		c-1,0-1.8,1-1.8,2.7V170.8z"/>
	<path class="st0" d="M54.5,171.9c-0.4,1.1-1.4,1.7-2.7,1.7v-0.5c0.8,0,1.6-0.4,1.9-1.1l0.5-1.1h-0.1l-2.6-6.4h0.8l2.3,5.7l2.3-5.7
		h0.8L54.5,171.9z"/>
	<path class="st0" d="M59.2,168.8c0,0.9,0.8,1.5,1.8,1.5c1,0,1.7-0.5,1.7-1.2c0-1.9-4.1-0.6-4.1-3c0-1.1,1-1.8,2.3-1.8
		c1.3,0,2.3,0.7,2.3,1.9h-0.7c0-0.8-0.7-1.4-1.6-1.4s-1.5,0.5-1.5,1.2c0,1.8,4.1,0.5,4.1,3c0,1.1-1,1.8-2.5,1.8
		c-1.4,0-2.5-0.8-2.5-2H59.2z"/>
	<path class="st0" d="M65.6,169.2v-4.3h-1.1v-0.5h1.1V163h0.8v1.4h1.8v0.5h-1.8v4.4c0,0.7,0.5,1,1.3,1c0.2,0,0.3,0,0.5-0.1v0.5
		c-0.2,0-0.4,0.1-0.6,0.1C66.3,170.9,65.6,170.3,65.6,169.2z"/>
	<path class="st0" d="M75.2,167.8h-5c0,1.6,0.9,2.5,2.3,2.5c1.1,0,1.9-0.6,1.9-1.5h0.7c0,1.2-1.1,2-2.6,2c-1.8,0-3.1-1.2-3.1-3.3
		c0-2.1,1.2-3.3,3.1-3.3C74.1,164.3,75.2,165.5,75.2,167.8z M70.2,167.3h4.2c0-1.5-0.8-2.4-1.9-2.4
		C71.2,164.9,70.2,165.8,70.2,167.3z"/>
	<path class="st0" d="M77.8,170.8h-0.8v-6.4h0.7l0.1,1.5c0.4-1,1.3-1.5,2.3-1.5v0.6c-1.4,0-2.3,1.1-2.3,2.8V170.8z"/>
	<path class="st0" d="M84.2,171.9c-0.4,1.1-1.4,1.7-2.7,1.7v-0.5c0.8,0,1.6-0.4,1.9-1.1l0.5-1.1h-0.1l-2.6-6.4H82l2.3,5.7l2.3-5.7
		h0.8L84.2,171.9z"/>
	<path class="st0" d="M92.2,168.8c0,0.9,0.8,1.5,1.8,1.5c1,0,1.7-0.5,1.7-1.2c0-1.9-4.1-0.6-4.1-3c0-1.1,1-1.8,2.3-1.8
		c1.3,0,2.3,0.7,2.3,1.9h-0.7c0-0.8-0.7-1.4-1.6-1.4s-1.5,0.5-1.5,1.2c0,1.8,4.1,0.5,4.1,3c0,1.1-1,1.8-2.5,1.8
		c-1.4,0-2.5-0.8-2.5-2H92.2z"/>
	<path class="st0" d="M99,170.8h-0.8v-9.3H99v4.3c0.4-0.9,1.3-1.4,2.3-1.4c1.4,0,2.4,0.9,2.4,2.3v4.2h-0.8v-4.2
		c0-1.1-0.7-1.8-1.8-1.8c-1.3,0-2.1,1-2.1,2.7V170.8z"/>
	<path class="st0" d="M108.5,164.3c1.8,0,3.1,1.2,3.1,3.3c0,2.1-1.3,3.3-3.1,3.3c-1.8,0-3.1-1.2-3.1-3.3
		C105.4,165.5,106.6,164.3,108.5,164.3z M108.5,170.3c1.4,0,2.3-1,2.3-2.7s-0.9-2.7-2.3-2.7c-1.4,0-2.3,1-2.3,2.7
		S107.1,170.3,108.5,170.3z"/>
	<path class="st0" d="M113.3,164.4h0.7l0,1.4c0.4-0.9,1.2-1.5,2.3-1.5c1.7,0,2.9,1.2,2.9,3.3c0,2.1-1.2,3.3-2.9,3.3
		c-1,0-1.8-0.5-2.3-1.4v4.1h-0.8V164.4z M116.2,170.3c1.4,0,2.3-1,2.3-2.7s-0.9-2.7-2.3-2.7c-1.3,0-2.1,1-2.1,2.7
		S115,170.3,116.2,170.3z"/>
	<path class="st0" d="M121.1,164.4h0.7l0,1.4c0.4-0.9,1.2-1.5,2.3-1.5c1.7,0,2.9,1.2,2.9,3.3c0,2.1-1.2,3.3-2.9,3.3
		c-1,0-1.8-0.5-2.3-1.4v4.1h-0.8V164.4z M124,170.3c1.4,0,2.3-1,2.3-2.7s-0.9-2.7-2.3-2.7c-1.3,0-2.1,1-2.1,2.7
		S122.7,170.3,124,170.3z"/>
	<path class="st0" d="M134.3,167.8h-5c0,1.6,0.9,2.5,2.3,2.5c1.1,0,1.9-0.6,1.9-1.5h0.7c0,1.2-1.1,2-2.6,2c-1.8,0-3.1-1.2-3.1-3.3
		c0-2.1,1.2-3.3,3.1-3.3C133.2,164.3,134.4,165.5,134.3,167.8z M129.3,167.3h4.2c0-1.5-0.8-2.4-1.9-2.4
		C130.3,164.9,129.3,165.8,129.3,167.3z"/>
	<path class="st0" d="M137,170.8h-0.8v-6.4h0.7l0.1,1.5c0.4-1,1.3-1.5,2.3-1.5v0.6c-1.4,0-2.3,1.1-2.3,2.8V170.8z"/>
	<path class="st0" d="M141.2,168.8c0,0.9,0.8,1.5,1.8,1.5c1,0,1.7-0.5,1.7-1.2c0-1.9-4.1-0.6-4.1-3c0-1.1,1-1.8,2.3-1.8
		c1.3,0,2.3,0.7,2.3,1.9h-0.7c0-0.8-0.7-1.4-1.6-1.4s-1.5,0.5-1.5,1.2c0,1.8,4.1,0.5,4.1,3c0,1.1-1,1.8-2.5,1.8
		c-1.4,0-2.5-0.8-2.5-2H141.2z"/>
</g>
<g>
	<path class="st0" d="M46.3,203.9h-4.5v-1.2l3.9-6.1h2.1v6.1h0.8v1.2h-0.8v1.7h-1.6V203.9z M46.3,202.7v-4.5l-2.9,4.5H46.3z"/>
	<path class="st0" d="M53.3,196.5c2.1,0,3.6,1.7,3.6,4.6c0,2.9-1.5,4.6-3.6,4.6s-3.6-1.7-3.6-4.6C49.7,198.2,51.2,196.5,53.3,196.5z
		 M53.3,204.5c1.1,0,1.9-1.2,1.9-3.4s-0.7-3.4-1.9-3.4s-1.9,1.2-1.9,3.4S52.2,204.5,53.3,204.5z"/>
	<path class="st0" d="M61.5,196.5c2.1,0,3.6,1.7,3.6,4.6c0,2.9-1.5,4.6-3.6,4.6s-3.6-1.7-3.6-4.6C57.9,198.2,59.4,196.5,61.5,196.5z
		 M61.5,204.5c1.1,0,1.9-1.2,1.9-3.4s-0.7-3.4-1.9-3.4s-1.9,1.2-1.9,3.4S60.4,204.5,61.5,204.5z"/>
	<path class="st0" d="M73,196.5c2.1,0,3.6,1.7,3.6,4.6c0,2.9-1.5,4.6-3.6,4.6s-3.6-1.7-3.6-4.6C69.4,198.2,70.9,196.5,73,196.5z
		 M73,204.5c1.1,0,1.9-1.2,1.9-3.4s-0.7-3.4-1.9-3.4s-1.9,1.2-1.9,3.4S71.9,204.5,73,204.5z"/>
	<path class="st0" d="M81.3,196.5c2.1,0,3.6,1.7,3.6,4.6c0,2.9-1.5,4.6-3.6,4.6s-3.6-1.7-3.6-4.6C77.6,198.2,79.1,196.5,81.3,196.5z
		 M81.3,204.5c1.1,0,1.9-1.2,1.9-3.4s-0.7-3.4-1.9-3.4s-1.9,1.2-1.9,3.4S80.1,204.5,81.3,204.5z"/>
	<path class="st0" d="M89.5,196.5c2.1,0,3.6,1.7,3.6,4.6c0,2.9-1.5,4.6-3.6,4.6s-3.6-1.7-3.6-4.6C85.9,198.2,87.4,196.5,89.5,196.5z
		 M89.5,204.5c1.1,0,1.9-1.2,1.9-3.4s-0.7-3.4-1.9-3.4s-1.9,1.2-1.9,3.4S88.4,204.5,89.5,204.5z"/>
	<path class="st0" d="M44.7,221.1h-0.9l-2.7-6.4H42l2.3,5.7l2.3-5.7h0.8L44.7,221.1z"/>
	<path class="st0" d="M48.8,212h0.8v1.3h-0.8V212z M48.8,214.6h0.8v6.4h-0.8V214.6z"/>
	<path class="st0" d="M52.1,219.1c0,0.9,0.8,1.5,1.8,1.5c1,0,1.7-0.5,1.7-1.2c0-1.9-4.1-0.6-4.1-3c0-1.1,1-1.8,2.3-1.8
		c1.3,0,2.3,0.7,2.3,1.9h-0.7c0-0.8-0.7-1.4-1.6-1.4s-1.5,0.5-1.5,1.2c0,1.8,4.1,0.5,4.1,3c0,1.1-1,1.8-2.5,1.8
		c-1.4,0-2.5-0.8-2.5-2H52.1z"/>
	<path class="st0" d="M58.1,212h0.8v1.3h-0.8V212z M58.1,214.6h0.8v6.4h-0.8V214.6z"/>
	<path class="st0" d="M61.5,219.5v-4.3h-1.1v-0.5h1.1v-1.4h0.8v1.4H64v0.5h-1.8v4.4c0,0.7,0.5,1,1.3,1c0.2,0,0.3,0,0.5-0.1v0.5
		c-0.2,0-0.4,0.1-0.6,0.1C62.2,221.1,61.5,220.6,61.5,219.5z"/>
	<path class="st0" d="M66,219.1c0,0.9,0.8,1.5,1.8,1.5c1,0,1.7-0.5,1.7-1.2c0-1.9-4.1-0.6-4.1-3c0-1.1,1-1.8,2.3-1.8
		c1.3,0,2.3,0.7,2.3,1.9h-0.7c0-0.8-0.7-1.4-1.6-1.4s-1.5,0.5-1.5,1.2c0,1.8,4.1,0.5,4.1,3c0,1.1-1,1.8-2.5,1.8
		c-1.4,0-2.5-0.8-2.5-2H66z"/>
	<path class="st0" d="M75,214.6h0.7l0,1.4c0.4-0.9,1.2-1.5,2.3-1.5c1.7,0,2.9,1.2,2.9,3.3c0,2.1-1.2,3.3-2.9,3.3
		c-1,0-1.8-0.5-2.3-1.4v4.1H75V214.6z M77.9,220.6c1.4,0,2.3-1,2.3-2.7s-0.9-2.7-2.3-2.7c-1.3,0-2.1,1-2.1,2.7
		S76.6,220.6,77.9,220.6z"/>
	<path class="st0" d="M88.2,218h-5c0,1.6,0.9,2.5,2.3,2.5c1.1,0,1.9-0.6,1.9-1.5h0.7c0,1.2-1.1,2-2.6,2c-1.8,0-3.1-1.2-3.1-3.3
		c0-2.1,1.2-3.3,3.1-3.3C87.1,214.6,88.3,215.7,88.2,218z M83.3,217.5h4.2c0-1.5-0.8-2.4-1.9-2.4C84.2,215.1,83.3,216,83.3,217.5z"
		/>
	<path class="st0" d="M90.9,221.1h-0.8v-6.4h0.7l0.1,1.5c0.4-1,1.3-1.5,2.3-1.5v0.6c-1.4,0-2.3,1.1-2.3,2.8V221.1z"/>
	<path class="st0" d="M100.3,222.2c-0.4,1.1-1.4,1.7-2.7,1.7v-0.5c0.8,0,1.6-0.4,1.9-1.1l0.5-1.1h-0.1l-2.6-6.4H98l2.3,5.7l2.3-5.7
		h0.8L100.3,222.2z"/>
	<path class="st0" d="M110,218h-5c0,1.6,0.9,2.5,2.3,2.5c1.1,0,1.9-0.6,1.9-1.5h0.7c0,1.2-1.1,2-2.6,2c-1.8,0-3.1-1.2-3.1-3.3
		c0-2.1,1.2-3.3,3.1-3.3C108.9,214.6,110.1,215.7,110,218z M105.1,217.5h4.2c0-1.5-0.8-2.4-1.9-2.4C106,215.1,105.1,216,105.1,217.5
		z"/>
	<path class="st0" d="M116,219.6c-0.4,0.9-1.3,1.5-2.4,1.5c-1.1,0-2-0.6-2-1.7c0-1.4,1.4-2.2,3.8-2.2h0.5v-0.6c0-1-0.7-1.6-1.7-1.6
		c-1,0-1.8,0.6-1.8,1.5h-0.8c0-1.2,1.1-2,2.5-2c1.5,0,2.5,0.8,2.5,2.1v4.3H116L116,219.6z M115.5,217.8c-2,0-3,0.6-3,1.6
		c0,0.7,0.5,1.2,1.3,1.2c1.3,0,2.2-1,2.2-2.6v-0.2H115.5z"/>
	<path class="st0" d="M119.6,221.1h-0.8v-6.4h0.7l0.1,1.5c0.4-1,1.3-1.5,2.3-1.5v0.6c-1.4,0-2.3,1.1-2.3,2.8V221.1z"/>
</g>
<g>
	<g>
		<path class="st0" d="M29,58.2c-0.2,0-0.4-0.1-0.5-0.2L14.9,44.9L1.3,58c-0.3,0.3-0.8,0.3-1.1,0c-0.3-0.3-0.3-0.8,0-1.1l14.1-13.7
			c0.3-0.3,0.8-0.3,1.1,0l14.1,13.7c0.3,0.3,0.3,0.8,0,1.1C29.4,58.1,29.2,58.2,29,58.2z"/>
	</g>
	<g>
		<path class="st0" d="M25,72.7h-6.3c-0.4,0-0.8-0.4-0.8-0.8v-9.8h-6v9.8c0,0.4-0.4,0.8-0.8,0.8H4.8c-0.4,0-0.8-0.4-0.8-0.8V57.1
			c0-0.4,0.4-0.8,0.8-0.8c0.4,0,0.8,0.4,0.8,0.8v14h4.8v-9.8c0-0.4,0.4-0.8,0.8-0.8h7.6c0.4,0,0.8,0.4,0.8,0.8v9.8h4.8V57.5
			c0-0.4,0.4-0.8,0.8-0.8c0.4,0,0.8,0.4,0.8,0.8v14.4C25.8,72.3,25.4,72.7,25,72.7z"/>
	</g>
</g>
<g>
	<g>
		<path class="st0" d="M6,117.7C6,117.7,6,117.7,6,117.7c-1,0-2-0.5-2-1.5v-25c0-1.1,0.9-2,2-2s2,0.9,2,2v1.5c0,0.4-0.3,0.7-0.7,0.7
			c-0.4,0-0.7-0.3-0.7-0.7v-1.5c0-0.3-0.3-0.6-0.6-0.6c-0.3,0-0.6,0.3-0.6,0.6v24.9c0.1,0.1,0.4,0.1,0.6,0.1c0.1,0,0.4,0,0.6,0V96.1
			c0-0.4,0.3-0.7,0.7-0.7c0.4,0,0.7,0.3,0.7,0.7v20.1C8,117.7,6.6,117.7,6,117.7z"/>
	</g>
	<g>
		<path class="st0" d="M6,120.2c-2.7,0-4.7-1.1-4.7-2.6c0-1.2,1.2-2.1,3.2-2.5c0.4-0.1,0.8,0.2,0.8,0.6c0.1,0.4-0.2,0.8-0.6,0.8
			c-1.4,0.3-2,0.8-2,1.1c0,0.4,1.2,1.2,3.3,1.2c2,0,3.3-0.8,3.3-1.2c0-0.3-0.7-0.9-2.1-1.1c-0.4-0.1-0.7-0.4-0.6-0.8
			c0.1-0.4,0.4-0.7,0.8-0.6c2,0.3,3.3,1.3,3.3,2.5C10.7,119,8.7,120.2,6,120.2z"/>
	</g>
	<g>
		<path class="st0" d="M7.3,110.5c-0.3,0-0.6-0.2-0.7-0.5c-0.1-0.4,0.1-0.8,0.4-0.9l6.4-2.3v-6.7c0-0.2,0.1-0.5,0.3-0.6
			c0.2-0.1,0.4-0.2,0.7-0.1l2.6,0.9v-3.4l-9.9-3.5c-0.4-0.1-0.6-0.5-0.4-0.9c0.1-0.4,0.5-0.6,0.9-0.4L18,95.7
			c0.3,0.1,0.5,0.4,0.5,0.7v5c0,0.2-0.1,0.5-0.3,0.6c-0.2,0.1-0.4,0.2-0.7,0.1l-2.6-0.9v6.2c0,0.3-0.2,0.6-0.5,0.7l-6.8,2.4
			C7.5,110.5,7.4,110.5,7.3,110.5z"/>
	</g>
	<g>
		<path class="st0" d="M14.2,110.5c-0.1,0-0.3,0-0.4-0.1c-0.2-0.1-0.3-0.4-0.3-0.6v-9.6c0-0.2,0.1-0.5,0.3-0.6
			c0.2-0.1,0.4-0.2,0.7-0.1l13.5,4.8c0.3,0.1,0.5,0.4,0.5,0.7c0,0.3-0.2,0.6-0.5,0.7l-13.5,4.8C14.3,110.5,14.3,110.5,14.2,110.5z
			 M14.9,101.1v7.6l10.7-3.8L14.9,101.1z"/>
	</g>
	<g>
		<path class="st0" d="M14.2,100.8c-0.2,0-0.4-0.1-0.5-0.2c-0.3-0.3-0.3-0.7,0-1l3.6-3.7c0.3-0.3,0.7-0.3,1,0c0.3,0.3,0.3,0.7,0,1
			l-3.6,3.7C14.6,100.8,14.4,100.8,14.2,100.8z"/>
	</g>
</g>
<g>
	<path class="st0" d="M12.8,6.2c0,1.7,0.9,2.7,2.3,2.7c1,0,1.8-0.6,1.8-1.6h0.8c0,1.3-1.1,2.1-2.5,2.1c-1.8,0-3.1-1.2-3.1-3.3
		c0-2.1,1.3-3.3,3.1-3.3c1.4,0,2.5,0.8,2.5,2.1h-0.8c0-0.9-0.7-1.6-1.8-1.6C13.7,3.4,12.8,4.4,12.8,6.2z"/>
	<path class="st0" d="M22.3,2.9c1.8,0,3.1,1.2,3.1,3.3c0,2.1-1.3,3.3-3.1,3.3c-1.8,0-3.1-1.2-3.1-3.3C19.2,4.1,20.4,2.9,22.3,2.9z
		 M22.3,8.9c1.4,0,2.3-1,2.3-2.7s-0.9-2.7-2.3-2.7c-1.4,0-2.3,1-2.3,2.7S20.9,8.9,22.3,8.9z"/>
	<path class="st0" d="M31.8,2.9h0.8v6.4h-0.7l0-1.4c-0.4,0.9-1.3,1.5-2.3,1.5c-1.4,0-2.4-0.9-2.4-2.3V2.9h0.8v4.2
		c0,1.1,0.7,1.8,1.8,1.8c1.3,0,2.1-1,2.1-2.7V2.9z"/>
	<path class="st0" d="M35.4,9.4h-0.8V2.9h0.7l0,1.4c0.4-0.9,1.3-1.5,2.3-1.5c1.4,0,2.4,0.9,2.4,2.3v4.2h-0.8V5.2
		c0-1.1-0.7-1.8-1.8-1.8c-1.3,0-2.1,1-2.1,2.7V9.4z"/>
	<path class="st0" d="M42.6,7.8V3.5h-1.1V2.9h1.1V1.6h0.8v1.4h1.8v0.5h-1.8v4.4c0,0.7,0.5,1,1.3,1c0.2,0,0.3,0,0.5-0.1v0.5
		c-0.2,0-0.4,0.1-0.6,0.1C43.3,9.4,42.6,8.9,42.6,7.8z"/>
	<path class="st0" d="M47.7,9.4h-0.8V2.9h0.7l0.1,1.5c0.4-1,1.3-1.5,2.3-1.5v0.6c-1.4,0-2.3,1.1-2.3,2.8V9.4z"/>
	<path class="st0" d="M54,10.5c-0.4,1.1-1.4,1.7-2.7,1.7v-0.5c0.8,0,1.6-0.4,1.9-1.1l0.5-1.1h-0.1L51,2.9h0.8l2.3,5.7l2.3-5.7h0.8
		L54,10.5z"/>
	<path class="st0" d="M64.3,2.9c1.8,0,3.1,1.2,3.1,3.3c0,2.1-1.3,3.3-3.1,3.3c-1.8,0-3.1-1.2-3.1-3.3C61.3,4.1,62.5,2.9,64.3,2.9z
		 M64.3,8.9c1.4,0,2.3-1,2.3-2.7s-0.9-2.7-2.3-2.7c-1.4,0-2.3,1-2.3,2.7S63,8.9,64.3,8.9z"/>
	<path class="st0" d="M76.4,3.5h-2.7v5.9h-0.8V3.5h-2.8v5.9h-0.8V3.5h-1V2.9h1V1.6c0-1.1,0.7-1.6,2-1.6c0.2,0,0.4,0,0.6,0.1v0.5
		c-0.2,0-0.3-0.1-0.5-0.1c-0.7,0-1.2,0.4-1.2,1v1.4h2.8V1.6c0-1.1,0.7-1.6,2-1.6c0.2,0,0.4,0,0.6,0.1v0.5c-0.2,0-0.3-0.1-0.5-0.1
		c-0.7,0-1.2,0.4-1.2,1v1.4h3.5v6.4h-0.8V3.5z M76.4,0.4h0.8v1.3h-0.8V0.4z"/>
	<path class="st0" d="M79.8,6.2c0,1.7,0.9,2.7,2.3,2.7c1,0,1.8-0.6,1.8-1.6h0.8c0,1.3-1.1,2.1-2.5,2.1c-1.8,0-3.1-1.2-3.1-3.3
		c0-2.1,1.3-3.3,3.1-3.3c1.4,0,2.5,0.8,2.5,2.1h-0.8c0-0.9-0.7-1.6-1.8-1.6C80.7,3.4,79.8,4.4,79.8,6.2z"/>
	<path class="st0" d="M92,6.4h-5c0,1.6,0.9,2.5,2.3,2.5c1.1,0,1.9-0.6,1.9-1.5h0.7c0,1.2-1.1,2-2.6,2c-1.8,0-3.1-1.2-3.1-3.3
		c0-2.1,1.2-3.3,3.1-3.3C90.9,2.9,92,4,92,6.4z M87,5.8h4.2c0-1.5-0.8-2.4-1.9-2.4C88,3.4,87,4.3,87,5.8z"/>
	<path class="st0" d="M94.3,7.4c0,0.9,0.8,1.5,1.8,1.5c1,0,1.7-0.5,1.7-1.2c0-1.9-4.1-0.6-4.1-3c0-1.1,1-1.8,2.3-1.8
		c1.3,0,2.3,0.7,2.3,1.9h-0.7c0-0.8-0.7-1.4-1.6-1.4s-1.5,0.5-1.5,1.2c0,1.8,4.1,0.5,4.1,3c0,1.1-1,1.8-2.5,1.8
		c-1.4,0-2.5-0.8-2.5-2H94.3z"/>
	<path class="st0" d="M12.3,15.8H13v1.3h-0.8V15.8z M12.3,18.4H13v6.4h-0.8V18.4z"/>
	<path class="st0" d="M15.9,24.9h-0.8v-6.4h0.7l0,1.4c0.4-0.9,1.3-1.5,2.3-1.5c1.4,0,2.4,0.9,2.4,2.3v4.2h-0.8v-4.2
		c0-1.1-0.7-1.8-1.8-1.8c-1.3,0-2.1,1-2.1,2.7V24.9z"/>
	<path class="st0" d="M28,15.8h2.1l3.1,9h-1.8l-0.7-2.1h-3.3l-0.7,2.1h-1.8L28,15.8z M27.7,21.6h2.7l-1.4-4.3L27.7,21.6z"/>
	<path class="st0" d="M33.9,18.4h5.4v1.1l-3.6,4.3h3.7v1.1h-5.5v-1.1l3.5-4.3h-3.5V18.4z"/>
	<path class="st0" d="M46.2,22.1h-4.4c0,1.1,0.6,1.8,1.5,1.8c0.7,0,1.2-0.4,1.2-1.1h1.7c0,1.3-1.2,2.2-2.9,2.2
		c-1.9,0-3.3-1.2-3.3-3.3c0-2.1,1.3-3.3,3.3-3.3C45.1,18.3,46.4,19.5,46.2,22.1z M41.8,21.1h2.7c0-1.1-0.5-1.7-1.2-1.7
		C42.5,19.4,41.8,20,41.8,21.1z"/>
	<path class="st0" d="M49.3,24.9h-1.7v-6.4H49l0.2,1.1c0.4-0.8,1.2-1.1,2-1.1v1.2c-1.1,0-2,1-2,2.5V24.9z"/>
	<path class="st0" d="M52.5,15.5h1.7v3.7c0.4-0.5,1-0.8,1.8-0.8c1.7,0,2.8,1.2,2.8,3.3c0,2.1-1.1,3.3-2.8,3.3
		c-0.8,0-1.4-0.3-1.8-0.9l-0.1,0.8h-1.6V15.5z M55.6,23.9c0.9,0,1.5-0.8,1.5-2.2s-0.6-2.2-1.5-2.2c-0.8,0-1.4,0.8-1.4,2.2
		S54.7,23.9,55.6,23.9z"/>
	<path class="st0" d="M63.8,23.9c-0.4,0.6-1.1,1-1.9,1c-1.3,0-2.2-0.6-2.2-1.7c0-1.4,1.4-2.2,3.7-2.2h0.4v-0.4
		c0-0.8-0.5-1.2-1.2-1.2c-0.7,0-1.1,0.4-1.1,1.1h-1.7c0-1.4,1.1-2.2,2.8-2.2c1.7,0,2.9,0.8,2.9,2.3v4.3H64L63.8,23.9z M63.4,21.9
		c-1.3,0-1.9,0.4-1.9,1.2c0,0.5,0.3,0.8,0.9,0.8c0.9,0,1.4-0.7,1.4-1.8v-0.2H63.4z"/>
	<path class="st0" d="M67,15.8h1.7v1.6H67V15.8z M67,18.4h1.7v6.4H67V18.4z"/>
	<path class="st0" d="M71.9,25.5c0,1.5-0.9,2.2-2.6,2.2v-1.1c0.6,0,0.9-0.3,0.9-0.9v-7.3h1.7V25.5z M70.2,15.8h1.7v1.6h-1.7V15.8z"
		/>
	<path class="st0" d="M77.2,23.9c-0.4,0.6-1.1,1-1.9,1c-1.3,0-2.2-0.6-2.2-1.7c0-1.4,1.4-2.2,3.7-2.2h0.4v-0.4
		c0-0.8-0.5-1.2-1.2-1.2c-0.7,0-1.1,0.4-1.1,1.1h-1.7c0-1.4,1.1-2.2,2.8-2.2c1.7,0,2.9,0.8,2.9,2.3v4.3h-1.6L77.2,23.9z M76.8,21.9
		c-1.3,0-1.9,0.4-1.9,1.2c0,0.5,0.3,0.8,0.9,0.8c0.9,0,1.4-0.7,1.4-1.8v-0.2H76.8z"/>
	<path class="st0" d="M82.1,24.9h-1.7v-6.4H82l0.1,0.9c0.4-0.6,1.1-1,1.8-1c1.4,0,2.4,0.9,2.4,2.3v4.2h-1.7v-4.2
		c0-0.8-0.4-1.2-1.1-1.2c-0.9,0-1.4,0.8-1.4,2.2V24.9z"/>
	<path class="st0" d="M87.7,23.2h1.7v1.7c0,1.2-0.7,2.1-1.7,2.1V26c0.4,0,0.6-0.5,0.6-1.1h-0.6V23.2z"/>
	<path class="st0" d="M94.2,15.8h3.7c1.8,0,2.9,0.9,2.9,2.3c0,0.9-0.5,1.6-1.3,2c1,0.3,1.7,1.1,1.7,2.3c0,1.5-1.2,2.5-3,2.5h-4V15.8
		z M96,17v2.6h1.5c0.9,0,1.5-0.5,1.5-1.3S98.4,17,97.5,17H96z M97.8,23.7c1,0,1.6-0.5,1.6-1.5c0-0.9-0.6-1.4-1.6-1.4H96v2.9H97.8z"
		/>
	<path class="st0" d="M106.6,18.4h1.7v6.4h-1.6l-0.1-0.9c-0.4,0.6-1.1,1-1.9,1c-1.4,0-2.3-0.8-2.3-2.2v-4.3h1.7v4.3
		c0,0.7,0.4,1.1,1.1,1.1c0.9,0,1.4-0.8,1.4-2.2V18.4z"/>
	<path class="st0" d="M109.7,15.5h1.7v7.8c0,0.4,0.2,0.6,0.5,0.6v1.1c-1.6,0-2.2-0.4-2.2-1.5V15.5z"/>
	<path class="st0" d="M117.5,25v-0.9c-0.4,0.5-1,0.8-1.8,0.8c-1.7,0-2.8-1.2-2.8-3.3c0-2.1,1.1-3.3,2.8-3.3c0.8,0,1.4,0.3,1.8,0.9
		l0.1-0.8h1.6V25c0,1.7-1.3,2.7-3.1,2.7c-1.7,0-3-0.8-3-2.2h1.6c0,0.7,0.5,1.2,1.3,1.2C117,26.6,117.5,26,117.5,25z M116.1,19.4
		c-0.9,0-1.5,0.8-1.5,2.2s0.6,2.2,1.5,2.2c0.9,0,1.4-0.8,1.4-2.2S117,19.4,116.1,19.4z"/>
	<path class="st0" d="M124.5,23.9c-0.4,0.6-1.1,1-1.9,1c-1.3,0-2.2-0.6-2.2-1.7c0-1.4,1.4-2.2,3.7-2.2h0.4v-0.4
		c0-0.8-0.5-1.2-1.2-1.2c-0.7,0-1.1,0.4-1.1,1.1h-1.7c0-1.4,1.1-2.2,2.8-2.2c1.7,0,2.9,0.8,2.9,2.3v4.3h-1.6L124.5,23.9z
		 M124.1,21.9c-1.3,0-1.9,0.4-1.9,1.2c0,0.5,0.3,0.8,0.9,0.8c0.9,0,1.4-0.7,1.4-1.8v-0.2H124.1z"/>
	<path class="st0" d="M129.5,24.9h-1.7v-6.4h1.5l0.2,1.1c0.4-0.8,1.2-1.1,2-1.1v1.2c-1.1,0-2,1-2,2.5V24.9z"/>
	<path class="st0" d="M132.7,15.8h1.7v1.6h-1.7V15.8z M132.7,18.4h1.7v6.4h-1.7V18.4z"/>
	<path class="st0" d="M139.7,23.9c-0.4,0.6-1.1,1-1.9,1c-1.3,0-2.2-0.6-2.2-1.7c0-1.4,1.4-2.2,3.7-2.2h0.4v-0.4
		c0-0.8-0.5-1.2-1.2-1.2c-0.7,0-1.1,0.4-1.1,1.1h-1.7c0-1.4,1.1-2.2,2.8-2.2c1.7,0,2.9,0.8,2.9,2.3v4.3h-1.6L139.7,23.9z
		 M139.3,21.9c-1.3,0-1.9,0.4-1.9,1.2c0,0.5,0.3,0.8,0.9,0.8c0.9,0,1.4-0.7,1.4-1.8v-0.2H139.3z"/>
</g>
<g>
	<path class="st0" d="M44.4,49.8c1.8,0,3.1,1.2,3.1,3.3c0,2.1-1.3,3.3-3.1,3.3c-1.8,0-3.1-1.2-3.1-3.3C41.3,51,42.6,49.8,44.4,49.8z
		 M44.4,55.8c1.4,0,2.3-1,2.3-2.7s-0.9-2.7-2.3-2.7c-1.4,0-2.3,1-2.3,2.7S43.1,55.8,44.4,55.8z"/>
	<path class="st0" d="M49.3,49.9H50l0,1.4c0.4-0.9,1.2-1.5,2.3-1.5c1.7,0,2.9,1.2,2.9,3.3c0,2.1-1.2,3.3-2.9,3.3
		c-1,0-1.8-0.5-2.3-1.4v4.1h-0.8V49.9z M52.2,55.8c1.4,0,2.3-1,2.3-2.7s-0.9-2.7-2.3-2.7c-1.3,0-2.1,1-2.1,2.7S50.9,55.8,52.2,55.8z
		"/>
	<path class="st0" d="M62.5,53.3h-5c0,1.6,0.9,2.5,2.3,2.5c1.1,0,1.9-0.6,1.9-1.5h0.7c0,1.2-1.1,2-2.6,2c-1.8,0-3.1-1.2-3.1-3.3
		c0-2.1,1.2-3.3,3.1-3.3C61.4,49.8,62.6,51,62.5,53.3z M57.5,52.8h4.2c0-1.5-0.8-2.4-1.9-2.4C58.5,50.4,57.5,51.3,57.5,52.8z"/>
	<path class="st0" d="M65.2,56.3h-0.8v-6.4h0.7l0.1,1.5c0.4-1,1.3-1.5,2.3-1.5v0.6c-1.4,0-2.3,1.1-2.3,2.8V56.3z"/>
	<path class="st0" d="M73,54.9c-0.4,0.9-1.3,1.5-2.4,1.5c-1.1,0-2-0.6-2-1.7c0-1.4,1.4-2.2,3.8-2.2H73V52c0-1-0.7-1.6-1.7-1.6
		c-1,0-1.8,0.6-1.8,1.5h-0.8c0-1.2,1.1-2,2.5-2c1.5,0,2.5,0.8,2.5,2.1v4.3h-0.7L73,54.9z M72.5,53c-2,0-3,0.6-3,1.6
		c0,0.7,0.5,1.2,1.3,1.2c1.3,0,2.2-1,2.2-2.6V53H72.5z"/>
	<path class="st0" d="M76.4,54.7v-4.3h-1.1v-0.5h1.1v-1.4h0.8v1.4h1.8v0.5h-1.8v4.4c0,0.7,0.5,1,1.3,1c0.2,0,0.3,0,0.5-0.1v0.5
		c-0.2,0-0.4,0.1-0.6,0.1C77,56.4,76.4,55.8,76.4,54.7z"/>
	<path class="st0" d="M80.6,47.3h0.8v1.3h-0.8V47.3z M80.6,49.9h0.8v6.4h-0.8V49.9z"/>
	<path class="st0" d="M86.3,49.8c1.8,0,3.1,1.2,3.1,3.3c0,2.1-1.3,3.3-3.1,3.3c-1.8,0-3.1-1.2-3.1-3.3C83.2,51,84.4,49.8,86.3,49.8z
		 M86.3,55.8c1.4,0,2.3-1,2.3-2.7s-0.9-2.7-2.3-2.7c-1.4,0-2.3,1-2.3,2.7S84.9,55.8,86.3,55.8z"/>
	<path class="st0" d="M91.9,56.3h-0.8v-6.4h0.7l0,1.4c0.4-0.9,1.3-1.5,2.3-1.5c1.4,0,2.4,0.9,2.4,2.3v4.2h-0.8v-4.2
		c0-1.1-0.7-1.8-1.8-1.8c-1.3,0-2.1,1-2.1,2.7V56.3z"/>
	<path class="st0" d="M102.7,54.9c-0.4,0.9-1.3,1.5-2.4,1.5c-1.1,0-2-0.6-2-1.7c0-1.4,1.4-2.2,3.8-2.2h0.5V52c0-1-0.7-1.6-1.7-1.6
		c-1,0-1.8,0.6-1.8,1.5h-0.8c0-1.2,1.1-2,2.5-2c1.5,0,2.5,0.8,2.5,2.1v4.3h-0.7L102.7,54.9z M102.2,53c-2,0-3,0.6-3,1.6
		c0,0.7,0.5,1.2,1.3,1.2c1.3,0,2.2-1,2.2-2.6V53H102.2z"/>
	<path class="st0" d="M105.6,47h0.8v8.1c0,0.5,0.3,0.8,0.7,0.8v0.5c-1,0-1.5-0.4-1.5-1.3V47z"/>
	<path class="st0" d="M112.4,56.3h-0.8V47h0.8v4.3c0.4-0.9,1.3-1.4,2.3-1.4c1.4,0,2.4,0.9,2.4,2.3v4.2h-0.8v-4.2
		c0-1.1-0.7-1.8-1.8-1.8c-1.3,0-2.1,1-2.1,2.7V56.3z"/>
	<path class="st0" d="M123.8,49.9h0.8v6.4h-0.7l0-1.4c-0.4,0.9-1.3,1.5-2.3,1.5c-1.4,0-2.4-0.9-2.4-2.3v-4.2h0.8v4.2
		c0,1.1,0.7,1.8,1.8,1.8c1.3,0,2.1-1,2.1-2.7V49.9z"/>
	<path class="st0" d="M126.7,47h0.8v4.3c0.4-0.9,1.2-1.4,2.3-1.4c1.7,0,2.9,1.2,2.9,3.3c0,2.1-1.2,3.3-2.9,3.3c-1,0-1.8-0.5-2.3-1.4
		l0,1.4h-0.7V47z M129.6,55.8c1.4,0,2.3-1,2.3-2.7s-0.9-2.7-2.3-2.7c-1.3,0-2.1,1-2.1,2.7S128.3,55.8,129.6,55.8z"/>
	<path class="st0" d="M140.3,47v0.5c-0.2,0-0.3-0.1-0.5-0.1c-0.7,0-1.2,0.4-1.2,1v1.4h1.8v0.5h-1.8v5.9h-0.8v-5.9h-1v-0.5h1v-1.3
		c0-1.1,0.7-1.6,2-1.6C139.9,46.9,140.1,47,140.3,47z"/>
	<path class="st0" d="M144.3,49.8c1.8,0,3.1,1.2,3.1,3.3c0,2.1-1.3,3.3-3.1,3.3c-1.8,0-3.1-1.2-3.1-3.3
		C141.3,51,142.5,49.8,144.3,49.8z M144.3,55.8c1.4,0,2.3-1,2.3-2.7s-0.9-2.7-2.3-2.7c-1.4,0-2.3,1-2.3,2.7S143,55.8,144.3,55.8z"/>
	<path class="st0" d="M150,56.3h-0.8v-6.4h0.7l0.1,1.5c0.4-1,1.3-1.5,2.3-1.5v0.6c-1.4,0-2.3,1.1-2.3,2.8V56.3z"/>
	<path class="st0" d="M157.4,53.6c0,1.3,1.1,2.2,2.5,2.2c1.4,0,2.4-0.7,2.4-1.8c0-2.8-5.5-1-5.5-4.2c0-1.5,1.2-2.5,3-2.5s3,1,3,2.6
		H162c0-1.2-1-2-2.2-2c-1.3,0-2.2,0.7-2.2,1.9c0,2.7,5.5,0.8,5.5,4.2c0,1.6-1.3,2.5-3.2,2.5c-1.9,0-3.3-1.1-3.3-2.8H157.4z"/>
	<path class="st0" d="M165.4,53.1c0,1.7,0.9,2.7,2.3,2.7c1,0,1.8-0.6,1.8-1.6h0.8c0,1.3-1.1,2.1-2.5,2.1c-1.8,0-3.1-1.2-3.1-3.3
		c0-2.1,1.3-3.3,3.1-3.3c1.4,0,2.5,0.8,2.5,2.1h-0.8c0-0.9-0.7-1.6-1.8-1.6C166.3,50.4,165.4,51.4,165.4,53.1z"/>
	<path class="st0" d="M172.9,56.3h-0.8V47h0.8v4.3c0.4-0.9,1.3-1.4,2.3-1.4c1.4,0,2.4,0.9,2.4,2.3v4.2h-0.8v-4.2
		c0-1.1-0.7-1.8-1.8-1.8c-1.3,0-2.1,1-2.1,2.7V56.3z"/>
	<path class="st0" d="M185.1,53.3h-5c0,1.6,0.9,2.5,2.3,2.5c1.1,0,1.9-0.6,1.9-1.5h0.7c0,1.2-1.1,2-2.6,2c-1.8,0-3.1-1.2-3.1-3.3
		c0-2.1,1.2-3.3,3.1-3.3C184,49.8,185.1,51,185.1,53.3z M180.1,52.8h4.2c0-1.5-0.8-2.4-1.9-2.4C181.1,50.4,180.1,51.3,180.1,52.8z"
		/>
	<path class="st0" d="M192.6,56.3h-0.7l-0.1-1.4c-0.4,0.9-1.2,1.5-2.3,1.5c-1.7,0-2.9-1.2-2.9-3.3c0-2.1,1.2-3.3,2.9-3.3
		c1,0,1.8,0.5,2.3,1.4V47h0.8V56.3z M189.7,50.4c-1.4,0-2.3,1-2.3,2.7s0.9,2.7,2.3,2.7c1.3,0,2.1-1,2.1-2.7S191,50.4,189.7,50.4z"/>
	<path class="st0" d="M199.3,49.9h0.8v6.4h-0.7l0-1.4c-0.4,0.9-1.3,1.5-2.3,1.5c-1.4,0-2.4-0.9-2.4-2.3v-4.2h0.8v4.2
		c0,1.1,0.7,1.8,1.8,1.8c1.3,0,2.1-1,2.1-2.7V49.9z"/>
	<path class="st0" d="M202.2,47h0.8v8.1c0,0.5,0.3,0.8,0.7,0.8v0.5c-1,0-1.5-0.4-1.5-1.3V47z"/>
	<path class="st0" d="M205.3,47.3h0.8v1.3h-0.8V47.3z M205.3,49.9h0.8v6.4h-0.8V49.9z"/>
	<path class="st0" d="M209,56.3h-0.8v-6.4h0.7l0,1.4c0.4-0.9,1.3-1.5,2.3-1.5c1.4,0,2.4,0.9,2.4,2.3v4.2h-0.8v-4.2
		c0-1.1-0.7-1.8-1.8-1.8c-1.3,0-2.1,1-2.1,2.7V56.3z"/>
	<path class="st0" d="M220.6,56.4V55c-0.4,0.9-1.2,1.4-2.3,1.4c-1.7,0-2.9-1.2-2.9-3.3c0-2.1,1.2-3.3,2.9-3.3c1,0,1.8,0.5,2.3,1.4
		l0.1-1.4h0.7v6.5c0,1.7-1.2,2.8-2.9,2.8c-1.6,0-2.8-0.8-2.8-2.1h0.7c0,0.9,0.9,1.6,2.1,1.6C219.7,58.6,220.6,57.8,220.6,56.4z
		 M218.5,50.4c-1.4,0-2.3,1-2.3,2.7s0.9,2.7,2.3,2.7c1.3,0,2.1-1,2.1-2.7S219.7,50.4,218.5,50.4z"/>
	<path class="st0" d="M41.6,62.8h0.8v1.3h-0.8V62.8z M41.6,65.4h0.8v6.4h-0.8V65.4z"/>
	<path class="st0" d="M45.3,71.8h-0.8v-6.4h0.7l0,1.4c0.4-0.9,1.3-1.5,2.3-1.5c1.4,0,2.4,0.9,2.4,2.3v4.2h-0.8v-4.2
		c0-1.1-0.7-1.8-1.8-1.8c-1.3,0-2.1,1-2.1,2.7V71.8z"/>
	<path class="st0" d="M54.8,62.8h3.7c1.8,0,2.9,0.9,2.9,2.3c0,0.9-0.5,1.6-1.3,2c1,0.3,1.7,1.1,1.7,2.3c0,1.5-1.2,2.5-3,2.5h-4V62.8
		z M56.6,64v2.6h1.5c0.9,0,1.5-0.5,1.5-1.3S59.1,64,58.1,64H56.6z M58.5,70.6c1,0,1.6-0.5,1.6-1.5c0-0.9-0.6-1.4-1.6-1.4h-1.8v2.9
		H58.5z"/>
	<path class="st0" d="M64.7,71.8H63v-6.4h1.5l0.2,1.1c0.4-0.8,1.2-1.1,2-1.1v1.2c-1.1,0-2,1-2,2.5V71.8z"/>
	<path class="st0" d="M71.5,70.9c-0.4,0.6-1.1,1-1.9,1c-1.3,0-2.2-0.6-2.2-1.7c0-1.4,1.4-2.2,3.7-2.2h0.4v-0.4
		c0-0.8-0.5-1.2-1.2-1.2c-0.7,0-1.1,0.4-1.1,1.1h-1.7c0-1.4,1.1-2.2,2.8-2.2c1.7,0,2.9,0.8,2.9,2.3v4.3h-1.6L71.5,70.9z M71.1,68.8
		c-1.3,0-1.9,0.4-1.9,1.2c0,0.5,0.3,0.8,0.9,0.8c0.9,0,1.4-0.7,1.4-1.8v-0.2H71.1z"/>
	<path class="st0" d="M75.2,69.9v-3.5h-0.9v-1.1h0.9V64h1.7v1.4h1.4v1.1h-1.4V70c0,0.5,0.4,0.8,0.9,0.8c0.2,0,0.4,0,0.5-0.1v1.1
		c-0.2,0-0.5,0.1-0.7,0.1C75.9,71.9,75.2,71.2,75.2,69.9z"/>
	<path class="st0" d="M79.5,62.8h1.7v1.6h-1.7V62.8z M79.5,65.4h1.7v6.4h-1.7V65.4z"/>
	<path class="st0" d="M84.1,69.7c0,0.7,0.5,1.1,1.1,1.1c0.7,0,1.1-0.3,1.1-0.8c0-1.4-3.8-0.3-3.8-2.8c0-1.2,1.1-1.9,2.7-1.9
		c1.5,0,2.6,0.8,2.6,2h-1.6c0-0.6-0.4-1-1-1c-0.6,0-1,0.3-1,0.8c0,1.3,3.8,0.3,3.8,2.8c0,1.2-1.2,1.9-2.9,1.9
		c-1.6,0-2.8-0.8-2.8-2.2H84.1z"/>
	<path class="st0" d="M89.4,62.5h1.7v7.8c0,0.4,0.2,0.6,0.5,0.6v1.1c-1.6,0-2.2-0.4-2.2-1.5V62.5z"/>
	<path class="st0" d="M96.6,70.9c-0.4,0.6-1.1,1-1.9,1c-1.3,0-2.2-0.6-2.2-1.7c0-1.4,1.4-2.2,3.7-2.2h0.4v-0.4
		c0-0.8-0.5-1.2-1.2-1.2c-0.7,0-1.1,0.4-1.1,1.1h-1.7c0-1.4,1.1-2.2,2.8-2.2c1.7,0,2.9,0.8,2.9,2.3v4.3h-1.6L96.6,70.9z M96.2,68.8
		c-1.3,0-1.9,0.4-1.9,1.2c0,0.5,0.3,0.8,0.9,0.8c0.9,0,1.4-0.7,1.4-1.8v-0.2H96.2z"/>
	<path class="st0" d="M103.4,71.8h-1.9l-2.4-6.4h1.7l1.7,5l1.7-5h1.7L103.4,71.8z"/>
	<path class="st0" d="M110.4,70.9c-0.4,0.6-1.1,1-1.9,1c-1.3,0-2.2-0.6-2.2-1.7c0-1.4,1.4-2.2,3.7-2.2h0.4v-0.4
		c0-0.8-0.5-1.2-1.2-1.2c-0.7,0-1.1,0.4-1.1,1.1h-1.7c0-1.4,1.1-2.2,2.8-2.2c1.7,0,2.9,0.8,2.9,2.3v4.3h-1.6L110.4,70.9z M110,68.8
		c-1.3,0-1.9,0.4-1.9,1.2c0,0.5,0.3,0.8,0.9,0.8c0.9,0,1.4-0.7,1.4-1.8v-0.2H110z"/>
</g>
<g>
	<path class="st0" d="M41.9,97.6h5.4v1.2h-3.9l-0.3,2.4c0.4-0.3,1-0.5,1.6-0.5c1.9,0,3.2,1.2,3.2,3c0,1.9-1.2,3-3.3,3
		c-2,0-3.4-1-3.4-2.7h1.7c0,1,0.6,1.5,1.7,1.5c1,0,1.6-0.7,1.6-1.8c0-1.2-0.7-1.9-1.8-1.9c-0.7,0-1.2,0.3-1.4,0.8h-1.6L41.9,97.6z"
		/>
	<path class="st0" d="M53.7,100.2c0-0.8-0.6-1.5-1.5-1.5c-0.9,0-1.5,0.6-1.5,1.7H49c0-1.7,1.3-2.8,3.3-2.8c1.9,0,3.2,1,3.2,2.6
		c0,2.6-4.5,4.3-4.5,5.3h4.5v1.1h-6.4v-1.1C49.1,104,53.7,102.1,53.7,100.2z"/>
	<path class="st0" d="M61.4,103.4c0,1.4,0.6,2.2,1.5,2.2c0.7,0,1.1-0.5,1.1-1.3h1.7c0,1.5-1.2,2.4-2.8,2.4c-1.9,0-3.3-1.2-3.3-3.3
		c0-2.1,1.3-3.3,3.3-3.3c1.6,0,2.8,0.9,2.8,2.4h-1.7c0-0.8-0.5-1.3-1.1-1.3C62,101.2,61.4,101.9,61.4,103.4z"/>
	<path class="st0" d="M70,100.1c1.9,0,3.3,1.2,3.3,3.3c0,2.1-1.3,3.3-3.3,3.3c-1.9,0-3.3-1.2-3.3-3.3
		C66.8,101.3,68.1,100.1,70,100.1z M70,105.6c0.9,0,1.5-0.8,1.5-2.2s-0.6-2.2-1.5-2.2c-0.9,0-1.5,0.8-1.5,2.2S69.1,105.6,70,105.6z"
		/>
	<path class="st0" d="M78.7,100.2h1.7v6.4h-1.6l-0.1-0.9c-0.4,0.6-1.1,1-1.9,1c-1.4,0-2.3-0.8-2.3-2.2v-4.3h1.7v4.3
		c0,0.7,0.4,1.1,1.1,1.1c0.9,0,1.4-0.8,1.4-2.2V100.2z"/>
	<path class="st0" d="M83.6,106.6h-1.7v-6.4h1.6l0.1,0.9c0.4-0.6,1.1-1,1.8-1c1.4,0,2.4,0.9,2.4,2.3v4.2h-1.7v-4.2
		c0-0.8-0.4-1.2-1.1-1.2c-0.9,0-1.4,0.8-1.4,2.2V106.6z"/>
	<path class="st0" d="M89.7,104.7v-3.5h-0.9v-1.1h0.9v-1.4h1.7v1.4h1.4v1.1h-1.4v3.6c0,0.5,0.4,0.8,0.9,0.8c0.2,0,0.4,0,0.5-0.1v1.1
		c-0.2,0-0.5,0.1-0.7,0.1C90.5,106.7,89.7,106,89.7,104.7z"/>
	<path class="st0" d="M95.8,106.6h-1.7v-6.4h1.5l0.2,1.1c0.4-0.8,1.2-1.1,2-1.1v1.2c-1.1,0-2,1-2,2.5V106.6z"/>
	<path class="st0" d="M99,97.6h1.7v1.6H99V97.6z M99,100.2h1.7v6.4H99V100.2z"/>
	<path class="st0" d="M108.1,103.8h-4.4c0,1.1,0.6,1.8,1.5,1.8c0.7,0,1.2-0.4,1.2-1.1h1.7c0,1.3-1.2,2.2-2.9,2.2
		c-1.9,0-3.3-1.2-3.3-3.3c0-2.1,1.3-3.3,3.3-3.3C107,100.1,108.3,101.3,108.1,103.8z M103.7,102.8h2.7c0-1.1-0.5-1.7-1.2-1.7
		C104.4,101.2,103.7,101.8,103.7,102.8z"/>
	<path class="st0" d="M110.8,104.5c0,0.7,0.5,1.1,1.1,1.1c0.7,0,1.1-0.3,1.1-0.8c0-1.4-3.8-0.3-3.8-2.8c0-1.2,1.1-1.9,2.7-1.9
		c1.5,0,2.6,0.8,2.6,2H113c0-0.6-0.4-1-1-1c-0.6,0-1,0.3-1,0.8c0,1.3,3.8,0.3,3.8,2.8c0,1.2-1.2,1.9-2.9,1.9c-1.6,0-2.8-0.8-2.8-2.2
		H110.8z"/>
	<path class="st0" d="M44.4,115.6c1.8,0,3.1,1.2,3.1,3.3c0,2.1-1.3,3.3-3.1,3.3c-1.8,0-3.1-1.2-3.1-3.3
		C41.3,116.8,42.6,115.6,44.4,115.6z M44.4,121.6c1.4,0,2.3-1,2.3-2.7s-0.9-2.7-2.3-2.7c-1.4,0-2.3,1-2.3,2.7S43.1,121.6,44.4,121.6
		z"/>
	<path class="st0" d="M52,112.7v0.5c-0.2,0-0.3-0.1-0.5-0.1c-0.7,0-1.2,0.4-1.2,1v1.4H52v0.5h-1.8v5.9h-0.8v-5.9h-1v-0.5h1v-1.3
		c0-1.1,0.7-1.6,2-1.6C51.6,112.7,51.8,112.7,52,112.7z"/>
	<path class="st0" d="M59.4,115.6c1.8,0,3.1,1.2,3.1,3.3c0,2.1-1.3,3.3-3.1,3.3c-1.8,0-3.1-1.2-3.1-3.3
		C56.3,116.8,57.5,115.6,59.4,115.6z M59.4,121.6c1.4,0,2.3-1,2.3-2.7s-0.9-2.7-2.3-2.7c-1.4,0-2.3,1-2.3,2.7S58,121.6,59.4,121.6z"
		/>
	<path class="st0" d="M64.2,115.6H65l0,1.4c0.4-0.9,1.2-1.5,2.3-1.5c1.7,0,2.9,1.2,2.9,3.3c0,2.1-1.2,3.3-2.9,3.3
		c-1,0-1.8-0.5-2.3-1.4v4.1h-0.8V115.6z M67.1,121.6c1.4,0,2.3-1,2.3-2.7s-0.9-2.7-2.3-2.7c-1.3,0-2.1,1-2.1,2.7
		S65.9,121.6,67.1,121.6z"/>
	<path class="st0" d="M77.4,119h-5c0,1.6,0.9,2.5,2.3,2.5c1.1,0,1.9-0.6,1.9-1.5h0.7c0,1.2-1.1,2-2.6,2c-1.8,0-3.1-1.2-3.1-3.3
		c0-2.1,1.2-3.3,3.1-3.3C76.3,115.6,77.5,116.7,77.4,119z M72.5,118.5h4.2c0-1.5-0.8-2.4-1.9-2.4C73.4,116.1,72.5,117,72.5,118.5z"
		/>
	<path class="st0" d="M80.1,122.1h-0.8v-6.4h0.7l0.1,1.5c0.4-1,1.3-1.5,2.3-1.5v0.6c-1.4,0-2.3,1.1-2.3,2.8V122.1z"/>
	<path class="st0" d="M88,120.6c-0.4,0.9-1.3,1.5-2.4,1.5c-1.1,0-2-0.6-2-1.7c0-1.4,1.4-2.2,3.8-2.2H88v-0.6c0-1-0.7-1.6-1.7-1.6
		c-1,0-1.8,0.6-1.8,1.5h-0.8c0-1.2,1.1-2,2.5-2c1.5,0,2.5,0.8,2.5,2.1v4.3H88L88,120.6z M87.5,118.8c-2,0-3,0.6-3,1.6
		c0,0.7,0.5,1.2,1.3,1.2c1.3,0,2.2-1,2.2-2.6v-0.2H87.5z"/>
	<path class="st0" d="M91.3,120.5v-4.3h-1.1v-0.5h1.1v-1.4h0.8v1.4h1.8v0.5h-1.8v4.4c0,0.7,0.5,1,1.3,1c0.2,0,0.3,0,0.5-0.1v0.5
		c-0.2,0-0.4,0.1-0.6,0.1C92,122.1,91.3,121.6,91.3,120.5z"/>
	<path class="st0" d="M95.5,113h0.8v1.3h-0.8V113z M95.5,115.6h0.8v6.4h-0.8V115.6z"/>
	<path class="st0" d="M101.2,115.6c1.8,0,3.1,1.2,3.1,3.3c0,2.1-1.3,3.3-3.1,3.3c-1.8,0-3.1-1.2-3.1-3.3
		C98.1,116.8,99.4,115.6,101.2,115.6z M101.2,121.6c1.4,0,2.3-1,2.3-2.7s-0.9-2.7-2.3-2.7c-1.4,0-2.3,1-2.3,2.7
		S99.8,121.6,101.2,121.6z"/>
	<path class="st0" d="M106.8,122.1h-0.8v-6.4h0.7l0,1.4c0.4-0.9,1.3-1.5,2.3-1.5c1.4,0,2.4,0.9,2.4,2.3v4.2h-0.8v-4.2
		c0-1.1-0.7-1.8-1.8-1.8c-1.3,0-2.1,1-2.1,2.7V122.1z"/>
</g>
<g>
	<g>
		<path class="st0" d="M25.1,221.1H4.7c-0.4,0-0.7-0.3-0.7-0.7v-22.6c0-0.4,0.3-0.7,0.7-0.7h2.9c0.4,0,0.7,0.3,0.7,0.7
			c0,0.4-0.3,0.7-0.7,0.7H5.4v21.1h18.9v-21.1h-5.1c-0.4,0-0.7-0.3-0.7-0.7c0-0.4,0.3-0.7,0.7-0.7h5.8c0.4,0,0.7,0.3,0.7,0.7v22.6
			C25.8,220.7,25.5,221.1,25.1,221.1z"/>
	</g>
	<g>
		<path class="st0" d="M19,200.2h-4.4c-0.4,0-0.7-0.3-0.7-0.7c0-0.4,0.3-0.7,0.7-0.7h3.6v-3h-6.7v3.8c0,0.4-0.3,0.7-0.7,0.7
			c-0.4,0-0.7-0.3-0.7-0.7v-4.5c0-0.4,0.3-0.7,0.7-0.7H19c0.4,0,0.7,0.3,0.7,0.7v4.5C19.7,199.8,19.4,200.2,19,200.2z"/>
	</g>
	<g>
		<g>
			<path class="st0" d="M18.8,215h-8.3c-0.4,0-0.7-0.3-0.7-0.7v-8.3c0-0.4,0.3-0.7,0.7-0.7h4.8c0.4,0,0.7,0.3,0.7,0.7
				c0,0.4-0.3,0.7-0.7,0.7h-4.1v6.9H18v-2.1c0-0.4,0.3-0.7,0.7-0.7c0.4,0,0.7,0.3,0.7,0.7v2.9C19.5,214.6,19.2,215,18.8,215z"/>
		</g>
		<g>
			<path class="st0" d="M15.4,212c-0.2,0-0.4-0.1-0.5-0.2l-2.4-2.4c-0.3-0.3-0.3-0.8,0-1.1c0.3-0.3,0.8-0.3,1.1,0l1.8,1.7l4.7-6.8
				c0.2-0.3,0.7-0.4,1-0.2s0.4,0.7,0.2,1l-5.2,7.5C15.9,211.8,15.7,212,15.4,212C15.5,212,15.5,212,15.4,212z"/>
		</g>
	</g>
</g>
</svg>
