<!-- Generator: Adobe Illustrator 19.0.0, SVG Export Plug-In  -->
<svg version="1.1"
	 xmlns="http://www.w3.org/2000/svg" xmlns:xlink="http://www.w3.org/1999/xlink" xmlns:a="http://ns.adobe.com/AdobeSVGViewerExtensions/3.0/"
	 x="0px" y="0px" width="256.9px" height="27.7px" viewBox="0 0 256.9 27.7"
	 style="overflow:scroll;enable-background:new 0 0 256.9 27.7;" xml:space="preserve">
<style type="text/css">
	.st0{fill:#414042;}
</style>
<defs>
</defs>
<g>
	<path class="st0" d="M142,0.1v1.1c-0.1-0.1-0.3-0.1-0.5-0.1c-0.6,0-0.9,0.3-0.9,0.8V3h1.4V4h-1.4v5.4h-1.7V4H138V3h0.8V2
		c0-1.4,0.7-2,2.5-2C141.6,0,141.8,0,142,0.1z"/>
	<path class="st0" d="M147.4,3h1.7v6.4h-1.6l-0.1-0.9c-0.4,0.6-1.1,1-1.9,1c-1.4,0-2.3-0.8-2.3-2.2V3h1.7v4.3c0,0.7,0.4,1.1,1.1,1.1
		c0.9,0,1.4-0.8,1.4-2.2V3z"/>
	<path class="st0" d="M150.6,0.1h1.7v7.8c0,0.4,0.2,0.6,0.5,0.6v1.1c-1.6,0-2.2-0.4-2.2-1.5V0.1z"/>
	<path class="st0" d="M154,0.1h1.7v7.8c0,0.4,0.2,0.6,0.5,0.6v1.1C154.7,9.5,154,9,154,8V0.1z"/>
	<path class="st0" d="M165,9.5V8.7c-0.4,0.5-1,0.8-1.8,0.8c-1.7,0-2.8-1.2-2.8-3.3c0-2.1,1.1-3.3,2.8-3.3c0.8,0,1.4,0.3,1.8,0.9
		l0.1-0.8h1.6v6.6c0,1.7-1.3,2.7-3.1,2.7c-1.7,0-3-0.8-3-2.2h1.6c0,0.7,0.5,1.2,1.3,1.2C164.4,11.2,165,10.6,165,9.5z M163.6,4
		c-0.9,0-1.5,0.8-1.5,2.2s0.6,2.2,1.5,2.2c0.9,0,1.4-0.8,1.4-2.2S164.4,4,163.6,4z"/>
	<path class="st0" d="M168.1,0.1h1.7v7.8c0,0.4,0.2,0.6,0.5,0.6v1.1c-1.6,0-2.2-0.4-2.2-1.5V0.1z"/>
	<path class="st0" d="M174.6,2.9c1.9,0,3.3,1.2,3.3,3.3c0,2.1-1.3,3.3-3.3,3.3c-1.9,0-3.3-1.2-3.3-3.3
		C171.3,4.1,172.7,2.9,174.6,2.9z M174.6,8.4c0.9,0,1.5-0.8,1.5-2.2S175.5,4,174.6,4c-0.9,0-1.5,0.8-1.5,2.2S173.7,8.4,174.6,8.4z"
		/>
	<path class="st0" d="M179.1,0.1h1.7v3.7c0.4-0.5,1-0.8,1.8-0.8c1.7,0,2.8,1.2,2.8,3.3c0,2.1-1.1,3.3-2.8,3.3
		c-0.8,0-1.4-0.3-1.8-0.9l-0.1,0.8h-1.6V0.1z M182.2,8.4c0.9,0,1.5-0.8,1.5-2.2S183.1,4,182.2,4c-0.8,0-1.4,0.8-1.4,2.2
		S181.3,8.4,182.2,8.4z"/>
	<path class="st0" d="M190.4,8.5c-0.4,0.6-1.1,1-1.9,1c-1.3,0-2.2-0.6-2.2-1.7c0-1.4,1.4-2.2,3.7-2.2h0.4V5.2c0-0.8-0.5-1.2-1.2-1.2
		c-0.7,0-1.1,0.4-1.1,1.1h-1.7c0-1.4,1.1-2.2,2.8-2.2c1.7,0,2.9,0.8,2.9,2.3v4.3h-1.6L190.4,8.5z M190,6.4c-1.3,0-1.9,0.4-1.9,1.2
		c0,0.5,0.3,0.8,0.9,0.8c0.9,0,1.4-0.7,1.4-1.8V6.4H190z"/>
	<path class="st0" d="M193.6,0.1h1.7v7.8c0,0.4,0.2,0.6,0.5,0.6v1.1c-1.6,0-2.2-0.4-2.2-1.5V0.1z"/>
	<path class="st0" d="M201.7,6.2c0,1.4,0.6,2.2,1.5,2.2c0.7,0,1.1-0.5,1.1-1.3h1.7c0,1.5-1.2,2.4-2.8,2.4c-1.9,0-3.3-1.2-3.3-3.3
		c0-2.1,1.3-3.3,3.3-3.3c1.6,0,2.8,0.9,2.8,2.4h-1.7c0-0.8-0.5-1.3-1.1-1.3C202.3,4,201.7,4.7,201.7,6.2z"/>
	<path class="st0" d="M210.4,2.9c1.9,0,3.3,1.2,3.3,3.3c0,2.1-1.3,3.3-3.3,3.3c-1.9,0-3.3-1.2-3.3-3.3
		C207.1,4.1,208.4,2.9,210.4,2.9z M210.4,8.4c0.9,0,1.5-0.8,1.5-2.2S211.3,4,210.4,4c-0.9,0-1.5,0.8-1.5,2.2S209.4,8.4,210.4,8.4z"
		/>
	<path class="st0" d="M218.4,9.4h-1.9L214,3h1.7l1.7,5l1.7-5h1.7L218.4,9.4z"/>
	<path class="st0" d="M227.4,6.6H223c0,1.1,0.6,1.8,1.5,1.8c0.7,0,1.2-0.4,1.2-1.1h1.7c0,1.3-1.2,2.2-2.9,2.2
		c-1.9,0-3.3-1.2-3.3-3.3c0-2.1,1.3-3.3,3.3-3.3C226.3,2.9,227.6,4.1,227.4,6.6z M223,5.6h2.7c0-1.1-0.5-1.7-1.2-1.7
		C223.7,4,223,4.6,223,5.6z"/>
	<path class="st0" d="M230.5,9.4h-1.7V3h1.5l0.2,1.1c0.4-0.8,1.2-1.1,2-1.1v1.2c-1.1,0-2,1-2,2.5V9.4z"/>
	<path class="st0" d="M237.2,8.5c-0.4,0.6-1.1,1-1.9,1c-1.3,0-2.2-0.6-2.2-1.7c0-1.4,1.4-2.2,3.7-2.2h0.4V5.2c0-0.8-0.5-1.2-1.2-1.2
		c-0.7,0-1.1,0.4-1.1,1.1h-1.7c0-1.4,1.1-2.2,2.8-2.2c1.7,0,2.9,0.8,2.9,2.3v4.3h-1.6L237.2,8.5z M236.8,6.4c-1.3,0-1.9,0.4-1.9,1.2
		c0,0.5,0.3,0.8,0.9,0.8c0.9,0,1.4-0.7,1.4-1.8V6.4H236.8z"/>
	<path class="st0" d="M244.8,9.5V8.7c-0.4,0.5-1,0.8-1.8,0.8c-1.7,0-2.8-1.2-2.8-3.3c0-2.1,1.1-3.3,2.8-3.3c0.8,0,1.4,0.3,1.8,0.9
		l0.1-0.8h1.6v6.6c0,1.7-1.3,2.7-3.1,2.7c-1.7,0-3-0.8-3-2.2h1.6c0,0.7,0.5,1.2,1.3,1.2C244.3,11.2,244.8,10.6,244.8,9.5z M243.4,4
		c-0.9,0-1.5,0.8-1.5,2.2s0.6,2.2,1.5,2.2c0.9,0,1.4-0.8,1.4-2.2S244.3,4,243.4,4z"/>
	<path class="st0" d="M253.9,6.6h-4.4c0,1.1,0.6,1.8,1.5,1.8c0.7,0,1.2-0.4,1.2-1.1h1.7c0,1.3-1.2,2.2-2.9,2.2
		c-1.9,0-3.3-1.2-3.3-3.3c0-2.1,1.3-3.3,3.3-3.3C252.8,2.9,254.1,4.1,253.9,6.6z M249.5,5.6h2.7c0-1.1-0.5-1.7-1.2-1.7
		C250.2,4,249.5,4.6,249.5,5.6z"/>
	<path class="st0" d="M2.2,26.7C0.9,26.7,0,24.6,0,21c0-3.6,0.9-5.8,2.2-5.8v0.5c-0.9,0-1.4,1.9-1.4,5.2c0,3.4,0.6,5.3,1.4,5.3V26.7
		z"/>
	<path class="st0" d="M3.6,15.9h0.8v1.3H3.6V15.9z M3.6,18.4h0.8v6.4H3.6V18.4z"/>
	<path class="st0" d="M7.3,24.9H6.5v-6.4h0.7l0,1.4c0.4-0.9,1.3-1.5,2.3-1.5c1.4,0,2.4,0.9,2.4,2.3v4.2h-0.8v-4.2
		c0-1.1-0.7-1.8-1.8-1.8c-1.3,0-2.1,1-2.1,2.7V24.9z"/>
	<path class="st0" d="M14.5,21.7c0,1.7,0.9,2.7,2.3,2.7c1,0,1.8-0.6,1.8-1.6h0.8c0,1.3-1.1,2.1-2.5,2.1c-1.8,0-3.1-1.2-3.1-3.3
		c0-2.1,1.3-3.3,3.1-3.3c1.4,0,2.5,0.8,2.5,2.1h-0.8c0-0.9-0.7-1.6-1.8-1.6C15.5,18.9,14.5,19.9,14.5,21.7z"/>
	<path class="st0" d="M21.3,15.5H22v8.1c0,0.5,0.3,0.8,0.7,0.8v0.5c-1,0-1.5-0.4-1.5-1.3V15.5z"/>
	<path class="st0" d="M29.1,18.4h0.8v6.4h-0.7l0-1.4c-0.4,0.9-1.3,1.5-2.3,1.5c-1.4,0-2.4-0.9-2.4-2.3v-4.2h0.8v4.2
		c0,1.1,0.7,1.8,1.8,1.8c1.3,0,2.1-1,2.1-2.7V18.4z"/>
	<path class="st0" d="M37.6,24.9h-0.7l-0.1-1.4c-0.4,0.9-1.2,1.5-2.3,1.5c-1.7,0-2.9-1.2-2.9-3.3c0-2.1,1.2-3.3,2.9-3.3
		c1,0,1.8,0.5,2.3,1.4v-4.3h0.8V24.9z M34.7,18.9c-1.4,0-2.3,1-2.3,2.7s0.9,2.7,2.3,2.7c1.3,0,2.1-1,2.1-2.7S35.9,18.9,34.7,18.9z"
		/>
	<path class="st0" d="M39.6,15.9h0.8v1.3h-0.8V15.9z M39.6,18.4h0.8v6.4h-0.8V18.4z"/>
	<path class="st0" d="M43.3,24.9h-0.8v-6.4h0.7l0,1.4c0.4-0.9,1.3-1.5,2.3-1.5c1.4,0,2.4,0.9,2.4,2.3v4.2h-0.8v-4.2
		c0-1.1-0.7-1.8-1.8-1.8c-1.3,0-2.1,1-2.1,2.7V24.9z"/>
	<path class="st0" d="M54.9,24.9v-1.4c-0.4,0.9-1.2,1.4-2.3,1.4c-1.7,0-2.9-1.2-2.9-3.3c0-2.1,1.2-3.3,2.9-3.3c1,0,1.8,0.5,2.3,1.4
		l0.1-1.4h0.7v6.5c0,1.7-1.2,2.8-2.9,2.8c-1.6,0-2.8-0.8-2.8-2.1h0.7c0,0.9,0.9,1.6,2.1,1.6C54,27.2,54.9,26.3,54.9,24.9z
		 M52.8,18.9c-1.4,0-2.3,1-2.3,2.7s0.9,2.7,2.3,2.7c1.3,0,2.1-1,2.1-2.7S54,18.9,52.8,18.9z"/>
	<path class="st0" d="M61.2,23.3V19h-1.1v-0.5h1.1v-1.4H62v1.4h1.8V19H62v4.4c0,0.7,0.5,1,1.3,1c0.2,0,0.3,0,0.5-0.1v0.5
		c-0.2,0-0.4,0.1-0.6,0.1C61.9,24.9,61.2,24.4,61.2,23.3z"/>
	<path class="st0" d="M66.2,24.9h-0.8v-9.3h0.8v4.3c0.4-0.9,1.3-1.4,2.3-1.4c1.4,0,2.4,0.9,2.4,2.3v4.2h-0.8v-4.2
		c0-1.1-0.7-1.8-1.8-1.8c-1.3,0-2.1,1-2.1,2.7V24.9z"/>
	<path class="st0" d="M78.4,21.9h-5c0,1.6,0.9,2.5,2.3,2.5c1.1,0,1.9-0.6,1.9-1.5h0.7c0,1.2-1.1,2-2.6,2c-1.8,0-3.1-1.2-3.1-3.3
		c0-2.1,1.2-3.3,3.1-3.3C77.3,18.4,78.4,19.5,78.4,21.9z M73.4,21.3h4.2c0-1.5-0.8-2.4-1.9-2.4C74.4,18.9,73.4,19.8,73.4,21.3z"/>
	<path class="st0" d="M86.1,15.9H87l3.5,9h-0.8l-1-2.6h-4.2l-1,2.6h-0.8L86.1,15.9z M84.6,21.7h3.8l-1.9-5.1L84.6,21.7z"/>
	<path class="st0" d="M92.7,24.9h-0.8v-6.4h0.7l0,1.4c0.4-1,1.1-1.5,1.9-1.5c0.9,0,1.7,0.6,1.9,1.5c0.4-1,1.2-1.5,2.1-1.5
		c1.2,0,2.1,0.9,2.1,2.3v4.2H100v-4.2c0-1.1-0.6-1.8-1.5-1.8c-1,0-1.8,1-1.8,2.7v3.2H96v-4.2c0-1.1-0.6-1.8-1.5-1.8
		c-1,0-1.8,1-1.8,2.7V24.9z"/>
	<path class="st0" d="M108.3,21.9h-5c0,1.6,0.9,2.5,2.3,2.5c1.1,0,1.9-0.6,1.9-1.5h0.7c0,1.2-1.1,2-2.6,2c-1.8,0-3.1-1.2-3.1-3.3
		c0-2.1,1.2-3.3,3.1-3.3C107.2,18.4,108.4,19.5,108.3,21.9z M103.3,21.3h4.2c0-1.5-0.8-2.4-1.9-2.4
		C104.3,18.9,103.3,19.8,103.3,21.3z"/>
	<path class="st0" d="M111,24.9h-0.8v-6.4h0.7l0.1,1.5c0.4-1,1.3-1.5,2.3-1.5V19c-1.4,0-2.3,1.1-2.3,2.8V24.9z"/>
	<path class="st0" d="M115,15.9h0.8v1.3H115V15.9z M115,18.4h0.8v6.4H115V18.4z"/>
	<path class="st0" d="M118.4,21.7c0,1.7,0.9,2.7,2.3,2.7c1,0,1.8-0.6,1.8-1.6h0.8c0,1.3-1.1,2.1-2.5,2.1c-1.8,0-3.1-1.2-3.1-3.3
		c0-2.1,1.3-3.3,3.1-3.3c1.4,0,2.5,0.8,2.5,2.1h-0.8c0-0.9-0.7-1.6-1.8-1.6C119.3,18.9,118.4,19.9,118.4,21.7z"/>
	<path class="st0" d="M129.1,23.5c-0.4,0.9-1.3,1.5-2.4,1.5c-1.1,0-2-0.6-2-1.7c0-1.4,1.4-2.2,3.8-2.2h0.5v-0.6c0-1-0.7-1.6-1.7-1.6
		c-1,0-1.8,0.6-1.8,1.5h-0.8c0-1.2,1.1-2,2.5-2c1.5,0,2.5,0.8,2.5,2.1v4.3h-0.7L129.1,23.5z M128.6,21.6c-2,0-3,0.6-3,1.6
		c0,0.7,0.5,1.2,1.3,1.2c1.3,0,2.2-1,2.2-2.6v-0.2H128.6z"/>
	<path class="st0" d="M132.5,22.9c0,0.9,0.8,1.5,1.8,1.5c1,0,1.7-0.5,1.7-1.2c0-1.9-4.1-0.6-4.1-3c0-1.1,1-1.8,2.3-1.8
		c1.3,0,2.3,0.7,2.3,1.9h-0.7c0-0.8-0.7-1.4-1.6-1.4s-1.5,0.5-1.5,1.2c0,1.8,4.1,0.5,4.1,3c0,1.1-1,1.8-2.5,1.8
		c-1.4,0-2.5-0.8-2.5-2H132.5z"/>
	<path class="st0" d="M145.5,23.5c-0.4,0.9-1.3,1.5-2.4,1.5c-1.1,0-2-0.6-2-1.7c0-1.4,1.4-2.2,3.8-2.2h0.5v-0.6c0-1-0.7-1.6-1.7-1.6
		c-1,0-1.8,0.6-1.8,1.5h-0.8c0-1.2,1.1-2,2.5-2c1.5,0,2.5,0.8,2.5,2.1v4.3h-0.7L145.5,23.5z M145,21.6c-2,0-3,0.6-3,1.6
		c0,0.7,0.5,1.2,1.3,1.2c1.3,0,2.2-1,2.2-2.6v-0.2H145z"/>
	<path class="st0" d="M149.1,24.9h-0.8v-6.4h0.7l0,1.4c0.4-0.9,1.3-1.5,2.3-1.5c1.4,0,2.4,0.9,2.4,2.3v4.2H153v-4.2
		c0-1.1-0.7-1.8-1.8-1.8c-1.3,0-2.1,1-2.1,2.7V24.9z"/>
	<path class="st0" d="M161.6,24.9h-0.7l-0.1-1.4c-0.4,0.9-1.2,1.5-2.3,1.5c-1.7,0-2.9-1.2-2.9-3.3c0-2.1,1.2-3.3,2.9-3.3
		c1,0,1.8,0.5,2.3,1.4v-4.3h0.8V24.9z M158.7,18.9c-1.4,0-2.3,1-2.3,2.7s0.9,2.7,2.3,2.7c1.3,0,2.1-1,2.1-2.7S159.9,18.9,158.7,18.9
		z"/>
	<path class="st0" d="M167,23.3V19h-1.1v-0.5h1.1v-1.4h0.8v1.4h1.8V19h-1.8v4.4c0,0.7,0.5,1,1.3,1c0.2,0,0.3,0,0.5-0.1v0.5
		c-0.2,0-0.4,0.1-0.6,0.1C167.7,24.9,167,24.4,167,23.3z"/>
	<path class="st0" d="M172,24.9h-0.8v-9.3h0.8v4.3c0.4-0.9,1.3-1.4,2.3-1.4c1.4,0,2.4,0.9,2.4,2.3v4.2h-0.8v-4.2
		c0-1.1-0.7-1.8-1.8-1.8c-1.3,0-2.1,1-2.1,2.7V24.9z"/>
	<path class="st0" d="M184.2,21.9h-5c0,1.6,0.9,2.5,2.3,2.5c1.1,0,1.9-0.6,1.9-1.5h0.7c0,1.2-1.1,2-2.6,2c-1.8,0-3.1-1.2-3.1-3.3
		c0-2.1,1.2-3.3,3.1-3.3C183.1,18.4,184.3,19.5,184.2,21.9z M179.2,21.3h4.2c0-1.5-0.8-2.4-1.9-2.4
		C180.2,18.9,179.2,19.8,179.2,21.3z"/>
	<path class="st0" d="M191.9,15.9h0.9l3.5,9h-0.8l-1-2.6h-4.2l-1,2.6h-0.8L191.9,15.9z M190.5,21.7h3.8l-1.9-5.1L190.5,21.7z"/>
	<path class="st0" d="M197.9,22.9c0,0.9,0.8,1.5,1.8,1.5c1,0,1.7-0.5,1.7-1.2c0-1.9-4.1-0.6-4.1-3c0-1.1,1-1.8,2.3-1.8
		c1.3,0,2.3,0.7,2.3,1.9h-0.7c0-0.8-0.7-1.4-1.6-1.4s-1.5,0.5-1.5,1.2c0,1.8,4.1,0.5,4.1,3c0,1.1-1,1.8-2.5,1.8
		c-1.4,0-2.5-0.8-2.5-2H197.9z"/>
	<path class="st0" d="M203.9,15.9h0.8v1.3h-0.8V15.9z M203.9,18.4h0.8v6.4h-0.8V18.4z"/>
	<path class="st0" d="M210.8,23.5c-0.4,0.9-1.3,1.5-2.4,1.5c-1.1,0-2-0.6-2-1.7c0-1.4,1.4-2.2,3.8-2.2h0.5v-0.6c0-1-0.7-1.6-1.7-1.6
		c-1,0-1.8,0.6-1.8,1.5h-0.8c0-1.2,1.1-2,2.5-2c1.5,0,2.5,0.8,2.5,2.1v4.3h-0.7L210.8,23.5z M210.4,21.6c-2,0-3,0.6-3,1.6
		c0,0.7,0.5,1.2,1.3,1.2c1.3,0,2.2-1,2.2-2.6v-0.2H210.4z"/>
	<path class="st0" d="M216.8,15.9h3.2c1.6,0,2.8,1,2.8,2.6c0,1.6-1.1,2.6-2.8,2.6h-2.4v3.9h-0.8V15.9z M217.6,16.4v4h2.3
		c1.3,0,2.1-0.7,2.1-2c0-1.3-0.9-2-2.1-2H217.6z"/>
	<path class="st0" d="M228.4,23.5c-0.4,0.9-1.3,1.5-2.4,1.5c-1.1,0-2-0.6-2-1.7c0-1.4,1.4-2.2,3.8-2.2h0.5v-0.6c0-1-0.7-1.6-1.7-1.6
		c-1,0-1.8,0.6-1.8,1.5h-0.8c0-1.2,1.1-2,2.5-2c1.5,0,2.5,0.8,2.5,2.1v4.3h-0.7L228.4,23.5z M227.9,21.6c-2,0-3,0.6-3,1.6
		c0,0.7,0.5,1.2,1.3,1.2c1.3,0,2.2-1,2.2-2.6v-0.2H227.9z"/>
	<path class="st0" d="M231.7,21.7c0,1.7,0.9,2.7,2.3,2.7c1,0,1.8-0.6,1.8-1.6h0.8c0,1.3-1.1,2.1-2.5,2.1c-1.8,0-3.1-1.2-3.1-3.3
		c0-2.1,1.3-3.3,3.1-3.3c1.4,0,2.5,0.8,2.5,2.1h-0.8c0-0.9-0.7-1.6-1.8-1.6C232.7,18.9,231.7,19.9,231.7,21.7z"/>
	<path class="st0" d="M238.5,15.9h0.8v1.3h-0.8V15.9z M238.5,18.4h0.8v6.4h-0.8V18.4z"/>
	<path class="st0" d="M245.2,19h-2.7v5.9h-0.8V19h-1v-0.5h1v-1.3c0-1.1,0.7-1.6,2-1.6c0.2,0,0.4,0,0.6,0.1v0.5
		c-0.2,0-0.3-0.1-0.5-0.1c-0.7,0-1.2,0.4-1.2,1v1.4h3.5v6.4h-0.8V19z M245.2,15.9h0.8v1.3h-0.8V15.9z"/>
	<path class="st0" d="M248.5,21.7c0,1.7,0.9,2.7,2.3,2.7c1,0,1.8-0.6,1.8-1.6h0.8c0,1.3-1.1,2.1-2.5,2.1c-1.8,0-3.1-1.2-3.1-3.3
		c0-2.1,1.3-3.3,3.1-3.3c1.4,0,2.5,0.8,2.5,2.1h-0.8c0-0.9-0.7-1.6-1.8-1.6C249.5,18.9,248.5,19.9,248.5,21.7z"/>
	<path class="st0" d="M254.8,15.2c1.3,0,2.2,2.1,2.2,5.8c0,3.6-0.9,5.8-2.2,5.8v-0.5c0.9,0,1.4-1.9,1.4-5.3c0-3.3-0.6-5.2-1.4-5.2
		V15.2z"/>
</g>
</svg>
