<!-- Generator: Adobe Illustrator 19.0.0, SVG Export Plug-In  -->
<svg version="1.1"
	 xmlns="http://www.w3.org/2000/svg" xmlns:xlink="http://www.w3.org/1999/xlink" xmlns:a="http://ns.adobe.com/AdobeSVGViewerExtensions/3.0/"
	 x="0px" y="0px" width="142.8px" height="24.9px" viewBox="0 0 142.8 24.9"
	 style="overflow:scroll;enable-background:new 0 0 142.8 24.9;" xml:space="preserve">
<style type="text/css">
	.st0{fill:#414042;}
</style>
<defs>
</defs>
<g>
	<path class="st0" d="M1.7,9.3H0v-9h1.7l4.1,6.3V0.3h1.7v9H5.8L1.7,3.1V9.3z M10.3,0.3c1.1,0,1.9,0.7,1.9,1.9c0,1.1-0.8,1.8-1.9,1.8
		C9.2,4,8.4,3.3,8.4,2.1C8.4,1,9.2,0.3,10.3,0.3z M8.5,4.8h3.6v1H8.5V4.8z M10.3,3.1c0.6,0,0.9-0.4,0.9-1c0-0.6-0.4-1-0.9-1
		c-0.6,0-0.9,0.4-0.9,1C9.4,2.7,9.8,3.1,10.3,3.1z"/>
	<path class="st0" d="M13.1,1.5c1.5,0,2-0.3,2-1.1h1.5v9h-1.8v-7h-1.7V1.5z"/>
	<path class="st0" d="M22.9,7.2c0,0.7,0.5,1.1,1.1,1.1c0.7,0,1.1-0.3,1.1-0.8c0-1.4-3.8-0.3-3.8-2.8c0-1.2,1.1-1.9,2.7-1.9
		c1.5,0,2.6,0.8,2.6,2h-1.6c0-0.6-0.4-1-1-1c-0.6,0-1,0.3-1,0.8c0,1.3,3.8,0.3,3.8,2.8c0,1.2-1.2,1.9-2.9,1.9
		c-1.6,0-2.8-0.8-2.8-2.2H22.9z"/>
	<path class="st0" d="M29.6,6.1c0,1.4,0.6,2.2,1.5,2.2c0.7,0,1.1-0.5,1.1-1.3h1.7c0,1.5-1.2,2.4-2.8,2.4c-1.9,0-3.3-1.2-3.3-3.3
		c0-2.1,1.3-3.3,3.3-3.3c1.6,0,2.8,0.9,2.8,2.4h-1.7c0-0.8-0.5-1.3-1.1-1.3C30.2,3.9,29.6,4.7,29.6,6.1z"/>
	<path class="st0" d="M36.9,9.3h-1.7V0h1.7v3.7c0.4-0.6,1.1-0.9,1.8-0.9c1.4,0,2.4,0.9,2.4,2.3v4.2h-1.7V5.1c0-0.8-0.4-1.2-1.1-1.2
		c-0.9,0-1.4,0.8-1.4,2.2V9.3z"/>
	<path class="st0" d="M48.5,6.5h-4.4c0,1.1,0.6,1.8,1.5,1.8c0.7,0,1.2-0.4,1.2-1.1h1.7c0,1.3-1.2,2.2-2.9,2.2
		c-1.9,0-3.3-1.2-3.3-3.3c0-2.1,1.3-3.3,3.3-3.3C47.4,2.8,48.7,4,48.5,6.5z M44.1,5.6h2.7c0-1.1-0.5-1.7-1.2-1.7
		C44.7,3.9,44.1,4.5,44.1,5.6z"/>
	<path class="st0" d="M55.8,9.3h-1.6l-0.1-0.9c-0.4,0.6-1,1-1.8,1c-1.7,0-2.8-1.2-2.8-3.3c0-2.1,1.1-3.3,2.8-3.3
		c0.8,0,1.4,0.3,1.8,0.8V0h1.7V9.3z M52.7,3.9c-0.9,0-1.5,0.8-1.5,2.2s0.6,2.2,1.5,2.2c0.9,0,1.4-0.8,1.4-2.2S53.6,3.9,52.7,3.9z"/>
	<path class="st0" d="M61.5,2.9h1.7v6.4h-1.6l-0.1-0.9c-0.4,0.6-1.1,1-1.9,1c-1.4,0-2.3-0.8-2.3-2.2V2.9H59v4.3
		c0,0.7,0.4,1.1,1.1,1.1c0.9,0,1.4-0.8,1.4-2.2V2.9z"/>
	<path class="st0" d="M64.7,0h1.7v7.8c0,0.4,0.2,0.6,0.5,0.6v1.1c-1.6,0-2.2-0.4-2.2-1.5V0z"/>
	<path class="st0" d="M68.1,0.3h1.7v1.6h-1.7V0.3z M68.1,2.9h1.7v6.4h-1.7V2.9z"/>
	<path class="st0" d="M73,9.3h-1.7V2.9h1.6L73,3.8c0.4-0.6,1.1-1,1.8-1c1.4,0,2.4,0.9,2.4,2.3v4.2h-1.7V5.1c0-0.8-0.4-1.2-1.1-1.2
		c-0.9,0-1.4,0.8-1.4,2.2V9.3z"/>
	<path class="st0" d="M83,9.5V8.6c-0.4,0.5-1,0.8-1.8,0.8c-1.7,0-2.8-1.2-2.8-3.3c0-2.1,1.1-3.3,2.8-3.3c0.8,0,1.4,0.3,1.8,0.9
		l0.1-0.8h1.6v6.6c0,1.7-1.3,2.7-3.1,2.7c-1.7,0-3-0.8-3-2.2h1.6c0,0.7,0.5,1.2,1.3,1.2C82.5,11.1,83,10.5,83,9.5z M81.6,3.9
		c-0.9,0-1.5,0.8-1.5,2.2s0.6,2.2,1.5,2.2c0.9,0,1.4-0.8,1.4-2.2S82.5,3.9,81.6,3.9z"/>
	<path class="st0" d="M90.9,6.1c0,1.4,0.6,2.2,1.5,2.2c0.7,0,1.1-0.5,1.1-1.3h1.7c0,1.5-1.2,2.4-2.8,2.4c-1.9,0-3.3-1.2-3.3-3.3
		c0-2.1,1.3-3.3,3.3-3.3c1.6,0,2.8,0.9,2.8,2.4h-1.7c0-0.8-0.5-1.3-1.1-1.3C91.5,3.9,90.9,4.7,90.9,6.1z"/>
	<path class="st0" d="M99.5,2.8c1.9,0,3.3,1.2,3.3,3.3c0,2.1-1.3,3.3-3.3,3.3c-1.9,0-3.3-1.2-3.3-3.3C96.2,4,97.6,2.8,99.5,2.8z
		 M99.5,8.3c0.9,0,1.5-0.8,1.5-2.2s-0.6-2.2-1.5-2.2c-0.9,0-1.5,0.8-1.5,2.2S98.6,8.3,99.5,8.3z"/>
	<path class="st0" d="M105.7,9.3H104V2.9h1.6l0.1,1c0.4-0.7,0.9-1,1.6-1c0.8,0,1.4,0.4,1.8,1.1c0.4-0.7,1.3-1.1,2-1.1
		c1.3,0,2.2,0.9,2.2,2.3v4.2h-1.7V5.1c0-0.8-0.4-1.2-0.9-1.2c-0.7,0-1.1,0.8-1.1,2.2v3.2h-1.7V5.1c0-0.8-0.4-1.2-0.9-1.2
		c-0.7,0-1.1,0.8-1.1,2.2V9.3z"/>
	<path class="st0" d="M114.7,2.9h1.6l0.1,0.9c0.4-0.6,1-1,1.8-1c1.7,0,2.8,1.2,2.8,3.3c0,2.1-1.1,3.3-2.8,3.3
		c-0.8,0-1.4-0.3-1.8-0.8v3.5h-1.7V2.9z M117.8,8.3c0.9,0,1.5-0.8,1.5-2.2s-0.6-2.2-1.5-2.2c-0.8,0-1.4,0.8-1.4,2.2
		S117,8.3,117.8,8.3z"/>
	<path class="st0" d="M126.1,8.4c-0.4,0.6-1.1,1-1.9,1c-1.3,0-2.2-0.6-2.2-1.7c0-1.4,1.4-2.2,3.7-2.2h0.4V5.1c0-0.8-0.5-1.2-1.2-1.2
		c-0.7,0-1.1,0.4-1.1,1.1h-1.7c0-1.4,1.1-2.2,2.8-2.2c1.7,0,2.9,0.8,2.9,2.3v4.3h-1.6L126.1,8.4z M125.7,6.4c-1.3,0-1.9,0.4-1.9,1.2
		c0,0.5,0.3,0.8,0.9,0.8c0.9,0,1.4-0.7,1.4-1.8V6.4H125.7z"/>
	<path class="st0" d="M131,9.3h-1.7V2.9h1.6l0.1,0.9c0.4-0.6,1.1-1,1.8-1c1.4,0,2.4,0.9,2.4,2.3v4.2h-1.7V5.1c0-0.8-0.4-1.2-1.1-1.2
		c-0.9,0-1.4,0.8-1.4,2.2V9.3z"/>
	<path class="st0" d="M140.1,10.2c-0.5,1.4-1.5,2-3.4,2v-1.1c0.9,0,1.6-0.3,1.8-0.9l0.3-0.8h-0.3l-2.4-6.4h1.8l1.6,5l1.6-5h1.8
		L140.1,10.2z"/>
	<path class="st0" d="M0.2,15.8H1v1.3H0.2V15.8z M0.2,18.4H1v6.4H0.2V18.4z"/>
	<path class="st0" d="M3.8,24.8H3.1v-6.4h0.7l0,1.4c0.4-0.9,1.3-1.5,2.3-1.5c1.4,0,2.4,0.9,2.4,2.3v4.2H7.7v-4.2
		c0-1.1-0.7-1.8-1.8-1.8c-1.3,0-2.1,1-2.1,2.7V24.8z"/>
	<path class="st0" d="M14,23.2v-4.3h-1.1v-0.5H14V17h0.8v1.4h1.8v0.5h-1.8v4.4c0,0.7,0.5,1,1.3,1c0.2,0,0.3,0,0.5-0.1v0.5
		c-0.2,0-0.4,0.1-0.6,0.1C14.7,24.9,14,24.3,14,23.2z"/>
	<path class="st0" d="M19,24.8h-0.8v-9.3H19v4.3c0.4-0.9,1.3-1.4,2.3-1.4c1.4,0,2.4,0.9,2.4,2.3v4.2h-0.8v-4.2
		c0-1.1-0.7-1.8-1.8-1.8c-1.3,0-2.1,1-2.1,2.7V24.8z"/>
	<path class="st0" d="M31.2,21.8h-5c0,1.6,0.9,2.5,2.3,2.5c1.1,0,1.9-0.6,1.9-1.5h0.7c0,1.2-1.1,2-2.6,2c-1.8,0-3.1-1.2-3.1-3.3
		c0-2.1,1.2-3.3,3.1-3.3C30.1,18.3,31.3,19.5,31.2,21.8z M26.2,21.3h4.2c0-1.5-0.8-2.4-1.9-2.4C27.2,18.9,26.2,19.8,26.2,21.3z"/>
	<path class="st0" d="M41.7,16.8l-2.4,8h-0.9l-2.9-9h0.8l2.5,8.2l2.5-8.2h0.8l2.5,8.2l2.6-8.2h0.8l-2.9,9h-0.9L41.7,16.8z"/>
	<path class="st0" d="M51.1,18.3c1.8,0,3.1,1.2,3.1,3.3c0,2.1-1.3,3.3-3.1,3.3c-1.8,0-3.1-1.2-3.1-3.3C48,19.5,49.3,18.3,51.1,18.3z
		 M51.1,24.3c1.4,0,2.3-1,2.3-2.7s-0.9-2.7-2.3-2.7c-1.4,0-2.3,1-2.3,2.7S49.8,24.3,51.1,24.3z"/>
	<path class="st0" d="M56.8,24.8H56v-6.4h0.7l0.1,1.5c0.4-1,1.3-1.5,2.3-1.5v0.6c-1.4,0-2.3,1.1-2.3,2.8V24.8z"/>
	<path class="st0" d="M60.8,15.5h0.8v8.1c0,0.5,0.3,0.8,0.7,0.8v0.5c-1,0-1.5-0.4-1.5-1.3V15.5z"/>
	<path class="st0" d="M69.6,24.8h-0.7l-0.1-1.4c-0.4,0.9-1.2,1.5-2.3,1.5c-1.7,0-2.9-1.2-2.9-3.3c0-2.1,1.2-3.3,2.9-3.3
		c1,0,1.8,0.5,2.3,1.4v-4.3h0.8V24.8z M66.7,18.9c-1.4,0-2.3,1-2.3,2.7s0.9,2.7,2.3,2.7c1.3,0,2.1-1,2.1-2.7S68,18.9,66.7,18.9z"/>
</g>
</svg>
