<!-- Generator: Adobe Illustrator 19.0.0, SVG Export Plug-In  -->
<svg version="1.1"
	 xmlns="http://www.w3.org/2000/svg" xmlns:xlink="http://www.w3.org/1999/xlink" xmlns:a="http://ns.adobe.com/AdobeSVGViewerExtensions/3.0/"
	 x="0px" y="0px" width="29.2px" height="32.1px" viewBox="0 0 29.2 32.1"
	 style="overflow:scroll;enable-background:new 0 0 29.2 32.1;" xml:space="preserve">
<style type="text/css">
	.st0{fill:#414042;}
</style>
<defs>
</defs>
<g>
	<g>
		<path class="st0" d="M20.6,32.1h-12c-0.3,0-0.6-0.3-0.6-0.6c0-2.1,1.4-4,3.6-4.9v-3.5c-1.3-0.5-2.5-1.2-3.4-2.3
			c-4.8-1.8-6.8-4.6-7.6-6.7c-0.8-1.9-0.8-4-0.1-5.5C1.2,7,2.7,6.1,4.6,6.1c0-0.7,0-1.6,0-2.3C3.7,3.8,2.9,3,2.9,2V1.9
			c0-1,0.8-1.9,1.9-1.9h19.7c1,0,1.9,0.8,1.9,1.9V2c0,1-0.7,1.8-1.7,1.8c0,0.6,0,1.6,0,2.3C26.5,6.1,28,7,28.8,8.6
			c0.7,1.5,0.6,3.6-0.1,5.5c-0.8,2.1-2.8,4.9-7.6,6.7c-0.9,1.1-2.1,1.9-3.4,2.3v3.5c2.2,0.9,3.6,2.8,3.6,4.9
			C21.2,31.8,21,32.1,20.6,32.1z M9.3,30.9h10.7c-0.3-1.4-1.5-2.7-3.2-3.2c-0.3-0.1-0.4-0.3-0.4-0.6v-4.4c0-0.3,0.2-0.5,0.5-0.6
			c1.3-0.4,2.4-1.1,3.3-2.2c0.1-0.1,0.2-0.2,0.3-0.2c4.5-1.6,6.3-4.2,7.1-6c0.6-1.6,0.7-3.3,0.1-4.5c-0.5-1.1-1.5-1.7-2.8-1.7
			c-0.2,0-0.5,0-0.8,0.1c-0.2,0-0.4,0-0.5-0.1c-0.1-0.1-0.2-0.3-0.2-0.5c0-0.7,0-2.9,0-3.5c0-0.3,0.3-0.6,0.6-0.6h0.5
			c0.3,0,0.6-0.3,0.6-0.6V1.9c0-0.3-0.3-0.6-0.6-0.6H4.8c-0.3,0-0.6,0.3-0.6,0.6V2c0,0.3,0.3,0.6,0.6,0.6h0.5c0.3,0,0.6,0.3,0.6,0.6
			c0,0.6,0,2.8,0,3.5c0,0.2-0.1,0.4-0.2,0.5C5.5,7.4,5.3,7.5,5.2,7.4c-0.3,0-0.5-0.1-0.8-0.1C3.1,7.4,2.1,8,1.6,9.1
			c-0.5,1.2-0.5,2.9,0.1,4.5c0.7,1.9,2.6,4.4,7.1,6c0.1,0,0.2,0.1,0.3,0.2c0.9,1.1,2,1.8,3.3,2.2c0.3,0.1,0.5,0.3,0.5,0.6V27
			c0,0.3-0.2,0.5-0.4,0.6C10.7,28.2,9.6,29.4,9.3,30.9z M22.4,17.6c-0.1,0-0.3,0-0.4-0.1c-0.2-0.2-0.3-0.4-0.2-0.7
			c0.7-2,1.2-4.5,1.4-7.6c0-0.3,0.2-0.5,0.5-0.6c0.2,0,0.6-0.2,1.2-0.2c1.2,0,1.8,0.6,2,1.1c0.3,0.7,0.5,2.1-0.2,3.6
			c-0.7,1.7-2,3.2-4,4.3C22.6,17.5,22.5,17.6,22.4,17.6z M24.4,9.7c-0.2,2.2-0.5,4.1-0.9,5.7c0.9-0.8,1.6-1.7,2-2.7
			c0.5-1.3,0.3-2.3,0.2-2.7c0-0.1-0.2-0.4-0.9-0.4C24.7,9.7,24.6,9.7,24.4,9.7z M6.8,17.6c-0.1,0-0.2,0-0.3-0.1
			c-1.9-1.1-3.3-2.6-4-4.3c-0.6-1.6-0.5-2.9-0.2-3.6c0.2-0.5,0.8-1.1,2-1.1c0.5,0,1,0.1,1.2,0.2C5.8,8.6,6,8.9,6,9.1
			c0.2,3.1,0.7,5.6,1.4,7.6c0.1,0.2,0,0.5-0.2,0.7C7.1,17.5,7,17.6,6.8,17.6z M4.4,9.7c-0.7,0-0.8,0.3-0.9,0.4
			c-0.2,0.4-0.3,1.4,0.2,2.7c0.4,1,1.1,1.9,2,2.7C5.3,13.8,5,11.9,4.8,9.7C4.7,9.7,4.5,9.7,4.4,9.7z"/>
	</g>
	<g>
		<g>
			<path class="st0" d="M16.8,17.8h-3c-0.3,0-0.6-0.3-0.6-0.6v-6.9l-1.8,0.6c-0.2,0.1-0.3,0-0.5,0c-0.2-0.1-0.3-0.2-0.3-0.4
				l-0.5-1.7C10,8.4,10.2,8.1,10.5,8l3.5-1.2c0.1,0,0.1,0,0.2,0h2.6c0.3,0,0.6,0.3,0.6,0.6v9.8C17.5,17.5,17.2,17.8,16.8,17.8z
				 M14.5,16.5h1.8V8h-1.9l-2.9,1l0.2,0.5l1.9-0.7c0.1,0,0.1,0,0.2,0h0c0.3,0,0.6,0.3,0.6,0.6V16.5z"/>
		</g>
	</g>
</g>
</svg>
