<?xml version="1.0" standalone="no"?>
<!DOCTYPE svg PUBLIC "-//W3C//DTD SVG 1.1//EN" "http://www.w3.org/Graphics/SVG/1.1/DTD/svg11.dtd" >
<svg>
<metadata>
Created by FontForge 20090622 at Wed Mar  1 10:39:35 2017
 By deploy user
Copyright (c) 2013 by Andriy Konstantynov. All rights reserved.
</metadata>
<defs>
<font id="ClinicaPro-Regular" horiz-adv-x="589" >
  <font-face 
    font-family="Clinica Pro Rg"
    font-weight="400"
    font-variant="small-caps"
    font-stretch="normal"
    units-per-em="1000"
    panose-1="2 11 0 3 3 2 0 2 0 4"
    ascent="750"
    descent="-250"
    x-height="500"
    cap-height="700"
    bbox="-40 -227 1080 927"
    underline-thickness="50"
    underline-position="-50"
    unicode-range="U+0020-U+FB03"
  />
<missing-glyph horiz-adv-x="236" 
 />
    <glyph glyph-name="ff" unicode="ff" horiz-adv-x="638" 
d="M552 729q20 0 47 -5v-54q-16 4 -40 4q-40 0 -64 -20t-24 -55v-99h128v-54h-128v-446h-83v446h-203v-446h-83v446h-74v54h74v93q0 136 164 136q22 0 47 -5v-54q-16 4 -40 4q-40 0 -64 -20t-24 -55v-99h203v93q0 136 164 136z" />
    <glyph glyph-name="fi" unicode="fi" horiz-adv-x="537" 
d="M380 0v446h-195v-446h-83v446h-74v54h74v93q0 136 164 136q22 0 47 -5v-54q-16 4 -40 4q-40 0 -64 -20t-24 -55v-99h278v-500h-83zM380 592v108h83v-108h-83z" />
    <glyph glyph-name="ffi" unicode="ffi" horiz-adv-x="823" 
d="M666 0v446h-195v-446h-83v446h-203v-446h-83v446h-74v54h74v93q0 136 164 136q22 0 47 -5v-54q-16 4 -40 4q-40 0 -64 -20t-24 -55v-99h203v93q0 136 164 136q20 0 47 -5v-54q-16 4 -40 4q-40 0 -64 -20t-24 -55v-99h278v-500h-83zM666 592v108h83v-108h-83z" />
    <glyph glyph-name="quoteright_afii10056" unicode="&#x2019;&#x407;" horiz-adv-x="384" 
d="M332 779v96h70v-96h-70zM217 0v700h86v-700h-86zM64 770v105h93v-105q0 -63 -26 -104t-68 -41v49q17 0 28 27t11 69h-38z" />
    <glyph glyph-name="afii10056_afii10056" unicode="&#x407;&#x407;" horiz-adv-x="499" 
d="M-17 779v96h70v-96h-70zM214 779v96h71v-96h-71zM446 779v96h70v-96h-70zM82 0v700h86v-700h-86zM331 0v700h87v-700h-87z" />
    <glyph glyph-name="quoteright_afii10104" unicode="&#x2019;&#x457;" horiz-adv-x="374" 
d="M331 579v96h70v-96h-70zM64 594v106h93v-106q0 -63 -26 -103.5t-68 -40.5v48q17 0 28 27.5t11 68.5h-38zM218 0v500h83v-500h-83z" />
    <glyph glyph-name="afii10104_afii10104" unicode="&#x457;&#x457;" horiz-adv-x="460" 
d="M-27 579v96h71v-96h-71zM195 579v96h70v-96h-70zM417 579v96h70v-96h-70zM73 0v500h83v-500h-83zM303 0v500h83v-500h-83z" />
    <glyph glyph-name=".notdef" horiz-adv-x="236" 
 />
    <glyph glyph-name=".null" horiz-adv-x="0" 
 />
    <glyph glyph-name="nonmarkingreturn" horiz-adv-x="333" 
 />
    <glyph glyph-name="space" unicode=" " horiz-adv-x="236" 
 />
    <glyph glyph-name="exclam" unicode="!" horiz-adv-x="230" 
d="M156 115v-115h-83v115h83zM156 700v-489h-83v489h83z" />
    <glyph glyph-name="quotedbl" unicode="&#x22;" horiz-adv-x="364" 
d="M140 700l-9 -218h-50l-9 218h68zM293 700l-9 -218h-51l-9 218h69z" />
    <glyph glyph-name="numbersign" unicode="#" horiz-adv-x="690" 
d="M399 0l29 169h-229l-29 -169h-71l29 169h-89v53h98l44 256h-90v53h100l29 169h71l-30 -169h230l29 169h71l-30 -169h90v-53h-99l-44 -256h91v-53h-100l-29 -169h-71zM252 478l-44 -256h229l44 256h-229z" />
    <glyph glyph-name="dollar" unicode="$" horiz-adv-x="613" 
d="M264 -100v99q-99 9 -160 67.5t-61 148.5h82q0 -72 49.5 -115t127.5 -43q77 0 123.5 35.5t46.5 95.5q0 41 -23 68.5t-59.5 40.5t-80.5 22.5t-88 21t-80.5 29t-59.5 53t-23 87.5q0 83 56 133.5t150 57.5v99h74v-100q88 -10 143.5 -64.5t55.5 -136.5h-83q0 65 -44 104.5
t-112 39.5q-69 0 -111 -36.5t-42 -95.5q0 -39 23 -64.5t59.5 -38t80.5 -21.5t88 -21t80.5 -30t59.5 -54.5t23 -90.5q0 -85 -60.5 -135t-160.5 -57v-99h-74z" />
    <glyph glyph-name="percent" unicode="%" horiz-adv-x="748" 
d="M136 0l410 700h67l-410 -700h-67zM44 566q0 64 38.5 101t100.5 37q64 0 102 -37t38 -101t-38 -100.5t-102 -36.5q-62 0 -100.5 36.5t-38.5 100.5zM95 566q0 -43 24 -66.5t65 -23.5q40 0 64 23.5t24 66.5q0 42 -24 66t-64 24q-41 0 -65 -24t-24 -66zM424 133
q0 64 38.5 101t101.5 37q64 0 102 -37t38 -101t-38 -100.5t-102 -36.5q-63 0 -101.5 36.5t-38.5 100.5zM475 133q0 -42 24 -66t65 -24q40 0 64 24t24 66t-24 66t-64 24q-41 0 -65 -24t-24 -66z" />
    <glyph glyph-name="ampersand" unicode="&#x26;" horiz-adv-x="651" 
d="M499 329h76q0 -122 -64 -205l122 -124h-95l-73 80q-82 -84 -214 -84q-99 0 -159 50.5t-60 139.5q0 74 39 120t109 85q-62 93 -62 166q0 66 44 106.5t123 40.5q74 0 120 -36.5t46 -102.5q0 -68 -41.5 -109t-122.5 -82l168 -199q44 62 44 154zM253 55q96 0 159 69l-188 213
q-53 -31 -81.5 -64.5t-28.5 -87.5q0 -60 37 -95t102 -35zM198 552q0 -54 47 -125q63 32 93.5 61.5t30.5 77.5q0 39 -23 59t-59 20q-41 0 -65 -25.5t-24 -67.5z" />
    <glyph glyph-name="quotesingle" unicode="'" horiz-adv-x="212" 
d="M140 700l-9 -218h-50l-9 218h68z" />
    <glyph glyph-name="parenleft" unicode="(" horiz-adv-x="276" 
d="M243 -104v-52q-82 0 -131.5 121.5t-49.5 333.5t49.5 333.5t131.5 121.5v-53q-49 0 -77 -105.5t-28 -296.5t28 -297t77 -106z" />
    <glyph glyph-name="parenright" unicode=")" horiz-adv-x="276" 
d="M39 701v53q82 0 132 -121.5t50 -333.5t-50 -333.5t-132 -121.5v52q49 0 77.5 106t28.5 297q0 190 -28.5 296t-77.5 106z" />
    <glyph glyph-name="asterisk" unicode="*" horiz-adv-x="469" 
d="M60 584l26 46l122 -71v141h53v-141l122 71l26 -46l-122 -70l122 -70l-26 -45l-122 70v-141h-53v141l-122 -70l-26 45l121 70z" />
    <glyph glyph-name="plus" unicode="+" horiz-adv-x="487" 
d="M57 272v52h160v163h52v-163h160v-52h-160v-163h-52v163h-160z" />
    <glyph glyph-name="comma" unicode="," horiz-adv-x="217" 
d="M64 0v106h93v-106q0 -63 -26 -104t-68 -41v49q17 0 28 27t11 69h-38z" />
    <glyph glyph-name="hyphen" unicode="-" horiz-adv-x="322" 
d="M57 249v52h208v-52h-208z" />
    <glyph glyph-name="period" unicode="." horiz-adv-x="218" 
d="M64 0v106h93v-106h-93z" />
    <glyph glyph-name="slash" unicode="/" horiz-adv-x="397" 
d="M36 -100l250 800h75l-250 -800h-75z" />
    <glyph glyph-name="zero" unicode="0" horiz-adv-x="649" 
d="M54 350q0 164 74.5 259t195.5 95q122 0 196 -94.5t74 -259.5t-74 -259.5t-196 -94.5q-121 0 -195.5 95t-74.5 259zM139 350q0 -139 50.5 -217t134.5 -78q85 0 135 77.5t50 217.5t-50 217.5t-135 77.5q-84 0 -134.5 -78t-50.5 -217z" />
    <glyph glyph-name="one" unicode="1" horiz-adv-x="340" 
d="M42 575v47q81 0 111 16.5t30 61.5h75v-700h-85v575h-131z" />
    <glyph glyph-name="two" unicode="2" horiz-adv-x="585" 
d="M61 58q0 38 39 81.5t94.5 84l111.5 83t95 94t39 100.5q0 64 -41 104t-108 40q-68 0 -111.5 -41.5t-43.5 -108.5h-82q0 94 66.5 151.5t172.5 57.5q104 0 168 -54.5t64 -148.5q0 -60 -38.5 -117t-93.5 -100.5t-110 -82t-93.5 -75.5t-38.5 -68h379v-58h-469v58z" />
    <glyph glyph-name="three" unicode="3" horiz-adv-x="610" 
d="M232 330v58h61q67 0 107.5 34.5t40.5 94.5q0 59 -38.5 93.5t-103.5 34.5q-68 0 -109.5 -37.5t-41.5 -101.5h-81q0 90 65.5 144t168.5 54q105 0 164.5 -48t59.5 -133q0 -115 -109 -160q64 -17 102 -63t38 -114q0 -90 -65.5 -140t-180.5 -50q-107 0 -175 55t-68 147h82
q0 -65 44.5 -104t116.5 -39q73 0 117.5 36.5t44.5 100.5q0 63 -41 100.5t-110 37.5h-89z" />
    <glyph glyph-name="four" unicode="4" horiz-adv-x="590" 
d="M397 0v141h-357v60l330 499h105v-499h70v-60h-70v-141h-78zM118 201h279v419z" />
    <glyph glyph-name="five" unicode="5" horiz-adv-x="609" 
d="M81 329l39 371h391v-60h-317l-27 -235q55 50 146 50q106 0 173 -64t67 -168q0 -107 -65 -167t-178 -60q-107 0 -175 54.5t-68 145.5h82q0 -64 44.5 -102.5t115.5 -38.5q73 0 117 45t44 123q0 80 -47 128.5t-123 48.5q-48 0 -85.5 -19t-53.5 -52h-80z" />
    <glyph glyph-name="six" unicode="6" horiz-adv-x="599" 
d="M545 223q0 -105 -67.5 -166t-176.5 -61q-246 0 -246 355q0 161 69.5 257t179.5 96q93 0 152 -46t59 -122h-79q0 49 -37 79t-95 30q-74 0 -120 -75t-48 -223q24 45 70 74.5t111 29.5q102 0 165 -61t63 -167zM150 223q0 -79 41 -123.5t110 -44.5q72 0 115.5 44.5
t43.5 123.5q0 80 -43.5 124.5t-115.5 44.5q-69 0 -110 -44.5t-41 -124.5z" />
    <glyph glyph-name="seven" unicode="7" horiz-adv-x="555" 
d="M41 640v60h469v-60l-262 -640h-85l261 640h-383z" />
    <glyph glyph-name="eight" unicode="8" horiz-adv-x="587" 
d="M75 531q0 80 60.5 126.5t158.5 46.5t158 -46t60 -127q0 -57 -31 -97t-86 -58q65 -20 102.5 -67t37.5 -117q0 -91 -66 -143.5t-175 -52.5t-175.5 52.5t-66.5 143.5q0 69 37 116.5t102 67.5q-54 18 -85 58t-31 97zM137 200q0 -69 42.5 -107t114.5 -38t114.5 38t42.5 107
q0 68 -42.5 106.5t-114.5 38.5t-114.5 -38.5t-42.5 -106.5zM158 523q0 -56 37 -88t99 -32t98.5 32t36.5 88q0 58 -36.5 90t-98.5 32t-99 -32t-37 -90z" />
    <glyph glyph-name="nine" unicode="9" horiz-adv-x="585" 
d="M55 485q0 102 64.5 160.5t171.5 58.5q56 0 98.5 -18.5t69 -50t43 -78t22.5 -96.5t6 -112q0 -167 -65.5 -260t-184.5 -93q-93 0 -152 46t-59 122h81q0 -49 37 -79t95 -30q175 0 166 309q-22 -40 -67 -69t-106 -29q-99 0 -159.5 58.5t-60.5 160.5zM435 485q0 75 -39 117.5
t-105 42.5q-69 0 -110 -42.5t-41 -117.5q0 -76 41 -118.5t110 -42.5q66 0 105 42.5t39 118.5z" />
    <glyph glyph-name="colon" unicode=":" horiz-adv-x="212" 
d="M61 0v106h90v-106h-90zM61 394v106h90v-106h-90z" />
    <glyph glyph-name="semicolon" unicode=";" horiz-adv-x="212" 
d="M61 394v106h90v-106h-90zM61 0v102h90v-102q0 -64 -26.5 -104.5t-68.5 -40.5v49q17 0 28.5 27t11.5 69h-35z" />
    <glyph glyph-name="less" unicode="&#x3c;" horiz-adv-x="586" 
d="M543 81l-500 208v71l500 208v-76l-410 -168l410 -167v-76z" />
    <glyph glyph-name="equal" unicode="=" horiz-adv-x="538" 
d="M57 192v52h422v-52h-422zM57 406v52h422v-52h-422z" />
    <glyph glyph-name="greater" unicode="&#x3e;" horiz-adv-x="586" 
d="M43 568l500 -208v-71l-500 -208v76l410 167l-410 168v76z" />
    <glyph glyph-name="question" unicode="?" horiz-adv-x="568" 
d="M243 211v18q0 40 13.5 70.5t33.5 47t43.5 34l43.5 32t33.5 40t13.5 58.5q0 60 -38.5 97t-102.5 37q-65 0 -106 -41.5t-41 -108.5h-81q0 94 64 151.5t166 57.5q100 0 161.5 -51.5t61.5 -141.5q0 -43 -13.5 -74.5t-33.5 -48.5t-44 -34l-44 -30.5t-33.5 -38t-13.5 -56.5v-18
h-83zM243 0v115h83v-115h-83z" />
    <glyph glyph-name="at" unicode="@" horiz-adv-x="815" 
d="M518 348q0 72 -31.5 112.5t-83.5 40.5q-55 0 -88 -40.5t-33 -112.5t33 -112.5t88 -40.5q52 0 83.5 40.5t31.5 112.5zM538 216v31q-19 -46 -58 -71t-88 -25q-78 0 -125.5 52.5t-47.5 144.5t47.5 144t125.5 52q91 0 129 -78l4 73h55v-302q0 -20 11 -31.5t31 -11.5
q39 0 59 33.5t20 122.5q0 143 -79.5 222.5t-215.5 79.5q-135 0 -213.5 -79t-78.5 -223t78.5 -223t213.5 -79q88 0 149 36l38 -42q-80 -46 -187 -46q-159 0 -255.5 94.5t-96.5 259.5t96.5 259.5t255.5 94.5q161 0 258 -94.5t97 -259.5q0 -111 -32.5 -155t-106.5 -44
q-42 0 -63 17.5t-21 47.5z" />
    <glyph glyph-name="A" unicode="A" horiz-adv-x="679" 
d="M29 0l262 700h98l261 -700h-87l-72 191h-303l-72 -191h-87zM340 626l-136 -375h272z" />
    <glyph glyph-name="B" unicode="B" horiz-adv-x="639" 
d="M82 0v700h254q99 0 158 -47.5t59 -130.5q0 -57 -29 -97t-80 -60q65 -17 102.5 -62.5t37.5 -113.5q0 -89 -60.5 -139t-159.5 -50h-282zM168 60h182q68 0 108.5 35.5t40.5 99.5t-40.5 100t-108.5 36h-182v-271zM322 640h-154v-249h154q67 0 106.5 33t39.5 92t-39 91.5
t-107 32.5z" />
    <glyph glyph-name="C" unicode="C" horiz-adv-x="705" 
d="M373 643q-106 0 -169 -77t-63 -216t63 -216t169 -77q82 0 133 46t51 122h85q0 -104 -75 -166.5t-192 -62.5q-145 0 -233 94.5t-88 259.5t88 259.5t233 94.5q117 0 192 -62.5t75 -166.5h-85q0 76 -51 122t-133 46z" />
    <glyph glyph-name="D" unicode="D" horiz-adv-x="684" 
d="M66 0v700h252q141 0 226.5 -93.5t85.5 -256.5t-85.5 -256.5t-226.5 -93.5h-252zM153 60h158q107 0 169.5 76t62.5 214t-62.5 214t-169.5 76h-158v-580z" />
    <glyph glyph-name="E" unicode="E" horiz-adv-x="583" 
d="M82 0v700h452v-60h-366v-250h331v-60h-331v-270h371v-60h-457z" />
    <glyph glyph-name="F" unicode="F" horiz-adv-x="555" 
d="M478 390v-60h-310v-330h-86v700h429v-60h-343v-250h310z" />
    <glyph glyph-name="G" unicode="G" horiz-adv-x="705" 
d="M395 306v60h247v-366h-71l-5 96q-28 -48 -78 -74t-113 -26q-145 0 -233 94.5t-88 259.5t88 259.5t233 94.5q117 0 192 -61.5t75 -164.5h-85q0 76 -51 120.5t-133 44.5q-106 0 -169 -77t-63 -216t63 -216t170 -77q88 0 140 50.5t52 140.5v58h-171z" />
    <glyph glyph-name="H" unicode="H" horiz-adv-x="701" 
d="M533 0v330h-365v-330h-86v700h86v-310h365v310h87v-700h-87z" />
    <glyph glyph-name="I" unicode="I" horiz-adv-x="250" 
d="M82 0v700h86v-700h-86z" />
    <glyph glyph-name="J" unicode="J" horiz-adv-x="577" 
d="M411 191v509h86v-509q0 -88 -61 -141.5t-157 -53.5t-157.5 53.5t-61.5 141.5v38h87v-38q0 -61 36.5 -97.5t95.5 -36.5q58 0 95 36.5t37 97.5z" />
    <glyph glyph-name="K" unicode="K" horiz-adv-x="627" 
d="M505 0l-250 342l-87 -95v-247h-86v700h86v-345l307 345h99l-268 -298l293 -402h-94z" />
    <glyph glyph-name="L" unicode="L" horiz-adv-x="559" 
d="M520 60v-60h-438v700h86v-640h352z" />
    <glyph glyph-name="M" unicode="M" horiz-adv-x="899" 
d="M82 0v700h129l238 -600l238 600h130v-700h-83v600l-241 -600h-88l-241 600v-600h-82z" />
    <glyph glyph-name="N" unicode="N" horiz-adv-x="718" 
d="M164 566v-566h-82v700h83l388 -566v566h83v-700h-83z" />
    <glyph glyph-name="O" unicode="O" horiz-adv-x="745" 
d="M54 350q0 165 87.5 259.5t230.5 94.5q144 0 231.5 -94.5t87.5 -259.5t-87.5 -259.5t-231.5 -94.5q-143 0 -230.5 94.5t-87.5 259.5zM141 350q0 -139 63 -216t168 -77q107 0 169.5 77t62.5 216t-62.5 216t-169.5 77q-105 0 -168 -77t-63 -216z" />
    <glyph glyph-name="P" unicode="P" horiz-adv-x="621" 
d="M82 0v700h264q100 0 160 -54.5t60 -149.5t-60 -149.5t-160 -54.5h-178v-292h-86zM331 640h-163v-288h163q69 0 110 38.5t41 105.5q0 68 -41 106t-110 38z" />
    <glyph glyph-name="Q" unicode="Q" horiz-adv-x="745" 
d="M54 350q0 165 87.5 259.5t230.5 94.5q144 0 231.5 -94.5t87.5 -259.5q0 -163 -88 -259l93 -77l-37 -46l-101 85q-79 -57 -186 -57q-143 0 -230.5 94.5t-87.5 259.5zM394 188l37 46l111 -92q62 78 62 208q0 139 -62.5 216t-169.5 77q-105 0 -168 -77t-63 -216t63 -216
t168 -77q78 0 130 41z" />
    <glyph glyph-name="R" unicode="R" horiz-adv-x="624" 
d="M82 0v700h264q100 0 160 -53.5t60 -148.5q0 -81 -46 -133t-125 -65l195 -300h-95l-177 296h-150v-296h-86zM331 640h-163v-284h163q69 0 110 37.5t41 104.5t-41 104.5t-110 37.5z" />
    <glyph glyph-name="S" unicode="S" horiz-adv-x="613" 
d="M43 215h82q0 -72 49.5 -115t127.5 -43q77 0 123.5 35.5t46.5 95.5q0 41 -23 68.5t-59.5 40.5t-80.5 22.5t-88 21t-80.5 29t-59.5 53t-23 87.5q0 90 66 142t173 52q106 0 173 -56.5t67 -148.5h-83q0 65 -44 104.5t-112 39.5q-69 0 -111 -36.5t-42 -95.5q0 -39 23 -64.5
t59.5 -38t80.5 -21.5t88 -21t80.5 -30t59.5 -54.5t23 -90.5q0 -92 -70.5 -143.5t-184.5 -51.5q-116 0 -188.5 60t-72.5 159z" />
    <glyph glyph-name="T" unicode="T" horiz-adv-x="644" 
d="M43 640v60h558v-60h-236v-640h-86v640h-236z" />
    <glyph glyph-name="U" unicode="U" horiz-adv-x="715" 
d="M548 238v462h87v-462q0 -109 -78 -175.5t-200 -66.5t-200 66.5t-78 175.5v462h87v-462q0 -82 53 -131.5t138 -49.5t138 49.5t53 131.5z" />
    <glyph glyph-name="V" unicode="V" horiz-adv-x="693" 
d="M664 700l-269 -700h-99l-267 700h87l230 -626l231 626h87z" />
    <glyph glyph-name="W" unicode="W" horiz-adv-x="1034" 
d="M688 0l-172 590l-171 -590h-98l-218 700h89l178 -612l177 612h87l177 -612l178 612h90l-219 -700h-98z" />
    <glyph glyph-name="X" unicode="X" horiz-adv-x="684" 
d="M34 0l257 353l-250 347h97l204 -290l206 290h98l-253 -346l258 -354h-97l-212 297l-211 -297h-97z" />
    <glyph glyph-name="Y" unicode="Y" horiz-adv-x="681" 
d="M297 0v275l-256 425h94l206 -351l206 351h95l-258 -425v-275h-87z" />
    <glyph glyph-name="Z" unicode="Z" horiz-adv-x="628" 
d="M57 640v60h525v-56l-435 -584h434v-60h-529v56l432 584h-427z" />
    <glyph glyph-name="bracketleft" unicode="[" horiz-adv-x="288" 
d="M73 -152v902h182v-52h-108v-798h108v-52h-182z" />
    <glyph glyph-name="backslash" unicode="\" horiz-adv-x="397" 
d="M111 700l250 -800h-75l-250 800h75z" />
    <glyph glyph-name="bracketright" unicode="]" horiz-adv-x="288" 
d="M214 750v-902h-181v52h107v798h-107v52h181z" />
    <glyph glyph-name="asciicircum" unicode="^" horiz-adv-x="506" 
d="M289 700l184 -200h-81l-139 154l-139 -154h-81l185 200h71z" />
    <glyph glyph-name="underscore" unicode="_" horiz-adv-x="422" 
d="M0 -102v52h422v-52h-422z" />
    <glyph glyph-name="grave" unicode="`" horiz-adv-x="230" 
d="M100 700l112 -134h-62l-131 134h81z" />
    <glyph glyph-name="a" unicode="a" horiz-adv-x="539" 
d="M386 0l-5 99q-53 -103 -171 -103q-71 0 -114.5 34.5t-43.5 95.5q0 81 77 125.5t216 44.5h36v39q0 53 -32.5 83.5t-87.5 30.5q-52 0 -86 -29t-34 -76h-81q0 73 56.5 116.5t144.5 43.5q91 0 147 -45.5t56 -123.5v-335h-78zM381 248h-36q-102 0 -156 -30t-54 -86
q0 -38 25.5 -59.5t67.5 -21.5q69 0 111 48.5t42 132.5v16z" />
    <glyph glyph-name="b" unicode="b" horiz-adv-x="596" 
d="M73 0v725h83v-317q51 96 165 96q100 0 161.5 -68t61.5 -186t-61.5 -186t-161.5 -68q-114 0 -165 99l-5 -95h-78zM156 250q0 -94 40.5 -146.5t107.5 -52.5q71 0 114 52.5t43 146.5t-43 146.5t-114 52.5q-67 0 -107.5 -52.5t-40.5 -146.5z" />
    <glyph glyph-name="c" unicode="c" horiz-adv-x="556" 
d="M294 449q-72 0 -115.5 -52.5t-43.5 -146.5t43.5 -146.5t115.5 -52.5q53 0 87.5 31.5t34.5 83.5h81q0 -77 -57 -123.5t-145 -46.5q-110 0 -176.5 68t-66.5 186t66.5 186t176.5 68q88 0 145 -46.5t57 -123.5h-81q0 52 -34.5 83.5t-87.5 31.5z" />
    <glyph glyph-name="d" unicode="d" horiz-adv-x="592" 
d="M522 725v-725h-77l-6 98q-49 -102 -164 -102q-101 0 -162 68t-61 186t61 186t162 68q114 0 164 -96v317h83zM439 250q0 94 -40 146.5t-107 52.5q-72 0 -114.5 -52.5t-42.5 -146.5t42.5 -146.5t114.5 -52.5q67 0 107 52.5t40 146.5z" />
    <glyph glyph-name="e" unicode="e" horiz-adv-x="568" 
d="M295 504q100 0 159.5 -70t53.5 -204h-372q1 -84 44.5 -131.5t113.5 -47.5q57 0 94 29t37 76h80q0 -72 -59 -116t-151 -44q-110 0 -176.5 68t-66.5 186q0 119 66 186.5t177 67.5zM294 449q-69 0 -113 -45.5t-44 -123.5h289q0 79 -37 124t-95 45z" />
    <glyph glyph-name="f" unicode="f" horiz-adv-x="353" 
d="M266 729q22 0 47 -5v-54q-16 4 -40 4q-40 0 -64 -20t-24 -55v-99h128v-54h-128v-446h-83v446h-74v54h74v93q0 136 164 136z" />
    <glyph glyph-name="g" unicode="g" horiz-adv-x="596" 
d="M293 -164q66 0 106 42.5t40 116.5v97q-50 -96 -164 -96q-101 0 -162 68t-61 186t61 186t162 68q115 0 164 -99l6 95h77v-505q0 -99 -63 -156.5t-166 -57.5q-98 0 -160.5 45.5t-62.5 120.5h79q0 -50 40.5 -80.5t103.5 -30.5zM439 250q0 94 -40 146.5t-107 52.5
q-72 0 -114.5 -52.5t-42.5 -146.5t42.5 -146.5t114.5 -52.5q67 0 107 52.5t40 146.5z" />
    <glyph glyph-name="h" unicode="h" horiz-adv-x="578" 
d="M156 250v-250h-83v725h83v-320q51 99 167 99q83 0 134 -48t51 -132v-324h-83v324q0 58 -33.5 91.5t-88.5 33.5q-67 0 -107 -52.5t-40 -146.5z" />
    <glyph glyph-name="i" unicode="i" horiz-adv-x="230" 
d="M73 592v108h83v-108h-83zM73 0v500h83v-500h-83z" />
    <glyph glyph-name="j" unicode="j" horiz-adv-x="230" 
d="M73 592v108h83v-108h-83zM156 500v-573q0 -146 -171 -146v55q40 0 64 22t24 62v580h83z" />
    <glyph glyph-name="k" unicode="k" horiz-adv-x="508" 
d="M389 0l-171 225l-62 -72v-153h-83v725h83v-460l203 235h93l-188 -217l212 -283h-87z" />
    <glyph glyph-name="l" unicode="l" horiz-adv-x="250" 
d="M73 99v626h83v-620q0 -25 13.5 -39.5t36.5 -14.5v-55q-133 0 -133 103z" />
    <glyph glyph-name="m" unicode="m" horiz-adv-x="841" 
d="M156 250v-250h-83v500h78l5 -100q45 104 144 104q53 0 91 -28.5t53 -78.5q22 52 65.5 79.5t95.5 27.5q73 0 118 -48t45 -132v-324h-83v324q0 58 -27.5 91.5t-73.5 33.5q-55 0 -88.5 -53t-33.5 -146v-250h-83v324q0 58 -27.5 91.5t-73.5 33.5q-55 0 -88.5 -52.5
t-33.5 -146.5z" />
    <glyph glyph-name="n" unicode="n" horiz-adv-x="581" 
d="M156 250v-250h-83v500h78l5 -98q51 102 167 102q83 0 134 -48t51 -132v-324h-83v324q0 58 -33.5 91.5t-88.5 33.5q-67 0 -107 -52.5t-40 -146.5z" />
    <glyph glyph-name="o" unicode="o" 
d="M52 250q0 118 66.5 186t176.5 68q109 0 175.5 -68t66.5 -186t-66.5 -186t-175.5 -68q-110 0 -176.5 68t-66.5 186zM135 250q0 -94 43.5 -146.5t116.5 -52.5q72 0 115.5 52.5t43.5 146.5t-43.5 146.5t-115.5 52.5q-73 0 -116.5 -52.5t-43.5 -146.5z" />
    <glyph glyph-name="p" unicode="p" horiz-adv-x="596" 
d="M73 -215v715h78l5 -98q51 102 165 102q100 0 161.5 -68t61.5 -186t-61.5 -186t-161.5 -68q-114 0 -165 96v-307h-83zM156 250q0 -94 40.5 -146.5t107.5 -52.5q71 0 114 52.5t43 146.5t-43 146.5t-114 52.5q-67 0 -107.5 -52.5t-40.5 -146.5z" />
    <glyph glyph-name="q" unicode="q" horiz-adv-x="592" 
d="M522 500v-715h-83v307q-50 -96 -164 -96q-101 0 -162 68t-61 186t61 186t162 68q115 0 164 -99l6 95h77zM439 250q0 94 -40 146.5t-107 52.5q-72 0 -114.5 -52.5t-42.5 -146.5t42.5 -146.5t114.5 -52.5q67 0 107 52.5t40 146.5z" />
    <glyph glyph-name="r" unicode="r" horiz-adv-x="377" 
d="M156 232v-232h-83v500h74l9 -105q25 53 70.5 81t103.5 28v-61q-77 0 -125.5 -58t-48.5 -153z" />
    <glyph glyph-name="s" unicode="s" horiz-adv-x="507" 
d="M49 157h81q0 -48 34.5 -77t88.5 -29q53 0 85 23t32 63q0 37 -32 56.5t-77.5 28t-91 19.5t-77.5 41t-32 81q0 66 52.5 103.5t137.5 37.5q82 0 134.5 -41.5t52.5 -109.5h-77q0 42 -31.5 69t-79.5 27t-77 -23t-29 -63q0 -35 32 -53.5t77.5 -26.5t91 -19.5t77.5 -43t32 -85.5
q0 -65 -55.5 -102t-146.5 -37q-89 0 -145.5 44t-56.5 117z" />
    <glyph glyph-name="t" unicode="t" horiz-adv-x="367" 
d="M273 -4q-165 0 -165 136v314h-80v54h80v105h83v-105h129v-54h-129v-320q0 -35 24.5 -55t64.5 -20q24 0 40 4v-54q-27 -5 -47 -5z" />
    <glyph glyph-name="u" unicode="u" horiz-adv-x="581" 
d="M425 250v250h83v-500h-78l-5 99q-25 -49 -68.5 -76t-99.5 -27q-82 0 -133 47.5t-51 129.5v327h83v-327q0 -57 33 -89.5t88 -32.5q67 0 107.5 52.5t40.5 146.5z" />
    <glyph glyph-name="v" unicode="v" horiz-adv-x="543" 
d="M519 500l-201 -500h-93l-201 500h83l164 -428l164 428h84z" />
    <glyph glyph-name="w" unicode="w" horiz-adv-x="808" 
d="M526 0l-123 396l-122 -396h-92l-165 500h86l126 -421l127 421h81l127 -421l127 421h86l-166 -500h-92z" />
    <glyph glyph-name="x" unicode="x" horiz-adv-x="543" 
d="M31 0l194 253l-189 247h93l142 -195l143 195h93l-190 -246l196 -254h-94l-148 203l-147 -203h-93z" />
    <glyph glyph-name="y" unicode="y" horiz-adv-x="537" 
d="M513 500l-232 -580q-53 -139 -224 -139v55q50 0 89.5 22.5t55.5 61.5l35 80h-15l-198 500h85l159 -425l160 425h85z" />
    <glyph glyph-name="z" unicode="z" horiz-adv-x="500" 
d="M48 446v54h404v-54l-319 -392h323v-54h-412v54l315 392h-311z" />
    <glyph glyph-name="braceleft" unicode="{" horiz-adv-x="332" 
d="M133 -9v197q0 40 -25.5 62t-68.5 22v55q43 0 68.5 22t25.5 61v199q0 71 42.5 108t123.5 37v-54q-42 0 -67 -22.5t-25 -61.5v-189q0 -94 -76 -128q76 -33 76 -127v-188q0 -40 25 -62t67 -22v-54q-166 0 -166 145z" />
    <glyph glyph-name="bar" unicode="|" horiz-adv-x="221" 
d="M73 -100v800h74v-800h-74z" />
    <glyph glyph-name="braceright" unicode="}" horiz-adv-x="332" 
d="M199 609v-198q0 -40 25.5 -62t68.5 -22v-55q-43 0 -68.5 -22t-25.5 -62v-197q0 -72 -42.5 -108.5t-123.5 -36.5v54q42 0 67 22t25 62v188q0 94 75 127q-75 34 -75 128v189q0 39 -25 61.5t-67 22.5v54q81 0 123.5 -37t42.5 -108z" />
    <glyph glyph-name="asciitilde" unicode="~" horiz-adv-x="445" 
d="M42 245q0 55 29.5 87.5t73.5 32.5q30 0 54.5 -18.5t46 -36.5t45.5 -18q25 0 41 17t16 46h56q0 -54 -30 -87t-73 -33q-25 0 -46.5 11.5t-34 25.5t-30 25.5t-35.5 11.5q-26 0 -42 -17t-16 -47h-55z" />
    <glyph glyph-name="exclamdown" unicode="&#xa1;" horiz-adv-x="230" 
d="M73 385v115h83v-115h-83zM73 -200v489h83v-489h-83z" />
    <glyph glyph-name="cent" unicode="&#xa2;" horiz-adv-x="556" 
d="M258 -100v100q-94 10 -150 76t-56 174t56 174t150 76v100h74v-100q73 -9 119 -53.5t46 -112.5h-81q0 52 -34.5 83.5t-87.5 31.5q-72 0 -115.5 -52.5t-43.5 -146.5t43.5 -146.5t115.5 -52.5q53 0 87.5 31.5t34.5 83.5h81q0 -68 -46 -113t-119 -53v-100h-74z" />
    <glyph glyph-name="sterling" unicode="&#xa3;" horiz-adv-x="582" 
d="M37 291v60h61v163q0 86 60.5 138t155.5 52t155 -52t60 -138v-43h-84v43q0 58 -36.5 93.5t-93.5 35.5t-93.5 -35.5t-36.5 -93.5v-163h241v-60h-241v-231h354v-60h-502v60h61v231h-61z" />
    <glyph glyph-name="currency" unicode="&#xa4;" horiz-adv-x="517" 
d="M86 325q0 61 29 106l-77 77l37 37l78 -78q44 33 106 33t104 -33l79 78l37 -37l-78 -77q31 -43 31 -106t-31 -106l78 -77l-37 -37l-79 78q-42 -33 -104 -33t-106 33l-78 -78l-37 37l77 77q-29 45 -29 106zM145 325q0 -57 31 -89t83 -32t82.5 32t30.5 89t-30.5 89t-82.5 32
t-83 -32t-31 -89z" />
    <glyph glyph-name="yen" unicode="&#xa5;" horiz-adv-x="681" 
d="M163 203v45h134v27l-256 425h94l206 -351l206 351h95l-258 -425v-27h134v-45h-134v-74h134v-45h-134v-84h-87v84h-135v45h135v74h-134z" />
    <glyph glyph-name="brokenbar" unicode="&#xa6;" horiz-adv-x="221" 
d="M73 -100v350h74v-350h-74zM147 700v-350h-74v350h74z" />
    <glyph glyph-name="section" unicode="&#xa7;" horiz-adv-x="547" 
d="M49 -58h81q0 -48 40 -77t103 -29q62 0 99.5 29.5t37.5 80.5q0 40 -26 64.5t-65 33.5t-84 21t-84 25t-65 48t-26 89q0 57 27 98.5t75 60.5q-102 41 -102 143q0 81 58 128t153 47q90 0 148 -42t58 -109h-77q0 42 -37.5 69t-94.5 27q-56 0 -90.5 -31.5t-34.5 -82.5
q0 -34 19.5 -56.5t50 -33.5t68 -19t75 -19t68 -28t50 -50.5t19.5 -82.5q0 -55 -29 -94.5t-80 -57.5q52 -20 80.5 -53t28.5 -93q0 -78 -61 -122.5t-161 -44.5q-97 0 -159.5 44t-62.5 117zM414 243q0 23 -9 41t-21 28.5t-35.5 20t-39.5 13.5l-46 11q-56 -4 -90.5 -38
t-34.5 -87q0 -23 9 -40t20 -27t34.5 -19.5t37.5 -13t45 -10.5q58 4 94 36.5t36 84.5z" />
    <glyph glyph-name="dieresis" unicode="&#xa8;" horiz-adv-x="423" 
d="M70 579v96h70v-96h-70zM283 579v96h71v-96h-71z" />
    <glyph glyph-name="copyright" unicode="&#xa9;" horiz-adv-x="799" 
d="M54 350q0 165 95 259.5t250 94.5q157 0 251.5 -94.5t94.5 -259.5t-94.5 -259.5t-251.5 -94.5q-155 0 -250 94.5t-95 259.5zM118 350q0 -141 76 -220t205 -79q130 0 206 78.5t76 220.5t-76 220.5t-206 78.5q-129 0 -205 -79t-76 -220zM412 514q-61 0 -97.5 -43.5
t-36.5 -120.5t36.5 -120t97.5 -43q45 0 74 28t29 73h62q0 -66 -46.5 -105.5t-118.5 -39.5q-90 0 -144 55.5t-54 151.5q0 97 54 152.5t144 55.5q72 0 118.5 -39.5t46.5 -105.5h-62q0 45 -29 73t-74 28z" />
    <glyph glyph-name="ordfeminine" unicode="&#xaa;" horiz-adv-x="406" 
d="M282 350l-4 63q-39 -66 -119 -66q-52 0 -84 24.5t-32 67.5q0 57 55 88.5t155 31.5h25v25q0 35 -22.5 54.5t-59.5 19.5q-35 0 -57.5 -18.5t-22.5 -50.5h-67q0 52 41 83t106 31q68 0 109.5 -32t41.5 -87v-234h-65zM278 520h-25q-141 0 -141 -76q0 -25 17 -38.5t47 -13.5
q46 0 74 31t28 86v11z" />
    <glyph glyph-name="guillemotleft" unicode="&#xab;" horiz-adv-x="469" 
d="M233 303l174 162v-80l-118 -110l118 -110v-80l-174 162v56zM54 303l175 162v-80l-119 -110l119 -110v-80l-175 162v56z" />
    <glyph glyph-name="logicalnot" unicode="&#xac;" horiz-adv-x="508" 
d="M57 324v52h372v-176h-69v124h-303z" />
    <glyph glyph-name="uni00AD" unicode="&#xad;" horiz-adv-x="347" 
d="M57 249v52h233v-52h-233z" />
    <glyph glyph-name="registered" unicode="&#xae;" horiz-adv-x="799" 
d="M54 350q0 165 95 259.5t250 94.5q157 0 251.5 -94.5t94.5 -259.5t-94.5 -259.5t-251.5 -94.5q-155 0 -250 94.5t-95 259.5zM118 350q0 -141 76 -220t205 -79q130 0 206 78.5t76 220.5t-76 220.5t-206 78.5q-129 0 -205 -79t-76 -220zM279 181v350h141q52 0 83.5 -27.5
t31.5 -74.5q0 -40 -22.5 -66t-60.5 -34l95 -148h-59l-84 145h-69v-145h-56zM410 494h-75v-131h75q33 0 51.5 17t18.5 49q0 31 -18.5 48t-51.5 17z" />
    <glyph glyph-name="macron" unicode="&#xaf;" horiz-adv-x="423" 
d="M79 598v53h266v-53h-266z" />
    <glyph glyph-name="degree" unicode="&#xb0;" horiz-adv-x="324" 
d="M52 596q0 50 30 79t80 29t80 -29t30 -79t-30 -78.5t-80 -28.5t-80 28.5t-30 78.5zM96 596q0 -32 17.5 -50t48.5 -18q30 0 47.5 18t17.5 50t-17.5 49.5t-47.5 17.5q-31 0 -48.5 -17.5t-17.5 -49.5z" />
    <glyph glyph-name="plusminus" unicode="&#xb1;" horiz-adv-x="486" 
d="M57 321v52h160v163h52v-163h160v-52h-160v-163h-52v163h-160zM57 69v53h372v-53h-372z" />
    <glyph glyph-name="twosuperior" unicode="&#xb2;" horiz-adv-x="316" 
d="M37 386q0 21 29.5 49t65 51.5t65 54.5t29.5 59q0 29 -19 47.5t-50 18.5q-32 0 -51.5 -19t-19.5 -51h-53q0 48 34.5 77t90.5 29q54 0 88 -27t34 -75q0 -35 -29 -70t-64 -57.5t-64 -46.5t-29 -40h188v-36h-245v36z" />
    <glyph glyph-name="threesuperior" unicode="&#xb3;" horiz-adv-x="328" 
d="M127 512v35h30q32 0 51 16t19 44q0 27 -18 43t-49 16q-32 0 -51 -18t-19 -48h-52q0 47 34.5 74.5t89.5 27.5t86.5 -24t31.5 -67q0 -58 -54 -79q69 -21 69 -89q0 -45 -34 -70t-95 -25q-57 0 -92.5 28t-35.5 75h52q0 -31 21 -49t55 -18t54.5 16.5t20.5 46.5t-19 47.5
t-52 17.5h-43z" />
    <glyph glyph-name="acute" unicode="&#xb4;" horiz-adv-x="230" 
d="M19 566l111 134h82l-132 -134h-61z" />
    <glyph glyph-name="mu" unicode="&#xb5;" horiz-adv-x="581" 
d="M73 -150v650h83v-327q0 -57 33 -89.5t88 -32.5q67 0 107.5 52.5t40.5 146.5v250h83v-500h-78l-5 99q-23 -50 -64.5 -76.5t-94.5 -26.5q-79 0 -110 58v-204h-83z" />
    <glyph glyph-name="paragraph" unicode="&#xb6;" horiz-adv-x="650" 
d="M384 700v-800h-79v392h-30q-100 0 -160 54.5t-60 149.5t60 149.5t160 54.5h109zM489 -100v800h79v-800h-79z" />
    <glyph glyph-name="periodcentered" unicode="&#xb7;" horiz-adv-x="212" 
d="M61 222v100h90v-100h-90z" />
    <glyph glyph-name="cedilla" unicode="&#xb8;" horiz-adv-x="302" 
d="M126 0h49v-20q0 -21 10.5 -35t23 -20t23 -20t10.5 -36q0 -34 -23.5 -53.5t-61.5 -19.5q-42 0 -70 28v40q30 -28 62 -28q20 0 31.5 10t11.5 26q0 13 -10.5 23t-22.5 17t-22.5 24.5t-10.5 43.5v20z" />
    <glyph glyph-name="onesuperior" unicode="&#xb9;" horiz-adv-x="196" 
d="M28 630v29q43 0 58.5 9t15.5 32h47v-350h-54v280h-67z" />
    <glyph glyph-name="ordmasculine" unicode="&#xba;" horiz-adv-x="439" 
d="M43 525q0 83 48.5 130.5t128.5 47.5q79 0 127.5 -47.5t48.5 -130.5t-48.5 -130.5t-127.5 -47.5q-80 0 -128.5 47.5t-48.5 130.5zM112 525q0 -63 29.5 -98t78.5 -35t78.5 35t29.5 98t-29.5 98t-78.5 35t-78.5 -35t-29.5 -98z" />
    <glyph glyph-name="guillemotright" unicode="&#xbb;" horiz-adv-x="469" 
d="M237 247l-175 -162v80l118 110l-118 110v80l175 -162v-56zM416 247l-175 -162v80l118 110l-118 110v80l175 -162v-56z" />
    <glyph glyph-name="onequarter" unicode="&#xbc;" horiz-adv-x="632" 
d="M28 630v29q43 0 58.5 9t15.5 32h47v-350h-54v280h-67zM92 0l350 700h65l-350 -700h-65zM514 0v69h-181v37l164 244h66v-244h33v-37h-33v-69h-49zM382 106h132v194z" />
    <glyph glyph-name="onehalf" unicode="&#xbd;" horiz-adv-x="676" 
d="M28 630v29q43 0 58.5 9t15.5 32h47v-350h-54v280h-67zM93 0l350 700h65l-350 -700h-65zM396 36q0 21 29.5 49t65 51.5t65 54.5t29.5 59q0 29 -19 47.5t-50 18.5q-32 0 -51.5 -19t-19.5 -51h-53q0 48 34.5 77t90.5 29q54 0 88 -27t34 -75q0 -35 -29 -70t-64 -57.5
t-64 -46.5t-29 -40h187v-36h-244v36z" />
    <glyph glyph-name="threequarters" unicode="&#xbe;" horiz-adv-x="725" 
d="M127 512v35h30q32 0 51 16t19 44q0 27 -18 43t-49 16q-32 0 -51 -18t-19 -48h-52q0 47 34.5 74.5t89.5 27.5t86.5 -24t31.5 -67q0 -58 -54 -79q69 -21 69 -89q0 -45 -34 -70t-95 -25q-57 0 -92.5 28t-35.5 75h52q0 -31 21 -49t55 -18t54.5 16.5t20.5 46.5t-19 47.5
t-52 17.5h-43zM183 0l350 700h65l-350 -700h-65zM607 0v69h-180v37l163 244h66v-244h33v-37h-33v-69h-49zM475 106h132v194z" />
    <glyph glyph-name="questiondown" unicode="&#xbf;" horiz-adv-x="568" 
d="M327 289v-18q0 -40 -13.5 -70.5t-33.5 -47t-43.5 -34l-43.5 -32t-33.5 -40t-13.5 -58.5q0 -60 38.5 -97t102.5 -37t105.5 40t41.5 105h81q0 -92 -64 -148t-166 -56q-100 0 -161.5 51.5t-61.5 141.5q0 43 13.5 74.5t33.5 48.5t44 34l44 30.5t33.5 38t13.5 56.5v18h83z
M327 500v-115h-83v115h83z" />
    <glyph glyph-name="Agrave" unicode="&#xc0;" horiz-adv-x="679" 
d="M29 0l262 700h98l261 -700h-87l-72 191h-303l-72 -191h-87zM340 626l-136 -375h272zM314 900l112 -134h-62l-131 134h81z" />
    <glyph glyph-name="Aacute" unicode="&#xc1;" horiz-adv-x="679" 
d="M29 0l262 700h98l261 -700h-87l-72 191h-303l-72 -191h-87zM340 626l-136 -375h272zM246 766l111 134h82l-132 -134h-61z" />
    <glyph glyph-name="Acircumflex" unicode="&#xc2;" horiz-adv-x="679" 
d="M29 0l262 700h98l261 -700h-87l-72 191h-303l-72 -191h-87zM340 626l-136 -375h272zM374 900l119 -134h-69l-85 99l-86 -99h-68l118 134h71z" />
    <glyph glyph-name="Atilde" unicode="&#xc3;" horiz-adv-x="679" 
d="M29 0l262 700h98l261 -700h-87l-72 191h-303l-72 -191h-87zM340 626l-136 -375h272zM183 785q0 43 25 68t64 25q35 0 68 -25.5t57 -25.5q21 0 34 12.5t13 33.5h51q0 -42 -26 -67.5t-63 -25.5q-35 0 -69 25.5t-56 25.5t-35 -12t-13 -34h-50z" />
    <glyph glyph-name="Adieresis" unicode="&#xc4;" horiz-adv-x="679" 
d="M29 0l262 700h98l261 -700h-87l-72 191h-303l-72 -191h-87zM340 626l-136 -375h272zM198 779v96h70v-96h-70zM411 779v96h71v-96h-71z" />
    <glyph glyph-name="Aring" unicode="&#xc5;" horiz-adv-x="679" 
d="M29 0l262 700h98l261 -700h-87l-72 191h-303l-72 -191h-87zM340 626l-136 -375h272zM244 834q0 44 26 68.5t69 24.5t69 -24.5t26 -68.5q0 -42 -26 -66.5t-69 -24.5t-69 24.5t-26 66.5zM286 834q0 -25 14.5 -39.5t38.5 -14.5t38 14.5t14 39.5q0 26 -14 40.5t-38 14.5
t-38.5 -14.5t-14.5 -40.5z" />
    <glyph glyph-name="AE" unicode="&#xc6;" horiz-adv-x="782" 
d="M346 0v191h-158l-72 -191h-87l260 700h444v-60h-306v-250h271v-60h-271v-270h311v-60h-392zM204 251h142v389h-5z" />
    <glyph glyph-name="Ccedilla" unicode="&#xc7;" horiz-adv-x="705" 
d="M373 643q-106 0 -169 -77t-63 -216t63 -216t169 -77q82 0 133 46t51 122h85q0 -99 -68.5 -161t-176.5 -67v-17q0 -21 10.5 -35t23 -20t23 -20t10.5 -36q0 -34 -23.5 -53.5t-61.5 -19.5q-42 0 -70 28v40q30 -28 62 -28q20 0 31.5 10t11.5 26q0 13 -10.5 23t-22.5 17
t-22.5 24.5t-10.5 43.5v17q-134 9 -214 102.5t-80 250.5q0 165 88 259.5t233 94.5q117 0 192 -62.5t75 -166.5h-85q0 76 -51 122t-133 46z" />
    <glyph glyph-name="Egrave" unicode="&#xc8;" horiz-adv-x="583" 
d="M82 0v700h452v-60h-366v-250h331v-60h-331v-270h371v-60h-457zM288 900l112 -134h-62l-131 134h81z" />
    <glyph glyph-name="Eacute" unicode="&#xc9;" horiz-adv-x="583" 
d="M82 0v700h452v-60h-366v-250h331v-60h-331v-270h371v-60h-457zM227 766l111 134h82l-132 -134h-61z" />
    <glyph glyph-name="Ecircumflex" unicode="&#xca;" horiz-adv-x="583" 
d="M82 0v700h452v-60h-366v-250h331v-60h-331v-270h371v-60h-457zM348 900l119 -134h-69l-85 99l-86 -99h-68l118 134h71z" />
    <glyph glyph-name="Edieresis" unicode="&#xcb;" horiz-adv-x="583" 
d="M82 0v700h452v-60h-366v-250h331v-60h-331v-270h371v-60h-457zM171 779v96h70v-96h-70zM384 779v96h71v-96h-71z" />
    <glyph glyph-name="Igrave" unicode="&#xcc;" horiz-adv-x="250" 
d="M82 0v700h86v-700h-86zM99 900l112 -134h-62l-131 134h81z" />
    <glyph glyph-name="Iacute" unicode="&#xcd;" horiz-adv-x="250" 
d="M82 0v700h86v-700h-86zM38 766l111 134h82l-132 -134h-61z" />
    <glyph glyph-name="Icircumflex" unicode="&#xce;" horiz-adv-x="250" 
d="M82 0v700h86v-700h-86zM160 900l119 -134h-69l-85 99l-86 -99h-68l118 134h71z" />
    <glyph glyph-name="Idieresis" unicode="&#xcf;" horiz-adv-x="250" 
d="M82 0v700h86v-700h-86zM-17 779v96h70v-96h-70zM196 779v96h71v-96h-71z" />
    <glyph glyph-name="Eth" unicode="&#xd0;" horiz-adv-x="727" 
d="M108 0v333h-80v55h80v312h252q141 0 226.5 -93.5t85.5 -256.5t-85.5 -256.5t-226.5 -93.5h-252zM195 60h158q107 0 169.5 76t62.5 214t-62.5 214t-169.5 76h-158v-252h170v-55h-170v-273z" />
    <glyph glyph-name="Ntilde" unicode="&#xd1;" horiz-adv-x="718" 
d="M164 566v-566h-82v700h83l388 -566v566h83v-700h-83zM203 785q0 43 25 68t64 25q35 0 68 -25.5t57 -25.5q21 0 34 12.5t13 33.5h51q0 -42 -26 -67.5t-63 -25.5q-35 0 -69 25.5t-56 25.5t-35 -12t-13 -34h-50z" />
    <glyph glyph-name="Ograve" unicode="&#xd2;" horiz-adv-x="745" 
d="M54 350q0 165 87.5 259.5t230.5 94.5q144 0 231.5 -94.5t87.5 -259.5t-87.5 -259.5t-231.5 -94.5q-143 0 -230.5 94.5t-87.5 259.5zM141 350q0 -139 63 -216t168 -77q107 0 169.5 77t62.5 216t-62.5 216t-169.5 77q-105 0 -168 -77t-63 -216zM347 900l112 -134h-62
l-131 134h81z" />
    <glyph glyph-name="Oacute" unicode="&#xd3;" horiz-adv-x="745" 
d="M54 350q0 165 87.5 259.5t230.5 94.5q144 0 231.5 -94.5t87.5 -259.5t-87.5 -259.5t-231.5 -94.5q-143 0 -230.5 94.5t-87.5 259.5zM141 350q0 -139 63 -216t168 -77q107 0 169.5 77t62.5 216t-62.5 216t-169.5 77q-105 0 -168 -77t-63 -216zM286 766l111 134h82
l-132 -134h-61z" />
    <glyph glyph-name="Ocircumflex" unicode="&#xd4;" horiz-adv-x="745" 
d="M54 350q0 165 87.5 259.5t230.5 94.5q144 0 231.5 -94.5t87.5 -259.5t-87.5 -259.5t-231.5 -94.5q-143 0 -230.5 94.5t-87.5 259.5zM141 350q0 -139 63 -216t168 -77q107 0 169.5 77t62.5 216t-62.5 216t-169.5 77q-105 0 -168 -77t-63 -216zM408 900l119 -134h-69
l-85 99l-86 -99h-68l118 134h71z" />
    <glyph glyph-name="Otilde" unicode="&#xd5;" horiz-adv-x="745" 
d="M54 350q0 165 87.5 259.5t230.5 94.5q144 0 231.5 -94.5t87.5 -259.5t-87.5 -259.5t-231.5 -94.5q-143 0 -230.5 94.5t-87.5 259.5zM141 350q0 -139 63 -216t168 -77q107 0 169.5 77t62.5 216t-62.5 216t-169.5 77q-105 0 -168 -77t-63 -216zM216 785q0 43 25 68t64 25
q35 0 68 -25.5t57 -25.5q21 0 34 12.5t13 33.5h51q0 -42 -26 -67.5t-63 -25.5q-35 0 -69 25.5t-56 25.5t-35 -12t-13 -34h-50z" />
    <glyph glyph-name="Odieresis" unicode="&#xd6;" horiz-adv-x="745" 
d="M54 350q0 165 87.5 259.5t230.5 94.5q144 0 231.5 -94.5t87.5 -259.5t-87.5 -259.5t-231.5 -94.5q-143 0 -230.5 94.5t-87.5 259.5zM141 350q0 -139 63 -216t168 -77q107 0 169.5 77t62.5 216t-62.5 216t-169.5 77q-105 0 -168 -77t-63 -216zM231 779v96h70v-96h-70z
M444 779v96h71v-96h-71z" />
    <glyph glyph-name="multiply" unicode="&#xd7;" horiz-adv-x="490" 
d="M81 425l37 37l127 -127l127 127l37 -37l-127 -127l127 -127l-37 -37l-127 127l-127 -127l-37 37l127 127z" />
    <glyph glyph-name="Oslash" unicode="&#xd8;" horiz-adv-x="745" 
d="M79 0l65 88q-90 96 -90 262q0 165 87.5 259.5t230.5 94.5q107 0 183 -53l36 49h73l-64 -87q91 -96 91 -263q0 -165 -87.5 -259.5t-231.5 -94.5q-107 0 -184 53l-36 -49h-73zM607 350q0 125 -51 202l-328 -449q58 -50 144 -50q108 0 171.5 78t63.5 219zM137 350
q0 -125 51 -201l328 448q-61 50 -144 50q-107 0 -171 -78.5t-64 -218.5z" />
    <glyph glyph-name="Ugrave" unicode="&#xd9;" horiz-adv-x="715" 
d="M548 238v462h87v-462q0 -109 -78 -175.5t-200 -66.5t-200 66.5t-78 175.5v462h87v-462q0 -82 53 -131.5t138 -49.5t138 49.5t53 131.5zM332 900l112 -134h-62l-131 134h81z" />
    <glyph glyph-name="Uacute" unicode="&#xda;" horiz-adv-x="715" 
d="M548 238v462h87v-462q0 -109 -78 -175.5t-200 -66.5t-200 66.5t-78 175.5v462h87v-462q0 -82 53 -131.5t138 -49.5t138 49.5t53 131.5zM271 766l111 134h82l-132 -134h-61z" />
    <glyph glyph-name="Ucircumflex" unicode="&#xdb;" horiz-adv-x="715" 
d="M548 238v462h87v-462q0 -109 -78 -175.5t-200 -66.5t-200 66.5t-78 175.5v462h87v-462q0 -82 53 -131.5t138 -49.5t138 49.5t53 131.5zM392 900l119 -134h-69l-85 99l-86 -99h-68l118 134h71z" />
    <glyph glyph-name="Udieresis" unicode="&#xdc;" horiz-adv-x="715" 
d="M548 238v462h87v-462q0 -109 -78 -175.5t-200 -66.5t-200 66.5t-78 175.5v462h87v-462q0 -82 53 -131.5t138 -49.5t138 49.5t53 131.5zM216 779v96h70v-96h-70zM429 779v96h71v-96h-71z" />
    <glyph glyph-name="Yacute" unicode="&#xdd;" horiz-adv-x="681" 
d="M297 0v275l-256 425h94l206 -351l206 351h95l-258 -425v-275h-87zM254 766l111 134h82l-132 -134h-61z" />
    <glyph glyph-name="Thorn" unicode="&#xde;" horiz-adv-x="594" 
d="M82 0v693h86v-140h152q99 0 159.5 -53t60.5 -147q0 -93 -60.5 -146.5t-159.5 -53.5h-152v-153h-86zM305 494h-137v-281h137q68 0 109 37.5t41 102.5q0 66 -41 103.5t-109 37.5z" />
    <glyph glyph-name="germandbls" unicode="&#xdf;" horiz-adv-x="639" 
d="M211 157h73q0 -48 31.5 -77t80.5 -29q48 0 76.5 22.5t28.5 63.5q0 31 -18 50t-45 26t-58.5 17t-58.5 21t-45 39.5t-18 72.5q0 34 15 64.5t32.5 49.5t32.5 47t15 58q0 43 -24 67.5t-73 24.5q-46 0 -73 -24.5t-27 -67.5v-582h-83v577q0 152 183 152q94 0 137 -40.5
t43 -108.5q0 -38 -15 -69t-32.5 -49t-32.5 -44t-15 -55q0 -35 25 -53.5t60.5 -27.5t71.5 -20t61 -42.5t25 -84.5q0 -65 -51 -102t-135 -37q-82 0 -134.5 44t-52.5 117z" />
    <glyph glyph-name="agrave" unicode="&#xe0;" horiz-adv-x="539" 
d="M386 0l-5 99q-53 -103 -171 -103q-71 0 -114.5 34.5t-43.5 95.5q0 81 77 125.5t216 44.5h36v39q0 53 -32.5 83.5t-87.5 30.5q-52 0 -86 -29t-34 -76h-81q0 73 56.5 116.5t144.5 43.5q91 0 147 -45.5t56 -123.5v-335h-78zM381 248h-36q-102 0 -156 -30t-54 -86
q0 -38 25.5 -59.5t67.5 -21.5q69 0 111 48.5t42 132.5v16zM243 700l112 -134h-62l-131 134h81z" />
    <glyph glyph-name="aacute" unicode="&#xe1;" horiz-adv-x="539" 
d="M386 0l-5 99q-53 -103 -171 -103q-71 0 -114.5 34.5t-43.5 95.5q0 81 77 125.5t216 44.5h36v39q0 53 -32.5 83.5t-87.5 30.5q-52 0 -86 -29t-34 -76h-81q0 73 56.5 116.5t144.5 43.5q91 0 147 -45.5t56 -123.5v-335h-78zM381 248h-36q-102 0 -156 -30t-54 -86
q0 -38 25.5 -59.5t67.5 -21.5q69 0 111 48.5t42 132.5v16zM169 566l111 134h82l-132 -134h-61z" />
    <glyph glyph-name="acircumflex" unicode="&#xe2;" horiz-adv-x="539" 
d="M386 0l-5 99q-53 -103 -171 -103q-71 0 -114.5 34.5t-43.5 95.5q0 81 77 125.5t216 44.5h36v39q0 53 -32.5 83.5t-87.5 30.5q-52 0 -86 -29t-34 -76h-81q0 73 56.5 116.5t144.5 43.5q91 0 147 -45.5t56 -123.5v-335h-78zM381 248h-36q-102 0 -156 -30t-54 -86
q0 -38 25.5 -59.5t67.5 -21.5q69 0 111 48.5t42 132.5v16zM297 700l119 -134h-69l-85 99l-86 -99h-68l118 134h71z" />
    <glyph glyph-name="atilde" unicode="&#xe3;" horiz-adv-x="539" 
d="M386 0l-5 99q-53 -103 -171 -103q-71 0 -114.5 34.5t-43.5 95.5q0 81 77 125.5t216 44.5h36v39q0 53 -32.5 83.5t-87.5 30.5q-52 0 -86 -29t-34 -76h-81q0 73 56.5 116.5t144.5 43.5q91 0 147 -45.5t56 -123.5v-335h-78zM381 248h-36q-102 0 -156 -30t-54 -86
q0 -38 25.5 -59.5t67.5 -21.5q69 0 111 48.5t42 132.5v16zM106 585q0 43 25 68t64 25q35 0 68 -25.5t57 -25.5q21 0 34 12.5t13 33.5h51q0 -42 -26 -67.5t-63 -25.5q-35 0 -69 25.5t-56 25.5t-35 -12t-13 -34h-50z" />
    <glyph glyph-name="adieresis" unicode="&#xe4;" horiz-adv-x="539" 
d="M386 0l-5 99q-53 -103 -171 -103q-71 0 -114.5 34.5t-43.5 95.5q0 81 77 125.5t216 44.5h36v39q0 53 -32.5 83.5t-87.5 30.5q-52 0 -86 -29t-34 -76h-81q0 73 56.5 116.5t144.5 43.5q91 0 147 -45.5t56 -123.5v-335h-78zM381 248h-36q-102 0 -156 -30t-54 -86
q0 -38 25.5 -59.5t67.5 -21.5q69 0 111 48.5t42 132.5v16zM121 579v96h70v-96h-70zM334 579v96h71v-96h-71z" />
    <glyph glyph-name="aring" unicode="&#xe5;" horiz-adv-x="539" 
d="M386 0l-5 99q-53 -103 -171 -103q-71 0 -114.5 34.5t-43.5 95.5q0 81 77 125.5t216 44.5h36v39q0 53 -32.5 83.5t-87.5 30.5q-52 0 -86 -29t-34 -76h-81q0 73 56.5 116.5t144.5 43.5q91 0 147 -45.5t56 -123.5v-335h-78zM381 248h-36q-102 0 -156 -30t-54 -86
q0 -38 25.5 -59.5t67.5 -21.5q69 0 111 48.5t42 132.5v16zM167 634q0 44 26 68.5t69 24.5t69 -24.5t26 -68.5q0 -42 -26 -66.5t-69 -24.5t-69 24.5t-26 66.5zM209 634q0 -25 14.5 -39.5t38.5 -14.5t38 14.5t14 39.5q0 26 -14 40.5t-38 14.5t-38.5 -14.5t-14.5 -40.5z" />
    <glyph glyph-name="ae" unicode="&#xe6;" horiz-adv-x="893" 
d="M620 504q100 0 159.5 -70t53.5 -204h-371q1 -84 44 -131.5t113 -47.5q57 0 94 29t37 76h80q0 -73 -58.5 -116.5t-151.5 -43.5q-71 0 -123.5 34t-76.5 97q-50 -131 -210 -131q-71 0 -114.5 34.5t-43.5 95.5q0 81 77 125.5t216 44.5h36v39q0 53 -32.5 83.5t-87.5 30.5
q-52 0 -86 -29t-34 -76h-81q0 73 56.5 116.5t144.5 43.5q64 0 109 -29t60 -80q54 109 190 109zM619 449q-69 0 -113 -45.5t-44 -123.5h289q0 79 -37 124t-95 45zM381 248h-36q-102 0 -156 -30t-54 -86q0 -38 25.5 -59.5t67.5 -21.5q69 0 111 48.5t42 132.5v16z" />
    <glyph glyph-name="ccedilla" unicode="&#xe7;" horiz-adv-x="556" 
d="M294 449q-72 0 -115.5 -52.5t-43.5 -146.5t43.5 -146.5t115.5 -52.5q53 0 87.5 31.5t34.5 83.5h81q0 -71 -49.5 -117t-128.5 -52v-17q0 -21 10.5 -35t23 -20t23 -20t10.5 -36q0 -34 -23.5 -53.5t-61.5 -19.5q-42 0 -70 28v40q30 -28 62 -28q20 0 31.5 10t11.5 26
q0 13 -10.5 23t-22.5 17t-22.5 24.5t-10.5 43.5v17q-100 8 -159 74.5t-59 178.5q0 118 66.5 186t176.5 68q88 0 145 -46.5t57 -123.5h-81q0 52 -34.5 83.5t-87.5 31.5z" />
    <glyph glyph-name="egrave" unicode="&#xe8;" horiz-adv-x="568" 
d="M295 504q100 0 159.5 -70t53.5 -204h-372q1 -84 44.5 -131.5t113.5 -47.5q57 0 94 29t37 76h80q0 -72 -59 -116t-151 -44q-110 0 -176.5 68t-66.5 186q0 119 66 186.5t177 67.5zM294 449q-69 0 -113 -45.5t-44 -123.5h289q0 79 -37 124t-95 45zM275 700l112 -134h-62
l-131 134h81z" />
    <glyph glyph-name="eacute" unicode="&#xe9;" horiz-adv-x="568" 
d="M295 504q100 0 159.5 -70t53.5 -204h-372q1 -84 44.5 -131.5t113.5 -47.5q57 0 94 29t37 76h80q0 -72 -59 -116t-151 -44q-110 0 -176.5 68t-66.5 186q0 119 66 186.5t177 67.5zM294 449q-69 0 -113 -45.5t-44 -123.5h289q0 79 -37 124t-95 45zM201 566l111 134h82
l-132 -134h-61z" />
    <glyph glyph-name="ecircumflex" unicode="&#xea;" horiz-adv-x="568" 
d="M295 504q100 0 159.5 -70t53.5 -204h-372q1 -84 44.5 -131.5t113.5 -47.5q57 0 94 29t37 76h80q0 -72 -59 -116t-151 -44q-110 0 -176.5 68t-66.5 186q0 119 66 186.5t177 67.5zM294 449q-69 0 -113 -45.5t-44 -123.5h289q0 79 -37 124t-95 45zM329 700l119 -134h-69
l-85 99l-86 -99h-68l118 134h71z" />
    <glyph glyph-name="edieresis" unicode="&#xeb;" horiz-adv-x="568" 
d="M295 504q100 0 159.5 -70t53.5 -204h-372q1 -84 44.5 -131.5t113.5 -47.5q57 0 94 29t37 76h80q0 -72 -59 -116t-151 -44q-110 0 -176.5 68t-66.5 186q0 119 66 186.5t177 67.5zM294 449q-69 0 -113 -45.5t-44 -123.5h289q0 79 -37 124t-95 45zM152 579v96h70v-96h-70z
M365 579v96h71v-96h-71z" />
    <glyph glyph-name="igrave" unicode="&#xec;" horiz-adv-x="230" 
d="M84 700l112 -134h-62l-131 134h81zM73 0v500h83v-500h-83z" />
    <glyph glyph-name="iacute" unicode="&#xed;" horiz-adv-x="230" 
d="M35 566l111 134h82l-132 -134h-61zM73 0v500h83v-500h-83z" />
    <glyph glyph-name="icircumflex" unicode="&#xee;" horiz-adv-x="230" 
d="M73 0v500h83v-500h-83zM150 700l119 -134h-69l-85 99l-86 -99h-68l118 134h71z" />
    <glyph glyph-name="idieresis" unicode="&#xef;" horiz-adv-x="230" 
d="M-27 579v96h70v-96h-70zM186 579v96h71v-96h-71zM73 0v500h83v-500h-83z" />
    <glyph glyph-name="eth" unicode="&#xf0;" horiz-adv-x="576" 
d="M299 591l54 41q-29 22 -69.5 34t-70.5 14t-77 2v47q96 0 161 -12.5t110 -49.5l83 61v-44l-53 -40q87 -96 87 -339q0 -160 -62.5 -234.5t-172.5 -74.5q-106 0 -170.5 68t-64.5 186t60.5 186t160.5 68q114 0 170 -91q-6 132 -62 195l-84 -61v44zM441 250q0 94 -41.5 146.5
t-110.5 52.5t-110.5 -52.5t-41.5 -146.5t41.5 -146.5t110.5 -52.5t110.5 52.5t41.5 146.5z" />
    <glyph glyph-name="ntilde" unicode="&#xf1;" horiz-adv-x="581" 
d="M156 250v-250h-83v500h78l5 -98q51 102 167 102q83 0 134 -48t51 -132v-324h-83v324q0 58 -33.5 91.5t-88.5 33.5q-67 0 -107 -52.5t-40 -146.5zM134 585q0 43 25 68t64 25q35 0 68 -25.5t57 -25.5q21 0 34 12.5t13 33.5h51q0 -42 -26 -67.5t-63 -25.5q-35 0 -69 25.5
t-56 25.5t-35 -12t-13 -34h-50z" />
    <glyph glyph-name="ograve" unicode="&#xf2;" 
d="M52 250q0 118 66.5 186t176.5 68q109 0 175.5 -68t66.5 -186t-66.5 -186t-175.5 -68q-110 0 -176.5 68t-66.5 186zM135 250q0 -94 43.5 -146.5t116.5 -52.5q72 0 115.5 52.5t43.5 146.5t-43.5 146.5t-115.5 52.5q-73 0 -116.5 -52.5t-43.5 -146.5zM269 700l112 -134h-62
l-131 134h81z" />
    <glyph glyph-name="oacute" unicode="&#xf3;" 
d="M52 250q0 118 66.5 186t176.5 68q109 0 175.5 -68t66.5 -186t-66.5 -186t-175.5 -68q-110 0 -176.5 68t-66.5 186zM135 250q0 -94 43.5 -146.5t116.5 -52.5q72 0 115.5 52.5t43.5 146.5t-43.5 146.5t-115.5 52.5q-73 0 -116.5 -52.5t-43.5 -146.5zM201 566l111 134h82
l-132 -134h-61z" />
    <glyph glyph-name="ocircumflex" unicode="&#xf4;" 
d="M52 250q0 118 66.5 186t176.5 68q109 0 175.5 -68t66.5 -186t-66.5 -186t-175.5 -68q-110 0 -176.5 68t-66.5 186zM135 250q0 -94 43.5 -146.5t116.5 -52.5q72 0 115.5 52.5t43.5 146.5t-43.5 146.5t-115.5 52.5q-73 0 -116.5 -52.5t-43.5 -146.5zM330 700l119 -134h-69
l-85 99l-86 -99h-68l118 134h71z" />
    <glyph glyph-name="otilde" unicode="&#xf5;" 
d="M52 250q0 118 66.5 186t176.5 68q109 0 175.5 -68t66.5 -186t-66.5 -186t-175.5 -68q-110 0 -176.5 68t-66.5 186zM135 250q0 -94 43.5 -146.5t116.5 -52.5q72 0 115.5 52.5t43.5 146.5t-43.5 146.5t-115.5 52.5q-73 0 -116.5 -52.5t-43.5 -146.5zM139 585q0 43 25 68
t64 25q35 0 68 -25.5t57 -25.5q21 0 34 12.5t13 33.5h51q0 -42 -26 -67.5t-63 -25.5q-35 0 -69 25.5t-56 25.5t-35 -12t-13 -34h-50z" />
    <glyph glyph-name="odieresis" unicode="&#xf6;" 
d="M52 250q0 118 66.5 186t176.5 68q109 0 175.5 -68t66.5 -186t-66.5 -186t-175.5 -68q-110 0 -176.5 68t-66.5 186zM135 250q0 -94 43.5 -146.5t116.5 -52.5q72 0 115.5 52.5t43.5 146.5t-43.5 146.5t-115.5 52.5q-73 0 -116.5 -52.5t-43.5 -146.5zM153 579v96h70v-96h-70
zM366 579v96h71v-96h-71z" />
    <glyph glyph-name="divide" unicode="&#xf7;" horiz-adv-x="486" 
d="M57 262v52h372v-52h-372zM205 78v95h76v-95h-76zM205 405v95h76v-95h-76z" />
    <glyph glyph-name="oslash" unicode="&#xf8;" 
d="M67 0l50 65q-65 68 -65 185q0 118 66.5 186t176.5 68q77 0 136 -37l26 33h64l-50 -65q66 -69 66 -185q0 -118 -66.5 -186t-175.5 -68q-81 0 -138 36l-25 -32h-65zM458 250q0 78 -31 129l-232 -298q41 -33 100 -33q74 0 118.5 53.5t44.5 148.5zM131 250q0 -77 30 -129
l232 297q-40 34 -98 34q-75 0 -119.5 -53.5t-44.5 -148.5z" />
    <glyph glyph-name="ugrave" unicode="&#xf9;" horiz-adv-x="581" 
d="M425 250v250h83v-500h-78l-5 99q-25 -49 -68.5 -76t-99.5 -27q-82 0 -133 47.5t-51 129.5v327h83v-327q0 -57 33 -89.5t88 -32.5q67 0 107.5 52.5t40.5 146.5zM265 700l112 -134h-62l-131 134h81z" />
    <glyph glyph-name="uacute" unicode="&#xfa;" horiz-adv-x="581" 
d="M425 250v250h83v-500h-78l-5 99q-25 -49 -68.5 -76t-99.5 -27q-82 0 -133 47.5t-51 129.5v327h83v-327q0 -57 33 -89.5t88 -32.5q67 0 107.5 52.5t40.5 146.5zM204 566l111 134h82l-132 -134h-61z" />
    <glyph glyph-name="ucircumflex" unicode="&#xfb;" horiz-adv-x="581" 
d="M425 250v250h83v-500h-78l-5 99q-25 -49 -68.5 -76t-99.5 -27q-82 0 -133 47.5t-51 129.5v327h83v-327q0 -57 33 -89.5t88 -32.5q67 0 107.5 52.5t40.5 146.5zM326 700l119 -134h-69l-85 99l-86 -99h-68l118 134h71z" />
    <glyph glyph-name="udieresis" unicode="&#xfc;" horiz-adv-x="581" 
d="M425 250v250h83v-500h-78l-5 99q-25 -49 -68.5 -76t-99.5 -27q-82 0 -133 47.5t-51 129.5v327h83v-327q0 -57 33 -89.5t88 -32.5q67 0 107.5 52.5t40.5 146.5zM149 579v96h70v-96h-70zM362 579v96h71v-96h-71z" />
    <glyph glyph-name="yacute" unicode="&#xfd;" horiz-adv-x="537" 
d="M513 500l-232 -580q-53 -139 -224 -139v55q50 0 89.5 22.5t55.5 61.5l35 80h-15l-198 500h85l159 -425l160 425h85zM182 566l111 134h82l-132 -134h-61z" />
    <glyph glyph-name="thorn" unicode="&#xfe;" horiz-adv-x="596" 
d="M73 -215v940h83v-323q51 102 165 102q100 0 161.5 -68t61.5 -186t-61.5 -186t-161.5 -68q-114 0 -165 96v-307h-83zM156 250q0 -94 40.5 -146.5t107.5 -52.5q71 0 114 52.5t43 146.5t-43 146.5t-114 52.5q-67 0 -107.5 -52.5t-40.5 -146.5z" />
    <glyph glyph-name="ydieresis" unicode="&#xff;" horiz-adv-x="537" 
d="M513 500l-232 -580q-53 -139 -224 -139v55q50 0 89.5 22.5t55.5 61.5l35 80h-15l-198 500h85l159 -425l160 425h85zM127 579v96h70v-96h-70zM340 579v96h71v-96h-71z" />
    <glyph glyph-name="Amacron" unicode="&#x100;" horiz-adv-x="679" 
d="M29 0l262 700h98l261 -700h-87l-72 191h-303l-72 -191h-87zM340 626l-136 -375h272zM207 798v53h266v-53h-266z" />
    <glyph glyph-name="amacron" unicode="&#x101;" horiz-adv-x="539" 
d="M386 0l-5 99q-53 -103 -171 -103q-71 0 -114.5 34.5t-43.5 95.5q0 81 77 125.5t216 44.5h36v39q0 53 -32.5 83.5t-87.5 30.5q-52 0 -86 -29t-34 -76h-81q0 73 56.5 116.5t144.5 43.5q91 0 147 -45.5t56 -123.5v-335h-78zM381 248h-36q-102 0 -156 -30t-54 -86
q0 -38 25.5 -59.5t67.5 -21.5q69 0 111 48.5t42 132.5v16zM130 598v53h266v-53h-266z" />
    <glyph glyph-name="Abreve" unicode="&#x102;" horiz-adv-x="679" 
d="M29 0l262 700h98l261 -700h-87l-72 191h-303l-72 -191h-87zM340 626l-136 -375h272zM185 881h60q0 -36 26.5 -58t67.5 -22t67.5 22t26.5 58h61q0 -58 -43 -92t-112 -34q-68 0 -111 34t-43 92z" />
    <glyph glyph-name="abreve" unicode="&#x103;" horiz-adv-x="539" 
d="M386 0l-5 99q-53 -103 -171 -103q-71 0 -114.5 34.5t-43.5 95.5q0 81 77 125.5t216 44.5h36v39q0 53 -32.5 83.5t-87.5 30.5q-52 0 -86 -29t-34 -76h-81q0 73 56.5 116.5t144.5 43.5q91 0 147 -45.5t56 -123.5v-335h-78zM381 248h-36q-102 0 -156 -30t-54 -86
q0 -38 25.5 -59.5t67.5 -21.5q69 0 111 48.5t42 132.5v16zM107 681h60q0 -36 26.5 -58t67.5 -22t67.5 22t26.5 58h61q0 -58 -43 -92t-112 -34q-68 0 -111 34t-43 92z" />
    <glyph glyph-name="Aogonek" unicode="&#x104;" horiz-adv-x="679" 
d="M593 0h-30l-72 191h-303l-72 -191h-87l262 700h98l261 -700h-7q-7 -7 -18 -19t-29.5 -44.5t-18.5 -58.5q0 -42 49 -42q34 0 66 30v-42q-31 -28 -75 -28q-40 0 -65 20.5t-25 57.5q0 31 16.5 62.5t32.5 47.5zM340 626l-136 -375h272z" />
    <glyph glyph-name="aogonek" unicode="&#x105;" horiz-adv-x="539" 
d="M386 0l-5 99q-53 -103 -171 -103q-71 0 -114.5 34.5t-43.5 95.5q0 81 77 125.5t216 44.5h36v39q0 53 -32.5 83.5t-87.5 30.5q-52 0 -86 -29t-34 -76h-81q0 73 56.5 116.5t144.5 43.5q91 0 147 -45.5t56 -123.5v-335h-7q-7 -7 -18 -19t-29.5 -44.5t-18.5 -58.5
q0 -42 49 -42q34 0 66 30v-42q-32 -28 -75 -28q-40 0 -65 20.5t-25 57.5q0 31 16.5 62.5t32.5 47.5l17 16h-21zM381 248h-36q-102 0 -156 -30t-54 -86q0 -38 25.5 -59.5t67.5 -21.5q69 0 111 48.5t42 132.5v16z" />
    <glyph glyph-name="Cacute" unicode="&#x106;" horiz-adv-x="705" 
d="M373 643q-106 0 -169 -77t-63 -216t63 -216t169 -77q82 0 133 46t51 122h85q0 -104 -75 -166.5t-192 -62.5q-145 0 -233 94.5t-88 259.5t88 259.5t233 94.5q117 0 192 -62.5t75 -166.5h-85q0 76 -51 122t-133 46zM282 766l111 134h82l-132 -134h-61z" />
    <glyph glyph-name="cacute" unicode="&#x107;" horiz-adv-x="556" 
d="M294 449q-72 0 -115.5 -52.5t-43.5 -146.5t43.5 -146.5t115.5 -52.5q53 0 87.5 31.5t34.5 83.5h81q0 -77 -57 -123.5t-145 -46.5q-110 0 -176.5 68t-66.5 186t66.5 186t176.5 68q88 0 145 -46.5t57 -123.5h-81q0 52 -34.5 83.5t-87.5 31.5zM197 566l111 134h82l-132 -134
h-61z" />
    <glyph glyph-name="Ccircumflex" unicode="&#x108;" horiz-adv-x="705" 
d="M373 643q-106 0 -169 -77t-63 -216t63 -216t169 -77q82 0 133 46t51 122h85q0 -104 -75 -166.5t-192 -62.5q-145 0 -233 94.5t-88 259.5t88 259.5t233 94.5q117 0 192 -62.5t75 -166.5h-85q0 76 -51 122t-133 46zM404 900l119 -134h-69l-85 99l-86 -99h-68l118 134h71z
" />
    <glyph glyph-name="ccircumflex" unicode="&#x109;" horiz-adv-x="556" 
d="M294 449q-72 0 -115.5 -52.5t-43.5 -146.5t43.5 -146.5t115.5 -52.5q53 0 87.5 31.5t34.5 83.5h81q0 -77 -57 -123.5t-145 -46.5q-110 0 -176.5 68t-66.5 186t66.5 186t176.5 68q88 0 145 -46.5t57 -123.5h-81q0 52 -34.5 83.5t-87.5 31.5zM324 700l119 -134h-69l-85 99
l-86 -99h-68l118 134h71z" />
    <glyph glyph-name="Cdotaccent" unicode="&#x10a;" horiz-adv-x="705" 
d="M373 643q-106 0 -169 -77t-63 -216t63 -216t169 -77q82 0 133 46t51 122h85q0 -104 -75 -166.5t-192 -62.5q-145 0 -233 94.5t-88 259.5t88 259.5t233 94.5q117 0 192 -62.5t75 -166.5h-85q0 76 -51 122t-133 46zM327 792v108h83v-108h-83z" />
    <glyph glyph-name="cdotaccent" unicode="&#x10b;" horiz-adv-x="556" 
d="M294 449q-72 0 -115.5 -52.5t-43.5 -146.5t43.5 -146.5t115.5 -52.5q53 0 87.5 31.5t34.5 83.5h81q0 -77 -57 -123.5t-145 -46.5q-110 0 -176.5 68t-66.5 186t66.5 186t176.5 68q88 0 145 -46.5t57 -123.5h-81q0 52 -34.5 83.5t-87.5 31.5zM247 592v108h83v-108h-83z" />
    <glyph glyph-name="Ccaron" unicode="&#x10c;" horiz-adv-x="705" 
d="M373 643q-106 0 -169 -77t-63 -216t63 -216t169 -77q82 0 133 46t51 122h85q0 -104 -75 -166.5t-192 -62.5q-145 0 -233 94.5t-88 259.5t88 259.5t233 94.5q117 0 192 -62.5t75 -166.5h-85q0 76 -51 122t-133 46zM333 766l-118 134h68l86 -99l85 99h69l-119 -134h-71z
" />
    <glyph glyph-name="ccaron" unicode="&#x10d;" horiz-adv-x="556" 
d="M294 449q-72 0 -115.5 -52.5t-43.5 -146.5t43.5 -146.5t115.5 -52.5q53 0 87.5 31.5t34.5 83.5h81q0 -77 -57 -123.5t-145 -46.5q-110 0 -176.5 68t-66.5 186t66.5 186t176.5 68q88 0 145 -46.5t57 -123.5h-81q0 52 -34.5 83.5t-87.5 31.5zM253 566l-118 134h68l86 -99
l85 99h69l-119 -134h-71z" />
    <glyph glyph-name="Dcaron" unicode="&#x10e;" horiz-adv-x="684" 
d="M66 0v700h252q141 0 226.5 -93.5t85.5 -256.5t-85.5 -256.5t-226.5 -93.5h-252zM153 60h158q107 0 169.5 76t62.5 214t-62.5 214t-169.5 76h-158v-580zM280 766l-118 134h68l86 -99l85 99h69l-119 -134h-71z" />
    <glyph glyph-name="dcaron" unicode="&#x10f;" horiz-adv-x="690" 
d="M522 725v-725h-77l-6 98q-49 -102 -164 -102q-101 0 -162 68t-61 186t61 186t162 68q114 0 164 -96v317h83zM439 250q0 94 -40 146.5t-107 52.5q-72 0 -114.5 -52.5t-42.5 -146.5t42.5 -146.5t114.5 -52.5q67 0 107 52.5t40 146.5zM612 652v73h68v-73q0 -44 -19 -72
t-50 -28v33q14 0 22.5 19t8.5 48h-30z" />
    <glyph glyph-name="Dcroat" unicode="&#x110;" horiz-adv-x="727" 
d="M108 0v333h-80v55h80v312h252q141 0 226.5 -93.5t85.5 -256.5t-85.5 -256.5t-226.5 -93.5h-252zM195 60h158q107 0 169.5 76t62.5 214t-62.5 214t-169.5 76h-158v-252h170v-55h-170v-273z" />
    <glyph glyph-name="dcroat" unicode="&#x111;" horiz-adv-x="631" 
d="M603 641v-54h-81v-587h-77l-6 98q-49 -102 -164 -102q-101 0 -162 68t-61 186t61 186t162 68q114 0 164 -96v179h-166v54h166v84h83v-84h81zM439 250q0 94 -40 146.5t-107 52.5q-72 0 -114.5 -52.5t-42.5 -146.5t42.5 -146.5t114.5 -52.5q67 0 107 52.5t40 146.5z" />
    <glyph glyph-name="Emacron" unicode="&#x112;" horiz-adv-x="583" 
d="M82 0v700h452v-60h-366v-250h331v-60h-331v-270h371v-60h-457zM180 798v53h266v-53h-266z" />
    <glyph glyph-name="emacron" unicode="&#x113;" horiz-adv-x="568" 
d="M295 504q100 0 159.5 -70t53.5 -204h-372q1 -84 44.5 -131.5t113.5 -47.5q57 0 94 29t37 76h80q0 -72 -59 -116t-151 -44q-110 0 -176.5 68t-66.5 186q0 119 66 186.5t177 67.5zM294 449q-69 0 -113 -45.5t-44 -123.5h289q0 79 -37 124t-95 45zM161 598v53h266v-53h-266z
" />
    <glyph glyph-name="Ebreve" unicode="&#x114;" horiz-adv-x="583" 
d="M82 0v700h452v-60h-366v-250h331v-60h-331v-270h371v-60h-457zM159 881h60q0 -36 26.5 -58t67.5 -22t67.5 22t26.5 58h61q0 -58 -43 -92t-112 -34q-68 0 -111 34t-43 92z" />
    <glyph glyph-name="ebreve" unicode="&#x115;" horiz-adv-x="568" 
d="M295 504q100 0 159.5 -70t53.5 -204h-372q1 -84 44.5 -131.5t113.5 -47.5q57 0 94 29t37 76h80q0 -72 -59 -116t-151 -44q-110 0 -176.5 68t-66.5 186q0 119 66 186.5t177 67.5zM294 449q-69 0 -113 -45.5t-44 -123.5h289q0 79 -37 124t-95 45zM140 681h60
q0 -36 26.5 -58t67.5 -22t67.5 22t26.5 58h61q0 -58 -43 -92t-112 -34q-68 0 -111 34t-43 92z" />
    <glyph glyph-name="Edotaccent" unicode="&#x116;" horiz-adv-x="583" 
d="M82 0v700h452v-60h-366v-250h331v-60h-331v-270h371v-60h-457zM271 792v108h83v-108h-83z" />
    <glyph glyph-name="edotaccent" unicode="&#x117;" horiz-adv-x="568" 
d="M295 504q100 0 159.5 -70t53.5 -204h-372q1 -84 44.5 -131.5t113.5 -47.5q57 0 94 29t37 76h80q0 -72 -59 -116t-151 -44q-110 0 -176.5 68t-66.5 186q0 119 66 186.5t177 67.5zM294 449q-69 0 -113 -45.5t-44 -123.5h289q0 79 -37 124t-95 45zM252 592v108h83v-108h-83z
" />
    <glyph glyph-name="Eogonek" unicode="&#x118;" horiz-adv-x="583" 
d="M82 0v700h452v-60h-366v-250h331v-60h-331v-270h371v-60h-49q-7 -7 -18 -19t-29.5 -44.5t-18.5 -58.5q0 -42 49 -42q34 0 66 30v-42q-32 -28 -75 -28q-40 0 -65 20.5t-25 57.5q0 31 16.5 62.5t33.5 47.5l16 16h-358z" />
    <glyph glyph-name="eogonek" unicode="&#x119;" horiz-adv-x="568" 
d="M295 504q100 0 159.5 -70t53.5 -204h-372q1 -84 44.5 -131.5t113.5 -47.5q57 0 94 29t37 76h80q0 -50 -28.5 -87t-79.5 -56q-64 -64 -64 -120q0 -42 49 -42q34 0 66 30v-42q-32 -28 -75 -28q-40 0 -65 20.5t-25 57.5q0 55 49 109q-24 -2 -37 -2q-110 0 -176.5 68
t-66.5 186q0 119 66 186.5t177 67.5zM294 449q-69 0 -113 -45.5t-44 -123.5h289q0 79 -37 124t-95 45z" />
    <glyph glyph-name="Ecaron" unicode="&#x11a;" horiz-adv-x="583" 
d="M82 0v700h452v-60h-366v-250h331v-60h-331v-270h371v-60h-457zM277 766l-118 134h68l86 -99l85 99h69l-119 -134h-71z" />
    <glyph glyph-name="ecaron" unicode="&#x11b;" horiz-adv-x="568" 
d="M295 504q100 0 159.5 -70t53.5 -204h-372q1 -84 44.5 -131.5t113.5 -47.5q57 0 94 29t37 76h80q0 -72 -59 -116t-151 -44q-110 0 -176.5 68t-66.5 186q0 119 66 186.5t177 67.5zM294 449q-69 0 -113 -45.5t-44 -123.5h289q0 79 -37 124t-95 45zM258 566l-118 134h68
l86 -99l85 99h69l-119 -134h-71z" />
    <glyph glyph-name="Gcircumflex" unicode="&#x11c;" horiz-adv-x="705" 
d="M395 306v60h247v-366h-71l-5 96q-28 -48 -78 -74t-113 -26q-145 0 -233 94.5t-88 259.5t88 259.5t233 94.5q117 0 192 -61.5t75 -164.5h-85q0 76 -51 120.5t-133 44.5q-106 0 -169 -77t-63 -216t63 -216t170 -77q88 0 140 50.5t52 140.5v58h-171zM407 900l119 -134h-69
l-85 99l-86 -99h-68l118 134h71z" />
    <glyph glyph-name="gcircumflex" unicode="&#x11d;" horiz-adv-x="596" 
d="M293 -164q66 0 106 42.5t40 116.5v97q-50 -96 -164 -96q-101 0 -162 68t-61 186t61 186t162 68q115 0 164 -99l6 95h77v-505q0 -99 -63 -156.5t-166 -57.5q-98 0 -160.5 45.5t-62.5 120.5h79q0 -50 40.5 -80.5t103.5 -30.5zM439 250q0 94 -40 146.5t-107 52.5
q-72 0 -114.5 -52.5t-42.5 -146.5t42.5 -146.5t114.5 -52.5q67 0 107 52.5t40 146.5zM333 700l119 -134h-69l-85 99l-86 -99h-68l118 134h71z" />
    <glyph glyph-name="Gbreve" unicode="&#x11e;" horiz-adv-x="705" 
d="M395 306v60h247v-366h-71l-5 96q-28 -48 -78 -74t-113 -26q-145 0 -233 94.5t-88 259.5t88 259.5t233 94.5q117 0 192 -61.5t75 -164.5h-85q0 76 -51 120.5t-133 44.5q-106 0 -169 -77t-63 -216t63 -216t170 -77q88 0 140 50.5t52 140.5v58h-171zM218 881h60
q0 -36 26.5 -58t67.5 -22t67.5 22t26.5 58h61q0 -58 -43 -92t-112 -34q-68 0 -111 34t-43 92z" />
    <glyph glyph-name="gbreve" unicode="&#x11f;" horiz-adv-x="596" 
d="M293 -164q66 0 106 42.5t40 116.5v97q-50 -96 -164 -96q-101 0 -162 68t-61 186t61 186t162 68q115 0 164 -99l6 95h77v-505q0 -99 -63 -156.5t-166 -57.5q-98 0 -160.5 45.5t-62.5 120.5h79q0 -50 40.5 -80.5t103.5 -30.5zM439 250q0 94 -40 146.5t-107 52.5
q-72 0 -114.5 -52.5t-42.5 -146.5t42.5 -146.5t114.5 -52.5q67 0 107 52.5t40 146.5zM139 681h60q0 -36 26.5 -58t67.5 -22t67.5 22t26.5 58h61q0 -58 -43 -92t-112 -34q-68 0 -111 34t-43 92z" />
    <glyph glyph-name="Gdotaccent" unicode="&#x120;" horiz-adv-x="705" 
d="M395 306v60h247v-366h-71l-5 96q-28 -48 -78 -74t-113 -26q-145 0 -233 94.5t-88 259.5t88 259.5t233 94.5q117 0 192 -61.5t75 -164.5h-85q0 76 -51 120.5t-133 44.5q-106 0 -169 -77t-63 -216t63 -216t170 -77q88 0 140 50.5t52 140.5v58h-171zM330 792v108h83v-108
h-83z" />
    <glyph glyph-name="gdotaccent" unicode="&#x121;" horiz-adv-x="596" 
d="M293 -164q66 0 106 42.5t40 116.5v97q-50 -96 -164 -96q-101 0 -162 68t-61 186t61 186t162 68q115 0 164 -99l6 95h77v-505q0 -99 -63 -156.5t-166 -57.5q-98 0 -160.5 45.5t-62.5 120.5h79q0 -50 40.5 -80.5t103.5 -30.5zM439 250q0 94 -40 146.5t-107 52.5
q-72 0 -114.5 -52.5t-42.5 -146.5t42.5 -146.5t114.5 -52.5q67 0 107 52.5t40 146.5zM253 592v108h83v-108h-83z" />
    <glyph glyph-name="Gcommaaccent" unicode="&#x122;" horiz-adv-x="705" 
d="M395 306v60h247v-366h-71l-5 96q-28 -48 -78 -74t-113 -26q-145 0 -233 94.5t-88 259.5t88 259.5t233 94.5q117 0 192 -61.5t75 -164.5h-85q0 76 -51 120.5t-133 44.5q-106 0 -169 -77t-63 -216t63 -216t170 -77q88 0 140 50.5t52 140.5v58h-171zM338 -123v73h68v-73
q0 -44 -19 -72t-50 -28v33q14 0 22.5 19t8.5 48h-30z" />
    <glyph glyph-name="gcommaaccent" unicode="&#x123;" horiz-adv-x="596" 
d="M329 643v-73h-67v73q0 43 19 71t50 28v-32q-14 0 -23 -19.5t-9 -47.5h30zM293 -164q66 0 106 42.5t40 116.5v97q-50 -96 -164 -96q-101 0 -162 68t-61 186t61 186t162 68q115 0 164 -99l6 95h77v-505q0 -99 -63 -156.5t-166 -57.5q-98 0 -160.5 45.5t-62.5 120.5h79
q0 -50 40.5 -80.5t103.5 -30.5zM439 250q0 94 -40 146.5t-107 52.5q-72 0 -114.5 -52.5t-42.5 -146.5t42.5 -146.5t114.5 -52.5q67 0 107 52.5t40 146.5z" />
    <glyph glyph-name="Hcircumflex" unicode="&#x124;" horiz-adv-x="701" 
d="M533 0v330h-365v-330h-86v700h86v-310h365v310h87v-700h-87zM386 900l119 -134h-69l-85 99l-86 -99h-68l118 134h71z" />
    <glyph glyph-name="hcircumflex" unicode="&#x125;" horiz-adv-x="578" 
d="M156 250v-250h-83v725h83v-320q51 99 167 99q83 0 134 -48t51 -132v-324h-83v324q0 58 -33.5 91.5t-88.5 33.5q-67 0 -107 -52.5t-40 -146.5zM328 884l119 -134h-69l-85 99l-86 -99h-68l118 134h71z" />
    <glyph glyph-name="Hbar" unicode="&#x126;" horiz-adv-x="721" 
d="M34 529v56h66v115h86v-115h349v115h86v-115h66v-56h-66v-529h-86v330h-349v-330h-86v529h-66zM186 390h349v139h-349v-139z" />
    <glyph glyph-name="hbar" unicode="&#x127;" horiz-adv-x="613" 
d="M28 587v54h80v84h83v-84h167v-54h-167v-182q51 99 167 99q83 0 134 -48t51 -132v-324h-83v324q0 58 -33.5 91.5t-88.5 33.5q-67 0 -107 -52.5t-40 -146.5v-250h-83v587h-80z" />
    <glyph glyph-name="Itilde" unicode="&#x128;" horiz-adv-x="250" 
d="M82 0v700h86v-700h-86zM-31 785q0 43 25 68t64 25q35 0 68 -25.5t57 -25.5q21 0 34 12.5t13 33.5h51q0 -42 -26 -67.5t-63 -25.5q-35 0 -69 25.5t-56 25.5t-35 -12t-13 -34h-50z" />
    <glyph glyph-name="itilde" unicode="&#x129;" horiz-adv-x="230" 
d="M-40 585q0 43 25 68t64 25q35 0 68 -25.5t57 -25.5q21 0 34 12.5t13 33.5h51q0 -42 -26 -67.5t-63 -25.5q-35 0 -69 25.5t-56 25.5t-35 -12t-13 -34h-50zM73 0v500h83v-500h-83z" />
    <glyph glyph-name="Imacron" unicode="&#x12a;" horiz-adv-x="250" 
d="M82 0v700h86v-700h-86zM-8 798v53h266v-53h-266z" />
    <glyph glyph-name="imacron" unicode="&#x12b;" horiz-adv-x="230" 
d="M-18 598v53h266v-53h-266zM73 0v500h83v-500h-83z" />
    <glyph glyph-name="Ibreve" unicode="&#x12c;" horiz-adv-x="250" 
d="M82 0v700h86v-700h-86zM-29 881h60q0 -36 26.5 -58t67.5 -22t67.5 22t26.5 58h61q0 -58 -43 -92t-112 -34q-68 0 -111 34t-43 92z" />
    <glyph glyph-name="ibreve" unicode="&#x12d;" horiz-adv-x="230" 
d="M-39 681h60q0 -36 26.5 -58t67.5 -22t67.5 22t26.5 58h61q0 -58 -43 -92t-112 -34q-68 0 -111 34t-43 92zM73 0v500h83v-500h-83z" />
    <glyph glyph-name="Iogonek" unicode="&#x12e;" horiz-adv-x="250" 
d="M82 0v700h86v-700h-7q-7 -7 -18 -19t-29.5 -44.5t-18.5 -58.5q0 -42 49 -42q34 0 66 30v-42q-31 -28 -75 -28q-40 0 -65 20.5t-25 57.5q0 31 16.5 62.5t32.5 47.5l17 16h-29z" />
    <glyph glyph-name="iogonek" unicode="&#x12f;" horiz-adv-x="230" 
d="M73 0v500h83v-500h-7q-7 -7 -18 -19t-29.5 -44.5t-18.5 -58.5q0 -42 49 -42q34 0 66 30v-42q-32 -28 -75 -28q-40 0 -65 20.5t-25 57.5q0 31 16.5 62.5t32.5 47.5l17 16h-26zM73 592v108h83v-108h-83z" />
    <glyph glyph-name="Idotaccent" unicode="&#x130;" horiz-adv-x="250" 
d="M82 0v700h86v-700h-86zM83 792v108h83v-108h-83z" />
    <glyph glyph-name="dotlessi" unicode="&#x131;" horiz-adv-x="230" 
d="M73 0v500h83v-500h-83z" />
    <glyph glyph-name="IJ" unicode="&#x132;" horiz-adv-x="599" 
d="M433 191v509h87v-509q0 -88 -61.5 -141.5t-157.5 -53.5t-157.5 53.5t-61.5 141.5v38h87v-38q0 -61 37 -97.5t95 -36.5t95 36.5t37 97.5zM82 341v359h87v-359h-87z" />
    <glyph glyph-name="ij" unicode="&#x133;" horiz-adv-x="460" 
d="M73 592v108h83v-108h-83zM73 0v500h83v-500h-83zM303 592v108h83v-108h-83zM386 500v-573q0 -146 -171 -146v55q40 0 64 22t24 62v580h83z" />
    <glyph glyph-name="Jcircumflex" unicode="&#x134;" horiz-adv-x="577" 
d="M411 191v509h86v-509q0 -88 -61 -141.5t-157 -53.5t-157.5 53.5t-61.5 141.5v38h87v-38q0 -61 36.5 -97.5t95.5 -36.5q58 0 95 36.5t37 97.5zM489 900l119 -134h-69l-85 99l-86 -99h-68l118 134h71z" />
    <glyph glyph-name="jcircumflex" unicode="&#x135;" horiz-adv-x="230" 
d="M156 500v-573q0 -146 -171 -146v55q40 0 64 22t24 62v580h83zM150 700l119 -134h-69l-85 99l-86 -99h-68l118 134h71z" />
    <glyph glyph-name="Kcommaaccent" unicode="&#x136;" horiz-adv-x="627" 
d="M505 0l-250 342l-87 -95v-247h-86v700h86v-345l307 345h99l-268 -298l293 -402h-94zM279 -123v73h68v-73q0 -44 -19 -72t-50 -28v33q14 0 22.5 19t8.5 48h-30z" />
    <glyph glyph-name="kcommaaccent" unicode="&#x137;" horiz-adv-x="508" 
d="M389 0l-171 225l-62 -72v-153h-83v725h83v-460l203 235h93l-188 -217l212 -283h-87zM227 -123v73h68v-73q0 -44 -19 -72t-50 -28v33q14 0 22.5 19t8.5 48h-30z" />
    <glyph glyph-name="Lacute" unicode="&#x139;" horiz-adv-x="559" 
d="M520 60v-60h-438v700h86v-640h352zM154 766l111 134h82l-132 -134h-61z" />
    <glyph glyph-name="lacute" unicode="&#x13a;" horiz-adv-x="250" 
d="M73 99v626h83v-620q0 -25 13.5 -39.5t36.5 -14.5v-55q-133 0 -133 103zM26 740l111 134h82l-132 -134h-61z" />
    <glyph glyph-name="Lcommaaccent" unicode="&#x13b;" horiz-adv-x="559" 
d="M520 60v-60h-438v700h86v-640h352zM272 -123v73h68v-73q0 -44 -19 -72t-50 -28v33q14 0 22.5 19t8.5 48h-30z" />
    <glyph glyph-name="lcommaaccent" unicode="&#x13c;" horiz-adv-x="250" 
d="M73 99v626h83v-620q0 -25 13.5 -39.5t36.5 -14.5v-55q-133 0 -133 103zM91 -123v73h68v-73q0 -44 -19 -72t-50 -28v33q14 0 22.5 19t8.5 48h-30z" />
    <glyph glyph-name="Lcaron" unicode="&#x13d;" horiz-adv-x="559" 
d="M520 60v-60h-438v700h86v-640h352zM237 766l-118 134h68l86 -99l85 99h69l-119 -134h-71z" />
    <glyph glyph-name="lcaron" unicode="&#x13e;" horiz-adv-x="319" 
d="M73 99v626h83v-620q0 -25 13.5 -39.5t36.5 -14.5v-55q-133 0 -133 103zM215 651v73h68v-73q0 -44 -19 -72t-50 -28v33q14 0 22.5 19t8.5 48h-30z" />
    <glyph glyph-name="Ldot" unicode="&#x13f;" horiz-adv-x="559" 
d="M520 60v-60h-438v700h86v-640h352zM423 306v100h90v-100h-90z" />
    <glyph glyph-name="ldot" unicode="&#x140;" horiz-adv-x="332" 
d="M73 99v626h83v-620q0 -25 13.5 -39.5t36.5 -14.5v-55q-133 0 -133 103zM236 306v98h88v-98h-88z" />
    <glyph glyph-name="Lslash" unicode="&#x141;" horiz-adv-x="573" 
d="M290 418l-108 -98v-260h352v-60h-438v251l-70 -65v70l70 65v379h86v-310l108 99v-71z" />
    <glyph glyph-name="lslash" unicode="&#x142;" horiz-adv-x="291" 
d="M265 409l-78 -71v-233q0 -25 13.5 -39.5t35.5 -14.5v-55q-132 0 -132 103v174l-78 -71v70l78 71v382h83v-316l78 71v-71z" />
    <glyph glyph-name="Nacute" unicode="&#x143;" horiz-adv-x="718" 
d="M164 566v-566h-82v700h83l388 -566v566h83v-700h-83zM273 766l111 134h82l-132 -134h-61z" />
    <glyph glyph-name="nacute" unicode="&#x144;" horiz-adv-x="581" 
d="M156 250v-250h-83v500h78l5 -98q51 102 167 102q83 0 134 -48t51 -132v-324h-83v324q0 58 -33.5 91.5t-88.5 33.5q-67 0 -107 -52.5t-40 -146.5zM194 566l111 134h82l-132 -134h-61z" />
    <glyph glyph-name="Ncommaaccent" unicode="&#x145;" horiz-adv-x="718" 
d="M164 566v-566h-82v700h83l388 -566v566h83v-700h-83zM325 -123v73h68v-73q0 -44 -19 -72t-50 -28v33q14 0 22.5 19t8.5 48h-30z" />
    <glyph glyph-name="ncommaaccent" unicode="&#x146;" horiz-adv-x="581" 
d="M156 250v-250h-83v500h78l5 -98q51 102 167 102q83 0 134 -48t51 -132v-324h-83v324q0 58 -33.5 91.5t-88.5 33.5q-67 0 -107 -52.5t-40 -146.5zM256 -123v73h68v-73q0 -44 -19 -72t-50 -28v33q14 0 22.5 19t8.5 48h-30z" />
    <glyph glyph-name="Ncaron" unicode="&#x147;" horiz-adv-x="718" 
d="M164 566v-566h-82v700h83l388 -566v566h83v-700h-83zM323 766l-118 134h68l86 -99l85 99h69l-119 -134h-71z" />
    <glyph glyph-name="ncaron" unicode="&#x148;" horiz-adv-x="581" 
d="M156 250v-250h-83v500h78l5 -98q51 102 167 102q83 0 134 -48t51 -132v-324h-83v324q0 58 -33.5 91.5t-88.5 33.5q-67 0 -107 -52.5t-40 -146.5zM261 566l-118 134h68l86 -99l85 99h69l-119 -134h-71z" />
    <glyph glyph-name="Eng" unicode="&#x14a;" horiz-adv-x="718" 
d="M164 565v-565h-82v700h82l389 -565v565h83v-773q0 -72 -43.5 -109t-127.5 -37v55q40 0 64 22t24 62v80z" />
    <glyph glyph-name="eng" unicode="&#x14b;" horiz-adv-x="581" 
d="M156 250v-250h-83v500h78l5 -98q51 102 167 102q83 0 134 -48t51 -132v-397q0 -72 -44 -109t-128 -37v55q41 0 65 22t24 62v404q0 58 -33.5 91.5t-88.5 33.5q-67 0 -107 -52.5t-40 -146.5z" />
    <glyph glyph-name="Omacron" unicode="&#x14c;" horiz-adv-x="745" 
d="M54 350q0 165 87.5 259.5t230.5 94.5q144 0 231.5 -94.5t87.5 -259.5t-87.5 -259.5t-231.5 -94.5q-143 0 -230.5 94.5t-87.5 259.5zM141 350q0 -139 63 -216t168 -77q107 0 169.5 77t62.5 216t-62.5 216t-169.5 77q-105 0 -168 -77t-63 -216zM240 798v53h266v-53h-266z
" />
    <glyph glyph-name="omacron" unicode="&#x14d;" 
d="M52 250q0 118 66.5 186t176.5 68q109 0 175.5 -68t66.5 -186t-66.5 -186t-175.5 -68q-110 0 -176.5 68t-66.5 186zM135 250q0 -94 43.5 -146.5t116.5 -52.5q72 0 115.5 52.5t43.5 146.5t-43.5 146.5t-115.5 52.5q-73 0 -116.5 -52.5t-43.5 -146.5zM162 598v53h266v-53
h-266z" />
    <glyph glyph-name="Obreve" unicode="&#x14e;" horiz-adv-x="745" 
d="M54 350q0 165 87.5 259.5t230.5 94.5q144 0 231.5 -94.5t87.5 -259.5t-87.5 -259.5t-231.5 -94.5q-143 0 -230.5 94.5t-87.5 259.5zM141 350q0 -139 63 -216t168 -77q107 0 169.5 77t62.5 216t-62.5 216t-169.5 77q-105 0 -168 -77t-63 -216zM218 881h60q0 -36 26.5 -58
t67.5 -22t67.5 22t26.5 58h61q0 -58 -43 -92t-112 -34q-68 0 -111 34t-43 92z" />
    <glyph glyph-name="obreve" unicode="&#x14f;" 
d="M52 250q0 118 66.5 186t176.5 68q109 0 175.5 -68t66.5 -186t-66.5 -186t-175.5 -68q-110 0 -176.5 68t-66.5 186zM135 250q0 -94 43.5 -146.5t116.5 -52.5q72 0 115.5 52.5t43.5 146.5t-43.5 146.5t-115.5 52.5q-73 0 -116.5 -52.5t-43.5 -146.5zM141 681h60
q0 -36 26.5 -58t67.5 -22t67.5 22t26.5 58h61q0 -58 -43 -92t-112 -34q-68 0 -111 34t-43 92z" />
    <glyph glyph-name="Ohungarumlaut" unicode="&#x150;" horiz-adv-x="745" 
d="M54 350q0 165 87.5 259.5t230.5 94.5q144 0 231.5 -94.5t87.5 -259.5t-87.5 -259.5t-231.5 -94.5q-143 0 -230.5 94.5t-87.5 259.5zM141 350q0 -139 63 -216t168 -77q107 0 169.5 77t62.5 216t-62.5 216t-169.5 77q-105 0 -168 -77t-63 -216zM204 766l111 134h76
l-126 -134h-61zM373 766l112 134h76l-126 -134h-62z" />
    <glyph glyph-name="ohungarumlaut" unicode="&#x151;" 
d="M52 250q0 118 66.5 186t176.5 68q109 0 175.5 -68t66.5 -186t-66.5 -186t-175.5 -68q-110 0 -176.5 68t-66.5 186zM135 250q0 -94 43.5 -146.5t116.5 -52.5q72 0 115.5 52.5t43.5 146.5t-43.5 146.5t-115.5 52.5q-73 0 -116.5 -52.5t-43.5 -146.5zM126 566l111 134h76
l-126 -134h-61zM295 566l112 134h76l-126 -134h-62z" />
    <glyph glyph-name="OE" unicode="&#x152;" horiz-adv-x="907" 
d="M471 0v20q-54 -24 -120 -24q-133 0 -215 94.5t-82 259.5t82 259.5t215 94.5q64 0 120 -25v21h387v-60h-306v-250h271v-60h-271v-270h311v-60h-392zM356 57q70 0 115 41v503q-48 42 -115 42q-98 0 -156.5 -77t-58.5 -216t58.5 -216t156.5 -77z" />
    <glyph glyph-name="oe" unicode="&#x153;" horiz-adv-x="967" 
d="M693 504q101 0 160 -70t53 -204h-371q1 -84 44 -131.5t113 -47.5q57 0 94 29t37 76h81q0 -73 -59 -116.5t-152 -43.5q-72 0 -124 34.5t-75 97.5q-24 -63 -76 -97.5t-123 -34.5q-110 0 -176.5 68t-66.5 186t66.5 186t176.5 68q71 0 123 -34.5t75 -97.5q23 64 75 98t125 34
zM135 250q0 -94 43.5 -146.5t116.5 -52.5q72 0 115.5 52.5t43.5 146.5t-43.5 146.5t-115.5 52.5q-73 0 -116.5 -52.5t-43.5 -146.5zM692 449q-69 0 -113 -45.5t-44 -123.5h290q0 79 -37.5 124t-95.5 45z" />
    <glyph glyph-name="Racute" unicode="&#x154;" horiz-adv-x="624" 
d="M82 0v700h264q100 0 160 -53.5t60 -148.5q0 -81 -46 -133t-125 -65l195 -300h-95l-177 296h-150v-296h-86zM331 640h-163v-284h163q69 0 110 37.5t41 104.5t-41 104.5t-110 37.5zM215 766l111 134h82l-132 -134h-61z" />
    <glyph glyph-name="racute" unicode="&#x155;" horiz-adv-x="377" 
d="M154 232v-232h-83v500h74l9 -105q25 53 70.5 81t103.5 28v-61q-77 0 -125.5 -58t-48.5 -153zM102 566l111 134h82l-132 -134h-61z" />
    <glyph glyph-name="Rcommaaccent" unicode="&#x156;" horiz-adv-x="624" 
d="M82 0v700h264q100 0 160 -53.5t60 -148.5q0 -81 -46 -133t-125 -65l195 -300h-95l-177 296h-150v-296h-86zM331 640h-163v-284h163q69 0 110 37.5t41 104.5t-41 104.5t-110 37.5zM278 -123v73h68v-73q0 -44 -19 -72t-50 -28v33q14 0 22.5 19t8.5 48h-30z" />
    <glyph glyph-name="rcommaaccent" unicode="&#x157;" horiz-adv-x="377" 
d="M154 232v-232h-83v500h74l9 -105q25 53 70.5 81t103.5 28v-61q-77 0 -125.5 -58t-48.5 -153zM161 -123v73h68v-73q0 -44 -19 -72t-50 -28v33q14 0 22.5 19t8.5 48h-30z" />
    <glyph glyph-name="Rcaron" unicode="&#x158;" horiz-adv-x="624" 
d="M82 0v700h264q100 0 160 -53.5t60 -148.5q0 -81 -46 -133t-125 -65l195 -300h-95l-177 296h-150v-296h-86zM331 640h-163v-284h163q69 0 110 37.5t41 104.5t-41 104.5t-110 37.5zM266 766l-118 134h68l86 -99l85 99h69l-119 -134h-71z" />
    <glyph glyph-name="rcaron" unicode="&#x159;" horiz-adv-x="377" 
d="M154 232v-232h-83v500h74l9 -105q25 53 70.5 81t103.5 28v-61q-77 0 -125.5 -58t-48.5 -153zM159 566l-118 134h68l86 -99l85 99h69l-119 -134h-71z" />
    <glyph glyph-name="Sacute" unicode="&#x15a;" horiz-adv-x="613" 
d="M43 215h82q0 -72 49.5 -115t127.5 -43q77 0 123.5 35.5t46.5 95.5q0 41 -23 68.5t-59.5 40.5t-80.5 22.5t-88 21t-80.5 29t-59.5 53t-23 87.5q0 90 66 142t173 52q106 0 173 -56.5t67 -148.5h-83q0 65 -44 104.5t-112 39.5q-69 0 -111 -36.5t-42 -95.5q0 -39 23 -64.5
t59.5 -38t80.5 -21.5t88 -21t80.5 -30t59.5 -54.5t23 -90.5q0 -92 -70.5 -143.5t-184.5 -51.5q-116 0 -188.5 60t-72.5 159zM214 766l111 134h82l-132 -134h-61z" />
    <glyph glyph-name="sacute" unicode="&#x15b;" horiz-adv-x="507" 
d="M49 157h81q0 -48 34.5 -77t88.5 -29q53 0 85 23t32 63q0 37 -32 56.5t-77.5 28t-91 19.5t-77.5 41t-32 81q0 66 52.5 103.5t137.5 37.5q82 0 134.5 -41.5t52.5 -109.5h-77q0 42 -31.5 69t-79.5 27t-77 -23t-29 -63q0 -35 32 -53.5t77.5 -26.5t91 -19.5t77.5 -43t32 -85.5
q0 -65 -55.5 -102t-146.5 -37q-89 0 -145.5 44t-56.5 117zM169 566l111 134h82l-132 -134h-61z" />
    <glyph glyph-name="Scircumflex" unicode="&#x15c;" horiz-adv-x="613" 
d="M43 215h82q0 -72 49.5 -115t127.5 -43q77 0 123.5 35.5t46.5 95.5q0 41 -23 68.5t-59.5 40.5t-80.5 22.5t-88 21t-80.5 29t-59.5 53t-23 87.5q0 90 66 142t173 52q106 0 173 -56.5t67 -148.5h-83q0 65 -44 104.5t-112 39.5q-69 0 -111 -36.5t-42 -95.5q0 -39 23 -64.5
t59.5 -38t80.5 -21.5t88 -21t80.5 -30t59.5 -54.5t23 -90.5q0 -92 -70.5 -143.5t-184.5 -51.5q-116 0 -188.5 60t-72.5 159zM335 900l119 -134h-69l-85 99l-86 -99h-68l118 134h71z" />
    <glyph glyph-name="scircumflex" unicode="&#x15d;" horiz-adv-x="507" 
d="M49 157h81q0 -48 34.5 -77t88.5 -29q53 0 85 23t32 63q0 37 -32 56.5t-77.5 28t-91 19.5t-77.5 41t-32 81q0 66 52.5 103.5t137.5 37.5q82 0 134.5 -41.5t52.5 -109.5h-77q0 42 -31.5 69t-79.5 27t-77 -23t-29 -63q0 -35 32 -53.5t77.5 -26.5t91 -19.5t77.5 -43t32 -85.5
q0 -65 -55.5 -102t-146.5 -37q-89 0 -145.5 44t-56.5 117zM290 700l119 -134h-69l-85 99l-86 -99h-68l118 134h71z" />
    <glyph glyph-name="Scedilla" unicode="&#x15e;" horiz-adv-x="613" 
d="M43 215h82q0 -72 49.5 -115t127.5 -43q77 0 123.5 35.5t46.5 95.5q0 41 -23 68.5t-59.5 40.5t-80.5 22.5t-88 21t-80.5 29t-59.5 53t-23 87.5q0 90 66 142t173 52q106 0 173 -56.5t67 -148.5h-83q0 65 -44 104.5t-112 39.5q-69 0 -111 -36.5t-42 -95.5q0 -39 23 -64.5
t59.5 -38t80.5 -21.5t88 -21t80.5 -30t59.5 -54.5t23 -90.5q0 -87 -63 -138t-166 -56v-17q0 -21 10.5 -35t23 -20t23 -20t10.5 -36q0 -34 -23.5 -53.5t-61.5 -19.5q-42 0 -70 28v40q30 -28 62 -28q20 0 31.5 10t11.5 26q0 13 -10.5 23t-22.5 17t-22.5 24.5t-10.5 43.5v17
q-107 5 -172.5 64.5t-65.5 153.5z" />
    <glyph glyph-name="scedilla" unicode="&#x15f;" horiz-adv-x="507" 
d="M49 157h81q0 -48 34.5 -77t88.5 -29q53 0 85 23t32 63q0 37 -32 56.5t-77.5 28t-91 19.5t-77.5 41t-32 81q0 66 52.5 103.5t137.5 37.5q82 0 134.5 -41.5t52.5 -109.5h-77q0 42 -31.5 69t-79.5 27t-77 -23t-29 -63q0 -35 32 -53.5t77.5 -26.5t91 -19.5t77.5 -43t32 -85.5
q0 -60 -48 -96.5t-128 -41.5v-17q0 -21 10.5 -35t23 -20t23 -20t10.5 -36q0 -34 -23.5 -53.5t-61.5 -19.5q-42 0 -70 28v40q30 -28 62 -28q20 0 31.5 10t11.5 26q0 13 -10.5 23t-22.5 17t-22.5 24.5t-10.5 43.5v17q-80 5 -129.5 48.5t-49.5 111.5z" />
    <glyph glyph-name="Scaron" unicode="&#x160;" horiz-adv-x="613" 
d="M43 215h82q0 -72 49.5 -115t127.5 -43q77 0 123.5 35.5t46.5 95.5q0 41 -23 68.5t-59.5 40.5t-80.5 22.5t-88 21t-80.5 29t-59.5 53t-23 87.5q0 90 66 142t173 52q106 0 173 -56.5t67 -148.5h-83q0 65 -44 104.5t-112 39.5q-69 0 -111 -36.5t-42 -95.5q0 -39 23 -64.5
t59.5 -38t80.5 -21.5t88 -21t80.5 -30t59.5 -54.5t23 -90.5q0 -92 -70.5 -143.5t-184.5 -51.5q-116 0 -188.5 60t-72.5 159zM264 766l-118 134h68l86 -99l85 99h69l-119 -134h-71z" />
    <glyph glyph-name="scaron" unicode="&#x161;" horiz-adv-x="507" 
d="M49 157h81q0 -48 34.5 -77t88.5 -29q53 0 85 23t32 63q0 37 -32 56.5t-77.5 28t-91 19.5t-77.5 41t-32 81q0 66 52.5 103.5t137.5 37.5q82 0 134.5 -41.5t52.5 -109.5h-77q0 42 -31.5 69t-79.5 27t-77 -23t-29 -63q0 -35 32 -53.5t77.5 -26.5t91 -19.5t77.5 -43t32 -85.5
q0 -65 -55.5 -102t-146.5 -37q-89 0 -145.5 44t-56.5 117zM219 566l-118 134h68l86 -99l85 99h69l-119 -134h-71z" />
    <glyph glyph-name="Tcommaaccent" unicode="&#x162;" horiz-adv-x="644" 
d="M43 640v60h558v-60h-236v-640h-86v640h-236zM287 -123v73h68v-73q0 -44 -19 -72t-50 -28v33q14 0 22.5 19t8.5 48h-30z" />
    <glyph glyph-name="tcommaaccent" unicode="&#x163;" horiz-adv-x="367" 
d="M273 -4q-165 0 -165 136v314h-80v54h80v105h83v-105h129v-54h-129v-320q0 -35 24.5 -55t64.5 -20q24 0 40 4v-54q-27 -5 -47 -5zM170 -123v73h68v-73q0 -44 -19 -72t-50 -28v33q14 0 22.5 19t8.5 48h-30z" />
    <glyph glyph-name="Tcaron" unicode="&#x164;" horiz-adv-x="644" 
d="M43 640v60h558v-60h-236v-640h-86v640h-236zM286 766l-118 134h68l86 -99l85 99h69l-119 -134h-71z" />
    <glyph glyph-name="tcaron" unicode="&#x165;" horiz-adv-x="457" 
d="M273 -4q-165 0 -165 136v314h-80v54h80v105h83v-105h129v-54h-129v-320q0 -35 24.5 -55t64.5 -20q24 0 40 4v-54q-27 -5 -47 -5zM378 652v73h68v-73q0 -44 -19 -72t-50 -28v33q14 0 22.5 19t8.5 48h-30z" />
    <glyph glyph-name="Tbar" unicode="&#x166;" horiz-adv-x="644" 
d="M118 329v60h161v251h-236v60h558v-60h-236v-251h161v-60h-161v-329h-86v329h-161z" />
    <glyph glyph-name="tbar" unicode="&#x167;" horiz-adv-x="367" 
d="M28 274v54h80v118h-80v54h80v105h83v-105h129v-54h-129v-118h129v-54h-129v-148q0 -35 24.5 -55t64.5 -20q24 0 40 4v-54q-27 -5 -47 -5q-165 0 -165 136v142h-80z" />
    <glyph glyph-name="Utilde" unicode="&#x168;" horiz-adv-x="715" 
d="M548 238v462h87v-462q0 -109 -78 -175.5t-200 -66.5t-200 66.5t-78 175.5v462h87v-462q0 -82 53 -131.5t138 -49.5t138 49.5t53 131.5zM201 785q0 43 25 68t64 25q35 0 68 -25.5t57 -25.5q21 0 34 12.5t13 33.5h51q0 -42 -26 -67.5t-63 -25.5q-35 0 -69 25.5t-56 25.5
t-35 -12t-13 -34h-50z" />
    <glyph glyph-name="utilde" unicode="&#x169;" horiz-adv-x="581" 
d="M425 250v250h83v-500h-78l-5 99q-25 -49 -68.5 -76t-99.5 -27q-82 0 -133 47.5t-51 129.5v327h83v-327q0 -57 33 -89.5t88 -32.5q67 0 107.5 52.5t40.5 146.5zM134 585q0 43 25 68t64 25q35 0 68 -25.5t57 -25.5q21 0 34 12.5t13 33.5h51q0 -42 -26 -67.5t-63 -25.5
q-35 0 -69 25.5t-56 25.5t-35 -12t-13 -34h-50z" />
    <glyph glyph-name="Umacron" unicode="&#x16a;" horiz-adv-x="715" 
d="M548 238v462h87v-462q0 -109 -78 -175.5t-200 -66.5t-200 66.5t-78 175.5v462h87v-462q0 -82 53 -131.5t138 -49.5t138 49.5t53 131.5zM225 798v53h266v-53h-266z" />
    <glyph glyph-name="umacron" unicode="&#x16b;" horiz-adv-x="581" 
d="M425 250v250h83v-500h-78l-5 99q-25 -49 -68.5 -76t-99.5 -27q-82 0 -133 47.5t-51 129.5v327h83v-327q0 -57 33 -89.5t88 -32.5q67 0 107.5 52.5t40.5 146.5zM158 598v53h266v-53h-266z" />
    <glyph glyph-name="Ubreve" unicode="&#x16c;" horiz-adv-x="715" 
d="M548 238v462h87v-462q0 -109 -78 -175.5t-200 -66.5t-200 66.5t-78 175.5v462h87v-462q0 -82 53 -131.5t138 -49.5t138 49.5t53 131.5zM203 881h60q0 -36 26.5 -58t67.5 -22t67.5 22t26.5 58h61q0 -58 -43 -92t-112 -34q-68 0 -111 34t-43 92z" />
    <glyph glyph-name="ubreve" unicode="&#x16d;" horiz-adv-x="581" 
d="M425 250v250h83v-500h-78l-5 99q-25 -49 -68.5 -76t-99.5 -27q-82 0 -133 47.5t-51 129.5v327h83v-327q0 -57 33 -89.5t88 -32.5q67 0 107.5 52.5t40.5 146.5zM136 681h60q0 -36 26.5 -58t67.5 -22t67.5 22t26.5 58h61q0 -58 -43 -92t-112 -34q-68 0 -111 34t-43 92z" />
    <glyph glyph-name="Uring" unicode="&#x16e;" horiz-adv-x="715" 
d="M548 238v462h87v-462q0 -109 -78 -175.5t-200 -66.5t-200 66.5t-78 175.5v462h87v-462q0 -82 53 -131.5t138 -49.5t138 49.5t53 131.5zM262 834q0 44 26 68.5t69 24.5t69 -24.5t26 -68.5q0 -42 -26 -66.5t-69 -24.5t-69 24.5t-26 66.5zM304 834q0 -25 14.5 -39.5
t38.5 -14.5t38 14.5t14 39.5q0 26 -14 40.5t-38 14.5t-38.5 -14.5t-14.5 -40.5z" />
    <glyph glyph-name="uring" unicode="&#x16f;" horiz-adv-x="581" 
d="M425 250v250h83v-500h-78l-5 99q-25 -49 -68.5 -76t-99.5 -27q-82 0 -133 47.5t-51 129.5v327h83v-327q0 -57 33 -89.5t88 -32.5q67 0 107.5 52.5t40.5 146.5zM195 634q0 44 26 68.5t69 24.5t69 -24.5t26 -68.5q0 -42 -26 -66.5t-69 -24.5t-69 24.5t-26 66.5zM237 634
q0 -25 14.5 -39.5t38.5 -14.5t38 14.5t14 39.5q0 26 -14 40.5t-38 14.5t-38.5 -14.5t-14.5 -40.5z" />
    <glyph glyph-name="Uhungarumlaut" unicode="&#x170;" horiz-adv-x="715" 
d="M548 238v462h87v-462q0 -109 -78 -175.5t-200 -66.5t-200 66.5t-78 175.5v462h87v-462q0 -82 53 -131.5t138 -49.5t138 49.5t53 131.5zM189 766l111 134h76l-126 -134h-61zM358 766l112 134h76l-126 -134h-62z" />
    <glyph glyph-name="uhungarumlaut" unicode="&#x171;" horiz-adv-x="581" 
d="M425 250v250h83v-500h-78l-5 99q-25 -49 -68.5 -76t-99.5 -27q-82 0 -133 47.5t-51 129.5v327h83v-327q0 -57 33 -89.5t88 -32.5q67 0 107.5 52.5t40.5 146.5zM122 566l111 134h76l-126 -134h-61zM291 566l112 134h76l-126 -134h-62z" />
    <glyph glyph-name="Uogonek" unicode="&#x172;" horiz-adv-x="715" 
d="M548 238v462h87v-462q0 -80 -43.5 -138.5t-117.5 -84.5q-63 -63 -63 -119q0 -42 49 -42q34 0 66 30v-42q-32 -28 -75 -28q-40 0 -65 20.5t-25 57.5q0 51 47 108q-32 -4 -51 -4q-122 0 -200 66.5t-78 175.5v462h87v-462q0 -82 53 -131.5t138 -49.5t138 49.5t53 131.5z" />
    <glyph glyph-name="uogonek" unicode="&#x173;" horiz-adv-x="581" 
d="M451 0h-21l-5 99q-25 -49 -68.5 -76t-99.5 -27q-82 0 -133 47.5t-51 129.5v327h83v-327q0 -57 33 -89.5t88 -32.5q67 0 107.5 52.5t40.5 146.5v250h83v-500h-7q-7 -7 -18 -19t-29.5 -44.5t-18.5 -58.5q0 -42 49 -42q34 0 66 30v-42q-32 -28 -75 -28q-40 0 -65 20.5
t-25 57.5q0 31 16.5 62.5t32.5 47.5z" />
    <glyph glyph-name="Wcircumflex" unicode="&#x174;" horiz-adv-x="1034" 
d="M688 0l-172 590l-171 -590h-98l-218 700h89l178 -612l177 612h87l177 -612l178 612h90l-219 -700h-98zM552 900l119 -134h-69l-85 99l-86 -99h-68l118 134h71z" />
    <glyph glyph-name="wcircumflex" unicode="&#x175;" horiz-adv-x="808" 
d="M526 0l-123 396l-122 -396h-92l-165 500h86l126 -421l127 421h81l127 -421l127 421h86l-166 -500h-92zM439 700l119 -134h-69l-85 99l-86 -99h-68l118 134h71z" />
    <glyph glyph-name="Ycircumflex" unicode="&#x176;" horiz-adv-x="681" 
d="M297 0v275l-256 425h94l206 -351l206 351h95l-258 -425v-275h-87zM376 900l119 -134h-69l-85 99l-86 -99h-68l118 134h71z" />
    <glyph glyph-name="ycircumflex" unicode="&#x177;" horiz-adv-x="537" 
d="M513 500l-232 -580q-53 -139 -224 -139v55q50 0 89.5 22.5t55.5 61.5l35 80h-15l-198 500h85l159 -425l160 425h85zM304 700l119 -134h-69l-85 99l-86 -99h-68l118 134h71z" />
    <glyph glyph-name="Ydieresis" unicode="&#x178;" horiz-adv-x="681" 
d="M297 0v275l-256 425h94l206 -351l206 351h95l-258 -425v-275h-87zM199 779v96h70v-96h-70zM412 779v96h71v-96h-71z" />
    <glyph glyph-name="Zacute" unicode="&#x179;" horiz-adv-x="628" 
d="M57 640v60h525v-56l-435 -584h434v-60h-529v56l432 584h-427zM228 766l111 134h82l-132 -134h-61z" />
    <glyph glyph-name="zacute" unicode="&#x17a;" horiz-adv-x="500" 
d="M48 446v54h404v-54l-319 -392h323v-54h-412v54l315 392h-311zM163 566l111 134h82l-132 -134h-61z" />
    <glyph glyph-name="Zdotaccent" unicode="&#x17b;" horiz-adv-x="628" 
d="M57 640v60h525v-56l-435 -584h434v-60h-529v56l432 584h-427zM272 792v108h83v-108h-83z" />
    <glyph glyph-name="zdotaccent" unicode="&#x17c;" horiz-adv-x="500" 
d="M48 446v54h404v-54l-319 -392h323v-54h-412v54l315 392h-311zM208 592v108h83v-108h-83z" />
    <glyph glyph-name="Zcaron" unicode="&#x17d;" horiz-adv-x="628" 
d="M57 640v60h525v-56l-435 -584h434v-60h-529v56l432 584h-427zM278 766l-118 134h68l86 -99l85 99h69l-119 -134h-71z" />
    <glyph glyph-name="zcaron" unicode="&#x17e;" horiz-adv-x="500" 
d="M48 446v54h404v-54l-319 -392h323v-54h-412v54l315 392h-311zM214 566l-118 134h68l86 -99l85 99h69l-119 -134h-71z" />
    <glyph glyph-name="longs" unicode="&#x17f;" horiz-adv-x="324" 
d="M238 729q20 0 47 -5v-54q-16 4 -40 4q-40 0 -64.5 -20t-24.5 -55v-599h-83v593q0 136 165 136z" />
    <glyph glyph-name="uni018F" unicode="&#x18f;" horiz-adv-x="705" 
d="M59 344q0 18 3 37h500q-6 124 -66 193t-157 69q-85 0 -137.5 -43.5t-52.5 -117.5h-85q0 101 76.5 161.5t196.5 60.5q141 0 227 -94.5t86 -259.5t-84 -259.5t-223 -94.5q-142 0 -213 92t-71 256zM345 57q94 0 153 69.5t64 194.5h-418v-10q0 -119 51.5 -186.5t149.5 -67.5z
" />
    <glyph glyph-name="florin" unicode="&#x192;" horiz-adv-x="353" 
d="M266 729q22 0 47 -5v-54q-16 4 -40 4q-40 0 -64 -20t-24 -55v-99h128v-54h-128v-519q0 -72 -43.5 -109t-127.5 -37v55q40 0 64 22t24 62v526h-64v54h64v93q0 136 164 136z" />
    <glyph glyph-name="uni01DD" unicode="&#x1dd;" horiz-adv-x="568" 
d="M274 -4q-100 0 -159.5 72.5t-53.5 210.5h371q-1 80 -44.5 125t-113.5 45q-56 0 -93 -27t-37 -70h-80q0 69 58.5 110.5t151.5 41.5q110 0 176.5 -68t66.5 -186q0 -119 -66 -186.5t-177 -67.5zM277 51q68 0 111.5 48t43.5 129h-289q0 -83 37.5 -130t96.5 -47z" />
    <glyph glyph-name="AEacute" unicode="&#x1fc;" horiz-adv-x="782" 
d="M346 0v191h-158l-72 -191h-87l260 700h444v-60h-306v-250h271v-60h-271v-270h311v-60h-392zM204 251h142v389h-5zM303 766l111 134h82l-132 -134h-61z" />
    <glyph glyph-name="aeacute" unicode="&#x1fd;" horiz-adv-x="893" 
d="M620 504q100 0 159.5 -70t53.5 -204h-371q1 -84 44 -131.5t113 -47.5q57 0 94 29t37 76h80q0 -73 -58.5 -116.5t-151.5 -43.5q-71 0 -123.5 34t-76.5 97q-50 -131 -210 -131q-71 0 -114.5 34.5t-43.5 95.5q0 81 77 125.5t216 44.5h36v39q0 53 -32.5 83.5t-87.5 30.5
q-52 0 -86 -29t-34 -76h-81q0 73 56.5 116.5t144.5 43.5q64 0 109 -29t60 -80q54 109 190 109zM619 449q-69 0 -113 -45.5t-44 -123.5h289q0 79 -37 124t-95 45zM381 248h-36q-102 0 -156 -30t-54 -86q0 -38 25.5 -59.5t67.5 -21.5q69 0 111 48.5t42 132.5v16zM364 566
l111 134h82l-132 -134h-61z" />
    <glyph glyph-name="Oslashacute" unicode="&#x1fe;" horiz-adv-x="745" 
d="M79 0l65 88q-90 96 -90 262q0 165 87.5 259.5t230.5 94.5q107 0 183 -53l36 49h73l-64 -87q91 -96 91 -263q0 -165 -87.5 -259.5t-231.5 -94.5q-107 0 -184 53l-36 -49h-73zM607 350q0 125 -51 202l-328 -449q58 -50 144 -50q108 0 171.5 78t63.5 219zM137 350
q0 -125 51 -201l328 448q-61 50 -144 50q-107 0 -171 -78.5t-64 -218.5zM286 766l111 134h82l-132 -134h-61z" />
    <glyph glyph-name="oslashacute" unicode="&#x1ff;" 
d="M67 0l50 65q-65 68 -65 185q0 118 66.5 186t176.5 68q77 0 136 -37l26 33h64l-50 -65q66 -69 66 -185q0 -118 -66.5 -186t-175.5 -68q-81 0 -138 36l-25 -32h-65zM458 250q0 78 -31 129l-232 -298q41 -33 100 -33q74 0 118.5 53.5t44.5 148.5zM131 250q0 -77 30 -129
l232 297q-40 34 -98 34q-75 0 -119.5 -53.5t-44.5 -148.5zM208 566l111 134h82l-132 -134h-61z" />
    <glyph glyph-name="Scommaaccent" unicode="&#x218;" horiz-adv-x="613" 
d="M43 215h82q0 -72 49.5 -115t127.5 -43q77 0 123.5 35.5t46.5 95.5q0 41 -23 68.5t-59.5 40.5t-80.5 22.5t-88 21t-80.5 29t-59.5 53t-23 87.5q0 90 66 142t173 52q106 0 173 -56.5t67 -148.5h-83q0 65 -44 104.5t-112 39.5q-69 0 -111 -36.5t-42 -95.5q0 -39 23 -64.5
t59.5 -38t80.5 -21.5t88 -21t80.5 -30t59.5 -54.5t23 -90.5q0 -92 -70.5 -143.5t-184.5 -51.5q-116 0 -188.5 60t-72.5 159zM270 -123v73h68v-73q0 -44 -19 -72t-50 -28v33q14 0 22.5 19t8.5 48h-30z" />
    <glyph glyph-name="scommaaccent" unicode="&#x219;" horiz-adv-x="507" 
d="M49 157h81q0 -48 34.5 -77t88.5 -29q53 0 85 23t32 63q0 37 -32 56.5t-77.5 28t-91 19.5t-77.5 41t-32 81q0 66 52.5 103.5t137.5 37.5q82 0 134.5 -41.5t52.5 -109.5h-77q0 42 -31.5 69t-79.5 27t-77 -23t-29 -63q0 -35 32 -53.5t77.5 -26.5t91 -19.5t77.5 -43t32 -85.5
q0 -65 -55.5 -102t-146.5 -37q-89 0 -145.5 44t-56.5 117zM214 -123v73h68v-73q0 -44 -19 -72t-50 -28v33q14 0 22.5 19t8.5 48h-30z" />
    <glyph glyph-name="uni021A" unicode="&#x21a;" horiz-adv-x="644" 
d="M43 640v60h558v-60h-236v-640h-86v640h-236zM287 -123v73h68v-73q0 -44 -19 -72t-50 -28v33q14 0 22.5 19t8.5 48h-30z" />
    <glyph glyph-name="uni021B" unicode="&#x21b;" horiz-adv-x="367" 
d="M273 -4q-165 0 -165 136v314h-80v54h80v105h83v-105h129v-54h-129v-320q0 -35 24.5 -55t64.5 -20q24 0 40 4v-54q-27 -5 -47 -5zM170 -123v73h68v-73q0 -44 -19 -72t-50 -28v33q14 0 22.5 19t8.5 48h-30z" />
    <glyph glyph-name="dotlessj" unicode="&#x237;" horiz-adv-x="230" 
d="M156 500v-573q0 -146 -171 -146v55q40 0 64 22t24 62v580h83z" />
    <glyph glyph-name="circumflex" unicode="&#x2c6;" horiz-adv-x="346" 
d="M208 700l119 -134h-69l-85 99l-86 -99h-68l118 134h71z" />
    <glyph glyph-name="caron" unicode="&#x2c7;" horiz-adv-x="346" 
d="M137 566l-118 134h68l86 -99l85 99h69l-119 -134h-71z" />
    <glyph glyph-name="breve" unicode="&#x2d8;" horiz-adv-x="472" 
d="M82 681h60q0 -36 26.5 -58t67.5 -22t67.5 22t26.5 58h61q0 -58 -43 -92t-112 -34q-68 0 -111 34t-43 92z" />
    <glyph glyph-name="dotaccent" unicode="&#x2d9;" horiz-adv-x="230" 
d="M73 592v108h83v-108h-83z" />
    <glyph glyph-name="ring" unicode="&#x2da;" horiz-adv-x="258" 
d="M34 634q0 44 26 68.5t69 24.5t69 -24.5t26 -68.5q0 -42 -26 -66.5t-69 -24.5t-69 24.5t-26 66.5zM76 634q0 -25 14.5 -39.5t38.5 -14.5t38 14.5t14 39.5q0 26 -14 40.5t-38 14.5t-38.5 -14.5t-14.5 -40.5z" />
    <glyph glyph-name="ogonek" unicode="&#x2db;" horiz-adv-x="302" 
d="M163 0h50q-7 -7 -18 -19t-29.5 -44.5t-18.5 -58.5q0 -42 49 -42q34 0 66 30v-42q-32 -28 -75 -28q-40 0 -65 20.5t-25 57.5q0 31 16.5 62.5t32.5 47.5z" />
    <glyph glyph-name="tilde" unicode="&#x2dc;" horiz-adv-x="335" 
d="M12 585q0 43 25 68t64 25q35 0 68 -25.5t57 -25.5q21 0 34 12.5t13 33.5h51q0 -42 -26 -67.5t-63 -25.5q-35 0 -69 25.5t-56 25.5t-35 -12t-13 -34h-50z" />
    <glyph glyph-name="hungarumlaut" unicode="&#x2dd;" horiz-adv-x="394" 
d="M19 566l111 134h76l-126 -134h-61zM188 566l112 134h76l-126 -134h-62z" />
    <glyph glyph-name="uni0400" unicode="&#x400;" horiz-adv-x="583" 
d="M82 0v700h452v-60h-366v-250h331v-60h-331v-270h371v-60h-457zM273 900l112 -134h-62l-131 134h81z" />
    <glyph glyph-name="afii10023" unicode="&#x401;" horiz-adv-x="583" 
d="M82 0v700h452v-60h-366v-250h331v-60h-331v-270h371v-60h-457zM169 779v96h70v-96h-70zM382 779v96h71v-96h-71z" />
    <glyph glyph-name="afii10051" unicode="&#x402;" horiz-adv-x="821" 
d="M40 640v60h558v-60h-236v-305q27 50 73 78.5t102 28.5q92 0 149.5 -57t57.5 -154v-83q0 -74 -47 -113t-138 -39v55q45 0 72 25t27 69v86q0 71 -37.5 110.5t-100.5 39.5q-72 0 -115 -57t-43 -158v-166h-87v640h-235z" />
    <glyph glyph-name="afii10052" unicode="&#x403;" horiz-adv-x="546" 
d="M176 766l111 134h82l-132 -134h-61zM503 700v-60h-335v-640h-86v700h421z" />
    <glyph glyph-name="afii10053" unicode="&#x404;" horiz-adv-x="705" 
d="M373 643q-100 0 -162 -68t-68 -190h377v-60h-378q4 -127 66.5 -197.5t164.5 -70.5q82 0 133 44.5t51 120.5h85q0 -103 -75 -164.5t-192 -61.5q-145 0 -233 94.5t-88 259.5t88 259.5t233 94.5q117 0 192 -61.5t75 -164.5h-85q0 76 -51 120.5t-133 44.5z" />
    <glyph glyph-name="afii10054" unicode="&#x405;" horiz-adv-x="613" 
d="M43 215h82q0 -72 49.5 -115t127.5 -43q77 0 123.5 35.5t46.5 95.5q0 41 -23 68.5t-59.5 40.5t-80.5 22.5t-88 21t-80.5 29t-59.5 53t-23 87.5q0 90 66 142t173 52q106 0 173 -56.5t67 -148.5h-83q0 65 -44 104.5t-112 39.5q-69 0 -111 -36.5t-42 -95.5q0 -39 23 -64.5
t59.5 -38t80.5 -21.5t88 -21t80.5 -30t59.5 -54.5t23 -90.5q0 -92 -70.5 -143.5t-184.5 -51.5q-116 0 -188.5 60t-72.5 159z" />
    <glyph glyph-name="afii10055" unicode="&#x406;" horiz-adv-x="250" 
d="M82 0v700h86v-700h-86z" />
    <glyph glyph-name="afii10056" unicode="&#x407;" horiz-adv-x="250" 
d="M82 0v700h86v-700h-86zM-17 779v96h70v-96h-70zM196 779v96h71v-96h-71z" />
    <glyph glyph-name="afii10057" unicode="&#x408;" horiz-adv-x="577" 
d="M411 191v509h86v-509q0 -88 -61 -141.5t-157 -53.5t-157.5 53.5t-61.5 141.5v38h87v-38q0 -61 36.5 -97.5t95.5 -36.5q58 0 95 36.5t37 97.5z" />
    <glyph glyph-name="afii10058" unicode="&#x409;" horiz-adv-x="1065" 
d="M535 0v640h-269q0 -128 -4.5 -224.5t-12.5 -165t-23 -115t-30.5 -74.5t-41.5 -42t-49.5 -18.5t-59.5 -4.5v61q25 0 39.5 5t32.5 24t28 61t20 111.5t14 180t4 261.5h439v-286h162q102 0 164 -55.5t62 -151.5q0 -97 -62 -152t-164 -55h-249zM622 60h147q72 0 114 38.5
t42 108.5q0 69 -42.5 108t-113.5 39h-147v-294z" />
    <glyph glyph-name="afii10059" unicode="&#x40a;" horiz-adv-x="1043" 
d="M515 0v341h-347v-341h-86v700h86v-299h347v299h86v-299h165q100 0 161 -54t61 -147t-61 -146.5t-161 -53.5h-251zM601 60h150q70 0 111.5 37t41.5 103q0 67 -41.5 104t-111.5 37h-150v-281z" />
    <glyph glyph-name="afii10060" unicode="&#x40b;" horiz-adv-x="822" 
d="M40 640v60h558v-60h-236v-305q27 50 73 78.5t102 28.5q92 0 149.5 -57t57.5 -154v-231h-86v231q0 71 -37.5 110.5t-100.5 39.5q-72 0 -115 -57t-43 -158v-166h-87v640h-235z" />
    <glyph glyph-name="afii10061" unicode="&#x40c;" horiz-adv-x="627" 
d="M505 0l-250 342l-87 -95v-247h-86v700h86v-345l307 345h99l-268 -298l293 -402h-94zM217 766l111 134h82l-132 -134h-61z" />
    <glyph glyph-name="uni040D" unicode="&#x40d;" horiz-adv-x="718" 
d="M334 900l112 -134h-62l-131 134h81zM553 0v563l-388 -563h-83v700h82v-563l389 563h83v-700h-83z" />
    <glyph glyph-name="afii10062" unicode="&#x40e;" horiz-adv-x="641" 
d="M175 881h60q0 -36 26.5 -58t67.5 -22t67.5 22t26.5 58h61q0 -58 -43 -92t-112 -34q-68 0 -111 34t-43 92zM612 700l-258 -562q-32 -72 -86.5 -107t-142.5 -35v61q51 0 90.5 23t57.5 61l23 48h-14l-245 511h91l202 -438l190 438h92z" />
    <glyph glyph-name="afii10145" unicode="&#x40f;" horiz-adv-x="706" 
d="M82 0v700h86v-640h370v640h86v-700h-234v-166h-74v166h-234z" />
    <glyph glyph-name="afii10017" unicode="&#x410;" horiz-adv-x="679" 
d="M29 0l262 700h98l261 -700h-87l-72 191h-303l-72 -191h-87zM340 626l-136 -375h272z" />
    <glyph glyph-name="afii10018" unicode="&#x411;" horiz-adv-x="624" 
d="M524 700v-60h-356v-228h175q102 0 164 -55t62 -151t-62 -151t-164 -55h-261v700h442zM168 60h160q71 0 113.5 38.5t42.5 107.5t-42.5 107.5t-113.5 38.5h-160v-292z" />
    <glyph glyph-name="afii10019" unicode="&#x412;" horiz-adv-x="639" 
d="M82 0v700h254q99 0 158 -47.5t59 -130.5q0 -57 -29 -97t-80 -60q65 -17 102.5 -62.5t37.5 -113.5q0 -89 -60.5 -139t-159.5 -50h-282zM168 60h182q68 0 108.5 35.5t40.5 99.5t-40.5 100t-108.5 36h-182v-271zM322 640h-154v-249h154q67 0 106.5 33t39.5 92t-39 91.5
t-107 32.5z" />
    <glyph glyph-name="afii10020" unicode="&#x413;" horiz-adv-x="546" 
d="M503 700v-60h-335v-640h-86v700h421z" />
    <glyph glyph-name="afii10021" unicode="&#x414;" horiz-adv-x="806" 
d="M43 -166v226h29q30 0 47 7t37 40.5t30 100t17 189t7 303.5h453v-640h100v-226h-74v166h-572v-166h-74zM576 640h-284q0 -270 -19.5 -401.5t-58.5 -178.5h362v580z" />
    <glyph glyph-name="afii10022" unicode="&#x415;" horiz-adv-x="583" 
d="M82 0v700h452v-60h-366v-250h331v-60h-331v-270h371v-60h-457z" />
    <glyph glyph-name="afii10024" unicode="&#x416;" horiz-adv-x="963" 
d="M350 348l-231 -348h-91l270 407l-246 293h94l293 -345v345h86v-345l292 345h95l-246 -293l270 -407h-91l-231 348l-89 -99v-249h-86v249z" />
    <glyph glyph-name="afii10025" unicode="&#x417;" horiz-adv-x="635" 
d="M224 329v60h94q66 0 106 34.5t40 93.5q0 58 -41 92t-111 34q-72 0 -117 -41t-45 -109h-83q0 95 69.5 153t177.5 58q110 0 173 -48t63 -133q0 -115 -109 -160q64 -17 102 -63t38 -114q0 -90 -69 -140t-190 -50q-112 0 -183.5 59t-71.5 157h84q0 -71 47.5 -113t124.5 -42
q78 0 125 36t47 99t-40.5 100t-108.5 37h-122z" />
    <glyph glyph-name="afii10026" unicode="&#x418;" horiz-adv-x="718" 
d="M553 0v563l-388 -563h-83v700h82v-563l389 563h83v-700h-83z" />
    <glyph glyph-name="afii10027" unicode="&#x419;" horiz-adv-x="718" 
d="M204 881h60q0 -36 26.5 -58t67.5 -22t67.5 22t26.5 58h61q0 -58 -43 -92t-112 -34q-68 0 -111 34t-43 92zM553 0v563l-388 -563h-83v700h82v-563l389 563h83v-700h-83z" />
    <glyph glyph-name="afii10028" unicode="&#x41a;" horiz-adv-x="627" 
d="M505 0l-250 342l-87 -95v-247h-86v700h86v-345l307 345h99l-268 -298l293 -402h-94z" />
    <glyph glyph-name="afii10029" unicode="&#x41b;" horiz-adv-x="719" 
d="M551 0v640h-285q0 -128 -4.5 -224.5t-12.5 -165t-23 -115t-30.5 -74.5t-41.5 -42t-49.5 -18.5t-59.5 -4.5v61q25 0 39.5 5t32.5 24t28 61t20 111.5t14 180t4 261.5h455v-700h-87z" />
    <glyph glyph-name="afii10030" unicode="&#x41c;" horiz-adv-x="899" 
d="M82 0v700h129l238 -600l238 600h130v-700h-83v600l-241 -600h-88l-241 600v-600h-82z" />
    <glyph glyph-name="afii10031" unicode="&#x41d;" horiz-adv-x="701" 
d="M533 0v330h-365v-330h-86v700h86v-310h365v310h87v-700h-87z" />
    <glyph glyph-name="afii10032" unicode="&#x41e;" horiz-adv-x="745" 
d="M54 350q0 165 87.5 259.5t230.5 94.5q144 0 231.5 -94.5t87.5 -259.5t-87.5 -259.5t-231.5 -94.5q-143 0 -230.5 94.5t-87.5 259.5zM141 350q0 -139 63 -216t168 -77q107 0 169.5 77t62.5 216t-62.5 216t-169.5 77q-105 0 -168 -77t-63 -216z" />
    <glyph glyph-name="afii10033" unicode="&#x41f;" horiz-adv-x="706" 
d="M538 0v640h-370v-640h-86v700h542v-700h-86z" />
    <glyph glyph-name="afii10034" unicode="&#x420;" horiz-adv-x="621" 
d="M82 0v700h264q100 0 160 -54.5t60 -149.5t-60 -149.5t-160 -54.5h-178v-292h-86zM331 640h-163v-288h163q69 0 110 38.5t41 105.5q0 68 -41 106t-110 38z" />
    <glyph glyph-name="afii10035" unicode="&#x421;" horiz-adv-x="705" 
d="M373 643q-106 0 -169 -77t-63 -216t63 -216t169 -77q82 0 133 46t51 122h85q0 -104 -75 -166.5t-192 -62.5q-145 0 -233 94.5t-88 259.5t88 259.5t233 94.5q117 0 192 -62.5t75 -166.5h-85q0 76 -51 122t-133 46z" />
    <glyph glyph-name="afii10036" unicode="&#x422;" horiz-adv-x="644" 
d="M43 640v60h558v-60h-236v-640h-86v640h-236z" />
    <glyph glyph-name="afii10037" unicode="&#x423;" horiz-adv-x="641" 
d="M612 700l-258 -562q-32 -72 -86.5 -107t-142.5 -35v61q51 0 90.5 23t57.5 61l23 48h-14l-245 511h91l202 -438l190 438h92z" />
    <glyph glyph-name="afii10038" unicode="&#x424;" horiz-adv-x="853" 
d="M383 0v66h-39q-132 0 -212.5 75.5t-80.5 208.5q0 132 80.5 207.5t212.5 75.5h39v67h87v-66h39q132 0 212.5 -76t80.5 -208t-80.5 -208t-212.5 -76h-39v-66h-87zM383 575h-39q-94 0 -150 -59t-56 -166t56 -166t150 -59h39v450zM470 125h39q94 0 150 59t56 166t-56 166
t-150 59h-39v-450z" />
    <glyph glyph-name="afii10039" unicode="&#x425;" horiz-adv-x="684" 
d="M34 0l257 353l-250 347h97l204 -290l206 290h98l-253 -346l258 -354h-97l-212 297l-211 -297h-97z" />
    <glyph glyph-name="afii10040" unicode="&#x426;" horiz-adv-x="761" 
d="M82 0v700h86v-640h360v640h86v-640h104v-226h-74v166h-562z" />
    <glyph glyph-name="afii10041" unicode="&#x427;" horiz-adv-x="683" 
d="M515 531v169h87v-700h-87v368q-31 -56 -83.5 -87.5t-118.5 -31.5q-104 0 -167.5 59t-63.5 161v231h86v-234q0 -73 44 -114.5t118 -41.5q84 0 134.5 59t50.5 162z" />
    <glyph glyph-name="afii10042" unicode="&#x428;" horiz-adv-x="1027" 
d="M557 700v-640h301v640h87v-700h-863v700h86v-640h302v640h87z" />
    <glyph glyph-name="afii10043" unicode="&#x429;" horiz-adv-x="1092" 
d="M82 0v700h86v-640h302v640h87v-640h301v640h87v-640h104v-226h-75v166h-892z" />
    <glyph glyph-name="afii10044" unicode="&#x42a;" horiz-adv-x="775" 
d="M43 640v60h279v-286h172q102 0 164 -55.5t62 -151.5q0 -97 -62 -152t-164 -55h-258v640h-193zM322 60h157q72 0 114 38.5t42 108.5q0 69 -42.5 108t-113.5 39h-157v-294z" />
    <glyph glyph-name="afii10045" unicode="&#x42b;" horiz-adv-x="842" 
d="M82 0v700h86v-286h172q102 0 164 -55.5t62 -151.5q0 -97 -62 -152t-164 -55h-258zM168 60h157q72 0 114.5 39t42.5 108t-43 108t-114 39h-157v-294zM674 0v700h87v-700h-87z" />
    <glyph glyph-name="afii10046" unicode="&#x42c;" horiz-adv-x="621" 
d="M82 0v700h86v-286h172q102 0 164 -55.5t62 -151.5q0 -97 -62 -152t-164 -55h-258zM168 60h157q72 0 114.5 39t42.5 108t-43 108t-114 39h-157v-294z" />
    <glyph glyph-name="afii10047" unicode="&#x42d;" horiz-adv-x="701" 
d="M335 643q-83 0 -133.5 -44.5t-50.5 -120.5h-85q0 103 74.5 164.5t192.5 61.5q145 0 232.5 -94.5t87.5 -259.5t-87.5 -259.5t-232.5 -94.5q-118 0 -192.5 61.5t-74.5 164.5h85q0 -76 50.5 -120.5t133.5 -44.5q102 0 164 70.5t66 197.5h-328v60h328q-6 122 -68 190t-162 68
z" />
    <glyph glyph-name="afii10048" unicode="&#x42e;" horiz-adv-x="951" 
d="M82 0v700h86v-315h140q10 150 89.5 234.5t204.5 84.5q133 0 213.5 -94.5t80.5 -259.5t-80.5 -259.5t-213.5 -94.5q-128 0 -208 87.5t-86 241.5h-140v-325h-86zM393 350q0 -139 57 -216t152 -77t151.5 77t56.5 216t-56.5 216t-151.5 77t-152 -77t-57 -216z" />
    <glyph glyph-name="afii10049" unicode="&#x42f;" horiz-adv-x="624" 
d="M543 700v-700h-87v289h-150l-175 -289h-92l189 293q-78 13 -124 66t-46 136q0 95 60.5 150t159.5 55h265zM456 640h-158q-71 0 -113 -38.5t-42 -106.5q0 -69 42 -107.5t113 -38.5h158v291z" />
    <glyph glyph-name="afii10065" unicode="&#x430;" horiz-adv-x="539" 
d="M386 0l-5 99q-53 -103 -171 -103q-71 0 -114.5 34.5t-43.5 95.5q0 81 77 125.5t216 44.5h36v39q0 53 -32.5 83.5t-87.5 30.5q-52 0 -86 -29t-34 -76h-81q0 73 56.5 116.5t144.5 43.5q91 0 147 -45.5t56 -123.5v-335h-78zM381 248h-36q-102 0 -156 -30t-54 -86
q0 -38 25.5 -59.5t67.5 -21.5q69 0 111 48.5t42 132.5v16z" />
    <glyph glyph-name="afii10066" unicode="&#x431;" horiz-adv-x="576" 
d="M54 305q0 79 12.5 139.5t30 97t47 63t53.5 39t59 23.5q17 6 45 12.5t43.5 11t32.5 15t25 26.5h64q-4 -18 -13 -32.5t-18 -23.5t-29 -18t-30 -13t-38.5 -12.5l-38.5 -11.5q-36 -11 -59.5 -22.5t-49 -34t-39.5 -61t-18 -92.5q56 93 170 93q100 0 160.5 -68t60.5 -186
t-64.5 -186t-171.5 -68q-110 0 -172 74.5t-62 234.5zM137 250q0 -94 41 -146.5t110 -52.5q70 0 111.5 52.5t41.5 146.5t-41.5 146.5t-111.5 52.5q-69 0 -110 -52.5t-41 -146.5z" />
    <glyph glyph-name="afii10067" unicode="&#x432;" horiz-adv-x="537" 
d="M73 0v500h228q72 0 116.5 -34.5t44.5 -94.5q0 -81 -74 -112q45 -15 71 -46.5t26 -76.5q0 -63 -50.5 -99.5t-133.5 -36.5h-228zM156 230v-176h132q53 0 84.5 23.5t31.5 64.5t-31.5 64.5t-84.5 23.5h-132zM156 446v-162h130q44 0 70.5 21.5t26.5 59.5t-26.5 59.5
t-70.5 21.5h-130z" />
    <glyph glyph-name="afii10068" unicode="&#x433;" horiz-adv-x="448" 
d="M407 500v-54h-251v-446h-83v500h334z" />
    <glyph glyph-name="afii10069" unicode="&#x434;" horiz-adv-x="657" 
d="M37 -150v202h22q21 0 33.5 3.5t27 17.5t22 42.5t14.5 78t10 125t3 181.5h363v-448h88v-203h-76v151h-431v-150h-76zM245 446q0 -181 -13.5 -270t-43.5 -124h261v394h-204z" />
    <glyph glyph-name="afii10070" unicode="&#x435;" horiz-adv-x="568" 
d="M295 504q100 0 159.5 -70t53.5 -204h-372q1 -84 44.5 -131.5t113.5 -47.5q57 0 94 29t37 76h80q0 -72 -59 -116t-151 -44q-110 0 -176.5 68t-66.5 186q0 119 66 186.5t177 67.5zM294 449q-69 0 -113 -45.5t-44 -123.5h289q0 79 -37 124t-95 45z" />
    <glyph glyph-name="afii10072" unicode="&#x436;" horiz-adv-x="757" 
d="M270 233l-160 -233h-81l194 283l-172 217h85l152 -197l50 -34v231h81v-231l51 36l151 195h85l-172 -217l194 -283h-81l-161 233l-67 -45v-188h-81v188z" />
    <glyph glyph-name="afii10073" unicode="&#x437;" horiz-adv-x="521" 
d="M262 51q57 0 91.5 24t34.5 67q0 42 -32.5 66t-86.5 24h-85v49h83q45 0 72.5 22.5t27.5 61.5t-30 61.5t-80 22.5q-54 0 -89 -26.5t-35 -68.5h-72q0 66 56.5 108t146.5 42q81 0 131.5 -35t50.5 -97q0 -39 -20.5 -68.5t-55.5 -44.5q46 -15 72.5 -47.5t26.5 -76.5
q0 -66 -56 -102.5t-144 -36.5q-92 0 -150 42t-58 108h73q0 -43 35.5 -69t92.5 -26z" />
    <glyph glyph-name="afii10074" unicode="&#x438;" horiz-adv-x="582" 
d="M427 0v382l-276 -382h-78v500h82v-382l276 382h77v-500h-81z" />
    <glyph glyph-name="afii10075" unicode="&#x439;" horiz-adv-x="582" 
d="M137 681h60q0 -36 26.5 -58t67.5 -22t67.5 22t26.5 58h61q0 -58 -43 -92t-112 -34q-68 0 -111 34t-43 92zM427 0v382l-276 -382h-78v500h82v-382l276 382h77v-500h-81z" />
    <glyph glyph-name="afii10076" unicode="&#x43a;" horiz-adv-x="531" 
d="M414 0l-178 239l-80 -82v-157h-83v500h83v-243l226 243h97l-193 -209l219 -291h-91z" />
    <glyph glyph-name="afii10077" unicode="&#x43b;" horiz-adv-x="583" 
d="M427 0v446h-199q0 -105 -4 -178.5t-15 -124t-23.5 -79.5t-36.5 -44t-47 -19.5t-61 -4.5v55q21 0 33.5 3.5t27 17.5t22.5 43t15 78t10 125t3 182h358v-500h-83z" />
    <glyph glyph-name="afii10078" unicode="&#x43c;" horiz-adv-x="725" 
d="M73 0v500h117l172 -409l173 409h117v-500h-79v407l-174 -407h-72l-174 407v-407h-80z" />
    <glyph glyph-name="afii10079" unicode="&#x43d;" horiz-adv-x="576" 
d="M420 0v228h-264v-228h-83v500h83v-218h264v218h83v-500h-83z" />
    <glyph glyph-name="afii10080" unicode="&#x43e;" 
d="M52 250q0 118 66.5 186t176.5 68q109 0 175.5 -68t66.5 -186t-66.5 -186t-175.5 -68q-110 0 -176.5 68t-66.5 186zM135 250q0 -94 43.5 -146.5t116.5 -52.5q72 0 115.5 52.5t43.5 146.5t-43.5 146.5t-115.5 52.5q-73 0 -116.5 -52.5t-43.5 -146.5z" />
    <glyph glyph-name="afii10081" unicode="&#x43f;" horiz-adv-x="581" 
d="M425 0v446h-269v-446h-83v500h435v-500h-83z" />
    <glyph glyph-name="afii10082" unicode="&#x440;" horiz-adv-x="596" 
d="M73 -215v715h78l5 -98q51 102 165 102q100 0 161.5 -68t61.5 -186t-61.5 -186t-161.5 -68q-114 0 -165 96v-307h-83zM156 250q0 -94 40.5 -146.5t107.5 -52.5q71 0 114 52.5t43 146.5t-43 146.5t-114 52.5q-67 0 -107.5 -52.5t-40.5 -146.5z" />
    <glyph glyph-name="afii10083" unicode="&#x441;" horiz-adv-x="556" 
d="M294 449q-72 0 -115.5 -52.5t-43.5 -146.5t43.5 -146.5t115.5 -52.5q53 0 87.5 31.5t34.5 83.5h81q0 -77 -57 -123.5t-145 -46.5q-110 0 -176.5 68t-66.5 186t66.5 186t176.5 68q88 0 145 -46.5t57 -123.5h-81q0 52 -34.5 83.5t-87.5 31.5z" />
    <glyph glyph-name="afii10084" unicode="&#x442;" horiz-adv-x="535" 
d="M41 446v54h453v-54h-185v-446h-83v446h-185z" />
    <glyph glyph-name="afii10085" unicode="&#x443;" horiz-adv-x="537" 
d="M513 500l-232 -580q-53 -139 -224 -139v55q50 0 89.5 22.5t55.5 61.5l35 80h-15l-198 500h85l159 -425l160 425h85z" />
    <glyph glyph-name="afii10086" unicode="&#x444;" horiz-adv-x="734" 
d="M326 -215v211q-123 0 -198.5 68t-75.5 186t75.5 186t198.5 68v221h82v-221q123 0 198.5 -68t75.5 -186t-75.5 -186t-198.5 -68v-211h-82zM408 449v-398q87 0 139 52.5t52 146.5t-52 146.5t-139 52.5zM326 51v398q-88 0 -139.5 -52.5t-51.5 -146.5t51.5 -146.5
t139.5 -52.5z" />
    <glyph glyph-name="afii10087" unicode="&#x445;" horiz-adv-x="543" 
d="M31 0l194 253l-189 247h93l142 -195l143 195h93l-190 -246l196 -254h-94l-148 203l-147 -203h-93z" />
    <glyph glyph-name="afii10088" unicode="&#x446;" horiz-adv-x="635" 
d="M73 0v500h83v-446h266v446h83v-446h92v-205h-75v151h-449z" />
    <glyph glyph-name="afii10089" unicode="&#x447;" horiz-adv-x="557" 
d="M400 387v113h83v-500h-83v255q-50 -88 -156 -88q-79 0 -128 44t-49 120v169h83v-169q0 -50 32 -79.5t84 -29.5q61 0 97.5 43.5t36.5 121.5z" />
    <glyph glyph-name="afii10090" unicode="&#x448;" horiz-adv-x="815" 
d="M73 0v500h83v-446h213v446h83v-446h213v446h83v-500h-675z" />
    <glyph glyph-name="afii10091" unicode="&#x449;" horiz-adv-x="878" 
d="M73 0v500h83v-446h213v446h83v-446h213v446h83v-446h93v-205h-76v151h-692z" />
    <glyph glyph-name="afii10092" unicode="&#x44a;" horiz-adv-x="636" 
d="M37 446v54h237v-192h115q88 0 141.5 -41t53.5 -113t-53.5 -113t-141.5 -41h-198v446h-154zM274 54h108q55 0 88 26.5t33 73.5t-33 73.5t-88 26.5h-108v-200z" />
    <glyph glyph-name="afii10093" unicode="&#x44b;" horiz-adv-x="709" 
d="M73 0v500h83v-192h116q88 0 141.5 -41t53.5 -113t-53.5 -113t-141.5 -41h-199zM156 54h109q55 0 88 26.5t33 73.5t-33 73.5t-88 26.5h-109v-200zM553 0v500h83v-500h-83z" />
    <glyph glyph-name="afii10094" unicode="&#x44c;" horiz-adv-x="519" 
d="M73 0v500h83v-192h116q88 0 141.5 -41t53.5 -113t-53.5 -113t-141.5 -41h-199zM156 54h109q55 0 88 26.5t33 73.5t-33 73.5t-88 26.5h-109v-200z" />
    <glyph glyph-name="afii10095" unicode="&#x44d;" horiz-adv-x="558" 
d="M262 449q-52 0 -86.5 -30t-34.5 -78h-81q0 73 57 118t145 45q110 0 176.5 -68t66.5 -186t-66.5 -186t-176.5 -68q-88 0 -145 45t-57 118h81q0 -48 34.5 -78t86.5 -30q70 0 114 47t45 130h-210v52h209q-2 79 -46 124t-112 45z" />
    <glyph glyph-name="afii10096" unicode="&#x44e;" horiz-adv-x="762" 
d="M156 500v-218h110q8 104 68 163t153 59q101 0 162 -68t61 -186t-61 -186t-162 -68q-95 0 -155.5 61.5t-66.5 170.5h-109v-228h-83v500h83zM347 250q0 -94 38 -146.5t102 -52.5t102 52.5t38 146.5t-38 146.5t-102 52.5t-102 -52.5t-38 -146.5z" />
    <glyph glyph-name="afii10097" unicode="&#x44f;" horiz-adv-x="528" 
d="M44 0l151 204q-65 11 -103 49t-38 98q0 69 51.5 109t136.5 40h212v-500h-83v201h-95l-145 -201h-87zM371 446h-122q-52 0 -83 -25t-31 -70q0 -46 31 -71t83 -25h122v191z" />
    <glyph glyph-name="uni0450" unicode="&#x450;" horiz-adv-x="568" 
d="M295 504q100 0 159.5 -70t53.5 -204h-372q1 -84 44.5 -131.5t113.5 -47.5q57 0 94 29t37 76h80q0 -72 -59 -116t-151 -44q-110 0 -176.5 68t-66.5 186q0 119 66 186.5t177 67.5zM294 449q-69 0 -113 -45.5t-44 -123.5h289q0 79 -37 124t-95 45zM269 700l112 -134h-62
l-131 134h81z" />
    <glyph glyph-name="afii10071" unicode="&#x451;" horiz-adv-x="568" 
d="M295 504q100 0 159.5 -70t53.5 -204h-372q1 -84 44.5 -131.5t113.5 -47.5q57 0 94 29t37 76h80q0 -72 -59 -116t-151 -44q-110 0 -176.5 68t-66.5 186q0 119 66 186.5t177 67.5zM294 449q-69 0 -113 -45.5t-44 -123.5h289q0 79 -37 124t-95 45zM145 579v96h70v-96h-70z
M358 579v96h71v-96h-71z" />
    <glyph glyph-name="afii10099" unicode="&#x452;" horiz-adv-x="613" 
d="M108 0v587h-80v54h80v84h83v-84h167v-54h-167v-182q51 99 167 99q83 0 134 -48t51 -132v-416q0 -135 -192 -135v55q50 0 79.5 20t29.5 55v421q0 58 -33.5 91.5t-88.5 33.5q-67 0 -107 -52.5t-40 -146.5v-250h-83z" />
    <glyph glyph-name="afii10100" unicode="&#x453;" horiz-adv-x="448" 
d="M128 566l111 134h82l-132 -134h-61zM407 500v-54h-251v-446h-83v500h334z" />
    <glyph glyph-name="afii10101" unicode="&#x454;" horiz-adv-x="558" 
d="M295 449q-68 0 -112 -45t-47 -124h252v-52h-252q1 -83 44.5 -130t114.5 -47q52 0 86.5 30t34.5 78h81q0 -73 -57 -118t-145 -45q-110 0 -176.5 68t-66.5 186t66.5 186t176.5 68q88 0 145 -45t57 -118h-81q0 48 -34.5 78t-86.5 30z" />
    <glyph glyph-name="afii10102" unicode="&#x455;" horiz-adv-x="510" 
d="M49 157h81q0 -48 34.5 -77t88.5 -29q53 0 85 23t32 63q0 37 -32 56.5t-77.5 28t-91 19.5t-77.5 41t-32 81q0 66 52.5 103.5t137.5 37.5q82 0 134.5 -41.5t52.5 -109.5h-77q0 42 -31.5 69t-79.5 27t-77 -23t-29 -63q0 -35 32 -53.5t77.5 -26.5t91 -19.5t77.5 -43t32 -85.5
q0 -65 -55.5 -102t-146.5 -37q-89 0 -145.5 44t-56.5 117z" />
    <glyph glyph-name="afii10103" unicode="&#x456;" horiz-adv-x="230" 
d="M73 592v108h83v-108h-83zM73 0v500h83v-500h-83z" />
    <glyph glyph-name="afii10104" unicode="&#x457;" horiz-adv-x="230" 
d="M-26 579v96h70v-96h-70zM187 579v96h71v-96h-71zM73 0v500h83v-500h-83z" />
    <glyph glyph-name="afii10105" unicode="&#x458;" horiz-adv-x="230" 
d="M73 592v108h83v-108h-83zM156 500v-573q0 -146 -171 -146v55q40 0 64 22t24 62v580h83z" />
    <glyph glyph-name="afii10106" unicode="&#x459;" horiz-adv-x="872" 
d="M427 0v446h-199q0 -105 -4 -178.5t-15 -124t-23.5 -79.5t-36.5 -44t-47 -19.5t-61 -4.5v55q21 0 33.5 3.5t27 17.5t22.5 43t15 78t10 125t3 182h358v-192h116q87 0 140.5 -41t53.5 -113t-53.5 -113t-140.5 -41h-199zM510 54h108q56 0 88.5 26.5t32.5 73.5t-32.5 73.5
t-88.5 26.5h-108v-200z" />
    <glyph glyph-name="afii10107" unicode="&#x45a;" horiz-adv-x="845" 
d="M404 0v240h-248v-240h-83v500h83v-206h248v206h83v-205h116q86 0 138 -39.5t52 -108.5t-52.5 -108t-137.5 -39h-199zM487 54h109q52 0 83.5 24.5t31.5 68.5t-31 69t-84 25h-109v-187z" />
    <glyph glyph-name="afii10108" unicode="&#x45b;" horiz-adv-x="613" 
d="M28 587v54h80v84h83v-84h167v-54h-167v-182q51 99 167 99q83 0 134 -48t51 -132v-324h-83v324q0 58 -33.5 91.5t-88.5 33.5q-67 0 -107 -52.5t-40 -146.5v-250h-83v587h-80z" />
    <glyph glyph-name="afii10109" unicode="&#x45c;" horiz-adv-x="531" 
d="M169 566l111 134h82l-132 -134h-61zM414 0l-178 239l-80 -82v-157h-83v500h83v-243l226 243h97l-193 -209l219 -291h-91z" />
    <glyph glyph-name="uni045D" unicode="&#x45d;" horiz-adv-x="582" 
d="M275 700l112 -134h-62l-131 134h81zM427 0v382l-276 -382h-78v500h82v-382l276 382h77v-500h-81z" />
    <glyph glyph-name="afii10110" unicode="&#x45e;" horiz-adv-x="537" 
d="M513 500l-232 -580q-53 -139 -224 -139v55q50 0 89.5 22.5t55.5 61.5l35 80h-15l-198 500h85l159 -425l160 425h85zM114 681h60q0 -36 26.5 -58t67.5 -22t67.5 22t26.5 58h61q0 -58 -43 -92t-112 -34q-68 0 -111 34t-43 92z" />
    <glyph glyph-name="afii10193" unicode="&#x45f;" horiz-adv-x="585" 
d="M73 0v500h83v-446h272v446h83v-500h-181v-151h-76v151h-181z" />
    <glyph glyph-name="afii10050" unicode="&#x490;" horiz-adv-x="528" 
d="M82 0v700h329v136h73v-196h-316v-640h-86z" />
    <glyph glyph-name="afii10098" unicode="&#x491;" horiz-adv-x="433" 
d="M73 0v500h236v120h65v-174h-218v-446h-83z" />
    <glyph glyph-name="uni04D8" unicode="&#x4d8;" horiz-adv-x="705" 
d="M59 344q0 18 3 37h500q-6 124 -66 193t-157 69q-85 0 -137.5 -43.5t-52.5 -117.5h-85q0 101 76.5 161.5t196.5 60.5q141 0 227 -94.5t86 -259.5t-84 -259.5t-223 -94.5q-142 0 -213 92t-71 256zM345 57q94 0 153 69.5t64 194.5h-418v-10q0 -119 51.5 -186.5t149.5 -67.5z
" />
    <glyph glyph-name="afii10846" unicode="&#x4d9;" horiz-adv-x="568" 
d="M274 -4q-100 0 -159.5 72.5t-53.5 210.5h371q-1 80 -44.5 125t-113.5 45q-56 0 -93 -27t-37 -70h-80q0 69 58.5 110.5t151.5 41.5q110 0 176.5 -68t66.5 -186q0 -119 -66 -186.5t-177 -67.5zM277 51q68 0 111.5 48t43.5 129h-289q0 -83 37.5 -130t96.5 -47z" />
    <glyph glyph-name="Wgrave" unicode="&#x1e80;" horiz-adv-x="1034" 
d="M688 0l-172 590l-171 -590h-98l-218 700h89l178 -612l177 612h87l177 -612l178 612h90l-219 -700h-98zM491 900l112 -134h-62l-131 134h81z" />
    <glyph glyph-name="wgrave" unicode="&#x1e81;" horiz-adv-x="808" 
d="M526 0l-123 396l-122 -396h-92l-165 500h86l126 -421l127 421h81l127 -421l127 421h86l-166 -500h-92zM379 700l112 -134h-62l-131 134h81z" />
    <glyph glyph-name="Wacute" unicode="&#x1e82;" horiz-adv-x="1034" 
d="M688 0l-172 590l-171 -590h-98l-218 700h89l178 -612l177 612h87l177 -612l178 612h90l-219 -700h-98zM430 766l111 134h82l-132 -134h-61z" />
    <glyph glyph-name="wacute" unicode="&#x1e83;" horiz-adv-x="808" 
d="M526 0l-123 396l-122 -396h-92l-165 500h86l126 -421l127 421h81l127 -421l127 421h86l-166 -500h-92zM318 566l111 134h82l-132 -134h-61z" />
    <glyph glyph-name="Wdieresis" unicode="&#x1e84;" horiz-adv-x="1034" 
d="M688 0l-172 590l-171 -590h-98l-218 700h89l178 -612l177 612h87l177 -612l178 612h90l-219 -700h-98zM375 779v96h70v-96h-70zM588 779v96h71v-96h-71z" />
    <glyph glyph-name="wdieresis" unicode="&#x1e85;" horiz-adv-x="808" 
d="M526 0l-123 396l-122 -396h-92l-165 500h86l126 -421l127 421h81l127 -421l127 421h86l-166 -500h-92zM262 579v96h70v-96h-70zM475 579v96h71v-96h-71z" />
    <glyph glyph-name="Ygrave" unicode="&#x1ef2;" horiz-adv-x="681" 
d="M297 0v275l-256 425h94l206 -351l206 351h95l-258 -425v-275h-87zM315 900l112 -134h-62l-131 134h81z" />
    <glyph glyph-name="ygrave" unicode="&#x1ef3;" horiz-adv-x="537" 
d="M513 500l-232 -580q-53 -139 -224 -139v55q50 0 89.5 22.5t55.5 61.5l35 80h-15l-198 500h85l159 -425l160 425h85zM243 700l112 -134h-62l-131 134h81z" />
    <glyph glyph-name="figuredash" unicode="&#x2012;" horiz-adv-x="546" 
d="M57 324v52h432v-52h-432z" />
    <glyph glyph-name="endash" unicode="&#x2013;" horiz-adv-x="536" 
d="M57 249v52h422v-52h-422z" />
    <glyph glyph-name="emdash" unicode="&#x2014;" horiz-adv-x="796" 
d="M57 249v52h682v-52h-682z" />
    <glyph glyph-name="quoteleft" unicode="&#x2018;" horiz-adv-x="217" 
d="M156 559v-106h-93v106q0 63 26 104t68 41v-49q-17 0 -28.5 -27.5t-11.5 -68.5h39z" />
    <glyph glyph-name="quoteright" unicode="&#x2019;" horiz-adv-x="217" 
d="M64 594v106h93v-106q0 -63 -26 -103.5t-68 -40.5v48q17 0 28 27.5t11 68.5h-38z" />
    <glyph glyph-name="quotesinglbase" unicode="&#x201a;" horiz-adv-x="217" 
d="M64 0v106h93v-106q0 -63 -26 -104t-68 -41v49q17 0 28 27t11 69h-38z" />
    <glyph glyph-name="quotedblleft" unicode="&#x201c;" horiz-adv-x="370" 
d="M156 559v-106h-93v106q0 63 26 104t68 41v-49q-17 0 -28.5 -27.5t-11.5 -68.5h39zM309 559v-106h-94v106q0 64 26.5 104.5t68.5 40.5v-49q-17 0 -28.5 -27t-11.5 -69h39z" />
    <glyph glyph-name="quotedblright" unicode="&#x201d;" horiz-adv-x="370" 
d="M64 594v106h93v-106q0 -63 -26 -103.5t-68 -40.5v48q17 0 28 27.5t11 68.5h-38zM216 594v106h94v-106q0 -63 -26.5 -103.5t-68.5 -40.5v48q17 0 28.5 27.5t11.5 68.5h-39z" />
    <glyph glyph-name="quotedblbase" unicode="&#x201e;" horiz-adv-x="370" 
d="M64 0v106h93v-106q0 -63 -26 -104t-68 -41v49q17 0 28 27t11 69h-38zM216 0v106h94v-106q0 -64 -26.5 -104.5t-68.5 -40.5v49q17 0 28.5 27.5t11.5 68.5h-39z" />
    <glyph glyph-name="dagger" unicode="&#x2020;" horiz-adv-x="517" 
d="M39 455v54h183v191h74v-191h182v-54h-182v-555h-74v555h-183z" />
    <glyph glyph-name="daggerdbl" unicode="&#x2021;" horiz-adv-x="517" 
d="M478 145v-54h-182v-191h-74v191h-183v54h183v310h-183v54h183v191h74v-191h182v-54h-182v-310h182z" />
    <glyph glyph-name="bullet" unicode="&#x2022;" horiz-adv-x="324" 
d="M52 325q0 50 30 79t80 29t80 -29t30 -79q0 -49 -30 -78t-80 -29t-80 29t-30 78z" />
    <glyph glyph-name="ellipsis" unicode="&#x2026;" horiz-adv-x="608" 
d="M61 0v106h93v-106h-93zM255 0v106h94v-106h-94zM450 0v106h94v-106h-94z" />
    <glyph glyph-name="perthousand" unicode="&#x2030;" horiz-adv-x="1029" 
d="M137 0l396 700h66l-397 -700h-65zM44 566q0 64 38.5 101t100.5 37q64 0 102 -37t38 -101t-38 -100.5t-102 -36.5q-62 0 -100.5 36.5t-38.5 100.5zM95 566q0 -43 24 -66.5t65 -23.5q40 0 64 23.5t24 66.5q0 42 -24 66t-64 24q-41 0 -65 -24t-24 -66zM382 133
q0 64 38.5 101t101.5 37q64 0 102 -37t38 -101t-38 -100.5t-102 -36.5q-63 0 -101.5 36.5t-38.5 100.5zM433 133q0 -42 24 -66t65 -24q40 0 64 24t24 66t-24 66t-64 24q-41 0 -65 -24t-24 -66zM705 133q0 64 38 101t102 37q63 0 101 -37t38 -101t-38 -100.5t-101 -36.5
q-64 0 -102 36.5t-38 100.5zM756 133q0 -42 24 -66t65 -24q40 0 64 24t24 66t-24 66t-64 24q-41 0 -65 -24t-24 -66z" />
    <glyph glyph-name="guilsinglleft" unicode="&#x2039;" horiz-adv-x="291" 
d="M54 303l175 162v-80l-119 -110l119 -110v-80l-175 162v56z" />
    <glyph glyph-name="guilsinglright" unicode="&#x203a;" horiz-adv-x="291" 
d="M237 247l-175 -162v80l118 110l-118 110v80l175 -162v-56z" />
    <glyph glyph-name="fraction" unicode="&#x2044;" horiz-adv-x="487" 
d="M36 0l350 700h65l-350 -700h-65z" />
    <glyph glyph-name="Euro" unicode="&#x20ac;" horiz-adv-x="758" 
d="M41 398v50h76q25 121 107.5 188.5t203.5 67.5q118 0 192.5 -62.5t74.5 -166.5h-84q0 77 -51 122.5t-134 45.5q-85 0 -143 -50.5t-78 -144.5h276v-50h-284q-2 -16 -2 -48q0 -34 2 -50h284v-51h-276q21 -92 79 -142t142 -50q83 0 134 45.5t51 122.5h84q0 -104 -74.5 -166.5
t-192.5 -62.5q-120 0 -202.5 66.5t-107.5 186.5h-77v51h69q-2 16 -2 50q0 32 2 48h-69z" />
    <glyph glyph-name="uni20B4" unicode="&#x20b4;" horiz-adv-x="562" 
d="M56 264v49h451v-49h-318q-48 -43 -48 -102q0 -49 35 -78t92 -29q74 0 121 38t47 101h81q0 -90 -69.5 -144t-181.5 -54q-94 0 -152 42t-58 118q0 63 43 108h-43zM56 391v49h303q60 41 60 102q0 46 -32 74.5t-83 28.5q-70 0 -115.5 -35.5t-45.5 -92.5h-81q0 84 68 135.5
t176 51.5q88 0 143 -42t55 -114q0 -65 -53 -108h56v-49h-451z" />
    <glyph glyph-name="afii61352" unicode="&#x2116;" horiz-adv-x="1049" 
d="M164 566v-566h-82v700h83l388 -566v566h83v-700h-83zM718 566q0 64 38.5 101t100.5 37q64 0 102 -37t38 -101t-38 -100.5t-102 -36.5q-62 0 -100.5 36.5t-38.5 100.5zM769 566q0 -43 24 -66.5t65 -23.5q40 0 64 23.5t24 66.5q0 42 -24 66t-64 24q-41 0 -65 -24t-24 -66z
M725 297v52h265v-52h-265z" />
    <glyph glyph-name="trademark" unicode="&#x2122;" horiz-adv-x="800" 
d="M28 663v37h287v-37h-116v-313h-55v313h-116zM365 350v350h83l111 -286l110 286h84v-350h-53v289l-114 -289h-55l-113 289v-289h-53z" />
    <glyph glyph-name="arrowleft" unicode="&#x2190;" horiz-adv-x="1111" 
d="M410 -4l-354 354l354 354l40 -40l-287 -286h865v-56h-865l287 -286z" />
    <glyph glyph-name="arrowup" unicode="&#x2191;" horiz-adv-x="820" 
d="M382 -218v865l-286 -286l-40 39l354 354l354 -354l-40 -39l-286 286v-865h-56z" />
    <glyph glyph-name="arrowright" unicode="&#x2192;" horiz-adv-x="1111" 
d="M83 322v56h865l-287 286l39 40l354 -354l-354 -354l-39 40l287 286h-865z" />
    <glyph glyph-name="arrowdown" unicode="&#x2193;" horiz-adv-x="820" 
d="M410 -222l-354 354l40 40l286 -287v865h56v-865l286 287l40 -40z" />
    <glyph glyph-name="uni2196" unicode="&#x2196;" horiz-adv-x="846" 
d="M83 200v500h500v-56h-405l611 -611l-39 -40l-611 612v-405h-56z" />
    <glyph glyph-name="uni2197" unicode="&#x2197;" horiz-adv-x="846" 
d="M263 644v56h500v-500h-56v405l-611 -612l-40 40l612 611h-405z" />
    <glyph glyph-name="uni2198" unicode="&#x2198;" horiz-adv-x="846" 
d="M263 0v56h405l-612 611l40 40l611 -612v405h56v-500h-500z" />
    <glyph glyph-name="uni2199" unicode="&#x2199;" horiz-adv-x="846" 
d="M83 0v500h56v-405l611 612l39 -40l-611 -611h405v-56h-500z" />
    <glyph glyph-name="minus" unicode="&#x2212;" horiz-adv-x="486" 
d="M57 324v52h372v-52h-372z" />
    <glyph glyph-name="commaaccent" unicode="&#xf6c3;" horiz-adv-x="217" 
d="M76 -123v73h68v-73q0 -44 -19 -72t-50 -28v33q14 0 22.5 19t8.5 48h-30z" />
    <glyph glyph-name="dollaroldstyle" unicode="&#xf724;" horiz-adv-x="500" 
d="M215 -73v71q-76 7 -122.5 49t-46.5 107h69q0 -50 36.5 -79.5t94.5 -29.5q57 0 92 24.5t35 65.5q0 39 -32.5 60t-78.5 29.5t-92.5 19t-79 40t-32.5 81.5q0 59 42.5 95.5t114.5 42.5v71h62v-71q68 -8 110 -47.5t42 -98.5h-69q0 45 -32.5 72t-83.5 27t-82 -25t-31 -66
q0 -37 32.5 -56.5t78.5 -28t92 -19t78.5 -41t32.5 -83.5q0 -61 -46 -97.5t-122 -41.5v-71h-62z" />
    <glyph glyph-name="zerooldstyle" unicode="&#xf730;" horiz-adv-x="571" 
d="M52 250q0 118 64 186t169 68q106 0 170 -68t64 -186t-64 -186t-170 -68q-105 0 -169 68t-64 186zM135 250q0 -94 40.5 -146.5t109.5 -52.5t110 52.5t41 146.5t-41 146.5t-110 52.5t-109.5 -52.5t-40.5 -146.5z" />
    <glyph glyph-name="oneoldstyle" unicode="&#xf731;" horiz-adv-x="329" 
d="M42 380v48q77 0 104.5 15t27.5 57h73v-500h-83v380h-122z" />
    <glyph glyph-name="twooldstyle" unicode="&#xf732;" horiz-adv-x="481" 
d="M51 0v54q11 28 46 57.5t75.5 55t80 53t65.5 61t26 68.5q0 46 -29 73t-76 27q-48 0 -79.5 -27t-31.5 -69h-77q0 68 52.5 109.5t133.5 41.5q85 0 137.5 -41.5t52.5 -113.5q0 -43 -24 -80.5t-60.5 -65.5t-74.5 -52t-72.5 -49.5t-47.5 -47.5h282v-54h-379z" />
    <glyph glyph-name="threeoldstyle" unicode="&#xf733;" horiz-adv-x="563" 
d="M217 150v54h29q68 0 108.5 32.5t40.5 89.5t-32.5 90t-87.5 33q-57 0 -92 -37t-35 -99h-81q0 87 58.5 139t150.5 52q95 0 148 -45.5t53 -126.5q0 -54 -29 -92.5t-80 -58.5q65 -18 102.5 -66t37.5 -119q0 -96 -57 -150.5t-158 -54.5q-99 0 -162.5 54t-63.5 145h82
q0 -65 40 -104.5t104 -39.5q59 0 95.5 42t36.5 115q0 67 -41 107t-110 40h-57z" />
    <glyph glyph-name="fouroldstyle" unicode="&#xf734;" horiz-adv-x="560" 
d="M364 -215v215h-324v60l297 440h105v-440h73v-60h-73v-215h-78zM119 60h245v368z" />
    <glyph glyph-name="fiveoldstyle" unicode="&#xf735;" horiz-adv-x="574" 
d="M77 129l40 371h363v-56h-291l-27 -239q50 50 135 50q99 0 160 -66t61 -174q0 -110 -61 -172t-166 -62q-99 0 -162.5 57t-63.5 152h80q0 -68 40.5 -110t104.5 -42q66 0 106 47.5t40 129.5q0 84 -42 135.5t-112 51.5q-45 0 -79 -19.5t-49 -53.5h-77z" />
    <glyph glyph-name="sixoldstyle" unicode="&#xf736;" horiz-adv-x="575" 
d="M521 229q0 -108 -64 -170.5t-168 -62.5q-234 0 -234 355q0 173 65 275.5t168 102.5q89 0 144.5 -44.5t55.5 -124.5h-79q0 55 -33.5 84t-88.5 29q-69 0 -112 -80t-44 -239q55 108 174 108q97 0 156.5 -62.5t59.5 -170.5zM146 228q0 -83 39 -130t104 -47q69 0 110 47
t41 130q0 84 -41 131t-110 47q-65 0 -104 -47.5t-39 -130.5z" />
    <glyph glyph-name="sevenoldstyle" unicode="&#xf737;" horiz-adv-x="479" 
d="M41 444v56h393v-56l-225 -659h-83l227 659h-312z" />
    <glyph glyph-name="eightoldstyle" unicode="&#xf738;" horiz-adv-x="571" 
d="M83 554q0 82 55.5 128.5t146.5 46.5t146.5 -46.5t55.5 -128.5q0 -58 -28.5 -98.5t-78.5 -58.5q65 -21 102 -70.5t37 -122.5q0 -97 -64.5 -152.5t-169.5 -55.5t-169 55.5t-64 152.5q0 73 37 122.5t101 70.5q-50 18 -78.5 58.5t-28.5 98.5zM135 209q0 -74 41 -116t109 -42
q69 0 110 42t41 116q0 75 -41 117t-110 42t-109.5 -42t-40.5 -117zM165 548q0 -59 32.5 -92t87.5 -33q56 0 88.5 33t32.5 92t-33 92.5t-88 33.5t-87.5 -33.5t-32.5 -92.5z" />
    <glyph glyph-name="nineoldstyle" unicode="&#xf739;" horiz-adv-x="567" 
d="M55 281q0 104 62.5 163.5t164.5 59.5q67 0 113.5 -27.5t71 -79.5t35 -113t10.5 -141q0 -171 -62 -266.5t-174 -95.5q-92 0 -150.5 48.5t-58.5 128.5h81q0 -55 35.5 -88.5t92.5 -33.5q79 0 120 81.5t35 241.5q-20 -41 -63.5 -72t-101.5 -31q-95 0 -153 60t-58 165z
M418 281q0 79 -37.5 123.5t-99.5 44.5q-65 0 -104 -44.5t-39 -123.5q0 -80 39 -125t104 -45q63 0 100 45t37 125z" />
    <glyph glyph-name="T_h" horiz-adv-x="1151" 
d="M729 250v-250h-83v640h-281v-640h-86v640h-236v60h603v25h83v-320q51 99 166 99q83 0 134 -48t51 -132v-324h-83v324q0 58 -33 91.5t-88 33.5q-67 0 -107 -52.5t-40 -146.5z" />
    <glyph glyph-name="T_h.caron" horiz-adv-x="1151" 
d="M729 250v-250h-83v640h-281v-640h-86v640h-236v60h603v25h83v-320q51 99 166 99q83 0 134 -48t51 -132v-324h-83v324q0 58 -33 91.5t-88 33.5q-67 0 -107 -52.5t-40 -146.5zM286 766l-118 134h68l86 -99l85 99h69l-119 -134h-71z" />
    <glyph glyph-name="T_h.commaaccent" horiz-adv-x="1151" 
d="M729 250v-250h-83v640h-281v-640h-86v640h-236v60h603v25h83v-320q51 99 166 99q83 0 134 -48t51 -132v-324h-83v324q0 58 -33 91.5t-88 33.5q-67 0 -107 -52.5t-40 -146.5zM287 -123v73h68v-73q0 -44 -19 -72t-50 -28v33q14 0 22.5 19t8.5 48h-30z" />
    <glyph glyph-name="A.smcp" horiz-adv-x="572" 
d="M34 0l205 525h95l204 -525h-83l-54 134h-230l-53 -134h-84zM287 456l-102 -266h203z" />
    <glyph glyph-name="Aacute.smcp" horiz-adv-x="572" 
d="M34 0l205 525h95l204 -525h-83l-54 134h-230l-53 -134h-84zM287 456l-102 -266h203zM193 566l111 134h82l-132 -134h-61z" />
    <glyph glyph-name="Abreve.smcp" horiz-adv-x="572" 
d="M34 0l205 525h95l204 -525h-83l-54 134h-230l-53 -134h-84zM287 456l-102 -266h203zM131 682h60q0 -36 26.5 -58t67.5 -22t67.5 22t26.5 58h61q0 -58 -43 -92t-112 -34q-68 0 -111 34t-43 92z" />
    <glyph glyph-name="Acircumflex.smcp" horiz-adv-x="572" 
d="M34 0l205 525h95l204 -525h-83l-54 134h-230l-53 -134h-84zM287 456l-102 -266h203zM321 700l119 -134h-69l-85 99l-86 -99h-68l118 134h71z" />
    <glyph glyph-name="Agrave.smcp" horiz-adv-x="572" 
d="M34 0l205 525h95l204 -525h-83l-54 134h-230l-53 -134h-84zM287 456l-102 -266h203zM263 700l112 -134h-62l-131 134h81z" />
    <glyph glyph-name="Adieresis.smcp" horiz-adv-x="572" 
d="M34 0l205 525h95l204 -525h-83l-54 134h-230l-53 -134h-84zM287 456l-102 -266h203zM144 579v96h70v-96h-70zM357 579v96h71v-96h-71z" />
    <glyph glyph-name="Amacron.smcp" horiz-adv-x="572" 
d="M34 0l205 525h95l204 -525h-83l-54 134h-230l-53 -134h-84zM287 456l-102 -266h203zM153 592v53h266v-53h-266z" />
    <glyph glyph-name="Aogonek.smcp" horiz-adv-x="572" 
d="M34 0l205 525h95l199 -513h1l-1 -1l5 -11h-16q-54 -60 -54 -110q0 -42 49 -42q34 0 66 30v-42q-31 -28 -75 -28q-40 0 -65 20.5t-25 57.5q0 58 53 114h-16l-54 134h-230l-53 -134h-84zM287 456l-102 -266h203z" />
    <glyph glyph-name="Aring.smcp" horiz-adv-x="572" 
d="M34 0l205 525h95l204 -525h-83l-54 134h-230l-53 -134h-84zM287 456l-102 -266h203zM191 634q0 44 26 68.5t69 24.5t69 -24.5t26 -68.5q0 -42 -26 -66.5t-69 -24.5t-69 24.5t-26 66.5zM233 634q0 -25 14.5 -39.5t38.5 -14.5t38 14.5t14 39.5q0 26 -14 40.5t-38 14.5
t-38.5 -14.5t-14.5 -40.5z" />
    <glyph glyph-name="Atilde.smcp" horiz-adv-x="572" 
d="M34 0l205 525h95l204 -525h-83l-54 134h-230l-53 -134h-84zM287 456l-102 -266h203zM130 583q0 43 25 68t64 25q35 0 68 -25.5t57 -25.5q21 0 34 12.5t13 33.5h51q0 -42 -26 -67.5t-63 -25.5q-35 0 -69 25.5t-56 25.5t-35 -12t-13 -34h-50z" />
    <glyph glyph-name="AE.smcp" horiz-adv-x="656" 
d="M292 0v134h-121l-53 -134h-84l204 525h368v-55h-236v-172h207v-56h-207v-187h240v-55h-318zM185 190h107v280h-4z" />
    <glyph glyph-name="AEacute.smcp" horiz-adv-x="656" 
d="M292 0v134h-121l-53 -134h-84l204 525h368v-55h-236v-172h207v-56h-207v-187h240v-55h-318zM185 190h107v280h-4zM237 566l111 134h82l-132 -134h-61z" />
    <glyph glyph-name="B.smcp" horiz-adv-x="540" 
d="M75 0v525h212q80 0 128 -36t48 -98q0 -84 -85 -117q51 -14 80 -48t29 -84q0 -66 -49 -104t-130 -38h-233zM158 55h135q52 0 82.5 25.5t30.5 69.5t-30.5 68.5t-82.5 24.5h-135v-188zM272 470h-114v-171h114q50 0 79.5 22.5t29.5 62.5t-29 63t-80 23z" />
    <glyph glyph-name="C.smcp" 
d="M310 472q-80 0 -127 -54.5t-47 -154.5t47 -155t127 -55q63 0 101 32t38 88h81q0 -81 -60.5 -128.5t-157.5 -47.5q-117 0 -188 71t-71 195q0 123 71 194t188 71q97 0 157.5 -47.5t60.5 -128.5h-81q0 56 -38 88t-101 32z" />
    <glyph glyph-name="Cacute.smcp" 
d="M310 472q-80 0 -127 -54.5t-47 -154.5t47 -155t127 -55q63 0 101 32t38 88h81q0 -81 -60.5 -128.5t-157.5 -47.5q-117 0 -188 71t-71 195q0 123 71 194t188 71q97 0 157.5 -47.5t60.5 -128.5h-81q0 56 -38 88t-101 32zM219 566l111 134h82l-132 -134h-61z" />
    <glyph glyph-name="Ccaron.smcp" 
d="M310 472q-80 0 -127 -54.5t-47 -154.5t47 -155t127 -55q63 0 101 32t38 88h81q0 -81 -60.5 -128.5t-157.5 -47.5q-117 0 -188 71t-71 195q0 123 71 194t188 71q97 0 157.5 -47.5t60.5 -128.5h-81q0 56 -38 88t-101 32zM271 566l-118 134h68l86 -99l85 99h69l-119 -134
h-71z" />
    <glyph glyph-name="Ccedilla.smcp" 
d="M310 472q-80 0 -127 -54.5t-47 -154.5t47 -155t127 -55q63 0 101 32t38 88h81q0 -76 -54.5 -123t-142.5 -52v-6q0 -21 10.5 -35t23 -20t23 -20t10.5 -36q0 -34 -23.5 -53.5t-61.5 -19.5q-42 0 -70 28v40q30 -28 62 -28q20 0 31.5 10t11.5 26q0 13 -10.5 23t-22.5 17
t-22.5 24.5t-10.5 43.5v6q-105 8 -168 78t-63 187q0 123 71 194t188 71q97 0 157.5 -47.5t60.5 -128.5h-81q0 56 -38 88t-101 32z" />
    <glyph glyph-name="Ccircumflex.smcp" 
d="M310 472q-80 0 -127 -54.5t-47 -154.5t47 -155t127 -55q63 0 101 32t38 88h81q0 -81 -60.5 -128.5t-157.5 -47.5q-117 0 -188 71t-71 195q0 123 71 194t188 71q97 0 157.5 -47.5t60.5 -128.5h-81q0 56 -38 88t-101 32zM342 700l119 -134h-69l-85 99l-86 -99h-68l118 134
h71z" />
    <glyph glyph-name="Cdotaccent.smcp" 
d="M310 472q-80 0 -127 -54.5t-47 -154.5t47 -155t127 -55q63 0 101 32t38 88h81q0 -81 -60.5 -128.5t-157.5 -47.5q-117 0 -188 71t-71 195q0 123 71 194t188 71q97 0 157.5 -47.5t60.5 -128.5h-81q0 56 -38 88t-101 32zM265 584v108h83v-108h-83z" />
    <glyph glyph-name="D.smcp" horiz-adv-x="575" 
d="M64 0v525h206q114 0 183 -70t69 -192q0 -123 -69 -193t-183 -70h-206zM147 55h116q82 0 129.5 54.5t47.5 153.5q0 98 -48 152.5t-129 54.5h-116v-415z" />
    <glyph glyph-name="Dcaron.smcp" horiz-adv-x="575" 
d="M64 0v525h206q114 0 183 -70t69 -192q0 -123 -69 -193t-183 -70h-206zM147 55h116q82 0 129.5 54.5t47.5 153.5q0 98 -48 152.5t-129 54.5h-116v-415zM231 566l-118 134h68l86 -99l85 99h69l-119 -134h-71z" />
    <glyph glyph-name="Dcroat.smcp" horiz-adv-x="608" 
d="M96 0v244h-62v50h62v231h206q114 0 183 -70t69 -192q0 -123 -69 -193t-183 -70h-206zM179 55h116q81 0 128.5 54.5t47.5 153.5q0 98 -47.5 152.5t-128.5 54.5h-116v-176h128v-50h-128v-189z" />
    <glyph glyph-name="Eth.smcp" horiz-adv-x="608" 
d="M96 0v244h-62v50h62v231h206q114 0 183 -70t69 -192q0 -123 -69 -193t-183 -70h-206zM179 55h116q81 0 128.5 54.5t47.5 153.5q0 98 -47.5 152.5t-128.5 54.5h-116v-176h128v-50h-128v-189z" />
    <glyph glyph-name="Thorn.smcp" horiz-adv-x="505" 
d="M75 0v518h83v-101h115q81 0 130 -40.5t49 -112.5q0 -71 -49 -111.5t-130 -40.5h-115v-112h-83zM258 362h-100v-194h100q52 0 82.5 25.5t30.5 70.5q0 47 -30.5 72.5t-82.5 25.5z" />
    <glyph glyph-name="E.smcp" horiz-adv-x="493" 
d="M75 0v525h367v-55h-284v-172h255v-56h-255v-187h288v-55h-371z" />
    <glyph glyph-name="Eacute.smcp" horiz-adv-x="493" 
d="M75 0v525h367v-55h-284v-172h255v-56h-255v-187h288v-55h-371zM174 566l111 134h82l-132 -134h-61z" />
    <glyph glyph-name="Ebreve.smcp" horiz-adv-x="493" 
d="M75 0v525h367v-55h-284v-172h255v-56h-255v-187h288v-55h-371zM108 682h60q0 -36 26.5 -58t67.5 -22t67.5 22t26.5 58h61q0 -58 -43 -92t-112 -34q-68 0 -111 34t-43 92z" />
    <glyph glyph-name="Ecaron.smcp" horiz-adv-x="493" 
d="M75 0v525h367v-55h-284v-172h255v-56h-255v-187h288v-55h-371zM226 566l-118 134h68l86 -99l85 99h69l-119 -134h-71z" />
    <glyph glyph-name="Ecircumflex.smcp" horiz-adv-x="493" 
d="M75 0v525h367v-55h-284v-172h255v-56h-255v-187h288v-55h-371zM297 700l119 -134h-69l-85 99l-86 -99h-68l118 134h71z" />
    <glyph glyph-name="Edieresis.smcp" horiz-adv-x="493" 
d="M75 0v525h367v-55h-284v-172h255v-56h-255v-187h288v-55h-371zM120 579v96h70v-96h-70zM333 579v96h71v-96h-71z" />
    <glyph glyph-name="Edotaccent.smcp" horiz-adv-x="493" 
d="M75 0v525h367v-55h-284v-172h255v-56h-255v-187h288v-55h-371zM220 584v108h83v-108h-83z" />
    <glyph glyph-name="Egrave.smcp" horiz-adv-x="493" 
d="M75 0v525h367v-55h-284v-172h255v-56h-255v-187h288v-55h-371zM239 700l112 -134h-62l-131 134h81z" />
    <glyph glyph-name="Emacron.smcp" horiz-adv-x="493" 
d="M75 0v525h367v-55h-284v-172h255v-56h-255v-187h288v-55h-371zM129 592v53h266v-53h-266z" />
    <glyph glyph-name="Eogonek.smcp" horiz-adv-x="493" 
d="M75 0v525h367v-55h-284v-172h255v-56h-255v-187h288v-55h-44q-54 -60 -54 -110q0 -42 49 -42q34 0 66 30v-42q-32 -28 -75 -28q-40 0 -65 20.5t-25 57.5q0 58 53 114h-276z" />
    <glyph glyph-name="F.smcp" horiz-adv-x="469" 
d="M395 298v-56h-237v-242h-83v525h348v-55h-265v-172h237z" />
    <glyph glyph-name="G.smcp" 
d="M327 223v56h203v-279h-67l-5 63q-45 -66 -146 -66q-117 0 -188 71t-71 195q0 123 71 194t188 71q97 0 157.5 -46.5t60.5 -125.5h-81q0 54 -38 85t-101 31q-80 0 -127 -54.5t-47 -154.5t47.5 -155t128.5 -55q67 0 106.5 35t39.5 98v37h-131z" />
    <glyph glyph-name="Gbreve.smcp" 
d="M327 223v56h203v-279h-67l-5 63q-45 -66 -146 -66q-117 0 -188 71t-71 195q0 123 71 194t188 71q97 0 157.5 -46.5t60.5 -125.5h-81q0 54 -38 85t-101 31q-80 0 -127 -54.5t-47 -154.5t47.5 -155t128.5 -55q67 0 106.5 35t39.5 98v37h-131zM156 682h60q0 -36 26.5 -58
t67.5 -22t67.5 22t26.5 58h61q0 -58 -43 -92t-112 -34q-68 0 -111 34t-43 92z" />
    <glyph glyph-name="Gcircumflex.smcp" 
d="M327 223v56h203v-279h-67l-5 63q-45 -66 -146 -66q-117 0 -188 71t-71 195q0 123 71 194t188 71q97 0 157.5 -46.5t60.5 -125.5h-81q0 54 -38 85t-101 31q-80 0 -127 -54.5t-47 -154.5t47.5 -155t128.5 -55q67 0 106.5 35t39.5 98v37h-131zM346 700l119 -134h-69l-85 99
l-86 -99h-68l118 134h71z" />
    <glyph glyph-name="Gcommaaccent.smcp" 
d="M327 223v56h203v-279h-67l-5 63q-45 -66 -146 -66q-117 0 -188 71t-71 195q0 123 71 194t188 71q97 0 157.5 -46.5t60.5 -125.5h-81q0 54 -38 85t-101 31q-80 0 -127 -54.5t-47 -154.5t47.5 -155t128.5 -55q67 0 106.5 35t39.5 98v37h-131zM276 -101v73h68v-73
q0 -44 -19 -72t-50 -28v33q14 0 22.5 19t8.5 48h-30z" />
    <glyph glyph-name="Gdotaccent.smcp" 
d="M327 223v56h203v-279h-67l-5 63q-45 -66 -146 -66q-117 0 -188 71t-71 195q0 123 71 194t188 71q97 0 157.5 -46.5t60.5 -125.5h-81q0 54 -38 85t-101 31q-80 0 -127 -54.5t-47 -154.5t47.5 -155t128.5 -55q67 0 106.5 35t39.5 98v37h-131zM269 584v108h83v-108h-83z" />
    <glyph glyph-name="H.smcp" horiz-adv-x="590" 
d="M432 0v242h-274v-242h-83v525h83v-227h274v227h83v-525h-83z" />
    <glyph glyph-name="Hbar.smcp" horiz-adv-x="606" 
d="M40 394v52h49v79h83v-79h262v79h83v-79h49v-52h-49v-394h-83v242h-262v-242h-83v394h-49zM172 298h262v96h-262v-96z" />
    <glyph glyph-name="Hcircumflex.smcp" horiz-adv-x="590" 
d="M432 0v242h-274v-242h-83v525h83v-227h274v227h83v-525h-83zM330 700l119 -134h-69l-85 99l-86 -99h-68l118 134h71z" />
    <glyph glyph-name="I.smcp" horiz-adv-x="232" 
d="M75 0v525h83v-525h-83z" />
    <glyph glyph-name="Iacute.smcp" horiz-adv-x="232" 
d="M75 0v525h83v-525h-83zM28 566l111 134h82l-132 -134h-61z" />
    <glyph glyph-name="Ibreve.smcp" horiz-adv-x="232" 
d="M75 0v525h83v-525h-83zM-38 682h60q0 -36 26.5 -58t67.5 -22t67.5 22t26.5 58h61q0 -58 -43 -92t-112 -34q-68 0 -111 34t-43 92z" />
    <glyph glyph-name="Icircumflex.smcp" horiz-adv-x="232" 
d="M75 0v525h83v-525h-83zM152 700l119 -134h-69l-85 99l-86 -99h-68l118 134h71z" />
    <glyph glyph-name="Idieresis.smcp" horiz-adv-x="232" 
d="M75 0v525h83v-525h-83zM-25 579v96h70v-96h-70zM188 579v96h71v-96h-71z" />
    <glyph glyph-name="Idotaccent.smcp" horiz-adv-x="232" 
d="M75 0v525h83v-525h-83zM75 584v108h83v-108h-83z" />
    <glyph glyph-name="Igrave.smcp" horiz-adv-x="232" 
d="M75 0v525h83v-525h-83zM93 700l112 -134h-62l-131 134h81z" />
    <glyph glyph-name="Imacron.smcp" horiz-adv-x="232" 
d="M75 0v525h83v-525h-83zM-16 592v53h266v-53h-266z" />
    <glyph glyph-name="Iogonek.smcp" horiz-adv-x="232" 
d="M75 0v525h83v-525h-16q-54 -60 -54 -110q0 -42 49 -42q34 0 66 30v-42q-31 -28 -75 -28q-40 0 -65 20.5t-25 57.5q0 58 53 114h-16z" />
    <glyph glyph-name="Itilde.smcp" horiz-adv-x="232" 
d="M75 0v525h83v-525h-83zM-39 583q0 43 25 68t64 25q35 0 68 -25.5t57 -25.5q21 0 34 12.5t13 33.5h51q0 -42 -26 -67.5t-63 -25.5q-35 0 -69 25.5t-56 25.5t-35 -12t-13 -34h-50z" />
    <glyph glyph-name="IJ.smcp" horiz-adv-x="511" 
d="M354 146v379h84v-379q0 -68 -51 -108.5t-131 -40.5t-130 40.5t-50 108.5v28h83v-28q0 -43 26.5 -68t70.5 -25t71 25.5t27 67.5zM76 253v272h83v-272h-83z" />
    <glyph glyph-name="J.smcp" horiz-adv-x="493" 
d="M336 146v379h84v-379q0 -68 -50.5 -108.5t-130.5 -40.5t-130.5 40.5t-50.5 108.5v28h83v-28q0 -42 27 -67.5t71 -25.5t70.5 25t26.5 68z" />
    <glyph glyph-name="Jcircumflex.smcp" horiz-adv-x="493" 
d="M336 146v379h84v-379q0 -68 -50.5 -108.5t-130.5 -40.5t-130.5 40.5t-50.5 108.5v28h83v-28q0 -42 27 -67.5t71 -25.5t70.5 25t26.5 68zM413 700l119 -134h-69l-85 99l-86 -99h-68l118 134h71z" />
    <glyph glyph-name="K.smcp" horiz-adv-x="536" 
d="M414 0l-189 246l-67 -67v-179h-83v525h83v-245l231 245h94l-210 -221l230 -304h-89z" />
    <glyph glyph-name="Kcommaaccent.smcp" horiz-adv-x="536" 
d="M414 0l-189 246l-67 -67v-179h-83v525h83v-245l231 245h94l-210 -221l230 -304h-89zM234 -101v73h68v-73q0 -44 -19 -72t-50 -28v33q14 0 22.5 19t8.5 48h-30z" />
    <glyph glyph-name="L.smcp" horiz-adv-x="471" 
d="M429 55v-55h-354v525h83v-470h271z" />
    <glyph glyph-name="Lacute.smcp" horiz-adv-x="471" 
d="M429 55v-55h-354v525h83v-470h271zM118 566l111 134h82l-132 -134h-61z" />
    <glyph glyph-name="Lcaron.smcp" horiz-adv-x="471" 
d="M429 55v-55h-354v525h83v-470h271zM195 566l-118 134h68l86 -99l85 99h69l-119 -134h-71z" />
    <glyph glyph-name="Lcommaaccent.smcp" horiz-adv-x="471" 
d="M429 55v-55h-354v525h83v-470h271zM222 -101v73h68v-73q0 -44 -19 -72t-50 -28v33q14 0 22.5 19t8.5 48h-30z" />
    <glyph glyph-name="Ldot.smcp" horiz-adv-x="471" 
d="M429 55v-55h-354v525h83v-470h271zM349 234v91h81v-91h-81z" />
    <glyph glyph-name="Lslash.smcp" horiz-adv-x="483" 
d="M256 312l-86 -72v-185h271v-55h-354v175l-53 -45v64l53 44v287h83v-221l86 72v-64z" />
    <glyph glyph-name="M.smcp" horiz-adv-x="754" 
d="M75 0v525h125l177 -430l177 430h125v-525h-79v434l-181 -434h-84l-181 434v-434h-79z" />
    <glyph glyph-name="N.smcp" horiz-adv-x="601" 
d="M154 397v-397h-79v525h80l293 -397v397h78v-525h-79z" />
    <glyph glyph-name="Nacute.smcp" horiz-adv-x="601" 
d="M154 397v-397h-79v525h80l293 -397v397h78v-525h-79zM213 566l111 134h82l-132 -134h-61z" />
    <glyph glyph-name="Ncaron.smcp" horiz-adv-x="601" 
d="M154 397v-397h-79v525h80l293 -397v397h78v-525h-79zM265 566l-118 134h68l86 -99l85 99h69l-119 -134h-71z" />
    <glyph glyph-name="Ncommaaccent.smcp" horiz-adv-x="601" 
d="M154 397v-397h-79v525h80l293 -397v397h78v-525h-79zM267 -101v73h68v-73q0 -44 -19 -72t-50 -28v33q14 0 22.5 19t8.5 48h-30z" />
    <glyph glyph-name="Ntilde.smcp" horiz-adv-x="601" 
d="M154 397v-397h-79v525h80l293 -397v397h78v-525h-79zM144 583q0 43 25 68t64 25q35 0 68 -25.5t57 -25.5q21 0 34 12.5t13 33.5h51q0 -42 -26 -67.5t-63 -25.5q-35 0 -69 25.5t-56 25.5t-35 -12t-13 -34h-50z" />
    <glyph glyph-name="Eng.smcp" horiz-adv-x="601" 
d="M154 396v-396h-79v525h79l294 -396v396h78v-572q0 -118 -145 -118v51q31 0 49 15.5t18 43.5v55z" />
    <glyph glyph-name="O.smcp" horiz-adv-x="620" 
d="M53 263q0 123 70.5 194t186.5 71t187 -71t71 -194q0 -124 -71 -195t-187 -71t-186.5 71t-70.5 195zM136 263q0 -100 47 -155t127 -55t127 55t47 155t-47 154.5t-127 54.5t-127 -54.5t-47 -154.5z" />
    <glyph glyph-name="Oacute.smcp" horiz-adv-x="620" 
d="M53 263q0 123 70.5 194t186.5 71t187 -71t71 -194q0 -124 -71 -195t-187 -71t-186.5 71t-70.5 195zM136 263q0 -100 47 -155t127 -55t127 55t47 155t-47 154.5t-127 54.5t-127 -54.5t-47 -154.5zM222 566l111 134h82l-132 -134h-61z" />
    <glyph glyph-name="Obreve.smcp" horiz-adv-x="620" 
d="M53 263q0 123 70.5 194t186.5 71t187 -71t71 -194q0 -124 -71 -195t-187 -71t-186.5 71t-70.5 195zM136 263q0 -100 47 -155t127 -55t127 55t47 155t-47 154.5t-127 54.5t-127 -54.5t-47 -154.5zM155 682h60q0 -36 26.5 -58t67.5 -22t67.5 22t26.5 58h61q0 -58 -43 -92
t-112 -34q-68 0 -111 34t-43 92z" />
    <glyph glyph-name="Ocircumflex.smcp" horiz-adv-x="620" 
d="M53 263q0 123 70.5 194t186.5 71t187 -71t71 -194q0 -124 -71 -195t-187 -71t-186.5 71t-70.5 195zM136 263q0 -100 47 -155t127 -55t127 55t47 155t-47 154.5t-127 54.5t-127 -54.5t-47 -154.5zM345 700l119 -134h-69l-85 99l-86 -99h-68l118 134h71z" />
    <glyph glyph-name="Odieresis.smcp" horiz-adv-x="620" 
d="M53 263q0 123 70.5 194t186.5 71t187 -71t71 -194q0 -124 -71 -195t-187 -71t-186.5 71t-70.5 195zM136 263q0 -100 47 -155t127 -55t127 55t47 155t-47 154.5t-127 54.5t-127 -54.5t-47 -154.5zM169 579v96h70v-96h-70zM382 579v96h71v-96h-71z" />
    <glyph glyph-name="Ograve.smcp" horiz-adv-x="620" 
d="M53 263q0 123 70.5 194t186.5 71t187 -71t71 -194q0 -124 -71 -195t-187 -71t-186.5 71t-70.5 195zM136 263q0 -100 47 -155t127 -55t127 55t47 155t-47 154.5t-127 54.5t-127 -54.5t-47 -154.5zM287 700l112 -134h-62l-131 134h81z" />
    <glyph glyph-name="Ohungarumlaut.smcp" horiz-adv-x="620" 
d="M53 263q0 123 70.5 194t186.5 71t187 -71t71 -194q0 -124 -71 -195t-187 -71t-186.5 71t-70.5 195zM136 263q0 -100 47 -155t127 -55t127 55t47 155t-47 154.5t-127 54.5t-127 -54.5t-47 -154.5zM139 566l111 134h76l-126 -134h-61zM308 566l112 134h76l-126 -134h-62z
" />
    <glyph glyph-name="Omacron.smcp" horiz-adv-x="620" 
d="M53 263q0 123 70.5 194t186.5 71t187 -71t71 -194q0 -124 -71 -195t-187 -71t-186.5 71t-70.5 195zM136 263q0 -100 47 -155t127 -55t127 55t47 155t-47 154.5t-127 54.5t-127 -54.5t-47 -154.5zM177 592v53h266v-53h-266z" />
    <glyph glyph-name="Oslash.smcp" horiz-adv-x="620" 
d="M71 0l52 68q-70 72 -70 195t70.5 194t186.5 71q81 0 143 -37l26 34h69l-52 -67q72 -74 72 -195q0 -124 -71 -195t-187 -71q-82 0 -144 37l-27 -34h-68zM487 262q0 87 -35 140l-249 -320q43 -33 107 -33q82 0 129.5 56t47.5 157zM132 262q0 -85 34 -139l249 320
q-44 33 -105 33q-82 0 -130 -56t-48 -158z" />
    <glyph glyph-name="Oslashacute.smcp" horiz-adv-x="620" 
d="M71 0l52 68q-70 72 -70 195t70.5 194t186.5 71q81 0 143 -37l26 34h69l-52 -67q72 -74 72 -195q0 -124 -71 -195t-187 -71q-82 0 -144 37l-27 -34h-68zM487 262q0 87 -35 140l-249 -320q43 -33 107 -33q82 0 129.5 56t47.5 157zM132 262q0 -85 34 -139l249 320
q-44 33 -105 33q-82 0 -130 -56t-48 -158zM222 566l111 134h82l-132 -134h-61z" />
    <glyph glyph-name="Otilde.smcp" horiz-adv-x="620" 
d="M53 263q0 123 70.5 194t186.5 71t187 -71t71 -194q0 -124 -71 -195t-187 -71t-186.5 71t-70.5 195zM136 263q0 -100 47 -155t127 -55t127 55t47 155t-47 154.5t-127 54.5t-127 -54.5t-47 -154.5zM153 583q0 43 25 68t64 25q35 0 68 -25.5t57 -25.5q21 0 34 12.5t13 33.5
h51q0 -42 -26 -67.5t-63 -25.5q-35 0 -69 25.5t-56 25.5t-35 -12t-13 -34h-50z" />
    <glyph glyph-name="OE.smcp" horiz-adv-x="749" 
d="M385 0v13q-41 -16 -94 -16q-107 0 -172.5 71t-65.5 195q0 123 65.5 194t172.5 71q51 0 94 -17v14h314v-55h-236v-172h207v-56h-207v-187h240v-55h-318zM296 53q55 0 89 34v350q-37 35 -89 35q-74 0 -117 -54.5t-43 -154.5t43 -155t117 -55z" />
    <glyph glyph-name="P.smcp" horiz-adv-x="525" 
d="M75 0v525h219q81 0 129.5 -41.5t48.5 -114.5t-48.5 -114.5t-129.5 -41.5h-136v-213h-83zM279 470h-121v-201h121q52 0 82.5 26.5t30.5 73.5t-30.5 74t-82.5 27z" />
    <glyph glyph-name="Q.smcp" horiz-adv-x="620" 
d="M53 263q0 123 70.5 194t186.5 71t187 -71t71 -194q0 -118 -69 -192l71 -55l-34 -43l-80 63q-62 -39 -146 -39q-116 0 -186.5 71t-70.5 195zM320 141l35 44l85 -65q44 52 44 143q0 100 -47 154.5t-127 54.5t-127 -54.5t-47 -154.5t47 -155t127 -55q54 0 93 25z" />
    <glyph glyph-name="R.smcp" horiz-adv-x="529" 
d="M75 0v525h219q81 0 129.5 -41t48.5 -113q0 -61 -35 -100t-96 -50l151 -221h-89l-135 217h-110v-217h-83zM279 470h-121v-197h121q52 0 82.5 25.5t30.5 72.5t-30.5 73t-82.5 26z" />
    <glyph glyph-name="Racute.smcp" horiz-adv-x="529" 
d="M75 0v525h219q81 0 129.5 -41t48.5 -113q0 -61 -35 -100t-96 -50l151 -221h-89l-135 217h-110v-217h-83zM279 470h-121v-197h121q52 0 82.5 25.5t30.5 72.5t-30.5 73t-82.5 26zM168 566l111 134h82l-132 -134h-61z" />
    <glyph glyph-name="Rcaron.smcp" horiz-adv-x="529" 
d="M75 0v525h219q81 0 129.5 -41t48.5 -113q0 -61 -35 -100t-96 -50l151 -221h-89l-135 217h-110v-217h-83zM279 470h-121v-197h121q52 0 82.5 25.5t30.5 72.5t-30.5 73t-82.5 26zM220 566l-118 134h68l86 -99l85 99h69l-119 -134h-71z" />
    <glyph glyph-name="Rcommaaccent.smcp" horiz-adv-x="529" 
d="M75 0v525h219q81 0 129.5 -41t48.5 -113q0 -61 -35 -100t-96 -50l151 -221h-89l-135 217h-110v-217h-83zM279 470h-121v-197h121q52 0 82.5 25.5t30.5 72.5t-30.5 73t-82.5 26zM230 -101v73h68v-73q0 -44 -19 -72t-50 -28v33q14 0 22.5 19t8.5 48h-30z" />
    <glyph glyph-name="S.smcp" horiz-adv-x="518" 
d="M44 163h79q0 -51 36.5 -80.5t94.5 -29.5t92.5 24.5t34.5 65.5q0 40 -33.5 61t-81 29.5t-95 19.5t-81 42t-33.5 85q0 69 53.5 108.5t141.5 39.5q87 0 141 -42.5t54 -112.5h-79q0 45 -32 72t-83 27t-82 -25.5t-31 -65.5q0 -37 33.5 -57t81 -28.5t95.5 -20t81.5 -43
t33.5 -86.5q0 -71 -57.5 -110t-151.5 -39q-95 0 -153.5 45t-58.5 121z" />
    <glyph glyph-name="Sacute.smcp" horiz-adv-x="518" 
d="M44 163h79q0 -51 36.5 -80.5t94.5 -29.5t92.5 24.5t34.5 65.5q0 40 -33.5 61t-81 29.5t-95 19.5t-81 42t-33.5 85q0 69 53.5 108.5t141.5 39.5q87 0 141 -42.5t54 -112.5h-79q0 45 -32 72t-83 27t-82 -25.5t-31 -65.5q0 -37 33.5 -57t81 -28.5t95.5 -20t81.5 -43
t33.5 -86.5q0 -71 -57.5 -110t-151.5 -39q-95 0 -153.5 45t-58.5 121zM166 566l111 134h82l-132 -134h-61z" />
    <glyph glyph-name="Scaron.smcp" horiz-adv-x="518" 
d="M44 163h79q0 -51 36.5 -80.5t94.5 -29.5t92.5 24.5t34.5 65.5q0 40 -33.5 61t-81 29.5t-95 19.5t-81 42t-33.5 85q0 69 53.5 108.5t141.5 39.5q87 0 141 -42.5t54 -112.5h-79q0 45 -32 72t-83 27t-82 -25.5t-31 -65.5q0 -37 33.5 -57t81 -28.5t95.5 -20t81.5 -43
t33.5 -86.5q0 -71 -57.5 -110t-151.5 -39q-95 0 -153.5 45t-58.5 121zM218 566l-118 134h68l86 -99l85 99h69l-119 -134h-71z" />
    <glyph glyph-name="Scedilla.smcp" horiz-adv-x="518" 
d="M44 163h79q0 -51 36.5 -80.5t94.5 -29.5t92.5 24.5t34.5 65.5q0 40 -33.5 61t-81 29.5t-95 19.5t-81 42t-33.5 85q0 69 53.5 108.5t141.5 39.5q87 0 141 -42.5t54 -112.5h-79q0 45 -32 72t-83 27t-82 -25.5t-31 -65.5q0 -37 33.5 -57t81 -28.5t95.5 -20t81.5 -43
t33.5 -86.5q0 -67 -50.5 -105t-134.5 -43v-6q0 -21 10.5 -35t23 -20t23 -20t10.5 -36q0 -34 -23.5 -53.5t-61.5 -19.5q-42 0 -70 28v40q30 -28 62 -28q20 0 31.5 10t11.5 26q0 13 -10.5 23t-22.5 17t-22.5 24.5t-10.5 43.5v6q-85 6 -136 50t-51 115z" />
    <glyph glyph-name="Scircumflex.smcp" horiz-adv-x="518" 
d="M44 163h79q0 -51 36.5 -80.5t94.5 -29.5t92.5 24.5t34.5 65.5q0 40 -33.5 61t-81 29.5t-95 19.5t-81 42t-33.5 85q0 69 53.5 108.5t141.5 39.5q87 0 141 -42.5t54 -112.5h-79q0 45 -32 72t-83 27t-82 -25.5t-31 -65.5q0 -37 33.5 -57t81 -28.5t95.5 -20t81.5 -43
t33.5 -86.5q0 -71 -57.5 -110t-151.5 -39q-95 0 -153.5 45t-58.5 121zM289 700l119 -134h-69l-85 99l-86 -99h-68l118 134h71z" />
    <glyph glyph-name="Scommaaccent.smcp" horiz-adv-x="518" 
d="M44 163h79q0 -51 36.5 -80.5t94.5 -29.5t92.5 24.5t34.5 65.5q0 40 -33.5 61t-81 29.5t-95 19.5t-81 42t-33.5 85q0 69 53.5 108.5t141.5 39.5q87 0 141 -42.5t54 -112.5h-79q0 45 -32 72t-83 27t-82 -25.5t-31 -65.5q0 -37 33.5 -57t81 -28.5t95.5 -20t81.5 -43
t33.5 -86.5q0 -71 -57.5 -110t-151.5 -39q-95 0 -153.5 45t-58.5 121zM222 -101v73h68v-73q0 -44 -19 -72t-50 -28v33q14 0 22.5 19t8.5 48h-30z" />
    <glyph glyph-name="T.smcp" horiz-adv-x="539" 
d="M45 470v55h450v-55h-183v-470h-83v470h-184z" />
    <glyph glyph-name="Tbar.smcp" horiz-adv-x="539" 
d="M105 239v55h124v176h-184v55h450v-55h-183v-176h123v-55h-123v-239h-83v239h-124z" />
    <glyph glyph-name="Tcaron.smcp" horiz-adv-x="539" 
d="M45 470v55h450v-55h-183v-470h-83v470h-184zM234 566l-118 134h68l86 -99l85 99h69l-119 -134h-71z" />
    <glyph glyph-name="Tcommaaccent.smcp" horiz-adv-x="539" 
d="M45 470v55h450v-55h-183v-470h-83v470h-184zM236 -101v73h68v-73q0 -44 -19 -72t-50 -28v33q14 0 22.5 19t8.5 48h-30z" />
    <glyph glyph-name="uni021A.smcp" horiz-adv-x="539" 
d="M45 470v55h450v-55h-183v-470h-83v470h-184zM236 -101v73h68v-73q0 -44 -19 -72t-50 -28v33q14 0 22.5 19t8.5 48h-30z" />
    <glyph glyph-name="U.smcp" horiz-adv-x="597" 
d="M441 180v345h83v-345q0 -84 -63 -133.5t-163 -49.5q-99 0 -162 50t-63 133v345h83v-345q0 -59 39 -93t103 -34t103.5 34t39.5 93z" />
    <glyph glyph-name="Uacute.smcp" horiz-adv-x="597" 
d="M441 180v345h83v-345q0 -84 -63 -133.5t-163 -49.5q-99 0 -162 50t-63 133v345h83v-345q0 -59 39 -93t103 -34t103.5 34t39.5 93zM210 566l111 134h82l-132 -134h-61z" />
    <glyph glyph-name="Ubreve.smcp" horiz-adv-x="597" 
d="M441 180v345h83v-345q0 -84 -63 -133.5t-163 -49.5q-99 0 -162 50t-63 133v345h83v-345q0 -59 39 -93t103 -34t103.5 34t39.5 93zM144 682h60q0 -36 26.5 -58t67.5 -22t67.5 22t26.5 58h61q0 -58 -43 -92t-112 -34q-68 0 -111 34t-43 92z" />
    <glyph glyph-name="Ucircumflex.smcp" horiz-adv-x="597" 
d="M441 180v345h83v-345q0 -84 -63 -133.5t-163 -49.5q-99 0 -162 50t-63 133v345h83v-345q0 -59 39 -93t103 -34t103.5 34t39.5 93zM334 700l119 -134h-69l-85 99l-86 -99h-68l118 134h71z" />
    <glyph glyph-name="Udieresis.smcp" horiz-adv-x="597" 
d="M441 180v345h83v-345q0 -84 -63 -133.5t-163 -49.5q-99 0 -162 50t-63 133v345h83v-345q0 -59 39 -93t103 -34t103.5 34t39.5 93zM157 579v96h70v-96h-70zM370 579v96h71v-96h-71z" />
    <glyph glyph-name="Ugrave.smcp" horiz-adv-x="597" 
d="M441 180v345h83v-345q0 -84 -63 -133.5t-163 -49.5q-99 0 -162 50t-63 133v345h83v-345q0 -59 39 -93t103 -34t103.5 34t39.5 93zM275 700l112 -134h-62l-131 134h81z" />
    <glyph glyph-name="Uhungarumlaut.smcp" horiz-adv-x="597" 
d="M441 180v345h83v-345q0 -84 -63 -133.5t-163 -49.5q-99 0 -162 50t-63 133v345h83v-345q0 -59 39 -93t103 -34t103.5 34t39.5 93zM128 566l111 134h76l-126 -134h-61zM297 566l112 134h76l-126 -134h-62z" />
    <glyph glyph-name="Umacron.smcp" horiz-adv-x="597" 
d="M441 180v345h83v-345q0 -84 -63 -133.5t-163 -49.5q-99 0 -162 50t-63 133v345h83v-345q0 -59 39 -93t103 -34t103.5 34t39.5 93zM165 592v53h266v-53h-266z" />
    <glyph glyph-name="Uogonek.smcp" horiz-adv-x="597" 
d="M441 180v345h83v-345q0 -64 -37.5 -109t-102.5 -63q-49 -57 -49 -104q0 -42 49 -42q34 0 66 30v-42q-32 -28 -75 -28q-40 0 -65 20.5t-25 57.5q0 50 40 98q-5 0 -14 -0.5t-13 -0.5q-99 0 -162 50t-63 133v345h83v-345q0 -59 39 -93t103 -34t103.5 34t39.5 93z" />
    <glyph glyph-name="Uring.smcp" horiz-adv-x="597" 
d="M441 180v345h83v-345q0 -84 -63 -133.5t-163 -49.5q-99 0 -162 50t-63 133v345h83v-345q0 -59 39 -93t103 -34t103.5 34t39.5 93zM203 634q0 44 26 68.5t69 24.5t69 -24.5t26 -68.5q0 -42 -26 -66.5t-69 -24.5t-69 24.5t-26 66.5zM245 634q0 -25 14.5 -39.5t38.5 -14.5
t38 14.5t14 39.5q0 26 -14 40.5t-38 14.5t-38.5 -14.5t-14.5 -40.5z" />
    <glyph glyph-name="Utilde.smcp" horiz-adv-x="597" 
d="M441 180v345h83v-345q0 -84 -63 -133.5t-163 -49.5q-99 0 -162 50t-63 133v345h83v-345q0 -59 39 -93t103 -34t103.5 34t39.5 93zM142 583q0 43 25 68t64 25q35 0 68 -25.5t57 -25.5q21 0 34 12.5t13 33.5h51q0 -42 -26 -67.5t-63 -25.5q-35 0 -69 25.5t-56 25.5t-35 -12
t-13 -34h-50z" />
    <glyph glyph-name="V.smcp" horiz-adv-x="584" 
d="M549 525l-210 -525h-96l-209 525h83l175 -456l175 456h82z" />
    <glyph glyph-name="W.smcp" horiz-adv-x="853" 
d="M555 0l-129 421l-128 -421h-94l-170 525h85l132 -444l134 444h84l133 -444l132 444h86l-171 -525h-94z" />
    <glyph glyph-name="Wacute.smcp" horiz-adv-x="853" 
d="M555 0l-129 421l-128 -421h-94l-170 525h85l132 -444l134 444h84l133 -444l132 444h86l-171 -525h-94zM338 566l111 134h82l-132 -134h-61z" />
    <glyph glyph-name="Wcircumflex.smcp" horiz-adv-x="853" 
d="M555 0l-129 421l-128 -421h-94l-170 525h85l132 -444l134 444h84l133 -444l132 444h86l-171 -525h-94zM462 700l119 -134h-69l-85 99l-86 -99h-68l118 134h71z" />
    <glyph glyph-name="Wdieresis.smcp" horiz-adv-x="853" 
d="M555 0l-129 421l-128 -421h-94l-170 525h85l132 -444l134 444h84l133 -444l132 444h86l-171 -525h-94zM285 579v96h70v-96h-70zM498 579v96h71v-96h-71z" />
    <glyph glyph-name="Wgrave.smcp" horiz-adv-x="853" 
d="M555 0l-129 421l-128 -421h-94l-170 525h85l132 -444l134 444h84l133 -444l132 444h86l-171 -525h-94zM403 700l112 -134h-62l-131 134h81z" />
    <glyph glyph-name="X.smcp" horiz-adv-x="576" 
d="M37 0l203 265l-197 260h92l154 -206l153 206h93l-198 -259l203 -266h-93l-158 213l-160 -213h-92z" />
    <glyph glyph-name="Y.smcp" horiz-adv-x="572" 
d="M245 0v200l-202 325h90l153 -256l155 256h90l-203 -325v-200h-83z" />
    <glyph glyph-name="Yacute.smcp" horiz-adv-x="572" 
d="M245 0v200l-202 325h90l153 -256l155 256h90l-203 -325v-200h-83zM198 566l111 134h82l-132 -134h-61z" />
    <glyph glyph-name="Ycircumflex.smcp" horiz-adv-x="572" 
d="M245 0v200l-202 325h90l153 -256l155 256h90l-203 -325v-200h-83zM322 700l119 -134h-69l-85 99l-86 -99h-68l118 134h71z" />
    <glyph glyph-name="Ydieresis.smcp" horiz-adv-x="572" 
d="M245 0v200l-202 325h90l153 -256l155 256h90l-203 -325v-200h-83zM145 579v96h70v-96h-70zM358 579v96h71v-96h-71z" />
    <glyph glyph-name="Ygrave.smcp" horiz-adv-x="572" 
d="M245 0v200l-202 325h90l153 -256l155 256h90l-203 -325v-200h-83zM263 700l112 -134h-62l-131 134h81z" />
    <glyph glyph-name="Z.smcp" horiz-adv-x="527" 
d="M56 470v55h423v-52l-337 -418h336v-55h-426v52l332 418h-328z" />
    <glyph glyph-name="Zacute.smcp" horiz-adv-x="527" 
d="M56 470v55h423v-52l-337 -418h336v-55h-426v52l332 418h-328zM175 566l111 134h82l-132 -134h-61z" />
    <glyph glyph-name="Zcaron.smcp" horiz-adv-x="527" 
d="M56 470v55h423v-52l-337 -418h336v-55h-426v52l332 418h-328zM227 566l-118 134h68l86 -99l85 99h69l-119 -134h-71z" />
    <glyph glyph-name="Zdotaccent.smcp" horiz-adv-x="527" 
d="M56 470v55h423v-52l-337 -418h336v-55h-426v52l332 418h-328zM221 584v108h83v-108h-83z" />
    <glyph glyph-name="uni018F.smcp" 
d="M57 259q0 21 2 32h393q-5 86 -50.5 133.5t-117.5 47.5q-64 0 -103 -30.5t-39 -82.5h-81q0 78 61.5 123.5t159.5 45.5q115 0 184.5 -70.5t69.5 -194.5t-68.5 -195t-180.5 -71q-115 0 -172.5 69t-57.5 193zM289 53q71 0 115 48t48 135h-314v-8q0 -83 38.5 -129t112.5 -46z
" />
    <glyph glyph-name="f_f_j" horiz-adv-x="822" 
d="M749 500v-573q0 -72 -43.5 -109t-127.5 -37v55q40 0 64 22t24 62v526h-195v-446h-83v446h-203v-446h-83v446h-74v54h74v93q0 136 164 136q22 0 47 -5v-54q-16 4 -40 4q-40 0 -64 -20t-24 -55v-99h203v93q0 136 164 136q20 0 47 -5v-54q-16 4 -40 4q-40 0 -64 -20t-24 -55
v-99h278zM666 592v108h83v-108h-83z" />
    <glyph glyph-name="f_j" horiz-adv-x="537" 
d="M102 0v446h-74v54h74v93q0 136 164 136q22 0 47 -5v-54q-16 4 -40 4q-40 0 -64 -20t-24 -55v-99h278v-573q0 -146 -171 -146v55q40 0 64 22t24 62v526h-195v-446h-83zM380 592v108h83v-108h-83z" />
    <glyph glyph-name="f_t" horiz-adv-x="656" 
d="M102 0v446h-74v54h74v93q0 136 164 136q22 0 47 -5v-54q-16 4 -40 4q-40 0 -64 -20t-24 -55v-99h212v105h83v-105h128v-54h-128v-320q0 -35 24 -55t64 -20q24 0 40 4v-54q-25 -5 -47 -5q-164 0 -164 136v314h-212v-446h-83z" />
    <glyph glyph-name="f_f_t" horiz-adv-x="941" 
d="M102 0v446h-74v54h74v93q0 136 164 136q22 0 47 -5v-54q-16 4 -40 4q-40 0 -64 -20t-24 -55v-99h203v93q0 136 164 136q20 0 47 -5v-54q-16 4 -40 4q-40 0 -64 -20t-24 -55v-99h211v105h83v-105h129v-54h-129v-320q0 -35 24.5 -55t64.5 -20q24 0 40 4v-54q-27 -5 -47 -5
q-165 0 -165 136v314h-211v-446h-83v446h-203v-446h-83z" />
    <glyph glyph-name="f_t_t" horiz-adv-x="980" 
d="M102 0v446h-74v54h74v93q0 136 164 136q22 0 47 -5v-54q-16 4 -40 4q-40 0 -64 -20t-24 -55v-99h212v105h83v-105h242v105h83v-105h128v-54h-128v-320q0 -35 24 -55t64 -20q24 0 40 4v-54q-27 -5 -47 -5q-164 0 -164 136v314h-242v-320q0 -35 24 -55t64 -20q24 0 40 4
v-54q-25 -5 -47 -5q-164 0 -164 136v314h-212v-446h-83z" />
    <glyph glyph-name="t_t" horiz-adv-x="693" 
d="M28 446v54h80v105h83v-105h242v105h83v-105h129v-54h-129v-320q0 -35 24.5 -55t64.5 -20q23 0 40 4v-54q-27 -5 -48 -5q-164 0 -164 136v314h-242v-320q0 -35 24.5 -55t64.5 -20q24 0 40 4v-54q-27 -5 -47 -5q-165 0 -165 136v314h-80z" />
    <glyph glyph-name="f_iogonek" horiz-adv-x="537" 
d="M380 0v446h-195v-446h-83v446h-74v54h74v93q0 136 164 136q22 0 47 -5v-54q-16 4 -40 4q-40 0 -64 -20t-24 -55v-99h278v-500h-7q-7 -7 -18 -19t-29.5 -44.5t-18.5 -58.5q0 -42 49 -42q34 0 66 30v-42q-31 -28 -75 -28q-40 0 -65 20.5t-25 57.5q0 31 16.5 62.5t33.5 47.5
l16 16h-26zM380 592v108h83v-108h-83z" />
    <glyph glyph-name="f_f_iogonek" horiz-adv-x="823" 
d="M666 0v446h-195v-446h-83v446h-203v-446h-83v446h-74v54h74v93q0 136 164 136q22 0 47 -5v-54q-16 4 -40 4q-40 0 -64 -20t-24 -55v-99h203v93q0 136 164 136q20 0 47 -5v-54q-16 4 -40 4q-40 0 -64 -20t-24 -55v-99h278v-500h-7q-7 -7 -18 -19t-29.5 -44.5t-18.5 -58.5
q0 -42 49 -42q34 0 66 30v-42q-31 -28 -75 -28q-40 0 -65 20.5t-25 57.5q0 31 16.5 62.5t33.5 47.5l16 16h-26zM666 592v108h83v-108h-83z" />
    <glyph glyph-name="f_tbar" horiz-adv-x="656" 
d="M102 0v446h-74v54h74v93q0 136 164 136q22 0 47 -5v-54q-16 4 -40 4q-40 0 -64 -20t-24 -55v-99h212v105h83v-105h128v-54h-128v-118h128v-54h-128v-148q0 -35 24 -55t64 -20q24 0 40 4v-54q-25 -5 -47 -5q-164 0 -164 136v142h-81v54h81v118h-212v-446h-83z" />
    <glyph glyph-name="f_f_tbar" horiz-adv-x="941" 
d="M102 0v446h-74v54h74v93q0 136 164 136q22 0 47 -5v-54q-16 4 -40 4q-40 0 -64 -20t-24 -55v-99h203v93q0 136 164 136q20 0 47 -5v-54q-16 4 -40 4q-40 0 -64 -20t-24 -55v-99h211v105h83v-105h129v-54h-129v-118h129v-54h-129v-148q0 -35 24.5 -55t64.5 -20q24 0 40 4
v-54q-27 -5 -47 -5q-165 0 -165 136v142h-80v54h80v118h-211v-446h-83v446h-203v-446h-83z" />
    <glyph glyph-name="f_tcaron" horiz-adv-x="745" 
d="M102 0v446h-74v54h74v93q0 136 164 136q22 0 47 -5v-54q-16 4 -40 4q-40 0 -64 -20t-24 -55v-99h212v105h83v-105h128v-54h-128v-320q0 -35 24 -55t64 -20q24 0 40 4v-54q-25 -5 -47 -5q-164 0 -164 136v314h-212v-446h-83zM667 652v73h68v-73q0 -44 -19 -72t-50 -28v33
q14 0 22.5 19t8.5 48h-30z" />
    <glyph glyph-name="f_f_tcaron" horiz-adv-x="1031" 
d="M102 0v446h-74v54h74v93q0 136 164 136q22 0 47 -5v-54q-16 4 -40 4q-40 0 -64 -20t-24 -55v-99h203v93q0 136 164 136q20 0 47 -5v-54q-16 4 -40 4q-40 0 -64 -20t-24 -55v-99h211v105h83v-105h129v-54h-129v-320q0 -35 24.5 -55t64.5 -20q24 0 40 4v-54q-27 -5 -47 -5
q-165 0 -165 136v314h-211v-446h-83v446h-203v-446h-83zM952 652v73h68v-73q0 -44 -19 -72t-50 -28v33q14 0 22.5 19t8.5 48h-30z" />
    <glyph glyph-name="f_tcommaaccent" horiz-adv-x="656" 
d="M102 0v446h-74v54h74v93q0 136 164 136q22 0 47 -5v-54q-16 4 -40 4q-40 0 -64 -20t-24 -55v-99h212v105h83v-105h128v-54h-128v-320q0 -35 24 -55t64 -20q24 0 40 4v-54q-25 -5 -47 -5q-164 0 -164 136v314h-212v-446h-83zM471 -123v73h68v-73q0 -44 -19 -72t-50 -28v33
q14 0 22.5 19t8.5 48h-30z" />
    <glyph glyph-name="f_f_tcommaaccent" horiz-adv-x="941" 
d="M102 0v446h-74v54h74v93q0 136 164 136q22 0 47 -5v-54q-16 4 -40 4q-40 0 -64 -20t-24 -55v-99h203v93q0 136 164 136q20 0 47 -5v-54q-16 4 -40 4q-40 0 -64 -20t-24 -55v-99h211v105h83v-105h129v-54h-129v-320q0 -35 24.5 -55t64.5 -20q24 0 40 4v-54q-27 -5 -47 -5
q-165 0 -165 136v314h-211v-446h-83v446h-203v-446h-83zM760 -123v73h68v-73q0 -44 -19 -72t-50 -28v33q14 0 22.5 19t8.5 48h-30z" />
    <glyph glyph-name="t_tcommaaccent" horiz-adv-x="693" 
d="M28 446v54h80v105h83v-105h242v105h83v-105h129v-54h-129v-320q0 -35 24.5 -55t64.5 -20q23 0 40 4v-54q-27 -5 -48 -5q-164 0 -164 136v314h-242v-320q0 -35 24.5 -55t64.5 -20q24 0 40 4v-54q-27 -5 -47 -5q-165 0 -165 136v314h-80zM511 -123v73h68v-73q0 -44 -19 -72
t-50 -28v33q14 0 22.5 19t8.5 48h-30z" />
    <glyph glyph-name="tcommaaccent_t" horiz-adv-x="693" 
d="M28 446v54h80v105h83v-105h242v105h83v-105h129v-54h-129v-320q0 -35 24.5 -55t64.5 -20q23 0 40 4v-54q-27 -5 -48 -5q-164 0 -164 136v314h-242v-320q0 -35 24.5 -55t64.5 -20q24 0 40 4v-54q-27 -5 -47 -5q-165 0 -165 136v314h-80zM166 -123v73h68v-73q0 -44 -19 -72
t-50 -28v33q14 0 22.5 19t8.5 48h-30z" />
    <glyph glyph-name="tcommaaccent_tcommaaccent" horiz-adv-x="693" 
d="M28 446v54h80v105h83v-105h242v105h83v-105h129v-54h-129v-320q0 -35 24.5 -55t64.5 -20q23 0 40 4v-54q-27 -5 -48 -5q-164 0 -164 136v314h-242v-320q0 -35 24.5 -55t64.5 -20q24 0 40 4v-54q-27 -5 -47 -5q-165 0 -165 136v314h-80zM506 -123v73h68v-73q0 -44 -19 -72
t-50 -28v33q14 0 22.5 19t8.5 48h-30zM175 -123v73h68v-73q0 -44 -19 -72t-50 -28v33q14 0 22.5 19t8.5 48h-30z" />
    <glyph glyph-name="germandbls.smcp" horiz-adv-x="549" 
d="M187 120h66q0 -33 24 -53.5t61 -20.5t59.5 15t22.5 42q0 25 -20 38.5t-49 19.5t-58 14t-49 29t-20 56t36.5 78t36.5 74q0 28 -18.5 45t-55.5 17q-34 0 -55 -16.5t-21 -46.5v-411h-79v408q0 59 37.5 87.5t117.5 28.5q154 0 154 -113q0 -28 -12 -50.5t-26.5 -35t-26.5 -30
t-12 -36.5q0 -23 20 -35t49 -18t58 -14.5t49 -31.5t20 -62q0 -48 -42.5 -74.5t-112.5 -26.5q-68 0 -111 33.5t-43 89.5z" />
    <glyph glyph-name="zero.slash" horiz-adv-x="649" 
d="M72 0l56 91q-74 94 -74 259q0 164 74.5 259t195.5 95q87 0 152 -51l29 47h72l-57 -92q74 -94 74 -258q0 -165 -74 -259.5t-196 -94.5q-88 0 -152 50l-28 -46h-72zM136 350q0 -117 35 -190l270 437q-47 52 -117 52q-85 0 -136.5 -79t-51.5 -220zM513 350q0 112 -35 190
l-271 -437q46 -52 117 -52q86 0 137.5 79t51.5 220z" />
    <glyph glyph-name="zero.fitted" horiz-adv-x="585" 
d="M37 350q0 164 70.5 259t185.5 95q114 0 184.5 -94.5t70.5 -259.5t-70.5 -259.5t-184.5 -94.5q-115 0 -185.5 95t-70.5 259zM122 350q0 -139 46.5 -217t124.5 -78q77 0 123.5 78t46.5 217t-46.5 217t-123.5 78q-78 0 -124.5 -78t-46.5 -217z" />
    <glyph glyph-name="zero.fitted.slash" horiz-adv-x="585" 
d="M53 0l53 92q-69 94 -69 258t70.5 259t185.5 95q81 0 141 -49l27 45h71l-54 -92q70 -97 70 -258q0 -165 -70.5 -259.5t-184.5 -94.5q-82 0 -142 49l-26 -45h-72zM118 350q0 -110 30 -186l252 432q-42 53 -107 53q-79 0 -127 -79t-48 -220zM467 350q0 111 -31 185
l-251 -432q44 -52 108 -52q79 0 126.5 79t47.5 220z" />
    <glyph glyph-name="one.fitted" horiz-adv-x="585" 
d="M122 0v60h134v516h-162v46q100 0 136 16.5t36 61.5h75v-640h134v-60h-353z" />
    <glyph glyph-name="two.fitted" horiz-adv-x="585" 
d="M61 58q0 32 28 68.5t70.5 68.5l91.5 70l91.5 72.5t70.5 78t28 85.5q0 64 -41 104t-108 40q-68 0 -111.5 -41.5t-43.5 -108.5h-82q0 94 66.5 151.5t172.5 57.5q103 0 167 -54.5t64 -148.5q0 -60 -38.5 -117t-93.5 -100.5t-110 -82t-93.5 -75.5t-38.5 -68h379v-58h-469v58z
" />
    <glyph glyph-name="three.fitted" horiz-adv-x="585" 
d="M222 330v58h59q65 0 104 34.5t39 94.5q0 59 -37 93.5t-100 34.5q-66 0 -106 -37.5t-40 -101.5h-82q0 90 64.5 144t165.5 54q102 0 160 -48t58 -133q0 -116 -105 -160q63 -17 99 -63t36 -114q0 -90 -64 -140t-176 -50q-104 0 -171 55t-67 147h82q0 -65 43.5 -104
t113.5 -39q71 0 113.5 36.5t42.5 100.5q0 63 -40 100.5t-106 37.5h-86z" />
    <glyph glyph-name="four.fitted" horiz-adv-x="585" 
d="M392 0v141h-349v60l322 499h104v-499h69v-60h-69v-141h-77zM121 201h271v419z" />
    <glyph glyph-name="five.fitted" horiz-adv-x="585" 
d="M73 329l40 371h382v-60h-309l-26 -235q53 50 142 50q104 0 169 -64t65 -168q0 -107 -63.5 -167t-174.5 -60q-104 0 -171 54.5t-67 145.5h82q0 -64 43 -102.5t112 -38.5q71 0 113.5 45t42.5 123q0 79 -45 128t-119 49q-101 0 -136 -71h-80z" />
    <glyph glyph-name="six.fitted" horiz-adv-x="585" 
d="M535 223q0 -106 -66 -166.5t-174 -60.5q-243 0 -243 355q0 162 68 257.5t177 95.5q92 0 150.5 -46t58.5 -122h-79q0 49 -36.5 79t-93.5 30q-72 0 -117 -75t-48 -223q25 45 70 74.5t109 29.5q101 0 162.5 -61t61.5 -167zM146 223q0 -79 40 -123.5t108 -44.5
q71 0 113.5 44.5t42.5 123.5q0 80 -42.5 124.5t-113.5 44.5q-68 0 -108 -44.5t-40 -124.5z" />
    <glyph glyph-name="seven.fitted" horiz-adv-x="585" 
d="M49 640v60h484v-60l-272 -640h-85l270 640h-397z" />
    <glyph glyph-name="eight.fitted" horiz-adv-x="585" 
d="M71 531q0 81 61 127t161 46t161 -46t61 -127q0 -57 -31.5 -97t-87.5 -58q66 -20 104 -67t38 -117q0 -91 -67.5 -143.5t-177.5 -52.5q-111 0 -178.5 52.5t-67.5 143.5q0 70 38 117t104 67q-55 18 -86.5 58t-31.5 97zM132 200q0 -69 43.5 -107t117.5 -38q73 0 117 38
t44 107q0 68 -44 106.5t-117 38.5q-74 0 -117.5 -38.5t-43.5 -106.5zM154 523q0 -56 37.5 -88t101.5 -32q63 0 101 32t38 88q0 58 -38 90t-101 32q-64 0 -101.5 -32t-37.5 -90z" />
    <glyph glyph-name="nine.fitted" horiz-adv-x="585" 
d="M51 485q0 102 66 160.5t174 58.5q57 0 100.5 -18.5t70.5 -50t43.5 -78t22.5 -96.5t6 -112q0 -167 -66.5 -260t-187.5 -93q-95 0 -155 46t-60 122h81q0 -49 38 -79t98 -30q86 0 130.5 76.5t39.5 232.5q-23 -40 -68.5 -69t-108.5 -29q-101 0 -162.5 58.5t-61.5 160.5z
M439 485q0 75 -40 117.5t-108 42.5q-71 0 -113 -42.5t-42 -117.5q0 -76 42 -118.5t113 -42.5q68 0 108 42.5t40 118.5z" />
    <glyph glyph-name="zerooldstyle.slash" horiz-adv-x="571" 
d="M67 0l48 64q-63 69 -63 186q0 118 64 186t169 68q74 0 130 -36l24 32h64l-48 -65q64 -69 64 -185q0 -118 -64 -186t-170 -68q-76 0 -131 35l-23 -31h-64zM440 250q0 77 -28 127l-221 -296q37 -33 94 -33q71 0 113 53.5t42 148.5zM131 250q0 -79 27 -127l220 296
q-39 33 -93 33q-70 0 -112 -53.5t-42 -148.5z" />
    <glyph glyph-name="zero.taboldstyle" horiz-adv-x="537" 
d="M43 250q0 118 62 186t163 68q102 0 164.5 -68t62.5 -186t-62.5 -186t-164.5 -68q-101 0 -163 68t-62 186zM126 250q0 -94 38.5 -146.5t103.5 -52.5q66 0 105 52.5t39 146.5t-39 146.5t-105 52.5q-65 0 -103.5 -52.5t-38.5 -146.5z" />
    <glyph glyph-name="zero.taboldstyle.slash" horiz-adv-x="537" 
d="M57 0l46 65q-60 68 -60 185q0 118 62 186t163 68q73 0 126 -35l22 31h63l-46 -64q62 -70 62 -186q0 -118 -62.5 -186t-164.5 -68q-73 0 -126 35l-22 -31h-63zM415 250q0 75 -26 125l-210 -293q35 -34 89 -34q67 0 107 53.5t40 148.5zM122 250q0 -74 25 -124l210 292
q-37 34 -89 34q-66 0 -106 -53.5t-40 -148.5z" />
    <glyph glyph-name="one.taboldstyle" horiz-adv-x="537" 
d="M101 0v56h128v325h-146v47q91 0 123.5 15t32.5 57h73v-444h127v-56h-338z" />
    <glyph glyph-name="two.taboldstyle" horiz-adv-x="537" 
d="M67 0v54q12 28 49.5 57.5t81.5 55t86.5 53t70.5 61t28 68.5q0 46 -32 73t-84 27q-53 0 -87.5 -27t-34.5 -69h-78q0 67 56 109t142 42q90 0 145.5 -41.5t55.5 -113.5q0 -43 -26 -80.5t-65.5 -65.5t-80.5 -52t-78.5 -49.5t-51.5 -47.5h306v-54h-403z" />
    <glyph glyph-name="three.taboldstyle" horiz-adv-x="537" 
d="M205 150v54h29q65 0 104 32.5t39 89.5t-31 90t-83 33q-55 0 -89 -37t-34 -99h-81q0 87 57 139t147 52q92 0 144.5 -45.5t52.5 -126.5q0 -54 -28 -92.5t-78 -58.5q63 -18 99.5 -66t36.5 -119q0 -96 -56.5 -150.5t-154.5 -54.5q-96 0 -158 54t-62 145h82q0 -66 38 -105
t100 -39q58 0 93 42t35 115q0 67 -39.5 107t-106.5 40h-56z" />
    <glyph glyph-name="four.taboldstyle" horiz-adv-x="537" 
d="M350 -215v215h-316v60l290 440h104v-440h70v-60h-70v-215h-78zM113 60h237v368z" />
    <glyph glyph-name="five.taboldstyle" horiz-adv-x="537" 
d="M66 129l38 371h351v-56h-278l-26 -239q48 50 128 50q94 0 153.5 -66t59.5 -174q0 -110 -58.5 -172t-160.5 -62q-96 0 -157.5 57t-61.5 152h80q0 -69 38.5 -110.5t99.5 -41.5q62 0 100 47.5t38 129.5q0 84 -40 135.5t-106 51.5q-43 0 -75.5 -19t-46.5 -54h-76z" />
    <glyph glyph-name="six.taboldstyle" horiz-adv-x="537" 
d="M494 229q0 -108 -61.5 -170.5t-161.5 -62.5q-227 0 -227 355q0 172 62.5 275t162.5 103q86 0 139.5 -44.5t53.5 -124.5h-78q0 54 -32 83.5t-83 29.5q-65 0 -106 -81t-42 -242q23 49 64.5 80.5t101.5 31.5q93 0 150 -62.5t57 -170.5zM136 228q0 -84 36 -130.5t98 -46.5
q65 0 104 47t39 130t-39 130.5t-104 47.5q-61 0 -97.5 -47t-36.5 -131z" />
    <glyph glyph-name="seven.taboldstyle" horiz-adv-x="537" 
d="M57 444v56h419v-56l-244 -659h-82l245 659h-338z" />
    <glyph glyph-name="eight.taboldstyle" horiz-adv-x="537" 
d="M72 554q0 82 54 128.5t143 46.5q88 0 142 -46.5t54 -128.5q0 -58 -27.5 -98.5t-76.5 -58.5q63 -21 98.5 -70.5t35.5 -122.5q0 -97 -62.5 -152.5t-163.5 -55.5q-102 0 -164 55.5t-62 152.5q0 73 35 122.5t97 70.5q-48 18 -75.5 59t-27.5 98zM126 209q0 -74 39 -116
t104 -42t104.5 42t39.5 116q0 75 -39 117t-105 42t-104.5 -42t-38.5 -117zM154 548q0 -59 31 -92t84 -33t84 33t31 92t-31.5 92.5t-83.5 33.5t-83.5 -33.5t-31.5 -92.5z" />
    <glyph glyph-name="nine.taboldstyle" horiz-adv-x="537" 
d="M46 281q0 103 61 163t160 60q65 0 110 -27.5t69.5 -79t34.5 -113t10 -141.5q0 -171 -60.5 -266.5t-169.5 -95.5q-90 0 -146.5 48.5t-56.5 128.5h81q0 -55 34 -88.5t88 -33.5q76 0 115 81.5t34 241.5q-20 -41 -61.5 -72t-97.5 -31q-92 0 -148.5 60t-56.5 165zM397 281
q0 79 -35.5 123.5t-95.5 44.5q-62 0 -99.5 -44.5t-37.5 -123.5q0 -80 37.5 -125t99.5 -45q60 0 95.5 44.5t35.5 125.5z" />
    <glyph glyph-name="zero.sup" horiz-adv-x="345" 
d="M32 525q0 83 38.5 130t101.5 47q64 0 102.5 -47t38.5 -130t-38.5 -130t-102.5 -47q-63 0 -101.5 47t-38.5 130zM87 525q0 -67 23 -104t62 -37q40 0 63.5 37t23.5 104t-23.5 104t-63.5 37q-39 0 -62 -37t-23 -104z" />
    <glyph glyph-name="one.sup" horiz-adv-x="196" 
d="M28 630v29q43 0 58.5 9t15.5 32h47v-350h-54v280h-67z" />
    <glyph glyph-name="two.sup" horiz-adv-x="316" 
d="M37 386q0 21 29.5 49t65 51.5t65 54.5t29.5 59q0 29 -19 47.5t-50 18.5q-32 0 -51.5 -19t-19.5 -51h-53q0 48 34.5 77t90.5 29q54 0 88 -27t34 -75q0 -35 -29 -70t-64 -57.5t-64 -46.5t-29 -40h188v-36h-245v36z" />
    <glyph glyph-name="three.sup" horiz-adv-x="328" 
d="M127 512v35h30q32 0 51 16t19 44q0 27 -18 43t-49 16q-32 0 -51 -18t-19 -48h-52q0 47 34.5 74.5t89.5 27.5t86.5 -24t31.5 -67q0 -58 -54 -79q69 -21 69 -89q0 -45 -34 -70t-95 -25q-57 0 -92.5 28t-35.5 75h52q0 -31 21 -49t55 -18t54.5 16.5t20.5 46.5t-19 47.5
t-52 17.5h-43z" />
    <glyph glyph-name="four.sup" horiz-adv-x="319" 
d="M207 350v69h-180v37l163 244h67v-244h33v-37h-33v-69h-50zM76 456h131v194z" />
    <glyph glyph-name="five.sup" horiz-adv-x="327" 
d="M46 511l20 189h204v-37h-157l-13 -106q29 22 69 22q55 0 90 -32t35 -85q0 -54 -34 -84t-94 -30q-56 0 -92 27.5t-36 74.5h52q0 -30 21 -48t55 -18t54 21t20 57q0 38 -21.5 60.5t-58.5 22.5q-48 0 -64 -34h-50z" />
    <glyph glyph-name="six.sup" horiz-adv-x="322" 
d="M289 462q0 -53 -35 -83.5t-92 -30.5q-129 0 -129 178q0 81 36 128.5t94 47.5q50 0 81 -23.5t31 -63.5h-51q0 23 -17 37t-44 14q-33 0 -55 -34t-24 -101q30 45 89 45q52 0 84 -30.5t32 -83.5zM92 462q0 -37 19 -57.5t51 -20.5q34 0 53.5 20.5t19.5 57.5t-19.5 57.5
t-53.5 20.5q-32 0 -51 -20.5t-19 -57.5z" />
    <glyph glyph-name="seven.sup" horiz-adv-x="300" 
d="M27 663v37h244v-37l-131 -313h-54l130 313h-189z" />
    <glyph glyph-name="eight.sup" horiz-adv-x="317" 
d="M43 615q0 40 32 63.5t83 23.5q53 0 84.5 -23t31.5 -64q0 -57 -59 -78q33 -10 52 -33.5t19 -57.5q0 -46 -35 -72t-93 -26q-57 0 -91.5 26t-34.5 72q0 69 70 91q-59 21 -59 78zM86 451q0 -32 19.5 -49.5t52.5 -17.5q34 0 54 17.5t20 49.5t-20 49.5t-54 17.5
q-33 0 -52.5 -17.5t-19.5 -49.5zM96 610q0 -27 17 -42t45 -15q29 0 46 15t17 42t-17 41.5t-46 14.5q-28 0 -45 -14.5t-17 -41.5z" />
    <glyph glyph-name="nine.sup" horiz-adv-x="315" 
d="M33 592q0 52 34 81t90 29q126 0 126 -178q0 -83 -35 -129.5t-97 -46.5q-50 0 -81 23.5t-31 63.5h52q0 -23 17 -37t44 -14q82 0 78 140q-30 -43 -85 -43q-51 0 -81.5 29.5t-30.5 81.5zM223 592q0 35 -17.5 54.5t-48.5 19.5q-32 0 -51 -19.5t-19 -54.5t19 -54.5t51 -19.5
q31 0 48.5 19.5t17.5 54.5z" />
    <glyph glyph-name="comma.sup" horiz-adv-x="130" 
d="M38 350v58h56v-58q0 -33 -16 -54.5t-41 -21.5v30q10 0 16.5 13t6.5 33h-22z" />
    <glyph glyph-name="period.sup" horiz-adv-x="130" 
d="M38 350v58h56v-58h-56z" />
    <glyph glyph-name="parenleft.sup" horiz-adv-x="160" 
d="M136 298v-32q-45 0 -72 61.5t-27 168.5q0 108 27 169.5t72 61.5v-32q-51 0 -51 -199q0 -198 51 -198z" />
    <glyph glyph-name="parenright.sup" horiz-adv-x="160" 
d="M26 695v32q45 0 72.5 -61.5t27.5 -169.5q0 -107 -27.5 -168.5t-72.5 -61.5v32q24 0 38 52t14 146q0 95 -14 147t-38 52z" />
    <glyph glyph-name="hyphen.sup" horiz-adv-x="178" 
d="M35 471v33h107v-33h-107z" />
    <glyph glyph-name="zero.slash.sup" horiz-adv-x="345" 
d="M41 350l29 46q-38 48 -38 129q0 83 38.5 130t101.5 47q42 0 75 -22l12 20h46l-30 -47q38 -47 38 -128q0 -83 -38.5 -130t-102.5 -47q-42 0 -74 21l-12 -19h-45zM84 525q0 -49 13 -85l128 206q-22 22 -53 22q-40 0 -64 -37.5t-24 -105.5zM261 525q0 48 -13 84l-128 -205
q21 -22 52 -22q41 0 65 37t24 106z" />
    <glyph glyph-name="zero.sub" horiz-adv-x="345" 
d="M32 75q0 83 38.5 130t101.5 47q64 0 102.5 -47t38.5 -130t-38.5 -130t-102.5 -47q-63 0 -101.5 47t-38.5 130zM87 75q0 -67 23 -104t62 -37q40 0 63.5 37t23.5 104t-23.5 104t-63.5 37q-39 0 -62 -37t-23 -104z" />
    <glyph glyph-name="one.sub" horiz-adv-x="196" 
d="M28 180v29q43 0 58.5 9t15.5 32h47v-350h-54v280h-67z" />
    <glyph glyph-name="two.sub" horiz-adv-x="316" 
d="M37 -64q0 21 29.5 49t65 51.5t65 54.5t29.5 59q0 29 -19 47.5t-50 18.5q-32 0 -51.5 -19t-19.5 -51h-53q0 48 34.5 77t90.5 29q54 0 88 -27t34 -75q0 -35 -29 -70t-64 -57.5t-64 -46.5t-29 -40h188v-36h-245v36z" />
    <glyph glyph-name="three.sub" horiz-adv-x="328" 
d="M127 62v35h30q32 0 51 16t19 44q0 27 -18 43t-49 16q-32 0 -51 -18t-19 -48h-52q0 47 34.5 74.5t89.5 27.5t86.5 -24t31.5 -67q0 -58 -54 -79q69 -21 69 -89q0 -45 -34 -70t-95 -25q-57 0 -92.5 28t-35.5 75h52q0 -31 21 -49t55 -18t54.5 16.5t20.5 46.5t-19 47.5
t-52 17.5h-43z" />
    <glyph glyph-name="four.sub" horiz-adv-x="319" 
d="M207 -100v69h-180v37l163 244h67v-244h33v-37h-33v-69h-50zM76 6h131v194z" />
    <glyph glyph-name="five.sub" horiz-adv-x="327" 
d="M46 61l20 189h204v-37h-157l-13 -106q29 22 69 22q55 0 90 -32t35 -85q0 -54 -34 -84t-94 -30q-56 0 -92 27.5t-36 74.5h52q0 -30 21 -48t55 -18t54 21t20 57q0 38 -21.5 60.5t-58.5 22.5q-48 0 -64 -34h-50z" />
    <glyph glyph-name="six.sub" horiz-adv-x="322" 
d="M289 12q0 -53 -35 -83.5t-92 -30.5q-129 0 -129 178q0 81 36 128.5t94 47.5q50 0 81 -23.5t31 -63.5h-51q0 23 -17 37t-44 14q-33 0 -55 -34t-24 -101q30 45 89 45q52 0 84 -30.5t32 -83.5zM92 12q0 -37 19 -57.5t51 -20.5q34 0 53.5 20.5t19.5 57.5t-19.5 57.5
t-53.5 20.5q-32 0 -51 -20.5t-19 -57.5z" />
    <glyph glyph-name="seven.sub" horiz-adv-x="300" 
d="M27 213v37h244v-37l-131 -313h-54l130 313h-189z" />
    <glyph glyph-name="eight.sub" horiz-adv-x="317" 
d="M43 165q0 40 32 63.5t83 23.5q53 0 84.5 -23t31.5 -64q0 -57 -59 -78q33 -10 52 -33.5t19 -57.5q0 -46 -35 -72t-93 -26q-57 0 -91.5 26t-34.5 72q0 69 70 91q-59 21 -59 78zM86 1q0 -32 19.5 -49.5t52.5 -17.5q34 0 54 17.5t20 49.5t-20 49.5t-54 17.5
q-33 0 -52.5 -17.5t-19.5 -49.5zM96 160q0 -27 17 -42t45 -15q29 0 46 15t17 42t-17 41.5t-46 14.5q-28 0 -45 -14.5t-17 -41.5z" />
    <glyph glyph-name="nine.sub" horiz-adv-x="315" 
d="M33 142q0 52 34 81t90 29q126 0 126 -178q0 -83 -35 -129.5t-97 -46.5q-50 0 -81 23.5t-31 63.5h52q0 -23 17 -37t44 -14q82 0 78 140q-30 -43 -85 -43q-51 0 -81.5 29.5t-30.5 81.5zM223 142q0 35 -17.5 54.5t-48.5 19.5q-32 0 -51 -19.5t-19 -54.5t19 -54.5t51 -19.5
q31 0 48.5 19.5t17.5 54.5z" />
    <glyph glyph-name="comma.sub" horiz-adv-x="130" 
d="M38 -100v58h56v-58q0 -33 -16 -54.5t-41 -21.5v30q10 0 16.5 13t6.5 33h-22z" />
    <glyph glyph-name="period.sub" horiz-adv-x="130" 
d="M38 -100v58h56v-58h-56z" />
    <glyph glyph-name="parenleft.sub" horiz-adv-x="160" 
d="M136 -152v-32q-45 0 -72 61.5t-27 168.5q0 108 27 169.5t72 61.5v-32q-51 0 -51 -199q0 -198 51 -198z" />
    <glyph glyph-name="parenright.sub" horiz-adv-x="160" 
d="M26 245v32q45 0 72.5 -61.5t27.5 -169.5q0 -107 -27.5 -168.5t-72.5 -61.5v32q24 0 38 52t14 146q0 95 -14 147t-38 52z" />
    <glyph glyph-name="hyphen.sub" horiz-adv-x="178" 
d="M35 21v33h107v-33h-107z" />
    <glyph glyph-name="zero.slash.sub" horiz-adv-x="345" 
d="M41 -100l29 46q-38 47 -38 129q0 83 38.5 130t101.5 47q42 0 75 -22l12 20h46l-30 -47q38 -47 38 -128q0 -83 -38.5 -130t-102.5 -47q-41 0 -74 22l-12 -20h-45zM84 75q0 -50 13 -84l128 205q-22 22 -53 22q-40 0 -64 -37.5t-24 -105.5zM261 75q0 48 -13 84l-128 -205
q22 -22 52 -22q41 0 65 37t24 106z" />
    <glyph glyph-name="zero.smcp" horiz-adv-x="544" 
d="M53 263q0 123 60.5 194t158.5 71t158.5 -71t60.5 -194q0 -124 -60.5 -195t-158.5 -71t-158.5 71t-60.5 195zM134 263q0 -101 37.5 -156.5t100.5 -55.5t100 55.5t37 156.5t-37 156t-100 55t-100.5 -55.5t-37.5 -155.5z" />
    <glyph glyph-name="zero.slash.smcp" horiz-adv-x="544" 
d="M66 0l46 70q-59 72 -59 193q0 123 60.5 194t158.5 71q66 0 117 -34l21 31h68l-46 -70q59 -73 59 -192q0 -124 -60.5 -195t-158.5 -71q-67 0 -118 34l-20 -31h-68zM130 263q0 -79 23 -131l204 311q-35 35 -85 35q-65 0 -103.5 -56.5t-38.5 -158.5zM413 263q0 76 -22 129
l-204 -311q34 -34 85 -34q65 0 103 56.5t38 159.5z" />
    <glyph glyph-name="one.smcp" horiz-adv-x="306" 
d="M44 420v43q66 0 90.5 13.5t24.5 48.5h72v-525h-81v420h-106z" />
    <glyph glyph-name="two.smcp" horiz-adv-x="495" 
d="M59 54q0 27 30.5 58.5t74.5 61.5l88 61.5t74.5 68.5t30.5 71q0 43 -30.5 71t-80.5 28t-82 -29t-32 -76h-79q0 72 54 115.5t141 43.5q85 0 137.5 -41t52.5 -112q0 -44 -30 -86t-73 -74t-86 -60.5t-73 -54.5t-30 -46h295v-54h-382v54z" />
    <glyph glyph-name="three.smcp" horiz-adv-x="515" 
d="M200 242v54h47q51 0 81.5 24t30.5 66q0 41 -29 64.5t-78 23.5q-51 0 -81.5 -26.5t-30.5 -72.5h-78q0 71 53.5 112t138.5 41q87 0 135.5 -36t48.5 -101q0 -85 -85 -119q51 -14 80 -48t29 -84q0 -68 -53 -105.5t-147 -37.5q-88 0 -144 42t-56 113h78q0 -47 33.5 -74
t88.5 -27t87.5 25.5t32.5 69.5q0 45 -30.5 70.5t-83.5 25.5h-68z" />
    <glyph glyph-name="four.smcp" horiz-adv-x="501" 
d="M326 0v103h-282v56l257 366h100v-366h53v-56h-53v-103h-75zM117 159h209v291z" />
    <glyph glyph-name="five.smcp" horiz-adv-x="514" 
d="M73 243l33 282h319v-55h-249l-21 -160q44 33 111 33q87 0 140.5 -48t53.5 -127q0 -81 -52.5 -126t-145.5 -45q-88 0 -144 41.5t-56 111.5h78q0 -45 33.5 -72t87.5 -27t86.5 31t32.5 86q0 57 -35 90.5t-92 33.5q-79 0 -103 -49h-77z" />
    <glyph glyph-name="six.smcp" horiz-adv-x="506" 
d="M454 168q0 -80 -55 -125.5t-144 -45.5q-202 0 -202 267q0 121 56.5 192.5t147.5 71.5q77 0 125.5 -35.5t48.5 -94.5h-76q0 35 -27.5 55.5t-70.5 20.5q-54 0 -89 -51t-38 -151q51 68 141 68q82 0 132.5 -46t50.5 -126zM143 168q0 -55 30 -86t81 -31q54 0 86.5 31t32.5 86
t-32.5 86t-86.5 31q-51 0 -81 -31t-30 -86z" />
    <glyph glyph-name="seven.smcp" horiz-adv-x="471" 
d="M44 470v55h381v-55l-206 -470h-82l205 470h-298z" />
    <glyph glyph-name="eight.smcp" horiz-adv-x="498" 
d="M69 397q0 61 49 96t131 35q81 0 130.5 -35t49.5 -96q0 -86 -94 -117q52 -15 82 -50t30 -86q0 -69 -54.5 -108t-143.5 -39t-143.5 39t-54.5 108q0 51 29.5 86t80.5 50q-92 31 -92 117zM132 151q0 -47 31.5 -73.5t85.5 -26.5q53 0 85 26.5t32 73.5q0 48 -32 74.5t-85 26.5
q-54 0 -85.5 -26.5t-31.5 -74.5zM149 389q0 -39 27 -61.5t73 -22.5t73 22.5t27 61.5q0 41 -27 63t-73 22t-73 -22t-27 -63z" />
    <glyph glyph-name="nine.smcp" horiz-adv-x="496" 
d="M53 363q0 77 53 121t140 44q108 0 152.5 -70.5t44.5 -196.5q0 -124 -54.5 -194t-151.5 -70q-77 0 -125 35.5t-48 94.5h78q0 -35 27 -55.5t70 -20.5q132 0 125 211q-18 -27 -53 -46t-81 -19q-80 0 -128.5 44.5t-48.5 121.5zM354 363q0 53 -29 82t-79 29q-51 0 -81 -29
t-30 -82t30 -82t81 -29q50 0 79 29t29 82z" />
    <glyph glyph-name="Euro.smcp" horiz-adv-x="633" 
d="M44 295v46h61q21 89 87 138t163 49t157.5 -47.5t60.5 -128.5h-81q0 56 -38 88t-100 32q-63 0 -106.5 -34t-59.5 -97h205v-46h-213q-1 -10 -1 -32q0 -23 1 -34h213v-46h-205q17 -63 60.5 -96.5t105.5 -33.5t100 32t38 88h81q0 -81 -60.5 -128.5t-157.5 -47.5t-163 48.5
t-87 137.5h-61v46h53q-1 11 -1 34q0 21 1 32h-53z" />
    <glyph glyph-name="sterling.smcp" horiz-adv-x="495" 
d="M40 212v55h45v117q0 66 50 105t129 39t128.5 -39t49.5 -105v-33h-82v33q0 40 -26.5 64t-68.5 24q-43 0 -69.5 -24t-26.5 -64v-117h188v-55h-188v-157h279v-55h-408v55h45v157h-45z" />
    <glyph glyph-name="yen.smcp" horiz-adv-x="572" 
d="M141 148v41h104v11l-202 325h90l153 -256l155 256h90l-203 -325v-11h104v-41h-104v-50h104v-41h-104v-57h-83v57h-105v41h105v50h-104z" />
    <glyph glyph-name="uni20B4.smcp" horiz-adv-x="479" 
d="M54 194v44h371v-44h-254q-36 -31 -36 -70q0 -33 26 -53t69 -20q56 0 91 25.5t35 69.5h77q0 -68 -56.5 -108.5t-149.5 -40.5q-78 0 -125.5 31.5t-47.5 89.5q0 42 32 76h-32zM54 291v45h244q43 28 43 68q0 30 -24 50t-62 20q-52 0 -85 -24t-33 -63h-78q0 64 55 102.5
t143 38.5q73 0 119 -31.5t46 -86.5q0 -45 -39 -74h42v-45h-371z" />
    <glyph glyph-name="numbersign.smcp" horiz-adv-x="582" 
d="M328 0l24 124h-173l-23 -124h-68l24 124h-69v48h77l34 181h-71v48h80l23 124h67l-23 -124h173l23 124h67l-23 -124h70v-48h-79l-34 -181h71v-48h-79l-23 -124h-68zM221 353l-34 -181h173l34 181h-173z" />
    <glyph glyph-name="zero.fitted.smcp" horiz-adv-x="495" 
d="M39 263q0 123 58 194t151 71t150.5 -71t57.5 -194q0 -124 -57.5 -195t-150.5 -71t-151 71t-58 195zM121 263q0 -101 34.5 -156.5t92.5 -55.5t92 55.5t34 156.5q0 100 -34 155.5t-92 55.5t-92.5 -55.5t-34.5 -155.5z" />
    <glyph glyph-name="zero.fitted.slash.smcp" horiz-adv-x="495" 
d="M52 0l43 70q-56 74 -56 193q0 123 58 194t151 71q60 0 109 -33l19 30h67l-43 -70q56 -72 56 -192q0 -124 -57.5 -195t-150.5 -71q-63 0 -111 33l-18 -30h-67zM378 263q0 74 -20 125l-189 -307q32 -34 79 -34q60 0 95 56.5t35 159.5zM117 263q0 -74 19 -126l190 307
q-32 34 -78 34q-60 0 -95.5 -56.5t-35.5 -158.5z" />
    <glyph glyph-name="one.fitted.smcp" horiz-adv-x="495" 
d="M108 0v55h105v365h-128v43q79 0 108.5 13.5t29.5 48.5h71v-470h105v-55h-291z" />
    <glyph glyph-name="two.fitted.smcp" horiz-adv-x="495" 
d="M59 54q0 27 31 58.5t74.5 61.5l87.5 61.5t75 68.5t31 71q0 43 -31 71t-80 28q-50 0 -82.5 -29t-32.5 -76h-78q0 72 53.5 115.5t140.5 43.5q86 0 138 -40.5t52 -112.5q0 -44 -30 -86t-73 -74t-86 -60.5t-73 -54.5t-30 -46h295v-54h-382v54z" />
    <glyph glyph-name="three.fitted.smcp" horiz-adv-x="495" 
d="M192 242v54h45q49 0 78.5 24t29.5 66q0 40 -27.5 64t-74.5 24q-49 0 -79 -26.5t-30 -72.5h-78q0 71 52.5 112t135.5 41q85 0 133 -36t48 -101q0 -84 -83 -119q50 -14 78 -48t28 -84q0 -68 -52 -105.5t-145 -37.5q-86 0 -140.5 42t-54.5 113h78q0 -47 32.5 -74t85.5 -27
t84.5 25.5t31.5 69.5q0 45 -29.5 70.5t-80.5 25.5h-66z" />
    <glyph glyph-name="four.fitted.smcp" horiz-adv-x="496" 
d="M322 0v103h-277v56l251 366h100v-366h52v-56h-52v-103h-74zM119 159h203v291z" />
    <glyph glyph-name="five.fitted.smcp" horiz-adv-x="495" 
d="M67 243l32 282h313v-55h-243l-20 -160q42 33 108 33q85 0 137.5 -48t52.5 -127q0 -81 -51.5 -126t-143.5 -45q-86 0 -141 41.5t-55 111.5h79q0 -45 32 -72t84 -27q53 0 84.5 31t31.5 86q0 57 -33.5 90.5t-89.5 33.5q-76 0 -100 -49h-77z" />
    <glyph glyph-name="six.fitted.smcp" horiz-adv-x="496" 
d="M447 168q0 -80 -54 -125.5t-142 -45.5q-200 0 -200 267q0 121 55.5 192.5t145.5 71.5q76 0 124 -35.5t48 -94.5h-76q0 35 -26.5 55.5t-69.5 20.5q-54 0 -88 -51t-36 -151q47 68 138 68q81 0 131 -46t50 -126zM140 168q0 -56 29.5 -86.5t80.5 -30.5q53 0 84.5 31t31.5 86
t-31.5 86t-84.5 31q-51 0 -80.5 -30.5t-29.5 -86.5z" />
    <glyph glyph-name="seven.fitted.smcp" horiz-adv-x="496" 
d="M50 470v55h393v-55l-213 -470h-82l212 470h-310z" />
    <glyph glyph-name="eight.fitted.smcp" horiz-adv-x="495" 
d="M66 397q0 61 50 96t132 35t132 -35t50 -96q0 -86 -95 -117q53 -15 83 -50t30 -86q0 -69 -54.5 -108t-145.5 -39t-146 39t-55 108q0 51 30 86t82 50q-93 31 -93 117zM129 151q0 -47 32 -73.5t87 -26.5t87.5 26.5t32.5 73.5q0 48 -32.5 74.5t-87.5 26.5t-87 -26.5
t-32 -74.5zM145 389q0 -39 28 -61.5t75 -22.5t74.5 22.5t27.5 61.5q0 41 -27.5 63t-74.5 22t-75 -22t-28 -63z" />
    <glyph glyph-name="nine.fitted.smcp" horiz-adv-x="496" 
d="M50 363q0 77 54 121t142 44q109 0 154 -70t45 -197q0 -125 -55 -194.5t-153 -69.5q-78 0 -126.5 35.5t-48.5 94.5h76q0 -35 28 -55.5t73 -20.5q134 0 127 211q-18 -27 -53.5 -46t-83.5 -19q-80 0 -129.5 44.5t-49.5 121.5zM356 363q0 52 -30 81.5t-80 29.5q-52 0 -83 -29
t-31 -82t30.5 -82t83.5 -29q50 0 80 29t30 82z" />
    <glyph glyph-name="exclam.smcp" horiz-adv-x="215" 
d="M147 93v-93h-79v93h79zM147 525v-364h-79v364h79z" />
    <glyph glyph-name="ampersand.smcp" horiz-adv-x="562" 
d="M412 250h71q0 -91 -50 -154l102 -96h-90l-57 55q-64 -58 -170 -58q-81 0 -130.5 37.5t-49.5 105.5q0 54 30 88t84 64q-49 67 -49 122q0 50 37 82t105 32q64 0 102.5 -29t38.5 -80t-33.5 -81.5t-97.5 -61.5l125 -132q32 43 32 106zM220 51q70 0 118 45l-143 145
q-38 -22 -58.5 -44.5t-20.5 -57.5q0 -40 27.5 -64t76.5 -24zM179 410q0 -35 36 -84q48 23 71 43t23 51q0 26 -17.5 40t-44.5 14q-31 0 -49.5 -18.5t-18.5 -45.5z" />
    <glyph glyph-name="slash.smcp" horiz-adv-x="351" 
d="M40 -75l200 600h71l-200 -600h-71z" />
    <glyph glyph-name="backslash.smcp" horiz-adv-x="351" 
d="M111 525l200 -600h-71l-200 600h71z" />
    <glyph glyph-name="at.smcp" horiz-adv-x="675" 
d="M416 261q0 49 -23 77t-60 28q-39 0 -62.5 -28t-23.5 -77q0 -50 23 -78t63 -28q38 0 60.5 28t22.5 78zM436 165v19q-15 -32 -45.5 -50t-68.5 -18q-60 0 -97 39t-37 106q0 66 37 104.5t97 38.5q67 0 97 -50l4 47h51v-215q0 -32 34 -32q29 0 43.5 23.5t14.5 85.5
q0 104 -61.5 161t-168.5 57q-106 0 -167 -57t-61 -161q0 -105 61 -162t167 -57q68 0 114 24l36 -38q-63 -33 -150 -33q-128 0 -205.5 71t-77.5 195t77.5 194.5t205.5 70.5q129 0 207.5 -70.5t78.5 -194.5q0 -81 -26.5 -114t-87.5 -33q-72 0 -72 49z" />
    <glyph glyph-name="parenleft.smcp" horiz-adv-x="252" 
d="M213 -78v-48q-69 0 -111.5 92t-42.5 254q0 161 42.5 253.5t111.5 92.5v-48q-38 0 -60 -78t-22 -220t22 -220t60 -78z" />
    <glyph glyph-name="parenright.smcp" horiz-adv-x="251" 
d="M42 518v48q69 0 111.5 -92.5t42.5 -253.5q0 -162 -42.5 -254t-111.5 -92v48q38 0 59.5 77.5t21.5 220.5t-21.5 220.5t-59.5 77.5z" />
    <glyph glyph-name="bracketleft.smcp" horiz-adv-x="260" 
d="M68 -124v687h154v-49h-84v-589h84v-49h-154z" />
    <glyph glyph-name="bracketright.smcp" horiz-adv-x="260" 
d="M192 563v-687h-154v49h83v589h-83v49h154z" />
    <glyph glyph-name="braceleft.smcp" horiz-adv-x="292" 
d="M114 -9v144q0 28 -19.5 44t-52.5 16v50q33 0 52.5 15.5t19.5 43.5v145q0 117 140 117v-51q-32 0 -51 -15t-19 -44v-135q0 -74 -61 -101q61 -27 61 -101v-135q0 -28 19 -43.5t51 -15.5v-50q-140 0 -140 116z" />
    <glyph glyph-name="braceright.smcp" horiz-adv-x="292" 
d="M179 449v-145q0 -27 19 -42.5t52 -15.5v-51q-33 0 -52 -15.5t-19 -43.5v-145q0 -116 -141 -116v50q32 0 51 15.5t19 43.5v135q0 74 61 101q-61 27 -61 102v134q0 29 -19 44t-51 15v51q141 0 141 -117z" />
    <glyph glyph-name="exclamdown.smcp" horiz-adv-x="215" 
d="M68 282v93h79v-93h-79zM68 -150v364h79v-364h-79z" />
    <glyph glyph-name="questiondown.smcp" horiz-adv-x="483" 
d="M282 214v-13q0 -36 -14.5 -61t-35.5 -39l-42 -27.5t-35.5 -33.5t-14.5 -48q0 -40 29 -65.5t76 -25.5t77.5 27.5t30.5 71.5h78q0 -69 -52 -111t-137 -42q-82 0 -132.5 38.5t-50.5 106.5q0 38 15 64.5t36 40.5t42 26.5t36 31.5t15 46v13h79zM282 375v-93h-79v93h79z" />
    <glyph glyph-name="question.smcp" horiz-adv-x="483" 
d="M202 161v13q0 36 14.5 61t36 39l42.5 27.5t35.5 33.5t14.5 48q0 39 -29 65t-76 26q-48 0 -78 -28.5t-30 -76.5h-78q0 72 52 115.5t136 43.5q82 0 133 -38.5t51 -106.5q0 -38 -15 -64.5t-36 -40.5t-42.5 -26.5t-36.5 -31.5t-15 -46v-13h-79zM202 0v93h79v-93h-79z" />
    <glyph glyph-name="bar.smcp" horiz-adv-x="205" 
d="M68 -75v600h70v-600h-70z" />
    <glyph glyph-name="brokenbar.smcp" horiz-adv-x="205" 
d="M68 -75v263h70v-263h-70zM138 525v-262h-70v262h70z" />
    <glyph glyph-name="percent.smcp" horiz-adv-x="625" 
d="M118 0l328 525h63l-328 -525h-63zM46 423q0 48 31.5 76.5t82.5 28.5t82.5 -28.5t31.5 -76.5q0 -49 -31 -77t-83 -28t-83 28t-31 77zM93 423q0 -30 18 -46.5t49 -16.5q30 0 48 16.5t18 46.5q0 29 -18 45.5t-48 16.5q-31 0 -49 -16.5t-18 -45.5zM351 101q0 49 31 77.5
t83 28.5t83 -28.5t31 -77.5q0 -48 -31 -76t-83 -28t-83 28t-31 76zM398 101q0 -29 18 -45.5t49 -16.5q30 0 48 16.5t18 45.5q0 30 -18 46.5t-48 16.5q-31 0 -49 -16.5t-18 -46.5z" />
    <glyph glyph-name="perthousand.smcp" horiz-adv-x="856" 
d="M120 0l316 525h61l-316 -525h-61zM46 423q0 48 31.5 76.5t82.5 28.5t82.5 -28.5t31.5 -76.5q0 -49 -31 -77t-83 -28t-83 28t-31 77zM93 423q0 -30 18 -46.5t49 -16.5q30 0 48 16.5t18 46.5q0 29 -18 45.5t-48 16.5q-31 0 -49 -16.5t-18 -45.5zM321 101q0 49 31 77.5
t83 28.5t83 -28.5t31 -77.5q0 -48 -31 -76t-83 -28t-83 28t-31 76zM368 101q0 -29 18 -45.5t49 -16.5q30 0 48 16.5t18 45.5q0 30 -18 46.5t-48 16.5q-31 0 -49 -16.5t-18 -46.5zM582 101q0 49 31 77.5t83 28.5t83 -28.5t31 -77.5q0 -48 -31 -76t-83 -28t-83 28t-31 76z
M629 101q0 -29 18 -45.5t49 -16.5q30 0 48 16.5t18 45.5q0 30 -18 46.5t-48 16.5q-31 0 -49 -16.5t-18 -46.5z" />
    <glyph glyph-name="dagger.smcp" horiz-adv-x="441" 
d="M42 334v50h143v141h71v-141h143v-50h-143v-409h-71v409h-143z" />
    <glyph glyph-name="daggerdbl.smcp" horiz-adv-x="441" 
d="M399 116v-50h-143v-141h-71v141h-143v50h143v218h-143v50h143v141h71v-141h143v-50h-143v-218h143z" />
    <glyph glyph-name="section.smcp" horiz-adv-x="467" 
d="M49 -41h77q0 -33 29.5 -53t76.5 -20q46 0 74 20t28 56q0 32 -28.5 49.5t-69 25t-81 17.5t-69 38.5t-28.5 76.5q0 84 77 117q-77 34 -77 108q0 63 48 98.5t127 35.5q73 0 120.5 -31.5t47.5 -83.5h-74q0 29 -27.5 47t-69.5 18q-41 0 -67 -21.5t-26 -56.5q0 -32 28.5 -49
t69 -25.5t81 -19.5t69 -41t28.5 -80q0 -80 -81 -112q81 -32 81 -109q0 -60 -50.5 -94.5t-132.5 -34.5q-80 0 -130.5 34t-50.5 90zM338 183q0 25 -18.5 41.5t-37 22t-57.5 14.5q-42 -4 -67.5 -27.5t-25.5 -60.5q0 -15 6.5 -26.5t15 -18.5t26 -13.5t28.5 -9l34 -7.5
q43 4 69.5 26.5t26.5 58.5z" />
    <glyph glyph-name="paragraph.smcp" horiz-adv-x="563" 
d="M332 525v-600h-75v288h-25q-81 0 -130 41.5t-49 114.5t49 114.5t130 41.5h100zM413 -75v600h75v-600h-75z" />
    <glyph glyph-name="afii61352.smcp" horiz-adv-x="868" 
d="M154 397v-397h-79v525h80l293 -397v397h78v-525h-79zM588 423q0 48 31.5 76.5t82.5 28.5t82.5 -28.5t31.5 -76.5q0 -49 -31 -77t-83 -28t-83 28t-31 77zM636 423q0 -30 18 -46.5t49 -16.5q30 0 48 16.5t18 46.5q0 29 -18 45.5t-48 16.5q-31 0 -49 -16.5t-18 -45.5z
M594 215v48h217v-48h-217z" />
    <glyph glyph-name="afii10017.smcp" horiz-adv-x="572" 
d="M34 0l205 525h95l204 -525h-83l-54 134h-230l-53 -134h-84zM287 456l-102 -266h203z" />
    <glyph glyph-name="afii10018.smcp" horiz-adv-x="527" 
d="M436 525v-55h-278v-156h132q83 0 133.5 -42t50.5 -116q0 -73 -50.5 -114.5t-133.5 -41.5h-215v525h361zM158 55h117q54 0 86 27t32 74q0 48 -32 75t-86 27h-117v-203z" />
    <glyph glyph-name="afii10019.smcp" horiz-adv-x="540" 
d="M75 0v525h212q80 0 128 -36t48 -98q0 -84 -85 -117q51 -14 80 -48t29 -84q0 -66 -49 -104t-130 -38h-233zM158 55h135q52 0 82.5 25.5t30.5 69.5t-30.5 68.5t-82.5 24.5h-135v-188zM272 470h-114v-171h114q50 0 79.5 22.5t29.5 62.5t-29 63t-80 23z" />
    <glyph glyph-name="afii10020.smcp" horiz-adv-x="463" 
d="M417 525v-55h-259v-470h-83v525h342z" />
    <glyph glyph-name="afii10021.smcp" horiz-adv-x="673" 
d="M45 -124v180h23q24 0 37 5t29 29t23.5 72.5t13 138.5t5.5 224h372v-469h81v-180h-71v124h-442v-124h-71zM464 470h-210q0 -187 -14.5 -281.5t-44.5 -133.5h269v415z" />
    <glyph glyph-name="afii10022.smcp" horiz-adv-x="493" 
d="M75 0v525h367v-55h-284v-172h255v-56h-255v-187h288v-55h-371z" />
    <glyph glyph-name="afii10023.smcp" horiz-adv-x="493" 
d="M75 0v525h367v-55h-284v-172h255v-56h-255v-187h288v-55h-371zM119 579v96h70v-96h-70zM332 579v96h71v-96h-71z" />
    <glyph glyph-name="afii10024.smcp" horiz-adv-x="806" 
d="M295 249l-176 -249h-86l212 306l-193 219h89l221 -245v245h83v-245l220 245h90l-193 -219l212 -306h-87l-174 249l-68 -69v-180h-83v180z" />
    <glyph glyph-name="afii10025.smcp" horiz-adv-x="535" 
d="M194 241v56h73q50 0 80 23.5t30 65.5q0 40 -31 63t-83 23q-55 0 -88 -28.5t-33 -78.5h-80q0 75 56.5 119t146.5 44t141.5 -36t51.5 -101q0 -85 -85 -119q51 -14 80 -48t29 -84q0 -68 -55.5 -105.5t-154.5 -37.5q-93 0 -151.5 45.5t-58.5 121.5h80q0 -51 35.5 -81
t94.5 -30t93.5 24.5t34.5 68.5t-30 69.5t-82 25.5h-94z" />
    <glyph glyph-name="afii10026.smcp" horiz-adv-x="601" 
d="M448 0v395l-293 -395h-80v525h79v-395l293 395h79v-525h-78z" />
    <glyph glyph-name="afii10027.smcp" horiz-adv-x="601" 
d="M145 682h60q0 -36 26.5 -58t67.5 -22t67.5 22t26.5 58h61q0 -58 -43 -92t-112 -34q-68 0 -111 34t-43 92zM448 0v395l-293 -395h-80v525h79v-395l293 395h79v-525h-78z" />
    <glyph glyph-name="afii10028.smcp" horiz-adv-x="536" 
d="M414 0l-189 246l-67 -67v-179h-83v525h83v-245l231 245h94l-210 -221l230 -304h-89z" />
    <glyph glyph-name="afii10029.smcp" horiz-adv-x="603" 
d="M446 0v470h-212q0 -110 -4.5 -187.5t-15.5 -130t-24.5 -83.5t-37 -47t-46.5 -20.5t-60 -4.5v56q20 0 31.5 3.5t25.5 17.5t22 44.5t15.5 81.5t10.5 132t3 193h374v-525h-82z" />
    <glyph glyph-name="afii10030.smcp" horiz-adv-x="754" 
d="M75 0v525h125l177 -430l177 430h125v-525h-79v434l-181 -434h-84l-181 434v-434h-79z" />
    <glyph glyph-name="afii10031.smcp" horiz-adv-x="590" 
d="M432 0v242h-274v-242h-83v525h83v-227h274v227h83v-525h-83z" />
    <glyph glyph-name="afii10032.smcp" horiz-adv-x="620" 
d="M53 263q0 123 70.5 194t186.5 71t187 -71t71 -194q0 -124 -71 -195t-187 -71t-186.5 71t-70.5 195zM136 263q0 -100 47 -155t127 -55t127 55t47 155t-47 154.5t-127 54.5t-127 -54.5t-47 -154.5z" />
    <glyph glyph-name="afii10033.smcp" horiz-adv-x="593" 
d="M435 0v470h-277v-470h-83v525h443v-525h-83z" />
    <glyph glyph-name="afii10034.smcp" horiz-adv-x="525" 
d="M75 0v525h219q81 0 129.5 -41.5t48.5 -114.5t-48.5 -114.5t-129.5 -41.5h-136v-213h-83zM279 470h-121v-201h121q52 0 82.5 26.5t30.5 73.5t-30.5 74t-82.5 27z" />
    <glyph glyph-name="afii10035.smcp" 
d="M310 472q-80 0 -127 -54.5t-47 -154.5t47 -155t127 -55q63 0 101 32t38 88h81q0 -81 -60.5 -128.5t-157.5 -47.5q-117 0 -188 71t-71 195q0 123 71 194t188 71q97 0 157.5 -47.5t60.5 -128.5h-81q0 56 -38 88t-101 32z" />
    <glyph glyph-name="afii10036.smcp" horiz-adv-x="539" 
d="M45 470v55h450v-55h-183v-470h-83v470h-184z" />
    <glyph glyph-name="afii10037.smcp" horiz-adv-x="541" 
d="M508 525l-203 -415q-27 -59 -71.5 -86t-121.5 -27v56q41 0 72.5 16t44.5 43l17 34h-14l-192 379h86l152 -312l142 312h88z" />
    <glyph glyph-name="afii10038.smcp" horiz-adv-x="714" 
d="M315 0v49h-29q-106 0 -170.5 56.5t-64.5 156.5t64.5 157t170.5 57h29v49h83v-49h30q106 0 170.5 -57t64.5 -156q0 -100 -64.5 -157t-170.5 -57h-30v-49h-83zM315 422h-29q-70 0 -111 -41.5t-41 -117.5q0 -77 41 -118.5t111 -41.5h29v319zM398 103h30q70 0 111 41.5
t41 118.5q0 76 -41 117.5t-111 41.5h-30v-319z" />
    <glyph glyph-name="afii10039.smcp" horiz-adv-x="576" 
d="M37 0l203 265l-197 260h92l154 -206l153 206h93l-198 -259l203 -266h-93l-158 213l-160 -213h-92z" />
    <glyph glyph-name="afii10040.smcp" horiz-adv-x="638" 
d="M75 0v525h83v-470h269v470h83v-469h83v-180h-71v124h-447z" />
    <glyph glyph-name="afii10041.smcp" horiz-adv-x="576" 
d="M418 393v132h83v-525h-83v262q-55 -77 -157 -77q-83 0 -134.5 44t-51.5 121v175h83v-177q0 -51 32 -79t88 -28q64 0 102 40t38 112z" />
    <glyph glyph-name="afii10042.smcp" horiz-adv-x="850" 
d="M466 525v-470h226v470h83v-525h-700v525h83v-470h225v470h83z" />
    <glyph glyph-name="afii10043.smcp" horiz-adv-x="903" 
d="M75 0v525h83v-470h225v470h83v-470h226v470h83v-469h83v-180h-71v124h-712z" />
    <glyph glyph-name="afii10044.smcp" horiz-adv-x="647" 
d="M45 470v55h235v-209h132q82 0 132 -42.5t50 -115.5q0 -74 -50 -116t-132 -42h-216v470h-151zM280 55h116q54 0 85.5 27.5t31.5 75.5t-31.5 75t-85.5 27h-116v-205z" />
    <glyph glyph-name="afii10045.smcp" horiz-adv-x="710" 
d="M75 0v525h83v-209h131q82 0 132.5 -42.5t50.5 -115.5q0 -74 -50.5 -116t-132.5 -42h-214zM158 55h117q53 0 85 27.5t32 75.5t-32 75t-85 27h-117v-205zM551 0v525h84v-525h-84z" />
    <glyph glyph-name="afii10046.smcp" horiz-adv-x="525" 
d="M75 0v525h83v-209h131q82 0 132.5 -42.5t50.5 -115.5q0 -74 -50.5 -116t-132.5 -42h-214zM158 55h117q53 0 85 27.5t32 75.5t-32 75t-85 27h-117v-205z" />
    <glyph glyph-name="afii10047.smcp" horiz-adv-x="587" 
d="M281 472q-63 0 -101 -31t-38 -85h-81q0 79 60.5 125.5t157.5 46.5q117 0 188 -70.5t71 -194.5t-71 -195t-188 -71q-97 0 -157.5 46.5t-60.5 125.5h81q0 -54 38 -85t101 -31q76 0 122.5 48.5t50.5 136.5h-252v56h252q-5 85 -51.5 131.5t-121.5 46.5z" />
    <glyph glyph-name="afii10048.smcp" horiz-adv-x="793" 
d="M75 0v525h83v-231h106q9 110 73.5 172t164.5 62q108 0 173.5 -71t65.5 -194q0 -124 -65.5 -195t-173.5 -71q-103 0 -168 64t-70 177h-106v-238h-83zM346 263q0 -100 42 -155t114 -55t114 55t42 155t-42 154.5t-114 54.5t-114 -54.5t-42 -154.5z" />
    <glyph glyph-name="afii10049.smcp" horiz-adv-x="529" 
d="M454 525v-525h-83v211h-110l-132 -211h-88l147 215q-61 11 -96.5 51.5t-35.5 102.5q0 72 49.5 114t129.5 42h219zM371 470h-116q-54 0 -86 -27t-32 -74q0 -48 32 -75t86 -27h116v203z" />
    <glyph glyph-name="afii10050.smcp" horiz-adv-x="447" 
d="M75 0v525h257v101h69v-156h-243v-470h-83z" />
    <glyph glyph-name="afii10051.smcp" horiz-adv-x="684" 
d="M42 470v55h451v-55h-184v-208q47 70 136 70q75 0 121.5 -43t46.5 -117v-54q0 -121 -157 -121v50q34 0 54 17.5t20 49.5v58q0 49 -27.5 76.5t-73.5 27.5q-55 0 -87.5 -40t-32.5 -110v-126h-83v470h-184z" />
    <glyph glyph-name="afii10052.smcp" horiz-adv-x="463" 
d="M135 566l111 134h82l-132 -134h-61zM417 525v-55h-259v-470h-83v525h342z" />
    <glyph glyph-name="afii10053.smcp" 
d="M310 472q-75 0 -121.5 -46.5t-51.5 -131.5h290v-56h-290q4 -88 50.5 -136.5t122.5 -48.5q63 0 101 31t38 85h81q0 -79 -60.5 -125.5t-157.5 -46.5q-117 0 -188 71t-71 195q0 123 71 194t188 71q97 0 157.5 -46.5t60.5 -125.5h-81q0 54 -38 85t-101 31z" />
    <glyph glyph-name="afii10054.smcp" horiz-adv-x="518" 
d="M44 163h79q0 -51 36.5 -80.5t94.5 -29.5t92.5 24.5t34.5 65.5q0 40 -33.5 61t-81 29.5t-95 19.5t-81 42t-33.5 85q0 69 53.5 108.5t141.5 39.5q87 0 141 -42.5t54 -112.5h-79q0 45 -32 72t-83 27t-82 -25.5t-31 -65.5q0 -37 33.5 -57t81 -28.5t95.5 -20t81.5 -43
t33.5 -86.5q0 -71 -57.5 -110t-151.5 -39q-95 0 -153.5 45t-58.5 121z" />
    <glyph glyph-name="afii10055.smcp" horiz-adv-x="232" 
d="M75 0v525h83v-525h-83z" />
    <glyph glyph-name="afii10056.smcp" horiz-adv-x="232" 
d="M75 0v525h83v-525h-83zM-25 579v96h70v-96h-70zM188 579v96h71v-96h-71z" />
    <glyph glyph-name="afii10057.smcp" horiz-adv-x="493" 
d="M336 146v379h84v-379q0 -68 -50.5 -108.5t-130.5 -40.5t-130.5 40.5t-50.5 108.5v28h83v-28q0 -42 27 -67.5t71 -25.5t70.5 25t26.5 68z" />
    <glyph glyph-name="afii10058.smcp" horiz-adv-x="879" 
d="M435 0v470h-201q0 -110 -4.5 -187.5t-15.5 -130t-24.5 -83.5t-37 -47t-46.5 -20.5t-60 -4.5v56q20 0 31.5 3.5t25.5 17.5t22 44.5t15.5 81.5t10.5 132t3 193h364v-209h125q83 0 133 -42.5t50 -115.5q0 -74 -50 -116t-133 -42h-208zM518 55h110q53 0 85 27.5t32 75.5
t-32 75t-85 27h-110v-205z" />
    <glyph glyph-name="afii10059.smcp" horiz-adv-x="861" 
d="M418 0v251h-260v-251h-83v525h83v-219h260v219h83v-219h126q81 0 131 -41t50 -112q0 -72 -49.5 -112.5t-131.5 -40.5h-209zM501 55h112q53 0 83.5 25.5t30.5 72.5t-30.5 72.5t-83.5 25.5h-112v-196z" />
    <glyph glyph-name="afii10060.smcp" horiz-adv-x="686" 
d="M42 470v55h451v-55h-184v-208q47 70 136 70q75 0 121.5 -43t46.5 -117v-172h-83v172q0 49 -27.5 76.5t-73.5 27.5q-55 0 -87.5 -40t-32.5 -110v-126h-83v470h-184z" />
    <glyph glyph-name="afii10061.smcp" horiz-adv-x="536" 
d="M414 0l-189 246l-67 -67v-179h-83v525h83v-245l231 245h94l-210 -221l230 -304h-89zM172 566l111 134h82l-132 -134h-61z" />
    <glyph glyph-name="afii10062.smcp" horiz-adv-x="541" 
d="M122 682h60q0 -36 26.5 -58t67.5 -22t67.5 22t26.5 58h61q0 -58 -43 -92t-112 -34q-68 0 -111 34t-43 92zM508 525l-203 -415q-27 -59 -71.5 -86t-121.5 -27v56q41 0 72.5 16t44.5 43l17 34h-14l-192 379h86l152 -312l142 312h88z" />
    <glyph glyph-name="afii10145.smcp" horiz-adv-x="593" 
d="M75 0v525h83v-470h277v470h83v-525h-186v-124h-71v124h-186z" />
    <glyph glyph-name="uni0400.smcp" horiz-adv-x="493" 
d="M75 0v525h367v-55h-284v-172h255v-56h-255v-187h288v-55h-371zM227 700l112 -134h-62l-131 134h81z" />
    <glyph glyph-name="uni040D.smcp" horiz-adv-x="601" 
d="M278 700l112 -134h-62l-131 134h81zM448 0v395l-293 -395h-80v525h79v-395l293 395h79v-525h-78z" />
    <glyph glyph-name="uni04D8.smcp" 
d="M57 259q0 21 2 32h393q-5 86 -50.5 133.5t-117.5 47.5q-64 0 -103 -30.5t-39 -82.5h-81q0 78 61.5 123.5t159.5 45.5q115 0 184.5 -70.5t69.5 -194.5t-68.5 -195t-180.5 -71q-115 0 -172.5 69t-57.5 193zM289 53q71 0 115 48t48 135h-314v-8q0 -83 38.5 -129t112.5 -46z
" />
    <glyph glyph-name="quoteright_afii10056.smcp" horiz-adv-x="346" 
d="M284 582v76h67v-76h-67zM189 0v525h83v-525h-83zM61 570v88h85v-88q0 -50 -24 -81.5t-62 -31.5v44q14 0 24 19.5t10 49.5h-33z" />
    <glyph glyph-name="afii10056_afii10056.smcp" horiz-adv-x="438" 
d="M-4 582v76h67v-76h-67zM186 582v76h66v-76h-66zM376 582v76h66v-76h-66zM75 0v525h83v-525h-83zM281 0v525h83v-525h-83z" />
    </font>
</defs>
</svg>
