<?xml version="1.0" standalone="no"?>
<!DOCTYPE svg PUBLIC "-//W3C//DTD SVG 1.1//EN" "http://www.w3.org/Graphics/SVG/1.1/DTD/svg11.dtd" >
<svg>
<metadata>
Created by FontForge 20090622 at Wed Mar  1 10:43:36 2017
 By deploy user
Copyright (c) 2013 by Andriy Konstantynov. All rights reserved.
</metadata>
<defs>
<font id="ClinicaPro-Bold" horiz-adv-x="576" >
  <font-face 
    font-family="Clinica Pro Rg"
    font-weight="700"
    font-variant="small-caps"
    font-stretch="normal"
    units-per-em="1000"
    panose-1="2 11 0 3 3 2 0 2 0 4"
    ascent="750"
    descent="-250"
    x-height="500"
    cap-height="700"
    bbox="-57 -233 1125 934"
    underline-thickness="50"
    underline-position="-50"
    unicode-range="U+0020-U+FB03"
  />
<missing-glyph horiz-adv-x="256" 
 />
    <glyph glyph-name="ff" unicode="ff" horiz-adv-x="691" 
d="M609 731q27 0 56 -6v-97q-14 5 -40 5q-62 0 -62 -54v-79h102v-96h-102v-404h-160v404h-163v-404h-160v404h-61v96h61v67q0 87 47.5 125.5t158.5 38.5q28 0 56 -6v-97q-14 5 -40 5q-62 0 -62 -54v-79h163v67q0 87 47.5 125.5t158.5 38.5z" />
    <glyph glyph-name="fi" unicode="fi" horiz-adv-x="594" 
d="M387 0v404h-147v-404h-160v404h-61v96h61v67q0 87 47.5 125.5t158.5 38.5q28 0 56 -6v-97q-14 5 -40 5q-62 0 -62 -54v-79h307v-500h-160zM387 570v130h160v-130h-160z" />
    <glyph glyph-name="ffi" unicode="ffi" horiz-adv-x="917" 
d="M710 0v404h-147v-404h-160v404h-163v-404h-160v404h-61v96h61v67q0 87 47.5 125.5t158.5 38.5q28 0 56 -6v-97q-14 5 -40 5q-62 0 -62 -54v-79h163v67q0 87 47.5 125.5t158.5 38.5q27 0 56 -6v-97q-14 5 -40 5q-62 0 -62 -54v-79h307v-500h-160zM710 570v130h160v-130
h-160z" />
    <glyph glyph-name="quoteright_afii10056" unicode="&#x2019;&#x407;" horiz-adv-x="458" 
d="M365 766v116h132v-116h-132zM232 0v700h168v-700h-168zM44 739v143h153v-143q0 -75 -42 -122t-111 -47v84q23 0 39 23.5t16 61.5h-55z" />
    <glyph glyph-name="afii10056_afii10056" unicode="&#x407;&#x407;" horiz-adv-x="571" 
d="M-38 766v116h132v-116h-132zM220 766v116h132v-116h-132zM478 766v116h132v-116h-132zM59 0v700h168v-700h-168zM345 0v700h168v-700h-168z" />
    <glyph glyph-name="quoteright_afii10104" unicode="&#x2019;&#x457;" horiz-adv-x="440" 
d="M363 566v116h132v-116h-132zM44 557v143h153v-143q0 -75 -42 -122t-111 -47v84q23 0 39 23.5t16 61.5h-55zM233 0v500h160v-500h-160z" />
    <glyph glyph-name="afii10104_afii10104" unicode="&#x457;&#x457;" horiz-adv-x="508" 
d="M-53 566v116h132v-116h-132zM189 566v116h132v-116h-132zM431 566v116h132v-116h-132zM47 0v500h160v-500h-160zM301 0v500h160v-500h-160z" />
    <glyph glyph-name=".notdef" horiz-adv-x="256" 
 />
    <glyph glyph-name=".null" horiz-adv-x="0" 
 />
    <glyph glyph-name="nonmarkingreturn" horiz-adv-x="333" 
 />
    <glyph glyph-name="space" unicode=" " horiz-adv-x="256" 
 />
    <glyph glyph-name="exclam" unicode="!" horiz-adv-x="254" 
d="M207 146v-146h-160v146h160zM207 700v-476h-160v476h160z" />
    <glyph glyph-name="quotedbl" unicode="&#x22;" horiz-adv-x="382" 
d="M171 700l-20 -240h-88l-20 240h128zM339 700l-20 -240h-88l-20 240h128z" />
    <glyph glyph-name="numbersign" unicode="#" horiz-adv-x="715" 
d="M380 0l27 156h-167l-28 -156h-132l27 156h-78v92h94l36 204h-81v92h98l28 156h132l-28 -156h168l28 156h132l-28 -156h78v-92h-95l-36 -204h82v-92h-97l-28 -156h-132zM291 452l-36 -204h168l36 204h-168z" />
    <glyph glyph-name="dollar" unicode="$" horiz-adv-x="614" 
d="M233 -100v100q-99 14 -155 72.5t-56 149.5h159q0 -58 30.5 -88t86.5 -30q54 0 85.5 25.5t31.5 66.5q0 33 -21 54.5t-54.5 31.5t-74 17.5t-81 19.5t-74 31t-54.5 57t-21 93q0 81 53.5 133t144.5 67v100h140v-101q87 -15 137.5 -70t50.5 -137h-159q0 49 -25.5 76.5
t-70.5 27.5q-46 0 -74.5 -27.5t-28.5 -66.5q0 -36 28 -57.5t70.5 -29.5t92 -21t92 -30t70.5 -58t28 -104q0 -85 -57 -137t-154 -65v-100h-140z" />
    <glyph glyph-name="percent" unicode="%" horiz-adv-x="754" 
d="M113 0l410 700h120l-410 -700h-120zM31 558q0 68 42 108t111 40t111 -40t42 -108t-41.5 -107t-111.5 -39q-69 0 -111 39t-42 107zM120 558q0 -31 17 -49t47 -18q28 0 45.5 18t17.5 49q0 30 -17.5 48t-45.5 18q-30 0 -47 -17.5t-17 -48.5zM417 140q0 68 42 108t111 40
t111 -40t42 -108t-41.5 -107t-111.5 -39q-69 0 -111 39t-42 107zM506 140q0 -31 17.5 -49t46.5 -18q28 0 45.5 18.5t17.5 48.5t-17.5 48.5t-45.5 18.5q-29 0 -46.5 -18t-17.5 -49z" />
    <glyph glyph-name="ampersand" unicode="&#x26;" horiz-adv-x="738" 
d="M492 341h143q0 -126 -63 -203l153 -138h-182l-62 57q-76 -63 -208 -63q-111 0 -180 51.5t-69 142.5q0 65 34 110.5t94 83.5q-63 93 -63 160q0 68 55.5 116t161.5 48q98 0 158 -43t60 -117q0 -35 -13 -64.5t-39.5 -53.5t-51 -40t-63.5 -36l110 -119q25 40 25 108zM279 100
q62 0 105 37l-146 144q-57 -43 -57 -93q0 -39 25.5 -63.5t72.5 -24.5zM243 533q0 -32 32 -82q46 25 68.5 46t22.5 51q0 24 -16 38t-42 14q-32 0 -48.5 -21t-16.5 -46z" />
    <glyph glyph-name="quotesingle" unicode="'" horiz-adv-x="214" 
d="M171 700l-20 -240h-88l-20 240h128z" />
    <glyph glyph-name="parenleft" unicode="(" horiz-adv-x="296" 
d="M272 -106v-92q-104 0 -168 127.5t-64 349.5t64 349.5t168 127.5v-92q-42 0 -65 -98.5t-23 -286.5t23 -286.5t65 -98.5z" />
    <glyph glyph-name="parenright" unicode=")" horiz-adv-x="296" 
d="M26 664v92q104 0 168 -127.5t64 -349.5t-64 -349.5t-168 -127.5v92q42 0 65 98.5t23 286.5t-23 286.5t-65 98.5z" />
    <glyph glyph-name="asterisk" unicode="*" horiz-adv-x="463" 
d="M36 561l46 79l103 -60v120h92v-120l104 60l46 -79l-104 -60l104 -60l-46 -79l-104 60v-120h-92v120l-103 -60l-46 79l103 60z" />
    <glyph glyph-name="plus" unicode="+" horiz-adv-x="483" 
d="M42 250v92h153v154h92v-154h153v-92h-153v-154h-92v154h-153z" />
    <glyph glyph-name="comma" unicode="," horiz-adv-x="240" 
d="M44 0v143h153v-143q0 -75 -42 -122t-111 -47v84q23 0 39 23.5t16 61.5h-55z" />
    <glyph glyph-name="hyphen" unicode="-" horiz-adv-x="300" 
d="M42 229v92h216v-92h-216z" />
    <glyph glyph-name="period" unicode="." horiz-adv-x="240" 
d="M44 0v143h153v-143h-153z" />
    <glyph glyph-name="slash" unicode="/" horiz-adv-x="440" 
d="M25 -100l250 800h140l-250 -800h-140z" />
    <glyph glyph-name="zero" unicode="0" horiz-adv-x="635" 
d="M29 350q0 165 79.5 260.5t208.5 95.5q130 0 209.5 -95.5t79.5 -260.5t-79.5 -260.5t-209.5 -95.5q-129 0 -208.5 95.5t-79.5 260.5zM193 350q0 -121 33 -185.5t91 -64.5q59 0 91.5 64.5t32.5 185.5t-32.5 185.5t-91.5 64.5q-58 0 -91 -64.5t-33 -185.5z" />
    <glyph glyph-name="one" unicode="1" horiz-adv-x="388" 
d="M27 523v84q89 0 123 20t34 73h144v-700h-164v523h-137z" />
    <glyph glyph-name="two" unicode="2" horiz-adv-x="590" 
d="M43 104q0 29 36 68.5t87 79.5l102 81.5t87 85.5t36 80q0 41 -27.5 71t-71.5 30q-46 0 -73 -30.5t-27 -84.5h-158q0 102 70.5 161.5t191.5 59.5q115 0 186.5 -55.5t71.5 -151.5q0 -54 -34.5 -108.5t-83.5 -97t-98.5 -78.5t-84 -65t-34.5 -46h334v-104h-510v104z" />
    <glyph glyph-name="three" unicode="3" horiz-adv-x="612" 
d="M239 306v104h50q49 0 77.5 26t28.5 71q0 43 -26.5 68t-70.5 25q-103 0 -103 -112h-156q0 102 72.5 160t190.5 58q120 0 187 -49t67 -138q0 -108 -98 -157q58 -22 91 -67t33 -107q0 -93 -70 -143.5t-201 -50.5q-123 0 -197.5 58.5t-74.5 160.5h156q0 -55 30.5 -84
t86.5 -29q51 0 79.5 27t28.5 75t-28.5 76t-80.5 28h-72z" />
    <glyph glyph-name="four" unicode="4" horiz-adv-x="602" 
d="M370 0v130h-341v108l294 462h195v-462h53v-108h-53v-130h-148zM173 238h197v315z" />
    <glyph glyph-name="five" unicode="5" horiz-adv-x="608" 
d="M53 309l42 391h431v-108h-291l-19 -158q49 27 110 27q112 0 181 -63.5t69 -172.5q0 -110 -68.5 -170.5t-196.5 -60.5q-123 0 -197.5 57.5t-74.5 157.5h156q0 -53 30 -81t85 -28q49 0 77.5 33t28.5 92q0 66 -31.5 102t-87.5 36q-73 0 -93 -54h-151z" />
    <glyph glyph-name="six" unicode="6" horiz-adv-x="603" 
d="M572 224q0 -107 -73 -168.5t-193 -61.5q-137 0 -206 93.5t-69 265.5q0 163 77 258t201 95q106 0 171 -50.5t65 -137.5h-151q0 39 -22.5 60.5t-62.5 21.5q-51 0 -84.5 -51t-39.5 -151q71 58 156 58q104 0 167.5 -62t63.5 -170zM205 224q0 -60 26.5 -92t73.5 -32
q49 0 76 32t27 92q0 61 -27 93t-76 32q-47 0 -73.5 -32t-26.5 -93z" />
    <glyph glyph-name="seven" unicode="7" horiz-adv-x="560" 
d="M29 592v108h500v-108l-240 -592h-162l236 592h-334z" />
    <glyph glyph-name="eight" unicode="8" horiz-adv-x="596" 
d="M51 525q0 84 68 132.5t179 48.5t179 -48.5t68 -132.5q0 -55 -30.5 -95t-84.5 -61q64 -22 100 -67.5t36 -110.5q0 -92 -73.5 -144.5t-194.5 -52.5t-194.5 52.5t-73.5 144.5q0 65 35.5 110.5t99.5 67.5q-53 21 -83.5 61t-30.5 95zM194 207q0 -52 27.5 -79.5t76.5 -27.5
t77 27.5t28 79.5t-28 79.5t-77 27.5t-76.5 -27.5t-27.5 -79.5zM211 509q0 -44 23 -67.5t64 -23.5t64 23.5t23 67.5t-23 67.5t-64 23.5t-64 -23.5t-23 -67.5z" />
    <glyph glyph-name="nine" unicode="9" horiz-adv-x="592" 
d="M31 482q0 104 71.5 164t189.5 60q134 0 201.5 -92.5t67.5 -266.5q0 -164 -77 -258.5t-204 -94.5q-107 0 -172 50.5t-65 137.5h155q0 -39 22.5 -60.5t63.5 -21.5q123 0 120 214q-62 -57 -148 -57q-102 0 -163.5 60t-61.5 165zM387 482q0 58 -25 88t-70 30q-46 0 -71.5 -30
t-25.5 -88t25.5 -88.5t71.5 -30.5q45 0 70 30.5t25 88.5z" />
    <glyph glyph-name="colon" unicode=":" horiz-adv-x="238" 
d="M43 0v143h152v-143h-152zM43 357v143h152v-143h-152z" />
    <glyph glyph-name="semicolon" unicode=";" horiz-adv-x="238" 
d="M43 357v143h152v-143h-152zM43 0v142h152v-142q0 -75 -42 -122t-111 -47v84q23 0 39 23.5t16 61.5h-54z" />
    <glyph glyph-name="less" unicode="&#x3c;" horiz-adv-x="568" 
d="M534 61l-500 198v132l500 198v-142l-332 -122l332 -122v-142z" />
    <glyph glyph-name="equal" unicode="=" horiz-adv-x="536" 
d="M42 170v92h448v-92h-448zM42 388v92h448v-92h-448z" />
    <glyph glyph-name="greater" unicode="&#x3e;" horiz-adv-x="568" 
d="M34 589l500 -198v-132l-500 -198v142l332 122l-332 122v142z" />
    <glyph glyph-name="question" unicode="?" horiz-adv-x="578" 
d="M210 224v16q0 48 17.5 82.5t42 53t49.5 35.5t42.5 41t17.5 57q0 38 -25.5 64.5t-67.5 26.5q-44 0 -69 -30.5t-25 -84.5h-156q0 102 68.5 161.5t186.5 59.5q112 0 181.5 -52.5t69.5 -144.5q0 -44 -12.5 -77t-32 -50.5t-41.5 -34t-41.5 -28.5t-32 -32t-12.5 -47v-16h-160z
M210 0v146h160v-146h-160z" />
    <glyph glyph-name="at" unicode="@" horiz-adv-x="790" 
d="M449 346q0 53 -16 81.5t-44 28.5t-44 -28.5t-16 -81.5t16 -82t44 -29t44 29t16 82zM493 228v13q-17 -37 -52.5 -57.5t-76.5 -20.5q-67 0 -108.5 49t-41.5 134t41.5 133.5t108.5 48.5q57 0 92 -40l7 35h99v-250q0 -38 37 -38q29 0 40.5 24.5t11.5 90.5q0 130 -67 198
t-190 68q-122 0 -189.5 -68t-67.5 -198t67.5 -198t189.5 -68q71 0 119 22l70 -70q-84 -42 -189 -42q-164 0 -264.5 95.5t-100.5 260.5t100.5 260.5t264.5 95.5q165 0 266 -95t101 -261q0 -102 -35.5 -144.5t-126.5 -42.5q-106 0 -106 65z" />
    <glyph glyph-name="A" unicode="A" horiz-adv-x="695" 
d="M16 0l236 700h193l235 -700h-166l-50 149h-233l-48 -149h-167zM349 567l-92 -309h183z" />
    <glyph glyph-name="B" unicode="B" horiz-adv-x="650" 
d="M59 0v700h301q106 0 170 -48.5t64 -132.5q0 -106 -98 -153q58 -22 91 -66.5t33 -106.5q0 -90 -65.5 -141.5t-172.5 -51.5h-323zM227 108h122q51 0 79 26t28 74t-28 74t-79 26h-122v-200zM327 592h-100v-176h100q49 0 76 22.5t27 65.5q0 42 -27 65t-76 23z" />
    <glyph glyph-name="C" unicode="C" horiz-adv-x="698" 
d="M365 596q-79 0 -123.5 -63.5t-44.5 -182.5t44.5 -182.5t123.5 -63.5q64 0 99 36t35 104h163q0 -116 -80.5 -183t-212.5 -67q-153 0 -246.5 95t-93.5 261t93.5 261t246.5 95q132 0 212.5 -67t80.5 -183h-163q0 68 -35 104t-99 36z" />
    <glyph glyph-name="D" unicode="D" horiz-adv-x="696" 
d="M55 0v700h279q149 0 240.5 -93.5t91.5 -256.5t-91.5 -256.5t-240.5 -93.5h-279zM223 108h95q86 0 133 62t47 180t-47 180t-133 62h-95v-484z" />
    <glyph glyph-name="E" unicode="E" horiz-adv-x="581" 
d="M59 0v700h486v-108h-318v-177h277v-109h-277v-198h323v-108h-491z" />
    <glyph glyph-name="F" unicode="F" horiz-adv-x="548" 
d="M476 415v-109h-249v-306h-168v700h459v-108h-291v-177h249z" />
    <glyph glyph-name="G" unicode="G" horiz-adv-x="698" 
d="M379 277v108h283v-385h-132l-11 53q-56 -59 -150 -59q-153 0 -246.5 95t-93.5 261t93.5 261t246.5 95q132 0 212.5 -64.5t80.5 -177.5h-163q0 64 -35 98t-99 34q-79 0 -123.5 -63.5t-44.5 -182.5q0 -120 45.5 -183t126.5 -63q71 0 110.5 36.5t39.5 105.5v31h-140z" />
    <glyph glyph-name="H" unicode="H" horiz-adv-x="715" 
d="M488 0v306h-261v-306h-168v700h168v-285h261v285h168v-700h-168z" />
    <glyph glyph-name="I" unicode="I" horiz-adv-x="286" 
d="M59 0v700h168v-700h-168z" />
    <glyph glyph-name="J" unicode="J" horiz-adv-x="605" 
d="M381 205v495h168v-495q0 -98 -70 -154.5t-184 -56.5t-183.5 56.5t-69.5 154.5v35h168v-35q0 -49 22 -75t63 -26t63.5 26t22.5 75z" />
    <glyph glyph-name="K" unicode="K" horiz-adv-x="674" 
d="M485 0l-188 295l-70 -79v-216h-168v700h168v-281l224 281h187l-245 -288l269 -412h-177z" />
    <glyph glyph-name="L" unicode="L" horiz-adv-x="546" 
d="M520 108v-108h-461v700h168v-592h293z" />
    <glyph glyph-name="M" unicode="M" horiz-adv-x="950" 
d="M59 0v700h259l156 -511l157 511h260v-700h-160v529l-173 -529h-169l-171 529v-529h-159z" />
    <glyph glyph-name="N" unicode="N" horiz-adv-x="721" 
d="M218 443v-443h-159v700h160l283 -443v443h160v-700h-160z" />
    <glyph glyph-name="O" unicode="O" horiz-adv-x="727" 
d="M29 350q0 166 92 261t242 95q151 0 243 -95t92 -261t-92 -261t-243 -95q-150 0 -242 95t-92 261zM197 350q0 -120 44 -183t122 -63q79 0 122.5 63t43.5 183t-43.5 183t-122.5 63q-78 0 -122 -63t-44 -183z" />
    <glyph glyph-name="P" unicode="P" horiz-adv-x="634" 
d="M59 0v700h307q108 0 173 -58t65 -160q0 -101 -65 -159t-173 -58h-139v-265h-168zM333 592h-106v-219h106q51 0 79.5 28t28.5 81q0 54 -28.5 82t-79.5 28z" />
    <glyph glyph-name="Q" unicode="Q" horiz-adv-x="727" 
d="M29 350q0 166 92 261t242 95q151 0 243 -95t92 -261q0 -153 -81 -248l80 -65l-66 -82l-97 79q-75 -40 -171 -40q-150 0 -242 95t-92 261zM344 190l66 83l90 -73q29 61 29 150q0 120 -43.5 183t-122.5 63q-78 0 -122 -63t-44 -183t44 -183t122 -63q39 0 68 15z" />
    <glyph glyph-name="R" unicode="R" horiz-adv-x="641" 
d="M59 0v700h307q108 0 173 -56.5t65 -157.5q0 -74 -37 -125.5t-103 -72.5l168 -288h-179l-129 273h-97v-273h-168zM333 592h-106v-211h106q51 0 79.5 27t28.5 78t-28.5 78.5t-79.5 27.5z" />
    <glyph glyph-name="S" unicode="S" horiz-adv-x="614" 
d="M22 222h159q0 -58 30.5 -88t86.5 -30q54 0 85.5 25.5t31.5 66.5q0 33 -21 54.5t-54.5 31.5t-74 17.5t-81 19.5t-74 31t-54.5 57t-21 93q0 96 74 151t193 55t189 -57.5t70 -156.5h-159q0 49 -25.5 76.5t-70.5 27.5q-46 0 -74.5 -27.5t-28.5 -66.5q0 -36 28 -57.5
t70.5 -29.5t92 -21t92 -30t70.5 -58t28 -104q0 -100 -77.5 -154t-203.5 -54q-131 0 -206 61t-75 167z" />
    <glyph glyph-name="T" unicode="T" horiz-adv-x="636" 
d="M28 592v108h581v-108h-207v-592h-168v592h-206z" />
    <glyph glyph-name="U" unicode="U" horiz-adv-x="708" 
d="M485 247v453h168v-453q0 -117 -82.5 -185t-216.5 -68q-135 0 -217.5 68t-82.5 185v453h168v-453q0 -69 34.5 -106t97.5 -37t97 37t34 106z" />
    <glyph glyph-name="V" unicode="V" horiz-adv-x="714" 
d="M698 700l-247 -700h-192l-243 700h165l175 -567l175 567h167z" />
    <glyph glyph-name="W" unicode="W" horiz-adv-x="1034" 
d="M637 0l-120 494l-119 -494h-192l-190 700h172l115 -541l131 541h168l130 -541l114 541h173l-190 -700h-192z" />
    <glyph glyph-name="X" unicode="X" horiz-adv-x="697" 
d="M14 0l237 354l-229 346h184l143 -240l143 240h185l-231 -345l238 -355h-184l-151 249l-151 -249h-184z" />
    <glyph glyph-name="Y" unicode="Y" horiz-adv-x="689" 
d="M261 0v243l-239 457h180l143 -318l144 318h179l-239 -457v-243h-168z" />
    <glyph glyph-name="Z" unicode="Z" horiz-adv-x="614" 
d="M41 592v108h538v-100l-362 -492h365v-108h-546v100l354 492h-349z" />
    <glyph glyph-name="bracketleft" unicode="[" horiz-adv-x="303" 
d="M47 -192v942h232v-92h-92v-758h92v-92h-232z" />
    <glyph glyph-name="backslash" unicode="\" horiz-adv-x="440" 
d="M165 700l250 -800h-140l-250 800h140z" />
    <glyph glyph-name="bracketright" unicode="]" horiz-adv-x="303" 
d="M256 750v-942h-232v92h92v758h-92v92h232z" />
    <glyph glyph-name="asciicircum" unicode="^" horiz-adv-x="504" 
d="M314 700l166 -200h-146l-82 116l-82 -116h-146l166 200h124z" />
    <glyph glyph-name="underscore" unicode="_" horiz-adv-x="448" 
d="M0 -142v92h448v-92h-448z" />
    <glyph glyph-name="grave" unicode="`" horiz-adv-x="254" 
d="M153 700l95 -145h-102l-140 145h147z" />
    <glyph glyph-name="a" unicode="a" horiz-adv-x="549" 
d="M351 0l-12 58q-52 -64 -130 -64q-81 0 -130 36t-49 99q0 84 74.5 129.5t206.5 45.5h28v24q0 38 -20 59t-55 21q-31 0 -49 -20.5t-18 -56.5h-156q0 81 61.5 128t161.5 47q106 0 170.5 -47.5t64.5 -130.5v-328h-148zM339 222h-28q-120 0 -120 -80q0 -24 15.5 -37t42.5 -13
q42 0 66 31t24 86v13z" />
    <glyph glyph-name="b" unicode="b" horiz-adv-x="578" 
d="M47 0v725h160v-267q48 48 127 48q96 0 155 -68.5t59 -187.5t-59 -187.5t-155 -68.5q-80 0 -127 55l-12 -49h-148zM207 250q0 -77 23.5 -117.5t65.5 -40.5q43 0 67.5 40.5t24.5 117.5t-24.5 117.5t-67.5 40.5q-42 0 -65.5 -40.5t-23.5 -117.5z" />
    <glyph glyph-name="c" unicode="c" horiz-adv-x="545" 
d="M286 408q-45 0 -70.5 -40.5t-25.5 -117.5t25.5 -117.5t70.5 -40.5q32 0 50.5 24.5t18.5 69.5h156q0 -89 -61.5 -140.5t-161.5 -51.5q-116 0 -187 68.5t-71 187.5t71 187.5t187 68.5q100 0 161.5 -51.5t61.5 -140.5h-156q0 45 -18.5 69.5t-50.5 24.5z" />
    <glyph glyph-name="d" unicode="d" horiz-adv-x="577" 
d="M531 725v-725h-148l-12 57q-48 -63 -127 -63q-96 0 -155 68.5t-59 187.5t59 187.5t155 68.5q79 0 127 -48v267h160zM371 250q0 77 -23.5 117.5t-65.5 40.5q-43 0 -67.5 -40.5t-24.5 -117.5t24.5 -117.5t67.5 -40.5q42 0 65.5 40.5t23.5 117.5z" />
    <glyph glyph-name="e" unicode="e" horiz-adv-x="554" 
d="M288 506q113 0 178 -75.5t51 -219.5h-325q0 -56 26 -87.5t68 -31.5q35 0 56 19.5t21 52.5h154q0 -79 -63 -124.5t-166 -45.5q-116 0 -187 68.5t-71 187.5t70.5 187.5t187.5 68.5zM286 408q-40 0 -66.5 -29.5t-26.5 -79.5h168q0 52 -21 80.5t-54 28.5z" />
    <glyph glyph-name="f" unicode="f" horiz-adv-x="368" 
d="M286 731q28 0 56 -6v-97q-14 5 -40 5q-62 0 -62 -54v-79h102v-96h-102v-404h-160v404h-61v96h61v67q0 87 47.5 125.5t158.5 38.5z" />
    <glyph glyph-name="g" unicode="g" horiz-adv-x="578" 
d="M284 -123q40 0 63.5 29t23.5 82v54q-48 -48 -127 -48q-96 0 -155 68.5t-59 187.5t59 187.5t155 68.5q80 0 127 -55l12 49h148v-512q0 -97 -68 -153t-179 -56q-104 0 -168.5 47.5t-64.5 129.5h152q0 -38 22 -58.5t59 -20.5zM371 250q0 77 -23.5 117.5t-65.5 40.5
q-43 0 -67.5 -40.5t-24.5 -117.5t24.5 -117.5t67.5 -40.5q42 0 65.5 40.5t23.5 117.5z" />
    <glyph glyph-name="h" unicode="h" horiz-adv-x="569" 
d="M207 250v-250h-160v725h160v-274q49 55 131 55q83 0 134 -48t51 -130v-328h-160v328q0 38 -18 59t-50 21q-41 0 -64.5 -40.5t-23.5 -117.5z" />
    <glyph glyph-name="i" unicode="i" horiz-adv-x="254" 
d="M47 570v130h160v-130h-160zM47 0v500h160v-500h-160z" />
    <glyph glyph-name="j" unicode="j" horiz-adv-x="254" 
d="M47 570v130h160v-130h-160zM207 500v-540q0 -92 -53.5 -136.5t-168.5 -44.5v98q62 0 62 67v556h160z" />
    <glyph glyph-name="k" unicode="k" horiz-adv-x="551" 
d="M375 0l-115 182l-53 -65v-117h-160v725h160v-395l134 170h174l-169 -208l188 -292h-159z" />
    <glyph glyph-name="l" unicode="l" horiz-adv-x="275" 
d="M47 117v608h160v-596q0 -37 36 -37v-98q-105 0 -150.5 28.5t-45.5 94.5z" />
    <glyph glyph-name="m" unicode="m" horiz-adv-x="830" 
d="M207 250v-250h-160v500h148l12 -61q47 67 118 67q92 0 134 -69q24 35 67.5 52t86.5 17q76 0 123 -48t47 -130v-328h-160v328q0 38 -15 59t-41 21q-33 0 -52.5 -41t-19.5 -117v-250h-160v328q0 38 -15 59t-41 21q-34 0 -53 -40.5t-19 -117.5z" />
    <glyph glyph-name="n" unicode="n" horiz-adv-x="570" 
d="M207 250v-250h-160v500h148l12 -57q49 63 131 63q83 0 134 -48t51 -130v-328h-160v328q0 38 -18 59t-50 21q-41 0 -64.5 -40.5t-23.5 -117.5z" />
    <glyph glyph-name="o" unicode="o" 
d="M30 250q0 119 71 187.5t187 68.5t187 -68.5t71 -187.5t-71 -187.5t-187 -68.5t-187 68.5t-71 187.5zM190 250q0 -77 26 -117.5t72 -40.5t72 40.5t26 117.5t-26 117.5t-72 40.5t-72 -40.5t-26 -117.5z" />
    <glyph glyph-name="p" unicode="p" horiz-adv-x="578" 
d="M47 -215v715h148l12 -57q48 63 127 63q96 0 155 -68.5t59 -187.5t-59 -187.5t-155 -68.5q-79 0 -127 48v-257h-160zM207 250q0 -77 23.5 -117.5t65.5 -40.5q43 0 67.5 40.5t24.5 117.5t-24.5 117.5t-67.5 40.5q-42 0 -65.5 -40.5t-23.5 -117.5z" />
    <glyph glyph-name="q" unicode="q" horiz-adv-x="577" 
d="M531 500v-715h-160v257q-48 -48 -127 -48q-96 0 -155 68.5t-59 187.5t59 187.5t155 68.5q80 0 127 -55l12 49h148zM371 250q0 77 -23.5 117.5t-65.5 40.5q-43 0 -67.5 -40.5t-24.5 -117.5t24.5 -117.5t67.5 -40.5q42 0 65.5 40.5t23.5 117.5z" />
    <glyph glyph-name="r" unicode="r" horiz-adv-x="386" 
d="M207 210v-210h-160v500h140l20 -73q48 79 147 79v-110q-63 0 -105 -53t-42 -133z" />
    <glyph glyph-name="s" unicode="s" horiz-adv-x="521" 
d="M29 166h155q0 -36 19 -55t53 -19q33 0 52 13.5t19 39.5q0 25 -29.5 38t-72 21t-85 20t-72 45t-29.5 86q0 71 61.5 111t162.5 40q92 0 150 -44t58 -118h-147q0 30 -17.5 47t-47.5 17q-27 0 -43.5 -14t-16.5 -39q0 -24 29.5 -37t72 -20.5t85 -20.5t72 -47t29.5 -89
q0 -69 -64.5 -108t-170.5 -39q-100 0 -161.5 46.5t-61.5 125.5z" />
    <glyph glyph-name="t" unicode="t" horiz-adv-x="376" 
d="M288 -6q-111 0 -158.5 38.5t-47.5 125.5v246h-63v96h63v105h160v-105h102v-96h-102v-258q0 -54 62 -54q26 0 40 5v-97q-28 -6 -56 -6z" />
    <glyph glyph-name="u" unicode="u" horiz-adv-x="570" 
d="M363 250v250h160v-500h-148l-12 58q-53 -64 -135 -64q-81 0 -131 45.5t-50 124.5v336h160v-336q0 -34 18 -53t49 -19q42 0 65.5 40.5t23.5 117.5z" />
    <glyph glyph-name="v" unicode="v" horiz-adv-x="566" 
d="M555 500l-182 -500h-180l-182 500h158l114 -372l114 372h158z" />
    <glyph glyph-name="w" unicode="w" horiz-adv-x="834" 
d="M496 0l-79 306l-80 -306h-178l-148 500h164l75 -359l89 359h156l88 -359l76 359h164l-148 -500h-179z" />
    <glyph glyph-name="x" unicode="x" horiz-adv-x="558" 
d="M13 0l178 254l-171 246h174l85 -152l84 152h176l-174 -245l180 -255h-175l-91 161l-91 -161h-175z" />
    <glyph glyph-name="y" unicode="y" horiz-adv-x="554" 
d="M543 500l-198 -556q-29 -85 -96 -125t-186 -40v98q50 0 86.5 17.5t47.5 49.5l21 56h-32l-175 500h162l103 -366l104 366h163z" />
    <glyph glyph-name="z" unicode="z" horiz-adv-x="480" 
d="M27 404v96h426v-96l-262 -308h265v-96h-432v96l253 308h-250z" />
    <glyph glyph-name="braceleft" unicode="{" horiz-adv-x="334" 
d="M100 -17v180q0 67 -74 67v98q74 0 74 67v180q0 92 51 136.5t159 44.5v-97q-33 0 -51.5 -17.5t-18.5 -50.5v-160q0 -110 -79 -152q79 -43 79 -152v-160q0 -32 18.5 -49.5t51.5 -17.5v-97q-108 0 -159 44t-51 136z" />
    <glyph glyph-name="bar" unicode="|" horiz-adv-x="234" 
d="M47 -100v800h140v-800h-140z" />
    <glyph glyph-name="braceright" unicode="}" horiz-adv-x="334" 
d="M234 575v-179q0 -33 19.5 -50.5t54.5 -17.5v-97q-74 0 -74 -68v-180q0 -92 -51 -136t-159 -44v97q33 0 51.5 17.5t18.5 49.5v160q0 110 79 152q-79 43 -79 153v159q0 33 -18.5 50.5t-51.5 17.5v97q108 0 159 -44.5t51 -136.5z" />
    <glyph glyph-name="asciitilde" unicode="~" horiz-adv-x="457" 
d="M32 230q0 69 34.5 109t86.5 40q38 0 74.5 -28.5t55.5 -28.5q18 0 31 12.5t13 34.5h100q0 -67 -34.5 -108t-86.5 -41q-31 0 -54 14.5t-40.5 29t-35.5 14.5q-19 0 -32 -13t-13 -35h-99z" />
    <glyph glyph-name="exclamdown" unicode="&#xa1;" horiz-adv-x="254" 
d="M47 354v146h160v-146h-160zM47 -200v476h160v-476h-160z" />
    <glyph glyph-name="cent" unicode="&#xa2;" horiz-adv-x="545" 
d="M218 -100v102q-87 18 -137.5 83t-50.5 165t50.5 164.5t137.5 82.5v103h140v-103q71 -16 112 -64t41 -119h-156q0 45 -18.5 69.5t-50.5 24.5q-45 0 -70.5 -40.5t-25.5 -117.5t25.5 -117.5t70.5 -40.5q32 0 50.5 24.5t18.5 69.5h156q0 -72 -41.5 -120t-111.5 -63v-103h-140
z" />
    <glyph glyph-name="sterling" unicode="&#xa3;" horiz-adv-x="596" 
d="M22 262v108h42v137q0 92 68.5 145.5t179.5 53.5q112 0 179.5 -53t67.5 -146v-47h-164v47q0 41 -21.5 65t-59.5 24t-59.5 -24t-21.5 -65v-137h210v-108h-210v-154h329v-108h-540v108h42v154h-42z" />
    <glyph glyph-name="currency" unicode="&#xa4;" horiz-adv-x="526" 
d="M68 325q0 57 26 103l-70 71l65 65l73 -73q42 24 101 24q57 0 101 -24l73 73l65 -65l-71 -71q27 -44 27 -103q0 -58 -27 -104l71 -70l-65 -65l-73 73q-44 -24 -101 -24q-59 0 -101 24l-73 -73l-65 65l70 70q-26 47 -26 104zM176 325q0 -47 23 -71.5t64 -24.5t64 24.5
t23 71.5t-23 71.5t-64 24.5t-64 -24.5t-23 -71.5z" />
    <glyph glyph-name="yen" unicode="&#xa5;" horiz-adv-x="689" 
d="M145 182v76h108l-231 442h180l143 -318l144 318h179l-231 -442h107v-76h-115v-48h115v-76h-115v-58h-168v58h-116v76h116v48h-116z" />
    <glyph glyph-name="brokenbar" unicode="&#xa6;" horiz-adv-x="234" 
d="M47 -100v350h140v-350h-140zM187 700v-350h-140v350h140z" />
    <glyph glyph-name="section" unicode="&#xa7;" horiz-adv-x="561" 
d="M29 -49h155q0 -35 24.5 -54.5t67.5 -19.5t67 20t24 58q0 25 -18 41.5t-47 25t-64 16t-70 19t-64 29t-47 51.5t-18 81q0 102 76 155q-76 47 -76 144q0 89 67 139t178 50q101 0 164 -44t63 -118h-147q0 30 -23 47t-63 17q-36 0 -57.5 -21.5t-21.5 -57.5q0 -29 24.5 -47
t60.5 -25.5t79 -20.5t79 -30t60.5 -57t24.5 -98q0 -95 -80 -145q80 -47 80 -145q0 -85 -70 -133.5t-186 -48.5q-108 0 -175 46.5t-67 125.5zM376 246q0 34 -27.5 50.5t-80.5 28.5q-36 -8 -57.5 -33t-21.5 -63q0 -34 26 -49.5t79 -28.5q38 7 60 32t22 63z" />
    <glyph glyph-name="dieresis" unicode="&#xa8;" horiz-adv-x="440" 
d="M39 566v116h132v-116h-132zM269 566v116h132v-116h-132z" />
    <glyph glyph-name="copyright" unicode="&#xa9;" horiz-adv-x="785" 
d="M29 350q0 165 100 260.5t263 95.5q164 0 264 -95t100 -261t-100 -261t-264 -95q-163 0 -263 95.5t-100 260.5zM145 350q0 -126 65 -192t182 -66q118 0 182.5 66t64.5 192t-64.5 192t-182.5 66q-117 0 -182 -66t-65 -192zM400 473q-36 0 -56 -31t-20 -91q0 -59 20 -90.5
t56 -31.5q26 0 40.5 19.5t14.5 55.5h113q0 -69 -46.5 -109t-120.5 -40q-88 0 -141.5 52.5t-53.5 143.5t53.5 143.5t141.5 52.5q74 0 120.5 -39.5t46.5 -108.5h-113q0 36 -14.5 55t-40.5 19z" />
    <glyph glyph-name="ordfeminine" unicode="&#xaa;" horiz-adv-x="409" 
d="M252 350l-9 32q-38 -36 -87 -36q-60 0 -96 25t-36 70q0 59 53.5 91.5t146.5 32.5h19v13q0 49 -47 49q-39 0 -39 -48h-124q0 58 44.5 91.5t118.5 33.5q79 0 127.5 -33.5t48.5 -92.5v-228h-120zM243 499h-19q-71 0 -71 -47q0 -29 37 -29q24 0 38.5 18t14.5 51v7z" />
    <glyph glyph-name="guillemotleft" unicode="&#xab;" horiz-adv-x="487" 
d="M248 320l199 170v-143l-91 -73l91 -72v-142l-199 169v91zM34 320l199 170v-143l-91 -73l91 -72v-142l-199 169v91z" />
    <glyph glyph-name="logicalnot" unicode="&#xac;" horiz-adv-x="499" 
d="M42 304v92h398v-196h-128v104h-270z" />
    <glyph glyph-name="uni00AD" unicode="&#xad;" horiz-adv-x="325" 
d="M42 229v92h241v-92h-241z" />
    <glyph glyph-name="registered" unicode="&#xae;" horiz-adv-x="785" 
d="M29 350q0 165 100 260.5t263 95.5q164 0 264 -95t100 -261t-100 -261t-264 -95q-163 0 -263 95.5t-100 260.5zM145 350q0 -126 65 -192t182 -66q118 0 182.5 66t64.5 192t-64.5 192t-182.5 66q-117 0 -182 -66t-65 -192zM252 181v350h163q56 0 90 -29t34 -80
q0 -73 -67 -99l82 -142h-105l-59 133h-40v-133h-98zM395 469h-45v-93h45q48 0 48 46q0 47 -48 47z" />
    <glyph glyph-name="macron" unicode="&#xaf;" horiz-adv-x="440" 
d="M59 572v92h322v-92h-322z" />
    <glyph glyph-name="degree" unicode="&#xb0;" horiz-adv-x="306" 
d="M30 588q0 54 34 86t89 32q56 0 89.5 -32t33.5 -86t-33.5 -85t-89.5 -31q-55 0 -89 31.5t-34 84.5zM103 588q0 -25 13.5 -39t36.5 -14q22 0 35.5 14.5t13.5 38.5t-13.5 38t-35.5 14q-23 0 -36.5 -14t-13.5 -38z" />
    <glyph glyph-name="plusminus" unicode="&#xb1;" horiz-adv-x="482" 
d="M42 334v92h153v154h92v-154h153v-92h-153v-154h-92v154h-153zM42 56v92h398v-92h-398z" />
    <glyph glyph-name="twosuperior" unicode="&#xb2;" horiz-adv-x="314" 
d="M25 410q0 19 43 54.5l86 73t43 61.5q0 17 -11.5 30.5t-30.5 13.5q-43 0 -43 -52h-92q0 52 36.5 82t100.5 30q61 0 98.5 -27.5t37.5 -76.5q0 -41 -41.5 -83t-82.5 -70t-41 -36h163v-60h-266v60z" />
    <glyph glyph-name="threesuperior" unicode="&#xb3;" horiz-adv-x="325" 
d="M129 499v60h24q23 0 35.5 11.5t12.5 31.5q0 18 -12 29.5t-31 11.5q-45 0 -45 -52h-91q0 53 38 82.5t101 29.5t98 -24.5t35 -69.5q0 -54 -47 -78q60 -26 60 -87q0 -47 -36.5 -72t-105.5 -25q-65 0 -104 30t-39 82h91q0 -51 52 -51q47 0 47 45q0 46 -49 46h-34z" />
    <glyph glyph-name="acute" unicode="&#xb4;" horiz-adv-x="254" 
d="M6 555l95 145h147l-140 -145h-102z" />
    <glyph glyph-name="mu" unicode="&#xb5;" horiz-adv-x="570" 
d="M47 -150v650h160v-336q0 -34 18 -53t49 -19q42 0 65.5 40.5t23.5 117.5v250h160v-500h-148l-12 58q-43 -64 -115 -64q-29 0 -41 19v-163h-160z" />
    <glyph glyph-name="paragraph" unicode="&#xb6;" horiz-adv-x="748" 
d="M451 700v-800h-152v365h-31q-108 0 -173 58t-65 159q0 102 65 160t173 58h183zM536 -100v800h152v-800h-152z" />
    <glyph glyph-name="periodcentered" unicode="&#xb7;" horiz-adv-x="238" 
d="M43 207v141h152v-141h-152z" />
    <glyph glyph-name="cedilla" unicode="&#xb8;" horiz-adv-x="304" 
d="M103 0h86v-20q0 -14 9.5 -25t21 -18t21 -23t9.5 -39q0 -40 -27.5 -61t-73.5 -21q-37 0 -68 21v64q24 -19 49 -19q32 0 32 24q0 12 -15 23.5t-29.5 29.5t-14.5 44v20z" />
    <glyph glyph-name="onesuperior" unicode="&#xb9;" horiz-adv-x="217" 
d="M18 602v49q46 0 64.5 10.5t18.5 38.5h83v-350h-96v252h-70z" />
    <glyph glyph-name="ordmasculine" unicode="&#xba;" horiz-adv-x="425" 
d="M24 525q0 83 51.5 131t136.5 48t137 -47.5t52 -131.5t-52 -131.5t-137 -47.5t-136.5 48t-51.5 131zM153 525q0 -102 59 -102q60 0 60 102t-60 102q-59 0 -59 -102z" />
    <glyph glyph-name="guillemotright" unicode="&#xbb;" horiz-adv-x="487" 
d="M239 229l-199 -169v142l91 73l-91 72v143l199 -170v-91zM453 229l-199 -169v142l91 73l-91 72v143l199 -170v-91z" />
    <glyph glyph-name="onequarter" unicode="&#xbc;" horiz-adv-x="663" 
d="M18 602v49q46 0 64.5 10.5t18.5 38.5h83v-350h-96v252h-70zM87 0l350 700h117l-350 -700h-117zM529 0v63h-172v63l144 224h114v-224h24v-63h-24v-63h-86zM441 126h88v138z" />
    <glyph glyph-name="onehalf" unicode="&#xbd;" horiz-adv-x="706" 
d="M18 602v49q46 0 64.5 10.5t18.5 38.5h83v-350h-96v252h-70zM87 0l350 700h117l-350 -700h-117zM416 60q0 19 43 54.5l86 73t43 61.5q0 17 -11.5 30.5t-30.5 13.5q-43 0 -43 -52h-92q0 52 36 82t100 30q62 0 99.5 -27.5t37.5 -76.5q0 -32 -26 -65.5t-57 -55.5l-57 -41.5
t-26 -26.5h163v-60h-265v60z" />
    <glyph glyph-name="threequarters" unicode="&#xbe;" horiz-adv-x="748" 
d="M129 499v60h24q23 0 35.5 11.5t12.5 31.5q0 18 -12 29.5t-31 11.5q-45 0 -45 -52h-91q0 53 38 82.5t101 29.5t98 -24.5t35 -69.5q0 -54 -47 -78q60 -26 60 -87q0 -47 -36.5 -72t-105.5 -25q-65 0 -104 30t-39 82h91q0 -51 52 -51q47 0 47 45q0 46 -49 46h-34zM169 0
l350 700h116l-350 -700h-116zM614 0v63h-172v63l144 224h114v-224h24v-63h-24v-63h-86zM526 126h88v138z" />
    <glyph glyph-name="questiondown" unicode="&#xbf;" horiz-adv-x="578" 
d="M370 276v-16q0 -48 -17.5 -82.5t-42 -53t-49.5 -35.5t-42.5 -41t-17.5 -57q0 -38 25.5 -64.5t67.5 -26.5q43 0 68.5 26.5t25.5 73.5h156q0 -95 -69 -150.5t-186 -55.5q-112 0 -181.5 52.5t-69.5 144.5q0 44 12.5 77t32 50.5t41.5 34t41.5 28.5t32 32t12.5 47v16h160z
M370 500v-146h-160v146h160z" />
    <glyph glyph-name="Agrave" unicode="&#xc0;" horiz-adv-x="695" 
d="M16 0l236 700h193l235 -700h-166l-50 149h-233l-48 -149h-167zM349 567l-92 -309h183zM363 900l95 -145h-102l-140 145h147z" />
    <glyph glyph-name="Aacute" unicode="&#xc1;" horiz-adv-x="695" 
d="M16 0l236 700h193l235 -700h-166l-50 149h-233l-48 -149h-167zM349 567l-92 -309h183zM234 755l95 145h147l-140 -145h-102z" />
    <glyph glyph-name="Acircumflex" unicode="&#xc2;" horiz-adv-x="695" 
d="M16 0l236 700h193l235 -700h-166l-50 149h-233l-48 -149h-167zM349 567l-92 -309h183zM408 900l112 -145h-119l-55 85l-54 -85h-118l111 145h123z" />
    <glyph glyph-name="Atilde" unicode="&#xc3;" horiz-adv-x="695" 
d="M16 0l236 700h193l235 -700h-166l-50 149h-233l-48 -149h-167zM349 567l-92 -309h183zM175 770q0 55 30 87.5t76 32.5q34 0 65 -23.5t47 -23.5q17 0 28 11t11 31h88q0 -55 -30.5 -87.5t-76.5 -32.5q-35 0 -65.5 22t-46.5 22q-17 0 -28 -10t-11 -29h-87z" />
    <glyph glyph-name="Adieresis" unicode="&#xc4;" horiz-adv-x="695" 
d="M16 0l236 700h193l235 -700h-166l-50 149h-233l-48 -149h-167zM349 567l-92 -309h183zM166 766v116h132v-116h-132zM396 766v116h132v-116h-132z" />
    <glyph glyph-name="Aring" unicode="&#xc5;" horiz-adv-x="695" 
d="M16 0l236 700h193l235 -700h-166l-50 149h-233l-48 -149h-167zM349 567l-92 -309h183zM240 831q0 48 29.5 75.5t78.5 27.5t78.5 -27.5t29.5 -75.5q0 -47 -29.5 -74t-78.5 -27t-78.5 27t-29.5 74zM308 831q0 -20 10.5 -31t29.5 -11q17 0 27 11.5t10 30.5t-10 30t-27 11
q-40 0 -40 -41z" />
    <glyph glyph-name="AE" unicode="&#xc6;" horiz-adv-x="811" 
d="M361 0v149h-130l-48 -149h-167l236 700h523v-108h-258v-177h217v-109h-217v-198h263v-108h-419zM257 258h104v334h-8z" />
    <glyph glyph-name="Ccedilla" unicode="&#xc7;" horiz-adv-x="698" 
d="M365 596q-79 0 -123.5 -63.5t-44.5 -182.5t44.5 -182.5t123.5 -63.5q64 0 99 36t35 104h163q0 -106 -68 -171.5t-183 -76.5v-16q0 -14 9.5 -25t21 -18t21 -23t9.5 -39q0 -40 -27.5 -61t-73.5 -21q-37 0 -68 21v64q24 -19 49 -19q32 0 32 24q0 12 -15 23.5t-29.5 29.5
t-14.5 44v16q-135 14 -215.5 107.5t-80.5 246.5q0 166 93.5 261t246.5 95q132 0 212.5 -67t80.5 -183h-163q0 68 -35 104t-99 36z" />
    <glyph glyph-name="Egrave" unicode="&#xc8;" horiz-adv-x="581" 
d="M59 0v700h486v-108h-318v-177h277v-109h-277v-198h323v-108h-491zM323 900l95 -145h-102l-140 145h147z" />
    <glyph glyph-name="Eacute" unicode="&#xc9;" horiz-adv-x="581" 
d="M59 0v700h486v-108h-318v-177h277v-109h-277v-198h323v-108h-491zM196 755l95 145h147l-140 -145h-102z" />
    <glyph glyph-name="Ecircumflex" unicode="&#xca;" horiz-adv-x="581" 
d="M59 0v700h486v-108h-318v-177h277v-109h-277v-198h323v-108h-491zM368 900l112 -145h-119l-55 85l-54 -85h-118l111 145h123z" />
    <glyph glyph-name="Edieresis" unicode="&#xcb;" horiz-adv-x="581" 
d="M59 0v700h486v-108h-318v-177h277v-109h-277v-198h323v-108h-491zM126 766v116h132v-116h-132zM356 766v116h132v-116h-132z" />
    <glyph glyph-name="Igrave" unicode="&#xcc;" horiz-adv-x="286" 
d="M59 0v700h168v-700h-168zM158 900l95 -145h-102l-140 145h147z" />
    <glyph glyph-name="Iacute" unicode="&#xcd;" horiz-adv-x="286" 
d="M59 0v700h168v-700h-168zM31 755l95 145h147l-140 -145h-102z" />
    <glyph glyph-name="Icircumflex" unicode="&#xce;" horiz-adv-x="286" 
d="M59 0v700h168v-700h-168zM204 900l112 -145h-119l-55 85l-54 -85h-118l111 145h123z" />
    <glyph glyph-name="Idieresis" unicode="&#xcf;" horiz-adv-x="286" 
d="M59 0v700h168v-700h-168zM-38 766v116h132v-116h-132zM192 766v116h132v-116h-132z" />
    <glyph glyph-name="Eth" unicode="&#xd0;" horiz-adv-x="723" 
d="M82 0v307h-63v96h63v297h279q149 0 240.5 -93.5t91.5 -256.5t-91.5 -256.5t-240.5 -93.5h-279zM250 108h95q86 0 133 62t47 180t-47 180t-133 62h-95v-189h122v-96h-122v-199z" />
    <glyph glyph-name="Ntilde" unicode="&#xd1;" horiz-adv-x="721" 
d="M218 443v-443h-159v700h160l283 -443v443h160v-700h-160zM188 770q0 55 30 87.5t76 32.5q34 0 65 -23.5t47 -23.5q17 0 28 11t11 31h88q0 -55 -30.5 -87.5t-76.5 -32.5q-35 0 -65.5 22t-46.5 22q-17 0 -28 -10t-11 -29h-87z" />
    <glyph glyph-name="Ograve" unicode="&#xd2;" horiz-adv-x="727" 
d="M29 350q0 166 92 261t242 95q151 0 243 -95t92 -261t-92 -261t-243 -95q-150 0 -242 95t-92 261zM197 350q0 -120 44 -183t122 -63q79 0 122.5 63t43.5 183t-43.5 183t-122.5 63q-78 0 -122 -63t-44 -183zM379 900l95 -145h-102l-140 145h147z" />
    <glyph glyph-name="Oacute" unicode="&#xd3;" horiz-adv-x="727" 
d="M29 350q0 166 92 261t242 95q151 0 243 -95t92 -261t-92 -261t-243 -95q-150 0 -242 95t-92 261zM197 350q0 -120 44 -183t122 -63q79 0 122.5 63t43.5 183t-43.5 183t-122.5 63q-78 0 -122 -63t-44 -183zM252 755l95 145h147l-140 -145h-102z" />
    <glyph glyph-name="Ocircumflex" unicode="&#xd4;" horiz-adv-x="727" 
d="M29 350q0 166 92 261t242 95q151 0 243 -95t92 -261t-92 -261t-243 -95q-150 0 -242 95t-92 261zM197 350q0 -120 44 -183t122 -63q79 0 122.5 63t43.5 183t-43.5 183t-122.5 63q-78 0 -122 -63t-44 -183zM425 900l112 -145h-119l-55 85l-54 -85h-118l111 145h123z" />
    <glyph glyph-name="Otilde" unicode="&#xd5;" horiz-adv-x="727" 
d="M29 350q0 166 92 261t242 95q151 0 243 -95t92 -261t-92 -261t-243 -95q-150 0 -242 95t-92 261zM197 350q0 -120 44 -183t122 -63q79 0 122.5 63t43.5 183t-43.5 183t-122.5 63q-78 0 -122 -63t-44 -183zM191 770q0 55 30 87.5t76 32.5q34 0 65 -23.5t47 -23.5
q17 0 28 11t11 31h88q0 -55 -30.5 -87.5t-76.5 -32.5q-35 0 -65.5 22t-46.5 22q-17 0 -28 -10t-11 -29h-87z" />
    <glyph glyph-name="Odieresis" unicode="&#xd6;" horiz-adv-x="727" 
d="M29 350q0 166 92 261t242 95q151 0 243 -95t92 -261t-92 -261t-243 -95q-150 0 -242 95t-92 261zM197 350q0 -120 44 -183t122 -63q79 0 122.5 63t43.5 183t-43.5 183t-122.5 63q-78 0 -122 -63t-44 -183zM183 766v116h132v-116h-132zM413 766v116h132v-116h-132z" />
    <glyph glyph-name="multiply" unicode="&#xd7;" horiz-adv-x="490" 
d="M58 418l65 65l122 -122l122 122l65 -65l-122 -122l122 -122l-65 -65l-122 122l-122 -122l-65 65l122 122z" />
    <glyph glyph-name="Oslash" unicode="&#xd8;" horiz-adv-x="727" 
d="M45 0l69 96q-85 96 -85 254q0 166 92 261t242 95q91 0 163 -37l22 31h131l-68 -95q87 -96 87 -255q0 -166 -92 -261t-243 -95q-94 0 -164 37l-22 -31h-132zM537 349q0 75 -17 129l-253 -352q39 -30 96 -30q83 0 128.5 65t45.5 188zM189 349q0 -75 16 -126l253 351
q-39 30 -95 30q-82 0 -128 -65.5t-46 -189.5z" />
    <glyph glyph-name="Ugrave" unicode="&#xd9;" horiz-adv-x="708" 
d="M485 247v453h168v-453q0 -117 -82.5 -185t-216.5 -68q-135 0 -217.5 68t-82.5 185v453h168v-453q0 -69 34.5 -106t97.5 -37t97 37t34 106zM370 900l95 -145h-102l-140 145h147z" />
    <glyph glyph-name="Uacute" unicode="&#xda;" horiz-adv-x="708" 
d="M485 247v453h168v-453q0 -117 -82.5 -185t-216.5 -68q-135 0 -217.5 68t-82.5 185v453h168v-453q0 -69 34.5 -106t97.5 -37t97 37t34 106zM243 755l95 145h147l-140 -145h-102z" />
    <glyph glyph-name="Ucircumflex" unicode="&#xdb;" horiz-adv-x="708" 
d="M485 247v453h168v-453q0 -117 -82.5 -185t-216.5 -68q-135 0 -217.5 68t-82.5 185v453h168v-453q0 -69 34.5 -106t97.5 -37t97 37t34 106zM415 900l112 -145h-119l-55 85l-54 -85h-118l111 145h123z" />
    <glyph glyph-name="Udieresis" unicode="&#xdc;" horiz-adv-x="708" 
d="M485 247v453h168v-453q0 -117 -82.5 -185t-216.5 -68q-135 0 -217.5 68t-82.5 185v453h168v-453q0 -69 34.5 -106t97.5 -37t97 37t34 106zM173 766v116h132v-116h-132zM403 766v116h132v-116h-132z" />
    <glyph glyph-name="Yacute" unicode="&#xdd;" horiz-adv-x="689" 
d="M261 0v243l-239 457h180l143 -318l144 318h179l-239 -457v-243h-168zM233 755l95 145h147l-140 -145h-102z" />
    <glyph glyph-name="Thorn" unicode="&#xde;" horiz-adv-x="612" 
d="M59 0v684h168v-123h117q108 0 173 -56t65 -154t-65 -153.5t-173 -55.5h-117v-142h-168zM311 453h-84v-203h84q51 0 79.5 26.5t28.5 74.5q0 49 -28.5 75.5t-79.5 26.5z" />
    <glyph glyph-name="germandbls" unicode="&#xdf;" horiz-adv-x="706" 
d="M242 166h139q0 -35 17 -54.5t47 -19.5q64 0 64 53q0 25 -23.5 38t-56.5 21t-66 20t-56.5 45t-23.5 86q0 42 38.5 101t38.5 104q0 73 -76 73q-36 0 -56.5 -19t-20.5 -54v-560h-160v548q0 96 54.5 139.5t182.5 43.5q236 0 236 -175q0 -41 -12 -73t-26.5 -48.5t-26.5 -37.5
t-12 -42q0 -24 23.5 -37t56.5 -21t66 -20.5t56.5 -46.5t23.5 -89q0 -69 -60.5 -108t-158.5 -39q-93 0 -150.5 46.5t-57.5 125.5z" />
    <glyph glyph-name="agrave" unicode="&#xe0;" horiz-adv-x="549" 
d="M351 0l-12 58q-52 -64 -130 -64q-81 0 -130 36t-49 99q0 84 74.5 129.5t206.5 45.5h28v24q0 38 -20 59t-55 21q-31 0 -49 -20.5t-18 -56.5h-156q0 81 61.5 128t161.5 47q106 0 170.5 -47.5t64.5 -130.5v-328h-148zM339 222h-28q-120 0 -120 -80q0 -24 15.5 -37t42.5 -13
q42 0 66 31t24 86v13zM283 700l95 -145h-102l-140 145h147z" />
    <glyph glyph-name="aacute" unicode="&#xe1;" horiz-adv-x="549" 
d="M351 0l-12 58q-52 -64 -130 -64q-81 0 -130 36t-49 99q0 84 74.5 129.5t206.5 45.5h28v24q0 38 -20 59t-55 21q-31 0 -49 -20.5t-18 -56.5h-156q0 81 61.5 128t161.5 47q106 0 170.5 -47.5t64.5 -130.5v-328h-148zM339 222h-28q-120 0 -120 -80q0 -24 15.5 -37t42.5 -13
q42 0 66 31t24 86v13zM152 555l95 145h147l-140 -145h-102z" />
    <glyph glyph-name="acircumflex" unicode="&#xe2;" horiz-adv-x="549" 
d="M351 0l-12 58q-52 -64 -130 -64q-81 0 -130 36t-49 99q0 84 74.5 129.5t206.5 45.5h28v24q0 38 -20 59t-55 21q-31 0 -49 -20.5t-18 -56.5h-156q0 81 61.5 128t161.5 47q106 0 170.5 -47.5t64.5 -130.5v-328h-148zM339 222h-28q-120 0 -120 -80q0 -24 15.5 -37t42.5 -13
q42 0 66 31t24 86v13zM326 700l112 -145h-119l-55 85l-54 -85h-118l111 145h123z" />
    <glyph glyph-name="atilde" unicode="&#xe3;" horiz-adv-x="549" 
d="M351 0l-12 58q-52 -64 -130 -64q-81 0 -130 36t-49 99q0 84 74.5 129.5t206.5 45.5h28v24q0 38 -20 59t-55 21q-31 0 -49 -20.5t-18 -56.5h-156q0 81 61.5 128t161.5 47q106 0 170.5 -47.5t64.5 -130.5v-328h-148zM339 222h-28q-120 0 -120 -80q0 -24 15.5 -37t42.5 -13
q42 0 66 31t24 86v13zM93 570q0 55 30 87.5t76 32.5q34 0 65 -23.5t47 -23.5q17 0 28 11t11 31h88q0 -55 -30.5 -87.5t-76.5 -32.5q-35 0 -65.5 22t-46.5 22q-17 0 -28 -10t-11 -29h-87z" />
    <glyph glyph-name="adieresis" unicode="&#xe4;" horiz-adv-x="549" 
d="M351 0l-12 58q-52 -64 -130 -64q-81 0 -130 36t-49 99q0 84 74.5 129.5t206.5 45.5h28v24q0 38 -20 59t-55 21q-31 0 -49 -20.5t-18 -56.5h-156q0 81 61.5 128t161.5 47q106 0 170.5 -47.5t64.5 -130.5v-328h-148zM339 222h-28q-120 0 -120 -80q0 -24 15.5 -37t42.5 -13
q42 0 66 31t24 86v13zM84 566v116h132v-116h-132zM314 566v116h132v-116h-132z" />
    <glyph glyph-name="aring" unicode="&#xe5;" horiz-adv-x="549" 
d="M351 0l-12 58q-52 -64 -130 -64q-81 0 -130 36t-49 99q0 84 74.5 129.5t206.5 45.5h28v24q0 38 -20 59t-55 21q-31 0 -49 -20.5t-18 -56.5h-156q0 81 61.5 128t161.5 47q106 0 170.5 -47.5t64.5 -130.5v-328h-148zM339 222h-28q-120 0 -120 -80q0 -24 15.5 -37t42.5 -13
q42 0 66 31t24 86v13zM158 631q0 48 29.5 75.5t78.5 27.5t78.5 -27.5t29.5 -75.5q0 -47 -29.5 -74t-78.5 -27t-78.5 27t-29.5 74zM226 631q0 -20 10.5 -31t29.5 -11q17 0 27 11.5t10 30.5t-10 30t-27 11q-40 0 -40 -41z" />
    <glyph glyph-name="ae" unicode="&#xe6;" horiz-adv-x="855" 
d="M589 506q113 0 178 -75.5t51 -219.5h-325q0 -56 26 -87.5t68 -31.5q35 0 56 19.5t21 52.5h154q0 -79 -63 -124.5t-166 -45.5q-115 0 -174 82q-64 -82 -206 -82q-81 0 -130 36t-49 99q0 84 74.5 129.5t206.5 45.5h28v24q0 38 -20 59t-55 21q-31 0 -49 -20.5t-18 -56.5
h-156q0 81 61.5 128t161.5 47q112 0 163 -68q59 68 162 68zM587 408q-40 0 -66.5 -29.5t-26.5 -79.5h168q0 52 -21 80.5t-54 28.5zM339 222h-28q-120 0 -120 -80q0 -24 15.5 -37t42.5 -13q42 0 66 31t24 86v13z" />
    <glyph glyph-name="ccedilla" unicode="&#xe7;" horiz-adv-x="545" 
d="M286 408q-45 0 -70.5 -40.5t-25.5 -117.5t25.5 -117.5t70.5 -40.5q32 0 50.5 24.5t18.5 69.5h156q0 -79 -49.5 -129t-131.5 -60v-17q0 -14 9.5 -25t21 -18t21 -23t9.5 -39q0 -40 -27.5 -61t-73.5 -21q-36 0 -68 21v64q24 -19 49 -19q32 0 32 24q0 12 -14.5 23.5
t-29.5 29.5t-15 44v17q-98 12 -156 79t-58 174q0 119 71 187.5t187 68.5q100 0 161.5 -51.5t61.5 -140.5h-156q0 45 -18.5 69.5t-50.5 24.5z" />
    <glyph glyph-name="egrave" unicode="&#xe8;" horiz-adv-x="554" 
d="M288 506q113 0 178 -75.5t51 -219.5h-325q0 -56 26 -87.5t68 -31.5q35 0 56 19.5t21 52.5h154q0 -79 -63 -124.5t-166 -45.5q-116 0 -187 68.5t-71 187.5t70.5 187.5t187.5 68.5zM286 408q-40 0 -66.5 -29.5t-26.5 -79.5h168q0 52 -21 80.5t-54 28.5zM305 700l95 -145
h-102l-140 145h147z" />
    <glyph glyph-name="eacute" unicode="&#xe9;" horiz-adv-x="554" 
d="M288 506q113 0 178 -75.5t51 -219.5h-325q0 -56 26 -87.5t68 -31.5q35 0 56 19.5t21 52.5h154q0 -79 -63 -124.5t-166 -45.5q-116 0 -187 68.5t-71 187.5t70.5 187.5t187.5 68.5zM286 408q-40 0 -66.5 -29.5t-26.5 -79.5h168q0 52 -21 80.5t-54 28.5zM174 555l95 145h147
l-140 -145h-102z" />
    <glyph glyph-name="ecircumflex" unicode="&#xea;" horiz-adv-x="554" 
d="M288 506q113 0 178 -75.5t51 -219.5h-325q0 -56 26 -87.5t68 -31.5q35 0 56 19.5t21 52.5h154q0 -79 -63 -124.5t-166 -45.5q-116 0 -187 68.5t-71 187.5t70.5 187.5t187.5 68.5zM286 408q-40 0 -66.5 -29.5t-26.5 -79.5h168q0 52 -21 80.5t-54 28.5zM348 700l112 -145
h-119l-55 85l-54 -85h-118l111 145h123z" />
    <glyph glyph-name="edieresis" unicode="&#xeb;" horiz-adv-x="554" 
d="M288 506q113 0 178 -75.5t51 -219.5h-325q0 -56 26 -87.5t68 -31.5q35 0 56 19.5t21 52.5h154q0 -79 -63 -124.5t-166 -45.5q-116 0 -187 68.5t-71 187.5t70.5 187.5t187.5 68.5zM286 408q-40 0 -66.5 -29.5t-26.5 -79.5h168q0 52 -21 80.5t-54 28.5zM106 566v116h132
v-116h-132zM336 566v116h132v-116h-132z" />
    <glyph glyph-name="igrave" unicode="&#xec;" horiz-adv-x="254" 
d="M141 700l95 -145h-102l-140 145h147zM47 0v500h160v-500h-160z" />
    <glyph glyph-name="iacute" unicode="&#xed;" horiz-adv-x="254" 
d="M18 555l95 145h147l-140 -145h-102zM47 0v500h160v-500h-160z" />
    <glyph glyph-name="icircumflex" unicode="&#xee;" horiz-adv-x="254" 
d="M47 0v500h160v-500h-160zM188 700l112 -145h-119l-55 85l-54 -85h-118l111 145h123z" />
    <glyph glyph-name="idieresis" unicode="&#xef;" horiz-adv-x="254" 
d="M-54 566v116h132v-116h-132zM176 566v116h132v-116h-132zM47 0v500h160v-500h-160z" />
    <glyph glyph-name="eth" unicode="&#xf0;" horiz-adv-x="565" 
d="M263 596l33 22q-64 34 -185 34v80q201 0 287 -53l82 51v-65l-33 -22q88 -90 88 -307q0 -342 -250 -342q-113 0 -182 68.5t-69 187.5t60 187.5t158 68.5q84 0 139 -52q-3 85 -45 129l-83 -53v66zM375 250q0 77 -24 117.5t-66 40.5q-43 0 -67 -40.5t-24 -117.5t24 -117.5
t67 -40.5t66.5 40.5t23.5 117.5z" />
    <glyph glyph-name="ntilde" unicode="&#xf1;" horiz-adv-x="570" 
d="M207 250v-250h-160v500h148l12 -57q49 63 131 63q83 0 134 -48t51 -130v-328h-160v328q0 38 -18 59t-50 21q-41 0 -64.5 -40.5t-23.5 -117.5zM112 570q0 55 30 87.5t76 32.5q34 0 65 -23.5t47 -23.5q17 0 28 11t11 31h88q0 -55 -30.5 -87.5t-76.5 -32.5q-35 0 -65.5 22
t-46.5 22q-17 0 -28 -10t-11 -29h-87z" />
    <glyph glyph-name="ograve" unicode="&#xf2;" 
d="M30 250q0 119 71 187.5t187 68.5t187 -68.5t71 -187.5t-71 -187.5t-187 -68.5t-187 68.5t-71 187.5zM190 250q0 -77 26 -117.5t72 -40.5t72 40.5t26 117.5t-26 117.5t-72 40.5t-72 -40.5t-26 -117.5zM303 700l95 -145h-102l-140 145h147z" />
    <glyph glyph-name="oacute" unicode="&#xf3;" 
d="M30 250q0 119 71 187.5t187 68.5t187 -68.5t71 -187.5t-71 -187.5t-187 -68.5t-187 68.5t-71 187.5zM190 250q0 -77 26 -117.5t72 -40.5t72 40.5t26 117.5t-26 117.5t-72 40.5t-72 -40.5t-26 -117.5zM174 555l95 145h147l-140 -145h-102z" />
    <glyph glyph-name="ocircumflex" unicode="&#xf4;" 
d="M30 250q0 119 71 187.5t187 68.5t187 -68.5t71 -187.5t-71 -187.5t-187 -68.5t-187 68.5t-71 187.5zM190 250q0 -77 26 -117.5t72 -40.5t72 40.5t26 117.5t-26 117.5t-72 40.5t-72 -40.5t-26 -117.5zM349 700l112 -145h-119l-55 85l-54 -85h-118l111 145h123z" />
    <glyph glyph-name="otilde" unicode="&#xf5;" 
d="M30 250q0 119 71 187.5t187 68.5t187 -68.5t71 -187.5t-71 -187.5t-187 -68.5t-187 68.5t-71 187.5zM190 250q0 -77 26 -117.5t72 -40.5t72 40.5t26 117.5t-26 117.5t-72 40.5t-72 -40.5t-26 -117.5zM116 570q0 55 30 87.5t76 32.5q34 0 65 -23.5t47 -23.5q17 0 28 11
t11 31h88q0 -55 -30.5 -87.5t-76.5 -32.5q-35 0 -65.5 22t-46.5 22q-17 0 -28 -10t-11 -29h-87z" />
    <glyph glyph-name="odieresis" unicode="&#xf6;" 
d="M30 250q0 119 71 187.5t187 68.5t187 -68.5t71 -187.5t-71 -187.5t-187 -68.5t-187 68.5t-71 187.5zM190 250q0 -77 26 -117.5t72 -40.5t72 40.5t26 117.5t-26 117.5t-72 40.5t-72 -40.5t-26 -117.5zM107 566v116h132v-116h-132zM337 566v116h132v-116h-132z" />
    <glyph glyph-name="divide" unicode="&#xf7;" horiz-adv-x="482" 
d="M42 228v92h398v-92h-398zM181 52v119h120v-119h-120zM181 381v119h120v-119h-120z" />
    <glyph glyph-name="oslash" unicode="&#xf8;" 
d="M33 0l58 73q-61 67 -61 177q0 119 71 187.5t187 68.5q70 0 125 -26l16 20h113l-58 -73q62 -68 62 -177q0 -119 -71 -187.5t-187 -68.5q-71 0 -126 26l-16 -20h-113zM394 250q0 29 -5 57l-160 -203q23 -20 59 -20q50 0 78 42.5t28 123.5zM182 250q0 -34 4 -57l160 203
q-25 20 -58 20q-50 0 -78 -42.5t-28 -123.5z" />
    <glyph glyph-name="ugrave" unicode="&#xf9;" horiz-adv-x="570" 
d="M363 250v250h160v-500h-148l-12 58q-53 -64 -135 -64q-81 0 -131 45.5t-50 124.5v336h160v-336q0 -34 18 -53t49 -19q42 0 65.5 40.5t23.5 117.5zM301 700l95 -145h-102l-140 145h147z" />
    <glyph glyph-name="uacute" unicode="&#xfa;" horiz-adv-x="570" 
d="M363 250v250h160v-500h-148l-12 58q-53 -64 -135 -64q-81 0 -131 45.5t-50 124.5v336h160v-336q0 -34 18 -53t49 -19q42 0 65.5 40.5t23.5 117.5zM174 555l95 145h147l-140 -145h-102z" />
    <glyph glyph-name="ucircumflex" unicode="&#xfb;" horiz-adv-x="570" 
d="M363 250v250h160v-500h-148l-12 58q-53 -64 -135 -64q-81 0 -131 45.5t-50 124.5v336h160v-336q0 -34 18 -53t49 -19q42 0 65.5 40.5t23.5 117.5zM346 700l112 -145h-119l-55 85l-54 -85h-118l111 145h123z" />
    <glyph glyph-name="udieresis" unicode="&#xfc;" horiz-adv-x="570" 
d="M363 250v250h160v-500h-148l-12 58q-53 -64 -135 -64q-81 0 -131 45.5t-50 124.5v336h160v-336q0 -34 18 -53t49 -19q42 0 65.5 40.5t23.5 117.5zM104 566v116h132v-116h-132zM334 566v116h132v-116h-132z" />
    <glyph glyph-name="yacute" unicode="&#xfd;" horiz-adv-x="554" 
d="M543 500l-198 -556q-29 -85 -96 -125t-186 -40v98q50 0 86.5 17.5t47.5 49.5l21 56h-32l-175 500h162l103 -366l104 366h163zM166 555l95 145h147l-140 -145h-102z" />
    <glyph glyph-name="thorn" unicode="&#xfe;" horiz-adv-x="578" 
d="M47 -215v940h160v-282q48 63 127 63q96 0 155 -68.5t59 -187.5t-59 -187.5t-155 -68.5q-79 0 -127 48v-257h-160zM207 250q0 -77 23.5 -117.5t65.5 -40.5q43 0 67.5 40.5t24.5 117.5t-24.5 117.5t-67.5 40.5q-42 0 -65.5 -40.5t-23.5 -117.5z" />
    <glyph glyph-name="ydieresis" unicode="&#xff;" horiz-adv-x="554" 
d="M543 500l-198 -556q-29 -85 -96 -125t-186 -40v98q50 0 86.5 17.5t47.5 49.5l21 56h-32l-175 500h162l103 -366l104 366h163zM96 566v116h132v-116h-132zM326 566v116h132v-116h-132z" />
    <glyph glyph-name="Amacron" unicode="&#x100;" horiz-adv-x="695" 
d="M16 0l236 700h193l235 -700h-166l-50 149h-233l-48 -149h-167zM349 567l-92 -309h183zM186 772v92h322v-92h-322z" />
    <glyph glyph-name="amacron" unicode="&#x101;" horiz-adv-x="549" 
d="M351 0l-12 58q-52 -64 -130 -64q-81 0 -130 36t-49 99q0 84 74.5 129.5t206.5 45.5h28v24q0 38 -20 59t-55 21q-31 0 -49 -20.5t-18 -56.5h-156q0 81 61.5 128t161.5 47q106 0 170.5 -47.5t64.5 -130.5v-328h-148zM339 222h-28q-120 0 -120 -80q0 -24 15.5 -37t42.5 -13
q42 0 66 31t24 86v13zM104 572v92h322v-92h-322z" />
    <glyph glyph-name="Abreve" unicode="&#x102;" horiz-adv-x="695" 
d="M16 0l236 700h193l235 -700h-166l-50 149h-233l-48 -149h-167zM349 567l-92 -309h183zM163 894h110q0 -33 20.5 -52.5t53.5 -19.5q34 0 54 19t20 53h111q0 -70 -50.5 -109.5t-134.5 -39.5q-83 0 -133.5 40t-50.5 109z" />
    <glyph glyph-name="abreve" unicode="&#x103;" horiz-adv-x="549" 
d="M351 0l-12 58q-52 -64 -130 -64q-81 0 -130 36t-49 99q0 84 74.5 129.5t206.5 45.5h28v24q0 38 -20 59t-55 21q-31 0 -49 -20.5t-18 -56.5h-156q0 81 61.5 128t161.5 47q106 0 170.5 -47.5t64.5 -130.5v-328h-148zM339 222h-28q-120 0 -120 -80q0 -24 15.5 -37t42.5 -13
q42 0 66 31t24 86v13zM81 694h110q0 -33 20.5 -52.5t53.5 -19.5q34 0 54 19t20 53h111q0 -70 -50.5 -109.5t-134.5 -39.5q-83 0 -133.5 40t-50.5 109z" />
    <glyph glyph-name="Aogonek" unicode="&#x104;" horiz-adv-x="695" 
d="M578 0h-64l-50 149h-233l-48 -149h-167l236 700h193l235 -700h-16q-6 -6 -15.5 -17t-25 -40t-15.5 -52q0 -14 9 -23t26 -9q26 0 50 19v-64q-33 -21 -70 -21q-46 0 -74 22.5t-28 66.5q0 32 14.5 61.5t28.5 42.5zM349 567l-92 -309h183z" />
    <glyph glyph-name="aogonek" unicode="&#x105;" horiz-adv-x="549" 
d="M351 0l-12 58q-52 -64 -130 -64q-81 0 -130 36t-49 99q0 84 74.5 129.5t206.5 45.5h28v24q0 38 -20 59t-55 21q-31 0 -49 -20.5t-18 -56.5h-156q0 81 61.5 128t161.5 47q106 0 170.5 -47.5t64.5 -130.5v-328h-16q-6 -6 -15.5 -17t-25 -40t-15.5 -52q0 -14 9 -23t26 -9
q26 0 50 19v-64q-33 -21 -70 -21q-46 0 -74 22.5t-28 66.5q0 20 6 39.5t14 33t16.5 24t14.5 15.5l6 6h-46zM339 222h-28q-120 0 -120 -80q0 -24 15.5 -37t42.5 -13q42 0 66 31t24 86v13z" />
    <glyph glyph-name="Cacute" unicode="&#x106;" horiz-adv-x="698" 
d="M365 596q-79 0 -123.5 -63.5t-44.5 -182.5t44.5 -182.5t123.5 -63.5q64 0 99 36t35 104h163q0 -116 -80.5 -183t-212.5 -67q-153 0 -246.5 95t-93.5 261t93.5 261t246.5 95q132 0 212.5 -67t80.5 -183h-163q0 68 -35 104t-99 36zM250 755l95 145h147l-140 -145h-102z" />
    <glyph glyph-name="cacute" unicode="&#x107;" horiz-adv-x="545" 
d="M286 408q-45 0 -70.5 -40.5t-25.5 -117.5t25.5 -117.5t70.5 -40.5q32 0 50.5 24.5t18.5 69.5h156q0 -89 -61.5 -140.5t-161.5 -51.5q-116 0 -187 68.5t-71 187.5t71 187.5t187 68.5q100 0 161.5 -51.5t61.5 -140.5h-156q0 45 -18.5 69.5t-50.5 24.5zM173 555l95 145h147
l-140 -145h-102z" />
    <glyph glyph-name="Ccircumflex" unicode="&#x108;" horiz-adv-x="698" 
d="M365 596q-79 0 -123.5 -63.5t-44.5 -182.5t44.5 -182.5t123.5 -63.5q64 0 99 36t35 104h163q0 -116 -80.5 -183t-212.5 -67q-153 0 -246.5 95t-93.5 261t93.5 261t246.5 95q132 0 212.5 -67t80.5 -183h-163q0 68 -35 104t-99 36zM422 900l112 -145h-119l-55 85l-54 -85
h-118l111 145h123z" />
    <glyph glyph-name="ccircumflex" unicode="&#x109;" horiz-adv-x="545" 
d="M286 408q-45 0 -70.5 -40.5t-25.5 -117.5t25.5 -117.5t70.5 -40.5q32 0 50.5 24.5t18.5 69.5h156q0 -89 -61.5 -140.5t-161.5 -51.5q-116 0 -187 68.5t-71 187.5t71 187.5t187 68.5q100 0 161.5 -51.5t61.5 -140.5h-156q0 45 -18.5 69.5t-50.5 24.5zM347 700l112 -145
h-119l-55 85l-54 -85h-118l111 145h123z" />
    <glyph glyph-name="Cdotaccent" unicode="&#x10a;" horiz-adv-x="698" 
d="M365 596q-79 0 -123.5 -63.5t-44.5 -182.5t44.5 -182.5t123.5 -63.5q64 0 99 36t35 104h163q0 -116 -80.5 -183t-212.5 -67q-153 0 -246.5 95t-93.5 261t93.5 261t246.5 95q132 0 212.5 -67t80.5 -183h-163q0 68 -35 104t-99 36zM281 770v130h160v-130h-160z" />
    <glyph glyph-name="cdotaccent" unicode="&#x10b;" horiz-adv-x="545" 
d="M286 408q-45 0 -70.5 -40.5t-25.5 -117.5t25.5 -117.5t70.5 -40.5q32 0 50.5 24.5t18.5 69.5h156q0 -89 -61.5 -140.5t-161.5 -51.5q-116 0 -187 68.5t-71 187.5t71 187.5t187 68.5q100 0 161.5 -51.5t61.5 -140.5h-156q0 45 -18.5 69.5t-50.5 24.5zM206 570v130h160
v-130h-160z" />
    <glyph glyph-name="Ccaron" unicode="&#x10c;" horiz-adv-x="698" 
d="M365 596q-79 0 -123.5 -63.5t-44.5 -182.5t44.5 -182.5t123.5 -63.5q64 0 99 36t35 104h163q0 -116 -80.5 -183t-212.5 -67q-153 0 -246.5 95t-93.5 261t93.5 261t246.5 95q132 0 212.5 -67t80.5 -183h-163q0 68 -35 104t-99 36zM299 755l-111 145h118l55 -85l54 85h119
l-112 -145h-123z" />
    <glyph glyph-name="ccaron" unicode="&#x10d;" horiz-adv-x="545" 
d="M286 408q-45 0 -70.5 -40.5t-25.5 -117.5t25.5 -117.5t70.5 -40.5q32 0 50.5 24.5t18.5 69.5h156q0 -89 -61.5 -140.5t-161.5 -51.5q-116 0 -187 68.5t-71 187.5t71 187.5t187 68.5q100 0 161.5 -51.5t61.5 -140.5h-156q0 45 -18.5 69.5t-50.5 24.5zM224 555l-111 145
h118l55 -85l54 85h119l-112 -145h-123z" />
    <glyph glyph-name="Dcaron" unicode="&#x10e;" horiz-adv-x="696" 
d="M55 0v700h279q149 0 240.5 -93.5t91.5 -256.5t-91.5 -256.5t-240.5 -93.5h-279zM223 108h95q86 0 133 62t47 180t-47 180t-133 62h-95v-484zM264 755l-111 145h118l55 -85l54 85h119l-112 -145h-123z" />
    <glyph glyph-name="dcaron" unicode="&#x10f;" horiz-adv-x="702" 
d="M531 725v-725h-148l-12 57q-48 -63 -127 -63q-96 0 -155 68.5t-59 187.5t59 187.5t155 68.5q79 0 127 -48v267h160zM371 250q0 77 -23.5 117.5t-65.5 40.5q-43 0 -67.5 -40.5t-24.5 -117.5t24.5 -117.5t67.5 -40.5q42 0 65.5 40.5t23.5 117.5zM596 642v83h96v-83
q0 -45 -26.5 -72.5t-69.5 -27.5v48q15 0 25.5 14.5t10.5 37.5h-36z" />
    <glyph glyph-name="Dcroat" unicode="&#x110;" horiz-adv-x="723" 
d="M82 0v307h-63v96h63v297h279q149 0 240.5 -93.5t91.5 -256.5t-91.5 -256.5t-240.5 -93.5h-279zM250 108h95q86 0 133 62t47 180t-47 180t-133 62h-95v-189h122v-96h-122v-199z" />
    <glyph glyph-name="dcroat" unicode="&#x111;" horiz-adv-x="613" 
d="M594 661v-96h-63v-565h-148l-12 57q-48 -63 -127 -63q-96 0 -155 68.5t-59 187.5t59 187.5t155 68.5q79 0 127 -48v107h-131v96h131v64h160v-64h63zM371 250q0 77 -23.5 117.5t-65.5 40.5q-43 0 -67.5 -40.5t-24.5 -117.5t24.5 -117.5t67.5 -40.5q42 0 65.5 40.5
t23.5 117.5z" />
    <glyph glyph-name="Emacron" unicode="&#x112;" horiz-adv-x="581" 
d="M59 0v700h486v-108h-318v-177h277v-109h-277v-198h323v-108h-491zM146 772v92h322v-92h-322z" />
    <glyph glyph-name="emacron" unicode="&#x113;" horiz-adv-x="554" 
d="M288 506q113 0 178 -75.5t51 -219.5h-325q0 -56 26 -87.5t68 -31.5q35 0 56 19.5t21 52.5h154q0 -79 -63 -124.5t-166 -45.5q-116 0 -187 68.5t-71 187.5t70.5 187.5t187.5 68.5zM286 408q-40 0 -66.5 -29.5t-26.5 -79.5h168q0 52 -21 80.5t-54 28.5zM126 572v92h322v-92
h-322z" />
    <glyph glyph-name="Ebreve" unicode="&#x114;" horiz-adv-x="581" 
d="M59 0v700h486v-108h-318v-177h277v-109h-277v-198h323v-108h-491zM123 894h110q0 -33 20.5 -52.5t53.5 -19.5q34 0 54 19t20 53h111q0 -70 -50.5 -109.5t-134.5 -39.5q-83 0 -133.5 40t-50.5 109z" />
    <glyph glyph-name="ebreve" unicode="&#x115;" horiz-adv-x="554" 
d="M288 506q113 0 178 -75.5t51 -219.5h-325q0 -56 26 -87.5t68 -31.5q35 0 56 19.5t21 52.5h154q0 -79 -63 -124.5t-166 -45.5q-116 0 -187 68.5t-71 187.5t70.5 187.5t187.5 68.5zM286 408q-40 0 -66.5 -29.5t-26.5 -79.5h168q0 52 -21 80.5t-54 28.5zM102 694h110
q0 -33 20.5 -52.5t53.5 -19.5q34 0 54 19t20 53h111q0 -70 -50.5 -109.5t-134.5 -39.5q-83 0 -133.5 40t-50.5 109z" />
    <glyph glyph-name="Edotaccent" unicode="&#x116;" horiz-adv-x="581" 
d="M59 0v700h486v-108h-318v-177h277v-109h-277v-198h323v-108h-491zM227 770v130h160v-130h-160z" />
    <glyph glyph-name="edotaccent" unicode="&#x117;" horiz-adv-x="554" 
d="M288 506q113 0 178 -75.5t51 -219.5h-325q0 -56 26 -87.5t68 -31.5q35 0 56 19.5t21 52.5h154q0 -79 -63 -124.5t-166 -45.5q-116 0 -187 68.5t-71 187.5t70.5 187.5t187.5 68.5zM286 408q-40 0 -66.5 -29.5t-26.5 -79.5h168q0 52 -21 80.5t-54 28.5zM207 570v130h160
v-130h-160z" />
    <glyph glyph-name="Eogonek" unicode="&#x118;" horiz-adv-x="581" 
d="M59 0v700h486v-108h-318v-177h277v-109h-277v-198h323v-108h-29q-6 -6 -15.5 -17t-25 -40t-15.5 -52q0 -14 9 -23t26 -9q26 0 50 19v-64q-33 -21 -70 -21q-46 0 -74 22.5t-28 66.5q0 20 6 39.5t14 33t16.5 24t14.5 15.5l6 6h-376z" />
    <glyph glyph-name="eogonek" unicode="&#x119;" horiz-adv-x="554" 
d="M288 506q113 0 178 -75.5t51 -219.5h-325q0 -56 26 -87.5t68 -31.5q35 0 56 19.5t21 52.5h154q0 -109 -113 -151q-53 -58 -53 -106q0 -14 9 -23t26 -9q26 0 50 19v-64q-33 -21 -70 -21q-46 0 -74 22.5t-28 66.5q0 51 36 96h-12q-116 0 -187 68.5t-71 187.5t70.5 187.5
t187.5 68.5zM286 408q-40 0 -66.5 -29.5t-26.5 -79.5h168q0 52 -21 80.5t-54 28.5z" />
    <glyph glyph-name="Ecaron" unicode="&#x11a;" horiz-adv-x="581" 
d="M59 0v700h486v-108h-318v-177h277v-109h-277v-198h323v-108h-491zM245 755l-111 145h118l55 -85l54 85h119l-112 -145h-123z" />
    <glyph glyph-name="ecaron" unicode="&#x11b;" horiz-adv-x="554" 
d="M288 506q113 0 178 -75.5t51 -219.5h-325q0 -56 26 -87.5t68 -31.5q35 0 56 19.5t21 52.5h154q0 -79 -63 -124.5t-166 -45.5q-116 0 -187 68.5t-71 187.5t70.5 187.5t187.5 68.5zM286 408q-40 0 -66.5 -29.5t-26.5 -79.5h168q0 52 -21 80.5t-54 28.5zM225 555l-111 145
h118l55 -85l54 85h119l-112 -145h-123z" />
    <glyph glyph-name="Gcircumflex" unicode="&#x11c;" horiz-adv-x="698" 
d="M379 277v108h283v-385h-132l-11 53q-56 -59 -150 -59q-153 0 -246.5 95t-93.5 261t93.5 261t246.5 95q132 0 212.5 -64.5t80.5 -177.5h-163q0 64 -35 98t-99 34q-79 0 -123.5 -63.5t-44.5 -182.5q0 -120 45.5 -183t126.5 -63q71 0 110.5 36.5t39.5 105.5v31h-140z
M430 900l112 -145h-119l-55 85l-54 -85h-118l111 145h123z" />
    <glyph glyph-name="gcircumflex" unicode="&#x11d;" horiz-adv-x="578" 
d="M284 -123q40 0 63.5 29t23.5 82v54q-48 -48 -127 -48q-96 0 -155 68.5t-59 187.5t59 187.5t155 68.5q80 0 127 -55l12 49h148v-512q0 -97 -68 -153t-179 -56q-104 0 -168.5 47.5t-64.5 129.5h152q0 -38 22 -58.5t59 -20.5zM371 250q0 77 -23.5 117.5t-65.5 40.5
q-43 0 -67.5 -40.5t-24.5 -117.5t24.5 -117.5t67.5 -40.5q42 0 65.5 40.5t23.5 117.5zM350 700l112 -145h-119l-55 85l-54 -85h-118l111 145h123z" />
    <glyph glyph-name="Gbreve" unicode="&#x11e;" horiz-adv-x="698" 
d="M379 277v108h283v-385h-132l-11 53q-56 -59 -150 -59q-153 0 -246.5 95t-93.5 261t93.5 261t246.5 95q132 0 212.5 -64.5t80.5 -177.5h-163q0 64 -35 98t-99 34q-79 0 -123.5 -63.5t-44.5 -182.5q0 -120 45.5 -183t126.5 -63q71 0 110.5 36.5t39.5 105.5v31h-140z
M184 894h110q0 -33 20.5 -52.5t53.5 -19.5q34 0 54 19t20 53h111q0 -70 -50.5 -109.5t-134.5 -39.5q-83 0 -133.5 40t-50.5 109z" />
    <glyph glyph-name="gbreve" unicode="&#x11f;" horiz-adv-x="578" 
d="M284 -123q40 0 63.5 29t23.5 82v54q-48 -48 -127 -48q-96 0 -155 68.5t-59 187.5t59 187.5t155 68.5q80 0 127 -55l12 49h148v-512q0 -97 -68 -153t-179 -56q-104 0 -168.5 47.5t-64.5 129.5h152q0 -38 22 -58.5t59 -20.5zM371 250q0 77 -23.5 117.5t-65.5 40.5
q-43 0 -67.5 -40.5t-24.5 -117.5t24.5 -117.5t67.5 -40.5q42 0 65.5 40.5t23.5 117.5zM103 694h110q0 -33 20.5 -52.5t53.5 -19.5q34 0 54 19t20 53h111q0 -70 -50.5 -109.5t-134.5 -39.5q-83 0 -133.5 40t-50.5 109z" />
    <glyph glyph-name="Gdotaccent" unicode="&#x120;" horiz-adv-x="698" 
d="M379 277v108h283v-385h-132l-11 53q-56 -59 -150 -59q-153 0 -246.5 95t-93.5 261t93.5 261t246.5 95q132 0 212.5 -64.5t80.5 -177.5h-163q0 64 -35 98t-99 34q-79 0 -123.5 -63.5t-44.5 -182.5q0 -120 45.5 -183t126.5 -63q71 0 110.5 36.5t39.5 105.5v31h-140z
M289 770v130h160v-130h-160z" />
    <glyph glyph-name="gdotaccent" unicode="&#x121;" horiz-adv-x="578" 
d="M284 -123q40 0 63.5 29t23.5 82v54q-48 -48 -127 -48q-96 0 -155 68.5t-59 187.5t59 187.5t155 68.5q80 0 127 -55l12 49h148v-512q0 -97 -68 -153t-179 -56q-104 0 -168.5 47.5t-64.5 129.5h152q0 -38 22 -58.5t59 -20.5zM371 250q0 77 -23.5 117.5t-65.5 40.5
q-43 0 -67.5 -40.5t-24.5 -117.5t24.5 -117.5t67.5 -40.5q42 0 65.5 40.5t23.5 117.5zM208 570v130h160v-130h-160z" />
    <glyph glyph-name="Gcommaaccent" unicode="&#x122;" horiz-adv-x="698" 
d="M379 277v108h283v-385h-132l-11 53q-56 -59 -150 -59q-153 0 -246.5 95t-93.5 261t93.5 261t246.5 95q132 0 212.5 -64.5t80.5 -177.5h-163q0 64 -35 98t-99 34q-79 0 -123.5 -63.5t-44.5 -182.5q0 -120 45.5 -183t126.5 -63q71 0 110.5 36.5t39.5 105.5v31h-140z
M321 -133v83h96v-83q0 -45 -26.5 -72.5t-69.5 -27.5v48q15 0 25.5 14.5t10.5 37.5h-36z" />
    <glyph glyph-name="gcommaaccent" unicode="&#x123;" horiz-adv-x="578" 
d="M336 646v-83h-95v83q0 44 26 71t69 27v-47q-15 0 -25.5 -14.5t-10.5 -36.5h36zM284 -123q40 0 63.5 29t23.5 82v54q-48 -48 -127 -48q-96 0 -155 68.5t-59 187.5t59 187.5t155 68.5q80 0 127 -55l12 49h148v-512q0 -97 -68 -153t-179 -56q-104 0 -168.5 47.5t-64.5 129.5
h152q0 -38 22 -58.5t59 -20.5zM371 250q0 77 -23.5 117.5t-65.5 40.5q-43 0 -67.5 -40.5t-24.5 -117.5t24.5 -117.5t67.5 -40.5q42 0 65.5 40.5t23.5 117.5z" />
    <glyph glyph-name="Hcircumflex" unicode="&#x124;" horiz-adv-x="715" 
d="M488 0v306h-261v-306h-168v700h168v-285h261v285h168v-700h-168zM419 900l112 -145h-119l-55 85l-54 -85h-118l111 145h123z" />
    <glyph glyph-name="hcircumflex" unicode="&#x125;" horiz-adv-x="569" 
d="M207 250v-250h-160v725h160v-274q49 55 131 55q83 0 134 -48t51 -130v-328h-160v328q0 38 -18 59t-50 21q-41 0 -64.5 -40.5t-23.5 -117.5zM343 895l112 -145h-119l-55 85l-54 -85h-118l111 145h123z" />
    <glyph glyph-name="Hbar" unicode="&#x126;" horiz-adv-x="735" 
d="M27 516v100h48v84h168v-84h249v84h168v-84h48v-100h-48v-516h-168v306h-249v-306h-168v516h-48zM243 415h249v101h-249v-101z" />
    <glyph glyph-name="hbar" unicode="&#x127;" horiz-adv-x="604" 
d="M19 565v96h63v64h160v-64h131v-96h-131v-114q49 55 131 55q83 0 134 -48t51 -130v-328h-160v328q0 38 -18 59t-50 21q-41 0 -64.5 -40.5t-23.5 -117.5v-250h-160v565h-63z" />
    <glyph glyph-name="Itilde" unicode="&#x128;" horiz-adv-x="286" 
d="M59 0v700h168v-700h-168zM-29 770q0 55 30 87.5t76 32.5q34 0 65 -23.5t47 -23.5q17 0 28 11t11 31h88q0 -55 -30.5 -87.5t-76.5 -32.5q-35 0 -65.5 22t-46.5 22q-17 0 -28 -10t-11 -29h-87z" />
    <glyph glyph-name="itilde" unicode="&#x129;" horiz-adv-x="254" 
d="M-45 570q0 55 30 87.5t76 32.5q34 0 65 -23.5t47 -23.5q17 0 28 11t11 31h88q0 -55 -30.5 -87.5t-76.5 -32.5q-35 0 -65.5 22t-46.5 22q-17 0 -28 -10t-11 -29h-87zM47 0v500h160v-500h-160z" />
    <glyph glyph-name="Imacron" unicode="&#x12a;" horiz-adv-x="286" 
d="M59 0v700h168v-700h-168zM-18 772v92h322v-92h-322z" />
    <glyph glyph-name="imacron" unicode="&#x12b;" horiz-adv-x="254" 
d="M-34 572v92h322v-92h-322zM47 0v500h160v-500h-160z" />
    <glyph glyph-name="Ibreve" unicode="&#x12c;" horiz-adv-x="286" 
d="M59 0v700h168v-700h-168zM-42 894h110q0 -33 20.5 -52.5t53.5 -19.5q34 0 54 19t20 53h111q0 -70 -50.5 -109.5t-134.5 -39.5q-83 0 -133.5 40t-50.5 109z" />
    <glyph glyph-name="ibreve" unicode="&#x12d;" horiz-adv-x="254" 
d="M-57 694h110q0 -33 20.5 -52.5t53.5 -19.5q34 0 54 19t20 53h111q0 -70 -50.5 -109.5t-134.5 -39.5q-83 0 -133.5 40t-50.5 109zM47 0v500h160v-500h-160z" />
    <glyph glyph-name="Iogonek" unicode="&#x12e;" horiz-adv-x="286" 
d="M59 0v700h168v-700h-16q-6 -6 -15.5 -17t-25 -40t-15.5 -52q0 -14 9 -23t26 -9q26 0 50 19v-64q-33 -21 -70 -21q-46 0 -74 22.5t-28 66.5q0 20 6 39.5t14 33t16.5 24t14.5 15.5l6 6h-66z" />
    <glyph glyph-name="iogonek" unicode="&#x12f;" horiz-adv-x="254" 
d="M47 0v500h160v-500h-16q-6 -6 -15.5 -17t-25 -40t-15.5 -52q0 -14 9 -23t26 -9q26 0 50 19v-64q-33 -21 -70 -21q-46 0 -74 22.5t-28 66.5q0 20 6 39.5t14 33t16.5 24t14.5 15.5l6 6h-58zM47 570v130h160v-130h-160z" />
    <glyph glyph-name="Idotaccent" unicode="&#x130;" horiz-adv-x="286" 
d="M59 0v700h168v-700h-168zM62 770v130h160v-130h-160z" />
    <glyph glyph-name="dotlessi" unicode="&#x131;" horiz-adv-x="254" 
d="M47 0v500h160v-500h-160z" />
    <glyph glyph-name="IJ" unicode="&#x132;" horiz-adv-x="623" 
d="M400 205v495h168v-495q0 -98 -70 -154.5t-184 -56.5t-183.5 56.5t-69.5 154.5v35h168v-35q0 -49 22 -75t63 -26t63.5 26.5t22.5 74.5zM61 330v370h168v-370h-168z" />
    <glyph glyph-name="ij" unicode="&#x133;" horiz-adv-x="508" 
d="M47 570v130h160v-130h-160zM47 0v500h160v-500h-160zM301 570v130h160v-130h-160zM461 500v-540q0 -92 -53.5 -136.5t-168.5 -44.5v98q62 0 62 67v556h160z" />
    <glyph glyph-name="Jcircumflex" unicode="&#x134;" horiz-adv-x="605" 
d="M381 205v495h168v-495q0 -98 -70 -154.5t-184 -56.5t-183.5 56.5t-69.5 154.5v35h168v-35q0 -49 22 -75t63 -26t63.5 26t22.5 75zM527 900l112 -145h-119l-55 85l-54 -85h-118l111 145h123z" />
    <glyph glyph-name="jcircumflex" unicode="&#x135;" horiz-adv-x="254" 
d="M207 500v-540q0 -92 -53.5 -136.5t-168.5 -44.5v98q62 0 62 67v556h160zM188 700l112 -145h-119l-55 85l-54 -85h-118l111 145h123z" />
    <glyph glyph-name="Kcommaaccent" unicode="&#x136;" horiz-adv-x="674" 
d="M485 0l-188 295l-70 -79v-216h-168v700h168v-281l224 281h187l-245 -288l269 -412h-177zM289 -133v83h96v-83q0 -45 -26.5 -72.5t-69.5 -27.5v48q15 0 25.5 14.5t10.5 37.5h-36z" />
    <glyph glyph-name="kcommaaccent" unicode="&#x137;" horiz-adv-x="551" 
d="M375 0l-115 182l-53 -65v-117h-160v725h160v-395l134 170h174l-169 -208l188 -292h-159zM230 -133v83h96v-83q0 -45 -26.5 -72.5t-69.5 -27.5v48q15 0 25.5 14.5t10.5 37.5h-36z" />
    <glyph glyph-name="Lacute" unicode="&#x139;" horiz-adv-x="546" 
d="M520 108v-108h-461v700h168v-592h293zM132 755l95 145h147l-140 -145h-102z" />
    <glyph glyph-name="lacute" unicode="&#x13a;" horiz-adv-x="275" 
d="M47 117v608h160v-596q0 -37 36 -37v-98q-105 0 -150.5 28.5t-45.5 94.5zM22 747l95 145h147l-140 -145h-102z" />
    <glyph glyph-name="Lcommaaccent" unicode="&#x13b;" horiz-adv-x="546" 
d="M520 108v-108h-461v700h168v-592h293zM247 -133v83h96v-83q0 -45 -26.5 -72.5t-69.5 -27.5v48q15 0 25.5 14.5t10.5 37.5h-36z" />
    <glyph glyph-name="lcommaaccent" unicode="&#x13c;" horiz-adv-x="275" 
d="M47 117v608h160v-596q0 -37 36 -37v-98q-105 0 -150.5 28.5t-45.5 94.5zM90 -133v83h96v-83q0 -45 -26.5 -72.5t-69.5 -27.5v48q15 0 25.5 14.5t10.5 37.5h-36z" />
    <glyph glyph-name="Lcaron" unicode="&#x13d;" horiz-adv-x="546" 
d="M520 108v-108h-461v700h168v-592h293zM205 755l-111 145h118l55 -85l54 85h119l-112 -145h-123z" />
    <glyph glyph-name="lcaron" unicode="&#x13e;" horiz-adv-x="373" 
d="M47 117v608h160v-596q0 -37 36 -37v-98q-105 0 -150.5 28.5t-45.5 94.5zM246 641v83h96v-83q0 -45 -26.5 -72.5t-69.5 -27.5v48q15 0 25.5 14.5t10.5 37.5h-36z" />
    <glyph glyph-name="Ldot" unicode="&#x13f;" horiz-adv-x="546" 
d="M520 108v-108h-461v700h168v-592h293zM366 302v141h152v-141h-152z" />
    <glyph glyph-name="ldot" unicode="&#x140;" horiz-adv-x="420" 
d="M47 117v608h160v-596q0 -37 36 -37v-98q-105 0 -150.5 28.5t-45.5 94.5zM266 302v134h144v-134h-144z" />
    <glyph glyph-name="Lslash" unicode="&#x141;" horiz-adv-x="564" 
d="M356 409l-111 -90v-211h293v-108h-461v190l-55 -46v122l55 45v389h168v-259l111 90v-122z" />
    <glyph glyph-name="lslash" unicode="&#x142;" horiz-adv-x="352" 
d="M330 389l-74 -60v-200q0 -37 36 -37v-98q-105 0 -150.5 28.5t-45.5 94.5v91l-74 -59v122l74 59v395h160v-274l74 60v-122z" />
    <glyph glyph-name="Nacute" unicode="&#x143;" horiz-adv-x="721" 
d="M218 443v-443h-159v700h160l283 -443v443h160v-700h-160zM250 755l95 145h147l-140 -145h-102z" />
    <glyph glyph-name="nacute" unicode="&#x144;" horiz-adv-x="570" 
d="M207 250v-250h-160v500h148l12 -57q49 63 131 63q83 0 134 -48t51 -130v-328h-160v328q0 38 -18 59t-50 21q-41 0 -64.5 -40.5t-23.5 -117.5zM164 555l95 145h147l-140 -145h-102z" />
    <glyph glyph-name="Ncommaaccent" unicode="&#x145;" horiz-adv-x="721" 
d="M218 443v-443h-159v700h160l283 -443v443h160v-700h-160zM313 -133v83h96v-83q0 -45 -26.5 -72.5t-69.5 -27.5v48q15 0 25.5 14.5t10.5 37.5h-36z" />
    <glyph glyph-name="ncommaaccent" unicode="&#x146;" horiz-adv-x="570" 
d="M207 250v-250h-160v500h148l12 -57q49 63 131 63q83 0 134 -48t51 -130v-328h-160v328q0 38 -18 59t-50 21q-41 0 -64.5 -40.5t-23.5 -117.5zM237 -133v83h96v-83q0 -45 -26.5 -72.5t-69.5 -27.5v48q15 0 25.5 14.5t10.5 37.5h-36z" />
    <glyph glyph-name="Ncaron" unicode="&#x147;" horiz-adv-x="721" 
d="M218 443v-443h-159v700h160l283 -443v443h160v-700h-160zM299 755l-111 145h118l55 -85l54 85h119l-112 -145h-123z" />
    <glyph glyph-name="ncaron" unicode="&#x148;" horiz-adv-x="570" 
d="M207 250v-250h-160v500h148l12 -57q49 63 131 63q83 0 134 -48t51 -130v-328h-160v328q0 38 -18 59t-50 21q-41 0 -64.5 -40.5t-23.5 -117.5zM225 555l-111 145h118l55 -85l54 85h119l-112 -145h-123z" />
    <glyph glyph-name="Eng" unicode="&#x14a;" horiz-adv-x="721" 
d="M218 443v-443h-159v700h159l284 -443v443h160v-740q0 -92 -53.5 -136.5t-168.5 -44.5v98q62 0 62 67v56z" />
    <glyph glyph-name="eng" unicode="&#x14b;" horiz-adv-x="570" 
d="M207 250v-250h-160v500h148l12 -57q49 63 131 63q83 0 134 -48t51 -130v-368q0 -92 -53.5 -136.5t-168.5 -44.5v98q62 0 62 67v384q0 38 -18 59t-50 21q-41 0 -64.5 -40.5t-23.5 -117.5z" />
    <glyph glyph-name="Omacron" unicode="&#x14c;" horiz-adv-x="727" 
d="M29 350q0 166 92 261t242 95q151 0 243 -95t92 -261t-92 -261t-243 -95q-150 0 -242 95t-92 261zM197 350q0 -120 44 -183t122 -63q79 0 122.5 63t43.5 183t-43.5 183t-122.5 63q-78 0 -122 -63t-44 -183zM203 772v92h322v-92h-322z" />
    <glyph glyph-name="omacron" unicode="&#x14d;" 
d="M30 250q0 119 71 187.5t187 68.5t187 -68.5t71 -187.5t-71 -187.5t-187 -68.5t-187 68.5t-71 187.5zM190 250q0 -77 26 -117.5t72 -40.5t72 40.5t26 117.5t-26 117.5t-72 40.5t-72 -40.5t-26 -117.5zM127 572v92h322v-92h-322z" />
    <glyph glyph-name="Obreve" unicode="&#x14e;" horiz-adv-x="727" 
d="M29 350q0 166 92 261t242 95q151 0 243 -95t92 -261t-92 -261t-243 -95q-150 0 -242 95t-92 261zM197 350q0 -120 44 -183t122 -63q79 0 122.5 63t43.5 183t-43.5 183t-122.5 63q-78 0 -122 -63t-44 -183zM179 894h110q0 -33 20.5 -52.5t53.5 -19.5q34 0 54 19t20 53h111
q0 -70 -50.5 -109.5t-134.5 -39.5q-83 0 -133.5 40t-50.5 109z" />
    <glyph glyph-name="obreve" unicode="&#x14f;" 
d="M30 250q0 119 71 187.5t187 68.5t187 -68.5t71 -187.5t-71 -187.5t-187 -68.5t-187 68.5t-71 187.5zM190 250q0 -77 26 -117.5t72 -40.5t72 40.5t26 117.5t-26 117.5t-72 40.5t-72 -40.5t-26 -117.5zM104 694h110q0 -33 20.5 -52.5t53.5 -19.5q34 0 54 19t20 53h111
q0 -70 -50.5 -109.5t-134.5 -39.5q-83 0 -133.5 40t-50.5 109z" />
    <glyph glyph-name="Ohungarumlaut" unicode="&#x150;" horiz-adv-x="727" 
d="M29 350q0 166 92 261t242 95q151 0 243 -95t92 -261t-92 -261t-243 -95q-150 0 -242 95t-92 261zM197 350q0 -120 44 -183t122 -63q79 0 122.5 63t43.5 183t-43.5 183t-122.5 63q-78 0 -122 -63t-44 -183zM168 755l95 145h135l-128 -145h-102zM349 755l96 145h135
l-128 -145h-103z" />
    <glyph glyph-name="ohungarumlaut" unicode="&#x151;" 
d="M30 250q0 119 71 187.5t187 68.5t187 -68.5t71 -187.5t-71 -187.5t-187 -68.5t-187 68.5t-71 187.5zM190 250q0 -77 26 -117.5t72 -40.5t72 40.5t26 117.5t-26 117.5t-72 40.5t-72 -40.5t-26 -117.5zM92 555l95 145h135l-128 -145h-102zM273 555l96 145h135l-128 -145
h-103z" />
    <glyph glyph-name="OE" unicode="&#x152;" horiz-adv-x="891" 
d="M441 0v12q-54 -18 -109 -18q-136 0 -219.5 95.5t-83.5 260.5t83.5 260.5t219.5 95.5q57 0 109 -19v13h414v-108h-258v-177h217v-109h-217v-198h263v-108h-419zM344 104q63 0 97 55v381q-35 56 -97 56q-69 0 -108 -63t-39 -183t39 -183t108 -63z" />
    <glyph glyph-name="oe" unicode="&#x153;" horiz-adv-x="902" 
d="M636 506q113 0 178 -75.5t51 -219.5h-325q0 -56 26 -87.5t68 -31.5q35 0 56 19.5t21 52.5h154q0 -79 -63 -124.5t-166 -45.5q-115 0 -174 82q-59 -82 -174 -82q-116 0 -187 68.5t-71 187.5t71 187.5t187 68.5q115 0 173 -83q58 83 175 83zM190 250q0 -77 26 -117.5
t72 -40.5t72 40.5t26 117.5t-26 117.5t-72 40.5t-72 -40.5t-26 -117.5zM634 408q-40 0 -66.5 -29.5t-26.5 -79.5h168q0 52 -21 80.5t-54 28.5z" />
    <glyph glyph-name="Racute" unicode="&#x154;" horiz-adv-x="641" 
d="M59 0v700h307q108 0 173 -56.5t65 -157.5q0 -74 -37 -125.5t-103 -72.5l168 -288h-179l-129 273h-97v-273h-168zM333 592h-106v-211h106q51 0 79.5 27t28.5 78t-28.5 78.5t-79.5 27.5zM199 755l95 145h147l-140 -145h-102z" />
    <glyph glyph-name="racute" unicode="&#x155;" horiz-adv-x="386" 
d="M206 210v-210h-160v500h140l20 -73q48 79 147 79v-110q-63 0 -105 -53t-42 -133zM81 555l95 145h147l-140 -145h-102z" />
    <glyph glyph-name="Rcommaaccent" unicode="&#x156;" horiz-adv-x="641" 
d="M59 0v700h307q108 0 173 -56.5t65 -157.5q0 -74 -37 -125.5t-103 -72.5l168 -288h-179l-129 273h-97v-273h-168zM333 592h-106v-211h106q51 0 79.5 27t28.5 78t-28.5 78.5t-79.5 27.5zM273 -133v83h96v-83q0 -45 -26.5 -72.5t-69.5 -27.5v48q15 0 25.5 14.5t10.5 37.5
h-36z" />
    <glyph glyph-name="rcommaaccent" unicode="&#x157;" horiz-adv-x="386" 
d="M206 210v-210h-160v500h140l20 -73q48 79 147 79v-110q-63 0 -105 -53t-42 -133zM147 -133v83h96v-83q0 -45 -26.5 -72.5t-69.5 -27.5v48q15 0 25.5 14.5t10.5 37.5h-36z" />
    <glyph glyph-name="Rcaron" unicode="&#x158;" horiz-adv-x="641" 
d="M59 0v700h307q108 0 173 -56.5t65 -157.5q0 -74 -37 -125.5t-103 -72.5l168 -288h-179l-129 273h-97v-273h-168zM333 592h-106v-211h106q51 0 79.5 27t28.5 78t-28.5 78.5t-79.5 27.5zM249 755l-111 145h118l55 -85l54 85h119l-112 -145h-123z" />
    <glyph glyph-name="rcaron" unicode="&#x159;" horiz-adv-x="386" 
d="M206 210v-210h-160v500h140l20 -73q48 79 147 79v-110q-63 0 -105 -53t-42 -133zM133 555l-111 145h118l55 -85l54 85h119l-112 -145h-123z" />
    <glyph glyph-name="Sacute" unicode="&#x15a;" horiz-adv-x="614" 
d="M22 222h159q0 -58 30.5 -88t86.5 -30q54 0 85.5 25.5t31.5 66.5q0 33 -21 54.5t-54.5 31.5t-74 17.5t-81 19.5t-74 31t-54.5 57t-21 93q0 96 74 151t193 55t189 -57.5t70 -156.5h-159q0 49 -25.5 76.5t-70.5 27.5q-46 0 -74.5 -27.5t-28.5 -66.5q0 -36 28 -57.5
t70.5 -29.5t92 -21t92 -30t70.5 -58t28 -104q0 -100 -77.5 -154t-203.5 -54q-131 0 -206 61t-75 167zM193 755l95 145h147l-140 -145h-102z" />
    <glyph glyph-name="sacute" unicode="&#x15b;" horiz-adv-x="521" 
d="M29 166h155q0 -36 19 -55t53 -19q33 0 52 13.5t19 39.5q0 25 -29.5 38t-72 21t-85 20t-72 45t-29.5 86q0 71 61.5 111t162.5 40q92 0 150 -44t58 -118h-147q0 30 -17.5 47t-47.5 17q-27 0 -43.5 -14t-16.5 -39q0 -24 29.5 -37t72 -20.5t85 -20.5t72 -47t29.5 -89
q0 -69 -64.5 -108t-170.5 -39q-100 0 -161.5 46.5t-61.5 125.5zM153 555l95 145h147l-140 -145h-102z" />
    <glyph glyph-name="Scircumflex" unicode="&#x15c;" horiz-adv-x="614" 
d="M22 222h159q0 -58 30.5 -88t86.5 -30q54 0 85.5 25.5t31.5 66.5q0 33 -21 54.5t-54.5 31.5t-74 17.5t-81 19.5t-74 31t-54.5 57t-21 93q0 96 74 151t193 55t189 -57.5t70 -156.5h-159q0 49 -25.5 76.5t-70.5 27.5q-46 0 -74.5 -27.5t-28.5 -66.5q0 -36 28 -57.5
t70.5 -29.5t92 -21t92 -30t70.5 -58t28 -104q0 -100 -77.5 -154t-203.5 -54q-131 0 -206 61t-75 167zM366 900l112 -145h-119l-55 85l-54 -85h-118l111 145h123z" />
    <glyph glyph-name="scircumflex" unicode="&#x15d;" horiz-adv-x="521" 
d="M29 166h155q0 -36 19 -55t53 -19q33 0 52 13.5t19 39.5q0 25 -29.5 38t-72 21t-85 20t-72 45t-29.5 86q0 71 61.5 111t162.5 40q92 0 150 -44t58 -118h-147q0 30 -17.5 47t-47.5 17q-27 0 -43.5 -14t-16.5 -39q0 -24 29.5 -37t72 -20.5t85 -20.5t72 -47t29.5 -89
q0 -69 -64.5 -108t-170.5 -39q-100 0 -161.5 46.5t-61.5 125.5zM325 700l112 -145h-119l-55 85l-54 -85h-118l111 145h123z" />
    <glyph glyph-name="Scedilla" unicode="&#x15e;" horiz-adv-x="614" 
d="M22 222h159q0 -58 30.5 -88t86.5 -30q54 0 85.5 25.5t31.5 66.5q0 33 -21 54.5t-54.5 31.5t-74 17.5t-81 19.5t-74 31t-54.5 57t-21 93q0 96 74 151t193 55t189 -57.5t70 -156.5h-159q0 49 -25.5 76.5t-70.5 27.5q-46 0 -74.5 -27.5t-28.5 -66.5q0 -36 28 -57.5
t70.5 -29.5t92 -21t92 -30t70.5 -58t28 -104q0 -91 -64.5 -144t-172.5 -62v-16q0 -14 9.5 -25t21 -18t21 -23t9.5 -39q0 -40 -27.5 -61t-73.5 -21q-37 0 -68 21v64q24 -19 49 -19q32 0 32 24q0 12 -15 23.5t-29.5 29.5t-14.5 44v16q-112 10 -175.5 69.5t-63.5 156.5z" />
    <glyph glyph-name="scedilla" unicode="&#x15f;" horiz-adv-x="521" 
d="M29 166h155q0 -36 19 -55t53 -19q33 0 52 13.5t19 39.5q0 25 -29.5 38t-72 21t-85 20t-72 45t-29.5 86q0 71 61.5 111t162.5 40q92 0 150 -44t58 -118h-147q0 30 -17.5 47t-47.5 17q-27 0 -43.5 -14t-16.5 -39q0 -24 29.5 -37t72 -20.5t85 -20.5t72 -47t29.5 -89
q0 -61 -51.5 -99t-138.5 -46v-16q0 -14 9.5 -25t21 -18t21 -23t9.5 -39q0 -40 -27.5 -61t-73.5 -21q-37 0 -68 21v64q24 -19 49 -19q32 0 32 24q0 12 -15 23.5t-29.5 29.5t-14.5 44v17q-84 8 -133 53t-49 116z" />
    <glyph glyph-name="Scaron" unicode="&#x160;" horiz-adv-x="614" 
d="M22 222h159q0 -58 30.5 -88t86.5 -30q54 0 85.5 25.5t31.5 66.5q0 33 -21 54.5t-54.5 31.5t-74 17.5t-81 19.5t-74 31t-54.5 57t-21 93q0 96 74 151t193 55t189 -57.5t70 -156.5h-159q0 49 -25.5 76.5t-70.5 27.5q-46 0 -74.5 -27.5t-28.5 -66.5q0 -36 28 -57.5
t70.5 -29.5t92 -21t92 -30t70.5 -58t28 -104q0 -100 -77.5 -154t-203.5 -54q-131 0 -206 61t-75 167zM243 755l-111 145h118l55 -85l54 85h119l-112 -145h-123z" />
    <glyph glyph-name="scaron" unicode="&#x161;" horiz-adv-x="521" 
d="M29 166h155q0 -36 19 -55t53 -19q33 0 52 13.5t19 39.5q0 25 -29.5 38t-72 21t-85 20t-72 45t-29.5 86q0 71 61.5 111t162.5 40q92 0 150 -44t58 -118h-147q0 30 -17.5 47t-47.5 17q-27 0 -43.5 -14t-16.5 -39q0 -24 29.5 -37t72 -20.5t85 -20.5t72 -47t29.5 -89
q0 -69 -64.5 -108t-170.5 -39q-100 0 -161.5 46.5t-61.5 125.5zM202 555l-111 145h118l55 -85l54 85h119l-112 -145h-123z" />
    <glyph glyph-name="Tcommaaccent" unicode="&#x162;" horiz-adv-x="636" 
d="M28 592v108h581v-108h-207v-592h-168v592h-206zM269 -133v83h96v-83q0 -45 -26.5 -72.5t-69.5 -27.5v48q15 0 25.5 14.5t10.5 37.5h-36z" />
    <glyph glyph-name="tcommaaccent" unicode="&#x163;" horiz-adv-x="376" 
d="M288 -6q-111 0 -158.5 38.5t-47.5 125.5v246h-63v96h63v105h160v-105h102v-96h-102v-258q0 -54 62 -54q26 0 40 5v-97q-28 -6 -56 -6zM160 -133v83h96v-83q0 -45 -26.5 -72.5t-69.5 -27.5v48q15 0 25.5 14.5t10.5 37.5h-36z" />
    <glyph glyph-name="Tcaron" unicode="&#x164;" horiz-adv-x="636" 
d="M28 592v108h581v-108h-207v-592h-168v592h-206zM256 755l-111 145h118l55 -85l54 85h119l-112 -145h-123z" />
    <glyph glyph-name="tcaron" unicode="&#x165;" horiz-adv-x="495" 
d="M288 -6q-111 0 -158.5 38.5t-47.5 125.5v246h-63v96h63v105h160v-105h102v-96h-102v-258q0 -54 62 -54q26 0 40 5v-97q-28 -6 -56 -6zM389 642v83h96v-83q0 -45 -26.5 -72.5t-69.5 -27.5v48q15 0 25.5 14.5t10.5 37.5h-36z" />
    <glyph glyph-name="Tbar" unicode="&#x166;" horiz-adv-x="636" 
d="M103 292v108h131v192h-206v108h581v-108h-207v-192h132v-108h-132v-292h-168v292h-131z" />
    <glyph glyph-name="tbar" unicode="&#x167;" horiz-adv-x="376" 
d="M19 230v96h63v78h-63v96h63v105h160v-105h102v-96h-102v-78h102v-96h-102v-84q0 -54 62 -54q26 0 40 5v-97q-28 -6 -56 -6q-111 0 -158.5 38.5t-47.5 125.5v72h-63z" />
    <glyph glyph-name="Utilde" unicode="&#x168;" horiz-adv-x="708" 
d="M485 247v453h168v-453q0 -117 -82.5 -185t-216.5 -68q-135 0 -217.5 68t-82.5 185v453h168v-453q0 -69 34.5 -106t97.5 -37t97 37t34 106zM181 770q0 55 30 87.5t76 32.5q34 0 65 -23.5t47 -23.5q17 0 28 11t11 31h88q0 -55 -30.5 -87.5t-76.5 -32.5q-35 0 -65.5 22
t-46.5 22q-17 0 -28 -10t-11 -29h-87z" />
    <glyph glyph-name="utilde" unicode="&#x169;" horiz-adv-x="570" 
d="M363 250v250h160v-500h-148l-12 58q-53 -64 -135 -64q-81 0 -131 45.5t-50 124.5v336h160v-336q0 -34 18 -53t49 -19q42 0 65.5 40.5t23.5 117.5zM112 570q0 55 30 87.5t76 32.5q34 0 65 -23.5t47 -23.5q17 0 28 11t11 31h88q0 -55 -30.5 -87.5t-76.5 -32.5
q-35 0 -65.5 22t-46.5 22q-17 0 -28 -10t-11 -29h-87z" />
    <glyph glyph-name="Umacron" unicode="&#x16a;" horiz-adv-x="708" 
d="M485 247v453h168v-453q0 -117 -82.5 -185t-216.5 -68q-135 0 -217.5 68t-82.5 185v453h168v-453q0 -69 34.5 -106t97.5 -37t97 37t34 106zM193 772v92h322v-92h-322z" />
    <glyph glyph-name="umacron" unicode="&#x16b;" horiz-adv-x="570" 
d="M363 250v250h160v-500h-148l-12 58q-53 -64 -135 -64q-81 0 -131 45.5t-50 124.5v336h160v-336q0 -34 18 -53t49 -19q42 0 65.5 40.5t23.5 117.5zM124 572v92h322v-92h-322z" />
    <glyph glyph-name="Ubreve" unicode="&#x16c;" horiz-adv-x="708" 
d="M485 247v453h168v-453q0 -117 -82.5 -185t-216.5 -68q-135 0 -217.5 68t-82.5 185v453h168v-453q0 -69 34.5 -106t97.5 -37t97 37t34 106zM169 894h110q0 -33 20.5 -52.5t53.5 -19.5q34 0 54 19t20 53h111q0 -70 -50.5 -109.5t-134.5 -39.5q-83 0 -133.5 40t-50.5 109z
" />
    <glyph glyph-name="ubreve" unicode="&#x16d;" horiz-adv-x="570" 
d="M363 250v250h160v-500h-148l-12 58q-53 -64 -135 -64q-81 0 -131 45.5t-50 124.5v336h160v-336q0 -34 18 -53t49 -19q42 0 65.5 40.5t23.5 117.5zM100 694h110q0 -33 20.5 -52.5t53.5 -19.5q34 0 54 19t20 53h111q0 -70 -50.5 -109.5t-134.5 -39.5q-83 0 -133.5 40
t-50.5 109z" />
    <glyph glyph-name="Uring" unicode="&#x16e;" horiz-adv-x="708" 
d="M485 247v453h168v-453q0 -117 -82.5 -185t-216.5 -68q-135 0 -217.5 68t-82.5 185v453h168v-453q0 -69 34.5 -106t97.5 -37t97 37t34 106zM246 831q0 48 29.5 75.5t78.5 27.5t78.5 -27.5t29.5 -75.5q0 -47 -29.5 -74t-78.5 -27t-78.5 27t-29.5 74zM314 831
q0 -20 10.5 -31t29.5 -11q17 0 27 11.5t10 30.5t-10 30t-27 11q-40 0 -40 -41z" />
    <glyph glyph-name="uring" unicode="&#x16f;" horiz-adv-x="570" 
d="M363 250v250h160v-500h-148l-12 58q-53 -64 -135 -64q-81 0 -131 45.5t-50 124.5v336h160v-336q0 -34 18 -53t49 -19q42 0 65.5 40.5t23.5 117.5zM177 631q0 48 29.5 75.5t78.5 27.5t78.5 -27.5t29.5 -75.5q0 -47 -29.5 -74t-78.5 -27t-78.5 27t-29.5 74zM245 631
q0 -20 10.5 -31t29.5 -11q17 0 27 11.5t10 30.5t-10 30t-27 11q-40 0 -40 -41z" />
    <glyph glyph-name="Uhungarumlaut" unicode="&#x170;" horiz-adv-x="708" 
d="M485 247v453h168v-453q0 -117 -82.5 -185t-216.5 -68q-135 0 -217.5 68t-82.5 185v453h168v-453q0 -69 34.5 -106t97.5 -37t97 37t34 106zM158 755l95 145h135l-128 -145h-102zM339 755l96 145h135l-128 -145h-103z" />
    <glyph glyph-name="uhungarumlaut" unicode="&#x171;" horiz-adv-x="570" 
d="M363 250v250h160v-500h-148l-12 58q-53 -64 -135 -64q-81 0 -131 45.5t-50 124.5v336h160v-336q0 -34 18 -53t49 -19q42 0 65.5 40.5t23.5 117.5zM89 555l95 145h135l-128 -145h-102zM270 555l96 145h135l-128 -145h-103z" />
    <glyph glyph-name="Uogonek" unicode="&#x172;" horiz-adv-x="708" 
d="M485 247v453h168v-453q0 -82 -42 -141t-117 -88q-53 -60 -53 -106q0 -14 9 -23t26 -9q26 0 50 19v-64q-33 -21 -70 -21q-46 0 -74 22.5t-28 66.5q0 51 33 92q-11 -1 -33 -1q-135 0 -217.5 68t-82.5 185v453h168v-453q0 -69 34.5 -106t97.5 -37t97 37t34 106z" />
    <glyph glyph-name="uogonek" unicode="&#x173;" horiz-adv-x="570" 
d="M421 0h-46l-12 58q-53 -64 -135 -64q-81 0 -131 45.5t-50 124.5v336h160v-336q0 -34 18 -53t49 -19q42 0 65.5 40.5t23.5 117.5v250h160v-500h-16q-6 -6 -15.5 -17t-25 -40t-15.5 -52q0 -14 9 -23t26 -9q26 0 50 19v-64q-33 -21 -70 -21q-46 0 -74 22.5t-28 66.5
q0 20 6 39.5t14 33t16.5 24t14.5 15.5z" />
    <glyph glyph-name="Wcircumflex" unicode="&#x174;" horiz-adv-x="1034" 
d="M637 0l-120 494l-119 -494h-192l-190 700h172l115 -541l131 541h168l130 -541l114 541h173l-190 -700h-192zM578 900l112 -145h-119l-55 85l-54 -85h-118l111 145h123z" />
    <glyph glyph-name="wcircumflex" unicode="&#x175;" horiz-adv-x="834" 
d="M496 0l-79 306l-80 -306h-178l-148 500h164l75 -359l89 359h156l88 -359l76 359h164l-148 -500h-179zM478 700l112 -145h-119l-55 85l-54 -85h-118l111 145h123z" />
    <glyph glyph-name="Ycircumflex" unicode="&#x176;" horiz-adv-x="689" 
d="M261 0v243l-239 457h180l143 -318l144 318h179l-239 -457v-243h-168zM406 900l112 -145h-119l-55 85l-54 -85h-118l111 145h123z" />
    <glyph glyph-name="ycircumflex" unicode="&#x177;" horiz-adv-x="554" 
d="M543 500l-198 -556q-29 -85 -96 -125t-186 -40v98q50 0 86.5 17.5t47.5 49.5l21 56h-32l-175 500h162l103 -366l104 366h163zM338 700l112 -145h-119l-55 85l-54 -85h-118l111 145h123z" />
    <glyph glyph-name="Ydieresis" unicode="&#x178;" horiz-adv-x="689" 
d="M261 0v243l-239 457h180l143 -318l144 318h179l-239 -457v-243h-168zM164 766v116h132v-116h-132zM394 766v116h132v-116h-132z" />
    <glyph glyph-name="Zacute" unicode="&#x179;" horiz-adv-x="614" 
d="M41 592v108h538v-100l-362 -492h365v-108h-546v100l354 492h-349zM196 755l95 145h147l-140 -145h-102z" />
    <glyph glyph-name="zacute" unicode="&#x17a;" horiz-adv-x="480" 
d="M27 404v96h426v-96l-262 -308h265v-96h-432v96l253 308h-250zM129 555l95 145h147l-140 -145h-102z" />
    <glyph glyph-name="Zdotaccent" unicode="&#x17b;" horiz-adv-x="614" 
d="M41 592v108h538v-100l-362 -492h365v-108h-546v100l354 492h-349zM227 770v130h160v-130h-160z" />
    <glyph glyph-name="zdotaccent" unicode="&#x17c;" horiz-adv-x="480" 
d="M27 404v96h426v-96l-262 -308h265v-96h-432v96l253 308h-250zM160 570v130h160v-130h-160z" />
    <glyph glyph-name="Zcaron" unicode="&#x17d;" horiz-adv-x="614" 
d="M41 592v108h538v-100l-362 -492h365v-108h-546v100l354 492h-349zM245 755l-111 145h118l55 -85l54 85h119l-112 -145h-123z" />
    <glyph glyph-name="zcaron" unicode="&#x17e;" horiz-adv-x="480" 
d="M27 404v96h426v-96l-262 -308h265v-96h-432v96l253 308h-250zM178 555l-111 145h118l55 -85l54 85h119l-112 -145h-123z" />
    <glyph glyph-name="longs" unicode="&#x17f;" horiz-adv-x="335" 
d="M253 731q27 0 56 -6v-97q-14 5 -40 5q-62 0 -62 -54v-579h-160v567q0 87 47.5 125.5t158.5 38.5z" />
    <glyph glyph-name="uni018F" unicode="&#x18f;" horiz-adv-x="698" 
d="M34 350q0 24 5 56h458q-9 92 -51 141t-109 49q-64 0 -99 -32t-35 -92h-164q0 109 80.5 171.5t212.5 62.5q152 0 244 -95t92 -261t-90.5 -261t-238.5 -95q-155 0 -230 92t-75 264zM344 104q65 0 105 50t48 144h-299v-10q0 -184 146 -184z" />
    <glyph glyph-name="florin" unicode="&#x192;" horiz-adv-x="368" 
d="M286 731q28 0 56 -6v-97q-14 5 -40 5q-62 0 -62 -54v-79h102v-96h-102v-444q0 -92 -53.5 -136.5t-168.5 -44.5v98q62 0 62 67v460h-51v96h51v67q0 87 47.5 125.5t158.5 38.5z" />
    <glyph glyph-name="uni01DD" unicode="&#x1dd;" horiz-adv-x="554" 
d="M267 -6q-113 0 -178 77t-51 224h325q0 53 -27 83t-69 30q-33 0 -54 -18t-21 -48h-154q0 76 63 120t166 44q116 0 187 -68.5t71 -187.5t-70.5 -187.5t-187.5 -68.5zM273 92q38 0 64 31.5t26 83.5h-169q0 -54 22.5 -84.5t56.5 -30.5z" />
    <glyph glyph-name="AEacute" unicode="&#x1fc;" horiz-adv-x="811" 
d="M361 0v149h-130l-48 -149h-167l236 700h523v-108h-258v-177h217v-109h-217v-198h263v-108h-419zM257 258h104v334h-8zM280 755l95 145h147l-140 -145h-102z" />
    <glyph glyph-name="aeacute" unicode="&#x1fd;" horiz-adv-x="855" 
d="M589 506q113 0 178 -75.5t51 -219.5h-325q0 -56 26 -87.5t68 -31.5q35 0 56 19.5t21 52.5h154q0 -79 -63 -124.5t-166 -45.5q-115 0 -174 82q-64 -82 -206 -82q-81 0 -130 36t-49 99q0 84 74.5 129.5t206.5 45.5h28v24q0 38 -20 59t-55 21q-31 0 -49 -20.5t-18 -56.5
h-156q0 81 61.5 128t161.5 47q112 0 163 -68q59 68 162 68zM587 408q-40 0 -66.5 -29.5t-26.5 -79.5h168q0 52 -21 80.5t-54 28.5zM339 222h-28q-120 0 -120 -80q0 -24 15.5 -37t42.5 -13q42 0 66 31t24 86v13zM324 555l95 145h147l-140 -145h-102z" />
    <glyph glyph-name="Oslashacute" unicode="&#x1fe;" horiz-adv-x="727" 
d="M45 0l69 96q-85 96 -85 254q0 166 92 261t242 95q91 0 163 -37l22 31h131l-68 -95q87 -96 87 -255q0 -166 -92 -261t-243 -95q-94 0 -164 37l-22 -31h-132zM537 349q0 75 -17 129l-253 -352q39 -30 96 -30q83 0 128.5 65t45.5 188zM189 349q0 -75 16 -126l253 351
q-39 30 -95 30q-82 0 -128 -65.5t-46 -189.5zM252 755l95 145h147l-140 -145h-102z" />
    <glyph glyph-name="oslashacute" unicode="&#x1ff;" 
d="M33 0l58 73q-61 67 -61 177q0 119 71 187.5t187 68.5q70 0 125 -26l16 20h113l-58 -73q62 -68 62 -177q0 -119 -71 -187.5t-187 -68.5q-71 0 -126 26l-16 -20h-113zM176 555l95 145h147l-140 -145h-102zM394 250q0 29 -5 57l-160 -203q23 -20 59 -20q50 0 78 42.5
t28 123.5zM182 250q0 -34 4 -57l160 203q-25 20 -58 20q-50 0 -78 -42.5t-28 -123.5z" />
    <glyph glyph-name="Scommaaccent" unicode="&#x218;" horiz-adv-x="614" 
d="M22 222h159q0 -58 30.5 -88t86.5 -30q54 0 85.5 25.5t31.5 66.5q0 33 -21 54.5t-54.5 31.5t-74 17.5t-81 19.5t-74 31t-54.5 57t-21 93q0 96 74 151t193 55t189 -57.5t70 -156.5h-159q0 49 -25.5 76.5t-70.5 27.5q-46 0 -74.5 -27.5t-28.5 -66.5q0 -36 28 -57.5
t70.5 -29.5t92 -21t92 -30t70.5 -58t28 -104q0 -100 -77.5 -154t-203.5 -54q-131 0 -206 61t-75 167zM254 -133v83h96v-83q0 -45 -26.5 -72.5t-69.5 -27.5v48q15 0 25.5 14.5t10.5 37.5h-36z" />
    <glyph glyph-name="scommaaccent" unicode="&#x219;" horiz-adv-x="521" 
d="M29 166h155q0 -36 19 -55t53 -19q33 0 52 13.5t19 39.5q0 25 -29.5 38t-72 21t-85 20t-72 45t-29.5 86q0 71 61.5 111t162.5 40q92 0 150 -44t58 -118h-147q0 30 -17.5 47t-47.5 17q-27 0 -43.5 -14t-16.5 -39q0 -24 29.5 -37t72 -20.5t85 -20.5t72 -47t29.5 -89
q0 -69 -64.5 -108t-170.5 -39q-100 0 -161.5 46.5t-61.5 125.5zM207 -133v83h96v-83q0 -45 -26.5 -72.5t-69.5 -27.5v48q15 0 25.5 14.5t10.5 37.5h-36z" />
    <glyph glyph-name="uni021A" unicode="&#x21a;" horiz-adv-x="636" 
d="M28 592v108h581v-108h-207v-592h-168v592h-206zM269 -133v83h96v-83q0 -45 -26.5 -72.5t-69.5 -27.5v48q15 0 25.5 14.5t10.5 37.5h-36z" />
    <glyph glyph-name="uni021B" unicode="&#x21b;" horiz-adv-x="376" 
d="M288 -6q-111 0 -158.5 38.5t-47.5 125.5v246h-63v96h63v105h160v-105h102v-96h-102v-258q0 -54 62 -54q26 0 40 5v-97q-28 -6 -56 -6zM160 -133v83h96v-83q0 -45 -26.5 -72.5t-69.5 -27.5v48q15 0 25.5 14.5t10.5 37.5h-36z" />
    <glyph glyph-name="dotlessj" unicode="&#x237;" horiz-adv-x="254" 
d="M207 500v-540q0 -92 -53.5 -136.5t-168.5 -44.5v98q62 0 62 67v556h160z" />
    <glyph glyph-name="circumflex" unicode="&#x2c6;" horiz-adv-x="358" 
d="M240 700l112 -145h-119l-55 85l-54 -85h-118l111 145h123z" />
    <glyph glyph-name="caron" unicode="&#x2c7;" horiz-adv-x="358" 
d="M117 555l-111 145h118l55 -85l54 85h119l-112 -145h-123z" />
    <glyph glyph-name="breve" unicode="&#x2d8;" horiz-adv-x="475" 
d="M53 694h110q0 -33 20.5 -52.5t53.5 -19.5q34 0 54 19t20 53h111q0 -70 -50.5 -109.5t-134.5 -39.5q-83 0 -133.5 40t-50.5 109z" />
    <glyph glyph-name="dotaccent" unicode="&#x2d9;" horiz-adv-x="254" 
d="M47 570v130h160v-130h-160z" />
    <glyph glyph-name="ring" unicode="&#x2da;" horiz-adv-x="251" 
d="M18 631q0 48 29.5 75.5t78.5 27.5t78.5 -27.5t29.5 -75.5q0 -47 -29.5 -74t-78.5 -27t-78.5 27t-29.5 74zM86 631q0 -20 10.5 -31t29.5 -11q17 0 27 11.5t10 30.5t-10 30t-27 11q-40 0 -40 -41z" />
    <glyph glyph-name="ogonek" unicode="&#x2db;" horiz-adv-x="304" 
d="M151 0h86q-6 -6 -15.5 -17t-25 -40t-15.5 -52q0 -14 9 -23t26 -9q26 0 50 19v-64q-33 -21 -70 -21q-46 0 -74 22.5t-28 66.5q0 32 14.5 61.5t28.5 42.5z" />
    <glyph glyph-name="tilde" unicode="&#x2dc;" horiz-adv-x="347" 
d="M2 570q0 55 30 87.5t76 32.5q34 0 65 -23.5t47 -23.5q17 0 28 11t11 31h88q0 -55 -30.5 -87.5t-76.5 -32.5q-35 0 -65.5 22t-46.5 22q-17 0 -28 -10t-11 -29h-87z" />
    <glyph glyph-name="hungarumlaut" unicode="&#x2dd;" horiz-adv-x="424" 
d="M6 555l95 145h135l-128 -145h-102zM187 555l96 145h135l-128 -145h-103z" />
    <glyph glyph-name="uni0400" unicode="&#x400;" horiz-adv-x="581" 
d="M59 0v700h486v-108h-318v-177h277v-109h-277v-198h323v-108h-491zM308 900l95 -145h-102l-140 145h147z" />
    <glyph glyph-name="afii10023" unicode="&#x401;" horiz-adv-x="581" 
d="M59 0v700h486v-108h-318v-177h277v-109h-277v-198h323v-108h-491zM122 766v116h132v-116h-132zM352 766v116h132v-116h-132z" />
    <glyph glyph-name="afii10051" unicode="&#x402;" horiz-adv-x="825" 
d="M27 592v108h581v-108h-208v-207q61 58 153 58q98 0 158.5 -59.5t60.5 -160.5v-46q0 -93 -58 -138t-182 -45v98q34 0 53 19.5t19 57.5v54q0 53 -23.5 81.5t-65.5 28.5q-53 0 -84 -41.5t-31 -117.5v-174h-167v592h-206z" />
    <glyph glyph-name="afii10052" unicode="&#x403;" horiz-adv-x="542" 
d="M149 755l95 145h147l-140 -145h-102zM512 700v-108h-285v-592h-168v700h453z" />
    <glyph glyph-name="afii10053" unicode="&#x404;" horiz-adv-x="698" 
d="M365 596q-69 0 -112 -48t-52 -138h302v-109h-303q7 -96 50.5 -146.5t114.5 -50.5q64 0 99 34t35 98h163q0 -113 -80.5 -177.5t-212.5 -64.5q-153 0 -246.5 95t-93.5 261t93.5 261t246.5 95q132 0 212.5 -64.5t80.5 -177.5h-163q0 64 -35 98t-99 34z" />
    <glyph glyph-name="afii10054" unicode="&#x405;" horiz-adv-x="614" 
d="M22 222h159q0 -58 30.5 -88t86.5 -30q54 0 85.5 25.5t31.5 66.5q0 33 -21 54.5t-54.5 31.5t-74 17.5t-81 19.5t-74 31t-54.5 57t-21 93q0 96 74 151t193 55t189 -57.5t70 -156.5h-159q0 49 -25.5 76.5t-70.5 27.5q-46 0 -74.5 -27.5t-28.5 -66.5q0 -36 28 -57.5
t70.5 -29.5t92 -21t92 -30t70.5 -58t28 -104q0 -100 -77.5 -154t-203.5 -54q-131 0 -206 61t-75 167z" />
    <glyph glyph-name="afii10055" unicode="&#x406;" horiz-adv-x="286" 
d="M59 0v700h168v-700h-168z" />
    <glyph glyph-name="afii10056" unicode="&#x407;" horiz-adv-x="286" 
d="M59 0v700h168v-700h-168zM-38 766v116h132v-116h-132zM192 766v116h132v-116h-132z" />
    <glyph glyph-name="afii10057" unicode="&#x408;" horiz-adv-x="605" 
d="M381 205v495h168v-495q0 -98 -70 -154.5t-184 -56.5t-183.5 56.5t-69.5 154.5v35h168v-35q0 -49 22 -75t63 -26t63.5 26t22.5 75z" />
    <glyph glyph-name="afii10058" unicode="&#x409;" horiz-adv-x="1070" 
d="M499 0v592h-183q0 -138 -6 -234.5t-21.5 -164t-35 -106t-55 -60t-71.5 -27.5t-95 -6v110q20 0 31 2.5t26 14t23 34.5t17.5 66t14.5 106.5t8 156.5t3 216h512v-263h133q109 0 174.5 -58.5t65.5 -159.5q0 -103 -65.5 -161t-174.5 -58h-301zM667 108h101q51 0 79.5 29
t28.5 82t-28.5 81.5t-79.5 28.5h-101v-221z" />
    <glyph glyph-name="afii10059" unicode="&#x40a;" horiz-adv-x="1041" 
d="M472 0v317h-245v-317h-168v700h168v-274h245v274h168v-274h133q107 0 172.5 -57t65.5 -156q0 -100 -65 -156.5t-173 -56.5h-301zM640 108h100q51 0 79.5 27.5t28.5 77.5q0 51 -28.5 78t-79.5 27h-100v-210z" />
    <glyph glyph-name="afii10060" unicode="&#x40b;" horiz-adv-x="829" 
d="M27 592v108h581v-108h-208v-207q61 58 153 58q98 0 158.5 -59.5t60.5 -160.5v-223h-168v223q0 53 -23.5 81.5t-65.5 28.5q-53 0 -84 -41.5t-31 -117.5v-174h-167v592h-206z" />
    <glyph glyph-name="afii10061" unicode="&#x40c;" horiz-adv-x="674" 
d="M485 0l-188 295l-70 -79v-216h-168v700h168v-281l224 281h187l-245 -288l269 -412h-177zM216 755l95 145h147l-140 -145h-102z" />
    <glyph glyph-name="uni040D" unicode="&#x40d;" horiz-adv-x="721" 
d="M377 900l95 -145h-102l-140 145h147zM502 0v438l-283 -438h-160v700h159v-438l284 438h160v-700h-160z" />
    <glyph glyph-name="afii10062" unicode="&#x40e;" horiz-adv-x="653" 
d="M147 894h110q0 -33 20.5 -52.5t53.5 -19.5q34 0 54 19t20 53h111q0 -70 -50.5 -109.5t-134.5 -39.5q-83 0 -133.5 40t-50.5 109zM644 700l-236 -533q-40 -93 -103 -133t-191 -40v110q116 0 144 69l14 34h-30l-226 493h175l142 -361l131 361h180z" />
    <glyph glyph-name="afii10145" unicode="&#x40f;" horiz-adv-x="714" 
d="M59 0v700h168v-592h259v592h168v-700h-227v-165h-141v165h-227z" />
    <glyph glyph-name="afii10017" unicode="&#x410;" horiz-adv-x="695" 
d="M16 0l236 700h193l235 -700h-166l-50 149h-233l-48 -149h-167zM349 567l-92 -309h183z" />
    <glyph glyph-name="afii10018" unicode="&#x411;" horiz-adv-x="629" 
d="M542 700v-108h-315v-159h132q108 0 174 -58t66 -159t-66 -158.5t-174 -57.5h-300v700h483zM227 108h99q51 0 80 28t29 80q0 53 -28.5 81t-80.5 28h-99v-217z" />
    <glyph glyph-name="afii10019" unicode="&#x412;" horiz-adv-x="650" 
d="M59 0v700h301q106 0 170 -48.5t64 -132.5q0 -106 -98 -153q58 -22 91 -66.5t33 -106.5q0 -90 -65.5 -141.5t-172.5 -51.5h-323zM227 108h122q51 0 79 26t28 74t-28 74t-79 26h-122v-200zM327 592h-100v-176h100q49 0 76 22.5t27 65.5q0 42 -27 65t-76 23z" />
    <glyph glyph-name="afii10020" unicode="&#x413;" horiz-adv-x="542" 
d="M512 700v-108h-285v-592h-168v700h453z" />
    <glyph glyph-name="afii10021" unicode="&#x414;" horiz-adv-x="820" 
d="M28 -165v274h28q20 0 31 2t26.5 13.5t23.5 34t17.5 64.5t14.5 105t8 156t3 216h510v-591h103v-274h-141v165h-483v-165h-141zM522 592h-184q0 -369 -59 -484h243v484z" />
    <glyph glyph-name="afii10022" unicode="&#x415;" horiz-adv-x="581" 
d="M59 0v700h486v-108h-318v-177h277v-109h-277v-198h323v-108h-491z" />
    <glyph glyph-name="afii10024" unicode="&#x416;" horiz-adv-x="1021" 
d="M359 296l-175 -296h-171l246 410l-223 290h177l214 -281v281h168v-281l213 281h179l-224 -290l247 -410h-172l-175 296l-68 -77v-219h-168v219z" />
    <glyph glyph-name="afii10025" unicode="&#x417;" horiz-adv-x="637" 
d="M233 304v108h81q48 0 75 25.5t27 69.5q0 41 -28.5 65t-76.5 24q-54 0 -83 -32t-29 -92h-160q0 109 76 171.5t200 62.5q125 0 195.5 -49t70.5 -138q0 -108 -98 -157q58 -22 91 -67t33 -107q0 -93 -73 -143.5t-210 -50.5q-129 0 -207 64t-78 175h160q0 -63 32.5 -96
t93.5 -33q54 0 85 25.5t31 72.5t-27.5 74.5t-77.5 27.5h-103z" />
    <glyph glyph-name="afii10026" unicode="&#x418;" horiz-adv-x="721" 
d="M502 0v438l-283 -438h-160v700h159v-438l284 438h160v-700h-160z" />
    <glyph glyph-name="afii10027" unicode="&#x419;" horiz-adv-x="721" 
d="M175 894h110q0 -33 20.5 -52.5t53.5 -19.5q34 0 54 19t20 53h111q0 -70 -50.5 -109.5t-134.5 -39.5q-83 0 -133.5 40t-50.5 109zM502 0v438l-283 -438h-160v700h159v-438l284 438h160v-700h-160z" />
    <glyph glyph-name="afii10028" unicode="&#x41a;" horiz-adv-x="674" 
d="M485 0l-188 295l-70 -79v-216h-168v700h168v-281l224 281h187l-245 -288l269 -412h-177z" />
    <glyph glyph-name="afii10029" unicode="&#x41b;" horiz-adv-x="731" 
d="M504 0v592h-188q0 -138 -6 -234.5t-21.5 -164t-35 -106t-55 -60t-71.5 -27.5t-95 -6v110q20 0 31 2.5t26 14t23 34.5t17.5 66t14.5 106.5t8 156.5t3 216h517v-700h-168z" />
    <glyph glyph-name="afii10030" unicode="&#x41c;" horiz-adv-x="950" 
d="M59 0v700h259l156 -511l157 511h260v-700h-160v529l-173 -529h-169l-171 529v-529h-159z" />
    <glyph glyph-name="afii10031" unicode="&#x41d;" horiz-adv-x="715" 
d="M488 0v306h-261v-306h-168v700h168v-285h261v285h168v-700h-168z" />
    <glyph glyph-name="afii10032" unicode="&#x41e;" horiz-adv-x="727" 
d="M29 350q0 166 92 261t242 95q151 0 243 -95t92 -261t-92 -261t-243 -95q-150 0 -242 95t-92 261zM197 350q0 -120 44 -183t122 -63q79 0 122.5 63t43.5 183t-43.5 183t-122.5 63q-78 0 -122 -63t-44 -183z" />
    <glyph glyph-name="afii10033" unicode="&#x41f;" horiz-adv-x="714" 
d="M486 0v592h-259v-592h-168v700h595v-700h-168z" />
    <glyph glyph-name="afii10034" unicode="&#x420;" horiz-adv-x="634" 
d="M59 0v700h307q108 0 173 -58t65 -160q0 -101 -65 -159t-173 -58h-139v-265h-168zM333 592h-106v-219h106q51 0 79.5 28t28.5 81q0 54 -28.5 82t-79.5 28z" />
    <glyph glyph-name="afii10035" unicode="&#x421;" horiz-adv-x="698" 
d="M365 596q-79 0 -123.5 -63.5t-44.5 -182.5t44.5 -182.5t123.5 -63.5q64 0 99 36t35 104h163q0 -116 -80.5 -183t-212.5 -67q-153 0 -246.5 95t-93.5 261t93.5 261t246.5 95q132 0 212.5 -67t80.5 -183h-163q0 68 -35 104t-99 36z" />
    <glyph glyph-name="afii10036" unicode="&#x422;" horiz-adv-x="636" 
d="M28 592v108h581v-108h-207v-592h-168v592h-206z" />
    <glyph glyph-name="afii10037" unicode="&#x423;" horiz-adv-x="653" 
d="M644 700l-236 -533q-40 -93 -103 -133t-191 -40v110q116 0 144 69l14 34h-30l-226 493h175l142 -361l131 361h180z" />
    <glyph glyph-name="afii10038" unicode="&#x424;" horiz-adv-x="881" 
d="M356 0v62h-26q-136 0 -219 76.5t-83 210.5q0 135 83 211.5t219 76.5h26v63h168v-62h27q136 0 219 -77t83 -211t-83 -211t-219 -77h-27v-62h-168zM356 532h-26q-63 0 -98.5 -46.5t-35.5 -135.5t35.5 -135.5t98.5 -46.5h26v364zM524 168h27q63 0 98 46.5t35 135.5
t-35 135.5t-98 46.5h-27v-364z" />
    <glyph glyph-name="afii10039" unicode="&#x425;" horiz-adv-x="697" 
d="M14 0l237 354l-229 346h184l143 -240l143 240h185l-231 -345l238 -355h-184l-151 249l-151 -249h-184z" />
    <glyph glyph-name="afii10040" unicode="&#x426;" horiz-adv-x="775" 
d="M59 0v700h168v-592h249v592h168v-591h104v-274h-141v165h-548z" />
    <glyph glyph-name="afii10041" unicode="&#x427;" horiz-adv-x="697" 
d="M470 508v192h168v-700h-168v306q-69 -69 -174 -69t-171 60t-66 163v240h168v-241q0 -54 28 -83t78 -29q64 0 100.5 42t36.5 119z" />
    <glyph glyph-name="afii10042" unicode="&#x428;" horiz-adv-x="1035" 
d="M602 700v-592h205v592h169v-700h-917v700h168v-592h207v592h168z" />
    <glyph glyph-name="afii10043" unicode="&#x429;" horiz-adv-x="1107" 
d="M59 0v700h168v-592h207v592h168v-592h205v592h169v-591h104v-274h-142v165h-879z" />
    <glyph glyph-name="afii10044" unicode="&#x42a;" horiz-adv-x="781" 
d="M28 592v108h346v-263h137q108 0 174 -58.5t66 -159.5q0 -103 -66 -161t-174 -58h-305v592h-178zM374 108h104q52 0 80.5 29t28.5 82t-29 81.5t-80 28.5h-104v-221z" />
    <glyph glyph-name="afii10045" unicode="&#x42b;" horiz-adv-x="894" 
d="M59 0v700h168v-263h138q107 0 173 -58.5t66 -159.5q0 -103 -65.5 -161t-173.5 -58h-306zM227 108h105q52 0 80.5 29t28.5 82t-29 81.5t-80 28.5h-105v-221zM666 0v700h169v-700h-169z" />
    <glyph glyph-name="afii10046" unicode="&#x42c;" horiz-adv-x="634" 
d="M59 0v700h168v-263h138q107 0 173 -58.5t66 -159.5q0 -103 -65.5 -161t-173.5 -58h-306zM227 108h105q52 0 80.5 29t28.5 82t-29 81.5t-80 28.5h-105v-221z" />
    <glyph glyph-name="afii10047" unicode="&#x42d;" horiz-adv-x="697" 
d="M334 596q-64 0 -99 -34t-35 -98h-164q0 113 80.5 177.5t212.5 64.5q154 0 247 -95t93 -261t-93 -261t-247 -95q-132 0 -212.5 64.5t-80.5 177.5h164q0 -64 35 -98t99 -34q71 0 114 50.5t50 146.5h-267v109h267q-10 90 -52.5 138t-111.5 48z" />
    <glyph glyph-name="afii10048" unicode="&#x42e;" horiz-adv-x="986" 
d="M59 0v700h168v-291h107q16 140 100 218.5t211 78.5q140 0 226 -95t86 -261t-86 -261t-226 -95q-131 0 -215 81t-96 225h-107v-300h-168zM499 350q0 -120 38 -183t107 -63t107 63t38 183t-38 183t-107 63t-107 -63t-38 -183z" />
    <glyph glyph-name="afii10049" unicode="&#x42f;" horiz-adv-x="641" 
d="M583 700v-700h-168v264h-86l-135 -264h-174l165 277q-69 21 -108 74.5t-39 130.5q0 102 65 160t173 58h307zM415 592h-94q-57 0 -88.5 -28.5t-31.5 -81.5q0 -54 31.5 -82t88.5 -28h94v220z" />
    <glyph glyph-name="afii10065" unicode="&#x430;" horiz-adv-x="549" 
d="M351 0l-12 58q-52 -64 -130 -64q-81 0 -130 36t-49 99q0 84 74.5 129.5t206.5 45.5h28v24q0 38 -20 59t-55 21q-31 0 -49 -20.5t-18 -56.5h-156q0 81 61.5 128t161.5 47q106 0 170.5 -47.5t64.5 -130.5v-328h-148zM339 222h-28q-120 0 -120 -80q0 -24 15.5 -37t42.5 -13
q42 0 66 31t24 86v13z" />
    <glyph glyph-name="afii10066" unicode="&#x431;" horiz-adv-x="565" 
d="M34 336q0 87 17.5 150t51 100.5t64 57t75.5 36.5q18 7 49 14t50 15t30 25h115q-3 -25 -13 -44t-18.5 -30t-31.5 -23t-33.5 -16t-44.5 -16q-9 -3 -14 -5q-28 -10 -33 -12l-29 -11.5t-30 -15t-22 -18t-21.5 -24.5t-11 -30t-6.5 -39q56 56 139 56q98 0 158 -68.5t60 -187.5
t-69 -187.5t-182 -68.5q-250 0 -250 342zM194 250q0 -77 23.5 -117.5t66.5 -40.5t67 40.5t24 117.5t-24 117.5t-67 40.5q-42 0 -66 -40.5t-24 -117.5z" />
    <glyph glyph-name="afii10067" unicode="&#x432;" horiz-adv-x="546" 
d="M47 0v500h267q82 0 131.5 -36t49.5 -99q0 -72 -66 -109q87 -35 87 -118q0 -64 -55.5 -101t-146.5 -37h-267zM207 206v-110h79q35 0 54.5 14.5t19.5 39.5q0 27 -19.5 41.5t-54.5 14.5h-79zM207 404v-102h75q61 0 61 51t-61 51h-75z" />
    <glyph glyph-name="afii10068" unicode="&#x433;" horiz-adv-x="439" 
d="M409 500v-96h-202v-404h-160v500h362z" />
    <glyph glyph-name="afii10069" unicode="&#x434;" horiz-adv-x="686" 
d="M22 -150v242h41q25 0 38 9t26 46.5t18 122.5t5 230h422v-408h92v-242h-144v150h-354v-150h-144zM295 404q0 -231 -42 -312h159v312h-117z" />
    <glyph glyph-name="afii10070" unicode="&#x435;" horiz-adv-x="554" 
d="M288 506q113 0 178 -75.5t51 -219.5h-325q0 -56 26 -87.5t68 -31.5q35 0 56 19.5t21 52.5h154q0 -79 -63 -124.5t-166 -45.5q-116 0 -187 68.5t-71 187.5t70.5 187.5t187.5 68.5zM286 408q-40 0 -66.5 -29.5t-26.5 -79.5h168q0 52 -21 80.5t-54 28.5z" />
    <glyph glyph-name="afii10072" unicode="&#x436;" horiz-adv-x="810" 
d="M277 197l-113 -197h-149l174 289l-156 211h159l108 -165l25 -16v181h159v-181l26 17l107 164h159l-155 -211l173 -289h-149l-113 197l-48 -32v-165h-159v165z" />
    <glyph glyph-name="afii10073" unicode="&#x437;" horiz-adv-x="517" 
d="M252 92q37 0 58 15.5t21 43.5t-20 43.5t-55 15.5h-75v84h71q29 0 45.5 15.5t16.5 42.5t-18 41.5t-49 14.5q-34 0 -53.5 -17.5t-19.5 -49.5h-137q0 72 61.5 118.5t163.5 46.5q91 0 147.5 -36.5t56.5 -100.5q0 -75 -70 -113q43 -17 67 -49.5t24 -72.5q0 -67 -63 -103.5
t-156 -36.5q-105 0 -168 46.5t-63 118.5h139q0 -67 76 -67z" />
    <glyph glyph-name="afii10074" unicode="&#x438;" horiz-adv-x="584" 
d="M381 0v277l-186 -277h-148v500h156v-277l186 277h148v-500h-156z" />
    <glyph glyph-name="afii10075" unicode="&#x439;" horiz-adv-x="584" 
d="M107 694h110q0 -33 20.5 -52.5t53.5 -19.5q34 0 54 19t20 53h111q0 -70 -50.5 -109.5t-134.5 -39.5q-83 0 -133.5 40t-50.5 109zM381 0v277l-186 -277h-148v500h156v-277l186 277h148v-500h-156z" />
    <glyph glyph-name="afii10076" unicode="&#x43a;" horiz-adv-x="572" 
d="M388 0l-121 191l-60 -65v-126h-160v500h160v-189l150 189h179l-175 -210l196 -290h-169z" />
    <glyph glyph-name="afii10077" unicode="&#x43b;" horiz-adv-x="581" 
d="M374 0v404h-112q0 -82 -4 -142t-11 -105t-22 -74t-31 -47t-43 -27t-53.5 -12t-67.5 -3v98q25 0 38 9t26 46.5t18 122.5t5 230h417v-500h-160z" />
    <glyph glyph-name="afii10078" unicode="&#x43c;" horiz-adv-x="764" 
d="M47 0v500h232l102 -327l103 327h233v-500h-152v344l-117 -344h-133l-116 344v-344h-152z" />
    <glyph glyph-name="afii10079" unicode="&#x43d;" horiz-adv-x="572" 
d="M365 0v207h-158v-207h-160v500h160v-197h158v197h160v-500h-160z" />
    <glyph glyph-name="afii10080" unicode="&#x43e;" 
d="M30 250q0 119 71 187.5t187 68.5t187 -68.5t71 -187.5t-71 -187.5t-187 -68.5t-187 68.5t-71 187.5zM190 250q0 -77 26 -117.5t72 -40.5t72 40.5t26 117.5t-26 117.5t-72 40.5t-72 -40.5t-26 -117.5z" />
    <glyph glyph-name="afii10081" unicode="&#x43f;" horiz-adv-x="577" 
d="M370 0v404h-163v-404h-160v500h483v-500h-160z" />
    <glyph glyph-name="afii10082" unicode="&#x440;" horiz-adv-x="578" 
d="M47 -215v715h148l12 -57q48 63 127 63q96 0 155 -68.5t59 -187.5t-59 -187.5t-155 -68.5q-79 0 -127 48v-257h-160zM207 250q0 -77 23.5 -117.5t65.5 -40.5q43 0 67.5 40.5t24.5 117.5t-24.5 117.5t-67.5 40.5q-42 0 -65.5 -40.5t-23.5 -117.5z" />
    <glyph glyph-name="afii10083" unicode="&#x441;" horiz-adv-x="545" 
d="M286 408q-45 0 -70.5 -40.5t-25.5 -117.5t25.5 -117.5t70.5 -40.5q32 0 50.5 24.5t18.5 69.5h156q0 -89 -61.5 -140.5t-161.5 -51.5q-116 0 -187 68.5t-71 187.5t71 187.5t187 68.5q100 0 161.5 -51.5t61.5 -140.5h-156q0 45 -18.5 69.5t-50.5 24.5z" />
    <glyph glyph-name="afii10084" unicode="&#x442;" horiz-adv-x="542" 
d="M30 404v96h482v-96h-161v-404h-160v404h-161z" />
    <glyph glyph-name="afii10085" unicode="&#x443;" horiz-adv-x="554" 
d="M543 500l-198 -556q-29 -85 -96 -125t-186 -40v98q50 0 86.5 17.5t47.5 49.5l21 56h-32l-175 500h162l103 -366l104 366h163z" />
    <glyph glyph-name="afii10086" unicode="&#x444;" horiz-adv-x="800" 
d="M322 -215v209q-132 0 -212 68.5t-80 187.5t80 187.5t212 68.5v219h156v-219q132 0 212 -68.5t80 -187.5t-80 -187.5t-212 -68.5v-209h-156zM478 408v-316q62 0 97 40.5t35 117.5t-35 117.5t-97 40.5zM322 92v316q-62 0 -97 -40.5t-35 -117.5t35 -117.5t97 -40.5z" />
    <glyph glyph-name="afii10087" unicode="&#x445;" horiz-adv-x="558" 
d="M13 0l178 254l-171 246h174l85 -152l84 152h176l-174 -245l180 -255h-175l-91 161l-91 -161h-175z" />
    <glyph glyph-name="afii10088" unicode="&#x446;" horiz-adv-x="648" 
d="M47 0v500h160v-404h162v404h160v-404h97v-246h-144v150h-435z" />
    <glyph glyph-name="afii10089" unicode="&#x447;" horiz-adv-x="559" 
d="M352 358v142h160v-500h-160v204q-50 -50 -130 -50q-79 0 -128 44.5t-49 121.5v180h161v-180q0 -32 16.5 -50t46.5 -18q39 0 61 27.5t22 78.5z" />
    <glyph glyph-name="afii10090" unicode="&#x448;" horiz-adv-x="822" 
d="M47 0v500h160v-404h125v404h160v-404h125v404h160v-500h-730z" />
    <glyph glyph-name="afii10091" unicode="&#x449;" horiz-adv-x="896" 
d="M47 0v500h160v-404h125v404h160v-404h125v404h160v-404h97v-246h-144v150h-683z" />
    <glyph glyph-name="afii10092" unicode="&#x44a;" horiz-adv-x="656" 
d="M22 404v96h311v-170h74q98 0 158.5 -44.5t60.5 -121.5q0 -76 -60.5 -120t-158.5 -44h-234v404h-151zM333 96h58q37 0 58 17.5t21 50.5q0 34 -21 52t-58 18h-58v-138z" />
    <glyph glyph-name="afii10093" unicode="&#x44b;" horiz-adv-x="751" 
d="M47 0v500h160v-170h74q98 0 158.5 -44.5t60.5 -121.5q0 -76 -60.5 -120t-158.5 -44h-234zM207 96h58q37 0 58 17.5t21 50.5q0 34 -21 52t-58 18h-58v-138zM544 0v500h160v-500h-160z" />
    <glyph glyph-name="afii10094" unicode="&#x44c;" horiz-adv-x="530" 
d="M47 0v500h160v-170h74q98 0 158.5 -44.5t60.5 -121.5q0 -76 -60.5 -120t-158.5 -44h-234zM207 96h58q37 0 58 17.5t21 50.5q0 34 -21 52t-58 18h-58v-138z" />
    <glyph glyph-name="afii10095" unicode="&#x44d;" horiz-adv-x="549" 
d="M259 408q-31 0 -49.5 -20.5t-18.5 -57.5h-155q0 81 61.5 128.5t161.5 47.5q116 0 187 -68.5t71 -187.5t-71 -187.5t-187 -68.5q-100 0 -161.5 47.5t-61.5 128.5h155q0 -37 18.5 -57.5t49.5 -20.5q41 0 68 30t27 85h-141v92h140q-1 51 -27.5 80t-66.5 29z" />
    <glyph glyph-name="afii10096" unicode="&#x44e;" horiz-adv-x="795" 
d="M207 500v-197h72q14 96 78.5 149.5t162.5 53.5q110 0 177.5 -68.5t67.5 -187.5t-67.5 -187.5t-177.5 -68.5q-100 0 -165 56t-78 157h-70v-207h-160v500h160zM435 250q0 -77 22.5 -117.5t62.5 -40.5t62.5 40.5t22.5 117.5t-22.5 117.5t-62.5 40.5t-62.5 -40.5
t-22.5 -117.5z" />
    <glyph glyph-name="afii10097" unicode="&#x44f;" horiz-adv-x="543" 
d="M21 0l125 194q-112 39 -112 145q0 75 59.5 118t157.5 43h245v-500h-160v178h-42l-111 -178h-162zM336 404h-69q-77 0 -77 -65t77 -65h69v130z" />
    <glyph glyph-name="uni0450" unicode="&#x450;" horiz-adv-x="554" 
d="M288 506q113 0 178 -75.5t51 -219.5h-325q0 -56 26 -87.5t68 -31.5q35 0 56 19.5t21 52.5h154q0 -79 -63 -124.5t-166 -45.5q-116 0 -187 68.5t-71 187.5t70.5 187.5t187.5 68.5zM286 408q-40 0 -66.5 -29.5t-26.5 -79.5h168q0 52 -21 80.5t-54 28.5zM303 700l95 -145
h-102l-140 145h147z" />
    <glyph glyph-name="afii10071" unicode="&#x451;" horiz-adv-x="554" 
d="M288 506q113 0 178 -75.5t51 -219.5h-325q0 -56 26 -87.5t68 -31.5q35 0 56 19.5t21 52.5h154q0 -79 -63 -124.5t-166 -45.5q-116 0 -187 68.5t-71 187.5t70.5 187.5t187.5 68.5zM286 408q-40 0 -66.5 -29.5t-26.5 -79.5h168q0 52 -21 80.5t-54 28.5zM102 566v116h132
v-116h-132zM332 566v116h132v-116h-132z" />
    <glyph glyph-name="afii10099" unicode="&#x452;" horiz-adv-x="604" 
d="M82 0v565h-63v96h63v64h160v-64h131v-96h-131v-114q49 55 131 55q83 0 134 -48t51 -130v-391q0 -87 -55.5 -125.5t-186.5 -38.5v98q82 0 82 54v403q0 38 -18 59t-50 21q-41 0 -64.5 -40.5t-23.5 -117.5v-250h-160z" />
    <glyph glyph-name="afii10100" unicode="&#x453;" horiz-adv-x="439" 
d="M98 555l95 145h147l-140 -145h-102zM409 500v-96h-202v-404h-160v500h362z" />
    <glyph glyph-name="afii10101" unicode="&#x454;" horiz-adv-x="549" 
d="M288 408q-40 0 -67 -29t-28 -80h178v-92h-179q1 -54 28 -84.5t68 -30.5q31 0 49 20.5t18 57.5h156q0 -81 -61.5 -128.5t-161.5 -47.5q-116 0 -187 68.5t-71 187.5t71 187.5t187 68.5q100 0 161.5 -47.5t61.5 -128.5h-156q0 37 -18 57.5t-49 20.5z" />
    <glyph glyph-name="afii10102" unicode="&#x455;" horiz-adv-x="522" 
d="M29 166h155q0 -36 19 -55t53 -19q33 0 52 13.5t19 39.5q0 25 -29.5 38t-72 21t-85 20t-72 45t-29.5 86q0 71 61.5 111t162.5 40q92 0 150 -44t58 -118h-147q0 30 -17.5 47t-47.5 17q-27 0 -43.5 -14t-16.5 -39q0 -24 29.5 -37t72 -20.5t85 -20.5t72 -47t29.5 -89
q0 -69 -64.5 -108t-170.5 -39q-100 0 -161.5 46.5t-61.5 125.5z" />
    <glyph glyph-name="afii10103" unicode="&#x456;" horiz-adv-x="254" 
d="M47 570v130h160v-130h-160zM47 0v500h160v-500h-160z" />
    <glyph glyph-name="afii10104" unicode="&#x457;" horiz-adv-x="254" 
d="M-53 566v116h132v-116h-132zM177 566v116h132v-116h-132zM47 0v500h160v-500h-160z" />
    <glyph glyph-name="afii10105" unicode="&#x458;" horiz-adv-x="254" 
d="M47 570v130h160v-130h-160zM207 500v-540q0 -92 -53.5 -136.5t-168.5 -44.5v98q62 0 62 67v556h160z" />
    <glyph glyph-name="afii10106" unicode="&#x459;" horiz-adv-x="857" 
d="M374 0v404h-112q0 -82 -4 -142t-11 -105t-22 -74t-31 -47t-43 -27t-53.5 -12t-67.5 -3v98q25 0 38 9t26 46.5t18 122.5t5 230h417v-170h74q98 0 158.5 -44.5t60.5 -121.5q0 -76 -60.5 -120t-158.5 -44h-234zM534 96h58q37 0 58 17.5t21 50.5q0 34 -21 52t-58 18h-58v-138
z" />
    <glyph glyph-name="afii10107" unicode="&#x45a;" horiz-adv-x="838" 
d="M360 0v221h-153v-221h-160v500h160v-183h153v183h160v-181h74q96 0 155 -42.5t59 -117.5q0 -74 -59 -116.5t-155 -42.5h-234zM520 96h58q35 0 54.5 16.5t19.5 46.5q0 31 -19.5 47.5t-54.5 16.5h-58v-127z" />
    <glyph glyph-name="afii10108" unicode="&#x45b;" horiz-adv-x="604" 
d="M19 565v96h63v64h160v-64h131v-96h-131v-114q49 55 131 55q83 0 134 -48t51 -130v-328h-160v328q0 38 -18 59t-50 21q-41 0 -64.5 -40.5t-23.5 -117.5v-250h-160v565h-63z" />
    <glyph glyph-name="afii10109" unicode="&#x45c;" horiz-adv-x="572" 
d="M164 555l95 145h147l-140 -145h-102zM388 0l-121 191l-60 -65v-126h-160v500h160v-189l150 189h179l-175 -210l196 -290h-169z" />
    <glyph glyph-name="uni045D" unicode="&#x45d;" horiz-adv-x="584" 
d="M318 700l95 -145h-102l-140 145h147zM381 0v277l-186 -277h-148v500h156v-277l186 277h148v-500h-156z" />
    <glyph glyph-name="afii10110" unicode="&#x45e;" horiz-adv-x="554" 
d="M543 500l-198 -556q-29 -85 -96 -125t-186 -40v98q50 0 86.5 17.5t47.5 49.5l21 56h-32l-175 500h162l103 -366l104 366h163zM92 694h110q0 -33 20.5 -52.5t53.5 -19.5q34 0 54 19t20 53h111q0 -70 -50.5 -109.5t-134.5 -39.5q-83 0 -133.5 40t-50.5 109z" />
    <glyph glyph-name="afii10193" unicode="&#x45f;" horiz-adv-x="578" 
d="M47 0v500h160v-404h164v404h160v-500h-170v-150h-144v150h-170z" />
    <glyph glyph-name="afii10050" unicode="&#x490;" horiz-adv-x="519" 
d="M59 0v700h292v132h138v-240h-262v-592h-168z" />
    <glyph glyph-name="afii10098" unicode="&#x491;" horiz-adv-x="424" 
d="M47 0v500h218v120h120v-216h-178v-404h-160z" />
    <glyph glyph-name="uni04D8" unicode="&#x4d8;" horiz-adv-x="698" 
d="M34 350q0 24 5 56h458q-9 92 -51 141t-109 49q-64 0 -99 -32t-35 -92h-164q0 109 80.5 171.5t212.5 62.5q152 0 244 -95t92 -261t-90.5 -261t-238.5 -95q-155 0 -230 92t-75 264zM344 104q65 0 105 50t48 144h-299v-10q0 -184 146 -184z" />
    <glyph glyph-name="afii10846" unicode="&#x4d9;" horiz-adv-x="554" 
d="M267 -6q-113 0 -178 77t-51 224h325q0 53 -27 83t-69 30q-33 0 -54 -18t-21 -48h-154q0 76 63 120t166 44q116 0 187 -68.5t71 -187.5t-70.5 -187.5t-187.5 -68.5zM273 92q38 0 64 31.5t26 83.5h-169q0 -54 22.5 -84.5t56.5 -30.5z" />
    <glyph glyph-name="Wgrave" unicode="&#x1e80;" horiz-adv-x="1034" 
d="M637 0l-120 494l-119 -494h-192l-190 700h172l115 -541l131 541h168l130 -541l114 541h173l-190 -700h-192zM532 900l95 -145h-102l-140 145h147z" />
    <glyph glyph-name="wgrave" unicode="&#x1e81;" horiz-adv-x="834" 
d="M496 0l-79 306l-80 -306h-178l-148 500h164l75 -359l89 359h156l88 -359l76 359h164l-148 -500h-179zM433 700l95 -145h-102l-140 145h147z" />
    <glyph glyph-name="Wacute" unicode="&#x1e82;" horiz-adv-x="1034" 
d="M637 0l-120 494l-119 -494h-192l-190 700h172l115 -541l131 541h168l130 -541l114 541h173l-190 -700h-192zM405 755l95 145h147l-140 -145h-102z" />
    <glyph glyph-name="wacute" unicode="&#x1e83;" horiz-adv-x="834" 
d="M496 0l-79 306l-80 -306h-178l-148 500h164l75 -359l89 359h156l88 -359l76 359h164l-148 -500h-179zM306 555l95 145h147l-140 -145h-102z" />
    <glyph glyph-name="Wdieresis" unicode="&#x1e84;" horiz-adv-x="1034" 
d="M637 0l-120 494l-119 -494h-192l-190 700h172l115 -541l131 541h168l130 -541l114 541h173l-190 -700h-192zM336 766v116h132v-116h-132zM566 766v116h132v-116h-132z" />
    <glyph glyph-name="wdieresis" unicode="&#x1e85;" horiz-adv-x="834" 
d="M496 0l-79 306l-80 -306h-178l-148 500h164l75 -359l89 359h156l88 -359l76 359h164l-148 -500h-179zM236 566v116h132v-116h-132zM466 566v116h132v-116h-132z" />
    <glyph glyph-name="Ygrave" unicode="&#x1ef2;" horiz-adv-x="689" 
d="M261 0v243l-239 457h180l143 -318l144 318h179l-239 -457v-243h-168zM360 900l95 -145h-102l-140 145h147z" />
    <glyph glyph-name="ygrave" unicode="&#x1ef3;" horiz-adv-x="554" 
d="M543 500l-198 -556q-29 -85 -96 -125t-186 -40v98q50 0 86.5 17.5t47.5 49.5l21 56h-32l-175 500h162l103 -366l104 366h163zM293 700l95 -145h-102l-140 145h147z" />
    <glyph glyph-name="figuredash" unicode="&#x2012;" horiz-adv-x="542" 
d="M42 304v92h458v-92h-458z" />
    <glyph glyph-name="endash" unicode="&#x2013;" horiz-adv-x="532" 
d="M42 229v92h448v-92h-448z" />
    <glyph glyph-name="emdash" unicode="&#x2014;" horiz-adv-x="792" 
d="M42 229v92h708v-92h-708z" />
    <glyph glyph-name="quoteleft" unicode="&#x2018;" horiz-adv-x="240" 
d="M197 537v-143h-153v143q0 75 42 122t111 47v-84q-23 0 -39.5 -23.5t-16.5 -61.5h56z" />
    <glyph glyph-name="quoteright" unicode="&#x2019;" horiz-adv-x="240" 
d="M44 557v143h153v-143q0 -75 -42 -122t-111 -47v84q23 0 39 23.5t16 61.5h-55z" />
    <glyph glyph-name="quotesinglbase" unicode="&#x201a;" horiz-adv-x="240" 
d="M44 0v143h153v-143q0 -75 -42 -122t-111 -47v84q23 0 39 23.5t16 61.5h-55z" />
    <glyph glyph-name="quotedblleft" unicode="&#x201c;" horiz-adv-x="432" 
d="M197 537v-143h-153v143q0 75 42 122t111 47v-84q-23 0 -39.5 -23.5t-16.5 -61.5h56zM389 537v-143h-153v143q0 75 42 122t111 47v-84q-23 0 -39.5 -23.5t-16.5 -61.5h56z" />
    <glyph glyph-name="quotedblright" unicode="&#x201d;" horiz-adv-x="432" 
d="M44 557v143h153v-143q0 -75 -42 -122t-111 -47v84q23 0 39 23.5t16 61.5h-55zM236 557v143h153v-143q0 -75 -42 -122t-111 -47v84q23 0 39 23.5t16 61.5h-55z" />
    <glyph glyph-name="quotedblbase" unicode="&#x201e;" horiz-adv-x="432" 
d="M44 0v143h153v-143q0 -75 -42 -122t-111 -47v84q23 0 39 23.5t16 61.5h-55zM236 0v143h153v-143q0 -75 -42 -122t-111 -47v84q23 0 39 23.5t16 61.5h-55z" />
    <glyph glyph-name="dagger" unicode="&#x2020;" horiz-adv-x="526" 
d="M26 424v96h167v180h140v-180h167v-96h-167v-524h-140v524h-167z" />
    <glyph glyph-name="daggerdbl" unicode="&#x2021;" horiz-adv-x="526" 
d="M500 176v-96h-167v-180h-140v180h-167v96h167v248h-167v96h167v180h140v-180h167v-96h-167v-248h167z" />
    <glyph glyph-name="bullet" unicode="&#x2022;" horiz-adv-x="306" 
d="M30 325q0 54 34 86t89 32q56 0 89.5 -32t33.5 -86t-33.5 -85t-89.5 -31q-55 0 -89 31.5t-34 84.5z" />
    <glyph glyph-name="ellipsis" unicode="&#x2026;" horiz-adv-x="678" 
d="M43 0v143h153v-143h-153zM262 0v143h153v-143h-153zM481 0v143h153v-143h-153z" />
    <glyph glyph-name="perthousand" unicode="&#x2030;" horiz-adv-x="1072" 
d="M122 0l392 700h116l-392 -700h-116zM31 558q0 68 42 108t111 40t111 -40t42 -108t-41.5 -107t-111.5 -39q-69 0 -111 39t-42 107zM120 558q0 -31 17 -49t47 -18q28 0 45.5 18t17.5 49q0 30 -17.5 48t-45.5 18q-30 0 -47 -17.5t-17 -48.5zM397 140q0 68 42 108t111 40
t111 -40t42 -108t-41.5 -107t-111.5 -39q-69 0 -111 39t-42 107zM486 140q0 -31 17.5 -49t46.5 -18q28 0 45.5 18.5t17.5 48.5t-17.5 48.5t-45.5 18.5q-29 0 -46.5 -18t-17.5 -49zM735 140q0 68 42 108t111 40t111 -40t42 -108t-41.5 -107t-111.5 -39q-69 0 -111 39t-42 107
zM824 140q0 -31 17.5 -49t46.5 -18q28 0 45.5 18.5t17.5 48.5t-17.5 48.5t-45.5 18.5q-29 0 -46.5 -18t-17.5 -49z" />
    <glyph glyph-name="guilsinglleft" unicode="&#x2039;" horiz-adv-x="273" 
d="M34 320l199 170v-143l-91 -73l91 -72v-142l-199 169v91z" />
    <glyph glyph-name="guilsinglright" unicode="&#x203a;" horiz-adv-x="273" 
d="M239 229l-199 -169v142l91 73l-91 72v143l199 -170v-91z" />
    <glyph glyph-name="fraction" unicode="&#x2044;" horiz-adv-x="517" 
d="M25 0l350 700h117l-350 -700h-117z" />
    <glyph glyph-name="Euro" unicode="&#x20ac;" horiz-adv-x="756" 
d="M30 383v88h72q31 111 117 173t208 62q132 0 212.5 -67t80.5 -183h-163q0 68 -35 104t-99 36q-55 0 -94.5 -32t-58.5 -93h187v-88h-201q-1 -11 -1 -33t1 -32h201v-88h-187q38 -126 153 -126q64 0 99 36t35 104h163q0 -116 -80.5 -183t-212.5 -67q-122 0 -208 62t-117 174
h-72v88h58q-1 10 -1 32t1 33h-58z" />
    <glyph glyph-name="uni20B4" unicode="&#x20b4;" horiz-adv-x="577" 
d="M32 245v84h511v-84h-319q-27 -32 -27 -71q0 -33 22 -53.5t61 -20.5q56 0 87 25.5t31 72.5h155q0 -96 -74.5 -150t-203.5 -54q-109 0 -176 42.5t-67 123.5q0 46 26 85h-26zM32 381v84h311q29 27 29 64q0 30 -21 50.5t-56 20.5q-47 0 -73.5 -22.5t-26.5 -62.5h-156
q0 88 70 139.5t190 51.5q106 0 171.5 -43.5t65.5 -119.5q0 -45 -28 -78h35v-84h-511z" />
    <glyph glyph-name="afii61352" unicode="&#x2116;" horiz-adv-x="1058" 
d="M218 443v-443h-159v700h160l283 -443v443h160v-700h-160zM722 558q0 68 42 108t111 40t111 -40t42 -108t-41.5 -107t-111.5 -39q-69 0 -111 39t-42 107zM811 558q0 -31 17.5 -49t46.5 -18q28 0 45.5 18t17.5 49q0 30 -17.5 48t-45.5 18q-29 0 -46.5 -17.5t-17.5 -48.5z
M731 262v92h288v-92h-288z" />
    <glyph glyph-name="trademark" unicode="&#x2122;" horiz-adv-x="825" 
d="M18 638v62h299v-62h-100v-288h-98v288h-101zM353 350v350h152l67 -239l68 239h152v-350h-93v252l-78 -252h-98l-76 252v-252h-94z" />
    <glyph glyph-name="arrowleft" unicode="&#x2190;" horiz-adv-x="1055" 
d="M394 -3l-354 354l354 353l70 -70l-234 -233h764v-100h-764l234 -234z" />
    <glyph glyph-name="arrowup" unicode="&#x2191;" horiz-adv-x="786" 
d="M344 -199v764l-234 -234l-70 70l354 354l353 -354l-70 -70l-233 234v-764h-100z" />
    <glyph glyph-name="arrowright" unicode="&#x2192;" horiz-adv-x="1055" 
d="M62 301v100h763l-233 233l70 70l354 -353l-354 -354l-71 70l234 234h-763z" />
    <glyph glyph-name="arrowdown" unicode="&#x2193;" horiz-adv-x="786" 
d="M394 -204l-354 354l70 71l234 -234v763h100v-763l233 233l70 -70z" />
    <glyph glyph-name="uni2196" unicode="&#x2196;" horiz-adv-x="811" 
d="M62 200v500h500v-100h-330l539 -539l-71 -71l-538 540v-330h-100z" />
    <glyph glyph-name="uni2197" unicode="&#x2197;" horiz-adv-x="811" 
d="M249 600v100h500v-500h-100v330l-539 -540l-70 71l539 539h-330z" />
    <glyph glyph-name="uni2198" unicode="&#x2198;" horiz-adv-x="811" 
d="M249 0v100h330l-539 539l70 71l539 -540v330h100v-500h-500z" />
    <glyph glyph-name="uni2199" unicode="&#x2199;" horiz-adv-x="811" 
d="M62 0v500h100v-330l538 540l71 -71l-539 -539h330v-100h-500z" />
    <glyph glyph-name="minus" unicode="&#x2212;" horiz-adv-x="482" 
d="M42 304v92h398v-92h-398z" />
    <glyph glyph-name="commaaccent" unicode="&#xf6c3;" horiz-adv-x="240" 
d="M72 -133v83h96v-83q0 -45 -26.5 -72.5t-69.5 -27.5v48q15 0 25.5 14.5t10.5 37.5h-36z" />
    <glyph glyph-name="dollaroldstyle" unicode="&#xf724;" horiz-adv-x="492" 
d="M187 -72v71q-76 11 -118.5 53.5t-42.5 108.5h131q0 -77 83 -77q39 0 62 16t23 43q0 26 -21.5 41t-53.5 20t-69 14t-69 20.5t-53.5 42t-21.5 77.5q0 58 40 96t110 50v72h115v-72q68 -13 106 -52.5t38 -98.5h-131q0 32 -17.5 49.5t-49.5 17.5q-34 0 -54 -18t-20 -42
t21.5 -38.5t53.5 -19.5t69.5 -14.5t69.5 -22t53.5 -42.5t21.5 -76q0 -62 -43.5 -99.5t-117.5 -48.5v-71h-115z" />
    <glyph glyph-name="zerooldstyle" unicode="&#xf730;" horiz-adv-x="560" 
d="M30 250q0 119 68.5 187.5t181.5 68.5t181.5 -68.5t68.5 -187.5t-68.5 -187.5t-181.5 -68.5t-181.5 68.5t-68.5 187.5zM190 250q0 -77 23.5 -117.5t66.5 -40.5t66.5 40.5t23.5 117.5t-23.5 117.5t-66.5 40.5t-66.5 -40.5t-23.5 -117.5z" />
    <glyph glyph-name="oneoldstyle" unicode="&#xf731;" horiz-adv-x="371" 
d="M27 335v84q83 0 113.5 17t30.5 64h140v-500h-160v335h-124z" />
    <glyph glyph-name="twooldstyle" unicode="&#xf732;" horiz-adv-x="495" 
d="M33 0v96q17 32 64 67.5t91 60.5t79 58.5t35 64.5q0 29 -16 45t-43 16q-29 0 -45.5 -17t-16.5 -47h-147q0 74 57 118t149 44q100 0 161 -42.5t61 -116.5q0 -48 -33 -90.5t-73 -67l-80.5 -51t-50.5 -42.5h233v-96h-425z" />
    <glyph glyph-name="threeoldstyle" unicode="&#xf733;" horiz-adv-x="569" 
d="M217 126v96h30q50 0 78 24t28 67t-21 69t-56 26q-81 0 -81 -104h-156q0 94 65.5 148t173.5 54q111 0 172.5 -46.5t61.5 -131.5q0 -103 -98 -150q58 -24 91 -71.5t33 -114.5q0 -100 -63 -155t-183 -55q-115 0 -184 56.5t-69 158.5h156q0 -56 25 -86.5t72 -30.5
q40 0 63 33.5t23 93.5q0 55 -28.5 87t-80.5 32h-52z" />
    <glyph glyph-name="fouroldstyle" unicode="&#xf734;" horiz-adv-x="572" 
d="M346 -215v215h-317v108l270 392h195v-392h47v-108h-47v-215h-148zM175 108h171v262z" />
    <glyph glyph-name="fiveoldstyle" unicode="&#xf735;" horiz-adv-x="567" 
d="M45 109l42 391h402v-100h-265l-19 -166q46 27 102 27q102 0 164.5 -65.5t62.5 -178.5t-63.5 -175.5t-182.5 -62.5q-114 0 -183.5 58.5t-69.5 159.5h152q0 -55 26 -85.5t73 -30.5q43 0 67.5 36t24.5 100q0 71 -27.5 110.5t-75.5 39.5q-70 0 -86 -58h-144z" />
    <glyph glyph-name="sixoldstyle" unicode="&#xf736;" horiz-adv-x="575" 
d="M544 231q0 -110 -69.5 -173.5t-182.5 -63.5q-130 0 -195.5 93.5t-65.5 265.5q0 175 71.5 276.5t186.5 101.5q102 0 164.5 -50t62.5 -138h-151q0 44 -20.5 67t-57.5 23q-46 0 -78 -57t-33 -168q66 61 150 61q98 0 158 -63.5t60 -174.5zM197 229q0 -67 25 -102t69 -35
q46 0 71.5 35t25.5 102t-25.5 102.5t-71.5 35.5q-44 0 -69 -35.5t-25 -102.5z" />
    <glyph glyph-name="sevenoldstyle" unicode="&#xf737;" horiz-adv-x="495" 
d="M29 400v100h435v-100l-208 -615h-156l208 615h-279z" />
    <glyph glyph-name="eightoldstyle" unicode="&#xf738;" horiz-adv-x="584" 
d="M57 550q0 84 64.5 132.5t170.5 48.5t170.5 -48.5t64.5 -132.5q0 -55 -29 -95.5t-80 -61.5q64 -24 100 -72.5t36 -117.5q0 -97 -72 -153t-190 -56t-190 56t-72 153q0 68 35.5 117t99.5 73q-108 44 -108 157zM190 217q0 -61 27 -93t75 -32q49 0 76 32t27 93t-27 93t-76 32
q-48 0 -75 -32t-27 -93zM213 536q0 -47 21 -72.5t58 -25.5t58 25.5t21 72.5t-21 72t-58 25t-58 -25t-21 -72z" />
    <glyph glyph-name="nineoldstyle" unicode="&#xf739;" 
d="M31 280q0 105 69.5 165.5t183.5 60.5q130 0 195.5 -93.5t65.5 -267.5q0 -170 -72 -268t-191 -98q-110 0 -176.5 56t-66.5 152h155q0 -53 23 -81.5t65 -28.5q112 0 108 235q-60 -58 -141 -58q-99 0 -158.5 60.5t-59.5 165.5zM375 280q0 63 -24 95.5t-67 32.5
q-44 0 -68.5 -32.5t-24.5 -95.5t24.5 -95.5t68.5 -32.5q43 0 67 32.5t24 95.5z" />
    <glyph glyph-name="T_h" horiz-adv-x="1121" 
d="M759 250v-250h-160v592h-197v-592h-168v592h-206v108h571v25h160v-274q49 55 131 55q83 0 134 -48t51 -130v-328h-160v328q0 38 -18.5 59t-50.5 21q-41 0 -64 -40.5t-23 -117.5z" />
    <glyph glyph-name="T_h.caron" horiz-adv-x="1121" 
d="M759 250v-250h-160v592h-197v-592h-168v592h-206v108h571v25h160v-274q49 55 131 55q83 0 134 -48t51 -130v-328h-160v328q0 38 -18.5 59t-50.5 21q-41 0 -64 -40.5t-23 -117.5zM256 755l-111 145h118l55 -85l54 85h119l-112 -145h-123z" />
    <glyph glyph-name="T_h.commaaccent" horiz-adv-x="1121" 
d="M759 250v-250h-160v592h-197v-592h-168v592h-206v108h571v25h160v-274q49 55 131 55q83 0 134 -48t51 -130v-328h-160v328q0 38 -18.5 59t-50.5 21q-41 0 -64 -40.5t-23 -117.5zM269 -133v83h96v-83q0 -45 -26.5 -72.5t-69.5 -27.5v48q15 0 25.5 14.5t10.5 37.5h-36z" />
    <glyph glyph-name="A.smcp" horiz-adv-x="583" 
d="M20 0l181 525h183l180 -525h-158l-32 94h-165l-31 -94h-158zM293 400l-60 -204h119z" />
    <glyph glyph-name="Aacute.smcp" horiz-adv-x="583" 
d="M20 0l181 525h183l180 -525h-158l-32 94h-165l-31 -94h-158zM293 400l-60 -204h119zM178 555l95 145h147l-140 -145h-102z" />
    <glyph glyph-name="Abreve.smcp" horiz-adv-x="583" 
d="M20 0l181 525h183l180 -525h-158l-32 94h-165l-31 -94h-158zM293 400l-60 -204h119zM106 696h110q0 -33 20.5 -52.5t53.5 -19.5q34 0 54 19t20 53h111q0 -70 -50.5 -109.5t-134.5 -39.5q-83 0 -133.5 40t-50.5 109z" />
    <glyph glyph-name="Acircumflex.smcp" horiz-adv-x="583" 
d="M20 0l181 525h183l180 -525h-158l-32 94h-165l-31 -94h-158zM293 400l-60 -204h119zM352 700l112 -145h-119l-55 85l-54 -85h-118l111 145h123z" />
    <glyph glyph-name="Agrave.smcp" horiz-adv-x="583" 
d="M20 0l181 525h183l180 -525h-158l-32 94h-165l-31 -94h-158zM293 400l-60 -204h119zM309 700l95 -145h-102l-140 145h147z" />
    <glyph glyph-name="Adieresis.smcp" horiz-adv-x="583" 
d="M20 0l181 525h183l180 -525h-158l-32 94h-165l-31 -94h-158zM293 400l-60 -204h119zM110 566v116h132v-116h-132zM340 566v116h132v-116h-132z" />
    <glyph glyph-name="Amacron.smcp" horiz-adv-x="583" 
d="M20 0l181 525h183l180 -525h-158l-32 94h-165l-31 -94h-158zM293 400l-60 -204h119zM130 567v92h322v-92h-322z" />
    <glyph glyph-name="Aogonek.smcp" horiz-adv-x="583" 
d="M20 0l181 525h183l180 -525h-23q-45 -53 -45 -97q0 -14 9 -23t26 -9q26 0 50 19v-64q-33 -21 -70 -21q-46 0 -74 22.5t-28 66.5q0 59 44 106h-47l-32 94h-165l-31 -94h-158zM293 400l-60 -204h119z" />
    <glyph glyph-name="Aring.smcp" horiz-adv-x="583" 
d="M20 0l181 525h183l180 -525h-158l-32 94h-165l-31 -94h-158zM293 400l-60 -204h119zM184 631q0 48 29.5 75.5t78.5 27.5t78.5 -27.5t29.5 -75.5q0 -47 -29.5 -74t-78.5 -27t-78.5 27t-29.5 74zM252 631q0 -20 10.5 -31t29.5 -11q17 0 27 11.5t10 30.5t-10 30t-27 11
q-40 0 -40 -41z" />
    <glyph glyph-name="Atilde.smcp" horiz-adv-x="583" 
d="M20 0l181 525h183l180 -525h-158l-32 94h-165l-31 -94h-158zM293 400l-60 -204h119zM119 569q0 55 30 87.5t76 32.5q34 0 65 -23.5t47 -23.5q17 0 28 11t11 31h88q0 -55 -30.5 -87.5t-76.5 -32.5q-35 0 -65.5 22t-46.5 22q-17 0 -28 -10t-11 -29h-87z" />
    <glyph glyph-name="AE.smcp" horiz-adv-x="679" 
d="M304 0v94h-95l-31 -94h-158l181 525h443v-101h-191v-103h156v-102h-156v-118h195v-101h-344zM233 196h71v228h-6z" />
    <glyph glyph-name="AEacute.smcp" horiz-adv-x="679" 
d="M304 0v94h-95l-31 -94h-158l181 525h443v-101h-191v-103h156v-102h-156v-118h195v-101h-344zM233 196h71v228h-6zM211 555l95 145h147l-140 -145h-102z" />
    <glyph glyph-name="B.smcp" horiz-adv-x="546" 
d="M52 0v525h255q87 0 139.5 -36.5t52.5 -100.5q0 -76 -74 -113q94 -39 94 -129q0 -68 -54 -107t-143 -39h-270zM212 101h78q73 0 73 61q0 59 -73 59h-78v-120zM275 424h-63v-101h63q68 0 68 50q0 51 -68 51z" />
    <glyph glyph-name="C.smcp" horiz-adv-x="579" 
d="M300 427q-54 0 -83.5 -41.5t-29.5 -122.5q0 -82 29.5 -123.5t83.5 -41.5q92 0 92 92h155q0 -92 -66 -143.5t-176 -51.5q-126 0 -202 71.5t-76 196.5q0 124 76 195.5t202 71.5q110 0 176 -51.5t66 -143.5h-155q0 92 -92 92z" />
    <glyph glyph-name="Cacute.smcp" horiz-adv-x="579" 
d="M300 427q-54 0 -83.5 -41.5t-29.5 -122.5q0 -82 29.5 -123.5t83.5 -41.5q92 0 92 92h155q0 -92 -66 -143.5t-176 -51.5q-126 0 -202 71.5t-76 196.5q0 124 76 195.5t202 71.5q110 0 176 -51.5t66 -143.5h-155q0 92 -92 92zM185 555l95 145h147l-140 -145h-102z" />
    <glyph glyph-name="Ccaron.smcp" horiz-adv-x="579" 
d="M300 427q-54 0 -83.5 -41.5t-29.5 -122.5q0 -82 29.5 -123.5t83.5 -41.5q92 0 92 92h155q0 -92 -66 -143.5t-176 -51.5q-126 0 -202 71.5t-76 196.5q0 124 76 195.5t202 71.5q110 0 176 -51.5t66 -143.5h-155q0 92 -92 92zM236 555l-111 145h118l55 -85l54 85h119
l-112 -145h-123z" />
    <glyph glyph-name="Ccedilla.smcp" horiz-adv-x="579" 
d="M300 427q-54 0 -83.5 -41.5t-29.5 -122.5q0 -82 29.5 -123.5t83.5 -41.5q92 0 92 92h155q0 -83 -54.5 -133.5t-147.5 -59.5v-5q0 -14 9.5 -25t21 -18t21 -23t9.5 -39q0 -40 -27.5 -61t-73.5 -21q-37 0 -68 21v64q24 -19 49 -19q32 0 32 24q0 12 -15 23.5t-29.5 29.5
t-14.5 44v6q-107 12 -169.5 82t-62.5 183q0 124 76 195.5t202 71.5q110 0 176 -51.5t66 -143.5h-155q0 92 -92 92z" />
    <glyph glyph-name="Ccircumflex.smcp" horiz-adv-x="579" 
d="M300 427q-54 0 -83.5 -41.5t-29.5 -122.5q0 -82 29.5 -123.5t83.5 -41.5q92 0 92 92h155q0 -92 -66 -143.5t-176 -51.5q-126 0 -202 71.5t-76 196.5q0 124 76 195.5t202 71.5q110 0 176 -51.5t66 -143.5h-155q0 92 -92 92zM359 700l112 -145h-119l-55 85l-54 -85h-118
l111 145h123z" />
    <glyph glyph-name="Cdotaccent.smcp" horiz-adv-x="579" 
d="M300 427q-54 0 -83.5 -41.5t-29.5 -122.5q0 -82 29.5 -123.5t83.5 -41.5q92 0 92 92h155q0 -92 -66 -143.5t-176 -51.5q-126 0 -202 71.5t-76 196.5q0 124 76 195.5t202 71.5q110 0 176 -51.5t66 -143.5h-155q0 92 -92 92zM218 563v130h160v-130h-160z" />
    <glyph glyph-name="D.smcp" horiz-adv-x="582" 
d="M52 0v525h231q123 0 197 -70t74 -192q0 -123 -74 -193t-197 -70h-231zM212 101h56q127 0 127 162q0 161 -127 161h-56v-323z" />
    <glyph glyph-name="Dcaron.smcp" horiz-adv-x="582" 
d="M52 0v525h231q123 0 197 -70t74 -192q0 -123 -74 -193t-197 -70h-231zM212 101h56q127 0 127 162q0 161 -127 161h-56v-323zM213 555l-111 145h118l55 -85l54 85h119l-112 -145h-123z" />
    <glyph glyph-name="Dcroat.smcp" horiz-adv-x="600" 
d="M68 0v219h-44v89h44v217h232q123 0 197.5 -70t74.5 -192q0 -123 -74.5 -193t-197.5 -70h-232zM228 101h57q127 0 127 162q0 161 -127 161h-57v-116h83v-89h-83v-118z" />
    <glyph glyph-name="Eth.smcp" horiz-adv-x="600" 
d="M68 0v219h-44v89h44v217h232q123 0 197.5 -70t74.5 -192q0 -123 -74.5 -193t-197.5 -70h-232zM228 101h57q127 0 127 162q0 161 -127 161h-57v-116h83v-89h-83v-118z" />
    <glyph glyph-name="Thorn.smcp" horiz-adv-x="517" 
d="M52 0v510h160v-85h82q89 0 142.5 -43.5t53.5 -119.5q0 -75 -53.5 -117.5t-142.5 -42.5h-82v-102h-160zM262 323h-50v-120h50q73 0 73 59q0 61 -73 61z" />
    <glyph glyph-name="E.smcp" horiz-adv-x="486" 
d="M52 0v525h398v-101h-238v-103h204v-102h-204v-118h242v-101h-402z" />
    <glyph glyph-name="Eacute.smcp" horiz-adv-x="486" 
d="M52 0v525h398v-101h-238v-103h204v-102h-204v-118h242v-101h-402zM142 555l95 145h147l-140 -145h-102z" />
    <glyph glyph-name="Ebreve.smcp" horiz-adv-x="486" 
d="M52 0v525h398v-101h-238v-103h204v-102h-204v-118h242v-101h-402zM70 696h110q0 -33 20.5 -52.5t53.5 -19.5q34 0 54 19t20 53h111q0 -70 -50.5 -109.5t-134.5 -39.5q-83 0 -133.5 40t-50.5 109z" />
    <glyph glyph-name="Ecaron.smcp" horiz-adv-x="486" 
d="M52 0v525h398v-101h-238v-103h204v-102h-204v-118h242v-101h-402zM193 555l-111 145h118l55 -85l54 85h119l-112 -145h-123z" />
    <glyph glyph-name="Ecircumflex.smcp" horiz-adv-x="486" 
d="M52 0v525h398v-101h-238v-103h204v-102h-204v-118h242v-101h-402zM316 700l112 -145h-119l-55 85l-54 -85h-118l111 145h123z" />
    <glyph glyph-name="Edieresis.smcp" horiz-adv-x="486" 
d="M52 0v525h398v-101h-238v-103h204v-102h-204v-118h242v-101h-402zM74 566v116h132v-116h-132zM304 566v116h132v-116h-132z" />
    <glyph glyph-name="Edotaccent.smcp" horiz-adv-x="486" 
d="M52 0v525h398v-101h-238v-103h204v-102h-204v-118h242v-101h-402zM175 563v130h160v-130h-160z" />
    <glyph glyph-name="Egrave.smcp" horiz-adv-x="486" 
d="M52 0v525h398v-101h-238v-103h204v-102h-204v-118h242v-101h-402zM273 700l95 -145h-102l-140 145h147z" />
    <glyph glyph-name="Emacron.smcp" horiz-adv-x="486" 
d="M52 0v525h398v-101h-238v-103h204v-102h-204v-118h242v-101h-402zM94 567v92h322v-92h-322z" />
    <glyph glyph-name="Eogonek.smcp" horiz-adv-x="486" 
d="M52 0v525h398v-101h-238v-103h204v-102h-204v-118h242v-101h-23q-45 -53 -45 -97q0 -14 9 -23t26 -9q26 0 50 19v-64q-33 -21 -70 -21q-46 0 -74 22.5t-28 66.5q0 59 44 106h-291z" />
    <glyph glyph-name="F.smcp" horiz-adv-x="459" 
d="M391 321v-102h-179v-219h-160v525h376v-101h-216v-103h179z" />
    <glyph glyph-name="G.smcp" horiz-adv-x="579" 
d="M309 196v101h238v-297h-125l-11 22q-41 -27 -106 -27q-126 0 -202 71.5t-76 196.5q0 124 76 195.5t202 71.5q110 0 176 -49.5t66 -138.5h-155q0 85 -92 85q-54 0 -83.5 -41.5t-29.5 -122.5q0 -82 30.5 -123.5t86.5 -41.5q107 0 107 86v12h-102z" />
    <glyph glyph-name="Gbreve.smcp" horiz-adv-x="579" 
d="M309 196v101h238v-297h-125l-11 22q-41 -27 -106 -27q-126 0 -202 71.5t-76 196.5q0 124 76 195.5t202 71.5q110 0 176 -49.5t66 -138.5h-155q0 85 -92 85q-54 0 -83.5 -41.5t-29.5 -122.5q0 -82 30.5 -123.5t86.5 -41.5q107 0 107 86v12h-102zM120 696h110
q0 -33 20.5 -52.5t53.5 -19.5q34 0 54 19t20 53h111q0 -70 -50.5 -109.5t-134.5 -39.5q-83 0 -133.5 40t-50.5 109z" />
    <glyph glyph-name="Gcircumflex.smcp" horiz-adv-x="579" 
d="M309 196v101h238v-297h-125l-11 22q-41 -27 -106 -27q-126 0 -202 71.5t-76 196.5q0 124 76 195.5t202 71.5q110 0 176 -49.5t66 -138.5h-155q0 85 -92 85q-54 0 -83.5 -41.5t-29.5 -122.5q0 -82 30.5 -123.5t86.5 -41.5q107 0 107 86v12h-102zM366 700l112 -145h-119
l-55 85l-54 -85h-118l111 145h123z" />
    <glyph glyph-name="Gcommaaccent.smcp" horiz-adv-x="579" 
d="M309 196v101h238v-297h-125l-11 22q-41 -27 -106 -27q-126 0 -202 71.5t-76 196.5q0 124 76 195.5t202 71.5q110 0 176 -49.5t66 -138.5h-155q0 85 -92 85q-54 0 -83.5 -41.5t-29.5 -122.5q0 -82 30.5 -123.5t86.5 -41.5q107 0 107 86v12h-102zM257 -110v83h96v-83
q0 -45 -26.5 -72.5t-69.5 -27.5v48q15 0 25.5 14.5t10.5 37.5h-36z" />
    <glyph glyph-name="Gdotaccent.smcp" horiz-adv-x="579" 
d="M309 196v101h238v-297h-125l-11 22q-41 -27 -106 -27q-126 0 -202 71.5t-76 196.5q0 124 76 195.5t202 71.5q110 0 176 -49.5t66 -138.5h-155q0 85 -92 85q-54 0 -83.5 -41.5t-29.5 -122.5q0 -82 30.5 -123.5t86.5 -41.5q107 0 107 86v12h-102zM225 563v130h160v-130
h-160z" />
    <glyph glyph-name="H.smcp" horiz-adv-x="599" 
d="M387 0v219h-175v-219h-160v525h160v-204h175v204h160v-525h-160z" />
    <glyph glyph-name="Hbar.smcp" horiz-adv-x="615" 
d="M31 382v93h33v50h160v-50h167v50h160v-50h33v-93h-33v-382h-160v219h-167v-219h-160v382h-33zM224 321h167v61h-167v-61z" />
    <glyph glyph-name="Hcircumflex.smcp" horiz-adv-x="599" 
d="M387 0v219h-175v-219h-160v525h160v-204h175v204h160v-525h-160zM361 700l112 -145h-119l-55 85l-54 -85h-118l111 145h123z" />
    <glyph glyph-name="I.smcp" horiz-adv-x="262" 
d="M52 0v525h160v-525h-160z" />
    <glyph glyph-name="Iacute.smcp" horiz-adv-x="262" 
d="M52 0v525h160v-525h-160zM18 555l95 145h147l-140 -145h-102z" />
    <glyph glyph-name="Ibreve.smcp" horiz-adv-x="262" 
d="M52 0v525h160v-525h-160zM-53 696h110q0 -33 20.5 -52.5t53.5 -19.5q34 0 54 19t20 53h111q0 -70 -50.5 -109.5t-134.5 -39.5q-83 0 -133.5 40t-50.5 109z" />
    <glyph glyph-name="Icircumflex.smcp" horiz-adv-x="262" 
d="M52 0v525h160v-525h-160zM193 700l112 -145h-119l-55 85l-54 -85h-118l111 145h123z" />
    <glyph glyph-name="Idieresis.smcp" horiz-adv-x="262" 
d="M52 0v525h160v-525h-160zM-49 566v116h132v-116h-132zM181 566v116h132v-116h-132z" />
    <glyph glyph-name="Idotaccent.smcp" horiz-adv-x="262" 
d="M52 0v525h160v-525h-160zM51 563v130h160v-130h-160z" />
    <glyph glyph-name="Igrave.smcp" horiz-adv-x="262" 
d="M52 0v525h160v-525h-160zM149 700l95 -145h-102l-140 145h147z" />
    <glyph glyph-name="Imacron.smcp" horiz-adv-x="262" 
d="M52 0v525h160v-525h-160zM-29 567v92h322v-92h-322z" />
    <glyph glyph-name="Iogonek.smcp" horiz-adv-x="262" 
d="M52 0v525h160v-525h-23q-45 -53 -45 -97q0 -14 9 -23t26 -9q26 0 50 19v-64q-33 -21 -70 -21q-46 0 -74 22.5t-28 66.5q0 59 44 106h-49z" />
    <glyph glyph-name="Itilde.smcp" horiz-adv-x="262" 
d="M52 0v525h160v-525h-160zM-41 569q0 55 30 87.5t76 32.5q34 0 65 -23.5t47 -23.5q17 0 28 11t11 31h88q0 -55 -30.5 -87.5t-76.5 -32.5q-35 0 -65.5 22t-46.5 22q-17 0 -28 -10t-11 -29h-87z" />
    <glyph glyph-name="IJ.smcp" horiz-adv-x="529" 
d="M321 159v366h160v-366q0 -77 -59 -120.5t-156 -43.5t-155 43.5t-58 120.5v25h160v-25q0 -61 53 -61q55 0 55 61zM53 243v282h160v-282h-160z" />
    <glyph glyph-name="J.smcp" horiz-adv-x="514" 
d="M306 159v366h161v-366q0 -77 -59 -120.5t-156 -43.5t-155 43.5t-58 120.5v25h160v-25q0 -61 53 -61q54 0 54 61z" />
    <glyph glyph-name="Jcircumflex.smcp" horiz-adv-x="514" 
d="M306 159v366h161v-366q0 -77 -59 -120.5t-156 -43.5t-155 43.5t-58 120.5v25h160v-25q0 -61 53 -61q54 0 54 61zM448 700l112 -145h-119l-55 85l-54 -85h-118l111 145h123z" />
    <glyph glyph-name="K.smcp" 
d="M393 0l-131 202l-50 -53v-149h-160v525h160v-184l152 184h177l-188 -211l207 -314h-167z" />
    <glyph glyph-name="Kcommaaccent.smcp" 
d="M393 0l-131 202l-50 -53v-149h-160v525h160v-184l152 184h177l-188 -211l207 -314h-167zM240 -110v83h96v-83q0 -45 -26.5 -72.5t-69.5 -27.5v48q15 0 25.5 14.5t10.5 37.5h-36z" />
    <glyph glyph-name="L.smcp" horiz-adv-x="455" 
d="M427 101v-101h-375v525h160v-424h215z" />
    <glyph glyph-name="Lacute.smcp" horiz-adv-x="455" 
d="M427 101v-101h-375v525h160v-424h215zM93 555l95 145h147l-140 -145h-102z" />
    <glyph glyph-name="Lcaron.smcp" horiz-adv-x="455" 
d="M427 101v-101h-375v525h160v-424h215zM161 555l-111 145h118l55 -85l54 85h119l-112 -145h-123z" />
    <glyph glyph-name="Lcommaaccent.smcp" horiz-adv-x="455" 
d="M427 101v-101h-375v525h160v-424h215zM195 -110v83h96v-83q0 -45 -26.5 -72.5t-69.5 -27.5v48q15 0 25.5 14.5t10.5 37.5h-36z" />
    <glyph glyph-name="Ldot.smcp" horiz-adv-x="455" 
d="M427 101v-101h-375v525h160v-424h215zM308 245v112h122v-112h-122z" />
    <glyph glyph-name="Lslash.smcp" horiz-adv-x="470" 
d="M316 303l-89 -64v-138h215v-101h-375v117l-40 -26v112l40 26v296h160v-173l89 64v-113z" />
    <glyph glyph-name="M.smcp" horiz-adv-x="798" 
d="M52 0v525h246l100 -345l101 345h247v-525h-151v367l-117 -367h-160l-115 367v-367h-151z" />
    <glyph glyph-name="N.smcp" horiz-adv-x="600" 
d="M203 281v-281h-151v525h151l194 -281v281h152v-525h-152z" />
    <glyph glyph-name="Nacute.smcp" horiz-adv-x="600" 
d="M203 281v-281h-151v525h151l194 -281v281h152v-525h-152zM188 555l95 145h147l-140 -145h-102z" />
    <glyph glyph-name="Ncaron.smcp" horiz-adv-x="600" 
d="M203 281v-281h-151v525h151l194 -281v281h152v-525h-152zM239 555l-111 145h118l55 -85l54 85h119l-112 -145h-123z" />
    <glyph glyph-name="Ncommaaccent.smcp" horiz-adv-x="600" 
d="M203 281v-281h-151v525h151l194 -281v281h152v-525h-152zM252 -110v83h96v-83q0 -45 -26.5 -72.5t-69.5 -27.5v48q15 0 25.5 14.5t10.5 37.5h-36z" />
    <glyph glyph-name="Ntilde.smcp" horiz-adv-x="600" 
d="M203 281v-281h-151v525h151l194 -281v281h152v-525h-152zM127 569q0 55 30 87.5t76 32.5q34 0 65 -23.5t47 -23.5q17 0 28 11t11 31h88q0 -55 -30.5 -87.5t-76.5 -32.5q-35 0 -65.5 22t-46.5 22q-17 0 -28 -10t-11 -29h-87z" />
    <glyph glyph-name="Eng.smcp" horiz-adv-x="600" 
d="M203 281v-281h-151v525h151l194 -281v281h152v-541q0 -78 -46 -114.5t-147 -36.5v92q41 0 41 43v32z" />
    <glyph glyph-name="O.smcp" horiz-adv-x="599" 
d="M27 263q0 124 75 195.5t197 71.5q123 0 198 -71.5t75 -195.5q0 -125 -75 -196.5t-198 -71.5q-122 0 -197 71.5t-75 196.5zM187 263q0 -165 112 -165t112 165q0 164 -112 164t-112 -164z" />
    <glyph glyph-name="Oacute.smcp" horiz-adv-x="599" 
d="M27 263q0 124 75 195.5t197 71.5q123 0 198 -71.5t75 -195.5q0 -125 -75 -196.5t-198 -71.5q-122 0 -197 71.5t-75 196.5zM187 263q0 -165 112 -165t112 165q0 164 -112 164t-112 -164zM186 555l95 145h147l-140 -145h-102z" />
    <glyph glyph-name="Obreve.smcp" horiz-adv-x="599" 
d="M27 263q0 124 75 195.5t197 71.5q123 0 198 -71.5t75 -195.5q0 -125 -75 -196.5t-198 -71.5q-122 0 -197 71.5t-75 196.5zM187 263q0 -165 112 -165t112 165q0 164 -112 164t-112 -164zM114 696h110q0 -33 20.5 -52.5t53.5 -19.5q34 0 54 19t20 53h111
q0 -70 -50.5 -109.5t-134.5 -39.5q-83 0 -133.5 40t-50.5 109z" />
    <glyph glyph-name="Ocircumflex.smcp" horiz-adv-x="599" 
d="M27 263q0 124 75 195.5t197 71.5q123 0 198 -71.5t75 -195.5q0 -125 -75 -196.5t-198 -71.5q-122 0 -197 71.5t-75 196.5zM187 263q0 -165 112 -165t112 165q0 164 -112 164t-112 -164zM360 700l112 -145h-119l-55 85l-54 -85h-118l111 145h123z" />
    <glyph glyph-name="Odieresis.smcp" horiz-adv-x="599" 
d="M27 263q0 124 75 195.5t197 71.5q123 0 198 -71.5t75 -195.5q0 -125 -75 -196.5t-198 -71.5q-122 0 -197 71.5t-75 196.5zM187 263q0 -165 112 -165t112 165q0 164 -112 164t-112 -164zM119 566v116h132v-116h-132zM349 566v116h132v-116h-132z" />
    <glyph glyph-name="Ograve.smcp" horiz-adv-x="599" 
d="M27 263q0 124 75 195.5t197 71.5q123 0 198 -71.5t75 -195.5q0 -125 -75 -196.5t-198 -71.5q-122 0 -197 71.5t-75 196.5zM187 263q0 -165 112 -165t112 165q0 164 -112 164t-112 -164zM317 700l95 -145h-102l-140 145h147z" />
    <glyph glyph-name="Ohungarumlaut.smcp" horiz-adv-x="599" 
d="M27 263q0 124 75 195.5t197 71.5q123 0 198 -71.5t75 -195.5q0 -125 -75 -196.5t-198 -71.5q-122 0 -197 71.5t-75 196.5zM187 263q0 -165 112 -165t112 165q0 164 -112 164t-112 -164zM101 555l95 145h135l-128 -145h-102zM282 555l96 145h135l-128 -145h-103z" />
    <glyph glyph-name="Omacron.smcp" horiz-adv-x="599" 
d="M27 263q0 124 75 195.5t197 71.5q123 0 198 -71.5t75 -195.5q0 -125 -75 -196.5t-198 -71.5q-122 0 -197 71.5t-75 196.5zM187 263q0 -165 112 -165t112 165q0 164 -112 164t-112 -164zM138 567v92h322v-92h-322z" />
    <glyph glyph-name="Oslash.smcp" horiz-adv-x="599" 
d="M37 0l57 75q-67 70 -67 188q0 124 75 195.5t197 71.5q68 0 123 -23l14 18h124l-56 -74q68 -71 68 -188q0 -125 -75 -196.5t-198 -71.5q-69 0 -125 24l-14 -19h-123zM418 262q0 33 -7 68l-171 -225q24 -15 59 -15q119 0 119 172zM179 262q0 -38 6 -67l171 225
q-24 15 -57 15q-58 0 -89 -43.5t-31 -129.5z" />
    <glyph glyph-name="Oslashacute.smcp" horiz-adv-x="599" 
d="M37 0l57 75q-67 70 -67 188q0 124 75 195.5t197 71.5q68 0 123 -23l14 18h124l-56 -74q68 -71 68 -188q0 -125 -75 -196.5t-198 -71.5q-69 0 -125 24l-14 -19h-123zM418 262q0 33 -7 68l-171 -225q24 -15 59 -15q119 0 119 172zM179 262q0 -38 6 -67l171 225
q-24 15 -57 15q-58 0 -89 -43.5t-31 -129.5zM186 555l95 145h147l-140 -145h-102z" />
    <glyph glyph-name="Otilde.smcp" horiz-adv-x="599" 
d="M27 263q0 124 75 195.5t197 71.5q123 0 198 -71.5t75 -195.5q0 -125 -75 -196.5t-198 -71.5q-122 0 -197 71.5t-75 196.5zM187 263q0 -165 112 -165t112 165q0 164 -112 164t-112 -164zM127 569q0 55 30 87.5t76 32.5q34 0 65 -23.5t47 -23.5q17 0 28 11t11 31h88
q0 -55 -30.5 -87.5t-76.5 -32.5q-35 0 -65.5 22t-46.5 22q-17 0 -28 -10t-11 -29h-87z" />
    <glyph glyph-name="OE.smcp" horiz-adv-x="730" 
d="M355 0v6q-39 -11 -84 -11q-110 0 -177 71.5t-67 196.5q0 124 67 195.5t177 71.5q47 0 84 -12v7h339v-101h-190v-103h156v-102h-156v-118h194v-101h-343zM283 98q48 0 72 46v236q-25 47 -72 47q-96 0 -96 -164q0 -165 96 -165z" />
    <glyph glyph-name="P.smcp" horiz-adv-x="533" 
d="M52 0v525h258q89 0 142.5 -45.5t53.5 -124.5t-53 -123.5t-143 -44.5h-98v-187h-160zM278 424h-66v-136h66q73 0 73 67q0 69 -73 69z" />
    <glyph glyph-name="Q.smcp" horiz-adv-x="599" 
d="M27 263q0 124 75 195.5t197 71.5q123 0 198 -71.5t75 -195.5q0 -109 -63 -182l60 -44l-62 -76l-76 57q-56 -23 -132 -23q-122 0 -197 71.5t-75 196.5zM271 143l61 78l66 -47q13 39 13 89q0 164 -112 164t-112 -164q0 -165 112 -165h34z" />
    <glyph glyph-name="R.smcp" horiz-adv-x="541" 
d="M52 0v525h258q90 0 143 -43.5t53 -121.5q0 -110 -102 -149l126 -211h-169l-89 195h-60v-195h-160zM278 424h-66v-127h66q73 0 73 63q0 64 -73 64z" />
    <glyph glyph-name="Racute.smcp" horiz-adv-x="541" 
d="M52 0v525h258q90 0 143 -43.5t53 -121.5q0 -110 -102 -149l126 -211h-169l-89 195h-60v-195h-160zM150 555l95 145h147l-140 -145h-102zM278 424h-66v-127h66q73 0 73 63q0 64 -73 64z" />
    <glyph glyph-name="Rcaron.smcp" horiz-adv-x="541" 
d="M52 0v525h258q90 0 143 -43.5t53 -121.5q0 -110 -102 -149l126 -211h-169l-89 195h-60v-195h-160zM201 555l-111 145h118l55 -85l54 85h119l-112 -145h-123zM278 424h-66v-127h66q73 0 73 63q0 64 -73 64z" />
    <glyph glyph-name="Rcommaaccent.smcp" horiz-adv-x="541" 
d="M52 0v525h258q90 0 143 -43.5t53 -121.5q0 -110 -102 -149l126 -211h-169l-89 195h-60v-195h-160zM278 424h-66v-127h66q73 0 73 63q0 64 -73 64zM222 -110v83h96v-83q0 -45 -26.5 -72.5t-69.5 -27.5v48q15 0 25.5 14.5t10.5 37.5h-36z" />
    <glyph glyph-name="S.smcp" horiz-adv-x="514" 
d="M22 169h151q0 -71 76 -71q36 0 56 14.5t20 38.5q0 29 -30 43t-73 20.5t-86 18t-73 45.5t-30 92q0 75 61 117.5t161 42.5t156.5 -43.5t56.5 -120.5h-152q0 61 -57 61q-30 0 -48 -16.5t-18 -37.5q0 -23 21.5 -37t54.5 -19t70.5 -14.5t70.5 -22.5t54.5 -45t21.5 -79
q0 -79 -64 -120t-169 -41q-109 0 -170 46t-61 128z" />
    <glyph glyph-name="Sacute.smcp" horiz-adv-x="514" 
d="M22 169h151q0 -71 76 -71q36 0 56 14.5t20 38.5q0 29 -30 43t-73 20.5t-86 18t-73 45.5t-30 92q0 75 61 117.5t161 42.5t156.5 -43.5t56.5 -120.5h-152q0 61 -57 61q-30 0 -48 -16.5t-18 -37.5q0 -23 21.5 -37t54.5 -19t70.5 -14.5t70.5 -22.5t54.5 -45t21.5 -79
q0 -79 -64 -120t-169 -41q-109 0 -170 46t-61 128zM143 555l95 145h147l-140 -145h-102z" />
    <glyph glyph-name="Scaron.smcp" horiz-adv-x="514" 
d="M22 169h151q0 -71 76 -71q36 0 56 14.5t20 38.5q0 29 -30 43t-73 20.5t-86 18t-73 45.5t-30 92q0 75 61 117.5t161 42.5t156.5 -43.5t56.5 -120.5h-152q0 61 -57 61q-30 0 -48 -16.5t-18 -37.5q0 -23 21.5 -37t54.5 -19t70.5 -14.5t70.5 -22.5t54.5 -45t21.5 -79
q0 -79 -64 -120t-169 -41q-109 0 -170 46t-61 128zM195 555l-111 145h118l55 -85l54 85h119l-112 -145h-123z" />
    <glyph glyph-name="Scedilla.smcp" horiz-adv-x="514" 
d="M22 169h151q0 -71 76 -71q36 0 56 14.5t20 38.5q0 29 -30 43t-73 20.5t-86 18t-73 45.5t-30 92q0 75 61 117.5t161 42.5t156.5 -43.5t56.5 -120.5h-152q0 61 -57 61q-30 0 -48 -16.5t-18 -37.5q0 -23 21.5 -37t54.5 -19t70.5 -14.5t70.5 -22.5t54.5 -45t21.5 -79
q0 -71 -52 -111.5t-140 -47.5v-5q0 -14 9.5 -25t21 -18t21 -23t9.5 -39q0 -40 -27.5 -61t-73.5 -21q-36 0 -68 21v64q24 -19 49 -19q32 0 32 24q0 12 -14.5 23.5t-29.5 29.5t-15 44v6q-89 8 -137.5 53t-48.5 118z" />
    <glyph glyph-name="Scircumflex.smcp" horiz-adv-x="514" 
d="M22 169h151q0 -71 76 -71q36 0 56 14.5t20 38.5q0 29 -30 43t-73 20.5t-86 18t-73 45.5t-30 92q0 75 61 117.5t161 42.5t156.5 -43.5t56.5 -120.5h-152q0 61 -57 61q-30 0 -48 -16.5t-18 -37.5q0 -23 21.5 -37t54.5 -19t70.5 -14.5t70.5 -22.5t54.5 -45t21.5 -79
q0 -79 -64 -120t-169 -41q-109 0 -170 46t-61 128zM318 700l112 -145h-119l-55 85l-54 -85h-118l111 145h123z" />
    <glyph glyph-name="Scommaaccent.smcp" horiz-adv-x="514" 
d="M22 169h151q0 -71 76 -71q36 0 56 14.5t20 38.5q0 29 -30 43t-73 20.5t-86 18t-73 45.5t-30 92q0 75 61 117.5t161 42.5t156.5 -43.5t56.5 -120.5h-152q0 61 -57 61q-30 0 -48 -16.5t-18 -37.5q0 -23 21.5 -37t54.5 -19t70.5 -14.5t70.5 -22.5t54.5 -45t21.5 -79
q0 -79 -64 -120t-169 -41q-109 0 -170 46t-61 128zM204 -110v83h96v-83q0 -45 -26.5 -72.5t-69.5 -27.5v48q15 0 25.5 14.5t10.5 37.5h-36z" />
    <glyph glyph-name="T.smcp" horiz-adv-x="527" 
d="M28 424v101h472v-101h-156v-424h-160v424h-156z" />
    <glyph glyph-name="Tbar.smcp" horiz-adv-x="527" 
d="M88 203v101h96v120h-156v101h472v-101h-156v-120h96v-101h-96v-203h-160v203h-96z" />
    <glyph glyph-name="Tcaron.smcp" horiz-adv-x="527" 
d="M28 424v101h472v-101h-156v-424h-160v424h-156zM202 555l-111 145h118l55 -85l54 85h119l-112 -145h-123z" />
    <glyph glyph-name="Tcommaaccent.smcp" horiz-adv-x="527" 
d="M28 424v101h472v-101h-156v-424h-160v424h-156zM215 -110v83h96v-83q0 -45 -26.5 -72.5t-69.5 -27.5v48q15 0 25.5 14.5t10.5 37.5h-36z" />
    <glyph glyph-name="uni021A.smcp" horiz-adv-x="527" 
d="M28 424v101h472v-101h-156v-424h-160v424h-156zM215 -110v83h96v-83q0 -45 -26.5 -72.5t-69.5 -27.5v48q15 0 25.5 14.5t10.5 37.5h-36z" />
    <glyph glyph-name="U.smcp" horiz-adv-x="587" 
d="M379 189v336h160v-336q0 -91 -67 -142.5t-179 -51.5q-111 0 -178.5 51.5t-67.5 142.5v336h160v-336q0 -91 86 -91t86 91z" />
    <glyph glyph-name="Uacute.smcp" horiz-adv-x="587" 
d="M379 189v336h160v-336q0 -91 -67 -142.5t-179 -51.5q-111 0 -178.5 51.5t-67.5 142.5v336h160v-336q0 -91 86 -91t86 91zM181 555l95 145h147l-140 -145h-102z" />
    <glyph glyph-name="Ubreve.smcp" horiz-adv-x="587" 
d="M379 189v336h160v-336q0 -91 -67 -142.5t-179 -51.5q-111 0 -178.5 51.5t-67.5 142.5v336h160v-336q0 -91 86 -91t86 91zM108 696h110q0 -33 20.5 -52.5t53.5 -19.5q34 0 54 19t20 53h111q0 -70 -50.5 -109.5t-134.5 -39.5q-83 0 -133.5 40t-50.5 109z" />
    <glyph glyph-name="Ucircumflex.smcp" horiz-adv-x="587" 
d="M379 189v336h160v-336q0 -91 -67 -142.5t-179 -51.5q-111 0 -178.5 51.5t-67.5 142.5v336h160v-336q0 -91 86 -91t86 91zM354 700l112 -145h-119l-55 85l-54 -85h-118l111 145h123z" />
    <glyph glyph-name="Udieresis.smcp" horiz-adv-x="587" 
d="M379 189v336h160v-336q0 -91 -67 -142.5t-179 -51.5q-111 0 -178.5 51.5t-67.5 142.5v336h160v-336q0 -91 86 -91t86 91zM112 566v116h132v-116h-132zM342 566v116h132v-116h-132z" />
    <glyph glyph-name="Ugrave.smcp" horiz-adv-x="587" 
d="M379 189v336h160v-336q0 -91 -67 -142.5t-179 -51.5q-111 0 -178.5 51.5t-67.5 142.5v336h160v-336q0 -91 86 -91t86 91zM312 700l95 -145h-102l-140 145h147z" />
    <glyph glyph-name="Uhungarumlaut.smcp" horiz-adv-x="587" 
d="M379 189v336h160v-336q0 -91 -67 -142.5t-179 -51.5q-111 0 -178.5 51.5t-67.5 142.5v336h160v-336q0 -91 86 -91t86 91zM95 555l95 145h135l-128 -145h-102zM276 555l96 145h135l-128 -145h-103z" />
    <glyph glyph-name="Umacron.smcp" horiz-adv-x="587" 
d="M379 189v336h160v-336q0 -91 -67 -142.5t-179 -51.5q-111 0 -178.5 51.5t-67.5 142.5v336h160v-336q0 -91 86 -91t86 91zM132 567v92h322v-92h-322z" />
    <glyph glyph-name="Uogonek.smcp" horiz-adv-x="587" 
d="M379 189v336h160v-336q0 -66 -36 -112t-100 -67q-40 -47 -40 -90q0 -14 9 -23t26 -9q26 0 50 19v-64q-33 -21 -70 -21q-46 0 -74 22.5t-28 66.5q0 45 27 84h-10q-111 0 -178.5 51.5t-67.5 142.5v336h160v-336q0 -91 86 -91t86 91z" />
    <glyph glyph-name="Uring.smcp" horiz-adv-x="587" 
d="M379 189v336h160v-336q0 -91 -67 -142.5t-179 -51.5q-111 0 -178.5 51.5t-67.5 142.5v336h160v-336q0 -91 86 -91t86 91zM185 631q0 48 29.5 75.5t78.5 27.5t78.5 -27.5t29.5 -75.5q0 -47 -29.5 -74t-78.5 -27t-78.5 27t-29.5 74zM253 631q0 -20 10.5 -31t29.5 -11
q17 0 27 11.5t10 30.5t-10 30t-27 11q-40 0 -40 -41z" />
    <glyph glyph-name="Utilde.smcp" horiz-adv-x="587" 
d="M379 189v336h160v-336q0 -91 -67 -142.5t-179 -51.5q-111 0 -178.5 51.5t-67.5 142.5v336h160v-336q0 -91 86 -91t86 91zM120 569q0 55 30 87.5t76 32.5q34 0 65 -23.5t47 -23.5q17 0 28 11t11 31h88q0 -55 -30.5 -87.5t-76.5 -32.5q-35 0 -65.5 22t-46.5 22
q-17 0 -28 -10t-11 -29h-87z" />
    <glyph glyph-name="V.smcp" horiz-adv-x="599" 
d="M579 525l-189 -525h-184l-186 525h157l122 -400l123 400h157z" />
    <glyph glyph-name="W.smcp" horiz-adv-x="849" 
d="M505 0l-80 330l-79 -330h-183l-143 525h163l72 -376l91 376h160l89 -376l72 376h163l-142 -525h-183z" />
    <glyph glyph-name="Wacute.smcp" horiz-adv-x="849" 
d="M505 0l-80 330l-79 -330h-183l-143 525h163l72 -376l91 376h160l89 -376l72 376h163l-142 -525h-183zM311 555l95 145h147l-140 -145h-102z" />
    <glyph glyph-name="Wcircumflex.smcp" horiz-adv-x="849" 
d="M505 0l-80 330l-79 -330h-183l-143 525h163l72 -376l91 376h160l89 -376l72 376h163l-142 -525h-183zM486 700l112 -145h-119l-55 85l-54 -85h-118l111 145h123z" />
    <glyph glyph-name="Wdieresis.smcp" horiz-adv-x="849" 
d="M505 0l-80 330l-79 -330h-183l-143 525h163l72 -376l91 376h160l89 -376l72 376h163l-142 -525h-183zM244 566v116h132v-116h-132zM474 566v116h132v-116h-132z" />
    <glyph glyph-name="Wgrave.smcp" horiz-adv-x="849" 
d="M505 0l-80 330l-79 -330h-183l-143 525h163l72 -376l91 376h160l89 -376l72 376h163l-142 -525h-183zM442 700l95 -145h-102l-140 145h147z" />
    <glyph glyph-name="X.smcp" horiz-adv-x="584" 
d="M16 0l184 266l-176 259h174l95 -159l95 159h175l-178 -258l184 -267h-175l-101 167l-103 -167h-174z" />
    <glyph glyph-name="Y.smcp" 
d="M208 0v170l-185 355h170l95 -225l95 225h171l-186 -355v-170h-160z" />
    <glyph glyph-name="Yacute.smcp" 
d="M208 0v170l-185 355h170l95 -225l95 225h171l-186 -355v-170h-160zM175 555l95 145h147l-140 -145h-102z" />
    <glyph glyph-name="Ycircumflex.smcp" 
d="M208 0v170l-185 355h170l95 -225l95 225h171l-186 -355v-170h-160zM350 700l112 -145h-119l-55 85l-54 -85h-118l111 145h123z" />
    <glyph glyph-name="Ydieresis.smcp" 
d="M208 0v170l-185 355h170l95 -225l95 225h171l-186 -355v-170h-160zM107 566v116h132v-116h-132zM337 566v116h132v-116h-132z" />
    <glyph glyph-name="Ygrave.smcp" 
d="M208 0v170l-185 355h170l95 -225l95 225h171l-186 -355v-170h-160zM306 700l95 -145h-102l-140 145h147z" />
    <glyph glyph-name="Z.smcp" horiz-adv-x="509" 
d="M39 424v101h434v-93l-267 -331h271v-101h-442v93l258 331h-254z" />
    <glyph glyph-name="Zacute.smcp" horiz-adv-x="509" 
d="M39 424v101h434v-93l-267 -331h271v-101h-442v93l258 331h-254zM141 555l95 145h147l-140 -145h-102z" />
    <glyph glyph-name="Zcaron.smcp" horiz-adv-x="509" 
d="M39 424v101h434v-93l-267 -331h271v-101h-442v93l258 331h-254zM193 555l-111 145h118l55 -85l54 85h119l-112 -145h-123z" />
    <glyph glyph-name="Zdotaccent.smcp" horiz-adv-x="509" 
d="M39 424v101h434v-93l-267 -331h271v-101h-442v93l258 331h-254zM174 563v130h160v-130h-160z" />
    <glyph glyph-name="uni018F.smcp" horiz-adv-x="579" 
d="M31 265q0 28 4 49h353q-16 113 -108 113q-90 0 -90 -77h-155q0 85 65 132.5t175 47.5q124 0 200 -71.5t76 -195.5q0 -125 -74 -196.5t-196 -71.5q-250 0 -250 270zM286 98q89 0 102 115h-202v-7q0 -56 23.5 -82t76.5 -26z" />
    <glyph glyph-name="f_f_j" horiz-adv-x="917" 
d="M870 500v-540q0 -92 -53.5 -136.5t-168.5 -44.5v98q62 0 62 67v460h-147v-404h-160v404h-163v-404h-160v404h-61v96h61v67q0 87 47.5 125.5t158.5 38.5q28 0 56 -6v-97q-14 5 -40 5q-62 0 -62 -54v-79h163v67q0 87 47.5 125.5t158.5 38.5q27 0 56 -6v-97q-14 5 -40 5
q-62 0 -62 -54v-79h307zM710 570v130h160v-130h-160z" />
    <glyph glyph-name="f_j" horiz-adv-x="594" 
d="M80 0v404h-61v96h61v67q0 87 47.5 125.5t158.5 38.5q28 0 56 -6v-97q-14 5 -40 5q-62 0 -62 -54v-79h307v-540q0 -92 -53.5 -136.5t-168.5 -44.5v98q62 0 62 67v460h-147v-404h-160zM387 570v130h160v-130h-160z" />
    <glyph glyph-name="f_t" horiz-adv-x="693" 
d="M80 0v404h-61v96h61v67q0 87 47.5 125.5t158.5 38.5q28 0 56 -6v-97q-14 5 -40 5q-62 0 -62 -54v-79h159v105h160v-105h102v-96h-102v-258q0 -54 62 -54q26 0 40 5v-97q-29 -6 -56 -6q-111 0 -158.5 38.5t-47.5 125.5v246h-159v-404h-160z" />
    <glyph glyph-name="f_f_t" horiz-adv-x="1016" 
d="M80 0v404h-61v96h61v67q0 87 47.5 125.5t158.5 38.5q28 0 56 -6v-97q-14 5 -40 5q-62 0 -62 -54v-79h163v67q0 87 47.5 125.5t158.5 38.5q27 0 56 -6v-97q-14 5 -40 5q-62 0 -62 -54v-79h159v105h160v-105h102v-96h-102v-258q0 -54 62 -54q26 0 40 5v-97q-28 -6 -56 -6
q-111 0 -158.5 38.5t-47.5 125.5v246h-159v-404h-160v404h-163v-404h-160z" />
    <glyph glyph-name="f_t_t" horiz-adv-x="1025" 
d="M80 0v404h-61v96h61v67q0 87 47.5 125.5t158.5 38.5q28 0 56 -6v-97q-14 5 -40 5q-62 0 -62 -54v-79h159v105h160v-105h172v105h160v-105h102v-96h-102v-258q0 -54 62 -54q25 0 40 5v-97q-29 -6 -56 -6q-111 0 -158.5 38.5t-47.5 125.5v246h-172v-258q0 -54 62 -54
q26 0 40 5v-97q-29 -6 -56 -6q-111 0 -158.5 38.5t-47.5 125.5v246h-159v-404h-160z" />
    <glyph glyph-name="t_t" horiz-adv-x="708" 
d="M19 404v96h63v105h160v-105h172v105h160v-105h102v-96h-102v-258q0 -54 62 -54q25 0 40 5v-97q-28 -6 -56 -6q-111 0 -158.5 38.5t-47.5 125.5v246h-172v-258q0 -54 62 -54q26 0 40 5v-97q-28 -6 -56 -6q-111 0 -158.5 38.5t-47.5 125.5v246h-63z" />
    <glyph glyph-name="f_iogonek" horiz-adv-x="594" 
d="M387 0v404h-147v-404h-160v404h-61v96h61v67q0 87 47.5 125.5t158.5 38.5q28 0 56 -6v-97q-14 5 -40 5q-62 0 -62 -54v-79h307v-500h-16q-6 -6 -15.5 -17t-25 -40t-15.5 -52q0 -14 9 -23t26 -9q26 0 50 19v-64q-33 -21 -70 -21q-46 0 -74 22.5t-28 66.5q0 20 6 39.5
t14 33t16.5 24t14.5 15.5l6 6h-58zM387 570v130h160v-130h-160z" />
    <glyph glyph-name="f_f_iogonek" horiz-adv-x="917" 
d="M710 0v404h-147v-404h-160v404h-163v-404h-160v404h-61v96h61v67q0 87 47.5 125.5t158.5 38.5q28 0 56 -6v-97q-14 5 -40 5q-62 0 -62 -54v-79h163v67q0 87 47.5 125.5t158.5 38.5q27 0 56 -6v-97q-14 5 -40 5q-62 0 -62 -54v-79h307v-500h-16q-6 -6 -15.5 -17t-25 -40
t-15.5 -52q0 -14 9 -23t26 -9q26 0 50 19v-64q-33 -21 -70 -21q-46 0 -74 22.5t-28 66.5q0 32 14.5 61.5t28.5 42.5l14 14h-58zM710 570v130h160v-130h-160z" />
    <glyph glyph-name="f_tbar" horiz-adv-x="693" 
d="M80 0v404h-61v96h61v67q0 87 47.5 125.5t158.5 38.5q28 0 56 -6v-97q-14 5 -40 5q-62 0 -62 -54v-79h159v105h160v-105h102v-96h-102v-78h102v-96h-102v-84q0 -54 62 -54q26 0 40 5v-97q-29 -6 -56 -6q-111 0 -158.5 38.5t-47.5 125.5v72h-63v96h63v78h-159v-404h-160z
" />
    <glyph glyph-name="f_f_tbar" horiz-adv-x="1016" 
d="M80 0v404h-61v96h61v67q0 87 47.5 125.5t158.5 38.5q28 0 56 -6v-97q-14 5 -40 5q-62 0 -62 -54v-79h163v67q0 87 47.5 125.5t158.5 38.5q27 0 56 -6v-97q-14 5 -40 5q-62 0 -62 -54v-79h159v105h160v-105h102v-96h-102v-78h102v-96h-102v-84q0 -54 62 -54q26 0 40 5v-97
q-28 -6 -56 -6q-111 0 -158.5 38.5t-47.5 125.5v72h-63v96h63v78h-159v-404h-160v404h-163v-404h-160z" />
    <glyph glyph-name="f_tcaron" horiz-adv-x="812" 
d="M80 0v404h-61v96h61v67q0 87 47.5 125.5t158.5 38.5q28 0 56 -6v-97q-14 5 -40 5q-62 0 -62 -54v-79h159v105h160v-105h102v-96h-102v-258q0 -54 62 -54q26 0 40 5v-97q-29 -6 -56 -6q-111 0 -158.5 38.5t-47.5 125.5v246h-159v-404h-160zM706 642v83h96v-83
q0 -45 -26.5 -72.5t-69.5 -27.5v48q15 0 25.5 14.5t10.5 37.5h-36z" />
    <glyph glyph-name="f_f_tcaron" horiz-adv-x="1135" 
d="M80 0v404h-61v96h61v67q0 87 47.5 125.5t158.5 38.5q28 0 56 -6v-97q-14 5 -40 5q-62 0 -62 -54v-79h163v67q0 87 47.5 125.5t158.5 38.5q27 0 56 -6v-97q-14 5 -40 5q-62 0 -62 -54v-79h159v105h160v-105h102v-96h-102v-258q0 -54 62 -54q26 0 40 5v-97q-28 -6 -56 -6
q-111 0 -158.5 38.5t-47.5 125.5v246h-159v-404h-160v404h-163v-404h-160zM1029 642v83h96v-83q0 -45 -26.5 -72.5t-69.5 -27.5v48q15 0 25.5 14.5t10.5 37.5h-36z" />
    <glyph glyph-name="f_tcommaaccent" horiz-adv-x="693" 
d="M80 0v404h-61v96h61v67q0 87 47.5 125.5t158.5 38.5q28 0 56 -6v-97q-14 5 -40 5q-62 0 -62 -54v-79h159v105h160v-105h102v-96h-102v-258q0 -54 62 -54q26 0 40 5v-97q-29 -6 -56 -6q-111 0 -158.5 38.5t-47.5 125.5v246h-159v-404h-160zM485 -133v83h96v-83
q0 -45 -26.5 -72.5t-69.5 -27.5v48q15 0 25.5 14.5t10.5 37.5h-36z" />
    <glyph glyph-name="f_f_tcommaaccent" horiz-adv-x="1016" 
d="M80 0v404h-61v96h61v67q0 87 47.5 125.5t158.5 38.5q28 0 56 -6v-97q-14 5 -40 5q-62 0 -62 -54v-79h163v67q0 87 47.5 125.5t158.5 38.5q27 0 56 -6v-97q-14 5 -40 5q-62 0 -62 -54v-79h159v105h160v-105h102v-96h-102v-258q0 -54 62 -54q26 0 40 5v-97q-28 -6 -56 -6
q-111 0 -158.5 38.5t-47.5 125.5v246h-159v-404h-160v404h-163v-404h-160zM809 -133v83h96v-83q0 -45 -26.5 -72.5t-69.5 -27.5v48q15 0 25.5 14.5t10.5 37.5h-36z" />
    <glyph glyph-name="t_tcommaaccent" horiz-adv-x="708" 
d="M19 404v96h63v105h160v-105h172v105h160v-105h102v-96h-102v-258q0 -54 62 -54q25 0 40 5v-97q-28 -6 -56 -6q-111 0 -158.5 38.5t-47.5 125.5v246h-172v-258q0 -54 62 -54q26 0 40 5v-97q-28 -6 -56 -6q-111 0 -158.5 38.5t-47.5 125.5v246h-63zM501 -133v83h96v-83
q0 -45 -26.5 -72.5t-69.5 -27.5v48q15 0 25.5 14.5t10.5 37.5h-36z" />
    <glyph glyph-name="tcommaaccent_t" horiz-adv-x="708" 
d="M19 404v96h63v105h160v-105h172v105h160v-105h102v-96h-102v-258q0 -54 62 -54q25 0 40 5v-97q-28 -6 -56 -6q-111 0 -158.5 38.5t-47.5 125.5v246h-172v-258q0 -54 62 -54q26 0 40 5v-97q-28 -6 -56 -6q-111 0 -158.5 38.5t-47.5 125.5v246h-63zM163 -133v83h96v-83
q0 -45 -26.5 -72.5t-69.5 -27.5v48q15 0 25.5 14.5t10.5 37.5h-36z" />
    <glyph glyph-name="tcommaaccent_tcommaaccent" horiz-adv-x="708" 
d="M19 404v96h63v105h160v-105h172v105h160v-105h102v-96h-102v-258q0 -54 62 -54q25 0 40 5v-97q-28 -6 -56 -6q-111 0 -158.5 38.5t-47.5 125.5v246h-172v-258q0 -54 62 -54q26 0 40 5v-97q-28 -6 -56 -6q-111 0 -158.5 38.5t-47.5 125.5v246h-63zM499 -133v83h96v-83
q0 -45 -26.5 -72.5t-69.5 -27.5v48q15 0 25.5 14.5t10.5 37.5h-36zM165 -133v83h96v-83q0 -45 -26.5 -72.5t-69.5 -27.5v48q15 0 25.5 14.5t10.5 37.5h-36z" />
    <glyph glyph-name="germandbls.smcp" horiz-adv-x="608" 
d="M215 128h123q0 -46 45 -46q46 0 46 33q0 16 -19 24.5t-45.5 14t-53.5 14t-46 30t-19 56.5q0 25 27.5 65t27.5 72q0 44 -55 44q-54 0 -54 -45v-390h-152v383q0 77 46.5 110t159.5 33q207 0 207 -136q0 -31 -10 -54.5t-21.5 -35t-21.5 -24.5t-10 -25q0 -15 29 -23.5t63 -14
t63 -33t29 -76.5q0 -51 -51 -80t-135 -29q-79 0 -126 35.5t-47 97.5z" />
    <glyph glyph-name="zero.slash" horiz-adv-x="635" 
d="M43 0l58 98q-72 94 -72 252q0 165 79.5 260.5t208.5 95.5q72 0 129 -30l15 24h131l-59 -98q73 -97 73 -252q0 -165 -79.5 -260.5t-209.5 -95.5q-72 0 -129 30l-14 -24h-131zM185 350q0 -59 7 -100l196 328q-30 30 -71 30q-62 0 -97 -66.5t-35 -191.5zM449 350q0 48 -7 99
l-196 -328q31 -29 71 -29q62 0 97 66t35 192z" />
    <glyph glyph-name="zero.fitted" horiz-adv-x="592" 
d="M18 350q0 165 77 260.5t201 95.5q125 0 201.5 -95t76.5 -261t-76.5 -261t-201.5 -95q-124 0 -201 95.5t-77 260.5zM182 350q0 -121 30 -185.5t84 -64.5t83.5 64t29.5 186t-29.5 186t-83.5 64t-84 -64.5t-30 -185.5z" />
    <glyph glyph-name="zero.fitted.slash" horiz-adv-x="592" 
d="M30 0l57 99q-69 96 -69 251q0 165 77 260.5t201 95.5q67 0 122 -29l13 23h131l-57 -100q69 -96 69 -250q0 -166 -76.5 -261t-201.5 -95q-67 0 -122 29l-13 -23h-131zM174 350q0 -56 5 -90l182 318q-27 30 -65 30q-57 0 -89.5 -66.5t-32.5 -191.5zM417 350q0 45 -5 88
l-182 -317q27 -29 66 -29q57 0 89 66t32 192z" />
    <glyph glyph-name="one.fitted" horiz-adv-x="592" 
d="M107 0v108h121v416h-159v83q102 0 140.5 20t38.5 73h144v-592h121v-108h-406z" />
    <glyph glyph-name="two.fitted" horiz-adv-x="592" 
d="M44 104q0 29 35.5 68.5t87 79.5l102.5 81.5t86.5 85.5t35.5 80q0 42 -27 71.5t-71 29.5q-46 0 -73 -30.5t-27 -84.5h-158q0 102 70.5 161.5t191.5 59.5q115 0 186.5 -55.5t71.5 -151.5q0 -54 -34.5 -108.5t-83.5 -97t-98.5 -78.5t-84 -65t-34.5 -46h333v-104h-509v104z
" />
    <glyph glyph-name="three.fitted" horiz-adv-x="592" 
d="M230 306v104h49q48 0 75 26t27 71q0 43 -25 68t-68 25q-99 0 -99 -112h-156q0 102 71.5 160t187.5 58q118 0 184 -49t66 -138q0 -108 -95 -157q56 -22 88 -67t32 -107q0 -93 -68.5 -143.5t-197.5 -50.5q-121 0 -194.5 58.5t-73.5 160.5h156q0 -55 29 -84t84 -29
q48 0 76 27t28 75t-27.5 76t-78.5 28h-70z" />
    <glyph glyph-name="four.fitted" horiz-adv-x="592" 
d="M363 0v130h-335v108l287 462h196v-462h52v-108h-52v-130h-148zM171 238h192v315z" />
    <glyph glyph-name="five.fitted" horiz-adv-x="592" 
d="M48 309l42 391h425v-108h-286l-18 -158q48 27 107 27q110 0 178.5 -63.5t68.5 -172.5q0 -110 -68 -170.5t-195 -60.5q-120 0 -194 57.5t-74 157.5h156q0 -52 29 -80.5t82 -28.5q48 0 76 33t28 92q0 65 -30.5 101.5t-84.5 36.5q-72 0 -91 -54h-151z" />
    <glyph glyph-name="six.fitted" horiz-adv-x="592" 
d="M565 224q0 -107 -72.5 -168.5t-192.5 -61.5q-135 0 -203.5 93.5t-68.5 265.5q0 163 76.5 258t198.5 95q106 0 170.5 -50.5t64.5 -137.5h-152q0 39 -22 60.5t-61 21.5q-50 0 -82.5 -51t-38.5 -151q71 58 154 58q103 0 166 -62t63 -170zM202 224q0 -60 26 -92t72 -32
q47 0 74 32t27 92q0 61 -27 93t-74 32q-46 0 -72 -32t-26 -93z" />
    <glyph glyph-name="seven.fitted" horiz-adv-x="592" 
d="M37 592v108h515v-108l-250 -592h-161l245 592h-349z" />
    <glyph glyph-name="eight.fitted" horiz-adv-x="592" 
d="M48 525q0 84 68 132.5t180 48.5t180 -48.5t68 -132.5q0 -55 -30.5 -95t-85.5 -61q64 -22 100 -67.5t36 -110.5q0 -92 -73.5 -144.5t-194.5 -52.5t-194.5 52.5t-73.5 144.5q0 65 35.5 110.5t99.5 67.5q-54 21 -84.5 61t-30.5 95zM192 207q0 -52 27.5 -79.5t76.5 -27.5
q50 0 77.5 27.5t27.5 79.5t-27.5 79.5t-77.5 27.5q-49 0 -76.5 -27.5t-27.5 -79.5zM208 509q0 -44 23 -67.5t65 -23.5t65 23.5t23 67.5t-23 67.5t-65 23.5t-65 -23.5t-23 -67.5z" />
    <glyph glyph-name="nine.fitted" horiz-adv-x="592" 
d="M30 482q0 104 72 164t190 60q135 0 202.5 -92.5t67.5 -266.5q0 -164 -77.5 -258.5t-204.5 -94.5q-107 0 -172.5 50.5t-65.5 137.5h156q0 -39 22.5 -60.5t63.5 -21.5q124 0 121 214q-64 -57 -149 -57q-102 0 -164 60t-62 165zM387 482q0 58 -25 88t-70 30q-46 0 -72 -30.5
t-26 -87.5q0 -58 26 -88.5t72 -30.5q45 0 70 30.5t25 88.5z" />
    <glyph glyph-name="zerooldstyle.slash" horiz-adv-x="560" 
d="M33 0l56 73q-59 68 -59 177q0 119 68.5 187.5t181.5 68.5q66 0 119 -25l15 19h112l-56 -73q60 -68 60 -177q0 -119 -68.5 -187.5t-181.5 -68.5q-66 0 -121 25l-14 -19h-112zM378 250q0 21 -4 51l-149 -196q23 -21 55 -21q46 0 72 42.5t26 123.5zM182 250q0 -27 3 -51
l149 196q-22 21 -54 21q-46 0 -72 -42.5t-26 -123.5z" />
    <glyph glyph-name="zero.taboldstyle" horiz-adv-x="546" 
d="M26 250q0 119 67.5 187.5t178.5 68.5q112 0 180 -68.5t68 -187.5t-68 -187.5t-180 -68.5q-111 0 -178.5 68.5t-67.5 187.5zM186 250q0 -77 23 -117.5t63 -40.5q42 0 65 40.5t23 117.5t-23 117.5t-65 40.5q-40 0 -63 -40.5t-23 -117.5z" />
    <glyph glyph-name="zero.taboldstyle.slash" horiz-adv-x="546" 
d="M30 0l54 73q-58 67 -58 177q0 119 67.5 187.5t178.5 68.5q65 0 118 -25l14 19h112l-55 -73q59 -70 59 -177q0 -119 -68 -187.5t-180 -68.5q-67 0 -117 25l-14 -19h-111zM368 250q0 26 -3 49l-146 -194q23 -21 53 -21q46 0 71 42.5t25 123.5zM178 250q0 -34 2 -49l145 194
q-21 21 -53 21q-44 0 -69 -42.5t-25 -123.5z" />
    <glyph glyph-name="one.taboldstyle" horiz-adv-x="546" 
d="M75 0v100h122v236h-139v83q91 0 125 17t34 64h140v-400h122v-100h-404z" />
    <glyph glyph-name="two.taboldstyle" horiz-adv-x="546" 
d="M48 0v96q18 32 68 67.5t98 60.5t86 58.5t38 64.5q0 29 -19 45t-50 16q-33 0 -52.5 -17t-19.5 -47h-148q0 74 60 118t157 44q104 0 168 -42.5t64 -116.5q0 -48 -35.5 -90.5t-79.5 -67l-88 -51t-55 -42.5h254v-96h-446z" />
    <glyph glyph-name="three.taboldstyle" horiz-adv-x="546" 
d="M207 126v96h29q48 0 75 24t27 67t-20 69t-52 26q-38 0 -58.5 -26.5t-20.5 -77.5h-155q0 94 65 148t170 54q109 0 169.5 -46.5t60.5 -131.5q0 -102 -95 -150q57 -24 88.5 -71.5t31.5 -114.5q0 -100 -62 -155t-180 -55q-112 0 -180 57t-68 158h156q0 -56 24 -86.5t68 -30.5
q38 0 60 33.5t22 93.5q0 55 -27.5 87t-77.5 32h-50z" />
    <glyph glyph-name="four.taboldstyle" horiz-adv-x="546" 
d="M330 -215v215h-308v108l261 392h195v-392h44v-108h-44v-215h-148zM167 108h163v262z" />
    <glyph glyph-name="five.taboldstyle" horiz-adv-x="546" 
d="M39 109l40 391h395v-100h-257l-18 -166q44 27 98 27q100 0 161 -65.5t61 -178.5t-62.5 -175.5t-179.5 -62.5q-111 0 -179.5 58.5t-68.5 159.5h152q0 -56 24.5 -86t69.5 -30q41 0 64.5 36t23.5 100q0 72 -26 111t-72 39q-68 0 -82 -58h-144z" />
    <glyph glyph-name="six.taboldstyle" horiz-adv-x="546" 
d="M524 231q0 -110 -67.5 -173.5t-178.5 -63.5q-126 0 -190.5 93.5t-64.5 265.5q0 175 70 276.5t182 101.5q100 0 160.5 -50t60.5 -138h-151q0 90 -72 90q-44 0 -74 -57t-31 -170q65 63 144 63q95 0 153.5 -63.5t58.5 -174.5zM189 229q0 -67 23 -102t65 -35q43 0 67 35.5
t24 101.5q0 67 -24 102.5t-67 35.5q-88 0 -88 -138z" />
    <glyph glyph-name="seven.taboldstyle" horiz-adv-x="546" 
d="M44 400v100h456v-100l-224 -615h-156l224 615h-300z" />
    <glyph glyph-name="eight.taboldstyle" horiz-adv-x="546" 
d="M45 550q0 84 62.5 132.5t165.5 48.5t165.5 -48.5t62.5 -132.5q0 -55 -27.5 -95.5t-76.5 -61.5q61 -24 95.5 -73t34.5 -117q0 -97 -70 -153t-184 -56t-184 56t-70 153q0 68 34.5 117t95.5 73q-49 21 -76.5 61t-27.5 96zM179 217q0 -61 25 -93t69 -32q45 0 70 32t25 93
t-25 93t-70 32q-44 0 -69 -32t-25 -93zM201 536q0 -98 72 -98t72 98q0 97 -72 97t-72 -97z" />
    <glyph glyph-name="nine.taboldstyle" horiz-adv-x="546" 
d="M22 280q0 105 68 165.5t179 60.5q126 0 190.5 -93.5t64.5 -267.5q0 -170 -70.5 -268t-186.5 -98q-108 0 -172.5 55.5t-64.5 152.5h155q0 -53 21.5 -81.5t60.5 -28.5q106 0 102 235q-60 -58 -135 -58q-96 0 -154 60.5t-58 165.5zM354 280q0 63 -22.5 95.5t-62.5 32.5
q-41 0 -64 -32.5t-23 -95.5t23 -95.5t64 -32.5q40 0 62.5 32.5t22.5 95.5z" />
    <glyph glyph-name="zero.sup" horiz-adv-x="333" 
d="M17 525q0 83 41 130.5t109 47.5q67 0 108 -47.5t41 -130.5t-41 -130.5t-108 -47.5q-68 0 -109 47.5t-41 130.5zM113 525q0 -117 54 -117q53 0 53 117q0 118 -53 118q-54 0 -54 -118z" />
    <glyph glyph-name="one.sup" horiz-adv-x="217" 
d="M18 602v49q46 0 64.5 10.5t18.5 38.5h83v-350h-96v252h-70z" />
    <glyph glyph-name="two.sup" horiz-adv-x="314" 
d="M25 410q0 19 43 54.5l86 73t43 61.5q0 17 -11.5 30.5t-30.5 13.5q-43 0 -43 -52h-92q0 52 36.5 82t100.5 30q61 0 98.5 -27.5t37.5 -76.5q0 -41 -41.5 -83t-82.5 -70t-41 -36h163v-60h-266v60z" />
    <glyph glyph-name="three.sup" horiz-adv-x="325" 
d="M129 499v60h24q23 0 35.5 11.5t12.5 31.5q0 18 -12 29.5t-31 11.5q-45 0 -45 -52h-91q0 53 38 82.5t101 29.5t98 -24.5t35 -69.5q0 -54 -47 -78q60 -26 60 -87q0 -47 -36.5 -72t-105.5 -25q-65 0 -104 30t-39 82h91q0 -51 52 -51q47 0 47 45q0 46 -49 46h-34z" />
    <glyph glyph-name="four.sup" horiz-adv-x="321" 
d="M191 350v63h-172v63l144 224h114v-224h24v-63h-24v-63h-86zM103 476h88v138z" />
    <glyph glyph-name="five.sup" horiz-adv-x="323" 
d="M29 501l22 199h226v-62h-145l-8 -66q25 10 51 10q57 0 93 -32t36 -87q0 -56 -35.5 -86t-103.5 -30q-65 0 -104 29t-39 81h91q0 -49 52 -49q45 0 45 55q0 62 -53 62q-32 0 -40 -24h-88z" />
    <glyph glyph-name="six.sup" horiz-adv-x="320" 
d="M302 463q0 -55 -38 -85.5t-101 -30.5q-70 0 -107.5 45.5t-37.5 134.5q0 82 40.5 129t105.5 47q56 0 90.5 -26t34.5 -71h-89q0 37 -36 37q-22 0 -37 -22t-19 -63q34 21 75 21q54 0 86.5 -31t32.5 -85zM119 463q0 -55 43 -55q44 0 44 55q0 54 -44 54q-43 0 -43 -54z" />
    <glyph glyph-name="seven.sup" horiz-adv-x="299" 
d="M19 638v62h260v-62l-120 -288h-94l117 288h-163z" />
    <glyph glyph-name="eight.sup" horiz-adv-x="318" 
d="M29 612q0 42 35.5 66.5t94.5 24.5t94.5 -24.5t35.5 -66.5q0 -56 -58 -78q69 -26 69 -89q0 -46 -39 -72t-102 -26t-102 26t-39 72q0 62 68 89q-57 22 -57 78zM114 454q0 -46 45 -46t45 46q0 47 -45 47t-45 -47zM122 602q0 -41 37 -41t37 41t-37 41t-37 -41z" />
    <glyph glyph-name="nine.sup" horiz-adv-x="314" 
d="M18 590q0 53 37.5 83t99.5 30q68 0 105 -45.5t37 -134.5q0 -82 -41 -129t-107 -47q-57 0 -91.5 26t-34.5 71h91q0 -36 37 -36q55 0 54 90q-30 -21 -72 -21q-52 0 -83.5 30t-31.5 83zM196 590q0 53 -41 53t-41 -53q0 -52 41 -52t41 52z" />
    <glyph glyph-name="comma.sup" horiz-adv-x="138" 
d="M26 350v78h87v-78q0 -40 -24 -64.5t-64 -24.5v48q13 0 22.5 11.5t9.5 29.5h-31z" />
    <glyph glyph-name="period.sup" horiz-adv-x="138" 
d="M26 350v78h87v-78h-87z" />
    <glyph glyph-name="parenleft.sup" horiz-adv-x="166" 
d="M149 297v-53q-57 0 -91.5 64.5t-34.5 177.5t34.5 177.5t91.5 64.5v-53q-42 0 -42 -189t42 -189z" />
    <glyph glyph-name="parenright.sup" horiz-adv-x="166" 
d="M17 675v53q57 0 91.5 -64.5t34.5 -177.5t-34.5 -177.5t-91.5 -64.5v53q42 0 42 189t-42 189z" />
    <glyph glyph-name="hyphen.sup" horiz-adv-x="161" 
d="M25 461v53h112v-53h-112z" />
    <glyph glyph-name="zero.slash.sup" horiz-adv-x="333" 
d="M24 350l29 49q-36 47 -36 126q0 83 41 130.5t109 47.5q32 0 61 -13l6 10h76l-30 -51q36 -47 36 -124q0 -83 -41 -130.5t-108 -47.5q-33 0 -62 12l-5 -9h-76zM108 525q0 -23 1 -33l86 144q-13 11 -28 11q-59 0 -59 -122zM225 525q0 21 -1 31l-86 -143q11 -10 29 -10
q58 0 58 122z" />
    <glyph glyph-name="zero.sub" horiz-adv-x="333" 
d="M17 75q0 83 41 130.5t109 47.5q67 0 108 -47.5t41 -130.5t-41 -130.5t-108 -47.5q-68 0 -109 47.5t-41 130.5zM113 75q0 -118 54 -118q53 0 53 118t-53 118q-54 0 -54 -118z" />
    <glyph glyph-name="one.sub" horiz-adv-x="217" 
d="M18 152v49q46 0 64.5 10.5t18.5 38.5h83v-350h-96v252h-70z" />
    <glyph glyph-name="two.sub" horiz-adv-x="314" 
d="M25 -40q0 19 43 54.5l86 73t43 61.5q0 17 -11.5 30.5t-30.5 13.5q-43 0 -43 -52h-92q0 52 36.5 82t100.5 30q61 0 98.5 -27.5t37.5 -76.5q0 -41 -41.5 -83t-82.5 -70t-41 -36h163v-60h-266v60z" />
    <glyph glyph-name="three.sub" horiz-adv-x="325" 
d="M129 49v60h24q23 0 35.5 11.5t12.5 31.5q0 18 -12 29.5t-31 11.5q-45 0 -45 -52h-91q0 53 38 82.5t101 29.5t98 -24.5t35 -69.5q0 -54 -47 -78q60 -26 60 -87q0 -47 -36.5 -72t-105.5 -25q-65 0 -104 30t-39 82h91q0 -52 52 -52q47 0 47 46t-49 46h-34z" />
    <glyph glyph-name="four.sub" horiz-adv-x="321" 
d="M191 -100v63h-172v63l144 224h114v-224h24v-63h-24v-63h-86zM103 26h88v138z" />
    <glyph glyph-name="five.sub" horiz-adv-x="323" 
d="M29 51l22 199h226v-62h-145l-8 -66q25 10 51 10q57 0 93 -32t36 -87q0 -56 -35.5 -86t-103.5 -30q-65 0 -104 29t-39 81h91q0 -50 52 -50q45 0 45 56q0 62 -53 62q-32 0 -40 -24h-88z" />
    <glyph glyph-name="six.sub" horiz-adv-x="320" 
d="M302 13q0 -55 -38 -85.5t-101 -30.5q-70 0 -107.5 45.5t-37.5 134.5q0 82 40.5 129t105.5 47q56 0 90.5 -26t34.5 -71h-89q0 37 -36 37q-22 0 -37 -22t-19 -63q34 21 75 21q54 0 86.5 -31t32.5 -85zM119 13q0 -56 43 -56q44 0 44 56q0 54 -44 54q-43 0 -43 -54z" />
    <glyph glyph-name="seven.sub" horiz-adv-x="299" 
d="M19 188v62h260v-62l-120 -288h-94l117 288h-163z" />
    <glyph glyph-name="eight.sub" horiz-adv-x="318" 
d="M29 162q0 42 35.5 66.5t94.5 24.5t94.5 -24.5t35.5 -66.5q0 -56 -58 -78q69 -26 69 -89q0 -46 -39 -72t-102 -26t-102 26t-39 72q0 62 68 89q-57 22 -57 78zM114 4q0 -47 45 -47t45 47t-45 47t-45 -47zM122 152q0 -41 37 -41t37 41t-37 41t-37 -41z" />
    <glyph glyph-name="nine.sub" horiz-adv-x="314" 
d="M18 140q0 53 37.5 83t99.5 30q68 0 105 -45.5t37 -134.5q0 -82 -41 -129t-107 -47q-57 0 -91.5 26t-34.5 71h91q0 -37 37 -37q55 0 54 91q-30 -21 -72 -21q-52 0 -83.5 30t-31.5 83zM196 140q0 53 -41 53t-41 -53q0 -52 41 -52t41 52z" />
    <glyph glyph-name="comma.sub" horiz-adv-x="138" 
d="M26 -100v78h87v-78q0 -40 -24 -64.5t-64 -24.5v48q13 0 22.5 11.5t9.5 29.5h-31z" />
    <glyph glyph-name="period.sub" horiz-adv-x="138" 
d="M26 -100v78h87v-78h-87z" />
    <glyph glyph-name="parenleft.sub" horiz-adv-x="166" 
d="M149 -153v-53q-57 0 -91.5 64.5t-34.5 177.5t34.5 177.5t91.5 64.5v-53q-42 0 -42 -189t42 -189z" />
    <glyph glyph-name="parenright.sub" horiz-adv-x="166" 
d="M17 225v53q57 0 91.5 -64.5t34.5 -177.5t-34.5 -177.5t-91.5 -64.5v53q42 0 42 189t-42 189z" />
    <glyph glyph-name="hyphen.sub" horiz-adv-x="161" 
d="M25 11v53h112v-53h-112z" />
    <glyph glyph-name="zero.slash.sub" horiz-adv-x="333" 
d="M24 -100l29 50q-36 47 -36 125q0 83 41 130.5t109 47.5q32 0 61 -13l6 10h76l-30 -51q36 -47 36 -124q0 -83 -41 -130.5t-108 -47.5q-33 0 -62 12l-5 -9h-76zM108 75q0 -23 1 -33l86 144q-13 11 -28 11q-59 0 -59 -122zM225 75q0 21 -1 31l-86 -142q13 -11 29 -11
q58 0 58 122z" />
    <glyph glyph-name="zero.smcp" horiz-adv-x="526" 
d="M27 263q0 124 65 195.5t171 71.5t171 -71.5t65 -195.5q0 -125 -65 -196.5t-171 -71.5t-171 71.5t-65 196.5zM183 263q0 -169 80 -169q79 0 79 169q0 168 -79 168q-80 0 -80 -168z" />
    <glyph glyph-name="zero.slash.smcp" horiz-adv-x="526" 
d="M36 0l48 76q-57 73 -57 187q0 124 65 195.5t171 71.5q51 0 95 -18l8 13h124l-48 -77q57 -71 57 -185q0 -125 -65 -196.5t-171 -71.5q-53 0 -95 18l-8 -13h-124zM175 263q0 -27 1 -40l127 202q-17 14 -40 14q-88 0 -88 -176zM350 263q0 25 -1 37l-127 -201q17 -13 41 -13
q87 0 87 177z" />
    <glyph glyph-name="one.smcp" horiz-adv-x="347" 
d="M28 371v78q73 0 101.5 16.5t28.5 59.5h137v-525h-155v371h-112z" />
    <glyph glyph-name="two.smcp" horiz-adv-x="496" 
d="M40 97q0 21 42 59t92 74t92 76.5t42 66.5q0 22 -17.5 40t-46.5 18q-63 0 -63 -72h-149q0 80 57.5 125.5t158.5 45.5q96 0 155.5 -42t59.5 -115q0 -46 -40 -96t-87.5 -83l-87.5 -61t-40 -36h252v-97h-420v97z" />
    <glyph glyph-name="three.smcp" horiz-adv-x="512" 
d="M204 219v98h37q34 0 53 15.5t19 43.5q0 25 -17.5 40t-46.5 15q-68 0 -68 -72h-148q0 81 60 126t160 45q101 0 157 -37t56 -105q0 -78 -76 -117q95 -40 95 -129q0 -71 -57 -109t-167 -38q-104 0 -166 45t-62 126h148q0 -72 80 -72q33 0 51.5 16t18.5 45q0 30 -19 47
t-56 17h-52z" />
    <glyph glyph-name="four.smcp" horiz-adv-x="508" 
d="M299 0v93h-268v101l223 331h185v-331h37v-101h-37v-93h-140zM167 194h132v193z" />
    <glyph glyph-name="five.smcp" horiz-adv-x="508" 
d="M45 224l35 301h357v-101h-225l-13 -86q40 10 77 10q92 0 147.5 -47.5t55.5 -131.5q0 -83 -56 -128.5t-163 -45.5q-103 0 -165 44.5t-62 122.5h148q0 -68 78 -68q32 0 50 19.5t18 55.5q0 88 -79 88q-49 0 -60 -33h-143z" />
    <glyph glyph-name="six.smcp" horiz-adv-x="506" 
d="M478 169q0 -81 -60.5 -127.5t-160.5 -46.5q-110 0 -169.5 67.5t-59.5 202.5q0 123 64.5 194t167.5 71q90 0 143.5 -39.5t53.5 -109.5h-144q0 50 -53 50q-33 0 -56 -28.5t-29 -83.5q53 25 117 25q84 0 135 -47t51 -128zM192 169q0 -75 64 -75q66 0 66 75t-66 75
q-64 0 -64 -75z" />
    <glyph glyph-name="seven.smcp" horiz-adv-x="472" 
d="M31 424v101h410v-101l-186 -424h-154l182 424h-252z" />
    <glyph glyph-name="eight.smcp" horiz-adv-x="502" 
d="M44 392q0 64 56.5 101t150.5 37t150.5 -37t56.5 -101q0 -82 -92 -118q51 -18 79.5 -51.5t28.5 -79.5q0 -69 -61.5 -108.5t-161.5 -39.5t-161.5 39.5t-61.5 108.5q0 46 28.5 79.5t78.5 51.5q-91 36 -91 118zM184 158q0 -64 67 -64q68 0 68 64t-68 64q-67 0 -67 -64z
M196 375q0 -55 55 -55t55 55q0 56 -55 56t-55 -56z" />
    <glyph glyph-name="nine.smcp" horiz-adv-x="498" 
d="M28 360q0 79 59.5 124.5t157.5 45.5q109 0 167 -67t58 -203q0 -123 -65.5 -194t-169.5 -71q-90 0 -144 39.5t-54 109.5h148q0 -50 54 -50q82 0 82 121q-42 -26 -111 -26q-82 0 -132 45.5t-50 125.5zM306 360q0 71 -61 71t-61 -71q0 -72 61 -72t61 72z" />
    <glyph glyph-name="Euro.smcp" horiz-adv-x="626" 
d="M32 281v81h58q27 80 95.5 124t166.5 44q110 0 176 -51.5t66 -143.5h-155q0 92 -91 92q-69 0 -96 -65h117v-81h-134v-35h134v-82h-118q29 -66 97 -66q91 0 91 92h155q0 -92 -66 -143.5t-176 -51.5q-98 0 -167 44t-95 125h-58v82h43v35h-43z" />
    <glyph glyph-name="sterling.smcp" horiz-adv-x="504" 
d="M24 184v102h27v91q0 72 57.5 112.5t151.5 40.5q95 0 151.5 -40.5t56.5 -112.5v-36h-156v36q0 50 -50 50t-50 -50v-91h158v-102h-158v-83h256v-101h-444v101h27v83h-27z" />
    <glyph glyph-name="yen.smcp" 
d="M122 128v70h71l-170 327h170l95 -225l95 225h171l-172 -327h72v-70h-86v-26h87v-70h-87v-32h-160v32h-87v70h87v26h-86z" />
    <glyph glyph-name="uni20B4.smcp" horiz-adv-x="489" 
d="M29 175v78h428v-78h-256q-15 -18 -15 -39q0 -19 14 -30.5t39 -11.5q79 0 79 56h147q0 -74 -61 -114.5t-170 -40.5q-92 0 -148.5 32t-56.5 95q0 27 16 53h-16zM29 281v78h252q13 15 13 33q0 15 -13.5 27t-35.5 12q-62 0 -62 -46h-147q0 68 56.5 106.5t156.5 38.5
q89 0 145 -33.5t56 -92.5q0 -23 -15 -45h22v-78h-428z" />
    <glyph glyph-name="numbersign.smcp" horiz-adv-x="602" 
d="M308 0l22 112h-115l-22 -112h-125l22 112h-59v85h74l26 131h-62v85h78l21 112h125l-21 -112h115l21 112h125l-21 -112h59v-85h-75l-26 -131h62v-85h-77l-22 -112h-125zM256 328l-26 -131h115l26 131h-115z" />
    <glyph glyph-name="zero.fitted.smcp" horiz-adv-x="498" 
d="M19 263q0 124 63.5 195.5t166.5 71.5t166.5 -71.5t63.5 -195.5q0 -125 -63.5 -196.5t-166.5 -71.5t-166.5 71.5t-63.5 196.5zM175 263q0 -169 74 -169q73 0 73 169q0 168 -73 168q-74 0 -74 -168z" />
    <glyph glyph-name="zero.fitted.slash.smcp" horiz-adv-x="498" 
d="M28 0l46 76q-55 72 -55 187q0 124 63.5 195.5t166.5 71.5q48 0 90 -17l7 12h123l-46 -76q56 -72 56 -186q0 -125 -63.5 -196.5t-166.5 -71.5q-48 0 -91 17l-7 -12h-123zM167 263q0 -22 1 -32l118 195q-18 13 -37 13q-82 0 -82 -176zM329 263q0 19 -1 29l-117 -193
q16 -13 38 -13q80 0 80 177z" />
    <glyph glyph-name="one.fitted.smcp" horiz-adv-x="497" 
d="M92 0v101h92v270h-125v78q81 0 113 16.5t32 59.5h136v-424h93v-101h-341z" />
    <glyph glyph-name="two.fitted.smcp" horiz-adv-x="497" 
d="M40 97q0 21 42 59t92 74t92 76.5t42 66.5q0 22 -17 40t-46 18q-63 0 -63 -72h-149q0 80 57.5 125.5t158.5 45.5q96 0 155 -41.5t59 -115.5q0 -46 -39.5 -96t-87.5 -83l-87.5 -61t-39.5 -36h252v-97h-421v97z" />
    <glyph glyph-name="three.fitted.smcp" horiz-adv-x="497" 
d="M198 219v98h36q33 0 51 15.5t18 43.5q0 25 -16.5 40t-44.5 15q-65 0 -65 -72h-148q0 81 59 126t157 45q100 0 155.5 -37t55.5 -105q0 -77 -73 -117q91 -41 91 -129q0 -71 -56 -109t-165 -38q-102 0 -163 45t-61 126h148q0 -72 77 -72q32 0 49.5 16t17.5 45q0 64 -72 64
h-51z" />
    <glyph glyph-name="four.fitted.smcp" horiz-adv-x="498" 
d="M292 0v93h-263v101l219 331h185v-331h36v-101h-36v-93h-141zM164 194h128v193z" />
    <glyph glyph-name="five.fitted.smcp" horiz-adv-x="497" 
d="M42 224l34 301h353v-101h-222l-11 -86q38 10 75 10q90 0 145.5 -47.5t55.5 -131.5q0 -83 -55.5 -128.5t-162.5 -45.5q-102 0 -163 44.5t-61 122.5h148q0 -68 75 -68q32 0 49.5 19.5t17.5 55.5q0 88 -77 88q-49 0 -58 -33h-143z" />
    <glyph glyph-name="six.fitted.smcp" horiz-adv-x="498" 
d="M472 169q0 -81 -60 -127.5t-158 -46.5q-110 0 -169 67t-59 203q0 123 64 194t166 71q89 0 142 -39.5t53 -109.5h-144q0 50 -51 50q-33 0 -55 -28.5t-28 -83.5q52 25 114 25q84 0 134.5 -47t50.5 -128zM190 169q0 -75 63 -75t63 75t-63 75t-63 -75z" />
    <glyph glyph-name="seven.fitted.smcp" horiz-adv-x="497" 
d="M37 424v101h422v-101l-193 -424h-154l189 424h-264z" />
    <glyph glyph-name="eight.fitted.smcp" horiz-adv-x="498" 
d="M43 392q0 64 56.5 101t149.5 37t149.5 -37t56.5 -101q0 -83 -91 -118q50 -18 78.5 -51.5t28.5 -79.5q0 -69 -61 -108.5t-161 -39.5t-161 39.5t-61 108.5q0 93 106 131q-43 17 -66.5 47.5t-23.5 70.5zM183 158q0 -64 66 -64q67 0 67 64t-67 64q-66 0 -66 -64zM195 375
q0 -55 54 -55t54 55q0 56 -54 56t-54 -56z" />
    <glyph glyph-name="nine.fitted.smcp" horiz-adv-x="498" 
d="M29 360q0 79 59.5 124.5t156.5 45.5q108 0 166 -67.5t58 -202.5q0 -123 -65 -194t-169 -71q-90 0 -143.5 39.5t-53.5 109.5h147q0 -50 54 -50q81 0 80 121q-40 -26 -110 -26q-81 0 -130.5 45.5t-49.5 125.5zM305 360q0 71 -60 71t-60 -71q0 -72 60 -72t60 72z" />
    <glyph glyph-name="exclam.smcp" horiz-adv-x="233" 
d="M192 123v-123h-152v123h152zM192 525v-352h-152v352h152z" />
    <glyph glyph-name="ampersand.smcp" horiz-adv-x="640" 
d="M403 260h136q0 -94 -52 -151l133 -109h-173l-45 34q-59 -39 -165 -39q-93 0 -151 38.5t-58 108.5q0 82 97 141q-52 67 -52 117q0 52 48.5 91t140.5 39q86 0 138.5 -35t52.5 -94q0 -49 -35.5 -82.5t-98.5 -63.5l69 -57q15 21 15 62zM243 94q38 0 66 14l-103 80
q-30 -25 -30 -46q0 -20 17 -34t50 -14zM220 391q0 -15 21 -42q62 29 62 55q0 11 -10.5 19t-27.5 8q-23 0 -34 -13.5t-11 -26.5z" />
    <glyph glyph-name="slash.smcp" horiz-adv-x="388" 
d="M28 -75l200 600h133l-200 -600h-133z" />
    <glyph glyph-name="backslash.smcp" horiz-adv-x="388" 
d="M161 525l200 -600h-133l-200 600h133z" />
    <glyph glyph-name="at.smcp" horiz-adv-x="647" 
d="M349 259q0 64 -31 64q-29 0 -29 -64q0 -66 29 -66q31 0 31 66zM391 176v2q-13 -24 -40 -37.5t-57 -13.5q-50 0 -81.5 35.5t-31.5 96.5q0 60 31.5 95t81.5 35q33 0 61 -14l7 11h93v-166q0 -27 29 -27q19 0 26 15t7 55q0 91 -50 137.5t-144 46.5t-144.5 -46.5t-50.5 -137.5
q0 -92 50.5 -138.5t144.5 -46.5q52 0 85 11l66 -64q-64 -30 -151 -30q-133 0 -214.5 71.5t-81.5 196.5q0 124 81.5 195.5t214.5 71.5t215 -71.5t82 -195.5q0 -72 -29.5 -104t-106.5 -32q-93 0 -93 49z" />
    <glyph glyph-name="parenleft.smcp" horiz-adv-x="266" 
d="M238 -80v-86q-91 0 -146.5 98t-55.5 269t55.5 269t146.5 98v-86q-65 0 -65 -281t65 -281z" />
    <glyph glyph-name="parenright.smcp" horiz-adv-x="265" 
d="M28 482v86q91 0 146 -98t55 -269t-55 -269t-146 -98v86q64 0 64 281t-64 281z" />
    <glyph glyph-name="bracketleft.smcp" horiz-adv-x="270" 
d="M40 -161v724h202v-86h-69v-552h69v-86h-202z" />
    <glyph glyph-name="bracketright.smcp" horiz-adv-x="270" 
d="M229 563v-724h-201v86h68v552h-68v86h201z" />
    <glyph glyph-name="braceleft.smcp" horiz-adv-x="290" 
d="M81 -16v127q0 44 -53 44v91q53 0 53 44v127q0 78 43 114.5t138 36.5v-91q-48 0 -48 -44v-108q0 -89 -65 -124q65 -35 65 -125v-107q0 -44 48 -44v-91q-95 0 -138 36.5t-43 113.5z" />
    <glyph glyph-name="braceright.smcp" horiz-adv-x="290" 
d="M210 417v-127q0 -43 52 -43v-91q-52 0 -52 -44v-128q0 -77 -43.5 -113.5t-138.5 -36.5v91q49 0 49 44v108q0 89 64 124q-64 36 -64 125v107q0 44 -49 44v91q95 0 138.5 -36.5t43.5 -114.5z" />
    <glyph glyph-name="exclamdown.smcp" horiz-adv-x="233" 
d="M40 252v123h152v-123h-152zM40 -150v352h152v-352h-152z" />
    <glyph glyph-name="questiondown.smcp" horiz-adv-x="489" 
d="M321 202v-11q0 -37 -13.5 -63t-33 -40.5t-39 -26.5t-33 -28.5t-13.5 -38.5q0 -19 16.5 -34.5t43.5 -15.5q59 0 59 56h148q0 -73 -56.5 -114t-155.5 -41q-94 0 -152 39.5t-58 109.5q0 40 14 68t33.5 42t39.5 25t34 26t14 36v11h152zM321 375v-123h-152v123h152z" />
    <glyph glyph-name="question.smcp" horiz-adv-x="488" 
d="M168 173v11q0 37 13.5 63t33 40.5t39 26.5t33 28.5t13.5 38.5q0 19 -16.5 34.5t-43.5 15.5q-59 0 -59 -72h-148q0 80 56.5 125.5t155.5 45.5q94 0 152 -39.5t58 -109.5q0 -40 -14 -68t-33.5 -42t-39.5 -25t-34 -26t-14 -36v-11h-152zM168 0v123h152v-123h-152z" />
    <glyph glyph-name="bar.smcp" horiz-adv-x="213" 
d="M40 -75v600h133v-600h-133z" />
    <glyph glyph-name="brokenbar.smcp" horiz-adv-x="213" 
d="M40 -75v263h133v-263h-133zM173 525v-262h-133v262h133z" />
    <glyph glyph-name="percent.smcp" horiz-adv-x="627" 
d="M94 0l328 525h113l-328 -525h-113zM32 415q0 53 34.5 84t91.5 31t92 -31t35 -84q0 -52 -35 -83t-92 -31t-91.5 31t-34.5 83zM114 415q0 -18 12 -29.5t32 -11.5q19 0 30.5 11.5t11.5 29.5t-11.5 29t-30.5 11q-20 0 -32 -11t-12 -29zM343 108q0 53 34.5 84.5t91.5 31.5
q58 0 92.5 -31.5t34.5 -84.5t-34.5 -83t-92.5 -30q-57 0 -91.5 30t-34.5 83zM426 108q0 -40 43 -40q19 0 30.5 10.5t11.5 29.5q0 18 -11.5 29t-30.5 11q-20 0 -31.5 -11t-11.5 -29z" />
    <glyph glyph-name="perthousand.smcp" horiz-adv-x="893" 
d="M103 0l313 525h109l-312 -525h-110zM32 415q0 53 34.5 84t91.5 31t92 -31t35 -84q0 -52 -35 -83t-92 -31t-91.5 31t-34.5 83zM114 415q0 -18 12 -29.5t32 -11.5q19 0 30.5 11.5t11.5 29.5t-11.5 29t-30.5 11q-20 0 -32 -11t-12 -29zM333 108q0 53 35 84.5t92 31.5
t91.5 -31.5t34.5 -84.5t-34 -83t-92 -30t-92.5 30t-34.5 83zM416 108q0 -19 12 -29.5t32 -10.5q19 0 30.5 10.5t11.5 29.5q0 18 -11.5 29t-30.5 11q-20 0 -32 -11t-12 -29zM609 108q0 53 34.5 84.5t91.5 31.5q58 0 92.5 -31.5t34.5 -84.5t-34.5 -83t-92.5 -30
q-57 0 -91.5 30t-34.5 83zM692 108q0 -40 43 -40q19 0 30.5 10.5t11.5 29.5q0 18 -11.5 29t-30.5 11q-20 0 -31.5 -11t-11.5 -29z" />
    <glyph glyph-name="dagger.smcp" horiz-adv-x="445" 
d="M28 305v89h128v131h133v-131h129v-89h-129v-380h-133v380h-128z" />
    <glyph glyph-name="daggerdbl.smcp" horiz-adv-x="445" 
d="M418 145v-89h-129v-131h-133v131h-128v89h128v160h-128v89h128v131h133v-131h129v-89h-129v-160h129z" />
    <glyph glyph-name="section.smcp" horiz-adv-x="476" 
d="M28 -33h148q0 -42 57 -42q58 0 58 45q0 20 -26.5 31t-63.5 18t-74.5 19t-64 42.5t-26.5 79.5q0 69 53 114q-53 39 -53 109q0 69 57 108t150 39q84 0 136 -34t52 -91h-140q0 34 -53 34q-23 0 -36.5 -12t-13.5 -33q0 -17 19 -28t47 -16t61.5 -15t61.5 -24t47 -45t19 -75
q0 -64 -54 -107q54 -35 54 -108q0 -67 -59 -105t-156 -38q-90 0 -145 36t-55 98zM300 186q0 29 -72 45q-50 -17 -50 -61q0 -17 18 -26.5t54 -18.5q50 15 50 61z" />
    <glyph glyph-name="paragraph.smcp" horiz-adv-x="651" 
d="M393 525v-600h-144v262h-25q-89 0 -142.5 45t-53.5 123q0 79 53.5 124.5t142.5 45.5h169zM455 -75v600h144v-600h-144z" />
    <glyph glyph-name="afii61352.smcp" horiz-adv-x="872" 
d="M203 281v-281h-151v525h151l194 -281v281h152v-525h-152zM590 415q0 53 34.5 84t91.5 31q58 0 93 -31t35 -84q0 -52 -35 -83t-93 -31q-57 0 -91.5 31t-34.5 83zM673 415q0 -18 11.5 -29.5t32.5 -11.5q18 0 30 11.5t12 29.5t-12 29t-30 11q-21 0 -32.5 -11t-11.5 -29z
M598 182v85h238v-85h-238z" />
    <glyph glyph-name="afii10017.smcp" horiz-adv-x="583" 
d="M20 0l181 525h183l180 -525h-158l-32 94h-165l-31 -94h-158zM293 400l-60 -204h119z" />
    <glyph glyph-name="afii10018.smcp" horiz-adv-x="527" 
d="M450 525v-101h-238v-91h91q89 0 142.5 -44.5t53.5 -122.5t-53.5 -122t-142.5 -44h-251v525h398zM212 101h59q72 0 72 65q0 66 -72 66h-59v-131z" />
    <glyph glyph-name="afii10019.smcp" horiz-adv-x="546" 
d="M52 0v525h255q87 0 139.5 -36.5t52.5 -100.5q0 -76 -74 -113q94 -39 94 -129q0 -68 -54 -107t-143 -39h-270zM212 101h78q73 0 73 61q0 59 -73 59h-78v-120zM275 424h-63v-101h63q68 0 68 50q0 51 -68 51z" />
    <glyph glyph-name="afii10020.smcp" horiz-adv-x="455" 
d="M424 525v-101h-212v-424h-160v525h372z" />
    <glyph glyph-name="afii10021.smcp" horiz-adv-x="683" 
d="M28 -124v226h23q18 0 27.5 2.5t22.5 13.5t19 37.5t13 72.5t9.5 120t2.5 177h427v-423h83v-226h-134v124h-358v-124h-135zM411 424h-116q0 -230 -40 -323h156v323z" />
    <glyph glyph-name="afii10022.smcp" horiz-adv-x="486" 
d="M52 0v525h398v-101h-238v-103h204v-102h-204v-118h242v-101h-402z" />
    <glyph glyph-name="afii10023.smcp" horiz-adv-x="486" 
d="M52 0v525h398v-101h-238v-103h204v-102h-204v-118h242v-101h-402zM70 566v116h132v-116h-132zM300 566v116h132v-116h-132z" />
    <glyph glyph-name="afii10024.smcp" horiz-adv-x="856" 
d="M301 200l-123 -200h-162l190 309l-172 216h169l146 -184v184h160v-184l146 184h169l-173 -216l190 -309h-162l-121 200l-49 -48v-152h-160v152z" />
    <glyph glyph-name="afii10025.smcp" horiz-adv-x="532" 
d="M200 217v102h61q32 0 50 15t18 42q0 23 -19 37t-50 14q-75 0 -75 -81h-152q0 86 63 135t167 49q106 0 164.5 -37t58.5 -105q0 -78 -76 -117q95 -40 95 -129q0 -71 -60 -109t-174 -38q-108 0 -173 50t-65 138h152q0 -85 87 -85q75 0 75 57q0 29 -18 45.5t-53 16.5h-76z
" />
    <glyph glyph-name="afii10026.smcp" horiz-adv-x="600" 
d="M397 0v276l-194 -276h-151v525h151v-276l194 276h152v-525h-152z" />
    <glyph glyph-name="afii10027.smcp" horiz-adv-x="600" 
d="M114 696h110q0 -33 20.5 -52.5t53.5 -19.5q34 0 54 19t20 53h111q0 -70 -50.5 -109.5t-134.5 -39.5q-83 0 -133.5 40t-50.5 109zM397 0v276l-194 -276h-151v525h151v-276l194 276h152v-525h-152z" />
    <glyph glyph-name="afii10028.smcp" 
d="M393 0l-131 202l-50 -53v-149h-160v525h160v-184l152 184h177l-188 -211l207 -314h-167z" />
    <glyph glyph-name="afii10029.smcp" horiz-adv-x="610" 
d="M399 0v424h-120q0 -85 -4 -147t-11.5 -108.5t-22.5 -77t-32.5 -50t-46 -29.5t-57.5 -13.5t-73 -3.5v103q18 0 27.5 2.5t23 14.5t19.5 39t13 73t9.5 120t2.5 178h431v-525h-159z" />
    <glyph glyph-name="afii10030.smcp" horiz-adv-x="798" 
d="M52 0v525h246l100 -345l101 345h247v-525h-151v367l-117 -367h-160l-115 367v-367h-151z" />
    <glyph glyph-name="afii10031.smcp" horiz-adv-x="599" 
d="M387 0v219h-175v-219h-160v525h160v-204h175v204h160v-525h-160z" />
    <glyph glyph-name="afii10032.smcp" horiz-adv-x="599" 
d="M27 263q0 124 75 195.5t197 71.5q123 0 198 -71.5t75 -195.5q0 -125 -75 -196.5t-198 -71.5q-122 0 -197 71.5t-75 196.5zM187 263q0 -165 112 -165t112 165q0 164 -112 164t-112 -164z" />
    <glyph glyph-name="afii10033.smcp" horiz-adv-x="596" 
d="M383 0v424h-171v-424h-160v525h492v-525h-161z" />
    <glyph glyph-name="afii10034.smcp" horiz-adv-x="533" 
d="M52 0v525h258q89 0 142.5 -45.5t53.5 -124.5t-53 -123.5t-143 -44.5h-98v-187h-160zM278 424h-66v-136h66q73 0 73 67q0 69 -73 69z" />
    <glyph glyph-name="afii10035.smcp" horiz-adv-x="579" 
d="M300 427q-54 0 -83.5 -41.5t-29.5 -122.5q0 -82 29.5 -123.5t83.5 -41.5q92 0 92 92h155q0 -92 -66 -143.5t-176 -51.5q-126 0 -202 71.5t-76 196.5q0 124 76 195.5t202 71.5q110 0 176 -51.5t66 -143.5h-155q0 92 -92 92z" />
    <glyph glyph-name="afii10036.smcp" horiz-adv-x="527" 
d="M28 424v101h472v-101h-156v-424h-160v424h-156z" />
    <glyph glyph-name="afii10037.smcp" horiz-adv-x="549" 
d="M536 525l-181 -388q-35 -79 -88 -110.5t-168 -31.5v103q96 0 114 44l8 20h-29l-175 363h167l95 -239l87 239h170z" />
    <glyph glyph-name="afii10038.smcp" horiz-adv-x="736" 
d="M288 0v45h-17q-110 0 -177 57.5t-67 159.5t67 159.5t177 57.5h17v46h160v-45h17q110 0 177 -58t67 -159q0 -102 -67 -160t-177 -58h-17v-45h-160zM288 381h-17q-84 0 -84 -118q0 -119 84 -119h17v237zM448 144h17q84 0 84 119q0 118 -84 118h-17v-237z" />
    <glyph glyph-name="afii10039.smcp" horiz-adv-x="584" 
d="M16 0l184 266l-176 259h174l95 -159l95 159h175l-178 -258l184 -267h-175l-101 167l-103 -167h-174z" />
    <glyph glyph-name="afii10040.smcp" horiz-adv-x="647" 
d="M52 0v525h160v-424h163v424h161v-423h83v-226h-134v124h-433z" />
    <glyph glyph-name="afii10041.smcp" horiz-adv-x="584" 
d="M373 372v153h160v-525h-160v204q-54 -31 -130 -31q-85 0 -138 45.5t-53 123.5v183h160v-184q0 -65 67 -65q45 0 69.5 24.5t24.5 71.5z" />
    <glyph glyph-name="afii10042.smcp" horiz-adv-x="853" 
d="M507 525v-424h134v424h161v-525h-750v525h160v-424h135v424h160z" />
    <glyph glyph-name="afii10043.smcp" horiz-adv-x="913" 
d="M52 0v525h160v-424h135v424h160v-424h134v424h161v-423h83v-226h-134v124h-699z" />
    <glyph glyph-name="afii10044.smcp" horiz-adv-x="649" 
d="M28 424v101h299v-188h99q89 0 142.5 -44.5t53.5 -123.5t-54 -124t-142 -45h-260v424h-138zM327 101h66q73 0 73 68q0 67 -73 67h-66v-135z" />
    <glyph glyph-name="afii10045.smcp" horiz-adv-x="755" 
d="M52 0v525h160v-188h98q89 0 142.5 -44.5t53.5 -123.5t-54 -124t-142 -45h-258zM212 101h67q72 0 72 68q0 67 -72 67h-67v-135zM542 0v525h161v-525h-161z" />
    <glyph glyph-name="afii10046.smcp" horiz-adv-x="533" 
d="M52 0v525h160v-188h98q89 0 142.5 -44.5t53.5 -123.5t-54 -124t-142 -45h-258zM212 101h67q72 0 72 68q0 67 -72 67h-67v-135z" />
    <glyph glyph-name="afii10047.smcp" horiz-adv-x="579" 
d="M278 427q-91 0 -91 -85h-156q0 89 66 138.5t176 49.5q126 0 202 -71.5t76 -195.5q0 -125 -76 -196.5t-202 -71.5q-110 0 -176 49.5t-66 138.5h156q0 -85 91 -85q47 0 75.5 29.5t35.5 87.5h-195v102h194q-16 110 -110 110z" />
    <glyph glyph-name="afii10048.smcp" horiz-adv-x="822" 
d="M52 0v525h160v-208h75q15 100 83 156.5t171 56.5q114 0 184 -71.5t70 -195.5q0 -125 -70 -196.5t-184 -71.5q-106 0 -175 58t-79 162h-75v-215h-160zM444 263q0 -165 96 -165q95 0 95 165q0 164 -95 164q-96 0 -96 -164z" />
    <glyph glyph-name="afii10049.smcp" horiz-adv-x="541" 
d="M489 525v-525h-159v187h-49l-95 -187h-166l126 200q-52 18 -81.5 58.5t-29.5 97.5q0 79 54 124t142 45h258zM330 424h-56q-84 0 -84 -68q0 -67 84 -67h56v135z" />
    <glyph glyph-name="afii10050.smcp" horiz-adv-x="435" 
d="M52 0v525h222v97h130v-198h-192v-424h-160z" />
    <glyph glyph-name="afii10051.smcp" horiz-adv-x="684" 
d="M28 424v101h472v-101h-157v-115q50 24 115 24q79 0 129 -45.5t50 -123.5v-19q0 -78 -49.5 -114t-159.5 -36v91q49 0 49 51v27q0 66 -55 66q-37 0 -58 -24.5t-21 -71.5v-134h-159v424h-156z" />
    <glyph glyph-name="afii10052.smcp" horiz-adv-x="455" 
d="M105 555l95 145h147l-140 -145h-102zM424 525v-101h-212v-424h-160v525h372z" />
    <glyph glyph-name="afii10053.smcp" horiz-adv-x="579" 
d="M300 427q-95 0 -110 -110h219v-102h-220q13 -117 111 -117q92 0 92 85h155q0 -89 -66 -138.5t-176 -49.5q-126 0 -202 71.5t-76 196.5q0 124 76 195.5t202 71.5q110 0 176 -49.5t66 -138.5h-155q0 85 -92 85z" />
    <glyph glyph-name="afii10054.smcp" horiz-adv-x="514" 
d="M22 169h151q0 -71 76 -71q36 0 56 14.5t20 38.5q0 29 -30 43t-73 20.5t-86 18t-73 45.5t-30 92q0 75 61 117.5t161 42.5t156.5 -43.5t56.5 -120.5h-152q0 61 -57 61q-30 0 -48 -16.5t-18 -37.5q0 -23 21.5 -37t54.5 -19t70.5 -14.5t70.5 -22.5t54.5 -45t21.5 -79
q0 -79 -64 -120t-169 -41q-109 0 -170 46t-61 128z" />
    <glyph glyph-name="afii10055.smcp" horiz-adv-x="262" 
d="M52 0v525h160v-525h-160z" />
    <glyph glyph-name="afii10056.smcp" horiz-adv-x="262" 
d="M52 0v525h160v-525h-160zM-49 566v116h132v-116h-132zM181 566v116h132v-116h-132z" />
    <glyph glyph-name="afii10057.smcp" horiz-adv-x="514" 
d="M306 159v366h161v-366q0 -77 -59 -120.5t-156 -43.5t-155 43.5t-58 120.5v25h160v-25q0 -61 53 -61q54 0 54 61z" />
    <glyph glyph-name="afii10058.smcp" horiz-adv-x="880" 
d="M399 0v424h-120q0 -85 -4 -147t-11.5 -108.5t-22.5 -77t-32.5 -50t-46 -29.5t-57.5 -13.5t-73 -3.5v103q18 0 27.5 2.5t23 14.5t19.5 39t13 73t9.5 120t2.5 178h432v-188h98q89 0 142.5 -44.5t53.5 -123.5t-54 -124t-142 -45h-258zM559 101h66q72 0 72 68q0 67 -72 67
h-66v-135z" />
    <glyph glyph-name="afii10059.smcp" horiz-adv-x="855" 
d="M375 0v228h-163v-228h-160v525h160v-196h163v196h160v-196h97q88 0 141.5 -43.5t53.5 -120.5t-53.5 -121t-141.5 -44h-257zM535 101h65q72 0 72 64q0 63 -72 63h-65v-127z" />
    <glyph glyph-name="afii10060.smcp" horiz-adv-x="688" 
d="M28 424v101h472v-101h-157v-115q50 24 115 24q79 0 129 -45.5t50 -123.5v-164h-160v164q0 66 -55 66q-37 0 -58 -24.5t-21 -71.5v-134h-159v424h-156z" />
    <glyph glyph-name="afii10061.smcp" 
d="M393 0l-131 202l-50 -53v-149h-160v525h160v-184l152 184h177l-188 -211l207 -314h-167zM167 555l95 145h147l-140 -145h-102z" />
    <glyph glyph-name="afii10062.smcp" horiz-adv-x="549" 
d="M92 696h110q0 -33 20.5 -52.5t53.5 -19.5q34 0 54 19t20 53h111q0 -70 -50.5 -109.5t-134.5 -39.5q-83 0 -133.5 40t-50.5 109zM536 525l-181 -388q-35 -79 -88 -110.5t-168 -31.5v103q96 0 114 44l8 20h-29l-175 363h167l95 -239l87 239h170z" />
    <glyph glyph-name="afii10145.smcp" horiz-adv-x="596" 
d="M52 0v525h160v-424h171v424h161v-525h-180v-124h-133v124h-179z" />
    <glyph glyph-name="uni0400.smcp" horiz-adv-x="486" 
d="M52 0v525h398v-101h-238v-103h204v-102h-204v-118h242v-101h-402zM261 700l95 -145h-102l-140 145h147z" />
    <glyph glyph-name="uni040D.smcp" horiz-adv-x="600" 
d="M319 700l95 -145h-102l-140 145h147zM397 0v276l-194 -276h-151v525h151v-276l194 276h152v-525h-152z" />
    <glyph glyph-name="uni04D8.smcp" horiz-adv-x="579" 
d="M31 265q0 28 4 49h353q-16 113 -108 113q-90 0 -90 -77h-155q0 85 65 132.5t175 47.5q124 0 200 -71.5t76 -195.5q0 -125 -74 -196.5t-196 -71.5q-250 0 -250 270zM286 98q89 0 102 115h-202v-7q0 -56 23.5 -82t76.5 -26z" />
    <glyph glyph-name="quoteright_afii10056.smcp" horiz-adv-x="412" 
d="M314 569v95h124v-95h-124zM202 0v525h159v-525h-159zM40 541v123h142v-123q0 -61 -39 -98.5t-103 -37.5v77q21 0 35.5 16t14.5 43h-50z" />
    <glyph glyph-name="afii10056_afii10056.smcp" horiz-adv-x="502" 
d="M-25 569v95h124v-95h-124zM189 569v95h125v-95h-125zM403 569v95h125v-95h-125zM52 0v525h160v-525h-160zM291 0v525h160v-525h-160z" />
    </font>
</defs>
</svg>
